<?xml version="1.0" encoding="utf-8"?>
<!-- Generator: Adobe Illustrator 23.0.3, SVG Export Plug-In . SVG Version: 6.00 Build 0)  -->
<svg version="1.1" id="Flat" xmlns="http://www.w3.org/2000/svg" xmlns:xlink="http://www.w3.org/1999/xlink" x="0px" y="0px"
	 viewBox="0 0 100 100" style="enable-background:new 0 0 100 100;" xml:space="preserve">
<style type="text/css">
	.st0{stroke:#FFFFFF;stroke-width:5;stroke-miterlimit:10;}
	.st1{fill:#7EC140;}
	.st2{fill:#12BB40;}
	.st3{fill:#FFC20F;}
	.st4{fill:#E79A18;}
	.st5{fill:#FEC10E;}
	.st6{fill:#3EA7FF;}
	.st7{fill:#2B7CD4;}
	.st8{fill:#50ABE9;}
	.st9{fill:#195C85;}
	.st10{fill:#7F8C8D;}
	.st11{fill:#805333;}
	.st12{fill:#603E26;}
	.st13{fill:#95A5A5;}
	.st14{fill:#BDC3C7;}
	.st15{fill:#A56A43;}
	.st16{stroke:#FFFFFF;stroke-width:6;stroke-miterlimit:10;}
	.st17{fill:#607D8B;}
	.st18{fill:#37474F;}
	.st19{fill:#A4C400;}
	.st20{fill:#90AC00;}
	.st21{fill:#4A696F;}
	.st22{fill:#384949;}
	.st23{fill:#FFE470;}
	.st24{fill:#FDBF00;}
	.st25{fill:#FF9F00;}
	.st26{fill:#00838F;}
	.st27{fill:#00BCD4;}
	.st28{fill:#0377BC;}
	.st29{fill:#02A9F4;}
	.st30{fill:#3F51B5;}
	.st31{fill:#008A00;}
	.st32{fill:#007900;}
	.st33{fill:#F0C419;}
	.st34{fill:#F29C1F;}
	.st35{fill:#FFFFFF;}
	.st36{fill:#2C2F38;}
	.st37{fill:#E0CEA9;}
	.st38{fill:#BFA977;}
	.st39{fill:#FF5555;}
	.st40{fill:#E24040;}
	.st41{fill:#84B5CB;}
	.st42{fill:#9FC9D3;}
	.st43{fill:#E57E25;}
	.st44{fill:#CF976A;}
	.st45{fill:#4482C3;}
	.st46{fill:#ECF0F1;}
	.st47{fill:#393F4A;}
</style>
<g>
	<path class="st0" d="M82.5,38.8c1.5,0,2.8-1.3,2.8-2.8c0-1.5-1.2-2.8-2.8-2.8h-1.4V13.7h1.4c1.5,0,2.8-1.2,2.8-2.8
		c0-1.5-1.2-2.8-2.8-2.8H21.2c-1.5,0-2.8,1.2-2.8,2.8c0,1.5,1.2,2.8,2.8,2.8h1.4v19.5h-1.4c-1.5,0-2.8,1.3-2.8,2.8
		c0,1.5,1.2,2.8,2.8,2.8h1.4v19.5h-1.4c-1.5,0-2.8,1.3-2.8,2.8c0,1.5,1.2,2.8,2.8,2.8h1.4v19.5h-1.4c-1.5,0-2.8,1.2-2.8,2.8
		c0,1.5,1.2,2.8,2.8,2.8h61.2c1.5,0,2.8-1.2,2.8-2.8c0-1.5-1.2-2.8-2.8-2.8h-1.4V63.8h1.4c1.5,0,2.8-1.3,2.8-2.8
		c0-1.5-1.2-2.8-2.8-2.8h-1.4V38.8H82.5z"/>
	<path class="st33" d="M22.6,12.3h58.5v72.4H22.6V12.3z"/>
	<path class="st34" d="M21.2,8.2h61.2c1.5,0,2.8,1.2,2.8,2.8s-1.2,2.8-2.8,2.8H21.2c-1.5,0-2.8-1.2-2.8-2.8S19.7,8.2,21.2,8.2z"/>
	<path class="st34" d="M40.1,38.8H21.2c-1.5,0-2.8-1.2-2.8-2.8c0-1.5,1.3-2.8,2.8-2.8h61.2c1.5,0,2.8,1.2,2.8,2.8
		c0,1.5-1.3,2.8-2.8,2.8H63.7"/>
	<path class="st34" d="M40.1,58.3H21.2c-1.5,0-2.8,1.3-2.8,2.8c0,1.5,1.2,2.8,2.8,2.8h61.2c1.5,0,2.8-1.3,2.8-2.8
		c0-1.5-1.2-2.8-2.8-2.8H63.7"/>
	<path class="st34" d="M21.2,83.3h61.2c1.5,0,2.8,1.2,2.8,2.8c0,1.5-1.2,2.8-2.8,2.8H21.2c-1.5,0-2.8-1.2-2.8-2.8
		C18.5,84.6,19.7,83.3,21.2,83.3z"/>
	<path class="st35" d="M28.2,20.7c-0.4,0-0.7-0.1-1-0.4c-0.5-0.5-0.5-1.4,0-2c0.5-0.5,1.4-0.5,2,0c0.5,0.5,0.5,1.4,0,2
		C28.9,20.5,28.6,20.7,28.2,20.7z"/>
	<path class="st35" d="M28.2,29c-0.8,0-1.4-0.6-1.4-1.4v-4.2c0-0.8,0.6-1.4,1.4-1.4c0.8,0,1.4,0.6,1.4,1.4v4.2
		C29.6,28.4,29,29,28.2,29z"/>
	<path class="st35" d="M28.2,45.7c-0.4,0-0.7-0.1-1-0.4c-0.5-0.5-0.5-1.4,0-2c0.4-0.4,1.1-0.5,1.7-0.2c0.5,0.3,0.8,1,0.6,1.6
		C29.4,45.3,28.8,45.7,28.2,45.7z"/>
	<path class="st35" d="M28.2,54.1c-0.8,0-1.4-0.6-1.4-1.4v-4.2c0-0.8,0.6-1.4,1.4-1.4c0.8,0,1.4,0.6,1.4,1.4v4.2
		C29.6,53.5,29,54.1,28.2,54.1z"/>
	<path class="st35" d="M28.2,70.8c-0.6,0-1.1-0.3-1.3-0.9c-0.2-0.5-0.1-1.1,0.3-1.5c0.3-0.3,0.8-0.5,1.3-0.4c0.1,0,0.2,0,0.3,0.1
		c0.1,0,0.2,0.1,0.2,0.1c0.1,0.1,0.2,0.1,0.2,0.2c0.4,0.4,0.5,1,0.3,1.5C29.3,70.5,28.8,70.8,28.2,70.8z"/>
	<path class="st35" d="M28.2,79.1c-0.8,0-1.4-0.6-1.4-1.4v-4.2c0-0.8,0.6-1.4,1.4-1.4c0.8,0,1.4,0.6,1.4,1.4v4.2
		C29.6,78.5,29,79.1,28.2,79.1z"/>
	<path class="st36" d="M67.2,48.5c0,8.5-6.9,15.3-15.3,15.3S36.6,57,36.6,48.5s6.9-15.3,15.3-15.3S67.2,40.1,67.2,48.5z"/>
	<g>
		<path class="st33" d="M51.9,54.1c-3.1,0-5.6-2.5-5.6-5.6c0-3.1,2.5-5.6,5.6-5.6c3.1,0,5.6,2.5,5.6,5.6
			C57.4,51.6,54.9,54.1,51.9,54.1z M51.9,45.7c-1.5,0-2.8,1.2-2.8,2.8c0,1.5,1.2,2.8,2.8,2.8c1.5,0,2.8-1.2,2.8-2.8
			C54.7,47,53.4,45.7,51.9,45.7z"/>
		<path class="st33" d="M61.4,52.7c-0.6,0-1.1-0.4-1.3-0.9c-0.4-1.1-1.4-1.9-2.6-1.9c-0.3,0-0.6,0-0.9,0.2c-0.5,0.2-1,0.1-1.4-0.2
			c-0.4-0.3-0.6-0.8-0.5-1.3s0.4-0.9,0.9-1.1c0.6-0.2,1.3-0.4,1.9-0.3c2.4,0,4.5,1.5,5.3,3.7c0.1,0.3,0.1,0.7-0.1,1.1
			s-0.4,0.6-0.8,0.7C61.7,52.7,61.5,52.7,61.4,52.7z"/>
		<path class="st33" d="M56,58c-0.2,0-0.3,0-0.5-0.1c-2.2-0.8-3.7-2.9-3.7-5.3c0-0.2,0-0.3,0-0.5c0.1-0.8,0.8-1.3,1.6-1.2
			c0.8,0.1,1.3,0.8,1.2,1.6c0,1.2,0.7,2.3,1.9,2.7c0.6,0.2,1,0.9,0.9,1.5C57.3,57.5,56.7,58,56,58z"/>
		<path class="st33" d="M42.4,52.7c-0.2,0-0.3,0-0.5-0.1c-0.3-0.1-0.6-0.4-0.8-0.7s-0.2-0.7-0.1-1.1c0.8-2.2,2.9-3.7,5.3-3.7
			c0.7,0,1.3,0.1,1.9,0.3c0.5,0.2,0.8,0.6,0.9,1.1s-0.1,1-0.5,1.3c-0.4,0.3-0.9,0.4-1.4,0.2c-0.3-0.1-0.6-0.2-0.9-0.2
			c-1.2,0-2.2,0.7-2.6,1.9C43.5,52.3,43,52.7,42.4,52.7z"/>
		<path class="st33" d="M47.7,58c-0.7,0-1.3-0.5-1.4-1.2c-0.1-0.7,0.3-1.3,0.9-1.5c1.1-0.4,1.9-1.4,1.9-2.6
			c-0.1-0.8,0.4-1.5,1.2-1.6c0.8-0.1,1.5,0.4,1.6,1.1c0,0.2,0,0.3,0,0.5c0,2.4-1.5,4.5-3.7,5.3C48,58,47.9,58,47.7,58z"/>
		<path class="st33" d="M48.8,47.1c-0.4,0-0.8-0.2-1-0.5c-0.9-1-1.4-2.3-1.4-3.7c0-0.7,0.1-1.5,0.4-2.2c0.3-0.7,1.1-1,1.8-0.7
			c0.7,0.3,1,1.1,0.7,1.8c-0.1,0.3-0.2,0.7-0.2,1.1c0,0.2,0,0.4,0,0.5c0,0.2,0.1,0.3,0.1,0.5c0.1,0.2,0.1,0.3,0.2,0.4
			c0.1,0.1,0.2,0.3,0.3,0.4c0.4,0.4,0.5,1,0.2,1.5C49.8,46.8,49.3,47.1,48.8,47.1z"/>
		<path class="st33" d="M55,47.1c-0.5,0-1-0.3-1.3-0.8c-0.2-0.5-0.1-1.1,0.2-1.5c0.1-0.1,0.2-0.3,0.3-0.4c0.1-0.1,0.2-0.3,0.2-0.4
			c0.1-0.2,0.1-0.3,0.1-0.5c0-0.2,0-0.3,0-0.5c0-0.4-0.1-0.7-0.2-1.1c-0.3-0.7,0-1.5,0.7-1.8c0.7-0.3,1.5,0,1.8,0.7
			c0.4,1,0.5,2.1,0.3,3.2c-0.1,0.3-0.2,0.7-0.3,1c-0.2,0.6-0.6,1.2-1,1.7C55.7,47,55.4,47.1,55,47.1z"/>
	</g>
</g>
</svg>
