<?xml version="1.0" encoding="utf-8"?>
<!-- Generator: Adobe Illustrator 23.0.3, SVG Export Plug-In . SVG Version: 6.00 Build 0)  -->
<svg version="1.1" id="Flat" xmlns="http://www.w3.org/2000/svg" xmlns:xlink="http://www.w3.org/1999/xlink" x="0px" y="0px"
	 viewBox="0 0 100 100" style="enable-background:new 0 0 100 100;" xml:space="preserve">
<style type="text/css">
	.st0{stroke:#FFFFFF;stroke-width:5;stroke-miterlimit:10;}
	.st1{fill:#7EC140;}
	.st2{fill:#12BB40;}
	.st3{fill:#FFC20F;}
	.st4{fill:#E79A18;}
	.st5{fill:#FEC10E;}
	.st6{fill:#3EA7FF;}
	.st7{fill:#2B7CD4;}
	.st8{fill:#50ABE9;}
	.st9{fill:#195C85;}
	.st10{fill:#7F8C8D;}
	.st11{fill:#805333;}
	.st12{fill:#603E26;}
	.st13{fill:#95A5A5;}
	.st14{fill:#BDC3C7;}
	.st15{fill:#A56A43;}
	.st16{stroke:#FFFFFF;stroke-width:6;stroke-miterlimit:10;}
	.st17{fill:#607D8B;}
	.st18{fill:#37474F;}
	.st19{fill:#A4C400;}
	.st20{fill:#90AC00;}
	.st21{fill:#4A696F;}
	.st22{fill:#384949;}
	.st23{fill:#FFE470;}
	.st24{fill:#FDBF00;}
	.st25{fill:#FF9F00;}
	.st26{fill:#00838F;}
	.st27{fill:#00BCD4;}
	.st28{fill:#0377BC;}
	.st29{fill:#02A9F4;}
	.st30{fill:#3F51B5;}
	.st31{fill:#008A00;}
	.st32{fill:#007900;}
	.st33{fill:#F0C419;}
	.st34{fill:#F29C1F;}
	.st35{fill:#FFFFFF;}
	.st36{fill:#2C2F38;}
	.st37{fill:#E0CEA9;}
	.st38{fill:#BFA977;}
	.st39{fill:#FF5555;}
	.st40{fill:#E24040;}
	.st41{fill:#84B5CB;}
	.st42{fill:#9FC9D3;}
	.st43{fill:#E57E25;}
	.st44{fill:#CF976A;}
	.st45{fill:#4482C3;}
	.st46{fill:#ECF0F1;}
	.st47{fill:#393F4A;}
</style>
<g>
	<g>
		<path class="st0" d="M54.1,44.6c0-12.9-19.2-34.4-19.2-34.4S15.6,31.7,15.6,44.6c0,12.9,6.3,20.6,19.2,20.6
			C47.8,65.2,54.1,57.5,54.1,44.6z"/>
		<path class="st0" d="M73.4,35c0,0-11,11.8-11,20c0,8.1,3.6,13,11,13c7.4,0,11-4.9,11-13C84.4,46.8,73.4,35,73.4,35z"/>
		<path class="st0" d="M45.9,80.3c0,5.8,2.5,9.6,8.2,9.6c5.8,0,8.2-3.8,8.2-9.6s-8.2-15.1-8.2-15.1S45.9,74.5,45.9,80.3z"/>
	</g>
	<g>
		<g>
			<path class="st8" d="M54.1,44.6c0,12.9-6.3,20.6-19.2,20.6s-19.2-7.7-19.2-20.6s19.2-34.4,19.2-34.4S54.1,31.7,54.1,44.6z"/>
			<path class="st8" d="M84.4,54.9c0,8.1-3.6,13-11,13s-11-4.9-11-13c0-8.1,11-20,11-20S84.4,46.8,84.4,54.9z"/>
			<path class="st8" d="M62.4,80.3c0,5.8-2.5,9.6-8.2,9.6s-8.2-3.8-8.2-9.6s8.2-15.1,8.2-15.1S62.4,74.5,62.4,80.3z"/>
		</g>
		<path class="st9" d="M32.1,61.1c0,0-0.1,0-0.1,0c-3.6-0.2-7-2-9.3-4.8c-4.4-5.7-3-14.3-3-14.6c0.1-0.7,0.8-1.2,1.6-1.1
			c0.7,0.1,1.2,0.8,1.1,1.5c0,0.1-1.2,7.8,2.4,12.5c1.8,2.2,4.5,3.6,7.3,3.7c0.7,0.1,1.3,0.7,1.2,1.4C33.5,60.5,32.9,61.1,32.1,61.1
			z"/>
		<path class="st9" d="M72,63.8c-0.8,0-1.4-0.6-1.4-1.4c0-0.8,0.6-1.4,1.4-1.4c1.7,0,3.4-0.7,4.6-1.9c1-1.4,1.3-3.1,0.9-4.7
			c-0.1-0.7,0.4-1.4,1.1-1.5c0.7-0.1,1.4,0.4,1.6,1.1c0.6,2.4,0,5-1.5,7C76.9,62.7,74.5,63.8,72,63.8z"/>
		<path class="st9" d="M52.7,85.8c-0.2,0-0.4,0-0.6-0.1c-1.1-0.5-1.9-1.4-2.3-2.6c-0.4-1.1-0.3-2.4,0.3-3.4c0.3-0.7,1.2-1,1.8-0.6
			c0.7,0.3,1,1.2,0.6,1.8c-0.2,0.4-0.3,0.9-0.1,1.3c0.1,0.4,0.5,0.8,0.9,1c0.6,0.3,0.9,0.9,0.7,1.5C53.9,85.4,53.4,85.8,52.7,85.8z"
			/>
	</g>
</g>
</svg>
