<?xml version="1.0" encoding="utf-8"?>
<!-- Generator: Adobe Illustrator 23.0.3, SVG Export Plug-In . SVG Version: 6.00 Build 0)  -->
<svg version="1.1" id="Flat" xmlns="http://www.w3.org/2000/svg" xmlns:xlink="http://www.w3.org/1999/xlink" x="0px" y="0px"
	 viewBox="0 0 100 100" style="enable-background:new 0 0 100 100;" xml:space="preserve">
<style type="text/css">
	.st0{stroke:#FFFFFF;stroke-width:5;stroke-miterlimit:10;}
	.st1{fill:#7EC140;}
	.st2{fill:#12BB40;}
	.st3{fill:#FFC20F;}
	.st4{fill:#E79A18;}
	.st5{fill:#FEC10E;}
	.st6{fill:#3EA7FF;}
	.st7{fill:#2B7CD4;}
	.st8{fill:#50ABE9;}
	.st9{fill:#195C85;}
	.st10{fill:#7F8C8D;}
	.st11{fill:#805333;}
	.st12{fill:#603E26;}
	.st13{fill:#95A5A5;}
	.st14{fill:#BDC3C7;}
	.st15{fill:#A56A43;}
	.st16{stroke:#FFFFFF;stroke-width:6;stroke-miterlimit:10;}
	.st17{fill:#607D8B;}
	.st18{fill:#37474F;}
	.st19{fill:#A4C400;}
	.st20{fill:#90AC00;}
	.st21{fill:#4A696F;}
	.st22{fill:#384949;}
	.st23{fill:#FFE470;}
	.st24{fill:#FDBF00;}
	.st25{fill:#FF9F00;}
	.st26{fill:#00838F;}
	.st27{fill:#00BCD4;}
	.st28{fill:#0377BC;}
	.st29{fill:#02A9F4;}
	.st30{fill:#3F51B5;}
	.st31{fill:#008A00;}
	.st32{fill:#007900;}
	.st33{fill:#F0C419;}
	.st34{fill:#F29C1F;}
	.st35{fill:#FFFFFF;}
	.st36{fill:#2C2F38;}
	.st37{fill:#E0CEA9;}
	.st38{fill:#BFA977;}
	.st39{fill:#FF5555;}
	.st40{fill:#E24040;}
	.st41{fill:#84B5CB;}
	.st42{fill:#9FC9D3;}
	.st43{fill:#E57E25;}
	.st44{fill:#CF976A;}
	.st45{fill:#4482C3;}
	.st46{fill:#ECF0F1;}
	.st47{fill:#393F4A;}
</style>
<g>
	<g>
		<path class="st0" d="M24.8,24.7l1.5-1.6l0,0l2.7-2.9l0,0l1.5-1.6l0,0l2.4-2.5l-4.1-4.4l-6.2,6.7l-6.2-6.7L5.9,22.8l6.2,6.7
			l-6.2,6.7l4.1,4.4L24.8,24.7L24.8,24.7z M12.1,22.8l4.1-4.4l3.1,3.3l-4.1,4.4L12.1,22.8z"/>
		<polygon class="st0" points="94.1,41.2 58.7,41.2 59.2,45.4 40.4,45.4 41,40.6 10,40.6 14.1,76.1 32.8,76.1 34.6,91.8 64.3,91.8 
			64.8,87.4 64.8,87.4 65,86 65.4,81.8 89.4,81.8 93.4,47.5 93.4,47.5 93.7,45 93.7,45 		"/>
		<path class="st0" d="M58.7,41.2l16.9-18.1l0,0l1.7-1.8l0,0l3.1-3.3l0,0l1.7-1.8l0,0l2.7-2.9L80,8.2l-7.1,7.6l-7.1-7.6L54,20.9
			l7.1,7.6L54,36.1L58.7,41.2z M61.1,20.9l4.7-5.1l3.5,3.8l-4.7,5.1L61.1,20.9z"/>
	</g>
	<g>
		<g>
			<path class="st1" d="M41,40.6l-4.1,35.5H14.1L10,40.6H41z"/>
			<g>
				<path class="st2" d="M22.4,43.9L22.4,43.9c0.6,0,1,0.5,1,1v0.2c0,0.6-0.5,1-1,1h0c-0.6,0-1-0.5-1-1v-0.2
					C21.4,44.4,21.8,43.9,22.4,43.9z"/>
				<path class="st2" d="M40.6,43.9l-0.3,2.2h-8.7v-2.2H40.6z"/>
				<path class="st2" d="M22.4,70.5L22.4,70.5c0.6,0,1,0.5,1,1v0.2c0,0.6-0.5,1-1,1h0c-0.6,0-1-0.5-1-1v-0.2
					C21.4,71,21.8,70.5,22.4,70.5z"/>
				<path class="st2" d="M26.6,70.5h1.9c0.6,0,1.1,0.5,1.1,1.1v0c0,0.6-0.5,1.1-1.1,1.1h-1.9c-0.6,0-1.1-0.5-1.1-1.1v0
					C25.5,71,26,70.5,26.6,70.5z"/>
				<path class="st2" d="M31.8,43.9h1.9c0.6,0,1.1,0.5,1.1,1.1l0,0c0,0.6-0.5,1.1-1.1,1.1h-1.9c-0.6,0-1.1-0.5-1.1-1.1l0,0
					C30.7,44.4,31.2,43.9,31.8,43.9z"/>
				<path class="st2" d="M26.6,43.9h1.9c0.6,0,1.1,0.5,1.1,1.1l0,0c0,0.6-0.5,1.1-1.1,1.1h-1.9c-0.6,0-1.1-0.5-1.1-1.1l0,0
					C25.5,44.4,26,43.9,26.6,43.9z"/>
				<path class="st2" d="M37.3,72.7h-5.6v-2.2h5.8L37.3,72.7z"/>
				<path class="st2" d="M18.3,48.3L18.3,48.3c0.6,0,1,0.5,1,1v17.9c0,0.6-0.5,1-1,1h0c-0.6,0-1-0.5-1-1V49.4
					C17.2,48.8,17.7,48.3,18.3,48.3z"/>
				<path class="st2" d="M25.5,48.3L25.5,48.3c0.6,0,1,0.5,1,1v17.9c0,0.6-0.5,1-1,1h0c-0.6,0-1-0.5-1-1V49.4
					C24.5,48.8,24.9,48.3,25.5,48.3z"/>
				<path class="st2" d="M31.7,48.3h2.1v20h-2.1V48.3z"/>
			</g>
			<path class="st1" d="M5.9,36.1l22.7-24.4l4.1,4.4L10,40.6L5.9,36.1z"/>
			<path class="st2" d="M11,35.1L11,35.1c0.4-0.5,1.1-0.5,1.6,0l0.6,0.6c0.4,0.4,0.4,1,0,1.5l0,0c-0.4,0.5-1.1,0.5-1.6,0L11,36.5
				C10.6,36.1,10.6,35.5,11,35.1z"/>
			<path class="st2" d="M15.1,30.6L15.1,30.6c0.4-0.5,1.1-0.5,1.6,0l0.6,0.6c0.4,0.4,0.4,1,0,1.5l0,0c-0.4,0.5-1.1,0.5-1.6,0
				l-0.6-0.6C14.7,31.7,14.7,31,15.1,30.6z"/>
			<path class="st2" d="M19.2,26.2L19.2,26.2c0.4-0.5,1.1-0.5,1.6,0l0.6,0.6c0.4,0.4,0.4,1,0,1.5l0,0c-0.4,0.5-1.1,0.5-1.6,0
				l-0.6-0.6C18.9,27.2,18.9,26.6,19.2,26.2z"/>
			<path class="st2" d="M23.4,21.8L23.4,21.8c0.4-0.5,1.1-0.5,1.6,0l0.6,0.6c0.4,0.4,0.4,1,0,1.5l0,0c-0.4,0.5-1.1,0.5-1.6,0
				l-0.6-0.6C23,22.8,23,22.2,23.4,21.8z"/>
			<path class="st2" d="M27.5,17.3L27.5,17.3c0.4-0.5,1.1-0.5,1.6,0l0.6,0.6c0.4,0.4,0.4,1,0,1.5l0,0c-0.4,0.5-1.1,0.5-1.6,0
				l-0.6-0.6C27.1,18.4,27.1,17.7,27.5,17.3z"/>
			<path class="st1" d="M22.4,18.4l-6.2-6.7L5.9,22.8l6.2,6.7l3.1-3.3l-3.1-3.3l4.1-4.4l3.1,3.3L22.4,18.4z"/>
		</g>
		<g>
			<path class="st3" d="M94.1,41.2l-4.7,40.6h-26l-4.7-40.6H94.1z"/>
			<g>
				<g>
					<path class="st4" d="M72.9,45L72.9,45c0.7,0,1.2,0.5,1.2,1.2v0.2c0,0.7-0.5,1.2-1.2,1.2l0,0c-0.7,0-1.2-0.5-1.2-1.2v-0.2
						C71.7,45.5,72.2,45,72.9,45z"/>
					<path class="st4" d="M77.7,45h2.2c0.7,0,1.3,0.6,1.3,1.3l0,0c0,0.7-0.6,1.3-1.3,1.3h-2.2c-0.7,0-1.3-0.6-1.3-1.3l0,0
						C76.4,45.6,77,45,77.7,45z"/>
					<path class="st4" d="M93.5,46.4L93.5,46.4c-0.1,0.6-0.6,1.1-1.3,1.1h-7.5c-0.7,0-1.3-0.6-1.3-1.3l0,0c0-0.7,0.6-1.3,1.3-1.3
						h7.5C93,45,93.6,45.7,93.5,46.4z"/>
					<path class="st4" d="M72.9,75.4L72.9,75.4c0.7,0,1.2,0.5,1.2,1.2v0.2c0,0.7-0.5,1.2-1.2,1.2l0,0c-0.7,0-1.2-0.5-1.2-1.2v-0.2
						C71.7,76,72.2,75.4,72.9,75.4z"/>
					<path class="st4" d="M68.2,72L68.2,72c0.7,0,1.2,0.5,1.2,1.2v0.2c0,0.7-0.5,1.2-1.2,1.2h0c-0.7,0-1.2-0.5-1.2-1.2v-0.2
						C67,72.5,67.5,72,68.2,72z"/>
					<path class="st4" d="M77.7,75.4h2.2c0.7,0,1.3,0.6,1.3,1.3v0c0,0.7-0.6,1.3-1.3,1.3h-2.2c-0.7,0-1.3-0.6-1.3-1.3v0
						C76.4,76,77,75.4,77.7,75.4z"/>
					<path class="st4" d="M88.7,78h-4c-0.7,0-1.3-0.6-1.3-1.3v0c0-0.7,0.6-1.3,1.3-1.3h4c0.8,0,1.3,0.7,1.3,1.4l0,0
						C89.9,77.5,89.4,78,88.7,78z"/>
					<path class="st4" d="M67,50.1h2.4v22.8H67V50.1z"/>
					<path class="st4" d="M76.4,50.1L76.4,50.1c0.7,0,1.2,0.5,1.2,1.2v20.5c0,0.7-0.5,1.2-1.2,1.2l0,0c-0.7,0-1.2-0.5-1.2-1.2V51.3
						C75.3,50.6,75.8,50.1,76.4,50.1z"/>
					<path class="st4" d="M84.7,50.1L84.7,50.1c0.7,0,1.2,0.5,1.2,1.2v20.5c0,0.7-0.5,1.2-1.2,1.2l0,0c-0.7,0-1.2-0.5-1.2-1.2V51.3
						C83.5,50.6,84,50.1,84.7,50.1z"/>
				</g>
			</g>
			<path class="st5" d="M54,36.1L80,8.2l4.7,5.1l-26,27.9L54,36.1z"/>
			<path class="st4" d="M59.8,34.9L59.8,34.9c0.5-0.5,1.3-0.5,1.8,0l0.7,0.7c0.4,0.5,0.4,1.2,0,1.7l0,0c-0.5,0.5-1.3,0.5-1.8,0
				l-0.7-0.7C59.4,36.1,59.4,35.4,59.8,34.9z"/>
			<path class="st4" d="M64.6,29.9L64.6,29.9c0.5-0.5,1.3-0.5,1.8,0l0.7,0.7c0.4,0.5,0.4,1.2,0,1.7h0c-0.5,0.5-1.3,0.5-1.8,0
				l-0.7-0.7C64.1,31.1,64.1,30.3,64.6,29.9z"/>
			<path class="st4" d="M69.3,24.8L69.3,24.8c0.5-0.5,1.3-0.5,1.8,0l0.7,0.7c0.4,0.5,0.4,1.2,0,1.7v0c-0.5,0.5-1.3,0.5-1.8,0
				l-0.7-0.7C68.8,26,68.8,25.3,69.3,24.8z"/>
			<path class="st4" d="M74,19.7L74,19.7c0.5-0.5,1.3-0.5,1.8,0l0.7,0.7c0.4,0.5,0.4,1.2,0,1.7v0c-0.5,0.5-1.3,0.5-1.8,0L74,21.4
				C73.6,20.9,73.6,20.2,74,19.7z"/>
			<path class="st4" d="M78.7,14.6L78.7,14.6c0.5-0.5,1.3-0.5,1.8,0l0.7,0.7c0.4,0.5,0.4,1.2,0,1.7l0,0c-0.5,0.5-1.3,0.5-1.8,0
				l-0.7-0.7C78.3,15.8,78.3,15.1,78.7,14.6z"/>
			<path class="st5" d="M72.9,15.8l-7.1-7.6L54,20.9l7.1,7.6l3.5-3.8l-3.5-3.8l4.7-5.1l3.5,3.8L72.9,15.8z"/>
		</g>
		<g>
			
				<image style="overflow:visible;opacity:0.4;" width="48" height="53" xlink:href="3570436E.png"  transform="matrix(1 0 0 1 25.4304 42.2406)">
			</image>
			<g>
				<g>
					<path class="st6" d="M69.7,45.4l-5.4,46.4H34.6l-5.4-46.4H69.7z"/>
					<g>
						<path class="st7" d="M45.4,49.7L45.4,49.7c0.7,0,1.3,0.6,1.3,1.3v0.2c0,0.7-0.6,1.3-1.3,1.3h0c-0.7,0-1.3-0.6-1.3-1.3v-0.2
							C44,50.3,44.6,49.7,45.4,49.7z"/>
						<path class="st7" d="M50.9,49.7h2.5c0.8,0,1.4,0.6,1.4,1.4v0c0,0.8-0.6,1.4-1.4,1.4h-2.5c-0.8,0-1.4-0.6-1.4-1.4v0
							C49.4,50.4,50.1,49.7,50.9,49.7z"/>
						<path class="st7" d="M69,51.4L69,51.4c-0.1,0.7-0.7,1.3-1.4,1.3H59c-0.8,0-1.4-0.6-1.4-1.4v0c0-0.8,0.6-1.4,1.4-1.4h8.6
							C68.4,49.7,69.1,50.5,69,51.4z"/>
						<path class="st7" d="M45.4,84.5L45.4,84.5c0.7,0,1.3,0.6,1.3,1.3v0.2c0,0.7-0.6,1.3-1.3,1.3h0c-0.7,0-1.3-0.6-1.3-1.3v-0.2
							C44,85.1,44.6,84.5,45.4,84.5z"/>
						<path class="st7" d="M50.9,84.5h2.5c0.8,0,1.4,0.6,1.4,1.4l0,0c0,0.8-0.6,1.4-1.4,1.4h-2.5c-0.8,0-1.4-0.6-1.4-1.4l0,0
							C49.4,85.2,50.1,84.5,50.9,84.5z"/>
						<path class="st7" d="M63.5,87.4H59c-0.8,0-1.4-0.6-1.4-1.4l0,0c0-0.8,0.6-1.4,1.4-1.4h4.5c0.9,0,1.5,0.8,1.4,1.6l0,0
							C64.9,86.9,64.2,87.4,63.5,87.4z"/>
						<path class="st7" d="M40,55.5L40,55.5c0.7,0,1.3,0.6,1.3,1.3v23.4c0,0.7-0.6,1.3-1.3,1.3h0c-0.7,0-1.3-0.6-1.3-1.3V56.9
							C38.6,56.1,39.2,55.5,40,55.5z"/>
						<path class="st7" d="M49.4,55.5L49.4,55.5c0.7,0,1.3,0.6,1.3,1.3v23.4c0,0.7-0.6,1.3-1.3,1.3h0c-0.7,0-1.3-0.6-1.3-1.3V56.9
							C48.1,56.1,48.7,55.5,49.4,55.5z"/>
						<path class="st7" d="M58.9,55.5L58.9,55.5c0.7,0,1.3,0.6,1.3,1.3v23.4c0,0.7-0.6,1.3-1.3,1.3h0c-0.7,0-1.3-0.6-1.3-1.3V56.9
							C57.5,56.1,58.1,55.5,58.9,55.5z"/>
					</g>
				</g>
			</g>
		</g>
	</g>
</g>
</svg>
