<?xml version="1.0" encoding="utf-8"?>
<!-- Generator: Adobe Illustrator 23.0.3, SVG Export Plug-In . SVG Version: 6.00 Build 0)  -->
<svg version="1.1" id="Flat" xmlns="http://www.w3.org/2000/svg" xmlns:xlink="http://www.w3.org/1999/xlink" x="0px" y="0px"
	 viewBox="0 0 100 100" style="enable-background:new 0 0 100 100;" xml:space="preserve">
<style type="text/css">
	.st0{stroke:#FFFFFF;stroke-width:5;stroke-miterlimit:10;}
	.st1{fill:#7EC140;}
	.st2{fill:#12BB40;}
	.st3{fill:#FFC20F;}
	.st4{fill:#E79A18;}
	.st5{fill:#FEC10E;}
	.st6{fill:#3EA7FF;}
	.st7{fill:#2B7CD4;}
	.st8{fill:#50ABE9;}
	.st9{fill:#195C85;}
	.st10{fill:#7F8C8D;}
	.st11{fill:#805333;}
	.st12{fill:#603E26;}
	.st13{fill:#95A5A5;}
	.st14{fill:#BDC3C7;}
	.st15{fill:#A56A43;}
	.st16{stroke:#FFFFFF;stroke-width:6;stroke-miterlimit:10;}
	.st17{fill:#607D8B;}
	.st18{fill:#37474F;}
	.st19{fill:#A4C400;}
	.st20{fill:#90AC00;}
	.st21{fill:#4A696F;}
	.st22{fill:#384949;}
	.st23{fill:#FFE470;}
	.st24{fill:#FDBF00;}
	.st25{fill:#FF9F00;}
	.st26{fill:#00838F;}
	.st27{fill:#00BCD4;}
	.st28{fill:#0377BC;}
	.st29{fill:#02A9F4;}
	.st30{fill:#3F51B5;}
	.st31{fill:#008A00;}
	.st32{fill:#007900;}
	.st33{fill:#F0C419;}
	.st34{fill:#F29C1F;}
	.st35{fill:#FFFFFF;}
	.st36{fill:#2C2F38;}
	.st37{fill:#E0CEA9;}
	.st38{fill:#BFA977;}
	.st39{fill:#FF5555;}
	.st40{fill:#E24040;}
	.st41{fill:#84B5CB;}
	.st42{fill:#9FC9D3;}
	.st43{fill:#E57E25;}
	.st44{fill:#CF976A;}
	.st45{fill:#4482C3;}
	.st46{fill:#ECF0F1;}
	.st47{fill:#393F4A;}
</style>
<g>
	<path class="st0" d="M78,35.1c-6.2-7.3-15.1-9.7-23.1-5.4c-1.2,0.6-2.4,1-3.7,1.1c-0.1-4.4-0.9-8.1-2-11.2c2.4,0.6,4.9,0.5,7.4-0.3
		c0.6-0.2,1-0.9,0.8-1.5c-0.2-0.6-0.9-1-1.5-0.8c-3.9,1.2-6.9,0.1-7.9-0.3c-2.4-4.8-5.3-7.4-5.5-7.6c-0.5-0.4-1.3-0.4-1.7,0.1
		c-0.4,0.5-0.4,1.3,0.1,1.7c0.1,0.1,7.7,6.9,7.9,19.8c-1.1-0.2-2.2-0.5-3.1-1c-8.8-4.7-18.1-1.3-24.1,6.7c-0.4,0.5-1.6,2.6,1.3,3.2
		c3.5,0.7,6.3,1.2,8.6,1.5c3.5,0.8,4.8,4.7,3,8.1c-0.4,0.7-0.2,1.5,0.5,1.9c7.2,4.7,7.1,15.3-0.1,19.9c-0.6,0.4-0.8,1.1-0.4,1.7
		c2,3.5,0.5,7.8-3.2,8.7v0c-0.9,0.2-0.8,0.1-4.1,0.7c-0.9,0.2-3.6,0.9-0.7,3.3c6.7,5,14.5,4.9,20.8,0.7c1.8-1.2,4.2-1.2,6.1,0
		c6.4,4.2,14.3,4.3,21-0.9c1.3-1.1,1-1.5,1-1.7c-0.1,0-0.1,0-0.2,0c0,0-0.1,0-0.1,0c-1.5,0-5.1-1-6.5-1.6c0.1,0,0.1,0-0.1,0
		c0,0,0,0,0,0c-0.1,0-0.1-0.1-0.2-0.1c0.1,0,0.1,0,0.2,0.1c-0.7-0.4-1.9-4.2-1.2-5.5c0.7-1.4-0.2-3.9-0.9-4.2
		c-0.4-0.2-0.7-0.6-0.9-1c-0.1-0.1-0.1-0.2-0.1-0.3c0-0.1-0.1-0.2-0.1-0.3c-6.5-4.8-6.6-14.9,0.3-19.4c0.6-0.4,0.8-1.2,0.5-1.9
		c-1.9-3.6-0.3-7.7,3.5-8.2c0.8-0.1,1.7-0.2,2.5-0.4v0c1.3-0.2,2.5-0.4,4.4-0.8c0.1,0,0.1,0,0.2,0c0,0,0,0,0,0
		C80.6,38.9,78.5,35.8,78,35.1z M66.4,81c-0.8-0.3-1.7-0.6-2.7-0.9C64.5,80.4,65.5,80.7,66.4,81z"/>
	<g>
		<path class="st37" d="M72,40.3c-0.8,0.1,0.8,0-12.6,1c-1.2,0.1-2.4,0.5-3.4,1.2c-2.1,1.5-4.4,2.5-6.9,2.9c-1.6,0.3-3.2-0.1-4.6-1
			c-3.8-2.6-6.6-2.7-13-3.7v0.3c3.5,0.8,4.8,4.7,3,8.1c-0.4,0.7-0.2,1.5,0.5,1.9c7.2,4.7,7.1,15.3-0.1,19.9
			c-0.6,0.4-0.8,1.1-0.4,1.7c2,3.5,0.5,7.8-3.2,8.7v0.3c6.7-1.6,8.1-2.4,11-1.7c0.2,0,5.2,1.5,11.1-2c0.9-0.5,2-0.6,2.9-0.2
			c2.4,1,3,1.3,6.5,2.4h0.5c-0.3-1.1-0.1-2.4,0.5-3.4l2.6-4.6c-0.6-0.4-1-0.9-1.1-1.6c-6.5-4.8-6.6-14.9,0.3-19.4
			c0.6-0.4,0.8-1.2,0.5-1.9c-1.9-3.6-0.3-7.7,3.5-8.2c0.8-0.1,1.7-0.2,2.5-0.4V40.3z"/>
		<path class="st38" d="M37.7,72.8c-0.3-0.6-0.1-1.3,0.4-1.7c7.2-4.6,7.3-15.2,0.1-19.9c-0.6-0.4-0.8-1.2-0.5-1.9
			c1.7-3.1,0.7-6.6-2.1-7.8l-4.2-0.6v0.3c3.5,0.8,4.8,4.7,3,8.1c-0.4,0.7-0.2,1.5,0.5,1.9c7.2,4.7,7.1,15.3-0.1,19.9
			c-0.6,0.4-0.8,1.1-0.4,1.7c2,3.5,0.5,7.8-3.2,8.7v0.3c0.1,0,5.3-1.3,5.4-1.3C38.7,78.7,39.3,75.5,37.7,72.8z"/>
		<path class="st38" d="M57.3,17.9c-0.2-0.6-0.9-1-1.5-0.8c-3.9,1.2-6.9,0.1-7.9-0.3c-2.4-4.8-5.3-7.4-5.5-7.6
			c-0.5-0.4-1.3-0.4-1.7,0.1c-0.4,0.5-0.4,1.3,0.1,1.7c0.1,0.1,7.9,7,7.9,20.3c0,0.7,0.5,1.2,1.2,1.2c0.7,0,1.2-0.5,1.2-1.2
			c0-4.6-0.9-8.4-2-11.6c2.4,0.6,4.9,0.5,7.4-0.3C57.2,19.2,57.5,18.5,57.3,17.9z"/>
		<path class="st39" d="M75.4,83.5c-0.2,0,0.6,0-7.9,0c-1.7,0-2.9-0.6-3.7-2c-0.3-0.5-0.4-0.9-0.5-1.4c-3.9-1.2-4.4-1.4-7-2.5
			c-0.9-0.4-2-0.3-2.9,0.2c-5.9,3.5-10.9,2-11.1,2c-1.4-0.3-2.9-0.3-4.4,0.1c-10,2.5-4.7,1.3-10.8,2.3c-0.9,0.2-3.6,0.9-0.7,3.3
			c6.7,5,14.5,4.9,20.8,0.7c1.8-1.2,4.2-1.2,6.1,0c6.4,4.2,14.3,4.3,21-0.9C75.6,84.1,75.3,83.7,75.4,83.5z"/>
		<path class="st39" d="M54.9,29.7c-2.9,1.5-6.4,1.5-9.2,0c-8.8-4.7-18.1-1.3-24.1,6.7c-0.4,0.5-1.6,2.6,1.3,3.2
			c12.2,2.6,16.3,1.5,21.6,5.2c1.3,0.9,3,1.3,4.6,1c2.5-0.4,4.9-1.4,6.9-2.9c1-0.7,2.2-1.2,3.4-1.2c12.2-0.9,11.9-0.8,16.9-1.8
			c0.1,0,0.1,0,0.2,0c0,0,0,0,0,0c4-0.9,1.9-4,1.3-4.7C71.8,27.8,62.9,25.4,54.9,29.7z"/>
		<path class="st40" d="M24.8,37.4c3.8-5.6,8.9-9.2,14.3-9.8c-6.6-0.7-13,2.8-17.5,8.7c-0.4,0.5-1.6,2.6,1.3,3.2
			c0.5,0.1,1,0.2,1.5,0.3C23.9,39,24.5,37.8,24.8,37.4z"/>
		<path class="st40" d="M58.1,30c2.2-1.3,4.4-2.1,6.7-2.3c-3.3-0.3-6.6,0.3-9.9,2.1c-1.3,0.7-2.7,1.1-4.1,1.1
			C53.2,31.6,55.8,31.3,58.1,30z"/>
		<path class="st40" d="M29.6,85c-2.1-1.8-1.3-2.8-0.4-3.3c-0.7,0.1-1.4,0.2-2.1,0.3c-0.9,0.2-3.6,0.9-0.7,3.3c4,3,8.3,4.2,12.5,3.8
			C35.8,88.8,32.6,87.5,29.6,85z"/>
		<path class="st40" d="M56.5,85.8c-1.6-1.1-3.5-1.3-5.2-0.5c0.7,0.1,1.4,0.4,2,0.8c3.5,2.3,7.5,3.4,11.5,3
			C61.9,88.9,59.1,87.7,56.5,85.8z"/>
		<path class="st39" d="M59,78.7c0,0,8.1,2.5,9.2,3.1c1.1,0.6,5.9,1.9,7.1,1.8l-0.2,0.3l-8.5,1.1l-6.1-1.1l-2.8-2.6L59,78.7z"/>
		<path class="st37" d="M65.2,70.6c0,0,0.3,1.2,1.1,1.6c0.8,0.3,1.7,2.9,0.9,4.2c-0.7,1.4,0.5,5.2,1.2,5.5c0.7,0.3-3.5-1.5-5.3-1.8
			l-0.8-1.1c0,0-0.2-2.1,0-2.9s1.1-3.5,1.1-3.5L65.2,70.6z"/>
	</g>
</g>
</svg>
