<?xml version="1.0" encoding="utf-8"?>
<!-- Generator: Adobe Illustrator 23.0.3, SVG Export Plug-In . SVG Version: 6.00 Build 0)  -->
<svg version="1.1" id="Flat" xmlns="http://www.w3.org/2000/svg" xmlns:xlink="http://www.w3.org/1999/xlink" x="0px" y="0px"
	 viewBox="0 0 100 100" style="enable-background:new 0 0 100 100;" xml:space="preserve">
<style type="text/css">
	.st0{stroke:#FFFFFF;stroke-width:5;stroke-miterlimit:10;}
	.st1{fill:#7EC140;}
	.st2{fill:#12BB40;}
	.st3{fill:#FFC20F;}
	.st4{fill:#E79A18;}
	.st5{fill:#FEC10E;}
	.st6{fill:#3EA7FF;}
	.st7{fill:#2B7CD4;}
	.st8{fill:#50ABE9;}
	.st9{fill:#195C85;}
	.st10{fill:#7F8C8D;}
	.st11{fill:#805333;}
	.st12{fill:#603E26;}
	.st13{fill:#95A5A5;}
	.st14{fill:#BDC3C7;}
	.st15{fill:#A56A43;}
	.st16{stroke:#FFFFFF;stroke-width:6;stroke-miterlimit:10;}
	.st17{fill:#607D8B;}
	.st18{fill:#37474F;}
	.st19{fill:#A4C400;}
	.st20{fill:#90AC00;}
	.st21{fill:#4A696F;}
	.st22{fill:#384949;}
	.st23{fill:#FFE470;}
	.st24{fill:#FDBF00;}
	.st25{fill:#FF9F00;}
	.st26{fill:#00838F;}
	.st27{fill:#00BCD4;}
	.st28{fill:#0377BC;}
	.st29{fill:#02A9F4;}
	.st30{fill:#3F51B5;}
	.st31{fill:#008A00;}
	.st32{fill:#007900;}
	.st33{fill:#F0C419;}
	.st34{fill:#F29C1F;}
	.st35{fill:#FFFFFF;}
	.st36{fill:#2C2F38;}
	.st37{fill:#E0CEA9;}
	.st38{fill:#BFA977;}
	.st39{fill:#FF5555;}
	.st40{fill:#E24040;}
	.st41{fill:#84B5CB;}
	.st42{fill:#9FC9D3;}
	.st43{fill:#E57E25;}
	.st44{fill:#CF976A;}
	.st45{fill:#4482C3;}
	.st46{fill:#ECF0F1;}
	.st47{fill:#393F4A;}
</style>
<g>
	<path class="st0" d="M93.5,67.7H82.1C89.7,62.6,95,51.3,95,38.2c0-17.9-9.9-32.4-22.1-32.4H49.3c-15.5,0-26.9,23.5-20.2,45.5
		c-5.6,3.7-9.9,8.8-12.6,14.9H8.1c-0.8,0-1.5,0.7-1.5,1.5c0,0.8,0.7,1.5,1.5,1.5h7.4C14.3,73,13.8,77,13.9,81c0,3.3,2.6,5.9,5.9,5.9
		c1.6,0.2,3.1-0.1,4.5-0.8c0.7,4.7,4.8,8.2,9.6,8.2c5.2,0,9.4-4.1,9.5-9.2c0-4.8,0.7-9.7,1.8-14.3h48.3c0.8,0,1.5-0.7,1.5-1.5
		S94.4,67.7,93.5,67.7z"/>
	<g>
		<g id="Icons" transform="translate(6 1)">
			<path id="Shape_2_" class="st26" d="M87.5,37.2c0,17.1-9.2,31-20.6,31H43.3V6.2h23.6C78.3,6.2,87.5,20.1,87.5,37.2z"/>
			<path class="st27" d="M83.1,37.2c0,17.1-9.2,31-20.6,31H43.3V6.2h19.2C73.9,6.2,83.1,20.1,83.1,37.2z"/>
			<path class="st28" d="M63.9,37.2c0,17.1-9.2,31-20.6,31h-7.8L24.8,50.9c-1.4-4.4-2.2-9.1-2.1-13.7c0-16,8.1-29.1,18.4-30.8
				c0.7-0.1,1.5-0.2,2.2-0.2C54.7,6.2,63.9,20.1,63.9,37.2z"/>
			<path class="st29" d="M59.5,37.2c0,17.1-9.2,31-20.6,31h-3.3L24.8,50.9c-1.4-4.4-2.2-9.1-2.1-13.7c0-16,8.1-29.1,18.4-30.8
				C51.5,8.1,59.5,21.2,59.5,37.2z"/>
			<path class="st30" d="M57.9,37.2c0,3.5-0.4,7-1.3,10.3H31.5c0,0-0.5,0.2-1.4,0.5c-1-3.5-1.5-7.2-1.5-10.9
				c0-13.8,6.5-25.1,14.6-25.1S57.9,23.4,57.9,37.2z"/>
			<path class="st31" d="M56.6,47.5c0,0.1-0.1,0.3-0.1,0.5c0,0,0,0,0,0.1c-1.9,6.4-6.5,14.2-13.1,14.2c-6.2,1-7.2,15.3-7.4,21.7
				c-0.1,4.5-3.7,8.1-8.2,8s-8.1-3.7-8-8.2v-3.8c0,2.4-2,4.4-4.4,4.4c-1,0.1-2,0-2.9-0.3c-1.8-0.6-2.9-2.3-2.9-4.2v-1.5
				c0-14.2,8.4-25.1,20.7-30.4c0.1,0,0.2-0.1,1.4-0.5H56.6z"/>
			<path class="st32" d="M56.6,47.5c-0.1,0,0.1,0-4.4,0c0,0.1-0.1,0.3-0.1,0.5c0,0,0,0,0,0.1c-1.9,6.4-6.5,14.2-13.1,14.2
				c-6.2,1-7.2,15.3-7.4,21.7c-0.1,3.5-2.5,6.6-5.9,7.5c0.7,0.2,1.5,0.3,2.2,0.3c4.4,0,8-3.4,8.1-7.8c0.2-6.3,1.2-20.6,7.4-21.7
				c6.6,0,11.3-7.8,13.2-14.2c0,0,0,0,0-0.1C56.5,47.8,56.6,47.7,56.6,47.5L56.6,47.5z"/>
		</g>
		<g id="Layer_10">
			<path d="M95,38.2c0-17.9-9.9-32.4-22.1-32.4H49.3c-15.5,0-26.9,23.5-20.2,45.5c-5.6,3.7-9.9,8.8-12.6,14.9H8
				c-0.8,0-1.5,0.7-1.5,1.5s0.7,1.5,1.5,1.5h7.4c-1.1,3.8-1.6,7.8-1.5,11.8c0,3.3,2.6,5.9,5.9,5.9c1.6,0.2,3.1-0.1,4.5-0.8
				c0.7,4.7,4.8,8.2,9.6,8.2c5.2,0,9.4-4.1,9.5-9.2c0-4.8,0.7-9.7,1.8-14.3h48.3c0.8,0,1.5-0.7,1.5-1.5c0-0.8-0.7-1.5-1.5-1.5H82.1
				C89.7,62.5,95,51.3,95,38.2z M49.3,8.7c10.6,0,19.2,13.3,19.2,29.5s-8.6,29.5-19.2,29.5h-2.9c0.5-1.4,1.6-2.5,3-2.9
				c6.1-0.1,11.8-6.1,14.4-15.5c0.1-0.1,0.1-0.2,0.2-0.3c4.9-17.2-3.1-37.3-14.7-37.3c-10.7,0-19.7,18.4-14.9,36.6
				c-0.9,0.4-1.8,0.9-2.7,1.5C26.1,29.5,36.1,8.7,49.3,8.7z M37.2,47c-0.7-2.9-1.1-5.9-1.1-8.8c0-12.3,6.3-23.6,13.3-23.6
				c7.9,0,16.3,15.7,12.2,32.4C35.7,47,37.5,47,37.2,47L37.2,47z M40.5,84.9c-0.1,3.6-3,6.4-6.6,6.4c-3.7,0-6.6-2.9-6.7-6.5v-8.2
				c0-0.8-0.7-1.5-1.5-1.5s-1.5,0.7-1.5,1.5v4.4c0,1.6-1.3,2.9-2.9,2.9h-1.5c-1.6,0-2.9-1.3-2.9-2.9v-1.5c0-13.7,8-23.9,19.8-29.1
				l1.1-0.4h22.8c-2.4,7.1-6.8,11.8-11.3,11.8h-0.2C41.7,63,40.7,77.5,40.5,84.9z M72.9,67.7H58.5c17.2-11.6,17.2-47.4,0-59h14.4
				c10.6,0,19.2,13.3,19.2,29.5S83.5,67.7,72.9,67.7z"/>
			<path d="M77.3,60.3h-7.4c-0.8,0-1.5,0.7-1.5,1.5c0,0.8,0.7,1.5,1.5,1.5h7.4c0.8,0,1.5-0.7,1.5-1.5C78.8,61,78.1,60.3,77.3,60.3z"
				/>
			<path d="M38.3,59c-2.5,1.5-3.9,4.3-3.8,7.2c0,0.8,0.7,1.5,1.5,1.5s1.5-0.7,1.5-1.5c-0.2-1.8,0.7-3.6,2.2-4.6c0.7-0.4,1-1.3,0.6-2
				C39.9,58.9,39.1,58.6,38.3,59z"/>
			<path d="M36,70.6c-0.8,0-1.5,0.7-1.5,1.5V75c0,0.8,0.7,1.5,1.5,1.5s1.5-0.7,1.5-1.5v-2.9C37.5,71.3,36.9,70.6,36,70.6z"/>
			<path d="M28,63.4c-2.2,1.1-3.6,3.3-3.8,5.7c0,0.8,0.7,1.5,1.5,1.5c0.8,0,1.5-0.7,1.5-1.5c0.2-1.3,1-2.5,2.1-3.1
				c0.5-0.2,0.9-0.7,0.9-1.2s-0.2-1.1-0.7-1.4C29.1,63.1,28.5,63.1,28,63.4z"/>
		</g>
	</g>
</g>
</svg>
