<?xml version="1.0" encoding="utf-8"?>
<!-- Generator: Adobe Illustrator 23.0.3, SVG Export Plug-In . SVG Version: 6.00 Build 0)  -->
<svg version="1.1" id="Flat" xmlns="http://www.w3.org/2000/svg" xmlns:xlink="http://www.w3.org/1999/xlink" x="0px" y="0px"
	 viewBox="0 0 100 100" style="enable-background:new 0 0 100 100;" xml:space="preserve">
<style type="text/css">
	.st0{stroke:#FFFFFF;stroke-width:5;stroke-miterlimit:10;}
	.st1{fill:#7EC140;}
	.st2{fill:#12BB40;}
	.st3{fill:#FFC20F;}
	.st4{fill:#E79A18;}
	.st5{fill:#FEC10E;}
	.st6{fill:#3EA7FF;}
	.st7{fill:#2B7CD4;}
	.st8{fill:#50ABE9;}
	.st9{fill:#195C85;}
	.st10{fill:#7F8C8D;}
	.st11{fill:#805333;}
	.st12{fill:#603E26;}
	.st13{fill:#95A5A5;}
	.st14{fill:#BDC3C7;}
	.st15{fill:#A56A43;}
	.st16{stroke:#FFFFFF;stroke-width:6;stroke-miterlimit:10;}
	.st17{fill:#607D8B;}
	.st18{fill:#37474F;}
	.st19{fill:#A4C400;}
	.st20{fill:#90AC00;}
	.st21{fill:#4A696F;}
	.st22{fill:#384949;}
	.st23{fill:#FFE470;}
	.st24{fill:#FDBF00;}
	.st25{fill:#FF9F00;}
	.st26{fill:#00838F;}
	.st27{fill:#00BCD4;}
	.st28{fill:#0377BC;}
	.st29{fill:#02A9F4;}
	.st30{fill:#3F51B5;}
	.st31{fill:#008A00;}
	.st32{fill:#007900;}
	.st33{fill:#F0C419;}
	.st34{fill:#F29C1F;}
	.st35{fill:#FFFFFF;}
	.st36{fill:#2C2F38;}
	.st37{fill:#E0CEA9;}
	.st38{fill:#BFA977;}
	.st39{fill:#FF5555;}
	.st40{fill:#E24040;}
	.st41{fill:#84B5CB;}
	.st42{fill:#9FC9D3;}
	.st43{fill:#E57E25;}
	.st44{fill:#CF976A;}
	.st45{fill:#4482C3;}
	.st46{fill:#ECF0F1;}
	.st47{fill:#393F4A;}
</style>
<g>
	<path class="st16" d="M84.5,80.2h-4h-0.4c0.4-0.7,0.6-1.5,0.7-2.4l2.4-48h1.3c2.2,0,4-1.8,4-4c0-2.2-1.8-4-4-4h-4h-7l-3.2-7.4
		c-0.8-2-2.8-3.2-4.9-3.2H53.1c-2.1,0-4,1.3-4.9,3.2L45,21.9H34.1c-2.2,0-4,1.8-4,4c0,2.2,1.8,4,4,4h1.3l1.7,34.5h-4H15.5
		c-2.2,0-4,1.8-4,4c0,2.2,1.8,4,4,4h4c2.2,0,4,1.8,4,4c0,2.2-1.8,4-4,4h-4c-2.2,0-4,1.8-4,4c0,2.2,1.8,4,4,4h65h4c0.1,0,0.2,0,0.3,0
		c0,0,0,0,0,0c2-0.2,3.7-1.9,3.7-4C88.5,82,86.7,80.2,84.5,80.2z M61.3,55c-0.2,0-0.4,0.1-0.7,0.1c0.1,0,0.2,0,0.3,0
		C61.1,55,61.2,55,61.3,55c0.1,0,0.2,0,0.3-0.1c0.1,0,0.2-0.1,0.3-0.1C61.7,54.9,61.5,54.9,61.3,55z M52.8,17.4
		c0.2-0.5,0.7-0.8,1.2-0.8h10.6c0.5,0,1,0.3,1.2,0.8l1.9,4.5h-17L52.8,17.4z"/>
	<g id="Page-1_1_">
		<g>
			<g id="Color" transform="translate(1 1)">
				<path id="Shape_1_" class="st17" d="M63.6,28.8v21.2c0,1.1-0.4,2.1-1.2,2.8c-0.4,0.4-0.9,0.7-1.5,0.9v18.8
					c0,1.5-1.2,2.7-2.7,2.7c-1.5,0-2.7-1.2-2.7-2.7V43.4c0-2.2-1.8-4-4-4c-2.2,0-4,1.8-4,4v29.2c0,1.5-1.2,2.7-2.7,2.7
					s-2.7-1.2-2.7-2.7V49.8c-1.6-0.6-2.6-2.1-2.7-3.7V28.8h-5.3l1.7,34.5l0.7,13.5c0.1,2.8,2.5,5,5.3,5h32.4c1.9,0,3.7-1,4.6-2.7
					c0.4-0.7,0.6-1.5,0.7-2.4l2.4-48H63.6z M74.2,72.6c0,1.5-1.2,2.7-2.7,2.7s-2.7-1.2-2.7-2.7V39.5c0-1.5,1.2-2.7,2.7-2.7
					s2.7,1.2,2.7,2.7V72.6z"/>
				<g>
					<path class="st18" d="M78.2,28.8l-2.4,48c0,0.8-0.3,1.7-0.7,2.4c-0.9,1.6-2.7,2.7-4.6,2.7l4,0c1.9,0,3.7-1,4.6-2.7
						c0.4-0.7,0.6-1.5,0.7-2.4l2.4-48H78.2z"/>
					<path class="st18" d="M47.7,46.1v26.5c0,1.5-1.2,2.7-2.7,2.7s-2.7-1.2-2.7-2.7V49.8c0.4,0.2,0.9,0.2,1.3,0.2
						C45.9,50.1,47.7,48.3,47.7,46.1z"/>
					<path class="st18" d="M60.9,53.8v18.8c0,1.5-1.2,2.7-2.7,2.7c-1.5,0-2.7-1.2-2.7-2.7V50.1c0,2.2,1.8,4,4,4
						C60.1,54,60.5,54,60.9,53.8z"/>
				</g>
				<path class="st17" d="M87.5,24.9c0,2.2-1.8,4-4,4H33.1c-2.2,0-4-1.8-4-4s1.8-4,4-4h50.4C85.7,20.9,87.5,22.7,87.5,24.9z"/>
				<path class="st18" d="M83.5,20.9h-4c2.2,0,4,1.8,4,4s-1.8,4-4,4h4c2.2,0,4-1.8,4-4S85.7,20.9,83.5,20.9z"/>
				<path class="st17" d="M72.5,20.9h-5.8l-1.9-4.5c-0.2-0.5-0.7-0.8-1.2-0.8H53c-0.5,0-1,0.3-1.2,0.8l-2,4.5H44l3.2-7.4
					c0.8-2,2.8-3.2,4.9-3.2h12.4c2.1,0,4,1.3,4.9,3.2L72.5,20.9z"/>
				<path class="st18" d="M74.2,39.5v33.2c0,1.5-1.2,2.7-2.7,2.7s-2.7-1.2-2.7-2.7V39.5c0-1.5,1.2-2.7,2.7-2.7S74.2,38,74.2,39.5z"
					/>
				<path class="st19" d="M63.6,28.8v21.2c0,1.1-0.4,2.1-1.2,2.8c-0.4,0.4-0.9,0.7-1.5,0.9C60.5,54,60.1,54,59.6,54
					c-2.2,0-4-1.8-4-4v-6.6c0-2.2-1.8-4-4-4c-2.2,0-4,1.8-4,4v2.7c0,2.2-1.8,4-4,4c-0.5,0-0.9-0.1-1.3-0.2c-1.6-0.6-2.6-2.1-2.7-3.7
					V28.8H63.6z"/>
				<path class="st20" d="M47.7,39.5c-2.2,0-4,1.8-4,4v2.7c0,1.1-0.4,2.1-1.2,2.8c-0.3,0.2-0.5,0.4-0.8,0.6c0.2,0.1,0.4,0.2,0.7,0.3
					c0.4,0.2,0.9,0.2,1.3,0.2c2.2,0,4-1.8,4-4v-2.7c0-1.4,0.8-2.7,2-3.4C49.1,39.6,48.4,39.5,47.7,39.5L47.7,39.5z"/>
				<path class="st20" d="M59.6,28.8v21.2c0,1.1-0.4,2.1-1.2,2.8c-0.2,0.2-0.5,0.4-0.8,0.6c0.6,0.4,1.3,0.6,2,0.6
					c0.5,0,0.9-0.1,1.3-0.2c0.6-0.2,1.1-0.5,1.5-0.9c0.7-0.7,1.2-1.8,1.2-2.8V28.8L59.6,28.8z"/>
				<path class="st19" d="M87.5,83.2c0,2.2-1.8,4-4,4h-69c-2.2,0-4-1.8-4-4s1.8-4,4-4h4c2.2,0,4-1.8,4-4s-1.8-4-4-4h-4
					c-2.2,0-4-1.8-4-4s1.8-4,4-4h21.6l0.7,13.5c0.1,2.8,2.5,5,5.3,5h32.4c1.9,0,3.7-1,4.6-2.7h4.4C85.7,79.2,87.5,81,87.5,83.2z"/>
				<path class="st20" d="M86.3,80.4c-0.7-0.7-1.8-1.2-2.8-1.2h-4c2.2,0,4,1.8,4,4s-1.8,4-4,4h4c1.6,0,3.1-1,3.7-2.5
					C87.8,83.3,87.4,81.6,86.3,80.4L86.3,80.4z"/>
				<path class="st20" d="M38.1,81.9l4,0c-2.8,0-5.2-2.2-5.3-5l-0.7-13.5h-4l0.7,13.5C33,79.7,35.3,81.9,38.1,81.9z"/>
			</g>
			<g id="Outline">
				<path class="st18" d="M71.2,40.5c0-0.7,0.6-1.3,1.3-1.3c0.7,0,1.3,0.6,1.3,1.3v33.2c0,0.7-0.6,1.3-1.3,1.3
					c-0.7,0-1.3-0.6-1.3-1.3V40.5z"/>
				<path class="st20" d="M26.1,71h1.3c0.7,0,1.3-0.6,1.3-1.3c0-0.7-0.6-1.3-1.3-1.3h-1.3c-0.7,0-1.3,0.6-1.3,1.3
					C24.8,70.4,25.4,71,26.1,71z"/>
				<path class="st20" d="M27.4,81.6h-1.3c-0.7,0-1.3,0.6-1.3,1.3s0.6,1.3,1.3,1.3h1.3c0.7,0,1.3-0.6,1.3-1.3S28.2,81.6,27.4,81.6z"
					/>
			</g>
		</g>
	</g>
</g>
</svg>
