<?xml version="1.0" encoding="utf-8"?>
<!-- Generator: Adobe Illustrator 23.0.3, SVG Export Plug-In . SVG Version: 6.00 Build 0)  -->
<svg version="1.1" id="Flat" xmlns="http://www.w3.org/2000/svg" xmlns:xlink="http://www.w3.org/1999/xlink" x="0px" y="0px"
	 viewBox="0 0 100 100" style="enable-background:new 0 0 100 100;" xml:space="preserve">
<style type="text/css">
	.st0{stroke:#FFFFFF;stroke-width:5;stroke-miterlimit:10;}
	.st1{fill:#7EC140;}
	.st2{fill:#12BB40;}
	.st3{fill:#FFC20F;}
	.st4{fill:#E79A18;}
	.st5{fill:#FEC10E;}
	.st6{fill:#3EA7FF;}
	.st7{fill:#2B7CD4;}
	.st8{fill:#50ABE9;}
	.st9{fill:#195C85;}
	.st10{fill:#7F8C8D;}
	.st11{fill:#805333;}
	.st12{fill:#603E26;}
	.st13{fill:#95A5A5;}
	.st14{fill:#BDC3C7;}
	.st15{fill:#A56A43;}
	.st16{stroke:#FFFFFF;stroke-width:6;stroke-miterlimit:10;}
	.st17{fill:#607D8B;}
	.st18{fill:#37474F;}
	.st19{fill:#A4C400;}
	.st20{fill:#90AC00;}
	.st21{fill:#4A696F;}
	.st22{fill:#384949;}
	.st23{fill:#FFE470;}
	.st24{fill:#FDBF00;}
	.st25{fill:#FF9F00;}
	.st26{fill:#00838F;}
	.st27{fill:#00BCD4;}
	.st28{fill:#0377BC;}
	.st29{fill:#02A9F4;}
	.st30{fill:#3F51B5;}
	.st31{fill:#008A00;}
	.st32{fill:#007900;}
	.st33{fill:#F0C419;}
	.st34{fill:#F29C1F;}
	.st35{fill:#FFFFFF;}
	.st36{fill:#2C2F38;}
	.st37{fill:#E0CEA9;}
	.st38{fill:#BFA977;}
	.st39{fill:#FF5555;}
	.st40{fill:#E24040;}
	.st41{fill:#84B5CB;}
	.st42{fill:#9FC9D3;}
	.st43{fill:#E57E25;}
	.st44{fill:#CF976A;}
	.st45{fill:#4482C3;}
	.st46{fill:#ECF0F1;}
	.st47{fill:#393F4A;}
</style>
<g>
	<g>
		<path class="st0" d="M50,13.5c-15.9,0-27.8,12.8-27.8,27.8c0,9,4.3,17.4,11.8,22.7c2.1,1.5,3.3,4,3.3,6.9v0.7c0,3.3,2.1,6.1,5,7.1
			l-0.2,2.1c-0.3,4.2,3.6,8.5,7.8,8.5c4.2,0,7.6-3.4,7.6-7.6v-3c2.9-1,5-3.8,5-7.1v-0.8c0-2.7,1.5-5.4,4-7.3
			c7.1-5.3,11.2-13.4,11.2-22.2C77.8,26.1,65.5,13.6,50,13.5z"/>
		<path class="st0" d="M90.6,38.8h-5.2c-1.4,0-2.5,1.1-2.5,2.5c0,1.4,1.1,2.5,2.5,2.5h5.2c1.4,0,2.5-1.1,2.5-2.5
			C93.1,39.9,91.9,38.8,90.6,38.8z"/>
		<path class="st0" d="M14.7,38.8H9.4c-1.4,0-2.5,1.1-2.5,2.5c0,1.4,1.1,2.5,2.5,2.5h5.2c1.4,0,2.5-1.1,2.5-2.5
			C17.2,39.9,16.1,38.8,14.7,38.8z"/>
		<path class="st0" d="M76.8,11l-3.6,3.6c-1,1-1,2.6,0,3.6c1,1,2.6,1,3.6,0l3.6-3.6c1-1,1-2.6,0-3.6C79.4,10,77.8,10,76.8,11z"/>
		<path class="st0" d="M23.2,64.5l-3.6,3.6c-1,1-1,2.6,0,3.6c1,1,2.6,1,3.6,0l3.6-3.6c1-1,1-2.6,0-3.6
			C25.8,63.5,24.2,63.5,23.2,64.5z"/>
		<path class="st0" d="M23.2,18.1c1,1,2.6,1,3.6,0c1-1,1-2.6,0-3.6L23.2,11c-1-1-2.6-1-3.6,0c-1,1-1,2.6,0,3.6L23.2,18.1z"/>
		<path class="st0" d="M76.8,64.5c-1-1-2.6-1-3.6,0c-1,1-1,2.6,0,3.6l3.6,3.6c1,1,2.6,1,3.6,0c1-1,1-2.6,0-3.6L76.8,64.5z"/>
	</g>
	<g>
		<path class="st21" d="M57.6,76.6v5c0,4.2-3.4,7.6-7.6,7.6s-7.6-3.4-7.6-7.6v-5c0-1.4,1.1-2.5,2.5-2.5H55
			C56.5,74.1,57.6,75.2,57.6,76.6z"/>
		<path class="st22" d="M57.6,76.6v5c0,4.2-3.4,7.6-7.6,7.6V74.1h5C56.5,74.1,57.6,75.2,57.6,76.6z"/>
		<path class="st23" d="M50,13.5c-15.9,0-27.8,12.8-27.8,27.8c0,9,4.3,17.4,11.8,22.7c2.1,1.5,3.3,4,3.3,6.9v0.7
			c0,4.2,3.4,7.6,7.6,7.6H55c4.2,0,7.6-3.4,7.6-7.6v-0.8c0-2.7,1.5-5.4,4-7.3c7.1-5.3,11.2-13.4,11.2-22.2
			C77.8,26.1,65.5,13.6,50,13.5z"/>
		<path class="st24" d="M77.8,41.3c0,8.8-4.1,16.9-11.2,22.2c-2.5,1.9-4,4.5-4,7.3v0.8c0,4.2-3.4,7.6-7.6,7.6h-5V13.5
			C65.5,13.6,77.8,26.1,77.8,41.3z"/>
		<path class="st24" d="M90.6,43.8h-5.2c-1.4,0-2.5-1.1-2.5-2.5c0-1.4,1.1-2.5,2.5-2.5h5.2c1.4,0,2.5,1.1,2.5,2.5
			C93.1,42.7,91.9,43.8,90.6,43.8z"/>
		<path class="st24" d="M14.7,43.8H9.4c-1.4,0-2.5-1.1-2.5-2.5c0-1.4,1.1-2.5,2.5-2.5h5.2c1.4,0,2.5,1.1,2.5,2.5
			C17.2,42.7,16.1,43.8,14.7,43.8z"/>
		<path class="st24" d="M73.2,18.1c-1-1-1-2.6,0-3.6l3.6-3.6c1-1,2.6-1,3.6,0c1,1,1,2.6,0,3.6l-3.6,3.6
			C75.8,19.1,74.2,19.1,73.2,18.1z"/>
		<path class="st24" d="M19.7,71.6c-1-1-1-2.6,0-3.6l3.6-3.6c1-1,2.6-1,3.6,0c1,1,1,2.6,0,3.6l-3.6,3.6
			C22.2,72.6,20.6,72.6,19.7,71.6z"/>
		<path class="st24" d="M23.2,18.1l-3.6-3.6c-1-1-1-2.6,0-3.6c1-1,2.6-1,3.6,0l3.6,3.6c1,1,1,2.6,0,3.6
			C25.8,19.1,24.2,19.1,23.2,18.1z"/>
		<path class="st24" d="M76.8,71.6l-3.6-3.6c-1-1-1-2.6,0-3.6c1-1,2.6-1,3.6,0l3.6,3.6c1,1,1,2.6,0,3.6
			C79.4,72.6,77.8,72.6,76.8,71.6z"/>
		<path class="st24" d="M64,44.2l-13.3-8.8l4.1-8.1c0.6-1.1,0.2-2.4-0.8-3.2c-1-0.7-2.4-0.6-3.2,0.3L35.6,39.5
			c-0.6,0.5-0.8,1.3-0.8,2c0.1,0.8,0.5,1.4,1.1,1.9l13.3,8.8l-4.1,8.1c-0.6,1.1-0.2,2.4,0.8,3.2c1,0.7,2.4,0.6,3.2-0.3l15.1-15.1
			c0.6-0.5,0.8-1.3,0.8-2C65,45.3,64.6,44.7,64,44.2z"/>
		<path class="st25" d="M65.1,46.1c0.1,0.8-0.2,1.5-0.8,2L50,62.5V25.1l0.8-0.8c0.9-0.9,2.2-1,3.2-0.3c1,0.8,1.4,2.1,0.8,3.2
			l-4.1,8.1L64,44.2C64.6,44.7,65,45.3,65.1,46.1z"/>
	</g>
</g>
</svg>
