<?xml version="1.0" encoding="utf-8"?>
<!-- Generator: Adobe Illustrator 23.0.3, SVG Export Plug-In . SVG Version: 6.00 Build 0)  -->
<svg version="1.1" id="Flat" xmlns="http://www.w3.org/2000/svg" xmlns:xlink="http://www.w3.org/1999/xlink" x="0px" y="0px"
	 viewBox="0 0 100 100" style="enable-background:new 0 0 100 100;" xml:space="preserve">
<style type="text/css">
	.st0{stroke:#FFFFFF;stroke-width:5;stroke-miterlimit:10;}
	.st1{fill:#7EC140;}
	.st2{fill:#12BB40;}
	.st3{fill:#FFC20F;}
	.st4{fill:#E79A18;}
	.st5{fill:#FEC10E;}
	.st6{fill:#3EA7FF;}
	.st7{fill:#2B7CD4;}
	.st8{fill:#50ABE9;}
	.st9{fill:#195C85;}
	.st10{fill:#7F8C8D;}
	.st11{fill:#805333;}
	.st12{fill:#603E26;}
	.st13{fill:#95A5A5;}
	.st14{fill:#BDC3C7;}
	.st15{fill:#A56A43;}
	.st16{stroke:#FFFFFF;stroke-width:6;stroke-miterlimit:10;}
	.st17{fill:#607D8B;}
	.st18{fill:#37474F;}
	.st19{fill:#A4C400;}
	.st20{fill:#90AC00;}
	.st21{fill:#4A696F;}
	.st22{fill:#384949;}
	.st23{fill:#FFE470;}
	.st24{fill:#FDBF00;}
	.st25{fill:#FF9F00;}
	.st26{fill:#00838F;}
	.st27{fill:#00BCD4;}
	.st28{fill:#0377BC;}
	.st29{fill:#02A9F4;}
	.st30{fill:#3F51B5;}
	.st31{fill:#008A00;}
	.st32{fill:#007900;}
	.st33{fill:#F0C419;}
	.st34{fill:#F29C1F;}
	.st35{fill:#FFFFFF;}
	.st36{fill:#2C2F38;}
	.st37{fill:#E0CEA9;}
	.st38{fill:#BFA977;}
	.st39{fill:#FF5555;}
	.st40{fill:#E24040;}
	.st41{fill:#84B5CB;}
	.st42{fill:#9FC9D3;}
	.st43{fill:#E57E25;}
	.st44{fill:#CF976A;}
	.st45{fill:#4482C3;}
	.st46{fill:#ECF0F1;}
	.st47{fill:#393F4A;}
</style>
<g>
	<g>
		<path class="st0" d="M84.2,66.9c3-3.2,2.9-8.1-0.1-11.2c-3-3.1-7.9-3.3-11.2-0.4c0-0.3,0.1-0.5,0.1-0.8c0-2.2-1-4.1-2.6-5.3
			l1.9-4.1c1.4,0.9,2.8,1.9,4,3.1c0.3,0.3,0.6,0.4,1,0.4l0,0c0.5,0,1-0.3,1.2-0.8c0.2-0.5,0.1-1.1-0.3-1.5c-1.4-1.4-3-2.7-4.8-3.7
			l1.1-2.5c2.3,1.2,4.5,2.6,6.5,4.3c0.2,0.2,0.6,0.3,0.9,0.3l0,0c0.6,0,1.1-0.4,1.3-0.9c0.2-0.5,0-1.1-0.4-1.5
			c-2.2-1.8-4.6-3.4-7.2-4.7l1.1-2.5c2.7,1.4,5.4,3,7.8,4.9c0.2,0.2,0.5,0.3,0.8,0.3h0c0.6,0,1.1-0.4,1.3-0.9c0.2-0.5,0-1.1-0.4-1.5
			c-2.6-2-5.4-3.8-8.4-5.3l1.7-3.7c2.6,1.3,5.1,2.7,7.5,4.4c0.4,0.3,0.9,0.3,1.4,0.1c0.4-0.2,0.7-0.7,0.8-1.2
			c0.3-6.1-3.1-12.3-6.4-13.7c-3.3-1.5-10.2,0-14.5,4.2c-0.4,0.3-0.5,0.8-0.4,1.3c0.1,0.5,0.5,0.9,1,1c2.8,0.7,5.6,1.7,8.2,2.8
			l-1.7,3.7c-3.1-1.2-6.2-2.2-9.5-2.8c-0.7-0.1-1.4,0.4-1.6,1.1c-0.1,0.7,0.4,1.4,1.1,1.6c3,0.6,6,1.5,8.8,2.6l-1.1,2.5
			c-2.7-1-5.5-1.8-8.3-2.3c-0.5-0.1-1,0.1-1.3,0.5c-0.3,0.4-0.4,0.9-0.2,1.4c0.2,0.5,0.6,0.8,1.1,0.8c2.6,0.4,5.1,1.1,7.6,2.1
			l-1.1,2.5c-1.9-0.7-3.9-1.1-6-1.2h-0.1c-0.7,0-1.4,0.6-1.4,1.3c0,0.7,0.6,1.4,1.3,1.4c1.7,0.1,3.4,0.4,5,1l-1.8,4
			c-0.6-0.2-1.2-0.2-1.8-0.2c-1,0-1.9,0.2-2.8,0.6c-0.4-1.9-2-3.3-4-3.3c-0.5,0-1,0.1-1.5,0.3c0.1-0.5,0.2-1.1,0.2-1.6
			c0-4-2.9-7.5-6.9-8.1c-4-0.6-7.8,1.8-8.9,5.7L42,40.1c-0.5-2.2-2.7-3.5-4.9-3l-13.1,3.2c-2.2,0.5-3.5,2.7-3,4.9l1.6,6.6
			c0.2,0.7,0.6,1.2,1.1,1.6l0,0h0c-0.7-0.2-1.4-0.3-2.1-0.3c-3.3,0-6.2,2-7.5,5c-1.3,3-0.6,6.5,1.7,8.8c-3.3,0.9-5.4,4-5,7.4
			c0.4,3.4,3.3,5.9,6.7,5.9h64.9c3.4,0,6.3-2.5,6.7-5.9C89.6,70.9,87.5,67.8,84.2,66.9z"/>
		<path class="st0" d="M26.5,39.7l7.9-1.9l-1.6-6.6c-0.2-0.7-0.9-1.2-1.6-1l-5.3,1.3c-0.7,0.2-1.2,0.9-1,1.6L26.5,39.7z"/>
	</g>
	<g id="Page-1_2_">
		<g transform="translate(-1)">
			<path class="st11" d="M43.2,41.3L43.2,41.3c1.2-3.9,5-6.3,9-5.7c4,0.6,6.9,4,6.9,8.1c0,0.6-0.1,1.1-0.2,1.6
				c0.5-0.2,1-0.3,1.5-0.3c2,0,3.6,1.4,4,3.3c0.9-0.4,1.8-0.6,2.8-0.6c3.7,0,6.8,3,6.8,6.8c0,0.3,0,0.5-0.1,0.8
				c3.2-2.9,8.2-2.7,11.2,0.4c3,3.1,3.1,8,0.1,11.2c3.3,0.9,5.4,4,5,7.4s-3.3,5.9-6.7,5.9H18.5c-3.4,0-6.3-2.5-6.7-5.9
				s1.7-6.5,5-7.4c-2.3-2.3-2.9-5.8-1.7-8.8c1.3-3,4.2-5,7.5-5c0.7,0,1.4,0.1,2.1,0.3h0L43.2,41.3z"/>
			<path class="st41" d="M24.9,40.3l13.1-3.2c2.2-0.5,4.4,0.8,4.9,3l1.6,6.6c0.4,1.5-0.5,2.9-2,3.3l-15.8,3.8
				c-1.5,0.4-2.9-0.5-3.3-2l-1.6-6.6C21.4,43,22.7,40.8,24.9,40.3L24.9,40.3z"/>
			<path class="st41" d="M27.9,70l-1.9-7.7c-0.4-1.5,0.5-2.9,2-3.3l15.8-3.8c1.5-0.4,2.9,0.5,3.3,2l1.7,6.9l-11.3,5.3L27.9,70z"/>
			<path id="Rectangle-path_1_" class="st42" d="M26.8,53.8l15.8-3.8c1.5-0.4,2.9,0.5,3.3,2l0,0c0.4,1.5-0.5,2.9-2,3.3L28.1,59
				c-1.5,0.4-2.9-0.5-3.3-2l0,0C24.5,55.6,25.4,54.1,26.8,53.8z"/>
			<path class="st43" d="M26.9,31.5l5.3-1.3c0.7-0.2,1.5,0.3,1.6,1l1.6,6.6l-7.9,1.9l-1.6-6.6C25.8,32.4,26.2,31.6,26.9,31.5z"/>
			<path class="st15" d="M24,73.4c-0.5,0-1-0.3-1.2-0.8c-0.2-0.5-0.1-1.1,0.3-1.5c0.2-0.2,4.4-4.3,15.2-3.2
				c1.2-1.7,4.9-5.3,12.9-5.3c0.7,0,1.4,0.6,1.4,1.4c0,0.7-0.6,1.4-1.4,1.4c-8.4,0-10.9,4.5-11,4.7c-0.3,0.5-0.8,0.8-1.4,0.7
				C28.8,69.4,24.9,73,24.9,73C24.6,73.3,24.3,73.4,24,73.4z"/>
			<g>
				<circle id="Oval" class="st44" cx="49.6" cy="72" r="1.4"/>
				<circle class="st44" cx="33.4" cy="74.8" r="1.4"/>
				<circle class="st44" cx="51" cy="43.7" r="1.4"/>
				<circle class="st44" cx="55.1" cy="54.5" r="1.4"/>
				<circle class="st44" cx="71.3" cy="73.4" r="1.4"/>
				<circle class="st44" cx="76.7" cy="63.9" r="1.4"/>
			</g>
			<path class="st45" d="M79.3,28.4c3,1.4,6,3.1,8.7,5c0.4,0.3,0.9,0.3,1.4,0.1s0.7-0.7,0.8-1.2c0.3-6.1-3.1-12.3-6.4-13.7
				c-3.3-1.5-10.2,0-14.5,4.2c-0.4,0.3-0.5,0.8-0.4,1.3c0.1,0.5,0.5,0.9,1,1C73.1,25.9,76.3,27,79.3,28.4L79.3,28.4z"/>
			<path class="st13" d="M65.3,56l12.8-28.2l2.5,1.1L67.8,57.2L65.3,56z"/>
			<path class="st46" d="M86.4,40.3c-0.3,0-0.6-0.1-0.8-0.3c-2.8-2.2-5.8-4-9-5.5c-3.2-1.4-6.6-2.4-10.1-3.1
				c-0.7-0.1-1.2-0.8-1.1-1.6c0.1-0.7,0.8-1.2,1.6-1.1c3.7,0.7,7.3,1.8,10.7,3.3c3.4,1.6,6.6,3.6,9.6,5.9c0.5,0.4,0.6,1,0.4,1.5
				C87.5,40,87,40.3,86.4,40.3L86.4,40.3z"/>
			<path class="st46" d="M82.9,44.7c-0.3,0-0.6-0.1-0.9-0.3c-2.4-1.9-5-3.6-7.7-4.9c-2.8-1.2-5.8-2.1-8.8-2.6
				c-0.5-0.1-0.9-0.4-1.1-0.8c-0.2-0.5-0.1-1,0.2-1.4c0.3-0.4,0.8-0.6,1.3-0.5c3.3,0.5,6.5,1.5,9.5,2.8c3,1.4,5.8,3.2,8.4,5.3
				c0.4,0.4,0.6,1,0.4,1.5C84,44.4,83.5,44.7,82.9,44.7L82.9,44.7z"/>
			<path class="st46" d="M78.2,48.5c-0.4,0-0.7-0.1-1-0.4c-1.5-1.5-3.3-2.8-5.2-3.7c-2-0.8-4.1-1.3-6.2-1.4c-0.7,0-1.3-0.6-1.3-1.4
				c0-0.7,0.6-1.3,1.4-1.3H66c2.5,0.2,4.9,0.7,7.2,1.7c2.2,1.1,4.3,2.6,6,4.3c0.4,0.4,0.5,1,0.3,1.5C79.3,48.2,78.8,48.5,78.2,48.5
				L78.2,48.5z"/>
			<circle class="st47" cx="80.3" cy="22.9" r="1.4"/>
			<path class="st15" d="M69.9,59.9c-0.4,0-0.7-0.1-1-0.4c-1.9-1.9-5.8-2.3-7.2-2.3c-0.7,0-1.4-0.6-1.4-1.4s0.6-1.4,1.4-1.4
				c0.2,0,6,0,9.1,3.1c0.4,0.4,0.5,1,0.3,1.5C71,59.5,70.5,59.9,69.9,59.9L69.9,59.9z"/>
			<circle class="st44" cx="60.5" cy="66.6" r="2.7"/>
		</g>
	</g>
</g>
</svg>
