<?xml version="1.0" encoding="UTF-8" standalone="no"?>
<!-- Created with Inkscape (http://www.inkscape.org/) -->

<svg
   xmlns:osb="http://www.openswatchbook.org/uri/2009/osb"
   xmlns:dc="http://purl.org/dc/elements/1.1/"
   xmlns:cc="http://creativecommons.org/ns#"
   xmlns:rdf="http://www.w3.org/1999/02/22-rdf-syntax-ns#"
   xmlns:svg="http://www.w3.org/2000/svg"
   xmlns="http://www.w3.org/2000/svg"
   xmlns:xlink="http://www.w3.org/1999/xlink"
   xmlns:sodipodi="http://sodipodi.sourceforge.net/DTD/sodipodi-0.dtd"
   xmlns:inkscape="http://www.inkscape.org/namespaces/inkscape"
   width="32mm"
   height="32mm"
   viewBox="0 0 32 32"
   version="1.1"
   id="svg8"
   inkscape:version="0.92.4 (5da689c313, 2019-01-14)"
   sodipodi:docname="1.1.svg">
  <defs
     id="defs2">
    <linearGradient
       inkscape:collect="always"
       id="linearGradient4563">
      <stop
         style="stop-color:#000000;stop-opacity:1;"
         offset="0"
         id="stop4559" />
      <stop
         style="stop-color:#000000;stop-opacity:0;"
         offset="1"
         id="stop4561" />
    </linearGradient>
    <linearGradient
       id="linearGradient4555"
       osb:paint="solid">
      <stop
         style="stop-color:#000000;stop-opacity:1;"
         offset="0"
         id="stop4553" />
    </linearGradient>
    <linearGradient
       inkscape:collect="always"
       xlink:href="#linearGradient4563"
       id="linearGradient4569"
       x1="6.8512321"
       y1="282"
       x2="16.132292"
       y2="282"
       gradientUnits="userSpaceOnUse"
       gradientTransform="translate(-4.7999996e-7,1.0700959e-6)" />
  </defs>
  <sodipodi:namedview
     id="base"
     pagecolor="#ffffff"
     bordercolor="#666666"
     borderopacity="1.0"
     inkscape:pageopacity="0.0"
     inkscape:pageshadow="2"
     inkscape:zoom="3.959798"
     inkscape:cx="124.49592"
     inkscape:cy="91.255116"
     inkscape:document-units="mm"
     inkscape:current-layer="layer3"
     showgrid="true"
     inkscape:pagecheckerboard="true"
     showborder="true"
     showguides="true"
     inkscape:window-width="1366"
     inkscape:window-height="709"
     inkscape:window-x="0"
     inkscape:window-y="30"
     inkscape:window-maximized="1">
    <inkscape:grid
       type="xygrid"
       id="grid3713"
       empspacing="4"
       units="mm"
       spacingx="0.99999997"
       spacingy="0.99999997"
       color="#b600df"
       opacity="0.25098039"
       empcolor="#b600df"
       empopacity="0.50196078" />
    <inkscape:grid
       type="xygrid"
       id="grid4609"
       units="mm"
       spacingx="0.49999999"
       spacingy="0.49999999"
       empspacing="4" />
  </sodipodi:namedview>
  <metadata
     id="metadata5">
    <rdf:RDF>
      <cc:Work
         rdf:about="">
        <dc:format>image/svg+xml</dc:format>
        <dc:type
           rdf:resource="http://purl.org/dc/dcmitype/StillImage" />
        <dc:title></dc:title>
      </cc:Work>
    </rdf:RDF>
  </metadata>
  <g
     inkscape:label="trash can"
     inkscape:groupmode="layer"
     id="layer1"
     transform="translate(0,-265)">
    <path
       style="opacity:1;fill:#ffff28;fill-opacity:1;stroke:none;stroke-width:0.1;stroke-linecap:butt;stroke-linejoin:round;stroke-miterlimit:4;stroke-dasharray:none;stroke-dashoffset:0;stroke-opacity:1"
       d="m 22.5,284.5 0.499999,-0.5 2,-17 1,-1 v -1 H 5.9999999 l 1e-7,1 0.9999993,1 2,17 0.5000006,0.5 z"
       id="path3721"
       inkscape:connector-curvature="0"
       sodipodi:nodetypes="ccccccccccc" />
    <path
       style="fill:#dcdc00;fill-opacity:1;stroke:none;stroke-width:0.26458332px;stroke-linecap:butt;stroke-linejoin:miter;stroke-opacity:1"
       d="m 22,285 c 0,0 0.999999,0 1,-1 -0.5,0.5 -1.000001,0.5 -1.000001,0.5 H 9.9999999 c 0,0 -0.5,0 -1.0000001,-0.5 1e-7,1 1,1 1,1 z"
       id="path4611"
       inkscape:connector-curvature="0"
       sodipodi:nodetypes="ccccccc" />
    <path
       style="fill:#dcdc00;fill-opacity:1;stroke:none;stroke-width:0.26458332px;stroke-linecap:butt;stroke-linejoin:miter;stroke-opacity:1"
       d="m 24.999999,267 c 0,0 1,0 1,-1 -0.5,0.5 -1,0.5 -1,0.5 H 7 c 0,0 -0.5,0 -1.0000001,-0.5 1e-7,1 1,1 1,1 z"
       id="path4611-6"
       inkscape:connector-curvature="0"
       sodipodi:nodetypes="ccccccc" />
    <g
       id="g4837"
       transform="matrix(0.0473409,0,0,0.04900905,3.0210906,269.16197)"
       style="fill:#ffffff;fill-opacity:1">
      <g
         id="g4835"
         style="fill:#ffffff;fill-opacity:1;stroke:#2d0000;stroke-width:1.03803885;stroke-miterlimit:4;stroke-dasharray:none;stroke-opacity:1">
        <path
           id="path4831"
           d="m 347.15,219.95 c -0.5,0.5 -1.051,1 -1.65,1.5 -3.134,2.767 -6.717,4.1 -10.75,4 l -13,-0.101 13,0.101 c 4.033,0.1 7.616,-1.233 10.75,-4 0.6,-0.5 1.15,-1 1.65,-1.5 l -22.2,35.2 c -0.566,0.866 -1.4,1.733 -2.5,2.6 -2.233,1.733 -4.667,2.583 -7.3,2.55 l -18.7,-0.25 -0.25,14.5 -18.35,-31.9 18.45,-34.15 -0.399,16.65 25.85,0.199 -20.2,-35.149 32.4,-18.7 16.45,28.75 c 0.633,1.366 1.083,2.767 1.35,4.2 0.9,4.666 0,8.95 -2.7,12.85 -0.434,0.8 -1.017,1.617 -1.75,2.45 -0.068,0.066 -0.117,0.134 -0.151,0.2 z M 242.9,129.8 c 3.533,-3.167 7.667,-4.6 12.4,-4.3 l 2.9,0.5 41.95,0.45 3.55,0.8 c 2.633,1 4.6,2.633 5.899,4.9 l 9.5,16.15 12.551,-7.3 -17.801,32.2 -38.8,1.9 14.5,-8.25 -13.1,-22.25 -19.75,35.55 -32.8,-18.05 16.1,-29 c 0.834,-1.2 1.801,-2.3 2.901,-3.3 z m -14.85,94.25 h 40.45 l 0.05,37.45 h -31.4 c -1.833,0.1 -3.867,-0.25 -6.1,-1.05 -4.433,-1.533 -7.667,-4.434 -9.7,-8.7 -0.467,-0.8 -0.867,-1.717 -1.2,-2.75 -0.233,-0.733 -0.433,-1.517 -0.6,-2.35 -0.8,-4.067 -0.167,-7.817 1.9,-11.25 l 6.6,-11.35 -6.6,11.351 c -2.067,3.433 -2.7,7.183 -1.9,11.25 0.167,0.833 0.367,1.616 0.6,2.35 l -19.7,-37.05 c -0.467,-0.934 -0.8,-2.084 -1,-3.45 -0.4,-2.767 0.083,-5.283 1.45,-7.55 l 9.55,-16.1 -12.5,-7.45 h 36.85 l 20.4,33 -14.25,-8.65 z M 258.2,126 l 2.4,0.4 c 3.9,1.3 6.85,3.7 8.85,7.2 l 7,11 -7,-11 c -2,-3.5 -4.95,-5.9 -8.85,-7.2 z"
           inkscape:connector-curvature="0"
           style="clip-rule:evenodd;fill:#ffffff;fill-opacity:1;fill-rule:evenodd;stroke:#2d0000;stroke-width:1.03803885;stroke-miterlimit:4;stroke-dasharray:none;stroke-opacity:1" />
        <path
           id="path4833"
           d="m 321.75,225.35 -20.2,-35.149 32.4,-18.7 16.45,28.75 c 0.633,1.366 1.083,2.767 1.35,4.2 0.9,4.666 0,8.95 -2.7,12.85 -0.434,0.8 -1.017,1.617 -1.75,2.45 -0.066,0.066 -0.116,0.134 -0.149,0.2 l -22.2,35.2 c -0.566,0.866 -1.4,1.733 -2.5,2.6 -2.233,1.733 -4.667,2.583 -7.3,2.55 l -18.7,-0.25 -0.25,14.5 -18.351,-31.901 18.45,-34.15 -0.399,16.65 z m 25.4,-5.4 c -0.5,0.5 -1.051,1 -1.65,1.5 -3.134,2.767 -6.717,4.1 -10.75,4 l -13,-0.101 M 242.9,129.8 c 3.533,-3.167 7.667,-4.6 12.4,-4.3 l 2.9,0.5 41.95,0.45 3.55,0.8 c 2.633,1 4.6,2.633 5.899,4.9 l 9.5,16.15 12.551,-7.3 -17.801,32.2 -38.8,1.9 14.5,-8.25 -13.1,-22.25 -19.75,35.55 -32.8,-18.05 16.1,-29 c 0.834,-1.2 1.801,-2.3 2.901,-3.3 z m -14.85,94.25 12.9,-22.3 14.25,8.65 -20.4,-33 h -36.85 l 12.5,7.45 -9.55,16.1 c -1.367,2.267 -1.85,4.783 -1.45,7.55 0.2,1.366 0.533,2.517 1,3.45 l 19.7,37.05 c -0.233,-0.733 -0.433,-1.517 -0.6,-2.35 -0.8,-4.067 -0.167,-7.817 1.9,-11.25 l 6.6,-11.35 h 40.45 l 0.05,37.45 h -31.4 c -1.833,0.1 -3.867,-0.25 -6.1,-1.05 -4.433,-1.533 -7.667,-4.434 -9.7,-8.7 -0.467,-0.8 -0.867,-1.717 -1.2,-2.75 m 38.05,-123 2.4,0.4 c 3.9,1.3 6.85,3.7 8.85,7.2 l 7,11"
           stroke-miterlimit="6"
           inkscape:connector-curvature="0"
           style="clip-rule:evenodd;fill:#ffffff;fill-opacity:1;fill-rule:evenodd;stroke:#2d0000;stroke-width:1.03803885;stroke-miterlimit:4;stroke-dasharray:none;stroke-opacity:1" />
      </g>
    </g>
    <path
       style="fill:#ffffff;fill-opacity:1;stroke:none;stroke-width:0.26458332px;stroke-linecap:butt;stroke-linejoin:miter;stroke-opacity:1"
       d="M 8.9999997,268 H 22.999999 L 23,272 H 8.9999999 Z"
       id="path4854"
       inkscape:connector-curvature="0" />
    <text
       xml:space="preserve"
       style="font-style:normal;font-weight:normal;font-size:3.67675495px;line-height:1.25;font-family:sans-serif;letter-spacing:0px;word-spacing:0px;fill:#000000;fill-opacity:1;stroke:none;stroke-width:0.09191886"
       x="10.178374"
       y="243.22556"
       id="text4852"
       transform="scale(0.89588388,1.1162161)"><tspan
         sodipodi:role="line"
         id="tspan4850"
         x="10.178374"
         y="243.22556"
         style="stroke-width:0.09191886">PLASTIK</tspan></text>
  </g>
  <g
     inkscape:groupmode="layer"
     id="layer3"
     inkscape:label="shade">
    <path
       style="opacity:0.1;fill:#000000;fill-opacity:1;stroke:none;stroke-width:0.26458332px;stroke-linecap:butt;stroke-linejoin:miter;stroke-opacity:1"
       d="m 15.999999,6.6e-7 10,3e-7 V 1.0000009 c 0,1 -1,1 -1,1 L 23,19 c -1e-6,1 -1.000001,1 -1.000001,1 H 16 Z"
       id="path4865"
       inkscape:connector-curvature="0"
       sodipodi:nodetypes="cccccccc" />
  </g>
</svg>
