<?xml version="1.0" encoding="UTF-8" standalone="no"?>
<!-- Generator: Adobe Illustrator 23.1.0, SVG Export Plug-In . SVG Version: 6.00 Build 0)  -->

<svg
   xmlns:dc="http://purl.org/dc/elements/1.1/"
   xmlns:cc="http://creativecommons.org/ns#"
   xmlns:rdf="http://www.w3.org/1999/02/22-rdf-syntax-ns#"
   xmlns:svg="http://www.w3.org/2000/svg"
   xmlns="http://www.w3.org/2000/svg"
   xmlns:sodipodi="http://sodipodi.sourceforge.net/DTD/sodipodi-0.dtd"
   xmlns:inkscape="http://www.inkscape.org/namespaces/inkscape"
   version="1.1"
   id="Layer_1"
   x="0px"
   y="0px"
   viewBox="0 0 151.1811 151.1811"
   xml:space="preserve"
   sodipodi:docname="2.0.1.svg"
   width="40mm"
   height="40mm"
   inkscape:version="0.92.4 (5da689c313, 2019-01-14)"><metadata
   id="metadata4529"><rdf:RDF><cc:Work
       rdf:about=""><dc:format>image/svg+xml</dc:format><dc:type
         rdf:resource="http://purl.org/dc/dcmitype/StillImage" /><dc:title></dc:title></cc:Work></rdf:RDF></metadata><defs
   id="defs4527" /><sodipodi:namedview
   pagecolor="#ffffff"
   bordercolor="#666666"
   borderopacity="1"
   objecttolerance="10"
   gridtolerance="10"
   guidetolerance="10"
   inkscape:pageopacity="0"
   inkscape:pageshadow="2"
   inkscape:window-width="1024"
   inkscape:window-height="709"
   id="namedview4525"
   showgrid="false"
   units="mm"
   inkscape:zoom="3.0399426"
   inkscape:cx="64.444059"
   inkscape:cy="71.588768"
   inkscape:window-x="0"
   inkscape:window-y="30"
   inkscape:window-maximized="1"
   inkscape:current-layer="Layer_1" />
<style
   type="text/css"
   id="style2">
	.st0{fill:#67A8DB;}
	.st1{opacity:0.4;fill:#327CC0;}
	.st2{fill:#5299D3;}
	.st3{opacity:0.4;fill:#67A8DB;}
	.st4{opacity:0.5;}
	.st5{fill:#5CA1D7;}
	.st6{opacity:0.6;fill:#93C2E8;}
	.st7{opacity:0.6;fill:#67A8DB;}
	.st8{fill:#E76362;}
	.st9{opacity:0.4;fill:#D02527;}
	.st10{fill:#E14949;}
	.st11{opacity:0.4;fill:#E76362;}
	.st12{fill:#E45556;}
	.st13{opacity:0.6;fill:#EF9292;}
	.st14{opacity:0.6;fill:#E76362;}
	.st15{opacity:0.5;fill:#D2EEF9;}
	.st16{opacity:0.4;fill:#0099B0;}
	.st17{fill:#D0D1D1;}
	.st18{opacity:0.4;fill:#036BB1;}
	.st19{opacity:0.5;fill:#B5CCD7;}
	.st20{fill:#ACC1CB;}
	.st21{fill:#FFFFFF;}
	.st22{fill:#DFEFE7;}
	.st23{opacity:0.9;fill:#7ED0E0;}
	.st24{opacity:0.9;fill:#62C2CB;}
	.st25{opacity:0.9;fill:#41B3BF;}
	.st26{fill:#B1C8BC;}
	.st27{fill:#E21E26;}
	.st28{fill:#C1C0C0;}
	.st29{fill:#FCCE08;}
	.st30{opacity:0.7;}
	.st31{fill:#C8C7C6;}
	.st32{opacity:0.9;}
	.st33{fill:#41B3BF;}
	.st34{fill:#E75524;}
	.st35{fill:#62BE6B;}
	.st36{opacity:0.7;fill:#A6A6A6;}
	.st37{opacity:0.3;fill:#5BB353;}
	.st38{fill:#D1D1D1;}
	.st39{fill:#5BB353;}
	.st40{fill:#EDEDED;}
	.st41{fill:#DBDBDB;}
	.st42{fill:#F7F7F7;}
	.st43{fill:#E0E0E0;}
	.st44{fill:#EBEBEB;}
	.st45{fill:#811E18;}
	.st46{fill:#BC2025;}
	.st47{fill:#EB2024;}
	.st48{opacity:0.7;fill:#93CACB;}
	.st49{opacity:0.4;}
	.st50{fill:#919898;}
	.st51{fill:#C2CACB;}
	.st52{opacity:0.4;fill:#82C7DE;}
	.st53{opacity:0.8;fill:#FFFFFF;}
	.st54{opacity:0.5;fill:#FFFFFF;}
	.st55{fill:#FABE79;}
	.st56{fill:#F6AB62;}
	.st57{opacity:0.6;fill:#AE7B47;}
	.st58{fill:#B48049;}
	.st59{fill:#9B703F;}
	.st60{opacity:0.3;fill:#AE7B47;}
	.st61{opacity:0.3;}
	.st62{fill:#9C703E;}
	.st63{opacity:0.3;fill:#9B703F;}
	.st64{opacity:0.5;fill:#F6AB62;}
	.st65{opacity:0.4;fill:#FABE79;}
	.st66{fill:#DBDADA;}
	.st67{opacity:0.4;fill:#B2B4B7;}
	.st68{opacity:0.2;fill:#C1C1B7;}
	.st69{fill:#C2C2C2;}
	.st70{opacity:0.5;fill:#C2C2C2;}
	.st71{fill:#E5E1C6;}
	.st72{opacity:0.5;fill:#D4D1B8;}
	.st73{fill:#E3E3E3;}
	.st74{opacity:0.8;fill:#D4D1B8;}
	.st75{fill:#D4D1B8;}
	.st76{opacity:0.5;fill:#D0B9AD;}
	.st77{opacity:0.4;fill:#D4D1B8;}
	.st78{fill:#D2D1CE;}
	.st79{opacity:0.4;fill:#D2D1CE;}
	.st80{opacity:0.4;fill:#C2C2C2;}
	.st81{fill:#BFC1B8;}
	.st82{fill:#CB484F;}
	.st83{fill:#A7A9A0;}
	.st84{fill:#C3979C;}
	.st85{fill:#C7B88F;}
	.st86{fill:#9ACACB;}
	.st87{fill:#A8A8AB;}
	.st88{opacity:0.6;fill:#BE9C7A;}
	.st89{fill:#A4A391;}
	.st90{opacity:0.6;fill:#C2C2C2;}
	.st91{fill:#789D99;}
	.st92{opacity:0.4;fill:#789D99;}
	.st93{fill:#D1CEB6;}
	.st94{fill:#B8B6A1;}
	.st95{fill:#BAB8A3;}
	.st96{fill:#ABAA97;}
	.st97{fill:#E4E4E2;}
	.st98{opacity:0.6;}
	.st99{fill:#BEA18D;}
	.st100{opacity:0.3;fill:#BEA18D;}
	.st101{opacity:0.2;fill:#BEA18D;}
	.st102{fill:#D9BDA6;}
	.st103{fill:#CCAD93;}
	.st104{fill:#603412;}
	.st105{opacity:0.5;fill:#93816B;}
	.st106{opacity:0.4;fill:#331C0F;}
	.st107{fill:#93816B;}
	.st108{fill:#331C0F;}
	.st109{opacity:0.5;fill:#FFF7EA;}
	.st110{fill:#3F2612;}
	.st111{fill:#D62839;}
	.st112{fill:#F9AE9C;}
	.st113{fill:#4B632D;}
	.st114{opacity:0.5;fill:#86926B;}
	.st115{opacity:0.4;fill:#2E3618;}
	.st116{fill:#86926B;}
	.st117{fill:#2E3618;}
	.st118{opacity:0.5;fill:#F7F9E8;}
	.st119{fill:#34411B;}
	.st120{fill:#D59829;}
	.st121{fill:#FAF39E;}
	.st122{fill:#242424;}
	.st123{fill:#333232;}
	.st124{fill:#5D5D5D;}
	.st125{fill:#161616;}
	.st126{fill:#B3B3B3;}
	.st127{fill:#1A1A1A;}
	.st128{fill:#48893F;}
	.st129{fill:#FBAE1C;}
	.st130{fill:#759C3F;}
	.st131{fill:#56692F;}
	.st132{fill:#CAD631;}
	.st133{opacity:0.7;fill:#A66227;}
	.st134{fill:#BBBBBB;}
	.st135{fill:#A03B22;}
	.st136{fill:#C17529;}
	.st137{fill:#F47B2A;}
	.st138{fill:#792816;}
	.st139{fill:#FFF4EC;}
	.st140{fill:#89361C;}
	.st141{fill:#C3AC9E;}
	.st142{fill:#D3C1B9;}
	.st143{fill:#E2E1D5;}
	.st144{fill:#343225;}
	.st145{fill:#040406;}
	.st146{opacity:0.5;fill:#343225;}
	.st147{fill:#4C4333;}
	.st148{fill:#89877B;}
	.st149{fill:url(#SVGID_3_);}
	.st150{fill:url(#SVGID_4_);}
	.st151{opacity:0.5;fill:url(#SVGID_5_);}
	.st152{fill:url(#SVGID_6_);}
	.st153{fill:url(#SVGID_7_);}
	.st154{fill:url(#SVGID_8_);}
	.st155{fill:url(#SVGID_9_);}
	.st156{fill:url(#SVGID_10_);}
	.st157{opacity:0.3;fill:url(#SVGID_11_);}
	.st158{opacity:0.3;fill:url(#SVGID_12_);}
	.st159{fill:url(#SVGID_13_);}
	.st160{fill:url(#SVGID_14_);}
	.st161{fill:url(#SVGID_15_);}
	.st162{fill:url(#SVGID_16_);}
	.st163{fill:url(#SVGID_17_);}
	.st164{fill:url(#SVGID_18_);}
	.st165{opacity:0.7;fill:url(#SVGID_19_);}
	.st166{fill:url(#SVGID_20_);}
	.st167{filter:url(#Adobe_OpacityMaskFilter);}
	.st168{fill:url(#SVGID_22_);}
	.st169{opacity:0.7;mask:url(#SVGID_21_);fill:url(#SVGID_23_);}
	.st170{fill:url(#SVGID_24_);}
	.st171{opacity:0.5;fill:url(#SVGID_25_);}
	.st172{opacity:0.5;fill:url(#SVGID_26_);}
	.st173{opacity:0.3;fill:url(#SVGID_27_);}
	.st174{filter:url(#Adobe_OpacityMaskFilter_1_);}
	.st175{filter:url(#Adobe_OpacityMaskFilter_2_);}
	.st176{mask:url(#SVGID_28_);fill:url(#SVGID_29_);}
	.st177{fill:url(#SVGID_30_);}
	.st178{filter:url(#Adobe_OpacityMaskFilter_3_);}
	.st179{opacity:0.8;fill:url(#SVGID_32_);}
	.st180{mask:url(#SVGID_31_);}
	.st181{filter:url(#Adobe_OpacityMaskFilter_4_);}
	.st182{filter:url(#Adobe_OpacityMaskFilter_5_);}
	.st183{fill:url(#SVGID_33_);}
	.st184{fill:url(#SVGID_34_);}
	.st185{filter:url(#Adobe_OpacityMaskFilter_6_);}
	.st186{filter:url(#Adobe_OpacityMaskFilter_7_);}
	.st187{mask:url(#SVGID_35_);fill:url(#SVGID_36_);}
	.st188{opacity:0.6;fill:url(#SVGID_37_);}
	.st189{opacity:0.9;fill:url(#SVGID_38_);}
	.st190{fill:url(#SVGID_39_);}
	.st191{opacity:0.3;fill:url(#SVGID_40_);}
	.st192{opacity:0.3;fill:url(#SVGID_41_);}
	.st193{opacity:0.8;fill:url(#SVGID_42_);}
	.st194{fill:#F7DDBC;}
	.st195{fill:#D9B48A;}
	.st196{opacity:0.5;fill:#F7DDBC;}
	.st197{opacity:0.3;fill:#DEAA79;}
	.st198{opacity:0.3;fill:#A47348;}
	.st199{opacity:0.5;fill:#DEAA79;}
	.st200{opacity:0.5;fill:#A47348;}
	.st201{opacity:0.3;fill:#BE905C;}
	.st202{fill:#FFEBD7;}
	.st203{opacity:0.3;fill:#DEB485;}
	.st204{opacity:0.3;fill:#8F622F;}
	.st205{opacity:0.2;fill:#BA915C;}
	.st206{opacity:0.2;fill:#BE905C;}
	.st207{opacity:0.3;fill:#D5AD7A;}
	.st208{opacity:0.5;fill:#D5AD7A;}
	.st209{fill:#17ADE4;}
	.st210{fill:#F99B1C;}
	.st211{opacity:0.2;fill:#D59B29;}
	.st212{opacity:0.5;fill:#D59B29;}
	.st213{opacity:0.5;fill:#B8802B;}
	.st214{fill:#FAD00A;}
	.st215{fill:#EEA320;}
	.st216{opacity:0.4;fill:#FAD00A;}
	.st217{opacity:0.7;fill:#FAD00A;}
	.st218{opacity:0.7;fill:#E7C249;}
	.st219{opacity:0.7;fill:#E9B44A;}
	.st220{fill:#3A5728;}
	.st221{opacity:0.3;fill:#3A5728;}
	.st222{opacity:0.5;fill:#3A5728;}
	.st223{opacity:0.3;fill:#6D9D40;}
	.st224{opacity:0.3;fill:#547B38;}
	.st225{fill:#1C2C17;}
	.st226{opacity:0.3;fill:#1A381C;}
	.st227{fill:#152A17;}
	.st228{fill:#F8BC16;}
	.st229{opacity:0.2;fill:#F8BC16;}
	.st230{opacity:0.1;fill:#F8BC16;}
	.st231{opacity:0.3;fill:#E09426;}
	.st232{opacity:0.3;fill:#D98B28;}
	.st233{fill:#CE6F28;}
	.st234{fill:#A65225;}
	.st235{fill:#D88E28;}
	.st236{fill:#BD6728;}
	.st237{fill:#F09F20;}
	.st238{fill:#D37A28;}
	.st239{fill:#A2C83A;}
	.st240{opacity:0.2;fill:#A2C83A;}
	.st241{fill:#ECACCE;}
	.st242{fill:#CB6BAA;}
	.st243{fill:#FACB84;}
	.st244{fill:#F8BA58;}
	.st245{fill:#F3A846;}
	.st246{opacity:0.5;fill:#FACB84;}
	.st247{opacity:0.5;fill:#F8BA58;}
	.st248{fill:#80461D;}
	.st249{opacity:0.7;fill:#ECACCE;}
	.st250{opacity:0.7;fill:#FACB84;}
	.st251{fill:#356531;}
	.st252{opacity:0.2;fill:#356531;}
	.st253{opacity:0.5;fill:#356531;}
	.st254{fill:#508B3F;}
	.st255{fill:#117A3D;}
	.st256{opacity:0.4;fill:#508B3F;}
	.st257{opacity:0.7;fill:#508B3F;}
	.st258{fill:#467135;}
	.st259{opacity:0.2;fill:#467135;}
	.st260{opacity:0.3;fill:#467135;}
	.st261{fill:#203C1C;}
	.st262{fill:#142716;}
	.st263{fill:#325628;}
	.st264{fill:#193019;}
	.st265{fill:#20552A;}
	.st266{opacity:0.5;fill:#508B3F;}
	.st267{opacity:0.5;fill:#A2C83A;}
	.st268{fill:#88171A;}
	.st269{fill:#C02326;}
	.st270{fill:#A61E22;}
	.st271{opacity:0.4;fill:#C02326;}
	.st272{opacity:0.7;fill:#C02326;}
	.st273{opacity:0.2;fill:#A61E22;}
	.st274{opacity:0.3;fill:#A61E22;}
	.st275{fill:#62130C;}
	.st276{fill:#451310;}
	.st277{fill:#791514;}
	.st278{fill:#861719;}
	.st279{fill:#FECF0A;}
	.st280{opacity:0.4;fill:#C6A239;}
	.st281{opacity:0.2;fill:#E4A33A;}
	.st282{opacity:0.3;fill:#B8A137;}
	.st283{opacity:0.3;fill:#FECF0A;}
	.st284{fill:#F5B41A;}
	.st285{opacity:0.6;fill:#CFAE2B;}
	.st286{opacity:0.4;fill:#CFAE2B;}
	.st287{fill:#98772C;}
	.st288{fill:#FFD86D;}
	.st289{fill:#E59F24;}
	.st290{fill:#ECB31F;}
	.st291{fill:#E8B321;}
	.st292{opacity:0.3;fill:#E4A33A;}
	.st293{opacity:0.3;fill:#D48E64;}
	.st294{opacity:0.2;fill:#C6A239;}
	.st295{fill:#FDEB07;stroke:#E0E1E0;stroke-width:0;stroke-linecap:round;stroke-linejoin:round;}
	.st296{fill:#BCBAA3;}
	.st297{fill:#55813B;}
	.st298{fill:#32421B;}
	.st299{opacity:0.3;fill:#517636;}
	.st300{fill:#6E953E;}
	.st301{opacity:0.2;fill:#3A5728;}
	.st302{fill:#42793A;}
	.st303{fill:#F6871F;}
	.st304{opacity:0.2;fill:#E66725;}
	.st305{fill:#D65027;}
	.st306{fill:#CB5727;}
	.st307{opacity:0.2;}
	.st308{fill:#AD6427;}
	.st309{opacity:0.3;fill:#E66725;}
	.st310{opacity:0.5;fill:#DC8127;}
	.st311{fill:#D5D1C5;}
	.st312{fill:#DCB399;}
	.st313{fill:#EAC6AF;}
	.st314{opacity:0.5;fill:#EAC6AF;}
	.st315{opacity:0.5;fill:#E9DEDE;}
	.st316{opacity:0.6;fill:#E9DEDE;}
	.st317{fill:#F7D8C1;}
	.st318{fill:none;}
	.st319{opacity:0.3;fill:#C49374;}
	.st320{fill:#6F903C;}
	.st321{opacity:0.4;fill:#3A5728;}
	.st322{opacity:0.5;fill:#6F903C;}
	.st323{opacity:0.5;fill:#7C963B;}
	.st324{fill:#516A30;}
	.st325{opacity:0.2;fill:#E0E1E0;}
	.st326{opacity:0.2;fill:#C2CACB;}
	.st327{opacity:0.5;fill:#C2CACB;}
	.st328{opacity:0.2;fill:#645C51;}
	.st329{fill:#FAFAFA;}
	.st330{fill:#D6D6D6;}
	.st331{opacity:0.3;fill:#B4C0B2;}
	.st332{fill:#BDBDBD;}
	.st333{fill:#961B1E;}
	.st334{fill:#AF2F24;}
	.st335{fill:#C53127;}
	.st336{fill:#76533F;}
	.st337{fill:#533A2A;}
	.st338{opacity:0.7;fill:#E94466;}
	.st339{fill:#D91F26;}
	.st340{fill:#F6DAB4;}
	.st341{fill:#D2A47F;}
	.st342{fill:#B4B4B4;}
	.st343{fill:#E88B38;}
	.st344{fill:#FBAD47;}
	.st345{fill:#CFB581;}
	.st346{fill:#594D41;}
	.st347{fill:#FDF8F2;}
	.st348{opacity:0.5;fill:#E88B38;}
	.st349{fill:#DDDCD8;}
	.st350{opacity:0.8;fill:#E88B38;}
	.st351{opacity:0.5;fill:#594D41;}
	.st352{fill:#F89A1C;}
	.st353{opacity:0.4;fill:#FDC110;}
	.st354{fill:#FEE600;}
	.st355{fill:#FDC110;}
	.st356{fill:#7CBDE8;}
	.st357{opacity:0.6;fill:#5BB353;}
	.st358{fill:#046CA6;}
	.st359{opacity:0.3;fill:#046CA6;}
	.st360{opacity:0.3;fill:#20ABE3;}
	.st361{fill:#754138;}
	.st362{fill:#6A2116;}
	.st363{fill:#381512;}
</style>








<g
   id="g512"
   transform="translate(-245.84728,-50.258235)">
	<g
   id="g498">
		<path
   class="st55"
   d="m 357.94,121.9 c 0,0 -13.38,-3.75 -13.93,-3.75 -0.54,0 -23.38,3.21 -23.38,3.21 l -10.36,0.18 -11.07,-4.46 -33.39,-11.6 -11.43,-0.71 16.78,-2.86 18.21,-1.43 21.42,-2.5 13.92,2.5 27.85,0.89 13.21,6.43 6.25,1.07 5.53,2.32 10.72,3.93 -15,1.96 z"
   id="path422"
   inkscape:connector-curvature="0"
   style="fill:#fabe79" />
		<g
   id="g430">
			<path
   class="st56"
   d="m 299.92,142.79 -1.07,-6.07 2.14,-4.1 -4.11,-6.96 2.32,-8.57 11.07,4.46 10.36,-0.18 c 0,0 22.84,-3.21 23.38,-3.21 0.54,0 13.93,3.75 13.93,3.75 l 15.35,-4.82 15,-1.96 -5.53,10.71 2.49,10.71 -5.54,13.21 -59.08,5.18 -7.86,1.78 -12.85,0.71 -1.43,-11.25 z"
   id="path424"
   inkscape:connector-curvature="0"
   style="fill:#f6ab62" />
			<path
   class="st56"
   d="m 258.14,120.47 c 0.36,-0.53 0.54,-2.5 0.54,-2.5 l -4.29,-13.21 11.43,0.71 33.39,11.6 -2.32,8.57 4.11,6.96 -2.14,4.1 1.07,6.07 -1.43,3.39 1.43,11.25 -12.14,-4.28 -11.79,-5.36 -24.63,-14.64 c -0.01,0.02 6.42,-12.12 6.77,-12.66 z"
   id="path426"
   inkscape:connector-curvature="0"
   style="fill:#f6ab62" />
			<path
   class="st57"
   d="m 258.14,120.47 c 0.36,-0.53 0.54,-2.5 0.54,-2.5 l -4.29,-13.21 11.43,0.71 33.39,11.6 -2.32,8.57 4.11,6.96 -2.14,4.1 1.07,6.07 -1.43,3.39 1.43,11.25 -12.14,-4.28 -11.79,-5.36 -24.63,-14.64 c -0.01,0.02 6.42,-12.12 6.77,-12.66 z"
   id="path428"
   inkscape:connector-curvature="0"
   style="opacity:0.6;fill:#ae7b47" />
		</g>
		<g
   id="g436">
			<polygon
   class="st58"
   points="351.42,101.46 280.82,110.74 272.87,107.88 326.52,100.48 "
   id="polygon432"
   style="fill:#b48049" />
			<path
   class="st59"
   d="m 280.82,110.74 -1.52,15.89 -0.81,-1.78 -1.52,0.81 -1.43,-2.05 -0.63,-0.81 -1.16,0.81 -0.63,-0.27 -0.53,-1.6 c 0,0 -0.54,-0.63 -0.8,-0.36 -0.27,0.27 1.07,-13.48 1.07,-13.48 z"
   id="path434"
   inkscape:connector-curvature="0"
   style="fill:#9b703f" />
		</g>
		<path
   class="st60"
   d="m 251.36,133.15 24.63,14.64 11.79,5.36 12.14,4.28 12.85,-0.71 7.86,-1.78 59.08,-5.18 5.54,-13.21 -2.49,-10.71 1.55,-3.01 c -2.59,2.41 -5.18,4.81 -7.82,7.17 -0.71,0.62 -1.43,1.23 -2.17,1.83 0.27,0.11 0.54,0.23 0.8,0.34 2.83,1.23 5.28,3.21 8.2,4.23 0.19,0.07 0.37,0.33 0.21,0.52 -2.36,3.08 -3.54,6.86 -5.82,10 -0.14,0.17 -0.4,0.25 -0.57,0.07 -1.34,-1.45 -3.06,-2.37 -4.74,-3.34 0.46,0.96 1.11,1.79 1.73,2.67 0.13,0.18 0,0.48 -0.21,0.52 -3.67,0.77 -7.43,0.88 -11.17,1.12 -3.97,0.25 -7.92,0.75 -11.89,0.56 -0.33,-0.02 -0.54,-0.51 -0.18,-0.67 4.29,-1.86 8.49,-3.92 12.64,-6.07 -3.12,0.3 -6.23,0.69 -9.33,1.15 -5.9,0.86 -11.58,2.86 -17.32,4.34 -5.43,1.4 -10.96,3.01 -16.57,3.35 -6.41,0.38 -12.8,1.06 -19.23,0.87 -0.16,-0.01 -0.29,-0.11 -0.34,-0.26 -0.46,-1.33 -0.58,-2.62 -0.49,-4.02 0.02,-0.21 0.16,-0.34 0.36,-0.36 5.48,-0.38 10.98,-0.37 16.47,-0.35 -0.75,-0.29 -1.5,-0.61 -2.25,-0.91 -2.4,-0.95 -4.86,-1.77 -7.24,-2.76 -1.49,-0.61 -3.07,-1.08 -3.92,-2.55 -0.73,-1.27 -0.47,-3.14 -0.67,-4.53 -0.03,-0.21 0.09,-0.47 0.35,-0.45 4.48,0.3 8.92,1.44 13.4,1.9 2.93,0.3 5.87,0.57 8.79,1.01 -0.3,-0.2 -0.6,-0.39 -0.9,-0.58 -3.58,-2.2 -7.29,-4.24 -10.98,-6.24 -3.05,-1.64 -6.55,-2.79 -9.31,-4.89 -0.37,-0.28 -1.5,-0.94 -1.51,-1.51 -0.03,-1.38 -0.09,-2.49 0.41,-3.82 0.08,-0.22 0.3,-0.32 0.52,-0.21 2.51,1.23 4.93,2.64 7.68,3.25 1.37,0.3 2.84,0.13 4.24,0.11 1.55,-0.03 3.1,-0.04 4.66,-0.08 2,-0.05 3.99,-0.15 5.97,-0.34 3.61,-1 7.16,-2.25 10.8,-3.2 2.51,-0.66 5.37,-1.22 7.96,-0.64 2.94,0.66 5.21,2.82 8.08,3.6 1.45,0.39 3.06,-0.24 4.41,-0.7 1.46,-0.5 2.89,-1.02 4.38,-1.43 3.21,-0.88 6.51,-1.48 9.78,-2.07 5.56,-0.99 11.17,-1.92 16.5,-3.78 l 0.28,-0.54 -10.72,-3.93 -5.53,-2.32 -6.25,-1.07 -13.21,-6.43 -27.85,-0.89 -13.92,-2.5 -21.42,2.5 -18.21,1.43 -16.78,2.86 4.29,13.21 c 0,0 -0.18,1.96 -0.54,2.5 -0.37,0.51 -6.8,12.65 -6.8,12.65 z m 62.13,-32.36 c -2.79,1.71 -6.12,1.79 -9.27,2.27 -4.19,0.64 -8.32,1.7 -12.52,2.32 -7.3,1.07 -15.71,2.59 -22.77,-0.28 -0.33,-0.14 -0.33,-0.55 0,-0.69 3.13,-1.28 6.54,-1.16 9.85,-1.35 4.37,-0.25 8.72,-0.85 13.05,-1.47 3.83,-0.56 7.53,-1.57 11.33,-2.3 3.03,-0.59 6.09,-0.63 8.97,0.52 0.42,0.11 0.84,0.21 1.27,0.32 0.31,0.08 0.35,0.5 0.09,0.66 z m -23.28,10.29 c -0.3,-0.13 -0.17,-0.56 0.09,-0.65 9.25,-3.11 19.27,-2.3 28.82,-3.74 4.87,-0.74 9.87,-2.26 14.82,-2 1.32,0.07 2.61,0.3 3.89,0.61 3,0.51 5.93,1.41 8.94,1.9 -1.13,-0.6 -2.24,-1.2 -3.29,-1.95 -0.25,-0.19 -0.21,-0.54 0.09,-0.66 2.46,-0.88 5.67,-2.3 8.34,-1.73 1.42,0.3 2.61,1.04 3.76,1.88 2.38,1.48 4.72,3.04 7.11,4.53 0.21,0.14 0.25,0.49 0,0.61 -1.08,0.57 -2.22,0.99 -3.36,1.38 6.46,0.18 13.05,-0.08 19.07,2.65 0.29,0.13 0.19,0.58 -0.08,0.65 -3.74,1.01 -7.49,1.95 -11.25,2.87 -3.24,0.79 -6.54,1.87 -9.9,2.01 -2.79,0.7 -5.58,-0.02 -8.6,-0.72 -1.6,-0.37 -3.21,-0.68 -4.82,-1.04 -8.51,0.96 -17.09,0.96 -25.63,1.6 -2.24,0.17 -4.41,0.26 -6.65,-0.04 -2.59,-0.35 -5.12,-1.53 -7.55,-2.46 -4.66,-1.77 -9.23,-3.73 -13.8,-5.7 z m -31.22,-4.73 c -0.04,-0.26 0.15,-0.53 0.44,-0.45 5.85,1.69 11.8,2.85 17.54,4.96 2.21,0.82 4.41,1.68 6.62,2.54 0.1,-0.13 0.27,-0.19 0.44,-0.09 0.47,0.29 0.95,0.56 1.44,0.81 3.08,1.18 6.16,2.33 9.3,3.32 0.21,0.07 0.28,0.27 0.24,0.44 0.16,0.05 0.32,0.11 0.48,0.16 0.13,0.04 0.27,0.18 0.26,0.34 -0.21,1.94 -0.25,3.89 -0.36,5.84 -0.01,0.18 -0.15,0.37 -0.35,0.35 -2.63,-0.16 -5.51,1.4 -7.99,2.16 -2.7,0.83 -5.42,1.64 -8.07,2.63 5.99,2.49 12.68,2.23 18.9,3.92 0.24,0.06 0.3,0.32 0.21,0.52 -0.42,0.97 -1.12,1.64 -1.93,2.27 2.12,1.32 1.83,3.06 1.48,5.5 -0.02,0.15 -0.2,0.26 -0.34,0.26 -4.26,-0.03 -8.37,1.25 -12.59,1.59 2.36,1.68 5,2.88 7.53,4.29 0.29,0.16 0.18,0.7 -0.18,0.66 -5.25,-0.59 -9.72,-2.88 -13.59,-6.44 -4.18,-3.84 -8.6,-8.48 -11.13,-13.62 -0.01,-0.02 -0.01,-0.04 -0.01,-0.06 -1.11,-1.6 -2.08,-3.29 -2.76,-5.14 -0.11,-0.29 0.27,-0.58 0.52,-0.4 1.37,0.97 2.57,2.17 3.96,3.09 -2.27,-3.51 -4.69,-6.88 -7.35,-10.12 -2.08,-2.54 -2.25,-6.21 -2.71,-9.33 z"
   id="path438"
   inkscape:connector-curvature="0"
   style="opacity:0.3;fill:#ae7b47" />
		<g
   class="st61"
   id="g454"
   style="opacity:0.3">
			<path
   class="st62"
   d="m 376.52,129.85 c 1.78,-1.7 3.66,-3.1 5.76,-4.27 -2.82,2.42 -5.46,5.22 -8.65,7.11 -0.01,0.01 -0.03,0.01 -0.04,0.01 0.99,-0.94 1.95,-1.91 2.93,-2.85 z"
   id="path440"
   inkscape:connector-curvature="0"
   style="fill:#9c703e" />
			<path
   class="st62"
   d="m 315.12,134.51 c -1.73,-0.75 -3.49,-1.45 -5.25,-2.16 -2.77,-1.12 -5.53,-2.26 -8.27,-3.47 -1.48,-0.72 -2.97,-1.46 -4.44,-2.2 -0.21,-0.15 -0.41,-0.32 -0.61,-0.48 7.65,2.49 14.95,6.26 22.24,9.63 0.11,0.05 0.19,0.14 0.24,0.23 -1.34,-0.37 -2.62,-0.99 -3.91,-1.55 z"
   id="path442"
   inkscape:connector-curvature="0"
   style="fill:#9c703e" />
			<path
   class="st62"
   d="m 286.83,131.05 c -0.73,-0.27 -1.45,-0.57 -2.12,-0.95 5.63,0.4 11.13,1.61 16.71,2.38 0.52,0.19 1.02,0.4 1.53,0.62 -1.93,0.22 -4.24,-0.4 -6.12,-0.63 -3.34,-0.39 -6.68,-0.86 -10,-1.42 z"
   id="path444"
   inkscape:connector-curvature="0"
   style="fill:#9c703e" />
			<path
   class="st62"
   d="m 293.87,141.8 c 5.47,0.76 10.76,2.09 16,3.74 0.46,0.23 0.92,0.46 1.38,0.69 -4.73,-1.27 -9.51,-2.26 -14.31,-3.24 -1.05,-0.33 -2.08,-0.72 -3.07,-1.19 z"
   id="path446"
   inkscape:connector-curvature="0"
   style="fill:#9c703e" />
			<path
   class="st62"
   d="m 257.82,115.36 c 1.97,3.59 4.95,6.78 7.29,10.14 2.55,3.65 4.93,7.4 7.25,11.19 0.11,0.18 0.09,0.31 0.02,0.38 -0.69,-0.84 -1.32,-1.74 -2,-2.56 -0.57,-0.7 -1.16,-1.39 -1.74,-2.08 -1.47,-2.18 -2.91,-4.39 -4.37,-6.59 -2.08,-3.13 -4.69,-6.13 -6.25,-9.59 -0.07,-0.3 -0.13,-0.6 -0.2,-0.89 z"
   id="path448"
   inkscape:connector-curvature="0"
   style="fill:#9c703e" />
			<path
   class="st62"
   d="m 290.78,146.88 c -1.37,-0.12 -2.73,-0.32 -4.1,-0.57 -0.3,-0.06 -0.61,-0.11 -0.93,-0.15 0.04,-0.05 0.09,-0.09 0.2,-0.11 5.51,-0.82 10.94,-0.29 16.45,-0.64 -0.33,0.21 -0.68,0.38 -1.03,0.53 -3.42,0.5 -7.06,0.85 -10.59,0.94 z"
   id="path450"
   inkscape:connector-curvature="0"
   style="fill:#9c703e" />
			<path
   class="st62"
   d="m 321.07,154.87 c 6.22,-2.78 12.81,-4.76 19.24,-6.97 4.84,-1.65 9.94,-4.35 15.11,-5.69 1.41,-0.3 2.84,-0.45 4.33,-0.38 -3.03,0.65 -5.92,2.07 -8.76,3.2 -3.34,1.33 -6.69,2.62 -10.04,3.92 -4.95,1.91 -10.07,3.53 -15.17,5.11 -1.57,0.17 -3.15,0.47 -4.71,0.81 z"
   id="path452"
   inkscape:connector-curvature="0"
   style="fill:#9c703e" />
		</g>
		<g
   id="g496">
			<path
   class="st63"
   d="m 365.69,135.94 c 0.16,-0.38 0.56,-0.44 0.93,-0.35 0.01,-0.03 0,-0.05 0.01,-0.08 0.28,-0.61 1.29,-0.32 1.63,0.04 0.22,0.01 0.4,0.13 0.54,0.44 0.08,0.2 -0.04,0.44 -0.2,0.56 -0.21,0.15 -0.54,0.13 -0.8,0.11 0.06,0.27 0.07,0.57 -0.06,0.79 -0.46,0.82 -1.59,0.21 -1.93,-0.39 -0.19,-0.37 -0.29,-0.73 -0.12,-1.12 z"
   id="path456"
   inkscape:connector-curvature="0"
   style="opacity:0.3;fill:#9b703f" />
			<path
   class="st63"
   d="m 361.2,136.57 c 0.27,-0.55 1.15,-0.48 1.64,-0.14 0.14,0.07 0.27,0.16 0.35,0.28 0.15,0.24 0.09,0.55 -0.16,0.68 -0.21,0.1 -0.47,0.08 -0.69,0.08 -0.25,0 -0.49,-0.02 -0.72,-0.11 -0.28,-0.11 -0.57,-0.49 -0.42,-0.79 z"
   id="path458"
   inkscape:connector-curvature="0"
   style="opacity:0.3;fill:#9b703f" />
			<path
   class="st63"
   d="m 367.27,141.03 c 0.46,-0.82 1.31,-0.53 1.99,-0.95 0.39,-0.24 0.8,-0.48 1.2,-0.73 0.12,-0.08 0.25,-0.13 0.37,-0.17 -0.01,-0.03 0,-0.06 0.03,-0.09 0.9,-0.89 1.78,-2.29 3.21,-1.35 0.68,0.44 1.26,1 1.36,1.85 0.03,0.21 0,0.44 -0.04,0.65 0.37,0.17 0.74,0.34 1.07,0.53 1.08,0.31 2.2,0.76 1.77,1.91 -0.39,1.05 -1.43,1.76 -2.5,1.32 -0.54,-0.23 -0.96,-0.74 -1.3,-1.19 -0.71,-0.94 -1.17,-0.05 -1.81,0.56 -1.25,1.21 -2.61,0.66 -3.15,-0.96 -0.04,-0.1 -0.05,-0.19 -0.07,-0.29 -0.12,0.06 -0.24,0.13 -0.36,0.18 -0.2,0.09 -0.68,0.13 -0.88,0.06 -0.47,-0.13 -1.23,-0.72 -0.89,-1.33 z"
   id="path460"
   inkscape:connector-curvature="0"
   style="opacity:0.3;fill:#9b703f" />
			<path
   class="st63"
   d="m 365.61,142.37 c 0.04,0 0.08,0.01 0.11,0.01 0.4,0.05 0.9,0.72 0.53,1.07 -0.39,0.36 -0.97,-0.22 -1.03,-0.61 0,-0.03 -0.01,-0.07 -0.01,-0.1 -0.04,-0.26 0.16,-0.4 0.4,-0.37 z"
   id="path462"
   inkscape:connector-curvature="0"
   style="opacity:0.3;fill:#9b703f" />
			<path
   class="st63"
   d="m 369.02,131.63 c 0.45,0 0.89,0.88 0.32,0.88 -0.44,0 -0.88,-0.88 -0.32,-0.88 z"
   id="path464"
   inkscape:connector-curvature="0"
   style="opacity:0.3;fill:#9b703f" />
			<path
   class="st63"
   d="m 325.63,110.18 c 1.86,-0.05 2.89,0.05 4.21,-1.5 0.37,-0.43 0.85,-0.63 1.35,-0.72 1.15,-0.81 2.59,0.04 3.43,0.97 0.56,0.61 0.57,1.52 1.16,2.15 0.31,0.32 0.76,0.54 1.27,0.69 1.77,0.11 3.97,-0.04 4.84,0.35 1.3,0.59 0.89,1.6 0.18,2.49 -0.57,0.71 -3.47,0.04 -3.83,0.05 -2.18,0.05 -3.78,1.36 -5.94,1.24 -1.78,-0.1 -3.6,-0.83 -5.33,-1.17 -1,-0.2 -2.6,-0.2 -3.36,-1.03 -1.82,-1.95 -0.15,-3.46 2.02,-3.52 z"
   id="path466"
   inkscape:connector-curvature="0"
   style="opacity:0.3;fill:#9b703f" />
			<path
   class="st63"
   d="m 318.19,109.02 c 0.42,-0.57 1.24,-0.56 1.9,-0.27 0.11,0.01 0.22,0.01 0.33,0.02 0.36,0.02 0.7,0.28 0.82,0.61 0.3,0.81 -0.93,0.93 -1.42,0.99 -0.67,0.1 -2.34,-0.39 -1.63,-1.35 z"
   id="path468"
   inkscape:connector-curvature="0"
   style="opacity:0.3;fill:#9b703f" />
			<path
   class="st63"
   d="m 317.17,111.52 c 0.43,-0.11 0.95,0 1.36,0.25 0.12,0.02 0.23,0.04 0.33,0.09 0.38,0.19 0.73,0.68 0.42,1.07 -0.25,0.31 -0.75,0.46 -1.14,0.43 -0.68,-0.05 -1.81,-0.26 -1.95,-1.08 -0.1,-0.55 0.61,-0.67 0.98,-0.76 z"
   id="path470"
   inkscape:connector-curvature="0"
   style="opacity:0.3;fill:#9b703f" />
			<path
   class="st63"
   d="m 322.37,114.3 c 0.38,0 0.74,0.74 0.27,0.74 -0.38,0 -0.74,-0.74 -0.27,-0.74 z"
   id="path472"
   inkscape:connector-curvature="0"
   style="opacity:0.3;fill:#9b703f" />
			<path
   class="st63"
   d="m 378.33,134.67 v 0 0 c 0.08,0.02 0.16,0.04 0.22,0.1 0,0 0.01,0 0.01,0.01 0.04,0.03 0.09,0.06 0.13,0.1 0.15,0.08 0.28,0.27 0.18,0.41 -0.02,0.21 -0.23,0.31 -0.45,0.22 0.04,0.02 0.09,0.03 0.13,0.04 -0.28,0.03 -0.56,-0.27 -0.59,-0.53 -0.04,-0.26 0.16,-0.38 0.37,-0.35 z"
   id="path474"
   inkscape:connector-curvature="0"
   style="opacity:0.3;fill:#9b703f" />
			<path
   class="st63"
   d="m 287.63,137.43 c 0.11,-0.02 0.2,-0.02 0.28,-0.01 0.29,-0.05 0.62,0.4 0.42,0.66 -0.09,0.11 -0.18,0.12 -0.31,0.15 -0.36,0.09 -0.81,-0.7 -0.39,-0.8 z"
   id="path476"
   inkscape:connector-curvature="0"
   style="opacity:0.3;fill:#9b703f" />
			<path
   class="st63"
   d="m 284.99,137.34 c 0.04,-0.26 0.37,-0.03 0.4,0.13 0.01,0.03 0.01,0.06 0.02,0.09 0.04,0.31 -0.48,0.15 -0.43,-0.14 0,-0.03 0.01,-0.05 0.01,-0.08 z"
   id="path478"
   inkscape:connector-curvature="0"
   style="opacity:0.3;fill:#9b703f" />
			<path
   class="st63"
   d="m 281.44,136.58 c 0.01,0.01 0.01,0.02 0.01,0.03 0.04,0.37 0.37,0.63 0.72,0.66 0.01,0 0.03,0 0.03,0 0.18,0.01 0.32,-0.16 0.35,-0.32 0.01,-0.1 0.01,-0.2 0,-0.31 -0.03,-0.28 -0.28,-0.54 -0.56,-0.6 -0.13,-0.03 -0.25,0.01 -0.33,0.09 0,0 0,-0.01 0,-0.01 0,0.01 -0.01,0.02 -0.01,0.02 0,0.01 0,0.01 0,0.01 -0.15,0.1 -0.24,0.23 -0.21,0.43 z"
   id="path480"
   inkscape:connector-curvature="0"
   style="opacity:0.3;fill:#9b703f" />
			<path
   class="st63"
   d="m 261.31,127.49 c 0.39,0 0.76,0.76 0.28,0.76 -0.4,0.01 -0.78,-0.76 -0.28,-0.76 z"
   id="path482"
   inkscape:connector-curvature="0"
   style="opacity:0.3;fill:#9b703f" />
			<path
   class="st63"
   d="m 262.87,132.08 c 0,0 0,0.01 0,0 0.03,0.03 0.06,0.05 0.1,0.09 0.06,0.07 0.11,0.14 0.15,0.22 0.03,0.08 0.03,0.17 0.02,0.24 -0.01,0.11 -0.06,0.2 -0.18,0.23 -0.3,0.13 -0.67,-0.26 -0.7,-0.53 -0.06,-0.37 0.35,-0.43 0.61,-0.25 z"
   id="path484"
   inkscape:connector-curvature="0"
   style="opacity:0.3;fill:#9b703f" />
			<path
   class="st63"
   d="m 257.38,132.02 c 0.13,0.03 0.25,0.07 0.34,0.16 0.13,0.11 0.27,0.28 0.17,0.46 -0.06,0.14 -0.23,0.13 -0.35,0.07 -0.08,-0.01 -0.16,-0.04 -0.25,-0.12 l -0.06,-0.07 c -0.15,-0.16 -0.17,-0.58 0.15,-0.5 z"
   id="path486"
   inkscape:connector-curvature="0"
   style="opacity:0.3;fill:#9b703f" />
			<path
   class="st63"
   d="m 260.01,132.67 c 0.03,0 0.06,0.06 0.02,0.06 -0.03,0 -0.06,-0.06 -0.02,-0.06 z"
   id="path488"
   inkscape:connector-curvature="0"
   style="opacity:0.3;fill:#9b703f" />
			<path
   class="st63"
   d="m 259.05,131.22 c 0.12,0.05 0.19,0.12 0.27,0.22 0.03,0.03 0,0.06 -0.03,0.04 -0.07,-0.07 -0.16,-0.12 -0.25,-0.14 -0.07,-0.03 -0.08,-0.15 0.01,-0.12 z"
   id="path490"
   inkscape:connector-curvature="0"
   style="opacity:0.3;fill:#9b703f" />
			<path
   class="st63"
   d="m 257.26,129.28 c 0.01,0 0.03,0 0.04,0 0.19,0.01 0.32,0.14 0.36,0.32 0.01,0.03 0.02,0.06 0.02,0.09 0.02,0.09 -0.06,0.15 -0.15,0.14 -0.04,-0.01 -0.08,-0.01 -0.1,-0.02 -0.15,-0.03 -0.28,-0.17 -0.3,-0.32 0,-0.02 -0.01,-0.04 -0.01,-0.05 0.01,-0.07 0.06,-0.17 0.14,-0.16 z"
   id="path492"
   inkscape:connector-curvature="0"
   style="opacity:0.3;fill:#9b703f" />
			<path
   class="st63"
   d="m 260.03,133.67 c 0.46,0 0.92,0.92 0.33,0.92 -0.46,0 -0.91,-0.92 -0.33,-0.92 z"
   id="path494"
   inkscape:connector-curvature="0"
   style="opacity:0.3;fill:#9b703f" />
		</g>
	</g>
	<polygon
   class="st64"
   points="381.8,123.86 370.74,134.33 380.02,122.79 381.45,118.75 385.38,117.79 384.54,119.58 "
   id="polygon500"
   style="opacity:0.5;fill:#f6ab62" />
	<polygon
   class="st64"
   points="306.47,126.6 304.68,122.67 310.87,125.05 333.48,140.05 "
   id="polygon502"
   style="opacity:0.5;fill:#f6ab62" />
	<path
   class="st64"
   d="m 368.11,121.48 c -0.47,0.36 -14.52,3.57 -14.52,3.57 l -7.14,-2.14 -17.49,3.81 17.85,-2.02 9.76,1.67 z"
   id="path504"
   inkscape:connector-curvature="0"
   style="opacity:0.5;fill:#f6ab62" />
	<polygon
   class="st65"
   points="355.14,116.48 369.9,112.44 375.37,113.63 356.22,118.15 346.45,116.84 "
   id="polygon506"
   style="opacity:0.4;fill:#fabe79" />
	<path
   class="st65"
   d="m 322.17,106.61 c 0.3,0.3 -16.54,1.78 -16.54,1.78 l -13.09,2.15 2.74,0.95 2.37,-0.72 21.3,-3.33 c 0.01,0 2.98,-1.07 3.22,-0.83 z"
   id="path508"
   inkscape:connector-curvature="0"
   style="opacity:0.4;fill:#fabe79" />
	<path
   class="st64"
   d="m 358.65,139.75 c -0.71,0.18 -27.13,7.86 -27.13,7.86 0,0 -12.68,2.32 -13.03,2.32 -0.36,0 20.7,-6.25 25.35,-9.28 4.64,-3.03 23.57,-8.39 23.57,-8.39 z"
   id="path510"
   inkscape:connector-curvature="0"
   style="opacity:0.5;fill:#f6ab62" />
</g>

























</svg>