<?xml version="1.0" encoding="UTF-8" standalone="no"?>
<!-- Generator: Adobe Illustrator 23.1.0, SVG Export Plug-In . SVG Version: 6.00 Build 0)  -->

<svg
   xmlns:dc="http://purl.org/dc/elements/1.1/"
   xmlns:cc="http://creativecommons.org/ns#"
   xmlns:rdf="http://www.w3.org/1999/02/22-rdf-syntax-ns#"
   xmlns:svg="http://www.w3.org/2000/svg"
   xmlns="http://www.w3.org/2000/svg"
   xmlns:sodipodi="http://sodipodi.sourceforge.net/DTD/sodipodi-0.dtd"
   xmlns:inkscape="http://www.inkscape.org/namespaces/inkscape"
   version="1.1"
   id="Layer_1"
   x="0px"
   y="0px"
   viewBox="0 0 151.1811 151.18109"
   xml:space="preserve"
   sodipodi:docname="2.0.4.svg"
   width="40mm"
   height="40mm"
   inkscape:version="0.92.4 (5da689c313, 2019-01-14)"><metadata
   id="metadata4529"><rdf:RDF><cc:Work
       rdf:about=""><dc:format>image/svg+xml</dc:format><dc:type
         rdf:resource="http://purl.org/dc/dcmitype/StillImage" /><dc:title></dc:title></cc:Work></rdf:RDF></metadata><defs
   id="defs4527" /><sodipodi:namedview
   pagecolor="#ffffff"
   bordercolor="#666666"
   borderopacity="1"
   objecttolerance="10"
   gridtolerance="10"
   guidetolerance="10"
   inkscape:pageopacity="0"
   inkscape:pageshadow="2"
   inkscape:window-width="1024"
   inkscape:window-height="709"
   id="namedview4525"
   showgrid="false"
   units="mm"
   inkscape:zoom="1.1213358"
   inkscape:cx="107.42299"
   inkscape:cy="210.34662"
   inkscape:window-x="0"
   inkscape:window-y="30"
   inkscape:window-maximized="1"
   inkscape:current-layer="Layer_1" />
<style
   type="text/css"
   id="style2">
	.st0{fill:#67A8DB;}
	.st1{opacity:0.4;fill:#327CC0;}
	.st2{fill:#5299D3;}
	.st3{opacity:0.4;fill:#67A8DB;}
	.st4{opacity:0.5;}
	.st5{fill:#5CA1D7;}
	.st6{opacity:0.6;fill:#93C2E8;}
	.st7{opacity:0.6;fill:#67A8DB;}
	.st8{fill:#E76362;}
	.st9{opacity:0.4;fill:#D02527;}
	.st10{fill:#E14949;}
	.st11{opacity:0.4;fill:#E76362;}
	.st12{fill:#E45556;}
	.st13{opacity:0.6;fill:#EF9292;}
	.st14{opacity:0.6;fill:#E76362;}
	.st15{opacity:0.5;fill:#D2EEF9;}
	.st16{opacity:0.4;fill:#0099B0;}
	.st17{fill:#D0D1D1;}
	.st18{opacity:0.4;fill:#036BB1;}
	.st19{opacity:0.5;fill:#B5CCD7;}
	.st20{fill:#ACC1CB;}
	.st21{fill:#FFFFFF;}
	.st22{fill:#DFEFE7;}
	.st23{opacity:0.9;fill:#7ED0E0;}
	.st24{opacity:0.9;fill:#62C2CB;}
	.st25{opacity:0.9;fill:#41B3BF;}
	.st26{fill:#B1C8BC;}
	.st27{fill:#E21E26;}
	.st28{fill:#C1C0C0;}
	.st29{fill:#FCCE08;}
	.st30{opacity:0.7;}
	.st31{fill:#C8C7C6;}
	.st32{opacity:0.9;}
	.st33{fill:#41B3BF;}
	.st34{fill:#E75524;}
	.st35{fill:#62BE6B;}
	.st36{opacity:0.7;fill:#A6A6A6;}
	.st37{opacity:0.3;fill:#5BB353;}
	.st38{fill:#D1D1D1;}
	.st39{fill:#5BB353;}
	.st40{fill:#EDEDED;}
	.st41{fill:#DBDBDB;}
	.st42{fill:#F7F7F7;}
	.st43{fill:#E0E0E0;}
	.st44{fill:#EBEBEB;}
	.st45{fill:#811E18;}
	.st46{fill:#BC2025;}
	.st47{fill:#EB2024;}
	.st48{opacity:0.7;fill:#93CACB;}
	.st49{opacity:0.4;}
	.st50{fill:#919898;}
	.st51{fill:#C2CACB;}
	.st52{opacity:0.4;fill:#82C7DE;}
	.st53{opacity:0.8;fill:#FFFFFF;}
	.st54{opacity:0.5;fill:#FFFFFF;}
	.st55{fill:#FABE79;}
	.st56{fill:#F6AB62;}
	.st57{opacity:0.6;fill:#AE7B47;}
	.st58{fill:#B48049;}
	.st59{fill:#9B703F;}
	.st60{opacity:0.3;fill:#AE7B47;}
	.st61{opacity:0.3;}
	.st62{fill:#9C703E;}
	.st63{opacity:0.3;fill:#9B703F;}
	.st64{opacity:0.5;fill:#F6AB62;}
	.st65{opacity:0.4;fill:#FABE79;}
	.st66{fill:#DBDADA;}
	.st67{opacity:0.4;fill:#B2B4B7;}
	.st68{opacity:0.2;fill:#C1C1B7;}
	.st69{fill:#C2C2C2;}
	.st70{opacity:0.5;fill:#C2C2C2;}
	.st71{fill:#E5E1C6;}
	.st72{opacity:0.5;fill:#D4D1B8;}
	.st73{fill:#E3E3E3;}
	.st74{opacity:0.8;fill:#D4D1B8;}
	.st75{fill:#D4D1B8;}
	.st76{opacity:0.5;fill:#D0B9AD;}
	.st77{opacity:0.4;fill:#D4D1B8;}
	.st78{fill:#D2D1CE;}
	.st79{opacity:0.4;fill:#D2D1CE;}
	.st80{opacity:0.4;fill:#C2C2C2;}
	.st81{fill:#BFC1B8;}
	.st82{fill:#CB484F;}
	.st83{fill:#A7A9A0;}
	.st84{fill:#C3979C;}
	.st85{fill:#C7B88F;}
	.st86{fill:#9ACACB;}
	.st87{fill:#A8A8AB;}
	.st88{opacity:0.6;fill:#BE9C7A;}
	.st89{fill:#A4A391;}
	.st90{opacity:0.6;fill:#C2C2C2;}
	.st91{fill:#789D99;}
	.st92{opacity:0.4;fill:#789D99;}
	.st93{fill:#D1CEB6;}
	.st94{fill:#B8B6A1;}
	.st95{fill:#BAB8A3;}
	.st96{fill:#ABAA97;}
	.st97{fill:#E4E4E2;}
	.st98{opacity:0.6;}
	.st99{fill:#BEA18D;}
	.st100{opacity:0.3;fill:#BEA18D;}
	.st101{opacity:0.2;fill:#BEA18D;}
	.st102{fill:#D9BDA6;}
	.st103{fill:#CCAD93;}
	.st104{fill:#603412;}
	.st105{opacity:0.5;fill:#93816B;}
	.st106{opacity:0.4;fill:#331C0F;}
	.st107{fill:#93816B;}
	.st108{fill:#331C0F;}
	.st109{opacity:0.5;fill:#FFF7EA;}
	.st110{fill:#3F2612;}
	.st111{fill:#D62839;}
	.st112{fill:#F9AE9C;}
	.st113{fill:#4B632D;}
	.st114{opacity:0.5;fill:#86926B;}
	.st115{opacity:0.4;fill:#2E3618;}
	.st116{fill:#86926B;}
	.st117{fill:#2E3618;}
	.st118{opacity:0.5;fill:#F7F9E8;}
	.st119{fill:#34411B;}
	.st120{fill:#D59829;}
	.st121{fill:#FAF39E;}
	.st122{fill:#242424;}
	.st123{fill:#333232;}
	.st124{fill:#5D5D5D;}
	.st125{fill:#161616;}
	.st126{fill:#B3B3B3;}
	.st127{fill:#1A1A1A;}
	.st128{fill:#48893F;}
	.st129{fill:#FBAE1C;}
	.st130{fill:#759C3F;}
	.st131{fill:#56692F;}
	.st132{fill:#CAD631;}
	.st133{opacity:0.7;fill:#A66227;}
	.st134{fill:#BBBBBB;}
	.st135{fill:#A03B22;}
	.st136{fill:#C17529;}
	.st137{fill:#F47B2A;}
	.st138{fill:#792816;}
	.st139{fill:#FFF4EC;}
	.st140{fill:#89361C;}
	.st141{fill:#C3AC9E;}
	.st142{fill:#D3C1B9;}
	.st143{fill:#E2E1D5;}
	.st144{fill:#343225;}
	.st145{fill:#040406;}
	.st146{opacity:0.5;fill:#343225;}
	.st147{fill:#4C4333;}
	.st148{fill:#89877B;}
	.st149{fill:url(#SVGID_3_);}
	.st150{fill:url(#SVGID_4_);}
	.st151{opacity:0.5;fill:url(#SVGID_5_);}
	.st152{fill:url(#SVGID_6_);}
	.st153{fill:url(#SVGID_7_);}
	.st154{fill:url(#SVGID_8_);}
	.st155{fill:url(#SVGID_9_);}
	.st156{fill:url(#SVGID_10_);}
	.st157{opacity:0.3;fill:url(#SVGID_11_);}
	.st158{opacity:0.3;fill:url(#SVGID_12_);}
	.st159{fill:url(#SVGID_13_);}
	.st160{fill:url(#SVGID_14_);}
	.st161{fill:url(#SVGID_15_);}
	.st162{fill:url(#SVGID_16_);}
	.st163{fill:url(#SVGID_17_);}
	.st164{fill:url(#SVGID_18_);}
	.st165{opacity:0.7;fill:url(#SVGID_19_);}
	.st166{fill:url(#SVGID_20_);}
	.st167{filter:url(#Adobe_OpacityMaskFilter);}
	.st168{fill:url(#SVGID_22_);}
	.st169{opacity:0.7;mask:url(#SVGID_21_);fill:url(#SVGID_23_);}
	.st170{fill:url(#SVGID_24_);}
	.st171{opacity:0.5;fill:url(#SVGID_25_);}
	.st172{opacity:0.5;fill:url(#SVGID_26_);}
	.st173{opacity:0.3;fill:url(#SVGID_27_);}
	.st174{filter:url(#Adobe_OpacityMaskFilter_1_);}
	.st175{filter:url(#Adobe_OpacityMaskFilter_2_);}
	.st176{mask:url(#SVGID_28_);fill:url(#SVGID_29_);}
	.st177{fill:url(#SVGID_30_);}
	.st178{filter:url(#Adobe_OpacityMaskFilter_3_);}
	.st179{opacity:0.8;fill:url(#SVGID_32_);}
	.st180{mask:url(#SVGID_31_);}
	.st181{filter:url(#Adobe_OpacityMaskFilter_4_);}
	.st182{filter:url(#Adobe_OpacityMaskFilter_5_);}
	.st183{fill:url(#SVGID_33_);}
	.st184{fill:url(#SVGID_34_);}
	.st185{filter:url(#Adobe_OpacityMaskFilter_6_);}
	.st186{filter:url(#Adobe_OpacityMaskFilter_7_);}
	.st187{mask:url(#SVGID_35_);fill:url(#SVGID_36_);}
	.st188{opacity:0.6;fill:url(#SVGID_37_);}
	.st189{opacity:0.9;fill:url(#SVGID_38_);}
	.st190{fill:url(#SVGID_39_);}
	.st191{opacity:0.3;fill:url(#SVGID_40_);}
	.st192{opacity:0.3;fill:url(#SVGID_41_);}
	.st193{opacity:0.8;fill:url(#SVGID_42_);}
	.st194{fill:#F7DDBC;}
	.st195{fill:#D9B48A;}
	.st196{opacity:0.5;fill:#F7DDBC;}
	.st197{opacity:0.3;fill:#DEAA79;}
	.st198{opacity:0.3;fill:#A47348;}
	.st199{opacity:0.5;fill:#DEAA79;}
	.st200{opacity:0.5;fill:#A47348;}
	.st201{opacity:0.3;fill:#BE905C;}
	.st202{fill:#FFEBD7;}
	.st203{opacity:0.3;fill:#DEB485;}
	.st204{opacity:0.3;fill:#8F622F;}
	.st205{opacity:0.2;fill:#BA915C;}
	.st206{opacity:0.2;fill:#BE905C;}
	.st207{opacity:0.3;fill:#D5AD7A;}
	.st208{opacity:0.5;fill:#D5AD7A;}
	.st209{fill:#17ADE4;}
	.st210{fill:#F99B1C;}
	.st211{opacity:0.2;fill:#D59B29;}
	.st212{opacity:0.5;fill:#D59B29;}
	.st213{opacity:0.5;fill:#B8802B;}
	.st214{fill:#FAD00A;}
	.st215{fill:#EEA320;}
	.st216{opacity:0.4;fill:#FAD00A;}
	.st217{opacity:0.7;fill:#FAD00A;}
	.st218{opacity:0.7;fill:#E7C249;}
	.st219{opacity:0.7;fill:#E9B44A;}
	.st220{fill:#3A5728;}
	.st221{opacity:0.3;fill:#3A5728;}
	.st222{opacity:0.5;fill:#3A5728;}
	.st223{opacity:0.3;fill:#6D9D40;}
	.st224{opacity:0.3;fill:#547B38;}
	.st225{fill:#1C2C17;}
	.st226{opacity:0.3;fill:#1A381C;}
	.st227{fill:#152A17;}
	.st228{fill:#F8BC16;}
	.st229{opacity:0.2;fill:#F8BC16;}
	.st230{opacity:0.1;fill:#F8BC16;}
	.st231{opacity:0.3;fill:#E09426;}
	.st232{opacity:0.3;fill:#D98B28;}
	.st233{fill:#CE6F28;}
	.st234{fill:#A65225;}
	.st235{fill:#D88E28;}
	.st236{fill:#BD6728;}
	.st237{fill:#F09F20;}
	.st238{fill:#D37A28;}
	.st239{fill:#A2C83A;}
	.st240{opacity:0.2;fill:#A2C83A;}
	.st241{fill:#ECACCE;}
	.st242{fill:#CB6BAA;}
	.st243{fill:#FACB84;}
	.st244{fill:#F8BA58;}
	.st245{fill:#F3A846;}
	.st246{opacity:0.5;fill:#FACB84;}
	.st247{opacity:0.5;fill:#F8BA58;}
	.st248{fill:#80461D;}
	.st249{opacity:0.7;fill:#ECACCE;}
	.st250{opacity:0.7;fill:#FACB84;}
	.st251{fill:#356531;}
	.st252{opacity:0.2;fill:#356531;}
	.st253{opacity:0.5;fill:#356531;}
	.st254{fill:#508B3F;}
	.st255{fill:#117A3D;}
	.st256{opacity:0.4;fill:#508B3F;}
	.st257{opacity:0.7;fill:#508B3F;}
	.st258{fill:#467135;}
	.st259{opacity:0.2;fill:#467135;}
	.st260{opacity:0.3;fill:#467135;}
	.st261{fill:#203C1C;}
	.st262{fill:#142716;}
	.st263{fill:#325628;}
	.st264{fill:#193019;}
	.st265{fill:#20552A;}
	.st266{opacity:0.5;fill:#508B3F;}
	.st267{opacity:0.5;fill:#A2C83A;}
	.st268{fill:#88171A;}
	.st269{fill:#C02326;}
	.st270{fill:#A61E22;}
	.st271{opacity:0.4;fill:#C02326;}
	.st272{opacity:0.7;fill:#C02326;}
	.st273{opacity:0.2;fill:#A61E22;}
	.st274{opacity:0.3;fill:#A61E22;}
	.st275{fill:#62130C;}
	.st276{fill:#451310;}
	.st277{fill:#791514;}
	.st278{fill:#861719;}
	.st279{fill:#FECF0A;}
	.st280{opacity:0.4;fill:#C6A239;}
	.st281{opacity:0.2;fill:#E4A33A;}
	.st282{opacity:0.3;fill:#B8A137;}
	.st283{opacity:0.3;fill:#FECF0A;}
	.st284{fill:#F5B41A;}
	.st285{opacity:0.6;fill:#CFAE2B;}
	.st286{opacity:0.4;fill:#CFAE2B;}
	.st287{fill:#98772C;}
	.st288{fill:#FFD86D;}
	.st289{fill:#E59F24;}
	.st290{fill:#ECB31F;}
	.st291{fill:#E8B321;}
	.st292{opacity:0.3;fill:#E4A33A;}
	.st293{opacity:0.3;fill:#D48E64;}
	.st294{opacity:0.2;fill:#C6A239;}
	.st295{fill:#FDEB07;stroke:#E0E1E0;stroke-width:0;stroke-linecap:round;stroke-linejoin:round;}
	.st296{fill:#BCBAA3;}
	.st297{fill:#55813B;}
	.st298{fill:#32421B;}
	.st299{opacity:0.3;fill:#517636;}
	.st300{fill:#6E953E;}
	.st301{opacity:0.2;fill:#3A5728;}
	.st302{fill:#42793A;}
	.st303{fill:#F6871F;}
	.st304{opacity:0.2;fill:#E66725;}
	.st305{fill:#D65027;}
	.st306{fill:#CB5727;}
	.st307{opacity:0.2;}
	.st308{fill:#AD6427;}
	.st309{opacity:0.3;fill:#E66725;}
	.st310{opacity:0.5;fill:#DC8127;}
	.st311{fill:#D5D1C5;}
	.st312{fill:#DCB399;}
	.st313{fill:#EAC6AF;}
	.st314{opacity:0.5;fill:#EAC6AF;}
	.st315{opacity:0.5;fill:#E9DEDE;}
	.st316{opacity:0.6;fill:#E9DEDE;}
	.st317{fill:#F7D8C1;}
	.st318{fill:none;}
	.st319{opacity:0.3;fill:#C49374;}
	.st320{fill:#6F903C;}
	.st321{opacity:0.4;fill:#3A5728;}
	.st322{opacity:0.5;fill:#6F903C;}
	.st323{opacity:0.5;fill:#7C963B;}
	.st324{fill:#516A30;}
	.st325{opacity:0.2;fill:#E0E1E0;}
	.st326{opacity:0.2;fill:#C2CACB;}
	.st327{opacity:0.5;fill:#C2CACB;}
	.st328{opacity:0.2;fill:#645C51;}
	.st329{fill:#FAFAFA;}
	.st330{fill:#D6D6D6;}
	.st331{opacity:0.3;fill:#B4C0B2;}
	.st332{fill:#BDBDBD;}
	.st333{fill:#961B1E;}
	.st334{fill:#AF2F24;}
	.st335{fill:#C53127;}
	.st336{fill:#76533F;}
	.st337{fill:#533A2A;}
	.st338{opacity:0.7;fill:#E94466;}
	.st339{fill:#D91F26;}
	.st340{fill:#F6DAB4;}
	.st341{fill:#D2A47F;}
	.st342{fill:#B4B4B4;}
	.st343{fill:#E88B38;}
	.st344{fill:#FBAD47;}
	.st345{fill:#CFB581;}
	.st346{fill:#594D41;}
	.st347{fill:#FDF8F2;}
	.st348{opacity:0.5;fill:#E88B38;}
	.st349{fill:#DDDCD8;}
	.st350{opacity:0.8;fill:#E88B38;}
	.st351{opacity:0.5;fill:#594D41;}
	.st352{fill:#F89A1C;}
	.st353{opacity:0.4;fill:#FDC110;}
	.st354{fill:#FEE600;}
	.st355{fill:#FDC110;}
	.st356{fill:#7CBDE8;}
	.st357{opacity:0.6;fill:#5BB353;}
	.st358{fill:#046CA6;}
	.st359{opacity:0.3;fill:#046CA6;}
	.st360{opacity:0.3;fill:#20ABE3;}
	.st361{fill:#754138;}
	.st362{fill:#6A2116;}
	.st363{fill:#381512;}
</style>











<g
   id="g906"
   transform="translate(-203.99532,-244.60607)">
	<g
   id="g896">
		<g
   id="g786">
			<path
   class="st89"
   d="m 285.59,334.58 c 0.06,0.3 -8.13,11.39 -8.46,11.87 -0.32,0.47 4.79,-0.88 6.75,-2.06 1.95,-1.18 3.29,-1.74 5.56,-1.74 2.27,0 9.74,-0.34 10.44,-0.46 0.7,-0.13 17.05,-4.35 17.48,-4.33 0.42,0.03 1.44,-0.57 1.44,-0.57 0,0 -3.36,-4.86 -2.62,-6.44 0.75,-1.58 1.17,-4.34 1.11,-4.64 -0.05,-0.3 -2.08,-6.33 -2.08,-6.33 0,0 -19.12,1.53 -19.5,1.71 -0.39,0.17 -10.12,12.99 -10.12,12.99 z"
   id="path768"
   inkscape:connector-curvature="0"
   style="fill:#a4a391" />
			<path
   class="st90"
   d="m 315.21,319.88 c 0,0 -19.12,1.53 -19.5,1.71 -0.39,0.17 -10.12,12.99 -10.12,12.99 0.06,0.3 -8.13,11.39 -8.46,11.87 -0.32,0.47 4.79,-0.88 6.75,-2.06 1.05,-0.64 1.93,-1.09 2.87,-1.38 -0.69,-1.65 -0.91,-3.57 -0.41,-5.1 0.06,-0.18 0.26,-0.27 0.44,-0.17 1.61,0.86 3.35,1.27 5.12,1.7 1.72,0.42 3.4,0.95 5.1,1.41 1.37,0.36 2.75,0.7 4.13,1.04 0.72,-0.18 1.71,-0.43 2.84,-0.72 0.61,-1.25 1.09,-2.61 1.65,-3.69 1.31,-2.54 2.57,-5.06 4.29,-7.35 1.52,-2.02 2.41,-4.05 3.39,-6.36 0.53,-1.27 1.14,-2.46 2.08,-3.41 -0.11,-0.3 -0.17,-0.48 -0.17,-0.48 z"
   id="path770"
   inkscape:connector-curvature="0"
   style="opacity:0.6;fill:#c2c2c2" />
			<path
   class="st69"
   d="m 314.1,337 c -2.94,0.57 -5.84,1.29 -8.77,1.94 -1.25,0.28 -2.42,0.72 -3.69,0.92 -1.57,0.24 -3.09,0.2 -4.67,0.24 -1.39,0.04 -2.77,0.04 -4.16,0.03 -1.48,-0.01 -2.87,0.36 -4.31,0.48 -1.01,0.09 -1.95,0.7 -2.82,1.19 -1.3,0.73 -2.76,1.2 -4.02,2 -0.03,0.02 -0.03,0.09 0.03,0.06 4.84,-2.81 10.82,-3.69 16.36,-3.61 5.56,0.08 10.7,-1.93 16.05,-3.15 0.03,0 0.06,-0.11 0,-0.1 z"
   id="path772"
   inkscape:connector-curvature="0"
   style="fill:#c2c2c2" />
			<path
   class="st69"
   d="m 313.19,334.03 c -1.07,0.19 -2.11,0.45 -3.16,0.73 -1.25,0.32 -2.34,1.02 -3.62,1.29 -1.16,0.25 -2.41,0.05 -3.57,0.2 -1.33,0.16 -2.6,0.5 -3.93,0.6 -2.57,0.2 -5.12,0.14 -7.66,0.69 -2.24,0.49 -4.36,1.49 -6.52,2.22 -0.03,0.01 -0.04,0.08 -0.01,0.06 0.75,-0.18 1.5,-0.23 2.21,-0.5 1.4,-0.52 2.79,-0.99 4.24,-1.33 2.51,-0.58 5.12,-0.51 7.67,-0.76 1.36,-0.14 2.65,-0.51 3.97,-0.82 1.17,-0.27 2.39,-0.11 3.57,-0.23 1.06,-0.09 2.12,-0.52 3.11,-0.88 1.2,-0.43 2.47,-0.69 3.68,-1.09 0.08,-0.01 0.14,-0.19 0.02,-0.18 z"
   id="path774"
   inkscape:connector-curvature="0"
   style="fill:#c2c2c2" />
			<path
   class="st69"
   d="m 312.76,332.59 c -1.99,0.51 -4,0.8 -6.02,1.16 -2.14,0.37 -4.23,1.03 -6.39,1.3 -0.04,0 -0.06,0.07 -0.02,0.06 4.16,-0.21 8.47,-1.1 12.42,-2.39 0.05,-0.01 0.08,-0.14 0.01,-0.13 z"
   id="path776"
   inkscape:connector-curvature="0"
   style="fill:#c2c2c2" />
			<path
   class="st69"
   d="m 296.72,334.24 c -1.52,0.24 -3.03,0.45 -4.53,0.81 -1.22,0.29 -2.41,0.89 -3.63,1.11 -0.05,0.01 -0.11,0.13 -0.04,0.14 1.04,0.08 2.17,-0.44 3.18,-0.67 1.68,-0.39 3.3,-0.96 4.99,-1.31 0.06,-0.01 0.07,-0.09 0.03,-0.08 z"
   id="path778"
   inkscape:connector-curvature="0"
   style="fill:#c2c2c2" />
			<path
   class="st69"
   d="m 299.95,331.89 c -1.07,0.13 -2.08,0.3 -3.16,0.36 -1.09,0.05 -2.19,0.54 -3.27,0.57 -0.03,0 -0.07,0.07 -0.02,0.08 1,0.14 2.23,-0.15 3.23,-0.31 0.58,-0.1 1.21,0 1.8,-0.07 0.48,-0.06 0.95,-0.27 1.41,-0.43 0.07,-0.04 0.12,-0.22 0.01,-0.2 z"
   id="path780"
   inkscape:connector-curvature="0"
   style="fill:#c2c2c2" />
			<path
   class="st69"
   d="m 298.29,330.33 c -0.52,0.01 -1.06,0.1 -1.58,0.21 -0.51,0.09 -1.12,0.34 -1.61,0.34 -0.04,0 -0.09,0.09 -0.03,0.1 0.51,0.11 1.07,-0.03 1.58,-0.08 0.56,-0.05 1.17,0.05 1.66,-0.26 0.12,-0.06 0.17,-0.31 -0.02,-0.31 z"
   id="path782"
   inkscape:connector-curvature="0"
   style="fill:#c2c2c2" />
			<path
   class="st90"
   d="m 316.18,330.85 c 0.75,-1.58 1.17,-4.34 1.11,-4.64 -0.05,-0.3 -2.08,-6.33 -2.08,-6.33 0,0 -19.12,1.53 -19.5,1.71 -0.39,0.17 -10.12,12.99 -10.12,12.99 0.06,0.3 -8.13,11.39 -8.46,11.87 -0.32,0.47 4.79,-0.88 6.75,-2.06 1.95,-1.18 3.29,-1.74 5.56,-1.74 2.27,0 9.74,-0.34 10.44,-0.46 0.7,-0.13 17.05,-4.35 17.48,-4.33 0.42,0.03 1.44,-0.57 1.44,-0.57 0,0 -3.36,-4.87 -2.62,-6.44 z m -1.02,5.3 c -3.28,1.72 -6.88,2.62 -10.45,3.58 -1.17,0.32 -2.45,0.77 -3.58,0.07 -1.11,-0.69 -1.92,-1.73 -2.95,-2.5 0.11,0.87 0.49,1.69 0.69,2.55 0.04,0.15 -0.08,0.32 -0.24,0.34 -1.67,0.25 -3.39,0.1 -5.05,0.47 -1.01,0.23 -2.09,0.56 -3.13,0.3 -1.69,-0.42 -2.79,-1.07 -4.48,-0.1 -1.39,0.8 -2.7,1.72 -4.11,2.46 -0.27,0.15 -0.53,-0.2 -0.37,-0.44 1.29,-1.9 2.44,-4.14 4.26,-5.6 2.08,-1.68 4.75,-2.41 6.9,-3.99 0.08,-0.06 0.16,-0.07 0.23,-0.06 0.92,-0.85 1.75,-1.83 2.53,-2.61 0.06,-0.06 0.21,-0.1 0.3,-0.05 0.9,0.45 3.24,1.3 3.9,0.21 0.54,-0.9 1.09,-1.75 1.98,-2.33 0.2,-0.13 0.44,0.09 0.43,0.29 -0.16,2.07 -0.52,4.11 -0.8,6.16 1.79,-0.72 3.66,-1.25 5.53,-1.78 1.98,-0.57 3.87,-1.41 5.89,-1.83 0.23,-0.05 0.4,0.18 0.33,0.39 -0.3,0.97 0.15,2.12 -0.89,2.72 -0.75,0.43 -1.59,0.67 -2.39,0.99 1.83,0.01 3.64,-0.52 5.43,0.21 0.26,0.1 0.28,0.42 0.04,0.55 z"
   id="path784"
   inkscape:connector-curvature="0"
   style="opacity:0.6;fill:#c2c2c2" />
		</g>
		<g
   id="g804">
			<path
   class="st71"
   d="m 254.14,335.66 c 0,0.3 -10.05,9.75 -10.46,10.15 -0.4,0.4 4.88,0 7,-0.81 2.13,-0.81 3.56,-1.11 5.79,-0.71 2.24,0.41 9.65,1.42 10.36,1.42 0.71,0 17.56,-1.22 17.96,-1.12 0.41,0.11 1.53,-0.3 1.53,-0.3 0,0 -2.44,-5.38 -1.42,-6.8 1.02,-1.42 1.93,-4.06 1.93,-4.36 0,-0.31 -0.91,-6.6 -0.91,-6.6 0,0 -19.09,-1.93 -19.49,-1.83 -0.41,0.09 -12.29,10.96 -12.29,10.96 z"
   id="path788"
   inkscape:connector-curvature="0"
   style="fill:#e5e1c6" />
			<path
   class="st69"
   d="m 281.74,343.17 c -3,0.02 -5.98,0.22 -8.97,0.33 -1.29,0.05 -2.52,0.27 -3.8,0.24 -1.59,-0.05 -3.08,-0.37 -4.65,-0.61 -1.37,-0.21 -2.73,-0.45 -4.11,-0.71 -1.45,-0.27 -2.87,-0.16 -4.32,-0.3 -1.01,-0.09 -2.05,0.33 -2.99,0.66 -1.41,0.49 -2.92,0.68 -4.31,1.25 -0.04,0.01 -0.04,0.08 0.01,0.06 5.26,-1.89 11.31,-1.69 16.74,-0.61 5.45,1.08 10.87,0.03 16.35,-0.21 0.06,0 0.12,-0.1 0.05,-0.1 z"
   id="path790"
   inkscape:connector-curvature="0"
   style="fill:#c2c2c2" />
			<path
   class="st69"
   d="m 281.38,340.08 c -1.09,0 -2.16,0.07 -3.25,0.14 -1.28,0.1 -2.49,0.59 -3.8,0.63 -1.18,0.03 -2.37,-0.39 -3.55,-0.45 -1.33,-0.08 -2.64,0.03 -3.97,-0.12 -2.57,-0.27 -5.07,-0.78 -7.66,-0.69 -2.29,0.08 -4.56,0.67 -6.81,1.01 -0.03,0 -0.05,0.06 -0.01,0.06 0.76,-0.05 1.51,0.04 2.26,-0.1 1.47,-0.27 2.92,-0.47 4.41,-0.54 2.58,-0.12 5.13,0.42 7.69,0.63 1.36,0.11 2.7,-0.03 4.05,-0.09 1.21,-0.06 2.37,0.32 3.56,0.42 1.07,0.1 2.17,-0.13 3.21,-0.3 1.26,-0.21 2.56,-0.23 3.83,-0.41 0.07,-0.01 0.15,-0.19 0.04,-0.19 z"
   id="path792"
   inkscape:connector-curvature="0"
   style="fill:#c2c2c2" />
			<path
   class="st69"
   d="m 281.21,338.59 c -2.05,0.15 -4.09,0.07 -6.14,0.06 -2.17,-0.02 -4.34,0.25 -6.51,0.13 -0.03,0 -0.06,0.06 -0.03,0.07 4.13,0.54 8.53,0.43 12.64,-0.13 0.06,-0.01 0.12,-0.14 0.04,-0.13 z"
   id="path794"
   inkscape:connector-curvature="0"
   style="fill:#c2c2c2" />
			<path
   class="st69"
   d="m 265.14,337.32 c -1.54,-0.03 -3.06,-0.09 -4.59,-0.01 -1.26,0.06 -2.54,0.44 -3.78,0.45 -0.05,0 -0.13,0.1 -0.06,0.12 1,0.27 2.22,-0.04 3.25,-0.09 1.72,-0.08 3.41,-0.35 5.15,-0.39 0.04,-0.01 0.08,-0.08 0.03,-0.08 z"
   id="path796"
   inkscape:connector-curvature="0"
   style="fill:#c2c2c2" />
			<path
   class="st69"
   d="m 268.74,335.59 c -1.08,-0.07 -2.1,-0.08 -3.18,-0.22 -1.09,-0.15 -2.24,0.14 -3.32,-0.03 -0.03,0 -0.08,0.06 -0.04,0.07 0.97,0.32 2.23,0.26 3.24,0.27 0.59,0.01 1.19,0.22 1.78,0.25 0.48,0.03 0.99,-0.09 1.46,-0.16 0.09,-0.01 0.17,-0.18 0.06,-0.18 z"
   id="path798"
   inkscape:connector-curvature="0"
   style="fill:#c2c2c2" />
			<path
   class="st69"
   d="m 267.4,333.77 c -0.52,-0.09 -1.07,-0.09 -1.6,-0.09 -0.51,0.01 -1.16,0.14 -1.65,0.05 -0.04,-0.01 -0.09,0.08 -0.04,0.1 0.47,0.19 1.05,0.15 1.57,0.2 0.56,0.05 1.14,0.26 1.68,0.05 0.12,-0.05 0.22,-0.28 0.04,-0.31 z"
   id="path800"
   inkscape:connector-curvature="0"
   style="fill:#c2c2c2" />
			<path
   class="st72"
   d="m 284.9,337.48 c 1.02,-1.42 1.93,-4.06 1.93,-4.36 0,-0.31 -0.91,-6.6 -0.91,-6.6 0,0 -19.09,-1.93 -19.49,-1.83 -0.4,0.1 -12.28,10.96 -12.28,10.96 0,0.3 -10.05,9.75 -10.46,10.15 -0.4,0.4 4.88,0 7,-0.81 2.13,-0.81 3.56,-1.11 5.79,-0.71 2.24,0.41 9.65,1.42 10.36,1.42 0.71,0 17.56,-1.22 17.96,-1.12 0.41,0.11 1.53,-0.3 1.53,-0.3 0,0 -2.45,-5.37 -1.43,-6.8 z m -1.96,5.04 c -3.54,1.11 -7.24,1.35 -10.92,1.65 -1.22,0.1 -2.56,0.31 -3.54,-0.58 -0.97,-0.88 -1.58,-2.05 -2.45,-3 -0.04,0.88 0.18,1.75 0.23,2.64 0,0.15 -0.15,0.3 -0.3,0.3 -1.7,-0.06 -3.36,-0.52 -5.06,-0.45 -1.03,0.04 -2.15,0.17 -3.13,-0.27 -1.58,-0.71 -2.55,-1.55 -4.38,-0.9 -1.51,0.53 -2.96,1.2 -4.49,1.68 -0.28,0.09 -0.49,-0.29 -0.28,-0.5 1.61,-1.64 3.14,-3.63 5.19,-4.75 2.34,-1.28 5.1,-1.52 7.51,-2.68 0.08,-0.04 0.16,-0.04 0.23,-0.02 1.05,-0.67 2.05,-1.49 2.96,-2.12 0.08,-0.05 0.22,-0.06 0.3,0 0.81,0.61 2.95,1.87 3.81,0.92 0.69,-0.78 1.38,-1.52 2.36,-1.93 0.22,-0.09 0.42,0.16 0.37,0.36 -0.52,2.01 -1.24,3.95 -1.89,5.92 1.9,-0.39 3.83,-0.57 5.76,-0.76 2.06,-0.2 4.05,-0.69 6.13,-0.74 0.23,-0.01 0.35,0.25 0.25,0.45 -0.47,0.9 -0.23,2.11 -1.36,2.51 -0.82,0.28 -1.68,0.38 -2.53,0.54 1.8,0.35 3.67,0.14 5.31,1.18 0.22,0.14 0.17,0.47 -0.08,0.55 z"
   id="path802"
   inkscape:connector-curvature="0"
   style="opacity:0.5;fill:#d4d1b8" />
		</g>
		<path
   class="st91"
   d="m 300.63,317.39 c 0,0 3.15,-0.41 6.09,-0.92 2.94,-0.51 7.11,-0.2 7.81,-0.2 0.71,0 1.42,0.41 1.42,0.41 0,0 -4.87,8.22 -5.28,10.45 -0.4,2.24 -5.89,9.34 -5.99,9.64 -0.1,0.3 -2.13,3.75 -2.13,3.75 l -0.11,0.41 c 0,0 -14.1,-5.99 -26.7,-4.47 z"
   id="path806"
   inkscape:connector-curvature="0"
   style="fill:#789d99" />
		<path
   class="st92"
   d="m 314.54,316.27 c -0.71,0 -4.87,-0.31 -7.81,0.2 -2.95,0.51 -6.09,0.92 -6.09,0.92 l -24.87,19.09 c 12.59,-1.52 26.7,4.47 26.7,4.47 l 0.11,-0.41 c 0,0 2.03,-3.45 2.13,-3.75 0.1,-0.3 5.58,-7.41 5.99,-9.64 0.41,-2.23 5.28,-10.45 5.28,-10.45 0,0 -0.74,-0.43 -1.44,-0.43 z m -0.86,1.12 c -0.66,0.55 -1.38,0.97 -2.1,1.43 1.44,0.96 -0.75,3.14 -1.38,4.18 -0.99,1.62 -1.98,3.27 -2.79,4.99 -0.6,1.28 -1.12,2.73 -2.2,3.71 -0.66,0.59 -1.36,1.03 -1.6,1.93 -0.15,0.52 -0.25,1.04 -0.38,1.56 -0.18,0.73 -0.37,1.83 -1.03,2.3 -1.35,0.98 -3.91,-0.85 -5.16,-1.39 -0.21,-0.09 -0.18,-0.41 0,-0.51 0.82,-0.48 1.68,-0.96 2.58,-1.25 0.82,-0.27 1.95,-0.15 2.4,-1.04 0.73,-1.41 0.91,-3.08 1.17,-4.62 0.2,-1.17 0.2,-2.72 0.97,-3.68 1.04,-1.26 2.46,-2.1 3.64,-3.2 -0.85,0.32 -1.65,0.74 -2.4,1.28 -0.16,0.12 -0.39,0 -0.44,-0.17 -0.37,-1.29 -0.67,-2.59 -0.99,-3.88 -0.04,-0.16 0.04,-0.31 0.2,-0.37 1.53,-0.51 7.8,-2.26 9.37,-1.75 0.21,0.05 0.33,0.33 0.14,0.48 z"
   id="path808"
   inkscape:connector-curvature="0"
   style="opacity:0.4;fill:#789d99" />
		<path
   class="st93"
   d="m 300.23,328.14 0.91,3.25 c 0,0 -2.03,1.63 -4.26,2.14 -2.24,0.51 -8.63,2.54 -9.65,2.23 -1.02,-0.3 -16.04,1.32 -16.04,1.32 l 4.26,-6.7 11.27,-2.44 z"
   id="path810"
   inkscape:connector-curvature="0"
   style="fill:#d1ceb6" />
		<path
   class="st94"
   d="m 277.69,330.78 c 0,0 -3.45,5.38 -3.15,5.07 0.3,-0.3 8.12,-1.02 9.54,-1.02 1.42,0 10.05,-2.13 10.66,-2.43 0.61,-0.3 3.86,-1.32 3.86,-1.32 l -3.97,-1.12 c 0,0 -3.14,0.1 -3.44,0.3 -0.31,0.21 -3.05,1.52 -3.05,1.52 0,0 -4.57,1.62 -4.87,1.62 -0.3,0 -1.52,-0.51 -1.52,-0.51 l -2.54,-0.3 z"
   id="path812"
   inkscape:connector-curvature="0"
   style="fill:#b8b6a1" />
		<path
   class="st95"
   d="m 241.95,335.05 -2.13,2.43 c 0,0 5.07,0.71 10.35,0.1 5.28,-0.61 7.81,-1.42 8.43,-1.83 0.61,-0.4 5.38,-4.16 6.8,-4.77 1.42,-0.61 3.86,-2.33 4.97,-1.83 1.12,0.51 5.76,3.62 8.06,3.38 0,0 -2.78,-6.63 -9.78,-7.04 -7,-0.39 -26.7,9.56 -26.7,9.56 z"
   id="path814"
   inkscape:connector-curvature="0"
   style="fill:#bab8a3" />
		<path
   class="st80"
   d="m 253.12,336.33 c 2.25,-0.45 4.29,-1.09 6.23,-2.36 1.81,-1.17 3.45,-2.6 5.3,-3.7 1.59,-0.94 3.45,-1.96 5.34,-2.06 1.56,-0.09 3.06,0.4 4.45,1.06 1.09,0.52 2.13,1.12 3.16,1.75 -1.28,-1.98 -4.11,-5.24 -8.95,-5.53 -7,-0.41 -26.7,9.54 -26.7,9.54 l -1.31,1.49 c 4.02,1.13 8.48,0.61 12.48,-0.19 z"
   id="path816"
   inkscape:connector-curvature="0"
   style="opacity:0.4;fill:#c2c2c2" />
		<path
   class="st75"
   d="m 242.16,332.41 c 0,0.31 -2.33,3.45 -2.33,3.45 0,0 8.93,0.81 12.48,0.51 3.56,-0.3 5.79,-1.41 6.7,-2.33 0.92,-0.91 6.2,-4.36 7.82,-5.08 1.62,-0.71 2.34,-1.22 3.55,-0.81 1.22,0.41 3.66,2.23 3.97,2.54 0.3,0.3 3.65,1.72 3.65,1.72 0,0 -4.47,-7.31 -9.04,-8.02 -4.57,-0.71 -17.66,6.19 -17.66,6.19 z"
   id="path818"
   inkscape:connector-curvature="0"
   style="fill:#d4d1b8" />
		<path
   class="st80"
   d="m 251.42,335.23 c 4.46,-0.58 8.25,-2.84 11.94,-5.31 1.47,-0.98 3.06,-2.57 4.83,-2.98 1.35,-0.31 2.72,-0.15 3.99,0.38 1.29,0.53 2.48,1.26 3.61,2.05 -1.72,-2.1 -4.27,-4.59 -6.84,-4.99 -4.57,-0.71 -17.66,6.19 -17.66,6.19 l -9.14,1.83 c 0,0.16 -0.66,1.13 -1.28,2 3.35,1.11 7.1,1.27 10.55,0.83 z"
   id="path820"
   inkscape:connector-curvature="0"
   style="opacity:0.4;fill:#c2c2c2" />
		<g
   id="g830">
			<path
   class="st75"
   d="m 251.9,313.53 c 3.25,-3.65 10.26,-14.72 10.26,-14.72 l -5.89,1.73 c 0,0 -2.94,10.66 -6.69,15.12 -2.04,2.42 -4.58,6.87 -6.51,10.74 0.04,-0.06 0.08,-0.11 0.11,-0.18 1.31,-2.34 5.48,-9.04 8.72,-12.69 z"
   id="path822"
   inkscape:connector-curvature="0"
   style="fill:#d4d1b8" />
			<path
   class="st75"
   d="m 244.7,323.67 c 1.23,-2.45 2.66,-4.8 4.17,-7.11 -1.89,2.52 -4.09,6.4 -5.8,9.84 0.04,-0.06 0.08,-0.11 0.11,-0.18 0.34,-0.61 0.86,-1.5 1.52,-2.55 z"
   id="path824"
   inkscape:connector-curvature="0"
   style="fill:#d4d1b8" />
			<path
   class="st75"
   d="m 260.92,299.17 c -0.86,2.1 -2.28,3.98 -3.61,5.8 -1.8,2.46 -3.39,5.07 -5.09,7.6 -0.69,1.03 -1.38,2.05 -2.07,3.09 0.6,-0.78 1.19,-1.5 1.74,-2.13 3.25,-3.65 10.26,-14.72 10.26,-14.72 z"
   id="path826"
   inkscape:connector-curvature="0"
   style="fill:#d4d1b8" />
			<path
   class="st71"
   d="m 284.08,291.29 c -7.51,0.1 -9.54,3.45 -11.57,3.76 -2.03,0.3 -4.06,0.1 -4.06,0.1 l -6.49,2.84 0.2,0.81 c 0,0 -7.01,11.07 -10.26,14.72 -3.25,3.65 -7.41,10.36 -8.73,12.69 -0.04,0.07 -0.08,0.13 -0.11,0.18 -1.64,3.28 -2.84,6.14 -2.93,7.02 0,0 7.41,1.73 11.47,1.22 4.06,-0.51 7.62,-2.74 9.85,-4.26 2.24,-1.52 6.09,-5.99 8.93,-4.16 2.84,1.83 6.4,5.99 7.62,6.19 0,0 0.16,0.06 0.44,0.14 l 17.83,-35.26 c 0,0.01 -4.68,-6.09 -12.19,-5.99 z"
   id="path828"
   inkscape:connector-curvature="0"
   style="fill:#e5e1c6" />
		</g>
		<path
   class="st75"
   d="m 312.91,304.09 c 0,0 -3.04,-7.41 -5.79,-8.12 -2.74,-0.71 -10.86,1.32 -10.86,1.32 l -17.83,35.26 c 1.08,0.3 3.97,0.93 6.46,-0.03 3.15,-1.22 7.31,-4.47 9.64,-3.65 2.34,0.81 6.59,2.53 6.59,2.53 0,0 2.13,-7.81 2.13,-9.54 0,-1.72 -1.72,-3.86 0.11,-5.79 1.84,-1.93 9.55,-11.98 9.55,-11.98 z"
   id="path832"
   inkscape:connector-curvature="0"
   style="fill:#d4d1b8" />
		<path
   class="st96"
   d="m 274.54,302.36 c 0,0 7.21,-2.43 15.33,1.01 l 3.66,-5.68 c 0,0 -5.17,-7 -16.24,-2.34 z"
   id="path834"
   inkscape:connector-curvature="0"
   style="fill:#abaa97" />
		<polygon
   class="st96"
   points="267.43,308.15 258.6,306.93 256.37,310.79 265.71,311.9 "
   id="polygon836"
   style="fill:#abaa97" />
		<polygon
   class="st71"
   points="267.84,300.43 268.4,295.15 261.9,298 "
   id="polygon838"
   style="fill:#e5e1c6" />
		<g
   class="st4"
   id="g852"
   style="opacity:0.5">
			<path
   class="st69"
   d="m 274.15,324.25 c -0.36,-0.17 -0.72,-0.3 -1.07,-0.4 -0.06,0.02 -0.11,0.03 -0.18,0.01 -0.45,-0.12 -0.93,-0.23 -1.4,-0.31 -0.54,-0.06 -1.09,-0.1 -1.65,-0.15 -0.07,0 -0.15,0 -0.22,0.01 -0.21,0.01 -0.4,0.04 -0.6,0.06 1.46,0.34 2.94,0.45 4.36,1.04 0.8,0.33 1.57,0.71 2.35,1.09 0.39,0.19 0.71,0.46 1.02,0.76 0.44,0.18 0.85,0.41 1.2,0.71 -1.14,-1.27 -2.23,-2.09 -3.81,-2.82 z"
   id="path840"
   inkscape:connector-curvature="0"
   style="fill:#c2c2c2" />
			<path
   class="st69"
   d="m 277.68,323.93 c 0.45,0.14 0.91,0.27 1.37,0.39 -0.01,-0.03 -0.02,-0.06 -0.06,-0.09 -0.73,-0.44 -1.41,-1.03 -2.22,-1.33 -0.73,-0.28 -1.55,-0.33 -2.32,-0.49 -0.04,-0.01 -0.09,0.07 -0.04,0.08 0.72,0.24 1.46,0.41 2.15,0.73 0.42,0.2 0.76,0.46 1.12,0.71 z"
   id="path842"
   inkscape:connector-curvature="0"
   style="fill:#c2c2c2" />
			<path
   class="st69"
   d="m 280.1,322.48 c -1.07,-1.32 -2.65,-1.53 -4.24,-1.76 -0.01,0 -0.03,0.02 -0.01,0.02 1.47,0.53 2.79,1.04 4.09,1.9 0.1,0.07 0.23,-0.07 0.16,-0.16 z"
   id="path844"
   inkscape:connector-curvature="0"
   style="fill:#c2c2c2" />
			<path
   class="st69"
   d="m 281.52,320.72 c -0.49,-0.29 -0.66,-0.86 -1.18,-1.13 -0.57,-0.31 -1.17,-0.47 -1.79,-0.68 -0.13,-0.04 -0.25,-0.09 -0.39,-0.14 -0.4,-0.04 -0.8,-0.07 -1.19,-0.06 0.61,0.13 1.16,0.43 1.73,0.67 0.68,0.28 1.39,0.49 1.88,1.08 0.3,0.35 0.39,0.45 0.83,0.49 0.1,0.02 0.21,-0.16 0.11,-0.23 z"
   id="path846"
   inkscape:connector-curvature="0"
   style="fill:#c2c2c2" />
			<path
   class="st69"
   d="m 281.77,319.12 c -0.2,-0.11 -0.4,-0.21 -0.62,-0.28 -0.03,-0.01 -0.06,0.04 -0.04,0.06 0.18,0.15 0.3,0.36 0.51,0.47 0.11,0.05 0.28,-0.18 0.15,-0.25 z"
   id="path848"
   inkscape:connector-curvature="0"
   style="fill:#c2c2c2" />
			<path
   class="st69"
   d="m 281.38,305.61 c -1.35,-0.22 -2.29,-0.34 -3.65,-0.15 -0.88,0.12 -1.77,0.24 -2.66,0.32 -0.27,0.02 -0.52,0.13 -0.78,0.25 0.56,0.16 1.11,0.25 1.68,0.3 0.2,-0.02 0.39,-0.03 0.57,-0.04 0.71,-0.03 1.38,-0.15 2.07,-0.34 0.93,-0.26 1.76,-0.09 2.7,-0.11 0.1,-0.02 0.21,-0.21 0.07,-0.23 z"
   id="path850"
   inkscape:connector-curvature="0"
   style="fill:#c2c2c2" />
		</g>
		<g
   class="st4"
   id="g864"
   style="opacity:0.5">
			<path
   class="st69"
   d="m 298.09,326.22 c -0.04,-0.02 -0.08,-0.03 -0.11,-0.06 -0.51,-0.1 -1.04,-0.17 -1.62,-0.23 -0.69,-0.07 -1.21,-0.4 -1.9,-0.38 -0.54,0.01 -1.11,0.18 -1.65,0.22 -1.12,0.09 -2.26,0.18 -3.4,0.24 -1.04,0.25 -2.06,0.54 -3.09,0.81 1.35,-0.05 3.44,-0.39 3.79,-0.43 0.76,-0.09 1.52,-0.08 2.28,-0.21 0.95,-0.15 2.05,-0.42 3,-0.13 0.74,0.23 1.5,0.25 2.25,0.33 0.81,0.08 1.46,0.5 2.23,0.66 0.06,0.02 0.11,-0.03 0.15,-0.09 -0.63,-0.24 -1.27,-0.52 -1.93,-0.73 z"
   id="path854"
   inkscape:connector-curvature="0"
   style="fill:#c2c2c2" />
			<path
   class="st69"
   d="m 289.72,324.24 c -0.45,0.02 -0.89,0.12 -1.34,0.18 -0.6,0.08 -1.13,0.36 -1.75,0.25 -0.03,0 -0.06,0.05 -0.03,0.06 0.44,0.18 0.85,0.15 1.3,0.07 0.61,-0.11 1.17,-0.06 1.77,-0.27 0.12,-0.04 0.23,-0.3 0.05,-0.29 z"
   id="path856"
   inkscape:connector-curvature="0"
   style="fill:#c2c2c2" />
			<path
   class="st69"
   d="m 299.69,324.67 c -0.73,-0.26 -1.59,-0.64 -2.35,-0.76 -0.52,-0.09 -0.95,-0.07 -1.47,0.04 -0.09,0.02 -0.2,0.04 -0.32,0.07 0.13,0.03 0.25,0.05 0.35,0.07 0.21,0.05 0.42,0.08 0.63,0.13 0.62,0.04 1.17,0.22 1.8,0.49 0.44,0.19 0.79,0.3 1.26,0.22 0.1,-0.01 0.24,-0.22 0.1,-0.26 z"
   id="path858"
   inkscape:connector-curvature="0"
   style="fill:#c2c2c2" />
			<path
   class="st69"
   d="m 300.02,322.78 c -0.35,-0.08 -0.57,-0.25 -0.85,-0.42 -0.32,-0.15 -0.64,-0.29 -0.97,-0.43 -0.38,-0.11 -0.73,-0.15 -1.16,-0.21 -1.11,-0.15 -2.3,-0.2 -3.42,-0.28 -1.85,-0.13 -4.73,-0.28 -6.31,0.88 0.06,0.01 0.13,0.01 0.19,0.01 0.92,-0.42 2.35,-0.42 3.29,-0.44 1.18,-0.02 2.41,0 3.57,0.22 0.97,0.17 1.94,0.1 2.91,0.22 1.14,0.15 1.96,1.05 3.13,0.78 0.03,-0.01 0.06,-0.03 0.09,-0.07 -0.14,-0.09 -0.31,-0.18 -0.47,-0.26 z"
   id="path860"
   inkscape:connector-curvature="0"
   style="fill:#c2c2c2" />
			<path
   class="st69"
   d="m 292.46,319.38 c -0.06,0 -0.11,-0.02 -0.15,-0.04 -0.43,0.03 -0.86,0.04 -1.29,0.1 -0.64,0.08 -1.39,0.34 -2.04,0.25 -0.03,-0.01 -0.08,0.06 -0.03,0.07 0.61,0.2 1.35,0.03 1.98,0.05 0.81,0.02 1.46,0.15 2.22,-0.21 0.09,-0.05 0.16,-0.18 0.15,-0.27 -0.29,0.01 -0.56,0.04 -0.84,0.05 z"
   id="path862"
   inkscape:connector-curvature="0"
   style="fill:#c2c2c2" />
		</g>
		<path
   class="st96"
   d="m 306.14,302.48 c 1.48,0.71 2.51,1.82 3.1,3.18 0.33,-0.47 0.7,-1.03 0.9,-1.53 -0.11,-1.32 -0.49,-2.57 -1.55,-3.43 -2.03,-1.64 -5.28,-2.18 -7.81,-1.33 -0.4,0.66 -0.81,1.32 -1.22,1.98 -0.03,0.08 -0.05,0.15 -0.06,0.23 2.23,-0.2 4.61,-0.07 6.64,0.9 z"
   id="path866"
   inkscape:connector-curvature="0"
   style="fill:#abaa97" />
		<polygon
   class="st97"
   points="267.23,299.72 268.45,295.15 261.96,298 "
   id="polygon868"
   style="fill:#e4e4e2" />
		<path
   class="st80"
   d="m 284.08,291.29 c -7.51,0.1 -9.54,3.45 -11.57,3.76 -2.03,0.3 -4.06,0.1 -4.06,0.1 l -6.49,2.84 0.2,0.81 c 0,0 -7.01,11.07 -10.26,14.72 -3.25,3.65 -7.41,10.36 -8.73,12.69 -0.04,0.07 -0.08,0.13 -0.11,0.18 -1.64,3.28 -2.84,6.14 -2.93,7.02 0,0 7.41,1.73 11.47,1.22 4.06,-0.51 7.62,-2.74 9.85,-4.26 2.24,-1.52 6.09,-5.99 8.93,-4.16 2.84,1.83 6.4,5.99 7.62,6.19 0,0 0.16,0.06 0.44,0.14 l 17.83,-35.26 c 0,0.01 -4.68,-6.09 -12.19,-5.99 z m -22.13,23.93 c -0.75,1.94 -2.4,3.63 -4,4.9 -1.75,1.38 -3.66,2.52 -5.59,3.63 -1.89,1.08 -3.83,2.16 -5.97,2.66 -0.23,0.05 -0.4,-0.14 -0.36,-0.36 0.66,-3.38 3.01,-6.13 5.07,-8.77 2.54,-3.26 5.3,-6.51 7.55,-9.98 1.06,-1.62 2.37,-3.24 3.02,-5.08 0.22,-0.63 0.56,-2.07 1.38,-2.22 0.93,-0.16 2.89,0.06 3.8,0.89 0.15,-0.06 0.33,-0.02 0.37,0.19 0.41,2.39 1.11,4.94 0.78,7.38 -0.33,2.47 -1.9,4.47 -3.14,6.55 -0.12,0.2 -0.51,0.2 -0.54,-0.07 -0.25,-1.88 -0.72,-3.66 -1.4,-5.4 -0.09,1.92 -0.26,3.85 -0.97,5.68 z m 28.97,-12.4 c -4.13,5.93 -7.04,12.63 -10.23,19.09 -0.81,1.63 -1.64,3.3 -2.75,4.76 -0.36,0.47 -0.86,0.85 -1.46,0.61 -0.95,-0.39 -1.51,-1.72 -2.42,-2.27 -1.43,-0.85 -2.99,-1.23 -4.58,-1.66 -0.14,-0.04 -0.27,-0.21 -0.21,-0.36 0.37,-0.96 0.61,-1.94 0.85,-2.93 -2.25,1.53 -3.98,3.73 -6.29,5.19 -0.25,0.16 -0.56,-0.15 -0.41,-0.4 2.63,-4.37 5.72,-8.72 7.48,-13.53 1.69,-4.62 0.75,-9.59 1.36,-14.38 -0.06,-0.08 -0.08,-0.19 -0.02,-0.3 0.03,-0.04 0.05,-0.08 0.07,-0.11 0,-0.01 0,-0.01 0.01,-0.02 0.02,-0.1 0.07,-0.16 0.13,-0.2 1.13,-1.59 3.47,-2.26 5.17,-2.96 3,-1.22 6.35,-1.36 9.47,-0.51 1.94,0.53 4.48,1.5 5.43,3.44 1.17,2.35 -0.25,4.61 -1.6,6.54 z"
   id="path870"
   inkscape:connector-curvature="0"
   style="opacity:0.4;fill:#c2c2c2" />
		<path
   class="st80"
   d="m 312.91,304.09 c 0,0 -3.04,-7.41 -5.79,-8.12 -2.74,-0.71 -10.86,1.32 -10.86,1.32 l -17.83,35.26 c 1.08,0.3 3.97,0.93 6.46,-0.03 3.15,-1.22 7.31,-4.47 9.64,-3.65 2.34,0.81 6.59,2.53 6.59,2.53 0,0 2.13,-7.81 2.13,-9.54 0,-1.72 -1.72,-3.86 0.11,-5.79 1.84,-1.93 9.55,-11.98 9.55,-11.98 z m -12.71,3.6 c -0.83,1.4 -1.84,3.09 -1.9,4.76 -0.07,1.87 1.42,3.57 2.19,5.2 0.56,1.17 1.35,2.62 1.09,3.96 -0.25,1.26 -0.73,2.56 -1.39,3.67 -0.43,0.71 -1.09,1.74 -2.05,1.7 -1.77,-0.07 -3.61,-0.37 -5.3,-0.89 -0.16,-0.05 -0.25,-0.2 -0.2,-0.36 0.22,-0.96 0.52,-1.89 0.75,-2.84 -2.61,3.83 -6.47,6.14 -11.23,6.56 -0.25,0.02 -0.33,-0.26 -0.25,-0.45 1.12,-2.62 1.73,-5.68 4.07,-7.55 0.57,-0.45 1.17,-0.87 1.72,-1.35 0.29,-0.25 -0.45,-0.93 -0.53,-1.19 -0.25,-0.85 0.35,-1.88 0.69,-2.63 1.43,-3.15 3.02,-6.26 4.68,-9.3 0,-0.01 0.01,-0.02 0.01,-0.03 0.9,-1.81 2.03,-3.55 2.99,-5.36 -0.06,-0.09 -0.09,-0.2 -0.04,-0.31 0.4,-0.9 0.71,-2.24 1.52,-2.95 0.03,-0.07 0.09,-0.12 0.17,-0.13 0.08,-0.06 0.18,-0.12 0.27,-0.16 1.51,-0.73 3.46,-0.97 5.13,-1.04 3.51,-0.15 5.77,2.17 6.64,5.47 0.04,0.15 -0.04,0.33 -0.21,0.37 -1.77,0.38 -4.16,-0.04 -5.68,1.05 -1.32,0.96 -2.32,2.4 -3.14,3.8 z"
   id="path872"
   inkscape:connector-curvature="0"
   style="opacity:0.4;fill:#c2c2c2" />
		<g
   class="st98"
   id="g880"
   style="opacity:0.6">
			<path
   class="st69"
   d="m 271.58,297.3 c -0.3,0.67 -0.59,1.35 -0.87,2.04 -0.23,0.93 -0.45,1.86 -0.58,2.82 -0.29,2.13 -0.2,4.21 -0.06,6.34 0.17,2.68 -0.96,5.45 -2.29,7.7 -1.3,2.19 -3.25,3.76 -4.93,5.62 -0.04,0.05 0.01,0.11 0.06,0.06 1.67,-1.69 3.37,-3.14 4.87,-4.98 1.45,-1.76 2.09,-3.99 2.61,-6.15 0.56,-2.31 0.49,-4.84 0.68,-7.2 0.09,-1.16 -0.06,-2.33 0.04,-3.49 0.06,-0.94 0.35,-1.84 0.47,-2.76 z"
   id="path874"
   inkscape:connector-curvature="0"
   style="fill:#c2c2c2" />
			<path
   class="st69"
   d="m 260.88,316.99 c -0.5,2.49 -1.95,4.14 -3.87,5.67 -1.84,1.47 -3.71,2.83 -5.82,3.9 0,0 0,0 -0.01,0 0.09,0.01 0.17,0.02 0.25,0.02 4.18,-1.88 9.27,-4.53 9.57,-9.62 0,-0.09 -0.11,-0.03 -0.12,0.03 z"
   id="path876"
   inkscape:connector-curvature="0"
   style="fill:#c2c2c2" />
			<path
   class="st69"
   d="m 302.25,318.38 c 0.05,-0.02 0.11,-0.09 0.08,-0.14 -0.51,-1.17 -1.11,-2.78 -1.09,-4.07 0.03,-1.23 0.5,-2.37 0.97,-3.48 0.69,-1.64 2.25,-2.91 2.94,-4.55 -0.68,0.48 -1.34,0.97 -1.98,1.48 -0.16,0.16 -0.33,0.32 -0.47,0.49 -0.96,1.11 -1.47,2.03 -2.04,3.37 -0.62,1.46 -0.1,3.41 0.61,5.04 0.32,0.63 0.65,1.26 0.98,1.86 z"
   id="path878"
   inkscape:connector-curvature="0"
   style="fill:#c2c2c2" />
		</g>
		<g
   class="st98"
   id="g894"
   style="opacity:0.6">
			<path
   class="st54"
   d="m 261.92,302.6 c -0.47,1.53 -0.9,3.17 -1.67,4.55 -0.42,0.76 -1.23,1.47 -1.81,2.13 -0.72,0.83 -1.43,1.68 -2.15,2.52 -2.07,2.45 -3.85,5.07 -5.68,7.69 0.15,-0.15 0.28,-0.31 0.42,-0.47 0.41,-0.52 0.91,-1.13 1.46,-1.6 1.07,-1.18 2.15,-2.36 3.21,-3.54 2.27,-2.49 5.48,-5.49 6.15,-8.96 0.01,-0.58 0.06,-1.15 0.11,-1.73 0.02,-0.19 0,-0.39 -0.04,-0.59 z"
   id="path882"
   inkscape:connector-curvature="0"
   style="opacity:0.5;fill:#ffffff" />
			<path
   class="st54"
   d="m 273.69,297.85 c -0.06,0.75 -0.18,1.49 -0.15,2.25 0.04,1.17 -0.01,2.33 -0.04,3.51 -0.05,1.86 -0.44,3.73 -0.78,5.55 -0.44,2.41 -1.96,4.26 -3.26,6.25 -1.33,2.05 -2.36,4.28 -3.59,6.39 -0.11,0.2 0.13,0.33 0.26,0.16 1.52,-2 2.97,-4.06 4.42,-6.11 1.43,-2.03 2.84,-3.81 3.48,-6.26 0.39,-1.47 0.61,-3.09 0.7,-4.66 -0.29,-2.37 -0.65,-4.72 -1.04,-7.08 z"
   id="path884"
   inkscape:connector-curvature="0"
   style="opacity:0.5;fill:#ffffff" />
			<path
   class="st54"
   d="m 281.92,317.79 c 1.12,-2.22 2.1,-4.52 2.7,-6.9 0.01,-0.06 -0.05,-0.04 -0.07,0 -1.6,3.4 -4.14,6.42 -5.08,10.1 0.82,-1.07 1.64,-2.13 2.45,-3.2 z"
   id="path886"
   inkscape:connector-curvature="0"
   style="opacity:0.5;fill:#ffffff" />
			<path
   class="st54"
   d="m 271.1,342.03 c -0.75,-1.13 -2.16,-1.85 -3.32,-2.51 -1.53,-0.88 -3.2,-1.5 -4.78,-2.29 -0.04,-0.02 -0.11,0.06 -0.07,0.09 1.31,1.15 2.63,2.25 3.99,3.33 1.23,0.99 2.13,1.75 3.74,1.94 0.23,0.03 0.58,-0.32 0.44,-0.56 z"
   id="path888"
   inkscape:connector-curvature="0"
   style="opacity:0.5;fill:#ffffff" />
			<path
   class="st54"
   d="m 297.53,300.17 c 0.03,-0.15 0.06,-0.3 0.08,-0.45 0.01,-0.04 -0.04,-0.03 -0.05,0 -0.21,0.69 -0.91,1.76 -1.23,2.41 -0.41,0.82 -0.86,1.64 -1.37,2.41 -1.01,1.52 -1.69,3.45 -2.44,5.12 -0.85,1.86 -1.76,3.7 -2.62,5.56 -0.31,0.66 -0.62,1.5 -0.58,2.25 0.05,1.02 0.29,1.64 -0.08,2.59 0.43,-0.87 0.91,-1.7 1.41,-2.53 0.01,-0.45 0.01,-0.89 0.11,-1.3 0.5,-2.03 1.88,-4.03 2.68,-5.97 0.83,-1.98 1.77,-3.92 2.56,-5.92 0.33,-0.83 0.74,-1.74 1.07,-2.64 0.16,-0.51 0.31,-1.03 0.46,-1.53 z"
   id="path890"
   inkscape:connector-curvature="0"
   style="opacity:0.5;fill:#ffffff" />
			<path
   class="st54"
   d="m 310.54,319.2 c -0.59,0.8 -1.15,1.6 -1.61,2.48 -0.48,0.92 -1.11,1.61 -1.65,2.49 -0.45,0.75 -0.66,1.63 -0.99,2.45 -0.03,0.09 -0.08,0.17 -0.11,0.26 0.07,-0.08 0.14,-0.15 0.21,-0.23 0.54,-1.02 1.18,-1.94 2.08,-2.49 1.79,-1.1 1.32,-3.24 2.14,-4.94 0.05,-0.07 -0.05,-0.06 -0.07,-0.02 z"
   id="path892"
   inkscape:connector-curvature="0"
   style="opacity:0.5;fill:#ffffff" />
		</g>
	</g>
	<g
   id="g904">
		<path
   class="st88"
   d="m 261.14,321.07 c -0.28,-0.45 -0.72,-0.86 -0.75,-1.49 -0.09,-1.65 1.62,-2.18 0.13,-3.77 -1.09,-1.18 -2.13,-0.75 -2.55,0.67 -0.04,0.12 -1.47,-0.23 -1.76,-0.1 -0.57,0.26 -0.93,0.57 -1.17,1.15 -0.24,0.55 -0.08,1.1 0.28,1.57 1.05,1.42 -1.55,1.3 -2.1,1.27 -0.32,-0.01 -0.68,0.14 -0.91,0.34 -0.64,0.54 -2.23,2.51 -1.52,3.43 1.62,2.11 3.8,-1.12 5.63,-0.03 1.41,0.84 3.59,-0.33 4.5,-1.43 0.6,-0.72 0.49,-1.18 0.22,-1.61 z"
   id="path898"
   inkscape:connector-curvature="0"
   style="opacity:0.6;fill:#be9c7a" />
		<path
   class="st88"
   d="m 251.8,327.83 c -0.19,0.03 -0.39,0.09 -0.58,0.2 -0.2,0.05 -0.39,0.12 -0.55,0.23 -0.39,0.25 -0.85,0.71 -0.78,1.22 0.07,0.54 0.71,0.54 1.11,0.42 0.55,-0.16 1.12,-0.62 1.35,-1.15 0.18,-0.44 0.03,-1.01 -0.55,-0.92 z m -1.55,1.26 c 0.03,-0.11 0.08,-0.22 0.15,-0.31 -0.09,0.2 -0.13,0.45 -0.06,0.64 -0.08,-0.05 -0.13,-0.15 -0.09,-0.33 z"
   id="path900"
   inkscape:connector-curvature="0"
   style="opacity:0.6;fill:#be9c7a" />
		<path
   class="st88"
   d="m 298.83,306.9 c -1.53,-0.75 -2.42,1.14 -3.88,0.76 -1.11,-0.28 0.78,-2.46 -0.92,-2.94 -1.19,-0.34 -2.3,-0.19 -3.35,0.47 -0.24,0.15 -0.51,0.51 -0.55,0.79 -0.06,0.48 -0.06,0.36 0.06,0.88 0.08,0.35 -1.26,0.15 -1.39,0.15 -0.66,-0.02 -1.6,0.39 -1.96,0.97 -0.45,0.74 -0.1,1.17 0.21,1.76 -0.38,0.26 -0.75,0.53 -1.04,0.54 -0.76,0.02 -1.41,-0.32 -2.17,-0.33 -0.57,0 -0.96,-0.39 -1.47,-0.02 -0.88,0.64 -0.86,1.22 -0.11,1.95 0.99,0.99 -0.76,1.3 -1.24,1.47 -0.5,0.18 -0.74,0.57 -0.95,1.02 -0.51,1.07 -0.1,1.86 0.9,2.34 1.26,0.61 2.09,0.01 2.94,-1.04 1.22,-1.53 2.87,0.18 4.08,-0.74 0.21,-0.16 0.47,-0.37 0.47,-0.67 0.01,-0.35 0.03,-0.36 -0.06,-0.68 -0.13,-0.45 1.08,0.03 1.19,0.07 0.88,0.31 1.88,0.01 2.2,-0.9 0.06,-0.17 0.08,-0.38 0.04,-0.54 -0.2,-0.81 0.85,-0.74 1.39,-0.64 0.73,0.14 1.56,-0.32 2.19,-0.63 0.93,-0.46 1.88,-0.48 2.87,-0.68 0.32,-0.06 0.78,-0.4 0.93,-0.7 0.41,-0.76 0.62,-2.17 -0.38,-2.66 z"
   id="path902"
   inkscape:connector-curvature="0"
   style="opacity:0.6;fill:#be9c7a" />
	</g>
</g>






















</svg>