<?xml version="1.0" encoding="UTF-8" standalone="no"?>
<!-- Generator: Adobe Illustrator 23.1.0, SVG Export Plug-In . SVG Version: 6.00 Build 0)  -->

<svg
   xmlns:dc="http://purl.org/dc/elements/1.1/"
   xmlns:cc="http://creativecommons.org/ns#"
   xmlns:rdf="http://www.w3.org/1999/02/22-rdf-syntax-ns#"
   xmlns:svg="http://www.w3.org/2000/svg"
   xmlns="http://www.w3.org/2000/svg"
   xmlns:sodipodi="http://sodipodi.sourceforge.net/DTD/sodipodi-0.dtd"
   xmlns:inkscape="http://www.inkscape.org/namespaces/inkscape"
   version="1.1"
   id="Layer_1"
   x="0px"
   y="0px"
   viewBox="0 0 151.1811 151.18109"
   xml:space="preserve"
   sodipodi:docname="2.1.3.svg"
   width="40mm"
   height="40mm"
   inkscape:version="0.92.4 (5da689c313, 2019-01-14)"><metadata
   id="metadata4529"><rdf:RDF><cc:Work
       rdf:about=""><dc:format>image/svg+xml</dc:format><dc:type
         rdf:resource="http://purl.org/dc/dcmitype/StillImage" /><dc:title></dc:title></cc:Work></rdf:RDF></metadata><defs
   id="defs4527" /><sodipodi:namedview
   pagecolor="#ffffff"
   bordercolor="#666666"
   borderopacity="1"
   objecttolerance="10"
   gridtolerance="10"
   guidetolerance="10"
   inkscape:pageopacity="0"
   inkscape:pageshadow="2"
   inkscape:window-width="1024"
   inkscape:window-height="709"
   id="namedview4525"
   showgrid="false"
   units="mm"
   inkscape:zoom="1.1213358"
   inkscape:cx="129.06494"
   inkscape:cy="121.15453"
   inkscape:window-x="0"
   inkscape:window-y="30"
   inkscape:window-maximized="1"
   inkscape:current-layer="Layer_1" />
<style
   type="text/css"
   id="style2">
	.st0{fill:#67A8DB;}
	.st1{opacity:0.4;fill:#327CC0;}
	.st2{fill:#5299D3;}
	.st3{opacity:0.4;fill:#67A8DB;}
	.st4{opacity:0.5;}
	.st5{fill:#5CA1D7;}
	.st6{opacity:0.6;fill:#93C2E8;}
	.st7{opacity:0.6;fill:#67A8DB;}
	.st8{fill:#E76362;}
	.st9{opacity:0.4;fill:#D02527;}
	.st10{fill:#E14949;}
	.st11{opacity:0.4;fill:#E76362;}
	.st12{fill:#E45556;}
	.st13{opacity:0.6;fill:#EF9292;}
	.st14{opacity:0.6;fill:#E76362;}
	.st15{opacity:0.5;fill:#D2EEF9;}
	.st16{opacity:0.4;fill:#0099B0;}
	.st17{fill:#D0D1D1;}
	.st18{opacity:0.4;fill:#036BB1;}
	.st19{opacity:0.5;fill:#B5CCD7;}
	.st20{fill:#ACC1CB;}
	.st21{fill:#FFFFFF;}
	.st22{fill:#DFEFE7;}
	.st23{opacity:0.9;fill:#7ED0E0;}
	.st24{opacity:0.9;fill:#62C2CB;}
	.st25{opacity:0.9;fill:#41B3BF;}
	.st26{fill:#B1C8BC;}
	.st27{fill:#E21E26;}
	.st28{fill:#C1C0C0;}
	.st29{fill:#FCCE08;}
	.st30{opacity:0.7;}
	.st31{fill:#C8C7C6;}
	.st32{opacity:0.9;}
	.st33{fill:#41B3BF;}
	.st34{fill:#E75524;}
	.st35{fill:#62BE6B;}
	.st36{opacity:0.7;fill:#A6A6A6;}
	.st37{opacity:0.3;fill:#5BB353;}
	.st38{fill:#D1D1D1;}
	.st39{fill:#5BB353;}
	.st40{fill:#EDEDED;}
	.st41{fill:#DBDBDB;}
	.st42{fill:#F7F7F7;}
	.st43{fill:#E0E0E0;}
	.st44{fill:#EBEBEB;}
	.st45{fill:#811E18;}
	.st46{fill:#BC2025;}
	.st47{fill:#EB2024;}
	.st48{opacity:0.7;fill:#93CACB;}
	.st49{opacity:0.4;}
	.st50{fill:#919898;}
	.st51{fill:#C2CACB;}
	.st52{opacity:0.4;fill:#82C7DE;}
	.st53{opacity:0.8;fill:#FFFFFF;}
	.st54{opacity:0.5;fill:#FFFFFF;}
	.st55{fill:#FABE79;}
	.st56{fill:#F6AB62;}
	.st57{opacity:0.6;fill:#AE7B47;}
	.st58{fill:#B48049;}
	.st59{fill:#9B703F;}
	.st60{opacity:0.3;fill:#AE7B47;}
	.st61{opacity:0.3;}
	.st62{fill:#9C703E;}
	.st63{opacity:0.3;fill:#9B703F;}
	.st64{opacity:0.5;fill:#F6AB62;}
	.st65{opacity:0.4;fill:#FABE79;}
	.st66{fill:#DBDADA;}
	.st67{opacity:0.4;fill:#B2B4B7;}
	.st68{opacity:0.2;fill:#C1C1B7;}
	.st69{fill:#C2C2C2;}
	.st70{opacity:0.5;fill:#C2C2C2;}
	.st71{fill:#E5E1C6;}
	.st72{opacity:0.5;fill:#D4D1B8;}
	.st73{fill:#E3E3E3;}
	.st74{opacity:0.8;fill:#D4D1B8;}
	.st75{fill:#D4D1B8;}
	.st76{opacity:0.5;fill:#D0B9AD;}
	.st77{opacity:0.4;fill:#D4D1B8;}
	.st78{fill:#D2D1CE;}
	.st79{opacity:0.4;fill:#D2D1CE;}
	.st80{opacity:0.4;fill:#C2C2C2;}
	.st81{fill:#BFC1B8;}
	.st82{fill:#CB484F;}
	.st83{fill:#A7A9A0;}
	.st84{fill:#C3979C;}
	.st85{fill:#C7B88F;}
	.st86{fill:#9ACACB;}
	.st87{fill:#A8A8AB;}
	.st88{opacity:0.6;fill:#BE9C7A;}
	.st89{fill:#A4A391;}
	.st90{opacity:0.6;fill:#C2C2C2;}
	.st91{fill:#789D99;}
	.st92{opacity:0.4;fill:#789D99;}
	.st93{fill:#D1CEB6;}
	.st94{fill:#B8B6A1;}
	.st95{fill:#BAB8A3;}
	.st96{fill:#ABAA97;}
	.st97{fill:#E4E4E2;}
	.st98{opacity:0.6;}
	.st99{fill:#BEA18D;}
	.st100{opacity:0.3;fill:#BEA18D;}
	.st101{opacity:0.2;fill:#BEA18D;}
	.st102{fill:#D9BDA6;}
	.st103{fill:#CCAD93;}
	.st104{fill:#603412;}
	.st105{opacity:0.5;fill:#93816B;}
	.st106{opacity:0.4;fill:#331C0F;}
	.st107{fill:#93816B;}
	.st108{fill:#331C0F;}
	.st109{opacity:0.5;fill:#FFF7EA;}
	.st110{fill:#3F2612;}
	.st111{fill:#D62839;}
	.st112{fill:#F9AE9C;}
	.st113{fill:#4B632D;}
	.st114{opacity:0.5;fill:#86926B;}
	.st115{opacity:0.4;fill:#2E3618;}
	.st116{fill:#86926B;}
	.st117{fill:#2E3618;}
	.st118{opacity:0.5;fill:#F7F9E8;}
	.st119{fill:#34411B;}
	.st120{fill:#D59829;}
	.st121{fill:#FAF39E;}
	.st122{fill:#242424;}
	.st123{fill:#333232;}
	.st124{fill:#5D5D5D;}
	.st125{fill:#161616;}
	.st126{fill:#B3B3B3;}
	.st127{fill:#1A1A1A;}
	.st128{fill:#48893F;}
	.st129{fill:#FBAE1C;}
	.st130{fill:#759C3F;}
	.st131{fill:#56692F;}
	.st132{fill:#CAD631;}
	.st133{opacity:0.7;fill:#A66227;}
	.st134{fill:#BBBBBB;}
	.st135{fill:#A03B22;}
	.st136{fill:#C17529;}
	.st137{fill:#F47B2A;}
	.st138{fill:#792816;}
	.st139{fill:#FFF4EC;}
	.st140{fill:#89361C;}
	.st141{fill:#C3AC9E;}
	.st142{fill:#D3C1B9;}
	.st143{fill:#E2E1D5;}
	.st144{fill:#343225;}
	.st145{fill:#040406;}
	.st146{opacity:0.5;fill:#343225;}
	.st147{fill:#4C4333;}
	.st148{fill:#89877B;}
	.st149{fill:url(#SVGID_3_);}
	.st150{fill:url(#SVGID_4_);}
	.st151{opacity:0.5;fill:url(#SVGID_5_);}
	.st152{fill:url(#SVGID_6_);}
	.st153{fill:url(#SVGID_7_);}
	.st154{fill:url(#SVGID_8_);}
	.st155{fill:url(#SVGID_9_);}
	.st156{fill:url(#SVGID_10_);}
	.st157{opacity:0.3;fill:url(#SVGID_11_);}
	.st158{opacity:0.3;fill:url(#SVGID_12_);}
	.st159{fill:url(#SVGID_13_);}
	.st160{fill:url(#SVGID_14_);}
	.st161{fill:url(#SVGID_15_);}
	.st162{fill:url(#SVGID_16_);}
	.st163{fill:url(#SVGID_17_);}
	.st164{fill:url(#SVGID_18_);}
	.st165{opacity:0.7;fill:url(#SVGID_19_);}
	.st166{fill:url(#SVGID_20_);}
	.st167{filter:url(#Adobe_OpacityMaskFilter);}
	.st168{fill:url(#SVGID_22_);}
	.st169{opacity:0.7;mask:url(#SVGID_21_);fill:url(#SVGID_23_);}
	.st170{fill:url(#SVGID_24_);}
	.st171{opacity:0.5;fill:url(#SVGID_25_);}
	.st172{opacity:0.5;fill:url(#SVGID_26_);}
	.st173{opacity:0.3;fill:url(#SVGID_27_);}
	.st174{filter:url(#Adobe_OpacityMaskFilter_1_);}
	.st175{filter:url(#Adobe_OpacityMaskFilter_2_);}
	.st176{mask:url(#SVGID_28_);fill:url(#SVGID_29_);}
	.st177{fill:url(#SVGID_30_);}
	.st178{filter:url(#Adobe_OpacityMaskFilter_3_);}
	.st179{opacity:0.8;fill:url(#SVGID_32_);}
	.st180{mask:url(#SVGID_31_);}
	.st181{filter:url(#Adobe_OpacityMaskFilter_4_);}
	.st182{filter:url(#Adobe_OpacityMaskFilter_5_);}
	.st183{fill:url(#SVGID_33_);}
	.st184{fill:url(#SVGID_34_);}
	.st185{filter:url(#Adobe_OpacityMaskFilter_6_);}
	.st186{filter:url(#Adobe_OpacityMaskFilter_7_);}
	.st187{mask:url(#SVGID_35_);fill:url(#SVGID_36_);}
	.st188{opacity:0.6;fill:url(#SVGID_37_);}
	.st189{opacity:0.9;fill:url(#SVGID_38_);}
	.st190{fill:url(#SVGID_39_);}
	.st191{opacity:0.3;fill:url(#SVGID_40_);}
	.st192{opacity:0.3;fill:url(#SVGID_41_);}
	.st193{opacity:0.8;fill:url(#SVGID_42_);}
	.st194{fill:#F7DDBC;}
	.st195{fill:#D9B48A;}
	.st196{opacity:0.5;fill:#F7DDBC;}
	.st197{opacity:0.3;fill:#DEAA79;}
	.st198{opacity:0.3;fill:#A47348;}
	.st199{opacity:0.5;fill:#DEAA79;}
	.st200{opacity:0.5;fill:#A47348;}
	.st201{opacity:0.3;fill:#BE905C;}
	.st202{fill:#FFEBD7;}
	.st203{opacity:0.3;fill:#DEB485;}
	.st204{opacity:0.3;fill:#8F622F;}
	.st205{opacity:0.2;fill:#BA915C;}
	.st206{opacity:0.2;fill:#BE905C;}
	.st207{opacity:0.3;fill:#D5AD7A;}
	.st208{opacity:0.5;fill:#D5AD7A;}
	.st209{fill:#17ADE4;}
	.st210{fill:#F99B1C;}
	.st211{opacity:0.2;fill:#D59B29;}
	.st212{opacity:0.5;fill:#D59B29;}
	.st213{opacity:0.5;fill:#B8802B;}
	.st214{fill:#FAD00A;}
	.st215{fill:#EEA320;}
	.st216{opacity:0.4;fill:#FAD00A;}
	.st217{opacity:0.7;fill:#FAD00A;}
	.st218{opacity:0.7;fill:#E7C249;}
	.st219{opacity:0.7;fill:#E9B44A;}
	.st220{fill:#3A5728;}
	.st221{opacity:0.3;fill:#3A5728;}
	.st222{opacity:0.5;fill:#3A5728;}
	.st223{opacity:0.3;fill:#6D9D40;}
	.st224{opacity:0.3;fill:#547B38;}
	.st225{fill:#1C2C17;}
	.st226{opacity:0.3;fill:#1A381C;}
	.st227{fill:#152A17;}
	.st228{fill:#F8BC16;}
	.st229{opacity:0.2;fill:#F8BC16;}
	.st230{opacity:0.1;fill:#F8BC16;}
	.st231{opacity:0.3;fill:#E09426;}
	.st232{opacity:0.3;fill:#D98B28;}
	.st233{fill:#CE6F28;}
	.st234{fill:#A65225;}
	.st235{fill:#D88E28;}
	.st236{fill:#BD6728;}
	.st237{fill:#F09F20;}
	.st238{fill:#D37A28;}
	.st239{fill:#A2C83A;}
	.st240{opacity:0.2;fill:#A2C83A;}
	.st241{fill:#ECACCE;}
	.st242{fill:#CB6BAA;}
	.st243{fill:#FACB84;}
	.st244{fill:#F8BA58;}
	.st245{fill:#F3A846;}
	.st246{opacity:0.5;fill:#FACB84;}
	.st247{opacity:0.5;fill:#F8BA58;}
	.st248{fill:#80461D;}
	.st249{opacity:0.7;fill:#ECACCE;}
	.st250{opacity:0.7;fill:#FACB84;}
	.st251{fill:#356531;}
	.st252{opacity:0.2;fill:#356531;}
	.st253{opacity:0.5;fill:#356531;}
	.st254{fill:#508B3F;}
	.st255{fill:#117A3D;}
	.st256{opacity:0.4;fill:#508B3F;}
	.st257{opacity:0.7;fill:#508B3F;}
	.st258{fill:#467135;}
	.st259{opacity:0.2;fill:#467135;}
	.st260{opacity:0.3;fill:#467135;}
	.st261{fill:#203C1C;}
	.st262{fill:#142716;}
	.st263{fill:#325628;}
	.st264{fill:#193019;}
	.st265{fill:#20552A;}
	.st266{opacity:0.5;fill:#508B3F;}
	.st267{opacity:0.5;fill:#A2C83A;}
	.st268{fill:#88171A;}
	.st269{fill:#C02326;}
	.st270{fill:#A61E22;}
	.st271{opacity:0.4;fill:#C02326;}
	.st272{opacity:0.7;fill:#C02326;}
	.st273{opacity:0.2;fill:#A61E22;}
	.st274{opacity:0.3;fill:#A61E22;}
	.st275{fill:#62130C;}
	.st276{fill:#451310;}
	.st277{fill:#791514;}
	.st278{fill:#861719;}
	.st279{fill:#FECF0A;}
	.st280{opacity:0.4;fill:#C6A239;}
	.st281{opacity:0.2;fill:#E4A33A;}
	.st282{opacity:0.3;fill:#B8A137;}
	.st283{opacity:0.3;fill:#FECF0A;}
	.st284{fill:#F5B41A;}
	.st285{opacity:0.6;fill:#CFAE2B;}
	.st286{opacity:0.4;fill:#CFAE2B;}
	.st287{fill:#98772C;}
	.st288{fill:#FFD86D;}
	.st289{fill:#E59F24;}
	.st290{fill:#ECB31F;}
	.st291{fill:#E8B321;}
	.st292{opacity:0.3;fill:#E4A33A;}
	.st293{opacity:0.3;fill:#D48E64;}
	.st294{opacity:0.2;fill:#C6A239;}
	.st295{fill:#FDEB07;stroke:#E0E1E0;stroke-width:0;stroke-linecap:round;stroke-linejoin:round;}
	.st296{fill:#BCBAA3;}
	.st297{fill:#55813B;}
	.st298{fill:#32421B;}
	.st299{opacity:0.3;fill:#517636;}
	.st300{fill:#6E953E;}
	.st301{opacity:0.2;fill:#3A5728;}
	.st302{fill:#42793A;}
	.st303{fill:#F6871F;}
	.st304{opacity:0.2;fill:#E66725;}
	.st305{fill:#D65027;}
	.st306{fill:#CB5727;}
	.st307{opacity:0.2;}
	.st308{fill:#AD6427;}
	.st309{opacity:0.3;fill:#E66725;}
	.st310{opacity:0.5;fill:#DC8127;}
	.st311{fill:#D5D1C5;}
	.st312{fill:#DCB399;}
	.st313{fill:#EAC6AF;}
	.st314{opacity:0.5;fill:#EAC6AF;}
	.st315{opacity:0.5;fill:#E9DEDE;}
	.st316{opacity:0.6;fill:#E9DEDE;}
	.st317{fill:#F7D8C1;}
	.st318{fill:none;}
	.st319{opacity:0.3;fill:#C49374;}
	.st320{fill:#6F903C;}
	.st321{opacity:0.4;fill:#3A5728;}
	.st322{opacity:0.5;fill:#6F903C;}
	.st323{opacity:0.5;fill:#7C963B;}
	.st324{fill:#516A30;}
	.st325{opacity:0.2;fill:#E0E1E0;}
	.st326{opacity:0.2;fill:#C2CACB;}
	.st327{opacity:0.5;fill:#C2CACB;}
	.st328{opacity:0.2;fill:#645C51;}
	.st329{fill:#FAFAFA;}
	.st330{fill:#D6D6D6;}
	.st331{opacity:0.3;fill:#B4C0B2;}
	.st332{fill:#BDBDBD;}
	.st333{fill:#961B1E;}
	.st334{fill:#AF2F24;}
	.st335{fill:#C53127;}
	.st336{fill:#76533F;}
	.st337{fill:#533A2A;}
	.st338{opacity:0.7;fill:#E94466;}
	.st339{fill:#D91F26;}
	.st340{fill:#F6DAB4;}
	.st341{fill:#D2A47F;}
	.st342{fill:#B4B4B4;}
	.st343{fill:#E88B38;}
	.st344{fill:#FBAD47;}
	.st345{fill:#CFB581;}
	.st346{fill:#594D41;}
	.st347{fill:#FDF8F2;}
	.st348{opacity:0.5;fill:#E88B38;}
	.st349{fill:#DDDCD8;}
	.st350{opacity:0.8;fill:#E88B38;}
	.st351{opacity:0.5;fill:#594D41;}
	.st352{fill:#F89A1C;}
	.st353{opacity:0.4;fill:#FDC110;}
	.st354{fill:#FEE600;}
	.st355{fill:#FDC110;}
	.st356{fill:#7CBDE8;}
	.st357{opacity:0.6;fill:#5BB353;}
	.st358{fill:#046CA6;}
	.st359{opacity:0.3;fill:#046CA6;}
	.st360{opacity:0.3;fill:#20ABE3;}
	.st361{fill:#754138;}
	.st362{fill:#6A2116;}
	.st363{fill:#381512;}
</style>




<g
   id="g276"
   transform="translate(-62.425556,-244.33718)">
	<path
   d="m 76.34,330.03 2.78,-0.43 c 0,0 3.79,3.72 4.54,4.44 0.75,0.72 6.98,-2.07 7.55,-2.46 0.57,-0.38 0.97,0.18 2.39,0.76 1.43,0.59 3.78,0.18 5.04,-0.35 1.25,-0.53 6.68,7.39 7.8,7.95 1.13,0.56 4.54,-1.18 4.54,-1.18 l 7.06,3.38 c 0,0 8.63,1.83 9.17,2.04 0.53,0.22 3.14,0.74 4.74,1.4 1.61,0.65 5.9,4.16 9.81,8.14 3.91,3.98 19.27,3.53 20.61,3.56 1.35,0.02 1.91,-1.1 1.91,-1.1 2.01,-1.9 4.41,-8.1 4.62,-9.37 0.2,-1.27 -4.7,-5.86 -8.16,-7.06 -3.48,-1.19 -7.45,-0.1 -12.28,1.8 -4.82,1.89 -7.31,0.57 -7.31,0.57 l 2.57,-1.97 -0.17,-2.14 c 0,0 1.85,-1.23 3.18,-1.94 1.33,-0.71 2.18,-2.55 2.18,-2.55 l 5.36,0.39 c 0,0 2.29,-4.37 3.35,-5.72 1.07,-1.34 0.68,-5.02 0.68,-5.02 0,0 2.3,-1.57 2.57,-1.98 0.28,-0.41 -1.27,-3.01 -1.27,-3.01 0,0 9.24,-7.92 10.46,-7.84 1.21,0.08 2.93,-1.1 3.85,0 0.91,1.1 4.73,3.47 5.74,4.83 1.02,1.35 1.88,2.31 3.47,3.27 1.58,0.95 6.62,1.64 7.69,1.03 1.08,-0.6 3.7,-3.49 4.94,-4.76 1.24,-1.26 1.01,-9.17 1.26,-10.31 0.25,-1.15 -3.43,-3.88 -7.15,-4.97 -3.72,-1.08 -14.14,1.25 -15.85,1.39 -1.72,0.13 -5.72,-3.36 -8.77,-5.32 -3.06,-1.97 -10.36,-1.39 -10.92,-1.3 -0.55,0.08 -1.68,-1.5 -2.03,-2.7 -0.36,-1.17 -2.55,0.64 -3.48,0.89 -0.92,0.25 -4.79,-5.37 -6.02,-6.19 -1.23,-0.81 -14.98,1.01 -19.4,2.44 -4.44,1.44 -10.12,0.59 -10.12,0.59 -5.13,10.31 -9.93,13.98 -9.93,13.98 0,0 -10.57,4.77 -13.07,7.62 -2.5,2.83 -5.85,6.46 -8.82,9.95 -2.96,3.46 -5.11,9.25 -5.11,9.25 z m 97.62,-23.58 c 1.52,-0.79 4.21,-2.29 9.56,-2.27 5.35,0.03 8.72,2.23 9.65,3.02 0.92,0.79 0.29,5.95 0.29,5.95 0,0 -4.99,2.19 -6.14,2.46 -1.14,0.27 -3.76,-1.88 -5.26,-3.18 -1.5,-1.28 -3.53,-2.21 -4.25,-3.38 -0.73,-1.18 -3.85,-2.6 -3.85,-2.6 z m -33.07,41.49 c 0.59,0.2 7.99,-0.2 11.77,-1.05 3.78,-0.86 6.96,-0.36 9.46,1.17 2.5,1.53 2.53,5.44 2.53,5.44 0,0 -4.14,-0.17 -6.62,-0.07 -2.48,0.08 -8.3,-0.56 -10.75,-1.08 -2.45,-0.52 -6.6,-4.48 -6.39,-4.41 z"
   id="path218"
   inkscape:connector-curvature="0" />
	<g
   id="g240">
		<path
   class="st35"
   d="m 138.72,338.63 0.84,-3.09 3.23,-5.15 -3.29,-1.64 3.39,-1.07 2.68,-1.72 c 0.75,0.35 4.65,4.47 4.65,4.47 l 4.31,-2.04 0.5,-1.1 -0.73,-3.1 c 0,0 0.84,-2.06 0.98,-2.26 0.14,-0.2 0.14,-2.28 0.14,-2.28 l -3.06,-1.81 -2.68,-0.72 2.29,-0.89 c 0,0 3.41,0.18 4.39,0.21 0.97,0.03 2.38,0.55 2.38,0.55 0,0 0.86,-1.47 1.72,-2.57 0.87,-1.11 4.66,-3.16 4.66,-3.16 l 1.94,-1.19 c 0,0 0.08,-0.54 1.1,-1.27 1.02,-0.73 5.82,-2.33 5.82,-2.33 0,0 3.12,1.42 3.85,2.6 0.72,1.17 2.74,2.1 4.25,3.38 1.5,1.29 4.12,3.45 5.26,3.18 1.15,-0.27 6.14,-2.46 6.14,-2.46 0.19,0.73 -0.62,3.82 -0.9,4.83 -0.7,0.68 -1.34,1.25 -1.75,1.48 -1.07,0.61 -6.11,-0.08 -7.69,-1.03 -1.59,-0.96 -2.45,-1.93 -3.47,-3.27 -1.01,-1.35 -4.83,-3.73 -5.74,-4.83 -0.91,-1.1 -2.63,0.08 -3.85,0 -1.21,-0.08 -10.46,7.84 -10.46,7.84 0,0 1.55,2.6 1.27,3.01 -0.26,0.41 -2.57,1.98 -2.57,1.98 0,0 0.38,3.69 -0.68,5.02 -1.06,1.34 -3.35,5.72 -3.35,5.72 l -5.36,-0.39 c 0,0 -0.85,1.84 -2.18,2.55 -1.33,0.71 -3.18,1.94 -3.18,1.94 l 0.17,2.14 -2.57,1.97 -2.04,-0.46 z"
   id="path220"
   inkscape:connector-curvature="0"
   style="fill:#62be6b" />
		<path
   class="st36"
   d="m 170.81,310.18 c 1.01,-0.7 2.04,-0.66 3.21,-0.85 0.54,-0.09 1.35,0.94 1.75,1.23 0.7,0.52 1.45,0.99 2.15,1.51 2.17,1.6 3.83,4.61 6.43,5.57 1.74,0.65 4.44,1.05 6.2,0.3 1.57,-0.66 2.26,-2.36 2.9,-3.99 -0.14,1.21 -0.68,3.26 -0.89,4.04 -0.7,0.68 -1.34,1.25 -1.75,1.48 -1.07,0.61 -6.11,-0.08 -7.69,-1.03 -1.59,-0.96 -2.45,-1.93 -3.47,-3.27 -1.01,-1.35 -4.83,-3.73 -5.74,-4.83 -0.76,-0.92 -2.11,-0.24 -3.23,-0.04 0.04,-0.05 0.07,-0.09 0.13,-0.12 z"
   id="path222"
   inkscape:connector-curvature="0"
   style="opacity:0.7;fill:#a6a6a6" />
		<path
   class="st36"
   d="m 163.77,312.21 c -1.54,1.33 -3.58,2.53 -4.28,4.51 -0.18,0.5 -0.36,1.11 -0.93,1.09 -0.63,0 -1.24,-0.07 -1.85,-0.21 -1.16,-0.27 -2.23,-0.47 -3.42,-0.32 -0.62,0.08 -1.24,0.19 -1.86,0.3 l -1.75,-0.47 2.29,-0.89 c 0,0 3.41,0.18 4.39,0.21 0.97,0.03 2.38,0.55 2.38,0.55 0,0 0.86,-1.47 1.72,-2.57 0.65,-0.84 2.98,-2.21 4.08,-2.84 -0.27,0.21 -0.52,0.42 -0.77,0.64 z"
   id="path224"
   inkscape:connector-curvature="0"
   style="opacity:0.7;fill:#a6a6a6" />
		<path
   class="st36"
   d="m 141.37,333.31 c 1.49,0.57 -1.24,3.42 -1.59,4.29 -0.53,1.3 -0.11,2.82 0.12,4.24 l -0.78,-0.18 -0.39,-3.02 0.84,-3.09 1.64,-2.62 c -0.06,0.14 0,0.32 0.16,0.38 z"
   id="path226"
   inkscape:connector-curvature="0"
   style="opacity:0.7;fill:#a6a6a6" />
		<path
   class="st36"
   d="m 155.41,320.21 c 0.46,0.14 0.54,0.12 0.39,0.65 -0.2,0.74 -0.32,1.48 -0.33,2.25 -0.01,0.89 -0.02,1.78 0.15,2.66 0.29,1.47 -0.3,1.99 -1.27,2.97 -0.59,0.6 -0.87,1.41 -1.43,2.02 -0.74,0.81 -2.09,0.39 -3.01,0.18 -0.95,-0.21 -1.9,-0.43 -2.87,-0.45 -0.42,0 -0.97,-1.45 -1.21,-1.85 -0.09,-0.15 -0.31,-0.13 -0.44,-0.05 -1.61,1.11 -2.88,2.61 -4.08,4.15 l 1.47,-2.34 -3.29,-1.64 3.39,-1.07 2.68,-1.72 c 0.75,0.35 4.65,4.47 4.65,4.47 l 4.31,-2.04 0.5,-1.1 -0.73,-3.1 c 0,0 0.84,-2.06 0.98,-2.26 0.08,-0.14 0.12,-1.1 0.14,-1.73 z"
   id="path228"
   inkscape:connector-curvature="0"
   style="opacity:0.7;fill:#a6a6a6" />
		<path
   class="st35"
   d="m 140.89,347.94 c -0.21,-0.06 3.94,3.89 6.38,4.41 2.45,0.53 8.27,1.16 10.75,1.08 2.48,-0.09 6.62,0.07 6.62,0.07 0.38,1.73 -1,3.16 -1.58,3.67 -0.2,0.06 -0.42,0.1 -0.68,0.09 -1.35,-0.03 -16.7,0.42 -20.61,-3.56 -3.45,-3.53 -7.23,-6.69 -9.17,-7.81 0.17,0.03 0.34,0.07 0.52,0.14 1.88,0.77 7.77,1.91 7.77,1.91 z"
   id="path230"
   inkscape:connector-curvature="0"
   style="fill:#62be6b" />
		<path
   class="st36"
   d="m 133.12,346.05 c 0.7,0.29 1.99,0.63 3.31,0.94 0.11,0.15 0.21,0.31 0.31,0.45 0.91,1.42 5.17,6.62 8.2,7.1 3.67,0.59 8.18,1.83 13.18,1.75 1.35,-0.01 4.14,-0.16 5.45,-0.76 0.36,-0.17 0.69,-0.37 1,-0.59 -0.31,1.05 -1.11,1.87 -1.51,2.23 -0.2,0.06 -0.42,0.1 -0.68,0.09 -1.35,-0.03 -16.7,0.42 -20.61,-3.56 -3.45,-3.53 -7.23,-6.69 -9.17,-7.81 0.17,0.05 0.34,0.09 0.52,0.16 z"
   id="path232"
   inkscape:connector-curvature="0"
   style="opacity:0.7;fill:#a6a6a6" />
		<path
   class="st35"
   d="m 90.07,314.7 c 2.05,-1.98 8.92,-6.44 12.85,-8.99 3.92,-2.55 5.56,-4.46 6.52,-5.33 0.98,-0.85 3.15,-4.88 4.19,-6.88 0.88,-1.66 1.97,-3.49 2.32,-4.06 2.06,0.08 4.94,0 7.44,-0.81 4.42,-1.43 18.17,-3.25 19.4,-2.44 1.23,0.81 5.1,6.44 6.02,6.19 0.94,-0.25 3.13,-2.05 3.48,-0.89 0.36,1.2 1.48,2.78 2.03,2.7 0.56,-0.09 7.86,-0.67 10.92,1.3 3.05,1.96 7.04,5.45 8.77,5.32 1.71,-0.14 12.13,-2.47 15.85,-1.39 3.71,1.09 7.4,3.82 7.15,4.97 -0.25,1.14 -0.02,9.04 -1.26,10.31 -0.76,0.78 -2.05,2.18 -3.19,3.28 0.28,-1.01 1.09,-4.1 0.9,-4.83 0,0 0.63,-5.16 -0.29,-5.95 -0.94,-0.79 -4.3,-2.99 -9.65,-3.02 -5.34,-0.03 -8.04,1.48 -9.56,2.27 0,0 -4.81,1.59 -5.82,2.33 -1.02,0.73 -1.1,1.27 -1.1,1.27 l -1.94,1.19 c 0,0 -3.79,2.06 -4.66,3.16 -0.86,1.1 -1.72,2.57 -1.72,2.57 0,0 -1.4,-0.51 -2.38,-0.55 -0.98,-0.03 -4.39,-0.21 -4.39,-0.21 l -2.29,0.89 2.68,0.72 3.06,1.81 c 0,0 0,2.08 -0.14,2.28 -0.14,0.2 -0.98,2.26 -0.98,2.26 l 0.73,3.1 -0.5,1.1 -4.31,2.04 c 0,0 -3.9,-4.12 -4.65,-4.47 l -2.68,1.72 -3.39,1.07 3.29,1.64 -3.23,5.15 -0.84,3.09 0.39,3.02 2.04,0.46 c 0,0 2.49,1.32 7.31,-0.57 4.83,-1.9 8.8,-2.99 12.28,-1.8 3.46,1.2 8.37,5.79 8.16,7.06 -0.2,1.27 -2.6,7.47 -4.62,9.37 0,0 -0.38,0.74 -1.23,1 0.57,-0.52 1.96,-1.95 1.58,-3.67 0,0 -0.03,-3.91 -2.53,-5.44 -2.49,-1.54 -5.68,-2.04 -9.46,-1.17 -3.78,0.86 -11.17,1.25 -11.77,1.05 0,0 -5.89,-1.13 -7.76,-1.89 -0.18,-0.07 -0.36,-0.11 -0.52,-0.14 -0.25,-0.14 -0.47,-0.25 -0.65,-0.33 -1.6,-0.65 -4.21,-1.18 -4.74,-1.4 -0.54,-0.22 -9.17,-2.04 -9.17,-2.04 l -7.06,-3.38 c 0,0 -3.41,1.74 -4.54,1.18 -1.13,-0.55 -6.55,-8.48 -7.8,-7.95 -1.26,0.53 -3.61,0.94 -5.04,0.35 -1.42,-0.57 -1.82,-1.14 -2.39,-0.76 -0.57,0.39 -6.8,3.18 -7.55,2.46 -0.75,-0.72 -4.54,-4.44 -4.54,-4.44 0,0 4.59,-5.76 5.64,-7.21 1.08,-1.42 3.29,-5.69 5.34,-7.67 z"
   id="path234"
   inkscape:connector-curvature="0"
   style="fill:#62be6b" />
		<path
   class="st35"
   d="m 81.45,320.77 c 2.97,-3.49 6.32,-7.12 8.82,-9.95 2.5,-2.84 13.07,-7.62 13.07,-7.62 0,0 4.81,-3.67 9.93,-13.98 0,0 1.08,0.16 2.68,0.22 -0.35,0.57 -1.44,2.41 -2.32,4.06 -1.04,1.99 -3.21,6.03 -4.19,6.88 -0.97,0.86 -2.6,2.78 -6.52,5.33 -3.92,2.55 -10.8,7.02 -12.85,8.99 -2.05,1.98 -4.25,6.24 -5.3,7.69 -1.05,1.44 -5.64,7.21 -5.64,7.21 l -2.78,0.43 c -0.01,0 2.14,-5.79 5.1,-9.26 z"
   id="path236"
   inkscape:connector-curvature="0"
   style="fill:#62be6b" />
		<path
   class="st37"
   d="m 79.13,329.6 c 0,0 3.79,3.72 4.54,4.44 0.75,0.72 6.98,-2.07 7.55,-2.46 0.57,-0.38 0.97,0.18 2.39,0.76 1.43,0.59 3.78,0.18 5.04,-0.35 1.25,-0.53 6.68,7.39 7.8,7.95 1.13,0.56 4.54,-1.18 4.54,-1.18 l 7.06,3.38 c 0,0 8.63,1.83 9.17,2.04 0.53,0.22 3.14,0.74 4.74,1.4 0.18,0.08 0.4,0.19 0.65,0.33 0.17,0.03 0.34,0.07 0.52,0.14 1.87,0.76 7.76,1.89 7.76,1.89 0.59,0.2 7.99,-0.2 11.77,-1.05 3.78,-0.86 6.96,-0.36 9.46,1.17 2.5,1.53 2.53,5.44 2.53,5.44 0.38,1.73 -1,3.16 -1.58,3.67 0.85,-0.26 1.23,-1 1.23,-1 2.01,-1.9 4.41,-8.1 4.62,-9.37 0.13,-0.78 -1.71,-2.84 -3.95,-4.58 0.46,0.81 0.87,1.64 1.3,2.44 0.38,0.68 1.03,1.62 0.93,2.45 -0.11,0.87 -0.97,1.63 -1.45,2.29 -0.12,0.16 -0.37,0.17 -0.5,0 -0.76,-0.96 -1.43,-1.98 -2.26,-2.92 -1.32,-1.51 -2.94,-1.56 -4.81,-1.45 -3.26,0.18 -6.56,-0.04 -9.82,0.04 -1.29,0.03 -2.52,0.08 -3.78,0.32 -0.81,0.16 -2.13,0.56 -2.95,0.18 -1.55,-0.75 -2.71,-2.71 -2.58,-4.42 l -0.33,-2.52 0.84,-3.09 3.23,-5.15 -3.29,-1.64 3.39,-1.07 2.68,-1.72 c 0.75,0.35 4.65,4.47 4.65,4.47 l 4.31,-2.04 0.5,-1.1 -0.73,-3.1 c 0,0 0.84,-2.06 0.98,-2.26 0.14,-0.2 0.14,-2.28 0.14,-2.28 l -3.06,-1.81 -2.68,-0.72 2.29,-0.89 c 0,0 3.41,0.18 4.39,0.21 0.97,0.03 2.38,0.55 2.38,0.55 0,0 0.86,-1.47 1.72,-2.57 0.87,-1.11 4.66,-3.16 4.66,-3.16 l 1.94,-1.19 c 0,0 0.08,-0.54 1.1,-1.27 1.02,-0.73 5.82,-2.33 5.82,-2.33 1.52,-0.79 4.21,-2.29 9.56,-2.27 5.35,0.03 8.72,2.23 9.65,3.02 0.92,0.79 0.29,5.95 0.29,5.95 0.19,0.73 -0.62,3.82 -0.9,4.83 0.73,-0.71 1.53,-1.55 2.22,-2.27 -0.09,-1.05 -0.03,-2.1 0.04,-3.18 0.14,-2.01 0.98,-5.61 -1.18,-6.63 -1.86,-0.88 -4.02,-1.48 -5.97,-2.15 -2.48,-0.86 -4.88,-1.22 -7.49,-0.94 -4.25,0.46 -7.9,2.56 -11.8,4.06 -1.45,0.56 -2.72,-0.02 -4.1,-0.5 -1.96,-0.69 -4.1,-0.68 -6.08,-1.29 -0.25,-0.08 -0.25,-0.48 0,-0.57 1.9,-0.73 3.76,-1.53 5.74,-2.04 2.17,-0.57 4.09,-0.12 6.26,-0.17 1.01,-0.03 2.04,-0.55 2.97,-0.87 1.09,-0.38 2.19,-0.7 3.33,-1.01 0.04,-0.01 0.09,-0.03 0.14,-0.03 -1.24,0.21 -2.19,0.37 -2.6,0.41 -1.72,0.13 -5.72,-3.36 -8.77,-5.32 -3.06,-1.97 -10.36,-1.39 -10.92,-1.3 -0.55,0.08 -1.68,-1.5 -2.03,-2.7 -0.36,-1.17 -2.55,0.64 -3.48,0.89 -0.92,0.25 -4.79,-5.37 -6.02,-6.19 -1.23,-0.81 -14.98,1.01 -19.4,2.44 -2.5,0.81 -5.39,0.89 -7.44,0.81 -0.35,0.57 -1.44,2.41 -2.32,4.06 -1.04,1.99 -3.21,6.03 -4.19,6.88 -0.97,0.86 -2.6,2.78 -6.52,5.33 -3.92,2.55 -10.8,7.02 -12.85,8.99 -2.05,1.98 -4.25,6.24 -5.3,7.69 -1.1,1.43 -5.69,7.2 -5.69,7.2 z m 59.62,-16.38 c -0.56,1.08 -1.25,2.03 -1.92,3.04 -0.55,0.86 -0.48,1.71 -1.43,2.29 -1.04,0.63 -2.48,0.88 -3.63,1.26 -1.49,0.49 -3,0.95 -4.52,1.37 -0.38,0.11 -0.6,-0.38 -0.25,-0.57 1.69,-0.92 3.57,-2.08 4.42,-3.87 0.43,-0.92 0.41,-2.11 0.56,-3.1 0.2,-1.3 0.38,-2.62 0.55,-3.93 0.21,-1.57 0.08,-2.61 1.58,-3.51 1.06,-0.65 2.33,-0.77 3.53,-1.1 -0.17,-0.03 -0.33,-0.06 -0.49,-0.08 -1.54,0.35 -3.14,0.44 -4.71,0.69 -1.49,0.25 -3.02,0.76 -3.79,2.17 -0.54,0.98 -0.6,2.19 -0.79,3.28 -0.33,1.82 0.4,4.25 -0.53,5.9 -0.44,0.78 -1.17,1.16 -1.97,1.44 -0.74,0.38 -1.54,0.66 -2.06,0.89 -2.71,1.16 -5.62,1.84 -8.4,2.83 -1.57,0.56 -2.7,1.36 -4.41,0.92 -2.1,-0.54 -3.88,-2.01 -5.89,-2.78 -2.51,-0.95 -5.61,-0.17 -8.18,0.12 -2.61,0.3 -5.27,0.1 -7.84,0.65 -0.3,0.07 -0.47,-0.38 -0.23,-0.55 3.61,-2.58 7.17,-5.25 10.77,-7.87 0.78,-0.57 1.6,-1.08 2.32,-1.72 0.56,-0.51 1.04,-1.1 1.62,-1.59 0.9,-0.9 1.95,-1.55 3.41,-1.59 3.52,-0.09 7.06,-0.26 10.58,-0.47 1.79,-1.32 3.03,-3.42 5.5,-3.43 2.78,0 5.5,0.32 8.24,0.09 -0.44,-0.06 -0.88,-0.12 -1.3,-0.17 -1,-0.11 -2.03,0.09 -2.99,-0.11 -0.53,-0.11 -1.01,-0.59 -1.39,-0.93 -0.8,-0.7 -1.62,-1.37 -2.45,-2.04 -1.91,-1.52 -3.78,-3.38 -6.01,-4.38 -0.29,-0.13 -0.23,-0.54 0.08,-0.6 1.52,-0.31 3.06,-0.54 4.61,-0.74 -0.95,-0.12 -1.93,-0.17 -2.87,-0.15 -0.26,0 -0.48,-0.26 -0.3,-0.49 0.77,-1 1.38,-2.16 2.29,-3.03 0.97,-0.91 2.11,-1.22 3.38,-1.48 3.32,-0.68 6.78,-1.11 10.13,-1.65 2.41,-0.37 5.63,-1.19 8.02,-0.32 1.11,0.41 1.9,1.58 2.62,2.45 0.94,1.13 1.78,2.33 2.42,3.65 0.11,0.2 -0.1,0.47 -0.32,0.43 -2.72,-0.58 -4.5,-3.02 -7.47,-2.47 -1.59,0.3 -3.09,1.05 -4.63,1.47 -0.62,0.17 -1.25,0.34 -1.87,0.52 0.11,-0.01 0.23,-0.01 0.33,-0.03 1.89,-0.17 4.02,-0.4 5.87,0.11 1.49,0.41 3.06,1.26 4.32,2.28 0.76,0.25 1.56,0.49 2.38,0.58 2.04,0.24 4.26,-0.33 6.28,-0.54 0.08,-0.01 0.17,0.01 0.22,0.06 1.56,-0.26 3.12,-0.51 4.72,-0.49 2.58,0.03 5.24,1.67 7.29,3.11 0.23,0.17 0.11,0.51 -0.15,0.56 -2.89,0.49 -5.74,0.95 -8.57,1.68 -1.16,0.3 -2.29,0.65 -3.42,1.03 -0.25,0.13 -0.5,0.26 -0.75,0.4 -1.69,0.92 -3.72,1.67 -5.2,2.94 1.38,0.93 3.09,1.37 4.63,1.98 1.84,0.74 3.69,1.38 5.43,2.36 0.23,0.13 0.12,0.56 -0.14,0.56 -1.28,0.01 -2.52,-0.27 -3.8,-0.31 -1.63,-0.08 -3.27,0 -4.89,0.12 -2.84,0.15 -7.09,0.05 -8.54,2.86 z m -55.58,14.84 c 0.28,-0.11 0.54,-0.22 0.82,-0.33 0.02,-0.08 0.07,-0.15 0.17,-0.2 3.53,-1.49 7.05,-2.96 10.72,-4.02 2.72,-0.79 5.8,-1.65 8.65,-1.53 1.25,0.04 2.11,0.81 3.01,1.59 1.24,1.07 2.74,1.63 4.29,2.08 2.22,0.65 4.56,1.05 6.55,2.25 2.58,-1.27 5.03,-2.82 7.7,-3.92 1.65,-0.69 3.39,-1.11 5.18,-1.18 1.8,-0.08 3.61,0.34 5.4,0.4 2.09,0.07 3.85,-0.64 5.54,-1.82 0.98,-0.68 2.3,-1.77 3.57,-1.73 2.3,0.06 4.51,2.63 6.01,4.13 0.17,0.18 0.01,0.47 -0.2,0.5 -2.45,0.43 -4.88,-0.37 -7.33,-0.14 -1.43,0.14 -2.58,1.24 -3.76,1.93 -1.35,0.79 -2.81,1.36 -3.99,2.41 1.13,0.41 2.32,0.67 3.28,1.42 0.14,0.1 0.17,0.29 0.07,0.43 -1.4,1.83 -2.89,3.6 -4.45,5.31 -0.39,0.43 -0.79,0.85 -1.18,1.27 -0.37,0.39 0.39,1.05 0.56,1.33 0.62,0.9 1.16,1.87 1.75,2.78 0.12,0.19 0.05,0.47 -0.2,0.5 -2.09,0.28 -4.16,-0.18 -6.24,-0.07 -1.4,0.07 -2.9,0.32 -4.18,-0.45 -3.14,-1.88 -5.44,-4.88 -7.97,-7.48 -0.08,-0.07 -0.1,-0.22 -0.05,-0.31 0.86,-1.69 2.2,-2.97 3.5,-4.3 -1.18,0.58 -2.39,1.1 -3.61,1.59 -1.65,1.16 -3.38,2.21 -5.1,3.27 -0.17,0.11 -0.38,0.08 -0.47,-0.12 -0.49,-1.02 -0.62,-2.09 -0.97,-3.15 -0.59,-1.8 -3.66,-1.2 -5.08,-1.07 -2.95,0.26 -5.71,1.26 -8.6,1.75 -0.86,0.15 -1.66,0.1 -2.4,-0.37 -0.41,-0.26 -0.76,-0.63 -1.16,-0.91 -0.59,-0.44 -1.73,0.39 -2.35,0.55 -0.89,0.24 -2.01,-0.17 -2.86,-0.42 -1.52,-0.45 -2.96,-1.13 -4.54,-1.37 -0.29,-0.05 -0.37,-0.48 -0.08,-0.6 z"
   id="path238"
   inkscape:connector-curvature="0"
   style="opacity:0.3;fill:#5bb353" />
	</g>
	<g
   class="st4"
   id="g258"
   style="opacity:0.5">
		<path
   class="st38"
   d="m 157.81,304.02 c 1.28,-1.01 2.71,-1.78 4.1,-2.64 2.57,-0.43 5.12,0.38 7.67,0.69 0.04,0.01 0.08,0.04 0.08,0.06 -1.32,0.09 -2.68,-0.2 -4.01,-0.1 -0.41,0.02 -0.81,0.07 -1.22,0.12 -0.67,0.06 -1.33,0.15 -1.99,0.33 -0.78,0.2 -1.53,0.52 -2.26,0.89 -1.29,0.59 -2.57,1.19 -3.82,1.87 0.49,-0.42 0.96,-0.82 1.45,-1.22 z"
   id="path242"
   inkscape:connector-curvature="0"
   style="fill:#d1d1d1" />
		<path
   class="st38"
   d="m 144.81,297.31 c -1.23,-0.2 -2.34,-0.68 -3.39,-1.29 -1.03,-0.73 -2.03,-1.53 -2.95,-2.4 2.23,1.09 4.09,2.36 6.72,2.72 1.42,0.19 2.84,0.02 4.27,-0.05 0.83,-0.04 2.44,0.12 3.41,-0.12 -0.25,0.17 -0.51,0.31 -0.79,0.42 -0.36,0.08 -0.69,0.14 -0.98,0.23 -0.36,0.11 -0.72,0.19 -1.08,0.27 -1.17,0.15 -2.37,0.16 -3.33,0.23 -0.63,0.03 -1.25,0.03 -1.88,-0.01 z"
   id="path244"
   inkscape:connector-curvature="0"
   style="fill:#d1d1d1" />
		<path
   class="st38"
   d="m 129.23,319.4 c -2.07,1.12 -4.1,2.34 -6.14,3.51 -0.88,0.51 -1.69,1.08 -2.55,1.61 -0.02,0.01 -0.07,0.04 -0.09,0.06 1.5,-1.28 3.16,-2.32 4.88,-3.33 1.37,-0.82 3.48,-1.67 4.34,-3.09 0.62,-1.03 0.56,-3.32 0.63,-4.51 0.1,-1.41 0.34,-2.81 0.49,-4.21 0.12,-1.05 0.15,-1.81 0.88,-2.59 0.04,-0.04 0.08,-0.08 0.14,-0.11 0.5,-0.2 1.01,-0.41 1.52,-0.59 1.4,-0.51 2.9,-0.81 4.32,-1.29 -0.29,0.16 -0.56,0.32 -0.79,0.47 -1.23,0.76 -2.45,1.47 -3.63,2.29 -1.04,0.73 -0.91,3.87 -1.07,5.02 -0.17,1.23 -0.31,2.36 -0.72,3.52 -0.54,1.52 -1.24,2.46 -2.21,3.24 z"
   id="path246"
   inkscape:connector-curvature="0"
   style="fill:#d1d1d1" />
		<path
   class="st38"
   d="m 122.76,303.53 c -0.39,-0.13 -0.98,-0.41 -1.4,-0.36 -1.59,0.23 -2.42,1.81 -3.61,2.69 -1.1,0.47 -2.25,0.76 -3.44,0.95 -1.1,0.08 -2.21,0.05 -3.1,0.1 -1.1,0.08 -2.19,0.12 -3.28,0.13 3.96,-0.56 8.48,-0.28 11.3,-3.54 0.47,-0.55 0.97,-1.48 1.84,-1.21 0.66,0.2 1.3,0.45 1.96,0.68 0.7,0.25 1.61,0.92 2.39,1.08 -0.92,0.04 -1.8,-0.23 -2.66,-0.52 z"
   id="path248"
   inkscape:connector-curvature="0"
   style="fill:#d1d1d1" />
		<path
   class="st38"
   d="m 101.87,328.05 c 0.6,-0.22 1.18,-0.45 1.77,-0.67 0.14,0.08 0.29,0.17 0.42,0.26 0.18,0.11 0.36,0.24 0.54,0.37 -0.11,0.04 -0.23,0.08 -0.33,0.12 -0.12,0.04 0.03,0.2 0.12,0.17 0.14,-0.05 0.28,-0.09 0.43,-0.14 0.5,0.35 1,0.69 1.52,1 0.09,0.07 0.21,-0.01 0.11,-0.1 -0.42,-0.36 -0.88,-0.68 -1.33,-0.99 0.62,-0.2 1.26,-0.39 1.9,-0.57 0.44,0.23 0.88,0.45 1.33,0.66 0.18,0.07 0.25,-0.12 0.09,-0.21 -0.35,-0.2 -0.69,-0.37 -1.05,-0.57 0.6,-0.17 1.2,-0.36 1.79,-0.55 0.76,0.47 1.5,0.98 2.22,1.56 0.03,0.02 0.07,0.04 0.11,0.04 -0.14,-0.25 -0.28,-0.51 -0.4,-0.76 -0.38,-0.37 -0.81,-0.72 -1.27,-1.04 0.58,-0.2 1.15,-0.41 1.71,-0.62 0.07,-0.03 -0.02,-0.09 -0.07,-0.08 -0.59,0.22 -1.21,0.4 -1.81,0.58 -0.47,-0.31 -0.97,-0.6 -1.5,-0.85 0.87,-0.33 1.74,-0.66 2.61,-0.98 0.06,-0.02 -0.03,-0.11 -0.07,-0.09 -0.96,0.31 -1.9,0.61 -2.85,0.92 -1.36,-0.62 -2.82,-1.02 -4.09,-1.09 -0.07,0 -0.04,0.07 0.01,0.09 1.2,0.31 2.32,0.73 3.39,1.23 -0.63,0.2 -1.24,0.42 -1.85,0.65 -0.7,-0.31 -1.5,-0.68 -1.84,-1.12 -0.01,-0.01 -0.06,-0.01 -0.04,0.01 0.35,0.57 1.02,0.91 1.63,1.21 -0.51,0.19 -1.03,0.39 -1.53,0.6 -0.58,-0.31 -1.18,-0.56 -1.75,-0.9 -0.06,-0.04 -0.15,0.02 -0.08,0.07 0.53,0.33 1.07,0.6 1.62,0.92 -0.53,0.21 -1.07,0.44 -1.59,0.7 -0.18,0.05 0.02,0.2 0.13,0.17 z m 4.18,-1.33 c -0.09,-0.05 -0.21,-0.1 -0.33,-0.15 0.59,-0.23 1.18,-0.45 1.77,-0.68 0.5,0.25 0.98,0.52 1.46,0.81 -0.63,0.18 -1.26,0.36 -1.88,0.53 -0.34,-0.18 -0.68,-0.35 -1.02,-0.51 z m -2.17,0.57 c 0.53,-0.2 1.04,-0.41 1.57,-0.61 0.41,0.22 0.82,0.44 1.24,0.66 -0.62,0.18 -1.23,0.37 -1.82,0.58 -0.32,-0.2 -0.63,-0.4 -0.94,-0.6 -0.02,-0.02 -0.03,-0.03 -0.05,-0.03 z"
   id="path250"
   inkscape:connector-curvature="0"
   style="fill:#d1d1d1" />
		<path
   class="st38"
   d="m 122.88,336.36 c 0.31,-0.02 0.6,-0.04 0.9,-0.07 -0.12,0.21 -0.24,0.43 -0.35,0.66 -0.03,0.07 0.09,0.12 0.14,0.06 0.14,-0.24 0.3,-0.48 0.44,-0.73 0.95,-0.06 1.9,-0.12 2.85,-0.15 -0.33,0.64 -0.68,1.27 -0.99,1.92 -0.65,-0.01 -1.28,-0.01 -1.92,-0.04 -0.15,-0.01 -0.06,0.18 0.05,0.19 0.59,0.04 1.17,0.07 1.76,0.07 -0.14,0.31 -0.27,0.63 -0.39,0.94 -0.02,0.09 0.14,0.17 0.18,0.08 0.14,-0.34 0.3,-0.68 0.44,-1.02 0.52,0.01 1.04,0 1.56,0 -0.24,0.51 -0.47,1.02 -0.71,1.54 -0.04,0.08 0.15,0.18 0.2,0.08 0.26,-0.54 0.5,-1.08 0.75,-1.62 0.01,0 0.02,0 0.04,0 0.87,0 1.8,0.18 2.67,-0.02 0.02,-0.01 0,-0.03 -0.02,-0.02 -0.83,0.14 -1.74,-0.01 -2.62,-0.1 0.14,-0.3 0.28,-0.61 0.45,-0.91 0.2,-0.38 0.42,-0.74 0.64,-1.11 0.59,0.01 1.18,0.03 1.77,0.07 0.06,0 0.04,-0.06 -0.01,-0.08 -0.53,-0.09 -1.09,-0.16 -1.64,-0.21 0.24,-0.4 0.49,-0.8 0.69,-1.23 0.01,-0.01 -0.02,-0.03 -0.03,-0.01 -0.24,0.43 -0.51,0.83 -0.78,1.24 -0.61,-0.05 -1.21,-0.07 -1.82,-0.07 0.15,-0.38 0.3,-0.73 0.43,-1.11 0,0 -0.01,-0.01 -0.02,0 -0.15,0.38 -0.32,0.74 -0.52,1.12 -0.94,0 -1.9,0.06 -2.84,0.16 0.19,-0.33 0.35,-0.68 0.49,-1.03 0,-0.02 -0.04,-0.05 -0.05,-0.02 -0.17,0.37 -0.4,0.72 -0.63,1.06 -0.4,0.05 -0.79,0.09 -1.18,0.15 -0.16,0.02 -0.04,0.21 0.07,0.21 z m 4.11,-0.23 c 0.6,-0.02 1.2,-0.02 1.81,-0.02 -0.24,0.34 -0.46,0.68 -0.66,1.05 -0.17,0.32 -0.34,0.64 -0.5,0.95 -0.24,-0.02 -0.5,-0.04 -0.73,-0.04 -0.27,-0.01 -0.55,-0.01 -0.81,-0.01 0.28,-0.66 0.6,-1.29 0.89,-1.93 z"
   id="path252"
   inkscape:connector-curvature="0"
   style="fill:#d1d1d1" />
		<path
   class="st38"
   d="m 88.95,325.22 c 0.69,-0.26 1.37,-0.52 2.06,-0.75 0.62,-0.15 1.22,-0.3 1.78,-0.51 0.25,-0.06 0.5,-0.11 0.76,-0.15 -0.87,0.65 -2.1,0.96 -3.06,1.41 -1.68,0.79 -3.4,1.5 -5.22,1.9 -0.11,0.02 -0.25,-0.03 -0.37,-0.11 1.32,-0.66 2.66,-1.27 4.05,-1.79 z"
   id="path254"
   inkscape:connector-curvature="0"
   style="fill:#d1d1d1" />
		<path
   class="st38"
   d="m 113.93,340.22 c -0.73,-0.33 -1.4,-0.74 -2.1,-1.19 -0.99,-0.65 -1.97,-1.39 -2.92,-2.14 1.36,0.57 2.77,1.05 4.03,1.85 0.82,0.52 1.6,1.08 2.35,1.66 -0.44,-0.04 -0.91,-0.11 -1.36,-0.18 z"
   id="path256"
   inkscape:connector-curvature="0"
   style="fill:#d1d1d1" />
	</g>
	<path
   class="st39"
   d="m 167.12,303.51 c 1.93,0.09 3.89,-0.25 5.72,-0.86 1.97,-0.65 3.83,-1.44 5.88,-1.85 1.85,-0.39 3.71,-0.68 5.57,-1.07 0,0 0.01,0 0.01,0 2.06,-0.25 4.24,-0.14 6.17,0.52 1.89,0.66 4.79,1.78 5.66,3.73 0.66,1.53 0.61,4.39 0.21,5.97 -0.02,0.11 -0.18,0.01 -0.22,-0.05 -0.47,-1.26 -0.7,-2.56 -1.24,-3.83 -0.64,-1.5 -3.8,-2.53 -5.26,-2.81 -2.94,-0.55 -5.33,-1.85 -8.4,-1.35 -2.99,0.48 -5.73,1.65 -8.59,2.54 -0.6,0.19 -1.23,0.25 -1.86,0.22 -1.21,-0.39 -2.46,-0.71 -3.65,-1.16 z"
   id="path260"
   inkscape:connector-curvature="0"
   style="fill:#5bb353" />
	<path
   class="st39"
   d="m 159.76,299.42 c -2.11,0.11 -4.12,0.64 -6.16,1.09 -3.69,0.81 -7.44,1.16 -11.17,1.69 -1.45,-1.64 -2.93,-3.23 -4.35,-4.87 2.08,0.49 4.16,0.96 6.3,0.99 0.9,0.01 1.8,-0.08 2.7,-0.19 0.7,-0.06 1.4,-0.16 2.11,-0.3 0.49,-0.07 0.96,-0.14 1.44,-0.19 1.97,-0.23 3.94,-0.42 5.92,-0.54 0.63,0.19 1.28,0.33 1.77,0.49 1.37,0.44 2.73,1.09 4.02,1.83 -0.86,-0.03 -1.72,-0.04 -2.58,0 z"
   id="path262"
   inkscape:connector-curvature="0"
   style="fill:#5bb353" />
	<path
   class="st39"
   d="m 132.09,292.15 c -1.57,0.54 -3.12,0.73 -4.78,0.89 -0.26,0.01 -0.5,0.02 -0.75,0.03 -1.26,0.04 -2.49,0.09 -3.73,0.22 -0.28,0.02 -1.03,0.16 -1.68,0.21 -0.02,-0.05 -0.01,-0.1 0.05,-0.15 0.5,-0.44 1.1,-0.76 1.65,-1.11 0.64,-0.32 1.27,-0.67 1.87,-1.07 2.31,-0.62 4.61,-1.22 6.96,-1.69 3.4,-0.69 6.73,-0.53 10.17,-0.72 0.44,0.47 0.88,0.95 1.3,1.45 0.25,0.31 0.5,0.6 0.73,0.92 0.37,0.46 0.72,0.94 1.05,1.43 -1.37,-1.03 -3.39,-1.58 -4.92,-2.15 -0.77,-0.3 -2.82,0.39 -3.69,0.57 -1.43,0.3 -2.83,0.7 -4.23,1.17 z"
   id="path264"
   inkscape:connector-curvature="0"
   style="fill:#5bb353" />
	<path
   class="st39"
   d="m 102.94,311.83 c 0.62,-0.37 1.24,-0.77 1.86,-1.15 0.69,-0.31 1.37,-0.61 2.02,-0.94 2.39,-1.25 5.26,-1.25 7.92,-1.56 1.66,-0.2 2.67,-0.06 4.02,-1.24 0.52,-0.45 1.11,-1 1.72,-1.44 1.46,-0.1 2.91,-0.17 4.33,-0.07 1.34,0.1 2.65,0.28 3.98,0.33 -1.49,0.44 -3.05,0.8 -4.53,1.13 -0.95,0.21 -2.31,0.46 -2.74,1.47 -0.55,1.25 -0.64,2.65 -0.85,3.97 -0.09,0.59 0.06,1.6 0,2.43 0,-0.01 0,-0.01 -0.01,-0.01 -2.67,-1.06 -5.25,-2.23 -7.98,-3.06 -0.01,-0.01 -0.03,-0.02 -0.04,-0.02 -1.13,-0.74 -1.82,-1.11 -3.16,-0.76 -2.74,0.73 -5.52,1.13 -8.24,1.88 0.57,-0.3 1.15,-0.62 1.7,-0.96 z"
   id="path266"
   inkscape:connector-curvature="0"
   style="fill:#5bb353" />
	<path
   class="st39"
   d="m 137.6,325.34 c -2.27,0.33 -4.57,0.4 -6.84,0.76 -3.85,0.6 -7.74,0.8 -11.6,1.35 1.04,-0.44 2.12,-0.8 3.2,-1.19 1.7,-0.6 3.31,-1.4 5.04,-1.94 0.15,-0.05 0.31,-0.09 0.47,-0.13 2.12,0.01 4.23,0.07 6.35,0.24 1.32,0.11 2.6,0.28 3.88,0.54 0.27,0.06 0.54,0.11 0.81,0.16 -0.44,0.08 -0.87,0.15 -1.31,0.21 z"
   id="path268"
   inkscape:connector-curvature="0"
   style="fill:#5bb353" />
	<path
   class="st39"
   d="m 151.43,341.69 c 2.92,-0.59 5.81,-1.08 8.77,-1.02 0.89,0.28 1.75,0.65 2.57,1.1 0.72,0.79 1.34,1.64 1.89,2.53 0.2,0.79 0.39,1.57 0.62,2.34 -1.12,-0.95 -2.26,-1.87 -3.49,-2.68 -1.74,-1.17 -4.11,-0.82 -6.11,-0.78 -1.88,0.03 -3.75,0.01 -5.62,0.1 -1.75,0.07 -3.63,0.5 -5.38,0.31 2.3,-0.42 4.45,-1.43 6.75,-1.9 z"
   id="path270"
   inkscape:connector-curvature="0"
   style="fill:#5bb353" />
	<path
   class="st39"
   d="m 93.17,325.61 c 2.17,-0.75 4.34,-1.34 6.62,-1.69 1.24,-0.19 2.6,-0.23 3.85,-0.51 0.15,0.06 0.3,0.11 0.45,0.16 1.04,0.5 2.04,1.06 3.02,1.66 1.28,0.77 2.55,1.74 3.93,2.32 1.66,0.7 3.44,0.91 5.22,1.13 -0.81,0.18 -1.64,0.22 -2.45,0.43 -0.97,0.26 -1.3,0.61 -2.2,0.34 -2.66,-0.74 -4.53,-3.12 -7.58,-2.72 -1.37,0.18 -2.73,0.43 -4.1,0.61 -1.11,0.15 -2.39,0.65 -3.5,0.6 -1.13,-0.04 -2.16,-0.57 -3.32,-0.62 -1.43,-0.07 -2.84,0.14 -4.27,0.17 -0.09,0 -0.21,-0.06 -0.31,-0.14 1.54,-0.6 3.07,-1.21 4.64,-1.74 z"
   id="path272"
   inkscape:connector-curvature="0"
   style="fill:#5bb353" />
	<path
   class="st37"
   d="m 85.07,321.29 c 1.55,-2.7 2.96,-5.19 5.22,-7.33 2.65,-2.53 6,-4.2 9.09,-6.07 2.93,-1.78 5.53,-3.95 8.07,-6.22 2.48,-2.2 4.22,-5.4 5.77,-8.31 0.02,-0.02 0.05,0 0.04,0.02 -1.08,2.49 -2.3,5.02 -3.91,7.23 -0.97,1.32 -2.51,2.33 -3.73,3.41 -1.23,1.08 -2.61,1.98 -3.96,2.92 -3.23,2.26 -6.8,3.93 -9.95,6.36 -2.83,2.18 -4.45,5.22 -6.46,8.09 -0.05,0.08 -0.22,-0.02 -0.18,-0.1 z"
   id="path274"
   inkscape:connector-curvature="0"
   style="opacity:0.3;fill:#5bb353" />
</g>
<path
   class="st36"
   d="m 29.834444,78.722821 c 0,0 -3.54,1.77 -1.93,2.58 1.61,0.8 32.39,10.98 32.39,10.98 0,0 1.38,1.080001 3.48,0.27 2.09,-0.8 22.02,-13.51 22.02,-13.51 0,0 2.58,-1.12 2.09,-2.09 -0.48,-0.96 -11.27,-2.11 -11.27,-2.11 z"
   id="path278"
   inkscape:connector-curvature="0"
   style="opacity:0.7;fill:#a6a6a6" />




























</svg>