<?xml version="1.0" encoding="UTF-8" standalone="no"?>
<!-- Generator: Adobe Illustrator 23.1.0, SVG Export Plug-In . SVG Version: 6.00 Build 0)  -->

<svg
   xmlns:dc="http://purl.org/dc/elements/1.1/"
   xmlns:cc="http://creativecommons.org/ns#"
   xmlns:rdf="http://www.w3.org/1999/02/22-rdf-syntax-ns#"
   xmlns:svg="http://www.w3.org/2000/svg"
   xmlns="http://www.w3.org/2000/svg"
   xmlns:sodipodi="http://sodipodi.sourceforge.net/DTD/sodipodi-0.dtd"
   xmlns:inkscape="http://www.inkscape.org/namespaces/inkscape"
   version="1.1"
   id="Layer_1"
   x="0px"
   y="0px"
   viewBox="0 0 151.1811 151.18109"
   xml:space="preserve"
   sodipodi:docname="2.1.4.svg"
   width="40mm"
   height="40mm"
   inkscape:version="0.92.4 (5da689c313, 2019-01-14)"><metadata
   id="metadata4529"><rdf:RDF><cc:Work
       rdf:about=""><dc:format>image/svg+xml</dc:format><dc:type
         rdf:resource="http://purl.org/dc/dcmitype/StillImage" /><dc:title></dc:title></cc:Work></rdf:RDF></metadata><defs
   id="defs4527" /><sodipodi:namedview
   pagecolor="#ffffff"
   bordercolor="#666666"
   borderopacity="1"
   objecttolerance="10"
   gridtolerance="10"
   guidetolerance="10"
   inkscape:pageopacity="0"
   inkscape:pageshadow="2"
   inkscape:window-width="1024"
   inkscape:window-height="709"
   id="namedview4525"
   showgrid="false"
   units="mm"
   inkscape:zoom="1.1213358"
   inkscape:cx="129.06494"
   inkscape:cy="121.15453"
   inkscape:window-x="0"
   inkscape:window-y="30"
   inkscape:window-maximized="1"
   inkscape:current-layer="Layer_1" />
<style
   type="text/css"
   id="style2">
	.st0{fill:#67A8DB;}
	.st1{opacity:0.4;fill:#327CC0;}
	.st2{fill:#5299D3;}
	.st3{opacity:0.4;fill:#67A8DB;}
	.st4{opacity:0.5;}
	.st5{fill:#5CA1D7;}
	.st6{opacity:0.6;fill:#93C2E8;}
	.st7{opacity:0.6;fill:#67A8DB;}
	.st8{fill:#E76362;}
	.st9{opacity:0.4;fill:#D02527;}
	.st10{fill:#E14949;}
	.st11{opacity:0.4;fill:#E76362;}
	.st12{fill:#E45556;}
	.st13{opacity:0.6;fill:#EF9292;}
	.st14{opacity:0.6;fill:#E76362;}
	.st15{opacity:0.5;fill:#D2EEF9;}
	.st16{opacity:0.4;fill:#0099B0;}
	.st17{fill:#D0D1D1;}
	.st18{opacity:0.4;fill:#036BB1;}
	.st19{opacity:0.5;fill:#B5CCD7;}
	.st20{fill:#ACC1CB;}
	.st21{fill:#FFFFFF;}
	.st22{fill:#DFEFE7;}
	.st23{opacity:0.9;fill:#7ED0E0;}
	.st24{opacity:0.9;fill:#62C2CB;}
	.st25{opacity:0.9;fill:#41B3BF;}
	.st26{fill:#B1C8BC;}
	.st27{fill:#E21E26;}
	.st28{fill:#C1C0C0;}
	.st29{fill:#FCCE08;}
	.st30{opacity:0.7;}
	.st31{fill:#C8C7C6;}
	.st32{opacity:0.9;}
	.st33{fill:#41B3BF;}
	.st34{fill:#E75524;}
	.st35{fill:#62BE6B;}
	.st36{opacity:0.7;fill:#A6A6A6;}
	.st37{opacity:0.3;fill:#5BB353;}
	.st38{fill:#D1D1D1;}
	.st39{fill:#5BB353;}
	.st40{fill:#EDEDED;}
	.st41{fill:#DBDBDB;}
	.st42{fill:#F7F7F7;}
	.st43{fill:#E0E0E0;}
	.st44{fill:#EBEBEB;}
	.st45{fill:#811E18;}
	.st46{fill:#BC2025;}
	.st47{fill:#EB2024;}
	.st48{opacity:0.7;fill:#93CACB;}
	.st49{opacity:0.4;}
	.st50{fill:#919898;}
	.st51{fill:#C2CACB;}
	.st52{opacity:0.4;fill:#82C7DE;}
	.st53{opacity:0.8;fill:#FFFFFF;}
	.st54{opacity:0.5;fill:#FFFFFF;}
	.st55{fill:#FABE79;}
	.st56{fill:#F6AB62;}
	.st57{opacity:0.6;fill:#AE7B47;}
	.st58{fill:#B48049;}
	.st59{fill:#9B703F;}
	.st60{opacity:0.3;fill:#AE7B47;}
	.st61{opacity:0.3;}
	.st62{fill:#9C703E;}
	.st63{opacity:0.3;fill:#9B703F;}
	.st64{opacity:0.5;fill:#F6AB62;}
	.st65{opacity:0.4;fill:#FABE79;}
	.st66{fill:#DBDADA;}
	.st67{opacity:0.4;fill:#B2B4B7;}
	.st68{opacity:0.2;fill:#C1C1B7;}
	.st69{fill:#C2C2C2;}
	.st70{opacity:0.5;fill:#C2C2C2;}
	.st71{fill:#E5E1C6;}
	.st72{opacity:0.5;fill:#D4D1B8;}
	.st73{fill:#E3E3E3;}
	.st74{opacity:0.8;fill:#D4D1B8;}
	.st75{fill:#D4D1B8;}
	.st76{opacity:0.5;fill:#D0B9AD;}
	.st77{opacity:0.4;fill:#D4D1B8;}
	.st78{fill:#D2D1CE;}
	.st79{opacity:0.4;fill:#D2D1CE;}
	.st80{opacity:0.4;fill:#C2C2C2;}
	.st81{fill:#BFC1B8;}
	.st82{fill:#CB484F;}
	.st83{fill:#A7A9A0;}
	.st84{fill:#C3979C;}
	.st85{fill:#C7B88F;}
	.st86{fill:#9ACACB;}
	.st87{fill:#A8A8AB;}
	.st88{opacity:0.6;fill:#BE9C7A;}
	.st89{fill:#A4A391;}
	.st90{opacity:0.6;fill:#C2C2C2;}
	.st91{fill:#789D99;}
	.st92{opacity:0.4;fill:#789D99;}
	.st93{fill:#D1CEB6;}
	.st94{fill:#B8B6A1;}
	.st95{fill:#BAB8A3;}
	.st96{fill:#ABAA97;}
	.st97{fill:#E4E4E2;}
	.st98{opacity:0.6;}
	.st99{fill:#BEA18D;}
	.st100{opacity:0.3;fill:#BEA18D;}
	.st101{opacity:0.2;fill:#BEA18D;}
	.st102{fill:#D9BDA6;}
	.st103{fill:#CCAD93;}
	.st104{fill:#603412;}
	.st105{opacity:0.5;fill:#93816B;}
	.st106{opacity:0.4;fill:#331C0F;}
	.st107{fill:#93816B;}
	.st108{fill:#331C0F;}
	.st109{opacity:0.5;fill:#FFF7EA;}
	.st110{fill:#3F2612;}
	.st111{fill:#D62839;}
	.st112{fill:#F9AE9C;}
	.st113{fill:#4B632D;}
	.st114{opacity:0.5;fill:#86926B;}
	.st115{opacity:0.4;fill:#2E3618;}
	.st116{fill:#86926B;}
	.st117{fill:#2E3618;}
	.st118{opacity:0.5;fill:#F7F9E8;}
	.st119{fill:#34411B;}
	.st120{fill:#D59829;}
	.st121{fill:#FAF39E;}
	.st122{fill:#242424;}
	.st123{fill:#333232;}
	.st124{fill:#5D5D5D;}
	.st125{fill:#161616;}
	.st126{fill:#B3B3B3;}
	.st127{fill:#1A1A1A;}
	.st128{fill:#48893F;}
	.st129{fill:#FBAE1C;}
	.st130{fill:#759C3F;}
	.st131{fill:#56692F;}
	.st132{fill:#CAD631;}
	.st133{opacity:0.7;fill:#A66227;}
	.st134{fill:#BBBBBB;}
	.st135{fill:#A03B22;}
	.st136{fill:#C17529;}
	.st137{fill:#F47B2A;}
	.st138{fill:#792816;}
	.st139{fill:#FFF4EC;}
	.st140{fill:#89361C;}
	.st141{fill:#C3AC9E;}
	.st142{fill:#D3C1B9;}
	.st143{fill:#E2E1D5;}
	.st144{fill:#343225;}
	.st145{fill:#040406;}
	.st146{opacity:0.5;fill:#343225;}
	.st147{fill:#4C4333;}
	.st148{fill:#89877B;}
	.st149{fill:url(#SVGID_3_);}
	.st150{fill:url(#SVGID_4_);}
	.st151{opacity:0.5;fill:url(#SVGID_5_);}
	.st152{fill:url(#SVGID_6_);}
	.st153{fill:url(#SVGID_7_);}
	.st154{fill:url(#SVGID_8_);}
	.st155{fill:url(#SVGID_9_);}
	.st156{fill:url(#SVGID_10_);}
	.st157{opacity:0.3;fill:url(#SVGID_11_);}
	.st158{opacity:0.3;fill:url(#SVGID_12_);}
	.st159{fill:url(#SVGID_13_);}
	.st160{fill:url(#SVGID_14_);}
	.st161{fill:url(#SVGID_15_);}
	.st162{fill:url(#SVGID_16_);}
	.st163{fill:url(#SVGID_17_);}
	.st164{fill:url(#SVGID_18_);}
	.st165{opacity:0.7;fill:url(#SVGID_19_);}
	.st166{fill:url(#SVGID_20_);}
	.st167{filter:url(#Adobe_OpacityMaskFilter);}
	.st168{fill:url(#SVGID_22_);}
	.st169{opacity:0.7;mask:url(#SVGID_21_);fill:url(#SVGID_23_);}
	.st170{fill:url(#SVGID_24_);}
	.st171{opacity:0.5;fill:url(#SVGID_25_);}
	.st172{opacity:0.5;fill:url(#SVGID_26_);}
	.st173{opacity:0.3;fill:url(#SVGID_27_);}
	.st174{filter:url(#Adobe_OpacityMaskFilter_1_);}
	.st175{filter:url(#Adobe_OpacityMaskFilter_2_);}
	.st176{mask:url(#SVGID_28_);fill:url(#SVGID_29_);}
	.st177{fill:url(#SVGID_30_);}
	.st178{filter:url(#Adobe_OpacityMaskFilter_3_);}
	.st179{opacity:0.8;fill:url(#SVGID_32_);}
	.st180{mask:url(#SVGID_31_);}
	.st181{filter:url(#Adobe_OpacityMaskFilter_4_);}
	.st182{filter:url(#Adobe_OpacityMaskFilter_5_);}
	.st183{fill:url(#SVGID_33_);}
	.st184{fill:url(#SVGID_34_);}
	.st185{filter:url(#Adobe_OpacityMaskFilter_6_);}
	.st186{filter:url(#Adobe_OpacityMaskFilter_7_);}
	.st187{mask:url(#SVGID_35_);fill:url(#SVGID_36_);}
	.st188{opacity:0.6;fill:url(#SVGID_37_);}
	.st189{opacity:0.9;fill:url(#SVGID_38_);}
	.st190{fill:url(#SVGID_39_);}
	.st191{opacity:0.3;fill:url(#SVGID_40_);}
	.st192{opacity:0.3;fill:url(#SVGID_41_);}
	.st193{opacity:0.8;fill:url(#SVGID_42_);}
	.st194{fill:#F7DDBC;}
	.st195{fill:#D9B48A;}
	.st196{opacity:0.5;fill:#F7DDBC;}
	.st197{opacity:0.3;fill:#DEAA79;}
	.st198{opacity:0.3;fill:#A47348;}
	.st199{opacity:0.5;fill:#DEAA79;}
	.st200{opacity:0.5;fill:#A47348;}
	.st201{opacity:0.3;fill:#BE905C;}
	.st202{fill:#FFEBD7;}
	.st203{opacity:0.3;fill:#DEB485;}
	.st204{opacity:0.3;fill:#8F622F;}
	.st205{opacity:0.2;fill:#BA915C;}
	.st206{opacity:0.2;fill:#BE905C;}
	.st207{opacity:0.3;fill:#D5AD7A;}
	.st208{opacity:0.5;fill:#D5AD7A;}
	.st209{fill:#17ADE4;}
	.st210{fill:#F99B1C;}
	.st211{opacity:0.2;fill:#D59B29;}
	.st212{opacity:0.5;fill:#D59B29;}
	.st213{opacity:0.5;fill:#B8802B;}
	.st214{fill:#FAD00A;}
	.st215{fill:#EEA320;}
	.st216{opacity:0.4;fill:#FAD00A;}
	.st217{opacity:0.7;fill:#FAD00A;}
	.st218{opacity:0.7;fill:#E7C249;}
	.st219{opacity:0.7;fill:#E9B44A;}
	.st220{fill:#3A5728;}
	.st221{opacity:0.3;fill:#3A5728;}
	.st222{opacity:0.5;fill:#3A5728;}
	.st223{opacity:0.3;fill:#6D9D40;}
	.st224{opacity:0.3;fill:#547B38;}
	.st225{fill:#1C2C17;}
	.st226{opacity:0.3;fill:#1A381C;}
	.st227{fill:#152A17;}
	.st228{fill:#F8BC16;}
	.st229{opacity:0.2;fill:#F8BC16;}
	.st230{opacity:0.1;fill:#F8BC16;}
	.st231{opacity:0.3;fill:#E09426;}
	.st232{opacity:0.3;fill:#D98B28;}
	.st233{fill:#CE6F28;}
	.st234{fill:#A65225;}
	.st235{fill:#D88E28;}
	.st236{fill:#BD6728;}
	.st237{fill:#F09F20;}
	.st238{fill:#D37A28;}
	.st239{fill:#A2C83A;}
	.st240{opacity:0.2;fill:#A2C83A;}
	.st241{fill:#ECACCE;}
	.st242{fill:#CB6BAA;}
	.st243{fill:#FACB84;}
	.st244{fill:#F8BA58;}
	.st245{fill:#F3A846;}
	.st246{opacity:0.5;fill:#FACB84;}
	.st247{opacity:0.5;fill:#F8BA58;}
	.st248{fill:#80461D;}
	.st249{opacity:0.7;fill:#ECACCE;}
	.st250{opacity:0.7;fill:#FACB84;}
	.st251{fill:#356531;}
	.st252{opacity:0.2;fill:#356531;}
	.st253{opacity:0.5;fill:#356531;}
	.st254{fill:#508B3F;}
	.st255{fill:#117A3D;}
	.st256{opacity:0.4;fill:#508B3F;}
	.st257{opacity:0.7;fill:#508B3F;}
	.st258{fill:#467135;}
	.st259{opacity:0.2;fill:#467135;}
	.st260{opacity:0.3;fill:#467135;}
	.st261{fill:#203C1C;}
	.st262{fill:#142716;}
	.st263{fill:#325628;}
	.st264{fill:#193019;}
	.st265{fill:#20552A;}
	.st266{opacity:0.5;fill:#508B3F;}
	.st267{opacity:0.5;fill:#A2C83A;}
	.st268{fill:#88171A;}
	.st269{fill:#C02326;}
	.st270{fill:#A61E22;}
	.st271{opacity:0.4;fill:#C02326;}
	.st272{opacity:0.7;fill:#C02326;}
	.st273{opacity:0.2;fill:#A61E22;}
	.st274{opacity:0.3;fill:#A61E22;}
	.st275{fill:#62130C;}
	.st276{fill:#451310;}
	.st277{fill:#791514;}
	.st278{fill:#861719;}
	.st279{fill:#FECF0A;}
	.st280{opacity:0.4;fill:#C6A239;}
	.st281{opacity:0.2;fill:#E4A33A;}
	.st282{opacity:0.3;fill:#B8A137;}
	.st283{opacity:0.3;fill:#FECF0A;}
	.st284{fill:#F5B41A;}
	.st285{opacity:0.6;fill:#CFAE2B;}
	.st286{opacity:0.4;fill:#CFAE2B;}
	.st287{fill:#98772C;}
	.st288{fill:#FFD86D;}
	.st289{fill:#E59F24;}
	.st290{fill:#ECB31F;}
	.st291{fill:#E8B321;}
	.st292{opacity:0.3;fill:#E4A33A;}
	.st293{opacity:0.3;fill:#D48E64;}
	.st294{opacity:0.2;fill:#C6A239;}
	.st295{fill:#FDEB07;stroke:#E0E1E0;stroke-width:0;stroke-linecap:round;stroke-linejoin:round;}
	.st296{fill:#BCBAA3;}
	.st297{fill:#55813B;}
	.st298{fill:#32421B;}
	.st299{opacity:0.3;fill:#517636;}
	.st300{fill:#6E953E;}
	.st301{opacity:0.2;fill:#3A5728;}
	.st302{fill:#42793A;}
	.st303{fill:#F6871F;}
	.st304{opacity:0.2;fill:#E66725;}
	.st305{fill:#D65027;}
	.st306{fill:#CB5727;}
	.st307{opacity:0.2;}
	.st308{fill:#AD6427;}
	.st309{opacity:0.3;fill:#E66725;}
	.st310{opacity:0.5;fill:#DC8127;}
	.st311{fill:#D5D1C5;}
	.st312{fill:#DCB399;}
	.st313{fill:#EAC6AF;}
	.st314{opacity:0.5;fill:#EAC6AF;}
	.st315{opacity:0.5;fill:#E9DEDE;}
	.st316{opacity:0.6;fill:#E9DEDE;}
	.st317{fill:#F7D8C1;}
	.st318{fill:none;}
	.st319{opacity:0.3;fill:#C49374;}
	.st320{fill:#6F903C;}
	.st321{opacity:0.4;fill:#3A5728;}
	.st322{opacity:0.5;fill:#6F903C;}
	.st323{opacity:0.5;fill:#7C963B;}
	.st324{fill:#516A30;}
	.st325{opacity:0.2;fill:#E0E1E0;}
	.st326{opacity:0.2;fill:#C2CACB;}
	.st327{opacity:0.5;fill:#C2CACB;}
	.st328{opacity:0.2;fill:#645C51;}
	.st329{fill:#FAFAFA;}
	.st330{fill:#D6D6D6;}
	.st331{opacity:0.3;fill:#B4C0B2;}
	.st332{fill:#BDBDBD;}
	.st333{fill:#961B1E;}
	.st334{fill:#AF2F24;}
	.st335{fill:#C53127;}
	.st336{fill:#76533F;}
	.st337{fill:#533A2A;}
	.st338{opacity:0.7;fill:#E94466;}
	.st339{fill:#D91F26;}
	.st340{fill:#F6DAB4;}
	.st341{fill:#D2A47F;}
	.st342{fill:#B4B4B4;}
	.st343{fill:#E88B38;}
	.st344{fill:#FBAD47;}
	.st345{fill:#CFB581;}
	.st346{fill:#594D41;}
	.st347{fill:#FDF8F2;}
	.st348{opacity:0.5;fill:#E88B38;}
	.st349{fill:#DDDCD8;}
	.st350{opacity:0.8;fill:#E88B38;}
	.st351{opacity:0.5;fill:#594D41;}
	.st352{fill:#F89A1C;}
	.st353{opacity:0.4;fill:#FDC110;}
	.st354{fill:#FEE600;}
	.st355{fill:#FDC110;}
	.st356{fill:#7CBDE8;}
	.st357{opacity:0.6;fill:#5BB353;}
	.st358{fill:#046CA6;}
	.st359{opacity:0.3;fill:#046CA6;}
	.st360{opacity:0.3;fill:#20ABE3;}
	.st361{fill:#754138;}
	.st362{fill:#6A2116;}
	.st363{fill:#381512;}
</style>







<g
   id="g420"
   transform="translate(-81.15322,-171.21011)">
	<path
   class="st48"
   d="m 127.05,221.75 c 0,0 0.14,-1.95 -2.2,-1.11 -2.35,0.84 -10.05,10.46 -9.43,12.88 0,0 -0.11,1.58 2.23,0.74 l 1.77,1.27 c 0,0 -0.39,0.98 0.44,1.26 0.82,0.28 1.59,-0.35 1.59,-0.35 l 2.38,2.18 c 0,0 4.21,12.58 5.28,13.83 1.08,1.25 2.6,2.19 4.5,2.52 1.9,0.34 6.25,0.87 6.25,0.87 0,0 2.18,-0.08 3.03,-0.81 0.85,-0.74 1.17,-0.74 1.17,-0.74 l 4.92,-0.8 c 0,0 0.39,-0.11 0.44,0.48 0.05,0.59 0.45,2.22 1.01,2.54 0.57,0.32 2.99,0.89 2.99,0.89 0,0 1.44,0.09 2.16,-0.9 0.71,-0.99 2.23,-2.66 2.23,-2.66 0,0 0.08,3.61 0.78,3.96 0.71,0.35 2.55,-0.05 3.09,0.97 0.53,1.01 1.13,5.23 2.84,7.57 1.71,2.35 4.76,5.01 6.48,5.38 1.71,0.36 3.94,-0.56 3.94,-0.56 0,0 7.68,-6.16 9.72,-11.96 2.04,-5.79 3.81,-14.3 2.54,-15.37 -1.27,-1.08 -1.71,-3.21 -6.69,-4.18 -4.97,-0.98 -4,-0.36 -4.69,-0.3 -0.68,0.07 -7.54,3.02 -7.84,3.11 -0.31,0.1 -0.35,-1.36 -1.09,-1.34 -0.72,0.03 -0.72,0.03 -0.72,0.03 0,0 0.24,-0.77 -0.55,-0.56 -0.8,0.22 -3.01,1 -3.81,0.35 -0.79,-0.65 -2.91,-5.72 -3.13,-5.95 -0.23,-0.25 -4.11,0.11 -4.11,0.11 0,0 -1.71,-7.62 -2.76,-8.13 -1.04,-0.52 -7.22,-1.57 -7.64,-2.1 -0.4,-0.54 -0.22,-1.66 -1.48,-1.47 -1.24,0.21 -9.97,2.78 -9.97,2.78 0,0 -2.02,-1.15 -1.82,-1.08 0.2,0.06 0.2,-1.28 -0.65,-1.73 -0.86,-0.45 -1.39,-0.05 -1.39,-0.05 z"
   id="path364"
   inkscape:connector-curvature="0"
   style="opacity:0.7;fill:#93cacb" />
	<g
   class="st49"
   id="g390"
   style="opacity:0.4">
		<path
   class="st50"
   d="m 122.35,228.23 c -2.74,3.4 -5.56,5.68 -6.32,5.08 -0.75,-0.6 0.87,-3.85 3.61,-7.25 2.74,-3.41 5.56,-5.68 6.31,-5.08 0.75,0.6 -0.86,3.85 -3.6,7.25 z"
   id="path366"
   inkscape:connector-curvature="0"
   style="fill:#919898" />
		<path
   class="st51"
   d="m 127.01,222.35 c 0,0 -2.09,6.63 -9.06,11.72 0,-0.01 7.34,-4.28 9.06,-11.72 z"
   id="path368"
   inkscape:connector-curvature="0"
   style="fill:#c2cacb" />
		<path
   class="st51"
   d="m 129.08,223.76 c 0,0 0.48,2.4 -3.14,6.66 -3.61,4.26 -6.52,5.1 -6.52,5.1 0,0 4.54,-1.16 7.84,-6.28 0,0 2.81,-3.9 1.82,-5.48 z"
   id="path370"
   inkscape:connector-curvature="0"
   style="fill:#c2cacb" />
		<path
   class="st51"
   d="m 130.86,224.86 c 0,0 0.47,2.34 -3.06,6.51 -3.54,4.16 -6.36,4.98 -6.36,4.98 0,0 4.44,-1.13 7.66,-6.14 -0.01,0 2.73,-3.81 1.76,-5.35 z"
   id="path372"
   inkscape:connector-curvature="0"
   style="fill:#c2cacb" />
		<path
   class="st51"
   d="m 132.92,226.6 c 0,0 0.57,2.33 -2.77,6.63 -3.35,4.31 -6.14,5.25 -6.14,5.25 0,0 4.37,-1.32 7.37,-6.45 0,0 2.59,-3.92 1.54,-5.43 z"
   id="path374"
   inkscape:connector-curvature="0"
   style="fill:#c2cacb" />
		<path
   class="st51"
   d="m 143.36,228.04 c 0,0 0.8,13.6 -11.4,23.84 0,0.01 12.69,-8.31 11.4,-23.84 z"
   id="path376"
   inkscape:connector-curvature="0"
   style="fill:#c2cacb" />
		<path
   class="st51"
   d="m 154.56,235.07 c 0,0 0.04,3.58 -0.92,5.34 -0.95,1.76 -9.5,13.53 -9.5,13.53 0,0 8.74,-10.93 9.75,-12.56 1.01,-1.63 0.67,-6.31 0.67,-6.31 z"
   id="path378"
   inkscape:connector-curvature="0"
   style="fill:#c2cacb" />
		<path
   class="st51"
   d="m 166.15,241.13 c 0,0 -17.01,12.23 -17.18,12.34 -0.16,0.12 11.4,-6.4 17.18,-12.34 z"
   id="path380"
   inkscape:connector-curvature="0"
   style="fill:#c2cacb" />
		<path
   class="st51"
   d="m 162.18,250.58 c 0,0 -1.6,-1.39 -4.38,2.92 l -0.26,0.68 2.97,-2.6 c 0,0 1.33,-0.31 1.48,-0.19 0.15,0.11 1.19,1.09 1.19,1.09 0,0 0.2,-1.58 -1,-1.9 z"
   id="path382"
   inkscape:connector-curvature="0"
   style="fill:#c2cacb" />
		<path
   class="st51"
   d="m 167.96,242.44 c 0,0 0.34,2.38 -0.15,3.29 -0.5,0.91 -2.1,4.01 -2.48,6.19 0,0 0.21,4.64 0.53,7.17 0,0 -0.24,-6.57 0.59,-8.73 0.84,-2.16 2.07,-4.74 2.07,-4.74 z"
   id="path384"
   inkscape:connector-curvature="0"
   style="fill:#c2cacb" />
		<path
   class="st51"
   d="m 184.76,243.55 c 0,0 0.09,3.06 -1.66,5.5 -1.76,2.44 -6.56,3.96 -7.33,7.99 -0.77,4.03 0.71,6.91 -2.9,10.38 0,0 3.21,-1.39 3.43,-5.41 0.21,-4.03 -0.36,-5.54 1.79,-7.87 2.14,-2.32 5.01,-3.02 6.03,-6.08 1.01,-3.05 0.64,-4.51 0.64,-4.51 z"
   id="path386"
   inkscape:connector-curvature="0"
   style="fill:#c2cacb" />
		<path
   class="st51"
   d="m 183.88,242.44 c 0,0 -1.26,-1.38 -6.39,3.94 -5.13,5.3 -7.55,14.1 -7.47,14.51 0,-0.01 5.04,-14.61 13.86,-18.45 z"
   id="path388"
   inkscape:connector-curvature="0"
   style="fill:#c2cacb" />
	</g>
	<path
   class="st52"
   d="m 184.65,259.18 c 2.04,-5.79 3.81,-14.3 2.54,-15.37 -1.27,-1.08 -1.71,-3.21 -6.69,-4.18 -4.97,-0.98 -4,-0.36 -4.69,-0.3 -0.68,0.07 -7.54,3.02 -7.84,3.11 -0.31,0.1 -0.35,-1.36 -1.09,-1.34 -0.72,0.03 -0.72,0.03 -0.72,0.03 0,0 0.24,-0.77 -0.55,-0.56 -0.8,0.22 -3.01,1 -3.81,0.35 -0.79,-0.65 -2.91,-5.72 -3.13,-5.95 -0.23,-0.25 -4.11,0.11 -4.11,0.11 0,0 -1.71,-7.62 -2.76,-8.13 -1.04,-0.52 -7.22,-1.57 -7.64,-2.1 -0.4,-0.54 -0.22,-1.66 -1.48,-1.47 -1.24,0.21 -9.97,2.78 -9.97,2.78 0,0 -2.02,-1.15 -1.82,-1.08 0.2,0.06 0.2,-1.28 -0.65,-1.73 -0.86,-0.45 -1.39,-0.05 -1.39,-0.05 l -1.81,-1.54 c 0,0 0.14,-1.95 -2.2,-1.11 -2.35,0.84 -10.05,10.46 -9.43,12.88 0,0 -0.11,1.58 2.23,0.74 l 1.77,1.27 c 0,0 -0.39,0.98 0.44,1.26 0.82,0.28 1.59,-0.35 1.59,-0.35 l 2.38,2.18 c 0,0 4.21,12.58 5.28,13.83 1.08,1.25 2.6,2.19 4.5,2.52 1.9,0.34 6.25,0.87 6.25,0.87 0,0 2.18,-0.08 3.03,-0.81 0.85,-0.74 1.17,-0.74 1.17,-0.74 l 4.92,-0.8 c 0,0 0.39,-0.11 0.44,0.48 0.05,0.59 0.45,2.22 1.01,2.54 0.57,0.32 2.99,0.89 2.99,0.89 0,0 1.44,0.09 2.16,-0.9 0.71,-0.99 2.23,-2.66 2.23,-2.66 0,0 0.08,3.61 0.78,3.96 0.71,0.35 2.55,-0.05 3.09,0.97 0.53,1.01 1.13,5.23 2.84,7.57 1.71,2.35 4.76,5.01 6.48,5.38 1.71,0.36 3.94,-0.56 3.94,-0.56 0,0 7.68,-6.2 9.72,-11.99 z m -62.24,-29.66 c -0.25,0.22 -0.6,-0.13 -0.41,-0.39 1.39,-1.99 3.1,-3.85 3.79,-6.24 0.05,-0.15 0.17,-0.2 0.29,-0.18 0.03,-0.04 0.07,-0.09 0.11,-0.16 0.18,-0.23 0.55,-0.09 0.53,0.2 -0.15,2.53 -2.48,5.23 -4.31,6.77 z m 4.55,-0.14 c -0.79,0.96 -2.54,2.3 -2.91,0.25 -0.12,-0.67 0.6,-1.53 0.92,-2.02 0.76,-1.14 1.65,-2.3 1.78,-3.7 0.01,-0.18 0.14,-0.26 0.28,-0.25 0.47,-0.6 1.25,-0.25 1.78,0.72 0.74,1.35 -1.05,4.01 -1.85,5 z m 0.42,1.32 c -0.21,0.07 -0.4,-0.07 -0.4,-0.29 0.02,-0.81 0.52,-1.38 0.94,-2.02 0.61,-0.91 1.05,-1.98 1.3,-3.04 0.03,-0.11 0.09,-0.16 0.17,-0.17 0.08,-0.16 0.19,-0.29 0.32,-0.43 0.12,-0.11 0.32,-0.07 0.41,0.04 1.33,1.66 -1.02,5.35 -2.74,5.91 z m 1.4,3.86 c -0.68,0.64 -1.27,0.99 -2.21,0.92 -0.5,-0.05 -0.59,-0.47 -0.49,-0.86 0.16,-0.63 0.85,-1.3 1.19,-1.85 0.41,-0.67 0.83,-1.31 1.28,-1.96 0.95,-1.38 1.9,-2.75 2.32,-4.39 0.03,-0.14 0.14,-0.2 0.24,-0.19 1.38,-1.03 1.49,1.65 1.2,2.5 -0.65,2.03 -1.97,4.36 -3.53,5.83 z m 5.94,11.58 c -2.01,0.64 -2.95,-1.4 -3.71,-2.92 -0.75,-1.52 -1.53,-3.08 -2.14,-4.67 -0.38,-0.98 -0.58,-1.86 -0.18,-2.85 0.58,-1.39 1.95,-2.34 2.68,-3.65 0.78,-1.4 1.2,-3.32 2.29,-4.5 0.76,-0.83 2.33,-1.05 3.38,-1.35 1.64,-0.45 3.29,-0.81 4.88,-1.4 0.01,-0.01 0.02,-0.01 0.04,-0.01 0.05,-0.02 0.12,-0.04 0.18,-0.06 0.15,-0.06 0.29,0.02 0.36,0.14 1.77,0.94 -0.18,8.51 -0.45,9.48 -0.81,2.96 -2.01,5.69 -3.74,8.22 -0.86,1.26 -2.03,3.08 -3.59,3.57 z m 11.85,-2.93 c -1.29,0.43 -2.6,0.78 -3.9,1.11 -0.65,0.16 -2.02,0.81 -2.67,0.42 -0.38,-0.22 -0.38,-0.6 -0.22,-0.98 0.5,-1.21 1.1,-2.38 1.56,-3.61 1.16,-3.08 2.05,-6.17 2.49,-9.42 0.19,-1.46 0.34,-3.67 2.23,-3.78 1.34,-0.09 2.61,0.37 3.9,0.54 0.57,-0.11 1.27,-0.19 1.55,0.24 0.53,0.8 0.39,1.78 0.47,2.7 0.2,2.58 0.09,5.23 -0.5,7.74 -0.7,2.87 -2.15,4.12 -4.91,5.04 z m 13.23,-0.1 c -0.67,0.51 -1.48,0.75 -2.22,1.16 -0.94,0.54 -1.86,1.12 -2.82,1.61 -1.24,0.65 -2.39,1.98 -3.84,2.12 -0.2,0.02 -0.41,-0.17 -0.32,-0.4 0.63,-1.48 1.69,-2.6 2.68,-3.84 1.12,-1.41 1.64,-2.74 1.72,-4.51 0.05,-1 0.06,-2.11 0.66,-2.97 0.49,-0.69 1.77,-0.75 2.51,-0.87 0.15,-0.02 0.26,0.07 0.3,0.18 0.39,0.3 0.39,0.75 0.46,1.23 0.17,0.98 0.53,1.89 0.84,2.84 0.3,0.94 1.05,2.68 0.03,3.45 z m 3.49,5.22 c -1.73,0.29 -2.68,1.64 -4.17,2.35 -1.28,0.59 -2.69,0.59 -4.02,0.92 -0.25,0.06 -0.44,-0.26 -0.29,-0.46 1.27,-1.56 3.12,-2.79 4.69,-4.03 1.58,-1.23 3.15,-2.46 4.74,-3.68 0.54,-0.45 1.1,-0.89 1.65,-1.34 0.24,-0.19 0.53,0.07 0.46,0.33 -0.27,0.94 -0.6,1.87 -0.84,2.82 -0.17,0.69 -0.17,1.62 -0.5,2.28 -0.38,0.81 -0.9,0.67 -1.72,0.81 z m 8.58,14.19 c -0.08,0.1 -0.23,0.17 -0.34,0.11 -2.54,-1.31 -4.19,-5.06 -4.43,-7.77 -0.15,-1.71 -0.39,-3.88 0.21,-5.52 0.08,-0.2 0.15,-0.4 0.24,-0.58 0.07,-0.43 0.2,-0.85 0.5,-1.21 0.14,-0.17 0.3,-0.32 0.44,-0.47 0.05,-0.09 0.11,-0.19 0.17,-0.29 0.41,-0.72 0.55,-1.45 0.62,-2.21 -0.3,-1.14 -0.13,-2.01 1.17,-2.42 1.45,-0.44 2.9,-0.92 4.38,-1.32 0.74,-0.34 1.52,-0.64 2.3,-0.6 1.38,0.05 2.68,0.64 4.06,0.81 0.08,0.01 0.14,0.04 0.18,0.09 0.05,0.01 0.1,0.02 0.15,0.02 0.17,0.04 0.34,0.21 0.25,0.4 -0.69,1.32 -1.75,2.35 -2.64,3.54 0.84,-0.6 1.71,-1.11 2.63,-1.53 0.05,-0.03 0.08,-0.06 0.12,-0.09 0.06,-0.04 0.12,-0.05 0.2,-0.05 0.04,-0.01 0.09,-0.04 0.14,-0.07 0.2,-0.08 0.45,0.07 0.41,0.29 -0.32,1.76 -0.62,3.65 -1.44,5.26 -0.76,1.5 -1.95,2.32 -3.2,3.39 -0.99,0.86 -2.17,1.89 -2.31,3.28 -0.09,0.83 -0.05,1.69 -0.24,2.51 -0.08,0.35 -0.21,0.66 -0.37,0.96 -0.14,0.43 -0.37,0.8 -0.75,1.03 -0.76,0.83 -1.74,1.54 -2.45,2.44 z m 6.87,2.09 c -0.12,0.11 -0.31,0.07 -0.42,-0.04 -0.92,-1.17 -1.07,-2.72 -1.32,-4.14 -0.28,-1.56 -0.25,-3.21 0.41,-4.69 0.73,-1.65 2.28,-2.79 3.61,-3.95 0.25,-0.2 0.5,-0.41 0.76,-0.62 0.84,-1.09 1.83,-2.22 2.29,-3.5 0.37,-1.03 0.53,-2.11 0.94,-3.12 0.11,-0.28 0.49,-0.23 0.56,0.05 0.78,3.55 -0.04,7.28 -1.34,10.6 -0.69,1.76 -1.52,3.45 -2.46,5.1 -0.87,1.55 -1.71,3.11 -3.03,4.31 z"
   id="path392"
   inkscape:connector-curvature="0"
   style="opacity:0.4;fill:#82c7de" />
	<g
   class="st30"
   id="g416"
   style="opacity:0.7">
		<path
   class="st53"
   d="m 142.16,227.32 c -0.98,0.08 -1.97,0.14 -2.95,0.28 -1.58,0.21 -3.1,0.66 -4.66,0.97 -0.26,0.68 -0.5,1.36 -0.72,2.05 2.35,-0.05 4.71,-0.18 7.03,-0.52 0.05,-0.02 0.09,-0.06 0.15,-0.1 0.39,-0.9 0.77,-1.79 1.15,-2.68 z"
   id="path394"
   inkscape:connector-curvature="0"
   style="opacity:0.8;fill:#ffffff" />
		<path
   class="st53"
   d="m 144.77,230.78 c -0.01,0.15 -0.01,0.29 -0.02,0.44 0,0.02 0.02,0.05 0.02,0.08 1.97,0.68 4.02,0.98 6.07,1.3 v 0 c 0.14,-1.34 0.22,-2.68 0.06,-4.02 -1.97,-0.06 -3.95,-0.06 -5.9,-0.33 -0.03,0.04 -0.07,0.07 -0.09,0.11 -0.06,0.81 -0.1,1.6 -0.14,2.41 0,0 0,0.01 0,0.01 z"
   id="path396"
   inkscape:connector-curvature="0"
   style="opacity:0.8;fill:#ffffff" />
		<path
   class="st53"
   d="m 159.07,241.08 c -0.16,-1.45 -0.33,-2.9 -0.84,-4.27 -0.78,0.11 -1.56,0.2 -2.35,0.23 -0.02,0.06 -0.03,0.12 -0.04,0.18 0.05,0.92 0.21,1.84 0.18,2.78 0,0.2 -0.01,0.39 -0.01,0.59 1.06,0 2.06,0.2 3.06,0.49 z"
   id="path398"
   inkscape:connector-curvature="0"
   style="opacity:0.8;fill:#ffffff" />
		<path
   class="st53"
   d="m 162.18,247.49 c 0.41,-0.11 0.82,-0.2 1.23,-0.29 0.07,-0.02 0.11,-0.04 0.17,-0.06 0.53,-0.16 0.72,-0.29 0.88,-0.82 0.28,-0.98 0.73,-1.95 0.98,-2.94 0.01,-0.07 -0.01,-0.11 -0.03,-0.15 -0.95,0.76 -1.93,1.5 -2.9,2.24 -0.15,0.16 -0.31,0.31 -0.45,0.47 -0.37,0.25 -0.72,0.51 -1.09,0.75 -0.17,0.11 -0.33,0.22 -0.5,0.33 -0.66,0.51 -1.33,1.03 -1.97,1.55 -0.01,0.02 -0.03,0.04 -0.05,0.06 -0.01,0.03 -0.04,0.06 -0.04,0.09 1.23,-0.49 2.49,-0.88 3.77,-1.23 z"
   id="path400"
   inkscape:connector-curvature="0"
   style="opacity:0.8;fill:#ffffff" />
		<path
   class="st53"
   d="m 177.29,241.81 c -0.98,0.31 -1.96,0.65 -2.94,0.97 -1.33,0.45 -2.64,0.93 -3.93,1.5 -0.04,0.2 0.02,0.44 0.17,0.77 0.65,1.38 -0.94,1.44 -1.69,2.29 0.11,1.43 0.09,2.89 0.28,4.32 1.53,-1.04 3.1,-2.01 4.72,-2.91 0.92,-1.14 1.79,-2.32 2.79,-3.39 1.07,-1.13 2.32,-2.06 3.44,-3.13 -0.95,-0.18 -1.89,-0.31 -2.84,-0.42 z"
   id="path402"
   inkscape:connector-curvature="0"
   style="opacity:0.8;fill:#ffffff" />
		<path
   class="st53"
   d="m 181.33,245.49 c -1.18,0.46 -2.37,1.47 -3.21,2.33 -0.28,0.32 -0.54,0.65 -0.79,0.97 -0.31,0.31 -0.61,0.66 -0.89,1.07 -1.14,1.64 -2.19,3.32 -3.18,5.06 -0.04,0.07 -0.04,0.12 -0.04,0.17 0.62,-0.31 1.23,-0.66 1.8,-1.05 0.44,-0.52 0.88,-1.03 1.36,-1.51 0.89,-0.88 1.94,-1.59 2.77,-2.53 0.17,-0.21 0.34,-0.43 0.5,-0.66 0.63,-1.25 1.2,-2.54 1.68,-3.85 z"
   id="path404"
   inkscape:connector-curvature="0"
   style="opacity:0.8;fill:#ffffff" />
		<path
   class="st53"
   d="m 182.56,255.58 c 0.25,-0.26 0.5,-0.53 0.76,-0.76 0.44,-0.44 0.46,-1.19 0.56,-1.77 0.18,-0.97 0.5,-1.87 0.74,-2.82 0.04,-0.16 -0.03,-0.25 -0.15,-0.3 -1.02,1.12 -2.04,2.28 -3.25,3.2 -0.81,0.6 -1.62,1.17 -2.44,1.76 0.04,0.99 0.23,1.96 0.44,2.93 1.01,-0.91 2.16,-1.6 3.34,-2.24 z"
   id="path406"
   inkscape:connector-curvature="0"
   style="opacity:0.8;fill:#ffffff" />
		<path
   class="st53"
   d="m 128.3,225.68 c 0.09,-0.36 0.19,-0.9 -0.3,-1 -0.43,-0.09 -0.75,0.22 -0.97,0.55 -0.17,0.26 -0.48,0.94 -0.4,1.37 -0.03,0.15 -0.02,0.31 0.07,0.41 0.29,0.29 0.71,0.08 0.95,-0.15 0.32,-0.31 0.53,-0.74 0.65,-1.18 z"
   id="path408"
   inkscape:connector-curvature="0"
   style="opacity:0.8;fill:#ffffff" />
		<path
   class="st53"
   d="m 130.14,227.02 c 0.17,-0.33 0.27,-0.83 -0.24,-0.84 -0.38,0 -0.67,0.28 -0.8,0.63 -0.11,0.3 -0.18,0.72 0.09,0.95 0.12,0.11 0.34,0.11 0.48,0.04 0.28,-0.14 0.58,-0.47 0.47,-0.78 z"
   id="path410"
   inkscape:connector-curvature="0"
   style="opacity:0.8;fill:#ffffff" />
		<path
   class="st53"
   d="m 131.02,230.75 c 0.18,-0.3 0.34,-0.62 0.49,-0.95 0.26,-0.6 0.33,-1.19 0.39,-1.8 0.08,-0.19 0.06,-0.36 0.06,-0.59 -0.02,-0.4 -0.83,-0.25 -0.87,0.09 -0.11,0.76 -0.17,1.4 -0.5,2.13 -0.39,0.86 -0.92,1.64 -1.28,2.52 0.6,-0.43 1.16,-0.9 1.71,-1.4 z"
   id="path412"
   inkscape:connector-curvature="0"
   style="opacity:0.8;fill:#ffffff" />
		<path
   class="st54"
   d="m 125.94,224.14 c 0.02,-0.05 -0.11,-0.05 -0.11,-0.01 -0.16,0.41 -0.44,0.75 -0.63,1.14 -0.06,0.11 0.15,0.12 0.19,0.04 0.2,-0.37 0.42,-0.75 0.55,-1.17 z"
   id="path414"
   inkscape:connector-curvature="0"
   style="opacity:0.5;fill:#ffffff" />
	</g>
	<path
   class="st52"
   d="m 184.65,259.18 c 2.04,-5.79 3.81,-14.3 2.54,-15.37 -0.05,-0.04 -0.09,-0.09 -0.14,-0.13 -0.02,1.11 -0.09,2.21 -0.24,3.31 -0.31,2.29 -0.75,4.61 -1.39,6.84 -1.23,4.25 -3.15,8.34 -6.14,11.65 -1.2,1.32 -2.49,2.47 -4.25,2.94 -1.27,0.35 -3.6,1.18 -4.75,0.06 -0.84,-0.82 -1.81,-1.85 -2.45,-2.92 -0.25,-0.25 -0.5,-0.51 -0.7,-0.81 -0.76,-1.08 -0.54,-2.98 -0.63,-4.21 -0.18,-2.53 -0.31,-5.06 -0.37,-7.59 -0.08,0.44 -0.17,0.89 -0.25,1.33 -0.31,1.77 -0.42,3.87 -1.61,5.32 -0.13,0.17 -0.4,0.16 -0.5,-0.06 -0.5,-1.1 -0.95,-2.35 -1.17,-3.55 -0.11,-0.62 0.15,-0.87 0.6,-1.14 -0.37,-0.47 -0.82,-0.88 -1.26,-1.31 -0.08,-0.09 -0.08,-0.26 -0.01,-0.35 0.56,-0.7 1.22,-1.26 1.97,-1.74 -1.33,-1.05 -2.94,-1.81 -4.49,-0.69 -1.28,0.94 -2.7,1.76 -3.86,2.84 -0.39,0.37 -0.95,1.14 -1.59,0.94 -0.82,-0.26 -1.52,-0.81 -2.26,-1.25 -0.17,-0.1 -0.13,-0.35 -0.01,-0.47 1.96,-1.72 3.83,-3.59 5.89,-5.21 0.53,-0.41 1.07,-0.81 1.62,-1.22 -0.95,0.53 -1.9,1.06 -2.83,1.59 -1.61,0.92 -3.12,2.03 -4.89,2.59 -1.39,0.43 -2.85,0.44 -4.29,0.45 -0.23,-0.01 -0.31,-0.3 -0.2,-0.47 1.18,-1.76 2.32,-3.53 3.37,-5.35 -1.8,2.33 -3.86,4.44 -6.08,6.5 -1.36,1.26 -2.62,2.05 -4.54,1.69 -2.09,-0.4 -4.25,-0.76 -6.3,-1.34 -0.14,-0.04 -0.24,-0.24 -0.17,-0.38 0.59,-1.11 1.65,-1.81 2.35,-2.84 0.32,-0.46 0.61,-0.94 0.89,-1.42 -0.67,0.49 -1.35,0.95 -2.06,1.38 -0.57,0.35 -1.33,0.87 -2.03,0.65 -0.8,-0.25 -2.11,-0.52 -2.62,-1.28 -0.78,-1.17 -1.12,-2.6 -1.72,-3.88 -0.66,-1.41 -1.36,-2.81 -1.92,-4.27 -0.16,-0.43 -0.75,-1.36 -0.34,-1.85 0.43,-0.54 0.97,-1 1.52,-1.45 -0.75,0.23 -1.54,0.35 -2.16,0.01 -0.57,-0.32 -0.92,-1.17 -1.52,-1.32 -0.68,-0.18 -0.88,0.1 -1.43,-0.36 -0.21,-0.17 -0.29,-0.57 -0.2,-0.82 0.25,-0.71 -0.47,-1.18 -1.06,-1.58 -0.57,-0.38 -1.31,-0.32 -1.56,-0.76 -1,0.96 -2.25,1.79 -3.67,1.48 -0.14,-0.03 -0.25,-0.07 -0.36,-0.12 0.01,0.09 0.01,0.19 0.04,0.28 0,0 -0.11,1.58 2.23,0.74 l 1.77,1.27 c 0,0 -0.39,0.98 0.44,1.26 0.82,0.28 1.59,-0.35 1.59,-0.35 l 2.38,2.18 c 0,0 4.21,12.58 5.28,13.83 1.08,1.25 2.6,2.19 4.5,2.52 1.9,0.34 6.25,0.87 6.25,0.87 0,0 2.18,-0.08 3.03,-0.81 0.85,-0.74 1.17,-0.74 1.17,-0.74 l 4.92,-0.8 c 0,0 0.39,-0.11 0.44,0.48 0.05,0.59 0.45,2.22 1.01,2.54 0.57,0.32 2.99,0.89 2.99,0.89 0,0 1.44,0.09 2.16,-0.9 0.71,-0.99 2.23,-2.66 2.23,-2.66 0,0 0.08,3.61 0.78,3.96 0.71,0.35 2.55,-0.05 3.09,0.97 0.53,1.01 1.13,5.23 2.84,7.57 1.71,2.35 4.76,5.01 6.48,5.38 1.71,0.36 3.94,-0.56 3.94,-0.56 0,0 7.67,-6.19 9.71,-11.98 z"
   id="path418"
   inkscape:connector-curvature="0"
   style="opacity:0.4;fill:#82c7de" />
</g>


























</svg>