<?xml version="1.0" encoding="UTF-8" standalone="no"?>
<!-- Generator: Adobe Illustrator 23.1.0, SVG Export Plug-In . SVG Version: 6.00 Build 0)  -->

<svg
   xmlns:dc="http://purl.org/dc/elements/1.1/"
   xmlns:cc="http://creativecommons.org/ns#"
   xmlns:rdf="http://www.w3.org/1999/02/22-rdf-syntax-ns#"
   xmlns:svg="http://www.w3.org/2000/svg"
   xmlns="http://www.w3.org/2000/svg"
   xmlns:sodipodi="http://sodipodi.sourceforge.net/DTD/sodipodi-0.dtd"
   xmlns:inkscape="http://www.inkscape.org/namespaces/inkscape"
   version="1.1"
   id="Layer_1"
   x="0px"
   y="0px"
   viewBox="0 0 151.1811 151.18109"
   xml:space="preserve"
   sodipodi:docname="2.1.1.svg"
   width="40mm"
   height="40mm"
   inkscape:version="0.92.4 (5da689c313, 2019-01-14)"><metadata
   id="metadata4529"><rdf:RDF><cc:Work
       rdf:about=""><dc:format>image/svg+xml</dc:format><dc:type
         rdf:resource="http://purl.org/dc/dcmitype/StillImage" /><dc:title></dc:title></cc:Work></rdf:RDF></metadata><defs
   id="defs4527" /><sodipodi:namedview
   pagecolor="#ffffff"
   bordercolor="#666666"
   borderopacity="1"
   objecttolerance="10"
   gridtolerance="10"
   guidetolerance="10"
   inkscape:pageopacity="0"
   inkscape:pageshadow="2"
   inkscape:window-width="1024"
   inkscape:window-height="709"
   id="namedview4525"
   showgrid="false"
   units="mm"
   inkscape:zoom="1.1213358"
   inkscape:cx="129.06494"
   inkscape:cy="121.15453"
   inkscape:window-x="0"
   inkscape:window-y="30"
   inkscape:window-maximized="1"
   inkscape:current-layer="Layer_1" />
<style
   type="text/css"
   id="style2">
	.st0{fill:#67A8DB;}
	.st1{opacity:0.4;fill:#327CC0;}
	.st2{fill:#5299D3;}
	.st3{opacity:0.4;fill:#67A8DB;}
	.st4{opacity:0.5;}
	.st5{fill:#5CA1D7;}
	.st6{opacity:0.6;fill:#93C2E8;}
	.st7{opacity:0.6;fill:#67A8DB;}
	.st8{fill:#E76362;}
	.st9{opacity:0.4;fill:#D02527;}
	.st10{fill:#E14949;}
	.st11{opacity:0.4;fill:#E76362;}
	.st12{fill:#E45556;}
	.st13{opacity:0.6;fill:#EF9292;}
	.st14{opacity:0.6;fill:#E76362;}
	.st15{opacity:0.5;fill:#D2EEF9;}
	.st16{opacity:0.4;fill:#0099B0;}
	.st17{fill:#D0D1D1;}
	.st18{opacity:0.4;fill:#036BB1;}
	.st19{opacity:0.5;fill:#B5CCD7;}
	.st20{fill:#ACC1CB;}
	.st21{fill:#FFFFFF;}
	.st22{fill:#DFEFE7;}
	.st23{opacity:0.9;fill:#7ED0E0;}
	.st24{opacity:0.9;fill:#62C2CB;}
	.st25{opacity:0.9;fill:#41B3BF;}
	.st26{fill:#B1C8BC;}
	.st27{fill:#E21E26;}
	.st28{fill:#C1C0C0;}
	.st29{fill:#FCCE08;}
	.st30{opacity:0.7;}
	.st31{fill:#C8C7C6;}
	.st32{opacity:0.9;}
	.st33{fill:#41B3BF;}
	.st34{fill:#E75524;}
	.st35{fill:#62BE6B;}
	.st36{opacity:0.7;fill:#A6A6A6;}
	.st37{opacity:0.3;fill:#5BB353;}
	.st38{fill:#D1D1D1;}
	.st39{fill:#5BB353;}
	.st40{fill:#EDEDED;}
	.st41{fill:#DBDBDB;}
	.st42{fill:#F7F7F7;}
	.st43{fill:#E0E0E0;}
	.st44{fill:#EBEBEB;}
	.st45{fill:#811E18;}
	.st46{fill:#BC2025;}
	.st47{fill:#EB2024;}
	.st48{opacity:0.7;fill:#93CACB;}
	.st49{opacity:0.4;}
	.st50{fill:#919898;}
	.st51{fill:#C2CACB;}
	.st52{opacity:0.4;fill:#82C7DE;}
	.st53{opacity:0.8;fill:#FFFFFF;}
	.st54{opacity:0.5;fill:#FFFFFF;}
	.st55{fill:#FABE79;}
	.st56{fill:#F6AB62;}
	.st57{opacity:0.6;fill:#AE7B47;}
	.st58{fill:#B48049;}
	.st59{fill:#9B703F;}
	.st60{opacity:0.3;fill:#AE7B47;}
	.st61{opacity:0.3;}
	.st62{fill:#9C703E;}
	.st63{opacity:0.3;fill:#9B703F;}
	.st64{opacity:0.5;fill:#F6AB62;}
	.st65{opacity:0.4;fill:#FABE79;}
	.st66{fill:#DBDADA;}
	.st67{opacity:0.4;fill:#B2B4B7;}
	.st68{opacity:0.2;fill:#C1C1B7;}
	.st69{fill:#C2C2C2;}
	.st70{opacity:0.5;fill:#C2C2C2;}
	.st71{fill:#E5E1C6;}
	.st72{opacity:0.5;fill:#D4D1B8;}
	.st73{fill:#E3E3E3;}
	.st74{opacity:0.8;fill:#D4D1B8;}
	.st75{fill:#D4D1B8;}
	.st76{opacity:0.5;fill:#D0B9AD;}
	.st77{opacity:0.4;fill:#D4D1B8;}
	.st78{fill:#D2D1CE;}
	.st79{opacity:0.4;fill:#D2D1CE;}
	.st80{opacity:0.4;fill:#C2C2C2;}
	.st81{fill:#BFC1B8;}
	.st82{fill:#CB484F;}
	.st83{fill:#A7A9A0;}
	.st84{fill:#C3979C;}
	.st85{fill:#C7B88F;}
	.st86{fill:#9ACACB;}
	.st87{fill:#A8A8AB;}
	.st88{opacity:0.6;fill:#BE9C7A;}
	.st89{fill:#A4A391;}
	.st90{opacity:0.6;fill:#C2C2C2;}
	.st91{fill:#789D99;}
	.st92{opacity:0.4;fill:#789D99;}
	.st93{fill:#D1CEB6;}
	.st94{fill:#B8B6A1;}
	.st95{fill:#BAB8A3;}
	.st96{fill:#ABAA97;}
	.st97{fill:#E4E4E2;}
	.st98{opacity:0.6;}
	.st99{fill:#BEA18D;}
	.st100{opacity:0.3;fill:#BEA18D;}
	.st101{opacity:0.2;fill:#BEA18D;}
	.st102{fill:#D9BDA6;}
	.st103{fill:#CCAD93;}
	.st104{fill:#603412;}
	.st105{opacity:0.5;fill:#93816B;}
	.st106{opacity:0.4;fill:#331C0F;}
	.st107{fill:#93816B;}
	.st108{fill:#331C0F;}
	.st109{opacity:0.5;fill:#FFF7EA;}
	.st110{fill:#3F2612;}
	.st111{fill:#D62839;}
	.st112{fill:#F9AE9C;}
	.st113{fill:#4B632D;}
	.st114{opacity:0.5;fill:#86926B;}
	.st115{opacity:0.4;fill:#2E3618;}
	.st116{fill:#86926B;}
	.st117{fill:#2E3618;}
	.st118{opacity:0.5;fill:#F7F9E8;}
	.st119{fill:#34411B;}
	.st120{fill:#D59829;}
	.st121{fill:#FAF39E;}
	.st122{fill:#242424;}
	.st123{fill:#333232;}
	.st124{fill:#5D5D5D;}
	.st125{fill:#161616;}
	.st126{fill:#B3B3B3;}
	.st127{fill:#1A1A1A;}
	.st128{fill:#48893F;}
	.st129{fill:#FBAE1C;}
	.st130{fill:#759C3F;}
	.st131{fill:#56692F;}
	.st132{fill:#CAD631;}
	.st133{opacity:0.7;fill:#A66227;}
	.st134{fill:#BBBBBB;}
	.st135{fill:#A03B22;}
	.st136{fill:#C17529;}
	.st137{fill:#F47B2A;}
	.st138{fill:#792816;}
	.st139{fill:#FFF4EC;}
	.st140{fill:#89361C;}
	.st141{fill:#C3AC9E;}
	.st142{fill:#D3C1B9;}
	.st143{fill:#E2E1D5;}
	.st144{fill:#343225;}
	.st145{fill:#040406;}
	.st146{opacity:0.5;fill:#343225;}
	.st147{fill:#4C4333;}
	.st148{fill:#89877B;}
	.st149{fill:url(#SVGID_3_);}
	.st150{fill:url(#SVGID_4_);}
	.st151{opacity:0.5;fill:url(#SVGID_5_);}
	.st152{fill:url(#SVGID_6_);}
	.st153{fill:url(#SVGID_7_);}
	.st154{fill:url(#SVGID_8_);}
	.st155{fill:url(#SVGID_9_);}
	.st156{fill:url(#SVGID_10_);}
	.st157{opacity:0.3;fill:url(#SVGID_11_);}
	.st158{opacity:0.3;fill:url(#SVGID_12_);}
	.st159{fill:url(#SVGID_13_);}
	.st160{fill:url(#SVGID_14_);}
	.st161{fill:url(#SVGID_15_);}
	.st162{fill:url(#SVGID_16_);}
	.st163{fill:url(#SVGID_17_);}
	.st164{fill:url(#SVGID_18_);}
	.st165{opacity:0.7;fill:url(#SVGID_19_);}
	.st166{fill:url(#SVGID_20_);}
	.st167{filter:url(#Adobe_OpacityMaskFilter);}
	.st168{fill:url(#SVGID_22_);}
	.st169{opacity:0.7;mask:url(#SVGID_21_);fill:url(#SVGID_23_);}
	.st170{fill:url(#SVGID_24_);}
	.st171{opacity:0.5;fill:url(#SVGID_25_);}
	.st172{opacity:0.5;fill:url(#SVGID_26_);}
	.st173{opacity:0.3;fill:url(#SVGID_27_);}
	.st174{filter:url(#Adobe_OpacityMaskFilter_1_);}
	.st175{filter:url(#Adobe_OpacityMaskFilter_2_);}
	.st176{mask:url(#SVGID_28_);fill:url(#SVGID_29_);}
	.st177{fill:url(#SVGID_30_);}
	.st178{filter:url(#Adobe_OpacityMaskFilter_3_);}
	.st179{opacity:0.8;fill:url(#SVGID_32_);}
	.st180{mask:url(#SVGID_31_);}
	.st181{filter:url(#Adobe_OpacityMaskFilter_4_);}
	.st182{filter:url(#Adobe_OpacityMaskFilter_5_);}
	.st183{fill:url(#SVGID_33_);}
	.st184{fill:url(#SVGID_34_);}
	.st185{filter:url(#Adobe_OpacityMaskFilter_6_);}
	.st186{filter:url(#Adobe_OpacityMaskFilter_7_);}
	.st187{mask:url(#SVGID_35_);fill:url(#SVGID_36_);}
	.st188{opacity:0.6;fill:url(#SVGID_37_);}
	.st189{opacity:0.9;fill:url(#SVGID_38_);}
	.st190{fill:url(#SVGID_39_);}
	.st191{opacity:0.3;fill:url(#SVGID_40_);}
	.st192{opacity:0.3;fill:url(#SVGID_41_);}
	.st193{opacity:0.8;fill:url(#SVGID_42_);}
	.st194{fill:#F7DDBC;}
	.st195{fill:#D9B48A;}
	.st196{opacity:0.5;fill:#F7DDBC;}
	.st197{opacity:0.3;fill:#DEAA79;}
	.st198{opacity:0.3;fill:#A47348;}
	.st199{opacity:0.5;fill:#DEAA79;}
	.st200{opacity:0.5;fill:#A47348;}
	.st201{opacity:0.3;fill:#BE905C;}
	.st202{fill:#FFEBD7;}
	.st203{opacity:0.3;fill:#DEB485;}
	.st204{opacity:0.3;fill:#8F622F;}
	.st205{opacity:0.2;fill:#BA915C;}
	.st206{opacity:0.2;fill:#BE905C;}
	.st207{opacity:0.3;fill:#D5AD7A;}
	.st208{opacity:0.5;fill:#D5AD7A;}
	.st209{fill:#17ADE4;}
	.st210{fill:#F99B1C;}
	.st211{opacity:0.2;fill:#D59B29;}
	.st212{opacity:0.5;fill:#D59B29;}
	.st213{opacity:0.5;fill:#B8802B;}
	.st214{fill:#FAD00A;}
	.st215{fill:#EEA320;}
	.st216{opacity:0.4;fill:#FAD00A;}
	.st217{opacity:0.7;fill:#FAD00A;}
	.st218{opacity:0.7;fill:#E7C249;}
	.st219{opacity:0.7;fill:#E9B44A;}
	.st220{fill:#3A5728;}
	.st221{opacity:0.3;fill:#3A5728;}
	.st222{opacity:0.5;fill:#3A5728;}
	.st223{opacity:0.3;fill:#6D9D40;}
	.st224{opacity:0.3;fill:#547B38;}
	.st225{fill:#1C2C17;}
	.st226{opacity:0.3;fill:#1A381C;}
	.st227{fill:#152A17;}
	.st228{fill:#F8BC16;}
	.st229{opacity:0.2;fill:#F8BC16;}
	.st230{opacity:0.1;fill:#F8BC16;}
	.st231{opacity:0.3;fill:#E09426;}
	.st232{opacity:0.3;fill:#D98B28;}
	.st233{fill:#CE6F28;}
	.st234{fill:#A65225;}
	.st235{fill:#D88E28;}
	.st236{fill:#BD6728;}
	.st237{fill:#F09F20;}
	.st238{fill:#D37A28;}
	.st239{fill:#A2C83A;}
	.st240{opacity:0.2;fill:#A2C83A;}
	.st241{fill:#ECACCE;}
	.st242{fill:#CB6BAA;}
	.st243{fill:#FACB84;}
	.st244{fill:#F8BA58;}
	.st245{fill:#F3A846;}
	.st246{opacity:0.5;fill:#FACB84;}
	.st247{opacity:0.5;fill:#F8BA58;}
	.st248{fill:#80461D;}
	.st249{opacity:0.7;fill:#ECACCE;}
	.st250{opacity:0.7;fill:#FACB84;}
	.st251{fill:#356531;}
	.st252{opacity:0.2;fill:#356531;}
	.st253{opacity:0.5;fill:#356531;}
	.st254{fill:#508B3F;}
	.st255{fill:#117A3D;}
	.st256{opacity:0.4;fill:#508B3F;}
	.st257{opacity:0.7;fill:#508B3F;}
	.st258{fill:#467135;}
	.st259{opacity:0.2;fill:#467135;}
	.st260{opacity:0.3;fill:#467135;}
	.st261{fill:#203C1C;}
	.st262{fill:#142716;}
	.st263{fill:#325628;}
	.st264{fill:#193019;}
	.st265{fill:#20552A;}
	.st266{opacity:0.5;fill:#508B3F;}
	.st267{opacity:0.5;fill:#A2C83A;}
	.st268{fill:#88171A;}
	.st269{fill:#C02326;}
	.st270{fill:#A61E22;}
	.st271{opacity:0.4;fill:#C02326;}
	.st272{opacity:0.7;fill:#C02326;}
	.st273{opacity:0.2;fill:#A61E22;}
	.st274{opacity:0.3;fill:#A61E22;}
	.st275{fill:#62130C;}
	.st276{fill:#451310;}
	.st277{fill:#791514;}
	.st278{fill:#861719;}
	.st279{fill:#FECF0A;}
	.st280{opacity:0.4;fill:#C6A239;}
	.st281{opacity:0.2;fill:#E4A33A;}
	.st282{opacity:0.3;fill:#B8A137;}
	.st283{opacity:0.3;fill:#FECF0A;}
	.st284{fill:#F5B41A;}
	.st285{opacity:0.6;fill:#CFAE2B;}
	.st286{opacity:0.4;fill:#CFAE2B;}
	.st287{fill:#98772C;}
	.st288{fill:#FFD86D;}
	.st289{fill:#E59F24;}
	.st290{fill:#ECB31F;}
	.st291{fill:#E8B321;}
	.st292{opacity:0.3;fill:#E4A33A;}
	.st293{opacity:0.3;fill:#D48E64;}
	.st294{opacity:0.2;fill:#C6A239;}
	.st295{fill:#FDEB07;stroke:#E0E1E0;stroke-width:0;stroke-linecap:round;stroke-linejoin:round;}
	.st296{fill:#BCBAA3;}
	.st297{fill:#55813B;}
	.st298{fill:#32421B;}
	.st299{opacity:0.3;fill:#517636;}
	.st300{fill:#6E953E;}
	.st301{opacity:0.2;fill:#3A5728;}
	.st302{fill:#42793A;}
	.st303{fill:#F6871F;}
	.st304{opacity:0.2;fill:#E66725;}
	.st305{fill:#D65027;}
	.st306{fill:#CB5727;}
	.st307{opacity:0.2;}
	.st308{fill:#AD6427;}
	.st309{opacity:0.3;fill:#E66725;}
	.st310{opacity:0.5;fill:#DC8127;}
	.st311{fill:#D5D1C5;}
	.st312{fill:#DCB399;}
	.st313{fill:#EAC6AF;}
	.st314{opacity:0.5;fill:#EAC6AF;}
	.st315{opacity:0.5;fill:#E9DEDE;}
	.st316{opacity:0.6;fill:#E9DEDE;}
	.st317{fill:#F7D8C1;}
	.st318{fill:none;}
	.st319{opacity:0.3;fill:#C49374;}
	.st320{fill:#6F903C;}
	.st321{opacity:0.4;fill:#3A5728;}
	.st322{opacity:0.5;fill:#6F903C;}
	.st323{opacity:0.5;fill:#7C963B;}
	.st324{fill:#516A30;}
	.st325{opacity:0.2;fill:#E0E1E0;}
	.st326{opacity:0.2;fill:#C2CACB;}
	.st327{opacity:0.5;fill:#C2CACB;}
	.st328{opacity:0.2;fill:#645C51;}
	.st329{fill:#FAFAFA;}
	.st330{fill:#D6D6D6;}
	.st331{opacity:0.3;fill:#B4C0B2;}
	.st332{fill:#BDBDBD;}
	.st333{fill:#961B1E;}
	.st334{fill:#AF2F24;}
	.st335{fill:#C53127;}
	.st336{fill:#76533F;}
	.st337{fill:#533A2A;}
	.st338{opacity:0.7;fill:#E94466;}
	.st339{fill:#D91F26;}
	.st340{fill:#F6DAB4;}
	.st341{fill:#D2A47F;}
	.st342{fill:#B4B4B4;}
	.st343{fill:#E88B38;}
	.st344{fill:#FBAD47;}
	.st345{fill:#CFB581;}
	.st346{fill:#594D41;}
	.st347{fill:#FDF8F2;}
	.st348{opacity:0.5;fill:#E88B38;}
	.st349{fill:#DDDCD8;}
	.st350{opacity:0.8;fill:#E88B38;}
	.st351{opacity:0.5;fill:#594D41;}
	.st352{fill:#F89A1C;}
	.st353{opacity:0.4;fill:#FDC110;}
	.st354{fill:#FEE600;}
	.st355{fill:#FDC110;}
	.st356{fill:#7CBDE8;}
	.st357{opacity:0.6;fill:#5BB353;}
	.st358{fill:#046CA6;}
	.st359{opacity:0.3;fill:#046CA6;}
	.st360{opacity:0.3;fill:#20ABE3;}
	.st361{fill:#754138;}
	.st362{fill:#6A2116;}
	.st363{fill:#381512;}
</style>


<g
   id="g150"
   transform="translate(-27.645608,-68.653853)">
	<path
   class="st15"
   d="m 75.25,130.62 c -0.69,-4.02 0.96,-8.3 4.03,-10.41 2.19,-1.52 9.89,-6.04 16.46,-0.57 3.4,2.84 5.31,6.13 6.83,8.77 0.97,1.67 1.74,2.99 2.64,3.8 0.92,0.83 2.9,1.72 5.41,2.82 3.8,1.69 8.52,3.77 11.47,6.59 3.45,3.32 6.72,6.45 7.38,10.24 0.18,1.02 0.18,2.06 -0.02,3.18 -1.02,6.09 -13.48,15.02 -18.49,14.39 -5.05,-0.62 -10.33,-5.34 -16.6,-14.83 -1.2,-1.81 -2.16,-3.29 -2.95,-4.51 -3.89,-6.02 -3.89,-6.02 -10.06,-10.74 l -0.84,-0.64 c -2.91,-2.23 -4.73,-5.03 -5.26,-8.09 z"
   id="path124"
   inkscape:connector-curvature="0"
   style="opacity:0.5;fill:#d2eef9" />
	<g
   id="g144">
		<path
   class="st16"
   d="m 106.91,161.91 c -2.94,-5.39 -5.79,-10.82 -8.71,-16.21 -2.87,-5.28 -5.68,-10.6 -8.63,-15.83 -1.44,-2.56 -3.07,-5.02 -4.43,-7.6 -0.79,-1.49 -1.55,-2.99 -2.39,-4.44 -1.31,0.53 -2.56,1.23 -3.71,2.03 -4.95,3.42 -7.1,12.83 1.22,19.2 8.32,6.36 6.43,4.72 13.75,15.78 7.31,11.07 12.5,14.47 16.91,15.02 0.23,0.03 0.46,0.04 0.69,0.04 -1.6,-2.65 -3.22,-5.28 -4.7,-7.99 z"
   id="path126"
   inkscape:connector-curvature="0"
   style="opacity:0.4;fill:#0099b0" />
		<path
   class="st16"
   d="m 83.02,118.36 c -2.46,-0.23 0.95,9.07 1.26,9.93 1.93,5.3 4.44,10.37 7.23,15.26 4.86,8.5 10.92,16.15 18.01,22.87 -0.89,-1.49 -1.77,-2.99 -2.61,-4.51 -2.94,-5.39 -5.79,-10.82 -8.71,-16.21 -2.87,-5.28 -5.68,-10.6 -8.63,-15.83 -1.44,-2.56 -3.07,-5.02 -4.43,-7.6 -0.69,-1.32 -1.38,-2.63 -2.11,-3.91 0,0 -0.01,-0.01 -0.01,0 z"
   id="path128"
   inkscape:connector-curvature="0"
   style="opacity:0.4;fill:#0099b0" />
		<g
   id="g132">
			<path
   class="st17"
   d="m 129.88,155.1 c 0.2,-1.19 0.2,-2.28 0.01,-3.32 -0.66,-3.8 -3.67,-6.79 -7.51,-10.48 -4.91,-4.7 -14.64,-7.39 -16.89,-9.4 -2.25,-2.02 -3.91,-7.95 -9.48,-12.58 -5.28,-4.41 -12.03,-2.88 -16.99,0.54 -3,2.07 -4.98,6.35 -4.2,10.84 0.49,2.89 2.16,5.86 5.42,8.36 8.32,6.36 6.43,4.72 13.75,15.78 7.31,11.07 12.5,14.47 16.91,15.02 5.9,0.72 18.04,-9.19 18.98,-14.76 z m -18.86,13.89 c -3.09,-0.39 -8.15,-2.32 -16.3,-14.63 -1.2,-1.82 -2.14,-3.29 -2.94,-4.51 -3.9,-6.03 -4,-6.13 -10.17,-10.84 l -0.83,-0.65 c -2.83,-2.15 -4.59,-4.85 -5.1,-7.82 -0.68,-3.85 0.91,-7.96 3.85,-9.97 8.45,-5.82 14.33,-1.92 15.93,-0.58 3.34,2.78 5.22,6.03 6.74,8.64 0.99,1.72 1.77,3.07 2.71,3.92 0.97,0.88 2.99,1.77 5.53,2.88 3.77,1.67 8.45,3.74 11.34,6.5 4.12,3.96 6.67,6.61 7.26,10 0.17,0.97 0.17,1.97 -0.02,3.05 -0.81,4.93 -12.45,14.71 -18,14.01 z"
   id="path130"
   inkscape:connector-curvature="0"
   style="fill:#d0d1d1" />
		</g>
		<path
   class="st18"
   d="m 128.1,152.42 c 0,0 0.9,-3 -5.41,-0.25 -6.31,2.73 -17.22,12.39 -13.34,15.88 0,0 -3.21,-0.86 -0.35,-5.19 2.86,-4.32 9.41,-10.81 16.02,-12.41 4.83,-1.18 3.08,1.97 3.08,1.97 z"
   id="path134"
   inkscape:connector-curvature="0"
   style="opacity:0.4;fill:#036bb1" />
		<g
   id="g142">
			<path
   class="st19"
   d="m 77.4,122.6 c 1.43,-1.48 2.83,-3.19 4.53,-4.36 0.24,-0.16 1.18,-0.48 1.86,-1.08 0.66,-0.61 1.08,-1.48 -0.4,-1.69 -0.03,-0.01 -0.06,0 -0.08,0 0.04,-0.08 0.08,-0.17 0.12,-0.26 0.15,-0.39 -0.31,-0.82 -0.69,-0.7 -0.21,0.07 -0.41,0.07 -0.3,0 0.48,-0.31 0.46,-0.92 0.01,-1.23 -0.31,-0.22 -0.65,-0.31 -1.01,-0.33 0.27,-0.11 0.12,-0.49 -0.13,-0.51 -1.91,-0.11 -3.48,1.08 -4.95,2.14 -1.24,0.91 -2.51,1.78 -3.1,3.26 -0.2,0.52 0.33,0.88 0.79,0.82 0,0.01 -0.01,0.02 -0.02,0.02 -0.47,0.68 0.43,1.31 1.05,0.97 -0.08,0.14 -0.2,0.28 -0.2,0.42 -0.04,1.28 1.11,0.87 1.11,0.87 0,0 0.07,-0.02 -0.05,0.3 -0.14,0.4 0.15,0.84 0.41,1.03 0.08,0.44 0.68,0.71 1.05,0.33 z"
   id="path136"
   inkscape:connector-curvature="0"
   style="opacity:0.5;fill:#b5ccd7" />
			<g
   class="st4"
   id="g140"
   style="opacity:0.5">
				<path
   class="st20"
   d="m 77.4,122.6 c 1.43,-1.48 2.83,-3.19 4.53,-4.36 0.24,-0.16 1.18,-0.48 1.86,-1.08 0.31,-0.28 0.56,-0.62 0.59,-0.93 -0.05,0.13 -0.14,0.23 -0.31,0.29 -1.87,0.64 -3.4,1.81 -4.84,3.12 -0.6,0.55 -1.4,-0.41 -0.81,-0.95 1.46,-1.32 3.03,-2.53 4.89,-3.22 v 0 c 0.03,-0.05 0.05,-0.11 0.08,-0.17 -0.08,0.03 -0.15,0.06 -0.25,0.07 -1.88,0.26 -3.29,1.8 -4.62,3.02 -0.6,0.55 -1.4,-0.41 -0.81,-0.95 1.3,-1.19 2.67,-2.58 4.4,-3.11 -0.01,0.01 -0.02,0 -0.02,0.01 -1.74,-0.04 -3.76,1.77 -4.71,3.11 -0.47,0.65 -1.49,-0.07 -1.02,-0.73 1.21,-1.7 3.51,-3.6 5.72,-3.63 -0.21,-0.08 -0.43,-0.14 -0.65,-0.15 0.15,-0.06 0.17,-0.19 0.13,-0.3 -1.85,1.01 -3.87,1.82 -5.37,3.35 -0.45,0.46 -1.04,-0.05 -0.97,-0.58 -0.83,0.66 -1.56,1.39 -1.97,2.41 -0.2,0.52 0.33,0.88 0.79,0.82 0,0.01 -0.01,0.02 -0.02,0.02 -0.47,0.68 0.43,1.31 1.05,0.97 -0.08,0.14 -0.2,0.28 -0.2,0.42 -0.04,1.28 1.11,0.87 1.11,0.87 0,0 0.07,-0.02 -0.05,0.3 -0.14,0.4 0.15,0.84 0.41,1.03 0.09,0.46 0.69,0.73 1.06,0.35 z"
   id="path138"
   inkscape:connector-curvature="0"
   style="fill:#acc1cb" />
			</g>
		</g>
	</g>
	<path
   class="st21"
   d="m 78.31,122.92 c 0,0 8.92,-8.96 16.29,-1.95 7.36,7.01 6.49,11.07 10.11,12.97 0,0 5.08,1.87 5.83,2.41 0.74,0.55 -6.35,0.9 -8.86,-1.56 -2.52,-2.46 -5.72,-12.53 -10.4,-13.79 -9.52,-2.55 -12.97,1.92 -12.97,1.92 z"
   id="path146"
   inkscape:connector-curvature="0"
   style="fill:#ffffff" />
	<path
   class="st19"
   d="m 129.45,155.03 c 0.08,-0.42 0.11,-0.83 0.13,-1.24 -0.84,1.23 -1.91,2.35 -2.36,2.83 -2.45,2.61 -5.05,4.97 -8.17,6.74 -1.65,0.92 -3.94,2.27 -5.91,1.87 -1.99,-0.42 -2.17,-2.48 -1.76,-4.18 1.07,-4.36 6.27,-7.33 10.49,-9.17 -4.56,0.66 -8.35,4.54 -12.69,6.11 -5.24,1.91 -8.76,-1.21 -11.13,-5.82 -1.93,-3.76 -3.29,-8.31 -6.71,-11.07 -3.44,-2.78 -7.42,-5.04 -10.11,-8.65 -2,-2.69 -3.36,-5.92 -2.57,-9.33 0.28,-1.2 0.73,-2.32 1.29,-3.35 -0.25,0.17 -0.48,0.31 -0.67,0.44 -3.07,2.11 -4.72,6.39 -4.03,10.41 v 0 c 0.53,3.07 2.35,5.87 5.26,8.09 l 0.84,0.64 c 6.17,4.72 6.17,4.72 10.06,10.74 0.79,1.22 1.75,2.69 2.95,4.51 6.27,9.49 11.55,14.2 16.6,14.83 5.01,0.62 17.47,-8.31 18.49,-14.4 z"
   id="path148"
   inkscape:connector-curvature="0"
   style="opacity:0.5;fill:#b5ccd7" />
</g>































</svg>