<?xml version="1.0" encoding="UTF-8" standalone="no"?>
<!-- Generator: Adobe Illustrator 23.1.0, SVG Export Plug-In . SVG Version: 6.00 Build 0)  -->

<svg
   xmlns:dc="http://purl.org/dc/elements/1.1/"
   xmlns:cc="http://creativecommons.org/ns#"
   xmlns:rdf="http://www.w3.org/1999/02/22-rdf-syntax-ns#"
   xmlns:svg="http://www.w3.org/2000/svg"
   xmlns="http://www.w3.org/2000/svg"
   xmlns:sodipodi="http://sodipodi.sourceforge.net/DTD/sodipodi-0.dtd"
   xmlns:inkscape="http://www.inkscape.org/namespaces/inkscape"
   version="1.1"
   id="Layer_1"
   x="0px"
   y="0px"
   viewBox="0 0 151.1811 151.18109"
   xml:space="preserve"
   sodipodi:docname="2.1.2.svg"
   width="40mm"
   height="40mm"
   inkscape:version="0.92.4 (5da689c313, 2019-01-14)"><metadata
   id="metadata4529"><rdf:RDF><cc:Work
       rdf:about=""><dc:format>image/svg+xml</dc:format><dc:type
         rdf:resource="http://purl.org/dc/dcmitype/StillImage" /><dc:title></dc:title></cc:Work></rdf:RDF></metadata><defs
   id="defs4527" /><sodipodi:namedview
   pagecolor="#ffffff"
   bordercolor="#666666"
   borderopacity="1"
   objecttolerance="10"
   gridtolerance="10"
   guidetolerance="10"
   inkscape:pageopacity="0"
   inkscape:pageshadow="2"
   inkscape:window-width="1024"
   inkscape:window-height="709"
   id="namedview4525"
   showgrid="false"
   units="mm"
   inkscape:zoom="1.1213358"
   inkscape:cx="129.06494"
   inkscape:cy="121.15453"
   inkscape:window-x="0"
   inkscape:window-y="30"
   inkscape:window-maximized="1"
   inkscape:current-layer="Layer_1" />
<style
   type="text/css"
   id="style2">
	.st0{fill:#67A8DB;}
	.st1{opacity:0.4;fill:#327CC0;}
	.st2{fill:#5299D3;}
	.st3{opacity:0.4;fill:#67A8DB;}
	.st4{opacity:0.5;}
	.st5{fill:#5CA1D7;}
	.st6{opacity:0.6;fill:#93C2E8;}
	.st7{opacity:0.6;fill:#67A8DB;}
	.st8{fill:#E76362;}
	.st9{opacity:0.4;fill:#D02527;}
	.st10{fill:#E14949;}
	.st11{opacity:0.4;fill:#E76362;}
	.st12{fill:#E45556;}
	.st13{opacity:0.6;fill:#EF9292;}
	.st14{opacity:0.6;fill:#E76362;}
	.st15{opacity:0.5;fill:#D2EEF9;}
	.st16{opacity:0.4;fill:#0099B0;}
	.st17{fill:#D0D1D1;}
	.st18{opacity:0.4;fill:#036BB1;}
	.st19{opacity:0.5;fill:#B5CCD7;}
	.st20{fill:#ACC1CB;}
	.st21{fill:#FFFFFF;}
	.st22{fill:#DFEFE7;}
	.st23{opacity:0.9;fill:#7ED0E0;}
	.st24{opacity:0.9;fill:#62C2CB;}
	.st25{opacity:0.9;fill:#41B3BF;}
	.st26{fill:#B1C8BC;}
	.st27{fill:#E21E26;}
	.st28{fill:#C1C0C0;}
	.st29{fill:#FCCE08;}
	.st30{opacity:0.7;}
	.st31{fill:#C8C7C6;}
	.st32{opacity:0.9;}
	.st33{fill:#41B3BF;}
	.st34{fill:#E75524;}
	.st35{fill:#62BE6B;}
	.st36{opacity:0.7;fill:#A6A6A6;}
	.st37{opacity:0.3;fill:#5BB353;}
	.st38{fill:#D1D1D1;}
	.st39{fill:#5BB353;}
	.st40{fill:#EDEDED;}
	.st41{fill:#DBDBDB;}
	.st42{fill:#F7F7F7;}
	.st43{fill:#E0E0E0;}
	.st44{fill:#EBEBEB;}
	.st45{fill:#811E18;}
	.st46{fill:#BC2025;}
	.st47{fill:#EB2024;}
	.st48{opacity:0.7;fill:#93CACB;}
	.st49{opacity:0.4;}
	.st50{fill:#919898;}
	.st51{fill:#C2CACB;}
	.st52{opacity:0.4;fill:#82C7DE;}
	.st53{opacity:0.8;fill:#FFFFFF;}
	.st54{opacity:0.5;fill:#FFFFFF;}
	.st55{fill:#FABE79;}
	.st56{fill:#F6AB62;}
	.st57{opacity:0.6;fill:#AE7B47;}
	.st58{fill:#B48049;}
	.st59{fill:#9B703F;}
	.st60{opacity:0.3;fill:#AE7B47;}
	.st61{opacity:0.3;}
	.st62{fill:#9C703E;}
	.st63{opacity:0.3;fill:#9B703F;}
	.st64{opacity:0.5;fill:#F6AB62;}
	.st65{opacity:0.4;fill:#FABE79;}
	.st66{fill:#DBDADA;}
	.st67{opacity:0.4;fill:#B2B4B7;}
	.st68{opacity:0.2;fill:#C1C1B7;}
	.st69{fill:#C2C2C2;}
	.st70{opacity:0.5;fill:#C2C2C2;}
	.st71{fill:#E5E1C6;}
	.st72{opacity:0.5;fill:#D4D1B8;}
	.st73{fill:#E3E3E3;}
	.st74{opacity:0.8;fill:#D4D1B8;}
	.st75{fill:#D4D1B8;}
	.st76{opacity:0.5;fill:#D0B9AD;}
	.st77{opacity:0.4;fill:#D4D1B8;}
	.st78{fill:#D2D1CE;}
	.st79{opacity:0.4;fill:#D2D1CE;}
	.st80{opacity:0.4;fill:#C2C2C2;}
	.st81{fill:#BFC1B8;}
	.st82{fill:#CB484F;}
	.st83{fill:#A7A9A0;}
	.st84{fill:#C3979C;}
	.st85{fill:#C7B88F;}
	.st86{fill:#9ACACB;}
	.st87{fill:#A8A8AB;}
	.st88{opacity:0.6;fill:#BE9C7A;}
	.st89{fill:#A4A391;}
	.st90{opacity:0.6;fill:#C2C2C2;}
	.st91{fill:#789D99;}
	.st92{opacity:0.4;fill:#789D99;}
	.st93{fill:#D1CEB6;}
	.st94{fill:#B8B6A1;}
	.st95{fill:#BAB8A3;}
	.st96{fill:#ABAA97;}
	.st97{fill:#E4E4E2;}
	.st98{opacity:0.6;}
	.st99{fill:#BEA18D;}
	.st100{opacity:0.3;fill:#BEA18D;}
	.st101{opacity:0.2;fill:#BEA18D;}
	.st102{fill:#D9BDA6;}
	.st103{fill:#CCAD93;}
	.st104{fill:#603412;}
	.st105{opacity:0.5;fill:#93816B;}
	.st106{opacity:0.4;fill:#331C0F;}
	.st107{fill:#93816B;}
	.st108{fill:#331C0F;}
	.st109{opacity:0.5;fill:#FFF7EA;}
	.st110{fill:#3F2612;}
	.st111{fill:#D62839;}
	.st112{fill:#F9AE9C;}
	.st113{fill:#4B632D;}
	.st114{opacity:0.5;fill:#86926B;}
	.st115{opacity:0.4;fill:#2E3618;}
	.st116{fill:#86926B;}
	.st117{fill:#2E3618;}
	.st118{opacity:0.5;fill:#F7F9E8;}
	.st119{fill:#34411B;}
	.st120{fill:#D59829;}
	.st121{fill:#FAF39E;}
	.st122{fill:#242424;}
	.st123{fill:#333232;}
	.st124{fill:#5D5D5D;}
	.st125{fill:#161616;}
	.st126{fill:#B3B3B3;}
	.st127{fill:#1A1A1A;}
	.st128{fill:#48893F;}
	.st129{fill:#FBAE1C;}
	.st130{fill:#759C3F;}
	.st131{fill:#56692F;}
	.st132{fill:#CAD631;}
	.st133{opacity:0.7;fill:#A66227;}
	.st134{fill:#BBBBBB;}
	.st135{fill:#A03B22;}
	.st136{fill:#C17529;}
	.st137{fill:#F47B2A;}
	.st138{fill:#792816;}
	.st139{fill:#FFF4EC;}
	.st140{fill:#89361C;}
	.st141{fill:#C3AC9E;}
	.st142{fill:#D3C1B9;}
	.st143{fill:#E2E1D5;}
	.st144{fill:#343225;}
	.st145{fill:#040406;}
	.st146{opacity:0.5;fill:#343225;}
	.st147{fill:#4C4333;}
	.st148{fill:#89877B;}
	.st149{fill:url(#SVGID_3_);}
	.st150{fill:url(#SVGID_4_);}
	.st151{opacity:0.5;fill:url(#SVGID_5_);}
	.st152{fill:url(#SVGID_6_);}
	.st153{fill:url(#SVGID_7_);}
	.st154{fill:url(#SVGID_8_);}
	.st155{fill:url(#SVGID_9_);}
	.st156{fill:url(#SVGID_10_);}
	.st157{opacity:0.3;fill:url(#SVGID_11_);}
	.st158{opacity:0.3;fill:url(#SVGID_12_);}
	.st159{fill:url(#SVGID_13_);}
	.st160{fill:url(#SVGID_14_);}
	.st161{fill:url(#SVGID_15_);}
	.st162{fill:url(#SVGID_16_);}
	.st163{fill:url(#SVGID_17_);}
	.st164{fill:url(#SVGID_18_);}
	.st165{opacity:0.7;fill:url(#SVGID_19_);}
	.st166{fill:url(#SVGID_20_);}
	.st167{filter:url(#Adobe_OpacityMaskFilter);}
	.st168{fill:url(#SVGID_22_);}
	.st169{opacity:0.7;mask:url(#SVGID_21_);fill:url(#SVGID_23_);}
	.st170{fill:url(#SVGID_24_);}
	.st171{opacity:0.5;fill:url(#SVGID_25_);}
	.st172{opacity:0.5;fill:url(#SVGID_26_);}
	.st173{opacity:0.3;fill:url(#SVGID_27_);}
	.st174{filter:url(#Adobe_OpacityMaskFilter_1_);}
	.st175{filter:url(#Adobe_OpacityMaskFilter_2_);}
	.st176{mask:url(#SVGID_28_);fill:url(#SVGID_29_);}
	.st177{fill:url(#SVGID_30_);}
	.st178{filter:url(#Adobe_OpacityMaskFilter_3_);}
	.st179{opacity:0.8;fill:url(#SVGID_32_);}
	.st180{mask:url(#SVGID_31_);}
	.st181{filter:url(#Adobe_OpacityMaskFilter_4_);}
	.st182{filter:url(#Adobe_OpacityMaskFilter_5_);}
	.st183{fill:url(#SVGID_33_);}
	.st184{fill:url(#SVGID_34_);}
	.st185{filter:url(#Adobe_OpacityMaskFilter_6_);}
	.st186{filter:url(#Adobe_OpacityMaskFilter_7_);}
	.st187{mask:url(#SVGID_35_);fill:url(#SVGID_36_);}
	.st188{opacity:0.6;fill:url(#SVGID_37_);}
	.st189{opacity:0.9;fill:url(#SVGID_38_);}
	.st190{fill:url(#SVGID_39_);}
	.st191{opacity:0.3;fill:url(#SVGID_40_);}
	.st192{opacity:0.3;fill:url(#SVGID_41_);}
	.st193{opacity:0.8;fill:url(#SVGID_42_);}
	.st194{fill:#F7DDBC;}
	.st195{fill:#D9B48A;}
	.st196{opacity:0.5;fill:#F7DDBC;}
	.st197{opacity:0.3;fill:#DEAA79;}
	.st198{opacity:0.3;fill:#A47348;}
	.st199{opacity:0.5;fill:#DEAA79;}
	.st200{opacity:0.5;fill:#A47348;}
	.st201{opacity:0.3;fill:#BE905C;}
	.st202{fill:#FFEBD7;}
	.st203{opacity:0.3;fill:#DEB485;}
	.st204{opacity:0.3;fill:#8F622F;}
	.st205{opacity:0.2;fill:#BA915C;}
	.st206{opacity:0.2;fill:#BE905C;}
	.st207{opacity:0.3;fill:#D5AD7A;}
	.st208{opacity:0.5;fill:#D5AD7A;}
	.st209{fill:#17ADE4;}
	.st210{fill:#F99B1C;}
	.st211{opacity:0.2;fill:#D59B29;}
	.st212{opacity:0.5;fill:#D59B29;}
	.st213{opacity:0.5;fill:#B8802B;}
	.st214{fill:#FAD00A;}
	.st215{fill:#EEA320;}
	.st216{opacity:0.4;fill:#FAD00A;}
	.st217{opacity:0.7;fill:#FAD00A;}
	.st218{opacity:0.7;fill:#E7C249;}
	.st219{opacity:0.7;fill:#E9B44A;}
	.st220{fill:#3A5728;}
	.st221{opacity:0.3;fill:#3A5728;}
	.st222{opacity:0.5;fill:#3A5728;}
	.st223{opacity:0.3;fill:#6D9D40;}
	.st224{opacity:0.3;fill:#547B38;}
	.st225{fill:#1C2C17;}
	.st226{opacity:0.3;fill:#1A381C;}
	.st227{fill:#152A17;}
	.st228{fill:#F8BC16;}
	.st229{opacity:0.2;fill:#F8BC16;}
	.st230{opacity:0.1;fill:#F8BC16;}
	.st231{opacity:0.3;fill:#E09426;}
	.st232{opacity:0.3;fill:#D98B28;}
	.st233{fill:#CE6F28;}
	.st234{fill:#A65225;}
	.st235{fill:#D88E28;}
	.st236{fill:#BD6728;}
	.st237{fill:#F09F20;}
	.st238{fill:#D37A28;}
	.st239{fill:#A2C83A;}
	.st240{opacity:0.2;fill:#A2C83A;}
	.st241{fill:#ECACCE;}
	.st242{fill:#CB6BAA;}
	.st243{fill:#FACB84;}
	.st244{fill:#F8BA58;}
	.st245{fill:#F3A846;}
	.st246{opacity:0.5;fill:#FACB84;}
	.st247{opacity:0.5;fill:#F8BA58;}
	.st248{fill:#80461D;}
	.st249{opacity:0.7;fill:#ECACCE;}
	.st250{opacity:0.7;fill:#FACB84;}
	.st251{fill:#356531;}
	.st252{opacity:0.2;fill:#356531;}
	.st253{opacity:0.5;fill:#356531;}
	.st254{fill:#508B3F;}
	.st255{fill:#117A3D;}
	.st256{opacity:0.4;fill:#508B3F;}
	.st257{opacity:0.7;fill:#508B3F;}
	.st258{fill:#467135;}
	.st259{opacity:0.2;fill:#467135;}
	.st260{opacity:0.3;fill:#467135;}
	.st261{fill:#203C1C;}
	.st262{fill:#142716;}
	.st263{fill:#325628;}
	.st264{fill:#193019;}
	.st265{fill:#20552A;}
	.st266{opacity:0.5;fill:#508B3F;}
	.st267{opacity:0.5;fill:#A2C83A;}
	.st268{fill:#88171A;}
	.st269{fill:#C02326;}
	.st270{fill:#A61E22;}
	.st271{opacity:0.4;fill:#C02326;}
	.st272{opacity:0.7;fill:#C02326;}
	.st273{opacity:0.2;fill:#A61E22;}
	.st274{opacity:0.3;fill:#A61E22;}
	.st275{fill:#62130C;}
	.st276{fill:#451310;}
	.st277{fill:#791514;}
	.st278{fill:#861719;}
	.st279{fill:#FECF0A;}
	.st280{opacity:0.4;fill:#C6A239;}
	.st281{opacity:0.2;fill:#E4A33A;}
	.st282{opacity:0.3;fill:#B8A137;}
	.st283{opacity:0.3;fill:#FECF0A;}
	.st284{fill:#F5B41A;}
	.st285{opacity:0.6;fill:#CFAE2B;}
	.st286{opacity:0.4;fill:#CFAE2B;}
	.st287{fill:#98772C;}
	.st288{fill:#FFD86D;}
	.st289{fill:#E59F24;}
	.st290{fill:#ECB31F;}
	.st291{fill:#E8B321;}
	.st292{opacity:0.3;fill:#E4A33A;}
	.st293{opacity:0.3;fill:#D48E64;}
	.st294{opacity:0.2;fill:#C6A239;}
	.st295{fill:#FDEB07;stroke:#E0E1E0;stroke-width:0;stroke-linecap:round;stroke-linejoin:round;}
	.st296{fill:#BCBAA3;}
	.st297{fill:#55813B;}
	.st298{fill:#32421B;}
	.st299{opacity:0.3;fill:#517636;}
	.st300{fill:#6E953E;}
	.st301{opacity:0.2;fill:#3A5728;}
	.st302{fill:#42793A;}
	.st303{fill:#F6871F;}
	.st304{opacity:0.2;fill:#E66725;}
	.st305{fill:#D65027;}
	.st306{fill:#CB5727;}
	.st307{opacity:0.2;}
	.st308{fill:#AD6427;}
	.st309{opacity:0.3;fill:#E66725;}
	.st310{opacity:0.5;fill:#DC8127;}
	.st311{fill:#D5D1C5;}
	.st312{fill:#DCB399;}
	.st313{fill:#EAC6AF;}
	.st314{opacity:0.5;fill:#EAC6AF;}
	.st315{opacity:0.5;fill:#E9DEDE;}
	.st316{opacity:0.6;fill:#E9DEDE;}
	.st317{fill:#F7D8C1;}
	.st318{fill:none;}
	.st319{opacity:0.3;fill:#C49374;}
	.st320{fill:#6F903C;}
	.st321{opacity:0.4;fill:#3A5728;}
	.st322{opacity:0.5;fill:#6F903C;}
	.st323{opacity:0.5;fill:#7C963B;}
	.st324{fill:#516A30;}
	.st325{opacity:0.2;fill:#E0E1E0;}
	.st326{opacity:0.2;fill:#C2CACB;}
	.st327{opacity:0.5;fill:#C2CACB;}
	.st328{opacity:0.2;fill:#645C51;}
	.st329{fill:#FAFAFA;}
	.st330{fill:#D6D6D6;}
	.st331{opacity:0.3;fill:#B4C0B2;}
	.st332{fill:#BDBDBD;}
	.st333{fill:#961B1E;}
	.st334{fill:#AF2F24;}
	.st335{fill:#C53127;}
	.st336{fill:#76533F;}
	.st337{fill:#533A2A;}
	.st338{opacity:0.7;fill:#E94466;}
	.st339{fill:#D91F26;}
	.st340{fill:#F6DAB4;}
	.st341{fill:#D2A47F;}
	.st342{fill:#B4B4B4;}
	.st343{fill:#E88B38;}
	.st344{fill:#FBAD47;}
	.st345{fill:#CFB581;}
	.st346{fill:#594D41;}
	.st347{fill:#FDF8F2;}
	.st348{opacity:0.5;fill:#E88B38;}
	.st349{fill:#DDDCD8;}
	.st350{opacity:0.8;fill:#E88B38;}
	.st351{opacity:0.5;fill:#594D41;}
	.st352{fill:#F89A1C;}
	.st353{opacity:0.4;fill:#FDC110;}
	.st354{fill:#FEE600;}
	.st355{fill:#FDC110;}
	.st356{fill:#7CBDE8;}
	.st357{opacity:0.6;fill:#5BB353;}
	.st358{fill:#046CA6;}
	.st359{opacity:0.3;fill:#046CA6;}
	.st360{opacity:0.3;fill:#20ABE3;}
	.st361{fill:#754138;}
	.st362{fill:#6A2116;}
	.st363{fill:#381512;}
</style>



<g
   id="g216"
   transform="translate(-1.7835958,-125.72864)">
	<g
   id="g168">
		<g
   id="g162">
			<path
   class="st22"
   d="m 61.3,183.22 c -1.33,-0.94 -2.41,-1.7 -2.94,-2.04 -2.17,-1.45 -3.71,-2.37 -4.72,-1.29 -4.31,4.48 -5.9,10.02 -5.9,10.02 l 2.32,1.1 c 0,0 4.39,-7.97 5.38,-7.67 0.59,0.29 1.99,1.28 3.71,2.54 0.31,-0.48 0.67,-0.97 1.05,-1.48 0.37,-0.4 0.74,-0.8 1.1,-1.18 z"
   id="path152"
   inkscape:connector-curvature="0"
   style="fill:#dfefe7" />
			<path
   class="st22"
   d="m 69.75,193.95 2.3,-3 c 0,0 -0.02,-0.01 -0.06,-0.03 -0.78,1.09 -1.54,2.09 -2.26,3.02 z"
   id="path154"
   inkscape:connector-curvature="0"
   style="fill:#dfefe7" />
			<path
   class="st23"
   d="m 61.3,183.22 c 3.93,2.8 10.05,7.22 10.69,7.69 1.8,-2.52 3.73,-5.5 5.72,-8.98 -3.49,-3.39 -10.75,-4.32 -16.41,1.29 z"
   id="path156"
   inkscape:connector-curvature="0"
   style="opacity:0.9;fill:#7ed0e0" />
			<path
   class="st23"
   d="m 60.42,203.16 c 0,0 3.83,-2.32 9.31,-9.23 -0.45,-0.35 -6.42,-4.99 -10.56,-8.04 -7.04,10.61 1.25,17.27 1.25,17.27 z"
   id="path158"
   inkscape:connector-curvature="0"
   style="opacity:0.9;fill:#7ed0e0" />
			<path
   class="st24"
   d="m 60.22,184.41 c -0.39,0.51 -0.74,1 -1.05,1.48 4.15,3.05 10.11,7.69 10.56,8.04 0.72,-0.92 1.49,-1.93 2.26,-3.02 -0.63,-0.47 -6.76,-4.89 -10.69,-7.69 -0.36,0.38 -0.73,0.78 -1.08,1.19 z"
   id="path160"
   inkscape:connector-curvature="0"
   style="opacity:0.9;fill:#62c2cb" />
		</g>
		<path
   class="st23"
   d="m 59.98,204.61 1.96,1.36 1.36,-0.55 c 0,0 10.09,-6.61 17.64,-21.64 l 0.3,-0.94 -1.98,-1.56 c -8.19,16.39 -19.28,23.33 -19.28,23.33 z"
   id="path164"
   inkscape:connector-curvature="0"
   style="opacity:0.9;fill:#7ed0e0" />
		<path
   class="st25"
   d="m 60.42,203.16 -0.44,1.46 c 0,0 11.09,-6.94 19.29,-23.34 0,0 0,0 -1.56,0.65 -9.34,16.42 -17.29,21.23 -17.29,21.23 z"
   id="path166"
   inkscape:connector-curvature="0"
   style="opacity:0.9;fill:#41b3bf" />
	</g>
	<g
   id="g178">
		<path
   class="st26"
   d="m 55.67,183.47 c 0,0 0.03,-0.21 0.1,-0.53 0.07,-0.32 0.18,-0.75 0.31,-1.17 0.14,-0.42 0.29,-0.83 0.41,-1.13 0.13,-0.31 0.23,-0.51 0.23,-0.51 0,0 -0.02,0.22 -0.09,0.54 -0.07,0.33 -0.19,0.75 -0.32,1.16 -0.14,0.42 -0.28,0.84 -0.41,1.14 -0.12,0.32 -0.23,0.5 -0.23,0.5 z"
   id="path170"
   inkscape:connector-curvature="0"
   style="fill:#b1c8bc" />
		<path
   class="st26"
   d="m 55.36,183.3 c 0,0 0,-0.06 0,-0.16 -0.01,-0.09 -0.02,-0.24 -0.03,-0.41 -0.01,-0.36 -0.01,-0.82 0.02,-1.28 0.03,-0.46 0.07,-0.92 0.12,-1.27 0.03,-0.17 0.05,-0.31 0.08,-0.41 0.01,-0.11 0.02,-0.16 0.02,-0.16 0,0 0.01,0.05 0.02,0.16 0.01,0.1 0.02,0.24 0.02,0.42 0.01,0.36 0.01,0.81 -0.02,1.28 -0.02,0.45 -0.07,0.91 -0.12,1.26 -0.02,0.18 -0.05,0.31 -0.06,0.41 -0.04,0.11 -0.05,0.16 -0.05,0.16 z"
   id="path172"
   inkscape:connector-curvature="0"
   style="fill:#b1c8bc" />
		<path
   class="st26"
   d="m 55.12,183.41 c 0,0 -0.02,-0.07 -0.05,-0.17 -0.02,-0.1 -0.06,-0.26 -0.11,-0.44 -0.09,-0.36 -0.19,-0.85 -0.27,-1.35 -0.08,-0.49 -0.14,-0.99 -0.16,-1.36 -0.02,-0.19 -0.02,-0.34 -0.03,-0.45 -0.01,-0.11 -0.01,-0.18 -0.01,-0.18 0,0 0.02,0.07 0.05,0.17 0.03,0.1 0.06,0.25 0.12,0.43 0.09,0.37 0.18,0.86 0.26,1.35 0.08,0.49 0.13,0.99 0.17,1.36 0.03,0.18 0.02,0.34 0.02,0.45 0.01,0.12 0.01,0.19 0.01,0.19 z"
   id="path174"
   inkscape:connector-curvature="0"
   style="fill:#b1c8bc" />
		<path
   class="st26"
   d="m 54.85,183.68 c 0,0 -0.04,-0.06 -0.07,-0.17 -0.04,-0.11 -0.09,-0.25 -0.16,-0.44 -0.13,-0.38 -0.27,-0.87 -0.4,-1.36 -0.13,-0.5 -0.24,-1.02 -0.3,-1.39 -0.04,-0.2 -0.06,-0.35 -0.07,-0.47 -0.02,-0.11 -0.02,-0.19 -0.02,-0.19 0,0 0.04,0.07 0.07,0.17 0.04,0.1 0.1,0.25 0.17,0.44 0.12,0.37 0.27,0.87 0.4,1.36 0.13,0.5 0.23,1 0.31,1.39 0.03,0.19 0.05,0.35 0.07,0.47 0,0.12 0,0.19 0,0.19 z"
   id="path176"
   inkscape:connector-curvature="0"
   style="fill:#b1c8bc" />
	</g>
	<g
   id="g182">
		<path
   class="st22"
   d="m 54.03,182.8 c -1.34,1.58 -3.95,5.83 -5.08,7.68 l 1.12,0.54 c 0,0 4.39,-7.97 5.38,-7.67 2.05,1.04 14.3,10.6 14.3,10.6 l 0.91,-1.19 c -1.61,-1.3 -5.08,-4.05 -8.19,-6.35 -4.77,-3.51 -6.72,-5.67 -8.44,-3.61 z"
   id="path180"
   inkscape:connector-curvature="0"
   style="fill:#dfefe7" />
	</g>
	<path
   class="st27"
   d="m 96.49,200.96 c -1.35,-0.84 -2.86,-1.57 -4.12,-2.56 -0.98,-0.76 -1.7,-1.71 -2.38,-2.73 -0.91,-1.36 -1.83,-2.71 -2.77,-4.05 -0.94,-1.36 -1.85,-2.77 -2.91,-4.05 -0.52,-0.63 -1.07,-1.25 -1.54,-1.91 -1.14,-1.17 -1.81,-1.86 -1.81,-1.86 -7.55,15.03 -17.64,21.64 -17.64,21.64 l 26.74,16.83 c 0,0 10.68,-4.8 13.27,-15.75 -1.04,-1.01 -5.69,-4.87 -6.84,-5.56 z"
   id="path184"
   inkscape:connector-curvature="0"
   style="fill:#e21e26" />
	<g
   id="g188">
		<path
   class="st28"
   d="m 63.31,205.43 26.74,16.83 c 0,0 1.65,-0.75 3.82,-2.33 l -26.63,-17.7 c -2.36,2.17 -3.93,3.2 -3.93,3.2 z"
   id="path186"
   inkscape:connector-curvature="0"
   style="fill:#c1c0c0" />
	</g>
	<path
   class="st29"
   d="m 92.67,198.19 c -0.99,-0.76 -1.73,-1.74 -2.42,-2.78 -0.91,-1.38 -1.85,-2.75 -2.8,-4.11 -0.53,-0.78 -1.07,-1.57 -1.62,-2.35 -6,16.28 -16.98,20.62 -16.98,20.62 0,0 2.44,1.72 12.71,8.54 C 91,213.42 95.15,204 96.41,200.5 c -1.26,-0.74 -2.59,-1.43 -3.74,-2.31 z"
   id="path190"
   inkscape:connector-curvature="0"
   style="fill:#fcce08" />
	<path
   class="st21"
   d="m 68.6,184.12 c 2.25,-0.34 3.95,-1.48 3.79,-2.56 -0.16,-1.07 -2.13,-1.66 -4.38,-1.32 -2.26,0.34 -3.96,1.49 -3.79,2.56 0.15,1.08 2.11,1.67 4.38,1.32 z"
   id="path192"
   inkscape:connector-curvature="0"
   style="fill:#ffffff" />
	<path
   class="st21"
   d="m 74.39,182.35 c 0.31,0.05 0.6,-0.06 0.63,-0.25 0.03,-0.19 -0.2,-0.39 -0.5,-0.44 -0.31,-0.06 -0.59,0.05 -0.62,0.25 -0.05,0.19 0.18,0.38 0.49,0.44 z"
   id="path194"
   inkscape:connector-curvature="0"
   style="fill:#ffffff" />
	<g
   class="st30"
   id="g198"
   style="opacity:0.7">
		<path
   class="st31"
   d="m 68.88,209.62 c 0,0 2.39,1.71 12.54,8.43 1.2,-0.6 1.93,-1.03 2.96,-1.76 l -12.36,-8.45 c -1.89,1.28 -3.14,1.78 -3.14,1.78 z"
   id="path196"
   inkscape:connector-curvature="0"
   style="fill:#c8c7c6" />
	</g>
	<path
   class="st31"
   d="m 80.38,188.72 c 1.45,2.28 3.12,4.41 4.45,6.77 0.01,0.03 0.01,0.06 -0.02,0.07 -0.84,0.63 -1.65,1.29 -2.47,1.93 1.45,0.07 2.93,-0.03 4.38,0.11 0.04,0.01 0.12,0.04 0.12,0.09 0.12,3.88 -0.98,7.61 -1.83,11.36 2.7,-1.41 4.66,-4.03 6.54,-6.34 0.05,-0.05 0.12,-0.04 0.18,0 3.61,2.05 7.28,4.03 10.99,5.88 0.24,-0.67 0.44,-1.37 0.61,-2.08 -1.03,-1 -5.68,-4.86 -6.83,-5.55 -0.07,-0.05 -0.14,-0.09 -0.21,-0.13 0.04,-0.11 0.08,-0.22 0.12,-0.32 -1.26,-0.75 -2.59,-1.43 -3.74,-2.31 -0.99,-0.76 -1.73,-1.74 -2.42,-2.78 -0.91,-1.38 -1.85,-2.75 -2.8,-4.11 -0.53,-0.78 -1.07,-1.57 -1.62,-2.35 -0.05,0.14 -0.1,0.27 -0.15,0.41 -0.44,-0.63 -0.89,-1.23 -1.37,-1.81 -0.52,-0.63 -1.07,-1.25 -1.54,-1.91 -1.14,-1.17 -1.81,-1.86 -1.81,-1.86 -0.56,1.09 -1.11,2.15 -1.69,3.16 0.37,0.59 0.74,1.19 1.11,1.77 z"
   id="path200"
   inkscape:connector-curvature="0"
   style="fill:#c8c7c6" />
	<g
   id="g204">
		<path
   class="st28"
   d="m 81.43,184.27 c -0.31,-0.31 -0.48,-0.49 -0.48,-0.49 -7.55,15.03 -17.64,21.64 -17.64,21.64 l 0.69,0.43 c 10.46,-7.53 16.14,-18.81 17.43,-21.58 z"
   id="path202"
   inkscape:connector-curvature="0"
   style="fill:#c1c0c0" />
	</g>
	<g
   class="st32"
   id="g208"
   style="opacity:0.9">
		<path
   class="st33"
   d="m 60.13,184.52 c -0.5,0.67 -0.96,1.31 -1.35,1.96 l 10.45,8.08 c 0.46,-0.56 0.92,-1.16 1.39,-1.78 -3.57,-2.66 -7.11,-5.36 -10.49,-8.26 z"
   id="path206"
   inkscape:connector-curvature="0"
   style="fill:#41b3bf" />
	</g>
	<polygon
   class="st29"
   points="81.87,198.19 85.57,198.36 84.33,208.56 82.95,200.69 "
   id="polygon210"
   style="fill:#fcce08" />
	<path
   class="st34"
   d="m 94.77,205.28 7.06,4.05 c 0,0 -0.92,2.53 -1.72,3.41 l -6.66,-4.93 z"
   id="path212"
   inkscape:connector-curvature="0"
   style="fill:#e75524" />
	<polygon
   class="st34"
   points="79.61,188.74 82.92,193.74 81.34,197.34 77.41,191.92 "
   id="polygon214"
   style="fill:#e75524" />
</g>






























</svg>