<?xml version="1.0" encoding="UTF-8" standalone="no"?>
<!-- Generator: Adobe Illustrator 23.1.0, SVG Export Plug-In . SVG Version: 6.00 Build 0)  -->

<svg
   xmlns:dc="http://purl.org/dc/elements/1.1/"
   xmlns:cc="http://creativecommons.org/ns#"
   xmlns:rdf="http://www.w3.org/1999/02/22-rdf-syntax-ns#"
   xmlns:svg="http://www.w3.org/2000/svg"
   xmlns="http://www.w3.org/2000/svg"
   xmlns:sodipodi="http://sodipodi.sourceforge.net/DTD/sodipodi-0.dtd"
   xmlns:inkscape="http://www.inkscape.org/namespaces/inkscape"
   version="1.1"
   id="Layer_1"
   x="0px"
   y="0px"
   viewBox="0 0 151.1811 151.18109"
   xml:space="preserve"
   sodipodi:docname="2.2.4.svg"
   width="40mm"
   height="40mm"
   inkscape:version="0.92.4 (5da689c313, 2019-01-14)"><metadata
   id="metadata4529"><rdf:RDF><cc:Work
       rdf:about=""><dc:format>image/svg+xml</dc:format><dc:type
         rdf:resource="http://purl.org/dc/dcmitype/StillImage" /><dc:title></dc:title></cc:Work></rdf:RDF></metadata><defs
   id="defs4527" /><sodipodi:namedview
   pagecolor="#ffffff"
   bordercolor="#666666"
   borderopacity="1"
   objecttolerance="10"
   gridtolerance="10"
   guidetolerance="10"
   inkscape:pageopacity="0"
   inkscape:pageshadow="2"
   inkscape:window-width="1024"
   inkscape:window-height="709"
   id="namedview4525"
   showgrid="false"
   units="mm"
   inkscape:zoom="1.1213358"
   inkscape:cx="185.22355"
   inkscape:cy="125.24037"
   inkscape:window-x="0"
   inkscape:window-y="30"
   inkscape:window-maximized="1"
   inkscape:current-layer="Layer_1" />
<style
   type="text/css"
   id="style2">
	.st0{fill:#67A8DB;}
	.st1{opacity:0.4;fill:#327CC0;}
	.st2{fill:#5299D3;}
	.st3{opacity:0.4;fill:#67A8DB;}
	.st4{opacity:0.5;}
	.st5{fill:#5CA1D7;}
	.st6{opacity:0.6;fill:#93C2E8;}
	.st7{opacity:0.6;fill:#67A8DB;}
	.st8{fill:#E76362;}
	.st9{opacity:0.4;fill:#D02527;}
	.st10{fill:#E14949;}
	.st11{opacity:0.4;fill:#E76362;}
	.st12{fill:#E45556;}
	.st13{opacity:0.6;fill:#EF9292;}
	.st14{opacity:0.6;fill:#E76362;}
	.st15{opacity:0.5;fill:#D2EEF9;}
	.st16{opacity:0.4;fill:#0099B0;}
	.st17{fill:#D0D1D1;}
	.st18{opacity:0.4;fill:#036BB1;}
	.st19{opacity:0.5;fill:#B5CCD7;}
	.st20{fill:#ACC1CB;}
	.st21{fill:#FFFFFF;}
	.st22{fill:#DFEFE7;}
	.st23{opacity:0.9;fill:#7ED0E0;}
	.st24{opacity:0.9;fill:#62C2CB;}
	.st25{opacity:0.9;fill:#41B3BF;}
	.st26{fill:#B1C8BC;}
	.st27{fill:#E21E26;}
	.st28{fill:#C1C0C0;}
	.st29{fill:#FCCE08;}
	.st30{opacity:0.7;}
	.st31{fill:#C8C7C6;}
	.st32{opacity:0.9;}
	.st33{fill:#41B3BF;}
	.st34{fill:#E75524;}
	.st35{fill:#62BE6B;}
	.st36{opacity:0.7;fill:#A6A6A6;}
	.st37{opacity:0.3;fill:#5BB353;}
	.st38{fill:#D1D1D1;}
	.st39{fill:#5BB353;}
	.st40{fill:#EDEDED;}
	.st41{fill:#DBDBDB;}
	.st42{fill:#F7F7F7;}
	.st43{fill:#E0E0E0;}
	.st44{fill:#EBEBEB;}
	.st45{fill:#811E18;}
	.st46{fill:#BC2025;}
	.st47{fill:#EB2024;}
	.st48{opacity:0.7;fill:#93CACB;}
	.st49{opacity:0.4;}
	.st50{fill:#919898;}
	.st51{fill:#C2CACB;}
	.st52{opacity:0.4;fill:#82C7DE;}
	.st53{opacity:0.8;fill:#FFFFFF;}
	.st54{opacity:0.5;fill:#FFFFFF;}
	.st55{fill:#FABE79;}
	.st56{fill:#F6AB62;}
	.st57{opacity:0.6;fill:#AE7B47;}
	.st58{fill:#B48049;}
	.st59{fill:#9B703F;}
	.st60{opacity:0.3;fill:#AE7B47;}
	.st61{opacity:0.3;}
	.st62{fill:#9C703E;}
	.st63{opacity:0.3;fill:#9B703F;}
	.st64{opacity:0.5;fill:#F6AB62;}
	.st65{opacity:0.4;fill:#FABE79;}
	.st66{fill:#DBDADA;}
	.st67{opacity:0.4;fill:#B2B4B7;}
	.st68{opacity:0.2;fill:#C1C1B7;}
	.st69{fill:#C2C2C2;}
	.st70{opacity:0.5;fill:#C2C2C2;}
	.st71{fill:#E5E1C6;}
	.st72{opacity:0.5;fill:#D4D1B8;}
	.st73{fill:#E3E3E3;}
	.st74{opacity:0.8;fill:#D4D1B8;}
	.st75{fill:#D4D1B8;}
	.st76{opacity:0.5;fill:#D0B9AD;}
	.st77{opacity:0.4;fill:#D4D1B8;}
	.st78{fill:#D2D1CE;}
	.st79{opacity:0.4;fill:#D2D1CE;}
	.st80{opacity:0.4;fill:#C2C2C2;}
	.st81{fill:#BFC1B8;}
	.st82{fill:#CB484F;}
	.st83{fill:#A7A9A0;}
	.st84{fill:#C3979C;}
	.st85{fill:#C7B88F;}
	.st86{fill:#9ACACB;}
	.st87{fill:#A8A8AB;}
	.st88{opacity:0.6;fill:#BE9C7A;}
	.st89{fill:#A4A391;}
	.st90{opacity:0.6;fill:#C2C2C2;}
	.st91{fill:#789D99;}
	.st92{opacity:0.4;fill:#789D99;}
	.st93{fill:#D1CEB6;}
	.st94{fill:#B8B6A1;}
	.st95{fill:#BAB8A3;}
	.st96{fill:#ABAA97;}
	.st97{fill:#E4E4E2;}
	.st98{opacity:0.6;}
	.st99{fill:#BEA18D;}
	.st100{opacity:0.3;fill:#BEA18D;}
	.st101{opacity:0.2;fill:#BEA18D;}
	.st102{fill:#D9BDA6;}
	.st103{fill:#CCAD93;}
	.st104{fill:#603412;}
	.st105{opacity:0.5;fill:#93816B;}
	.st106{opacity:0.4;fill:#331C0F;}
	.st107{fill:#93816B;}
	.st108{fill:#331C0F;}
	.st109{opacity:0.5;fill:#FFF7EA;}
	.st110{fill:#3F2612;}
	.st111{fill:#D62839;}
	.st112{fill:#F9AE9C;}
	.st113{fill:#4B632D;}
	.st114{opacity:0.5;fill:#86926B;}
	.st115{opacity:0.4;fill:#2E3618;}
	.st116{fill:#86926B;}
	.st117{fill:#2E3618;}
	.st118{opacity:0.5;fill:#F7F9E8;}
	.st119{fill:#34411B;}
	.st120{fill:#D59829;}
	.st121{fill:#FAF39E;}
	.st122{fill:#242424;}
	.st123{fill:#333232;}
	.st124{fill:#5D5D5D;}
	.st125{fill:#161616;}
	.st126{fill:#B3B3B3;}
	.st127{fill:#1A1A1A;}
	.st128{fill:#48893F;}
	.st129{fill:#FBAE1C;}
	.st130{fill:#759C3F;}
	.st131{fill:#56692F;}
	.st132{fill:#CAD631;}
	.st133{opacity:0.7;fill:#A66227;}
	.st134{fill:#BBBBBB;}
	.st135{fill:#A03B22;}
	.st136{fill:#C17529;}
	.st137{fill:#F47B2A;}
	.st138{fill:#792816;}
	.st139{fill:#FFF4EC;}
	.st140{fill:#89361C;}
	.st141{fill:#C3AC9E;}
	.st142{fill:#D3C1B9;}
	.st143{fill:#E2E1D5;}
	.st144{fill:#343225;}
	.st145{fill:#040406;}
	.st146{opacity:0.5;fill:#343225;}
	.st147{fill:#4C4333;}
	.st148{fill:#89877B;}
	.st149{fill:url(#SVGID_3_);}
	.st150{fill:url(#SVGID_4_);}
	.st151{opacity:0.5;fill:url(#SVGID_5_);}
	.st152{fill:url(#SVGID_6_);}
	.st153{fill:url(#SVGID_7_);}
	.st154{fill:url(#SVGID_8_);}
	.st155{fill:url(#SVGID_9_);}
	.st156{fill:url(#SVGID_10_);}
	.st157{opacity:0.3;fill:url(#SVGID_11_);}
	.st158{opacity:0.3;fill:url(#SVGID_12_);}
	.st159{fill:url(#SVGID_13_);}
	.st160{fill:url(#SVGID_14_);}
	.st161{fill:url(#SVGID_15_);}
	.st162{fill:url(#SVGID_16_);}
	.st163{fill:url(#SVGID_17_);}
	.st164{fill:url(#SVGID_18_);}
	.st165{opacity:0.7;fill:url(#SVGID_19_);}
	.st166{fill:url(#SVGID_20_);}
	.st167{filter:url(#Adobe_OpacityMaskFilter);}
	.st168{fill:url(#SVGID_22_);}
	.st169{opacity:0.7;mask:url(#SVGID_21_);fill:url(#SVGID_23_);}
	.st170{fill:url(#SVGID_24_);}
	.st171{opacity:0.5;fill:url(#SVGID_25_);}
	.st172{opacity:0.5;fill:url(#SVGID_26_);}
	.st173{opacity:0.3;fill:url(#SVGID_27_);}
	.st174{filter:url(#Adobe_OpacityMaskFilter_1_);}
	.st175{filter:url(#Adobe_OpacityMaskFilter_2_);}
	.st176{mask:url(#SVGID_28_);fill:url(#SVGID_29_);}
	.st177{fill:url(#SVGID_30_);}
	.st178{filter:url(#Adobe_OpacityMaskFilter_3_);}
	.st179{opacity:0.8;fill:url(#SVGID_32_);}
	.st180{mask:url(#SVGID_31_);}
	.st181{filter:url(#Adobe_OpacityMaskFilter_4_);}
	.st182{filter:url(#Adobe_OpacityMaskFilter_5_);}
	.st183{fill:url(#SVGID_33_);}
	.st184{fill:url(#SVGID_34_);}
	.st185{filter:url(#Adobe_OpacityMaskFilter_6_);}
	.st186{filter:url(#Adobe_OpacityMaskFilter_7_);}
	.st187{mask:url(#SVGID_35_);fill:url(#SVGID_36_);}
	.st188{opacity:0.6;fill:url(#SVGID_37_);}
	.st189{opacity:0.9;fill:url(#SVGID_38_);}
	.st190{fill:url(#SVGID_39_);}
	.st191{opacity:0.3;fill:url(#SVGID_40_);}
	.st192{opacity:0.3;fill:url(#SVGID_41_);}
	.st193{opacity:0.8;fill:url(#SVGID_42_);}
	.st194{fill:#F7DDBC;}
	.st195{fill:#D9B48A;}
	.st196{opacity:0.5;fill:#F7DDBC;}
	.st197{opacity:0.3;fill:#DEAA79;}
	.st198{opacity:0.3;fill:#A47348;}
	.st199{opacity:0.5;fill:#DEAA79;}
	.st200{opacity:0.5;fill:#A47348;}
	.st201{opacity:0.3;fill:#BE905C;}
	.st202{fill:#FFEBD7;}
	.st203{opacity:0.3;fill:#DEB485;}
	.st204{opacity:0.3;fill:#8F622F;}
	.st205{opacity:0.2;fill:#BA915C;}
	.st206{opacity:0.2;fill:#BE905C;}
	.st207{opacity:0.3;fill:#D5AD7A;}
	.st208{opacity:0.5;fill:#D5AD7A;}
	.st209{fill:#17ADE4;}
	.st210{fill:#F99B1C;}
	.st211{opacity:0.2;fill:#D59B29;}
	.st212{opacity:0.5;fill:#D59B29;}
	.st213{opacity:0.5;fill:#B8802B;}
	.st214{fill:#FAD00A;}
	.st215{fill:#EEA320;}
	.st216{opacity:0.4;fill:#FAD00A;}
	.st217{opacity:0.7;fill:#FAD00A;}
	.st218{opacity:0.7;fill:#E7C249;}
	.st219{opacity:0.7;fill:#E9B44A;}
	.st220{fill:#3A5728;}
	.st221{opacity:0.3;fill:#3A5728;}
	.st222{opacity:0.5;fill:#3A5728;}
	.st223{opacity:0.3;fill:#6D9D40;}
	.st224{opacity:0.3;fill:#547B38;}
	.st225{fill:#1C2C17;}
	.st226{opacity:0.3;fill:#1A381C;}
	.st227{fill:#152A17;}
	.st228{fill:#F8BC16;}
	.st229{opacity:0.2;fill:#F8BC16;}
	.st230{opacity:0.1;fill:#F8BC16;}
	.st231{opacity:0.3;fill:#E09426;}
	.st232{opacity:0.3;fill:#D98B28;}
	.st233{fill:#CE6F28;}
	.st234{fill:#A65225;}
	.st235{fill:#D88E28;}
	.st236{fill:#BD6728;}
	.st237{fill:#F09F20;}
	.st238{fill:#D37A28;}
	.st239{fill:#A2C83A;}
	.st240{opacity:0.2;fill:#A2C83A;}
	.st241{fill:#ECACCE;}
	.st242{fill:#CB6BAA;}
	.st243{fill:#FACB84;}
	.st244{fill:#F8BA58;}
	.st245{fill:#F3A846;}
	.st246{opacity:0.5;fill:#FACB84;}
	.st247{opacity:0.5;fill:#F8BA58;}
	.st248{fill:#80461D;}
	.st249{opacity:0.7;fill:#ECACCE;}
	.st250{opacity:0.7;fill:#FACB84;}
	.st251{fill:#356531;}
	.st252{opacity:0.2;fill:#356531;}
	.st253{opacity:0.5;fill:#356531;}
	.st254{fill:#508B3F;}
	.st255{fill:#117A3D;}
	.st256{opacity:0.4;fill:#508B3F;}
	.st257{opacity:0.7;fill:#508B3F;}
	.st258{fill:#467135;}
	.st259{opacity:0.2;fill:#467135;}
	.st260{opacity:0.3;fill:#467135;}
	.st261{fill:#203C1C;}
	.st262{fill:#142716;}
	.st263{fill:#325628;}
	.st264{fill:#193019;}
	.st265{fill:#20552A;}
	.st266{opacity:0.5;fill:#508B3F;}
	.st267{opacity:0.5;fill:#A2C83A;}
	.st268{fill:#88171A;}
	.st269{fill:#C02326;}
	.st270{fill:#A61E22;}
	.st271{opacity:0.4;fill:#C02326;}
	.st272{opacity:0.7;fill:#C02326;}
	.st273{opacity:0.2;fill:#A61E22;}
	.st274{opacity:0.3;fill:#A61E22;}
	.st275{fill:#62130C;}
	.st276{fill:#451310;}
	.st277{fill:#791514;}
	.st278{fill:#861719;}
	.st279{fill:#FECF0A;}
	.st280{opacity:0.4;fill:#C6A239;}
	.st281{opacity:0.2;fill:#E4A33A;}
	.st282{opacity:0.3;fill:#B8A137;}
	.st283{opacity:0.3;fill:#FECF0A;}
	.st284{fill:#F5B41A;}
	.st285{opacity:0.6;fill:#CFAE2B;}
	.st286{opacity:0.4;fill:#CFAE2B;}
	.st287{fill:#98772C;}
	.st288{fill:#FFD86D;}
	.st289{fill:#E59F24;}
	.st290{fill:#ECB31F;}
	.st291{fill:#E8B321;}
	.st292{opacity:0.3;fill:#E4A33A;}
	.st293{opacity:0.3;fill:#D48E64;}
	.st294{opacity:0.2;fill:#C6A239;}
	.st295{fill:#FDEB07;stroke:#E0E1E0;stroke-width:0;stroke-linecap:round;stroke-linejoin:round;}
	.st296{fill:#BCBAA3;}
	.st297{fill:#55813B;}
	.st298{fill:#32421B;}
	.st299{opacity:0.3;fill:#517636;}
	.st300{fill:#6E953E;}
	.st301{opacity:0.2;fill:#3A5728;}
	.st302{fill:#42793A;}
	.st303{fill:#F6871F;}
	.st304{opacity:0.2;fill:#E66725;}
	.st305{fill:#D65027;}
	.st306{fill:#CB5727;}
	.st307{opacity:0.2;}
	.st308{fill:#AD6427;}
	.st309{opacity:0.3;fill:#E66725;}
	.st310{opacity:0.5;fill:#DC8127;}
	.st311{fill:#D5D1C5;}
	.st312{fill:#DCB399;}
	.st313{fill:#EAC6AF;}
	.st314{opacity:0.5;fill:#EAC6AF;}
	.st315{opacity:0.5;fill:#E9DEDE;}
	.st316{opacity:0.6;fill:#E9DEDE;}
	.st317{fill:#F7D8C1;}
	.st318{fill:none;}
	.st319{opacity:0.3;fill:#C49374;}
	.st320{fill:#6F903C;}
	.st321{opacity:0.4;fill:#3A5728;}
	.st322{opacity:0.5;fill:#6F903C;}
	.st323{opacity:0.5;fill:#7C963B;}
	.st324{fill:#516A30;}
	.st325{opacity:0.2;fill:#E0E1E0;}
	.st326{opacity:0.2;fill:#C2CACB;}
	.st327{opacity:0.5;fill:#C2CACB;}
	.st328{opacity:0.2;fill:#645C51;}
	.st329{fill:#FAFAFA;}
	.st330{fill:#D6D6D6;}
	.st331{opacity:0.3;fill:#B4C0B2;}
	.st332{fill:#BDBDBD;}
	.st333{fill:#961B1E;}
	.st334{fill:#AF2F24;}
	.st335{fill:#C53127;}
	.st336{fill:#76533F;}
	.st337{fill:#533A2A;}
	.st338{opacity:0.7;fill:#E94466;}
	.st339{fill:#D91F26;}
	.st340{fill:#F6DAB4;}
	.st341{fill:#D2A47F;}
	.st342{fill:#B4B4B4;}
	.st343{fill:#E88B38;}
	.st344{fill:#FBAD47;}
	.st345{fill:#CFB581;}
	.st346{fill:#594D41;}
	.st347{fill:#FDF8F2;}
	.st348{opacity:0.5;fill:#E88B38;}
	.st349{fill:#DDDCD8;}
	.st350{opacity:0.8;fill:#E88B38;}
	.st351{opacity:0.5;fill:#594D41;}
	.st352{fill:#F89A1C;}
	.st353{opacity:0.4;fill:#FDC110;}
	.st354{fill:#FEE600;}
	.st355{fill:#FDC110;}
	.st356{fill:#7CBDE8;}
	.st357{opacity:0.6;fill:#5BB353;}
	.st358{fill:#046CA6;}
	.st359{opacity:0.3;fill:#046CA6;}
	.st360{opacity:0.3;fill:#20ABE3;}
	.st361{fill:#754138;}
	.st362{fill:#6A2116;}
	.st363{fill:#381512;}
</style>













<g
   id="g1010"
   transform="translate(-418.29016,-78.11858)">
	<path
   class="st104"
   d="m 493.35,138.67 c -10.08,-10.94 -15.99,-27.59 -15.99,-27.59 0,0 -0.01,-0.48 0.22,-1.11 0.23,-0.63 -0.13,-1.63 -1,-2.23 -0.33,-0.23 -0.34,-0.7 -0.54,-1.52 -0.21,-0.81 -0.19,-2.13 -0.66,-2.55 -0.47,-0.42 -2.21,-1.63 -6.61,-0.07 -0.03,0.01 -0.05,0.02 -0.08,0.03 -0.03,0.01 -0.05,0.02 -0.08,0.04 -4.27,1.88 -4.7,3.96 -4.75,4.58 -0.05,0.62 0.87,1.57 1.27,2.3 0.41,0.74 0.73,1.09 0.65,1.48 -0.23,1.04 0.2,2.01 0.8,2.31 0.6,0.3 0.91,0.65 0.91,0.65 0,0 7.15,16.16 7.33,31.04 0.17,14.87 -0.05,12.21 3.65,21.5 3.7,9.29 10.71,26.94 12.72,32 2.01,5.06 3.02,6.69 4.88,6.55 1.45,-0.11 4.9,0.38 12.35,-2.55 7.42,-3 9.6,-5.71 10.73,-6.63 1.45,-1.17 1.06,-3.06 -0.95,-8.11 -2.02,-5.06 -9.03,-22.71 -12.72,-32 -3.7,-9.27 -2.04,-7.19 -12.13,-18.12 z"
   id="path952"
   inkscape:connector-curvature="0"
   style="fill:#603412" />
	<path
   class="st105"
   d="m 493.35,138.67 c -10.08,-10.94 -15.99,-27.59 -15.99,-27.59 0,0 -0.01,-0.48 0.22,-1.11 0.23,-0.63 -0.13,-1.63 -1,-2.23 -0.33,-0.23 -0.34,-0.7 -0.54,-1.52 -0.21,-0.81 -0.19,-2.13 -0.66,-2.55 -0.46,-0.41 -2.17,-1.61 -6.47,-0.11 0.82,0.93 1.83,1.72 2.61,2.68 1.24,1.54 2.21,3.29 3.03,5.09 1.75,3.86 3.17,7.89 4.79,11.8 0.49,1.19 0.96,2.38 1.42,3.57 3.37,6.74 6.54,13.58 10.21,20.17 2.13,3.82 4.26,7.57 6.01,11.59 1.7,3.9 3.19,7.89 4.7,11.87 1.5,3.95 2.94,7.98 4.84,11.76 1.35,2.69 2.79,5.33 4,8.09 1.39,3.14 3.1,7.4 2.68,11.11 3.71,-2.04 5.12,-3.71 5.96,-4.39 1.45,-1.17 1.06,-3.06 -0.95,-8.11 l -12.72,-32 c -3.71,-9.27 -2.05,-7.19 -12.14,-18.12 z"
   id="path954"
   inkscape:connector-curvature="0"
   style="opacity:0.5;fill:#93816b" />
	<path
   class="st106"
   d="m 516.55,193.87 c -1.09,0.55 -2.37,0.76 -3.56,0.99 -1.82,0.35 -3.58,0.9 -5.3,1.6 -2.04,0.83 -4.1,1.72 -6.09,2.68 -0.99,0.47 -1.96,0.98 -2.91,1.5 -0.45,0.25 -0.91,0.5 -1.36,0.75 -0.08,0.04 -0.14,0.07 -0.19,0.1 0.01,0.01 -0.03,0.05 -0.14,0.14 -0.09,0.08 -0.18,0.16 -0.27,0.24 -1.06,0.96 -2.51,1.9 -3.96,1.05 -0.07,-0.04 -0.13,-0.08 -0.2,-0.12 1.2,2.53 2.12,3.41 3.5,3.3 1.45,-0.11 4.9,0.38 12.35,-2.55 7.42,-3 9.6,-5.71 10.73,-6.63 1.2,-0.97 1.14,-2.43 -0.06,-5.78 -0.46,1.22 -1.3,2.11 -2.54,2.73 z"
   id="path956"
   inkscape:connector-curvature="0"
   style="opacity:0.4;fill:#331c0f" />
	<path
   class="st106"
   d="m 519.53,195.66 c -1.05,-0.62 -2.42,-0.58 -3.58,-0.42 -3.65,0.49 -7.22,1.67 -10.6,3.12 -2.94,1.27 -5.94,2.7 -8.67,4.39 -0.83,0.51 -2.46,1.44 -2.26,2.62 0.01,0.09 0.04,0.17 0.06,0.26 0.48,0.37 0.99,0.51 1.58,0.46 1.45,-0.11 4.9,0.38 12.35,-2.55 7.42,-3 9.6,-5.71 10.73,-6.63 0.35,-0.28 0.59,-0.61 0.73,-1 -0.1,-0.09 -0.21,-0.17 -0.34,-0.25 z m -4.41,1.9 c -1.25,1.41 -3.11,2.6 -4.74,3.36 -3.75,1.76 -7.27,3.4 -11.38,3.23 -0.39,-0.02 -1.48,-0.57 0.51,-2.09 2.48,-1.88 11.63,-6.15 15.27,-5.81 0.29,0.04 1.2,0.34 0.34,1.31 z"
   id="path958"
   inkscape:connector-curvature="0"
   style="opacity:0.4;fill:#331c0f" />
	<path
   class="st107"
   d="m 515.35,200 c 0.98,-0.66 1.72,-1.25 2.3,-1.75 0,-2.83 -1.34,-5.62 -2.54,-8.14 -1.89,-3.94 -3.62,-7.96 -5.45,-11.92 -1.96,-4.23 -3.76,-8.51 -5.46,-12.84 -1.72,-4.36 -3.81,-10.89 -6.14,-14.98 -1.34,-2.34 -2.81,-4.16 -4.48,-6.28 -1.82,-2.33 -2.44,-2.76 -3.81,-5.02 -2.57,-4.25 -4.94,-8.63 -6.95,-13.18 -2.21,-4.98 -4.16,-10.63 -7.5,-15.07 1.32,2.02 2.45,4.18 3.47,6.37 1.87,4.09 3.38,8.33 5.09,12.5 1.96,4.78 2.98,6.03 5.63,10.46 2.43,4.07 5.91,7.67 8.85,14.59 2.13,4.98 4.69,11.79 6.73,16.8 1.76,4.33 3.35,8.74 5.28,13 1.26,2.79 2.63,5.54 3.64,8.44 0.76,2.22 1.4,4.63 1.34,7.02 z"
   id="path960"
   inkscape:connector-curvature="0"
   style="fill:#93816b" />
	<path
   class="st108"
   d="m 498.1,204.15 c -0.87,-1.44 -2.1,-4.92 -2.75,-6.46 -1.01,-2.41 -2.23,-4.75 -3.35,-7.11 -2.34,-4.91 -4.32,-10.86 -6.34,-15.92 -1.82,-4.55 -4.81,-10.57 -6.25,-15.27 -0.81,-2.63 -1.27,-4.49 -1.51,-6.94 -0.24,-2.58 -0.35,-4.19 -0.54,-6.77 -0.35,-4.7 -1.33,-9.15 -2.63,-13.66 -2.6,-8.98 -5.08,-18.06 -9.27,-26.44 -1.37,1.21 -1.57,2.26 -1.61,2.67 -0.05,0.62 0.87,1.57 1.27,2.3 0.41,0.74 0.73,1.09 0.65,1.48 -0.23,1.04 0.2,2.01 0.8,2.31 0.6,0.3 0.91,0.65 0.91,0.65 0,0 7.15,16.16 7.33,31.04 0.17,14.87 -0.05,12.21 3.65,21.5 l 12.72,32 c 2.01,5.06 3.02,6.69 4.88,6.55 1.07,-0.08 3.24,0.16 7.32,-0.89 -2.39,-0.05 -3.98,1.1 -5.28,-1.04 z"
   id="path962"
   inkscape:connector-curvature="0"
   style="fill:#331c0f" />
	<path
   class="st109"
   d="m 467.26,104.35 c -0.74,0.41 -1.32,0.82 -1.78,1.22 0.27,0.41 0.53,0.82 0.77,1.24 2.37,4.2 3.65,8.85 5.11,13.42 0.83,2.57 1.9,5.06 2.84,7.59 0.9,2.46 1.67,4.96 2.24,7.52 1.12,5 0.82,8.06 1.3,13.16 0.26,2.75 0.22,6.51 0.63,8.81 0.44,2.45 1.61,6.3 2.95,9.7 1.84,4.6 4.73,11.09 6.6,15.67 1.69,4.14 3.44,9.12 5.15,13.25 1.54,3.75 3.08,7.74 4.89,9.29 0.68,0.59 2,0.52 3.36,0.45 1.24,-0.23 2.7,-0.59 4.44,-1.16 -0.84,-0.36 -1.99,1.13 -3.36,-1.06 -2.22,-3.52 -4.86,-11.65 -6.51,-15.46 -1.71,-3.97 -9.73,-22.6 -11.56,-26.96 -2.03,-4.84 -2.91,-10.75 -4.14,-15.84 -0.65,-2.65 -0.07,-4.56 -0.83,-7.17 -0.71,-2.48 -0.56,-3.32 -1.33,-5.78 -2.98,-9.48 -5.71,-19.26 -10.77,-27.89 z"
   id="path964"
   inkscape:connector-curvature="0"
   style="opacity:0.5;fill:#fff7ea" />
	<path
   class="st110"
   d="m 493.35,138.67 c -10.08,-10.94 -15.99,-27.59 -15.99,-27.59 0,0 -0.01,-0.48 0.22,-1.11 0.23,-0.63 -0.13,-1.63 -1,-2.23 -0.33,-0.23 -0.34,-0.7 -0.54,-1.52 -0.21,-0.81 -0.19,-2.13 -0.66,-2.55 -0.2,-0.17 -0.62,-0.49 -1.36,-0.68 2.39,6.25 4.43,12.63 6.7,18.92 1.87,5.17 4.56,8.96 8.2,14.51 3.2,4.88 7.1,8.14 10.16,13.36 2.7,4.62 3.78,8.27 6.43,14.83 1.94,4.8 3.86,10.57 6.05,15.25 2.18,4.65 4.6,11.38 6.3,16.24 0.53,1.5 -3.58,4.16 -4.57,5.14 3.63,-2.02 5.03,-3.67 5.86,-4.34 1.45,-1.17 1.06,-3.06 -0.95,-8.11 l -12.72,-32 c -3.7,-9.27 -2.04,-7.19 -12.13,-18.12 z"
   id="path966"
   inkscape:connector-curvature="0"
   style="fill:#3f2612" />
	<path
   class="st111"
   d="m 477.05,140.24 c -0.02,-0.05 -0.04,-0.1 -0.05,-0.14 -0.38,-1.06 -0.62,-2.16 -0.96,-3.23 -0.87,-2.77 -1.7,-5.55 -2.59,-8.32 -0.92,-2.85 -2.04,-5.63 -3.05,-8.45 -0.48,-1.36 -1,-2.73 -1.58,-4.05 -0.25,-0.57 -0.56,-1.08 -0.28,-1.63 -0.04,-0.06 -0.04,-0.13 0.03,-0.19 0.91,-0.94 2.03,-1.62 3.21,-2.17 1.19,-0.56 2.44,-1.14 3.77,-1.21 0.77,-0.03 1.42,0.25 1.97,0.69 -0.11,-0.3 -0.17,-0.46 -0.17,-0.46 0,0 -0.01,-0.48 0.22,-1.11 0.05,-0.15 0.08,-0.31 0.07,-0.49 0,0.01 0,0.01 -0.01,0.01 -0.3,0.66 -0.84,0.74 -1.52,0.78 -0.07,0.01 -0.14,0.01 -0.2,0.02 -2.67,0.65 -5,1.74 -7.3,3.17 -0.63,0.59 -1.45,1.19 -1.98,0.62 -0.36,-0.39 -0.59,-1.01 -0.57,-1.55 0.04,-0.71 0.71,-1.03 1.23,-1.41 0.07,-0.05 0.13,-0.04 0.17,-0.02 1.48,-1.01 3.06,-1.91 4.78,-2.4 1.43,-0.4 2.92,-0.85 4.42,-0.89 -0.03,-0.02 -0.06,-0.05 -0.1,-0.07 -0.33,-0.23 -0.34,-0.7 -0.54,-1.52 -0.21,-0.81 -0.19,-2.13 -0.66,-2.55 -0.1,-0.08 -0.24,-0.2 -0.44,-0.32 0.05,0.07 0.11,0.15 0.16,0.23 0.29,0.46 0.35,1.02 0.44,1.54 0.08,0.5 0.25,0.99 0.33,1.49 0.13,0.83 -0.23,1.04 -1.03,1.14 -1.02,0.13 -2.05,0.48 -3.04,0.88 -0.05,0.05 -0.13,0.1 -0.21,0.16 -0.2,0.12 -0.43,0.24 -0.66,0.21 -0.15,0.06 -0.29,0.13 -0.44,0.19 -1.1,0.48 -2.13,1.02 -3.16,1.6 -0.01,0.01 -0.02,0.02 -0.04,0.02 -0.26,0.15 -0.52,0.29 -0.78,0.44 -0.58,0.33 -1.02,-0.39 -1.26,-0.8 -0.48,-0.85 -1.08,-1.76 -1.08,-2.77 0.01,-0.37 0.13,-0.71 0.3,-1.02 -0.5,0.73 -0.6,1.3 -0.63,1.59 -0.05,0.62 0.87,1.57 1.27,2.3 0.41,0.74 0.73,1.09 0.65,1.48 -0.23,1.04 0.2,2.01 0.8,2.31 0.6,0.3 0.91,0.65 0.91,0.65 0,0 5.48,12.39 6.97,25.45 0.95,0.02 1.85,-0.08 2.63,-0.2 z"
   id="path968"
   inkscape:connector-curvature="0"
   style="fill:#d62839" />
	<path
   class="st21"
   d="m 479.54,150.57 c -0.23,-1.77 -0.4,-3.26 -0.4,-3.26 l -1.36,0.18 c -0.01,0.49 -0.05,1.64 -0.01,3.2 0.58,-0.04 1.18,-0.09 1.77,-0.12 z"
   id="path970"
   inkscape:connector-curvature="0"
   style="fill:#ffffff" />
	<path
   class="st21"
   d="m 479.74,152.16 c -0.64,0.04 -1.28,0.08 -1.93,0.13 0.12,2.26 0.41,5 1.09,7.67 1.08,4.23 6.67,16.47 6.67,16.47 l 2.44,-0.49 c 0,0 -2.3,-5.18 -3.86,-9.11 -1.56,-3.92 -3.51,-9.12 -3.92,-11.35 -0.13,-0.78 -0.31,-2.03 -0.49,-3.32 z"
   id="path972"
   inkscape:connector-curvature="0"
   style="fill:#ffffff" />
	<path
   class="st21"
   d="m 494.3,198.66 2.46,-0.13 c 0,0 1.71,3.38 2.24,4.72 0.53,1.35 2.06,2.18 6.16,1.38 0,0 -6.25,2.01 -7.92,0.51 -1.67,-1.48 -2.94,-6.48 -2.94,-6.48 z"
   id="path974"
   inkscape:connector-curvature="0"
   style="fill:#ffffff" />
	<path
   class="st112"
   d="m 467.76,112.14 c -0.05,-0.09 -0.19,-0.05 -0.17,0.05 0.02,0.08 0.04,0.15 0.06,0.23 0.02,0.08 0.04,0.17 0.11,0.21 0.06,0.04 0.15,0.01 0.17,-0.06 0.03,-0.14 -0.1,-0.31 -0.17,-0.43 z"
   id="path976"
   inkscape:connector-curvature="0"
   style="fill:#f9ae9c" />
	<path
   class="st112"
   d="m 468.35,112.14 c -0.07,-0.05 -0.14,-0.1 -0.22,-0.15 -0.09,-0.05 -0.24,0.05 -0.17,0.15 0.05,0.08 0.1,0.18 0.16,0.26 0.04,0.05 0.11,0.07 0.17,0.06 0.01,0 0.01,0 0.02,-0.01 0.07,-0.01 0.12,-0.07 0.13,-0.14 0,-0.01 0,-0.01 0,-0.02 -0.01,-0.06 -0.05,-0.12 -0.09,-0.15 z"
   id="path978"
   inkscape:connector-curvature="0"
   style="fill:#f9ae9c" />
	<path
   class="st112"
   d="m 469.48,110.98 c -0.08,-0.07 -0.17,-0.04 -0.23,0.01 -0.01,-0.01 -0.01,-0.01 -0.02,-0.02 -0.17,-0.19 -0.5,-0.07 -0.51,0.18 -0.01,0.07 0,0.15 0,0.23 -0.04,-0.03 -0.07,-0.04 -0.11,-0.05 -0.05,-0.03 -0.1,0 -0.12,0.04 -0.08,0.12 -0.01,0.28 0.05,0.4 0.07,0.19 0.16,0.37 0.28,0.53 0.13,0.16 0.44,0.11 0.48,-0.1 0.02,-0.08 0.02,-0.17 0.02,-0.25 0.12,0.02 0.25,-0.01 0.31,-0.12 0.18,-0.28 0.1,-0.64 -0.15,-0.85 z"
   id="path980"
   inkscape:connector-curvature="0"
   style="fill:#f9ae9c" />
	<path
   class="st112"
   d="m 471.64,110.37 c -0.08,-0.17 -0.18,-0.32 -0.3,-0.47 -0.07,-0.08 -0.17,-0.06 -0.22,0.01 -0.11,-0.03 -0.24,0.04 -0.21,0.18 0.02,0.12 0.05,0.25 0.09,0.38 -0.12,-0.06 -0.25,-0.11 -0.36,-0.17 -0.11,-0.05 -0.2,-0.02 -0.26,0.05 -0.17,-0.06 -0.39,0.04 -0.39,0.25 0.01,0.02 0,0.04 0,0.06 -0.03,-0.02 -0.06,-0.05 -0.09,-0.07 -0.17,-0.13 -0.34,0.08 -0.27,0.25 0.1,0.25 0.29,0.48 0.48,0.67 0.13,0.13 0.36,0.1 0.46,-0.04 0.01,0.01 0.03,0.02 0.04,0.04 0.26,0.17 0.53,-0.11 0.42,-0.38 -0.01,-0.02 -0.01,-0.05 -0.03,-0.09 0.09,0.02 0.17,0.01 0.23,-0.03 0.06,0.04 0.13,0.05 0.2,0.04 0.08,-0.01 0.13,-0.06 0.17,-0.13 0.07,0 0.13,-0.04 0.15,-0.11 0.04,-0.18 -0.03,-0.3 -0.11,-0.44 z"
   id="path982"
   inkscape:connector-curvature="0"
   style="fill:#f9ae9c" />
	<path
   class="st112"
   d="m 473.52,109.65 c -0.09,-0.19 -0.25,-0.33 -0.45,-0.4 -0.15,-0.05 -0.26,0.13 -0.17,0.25 0.07,0.07 0.1,0.18 0.13,0.28 -0.01,0 -0.01,-0.01 -0.01,-0.01 -0.09,-0.09 -0.16,-0.2 -0.21,-0.32 -0.12,-0.28 -0.51,-0.15 -0.54,0.11 0,0.01 0,0.01 0,0.01 -0.03,0 -0.06,-0.01 -0.1,0 -0.04,0.01 -0.07,0.03 -0.09,0.07 0.02,-0.04 -0.05,0.02 -0.05,0.03 -0.04,0.03 -0.01,0.1 0.04,0.1 0.01,0 0.01,0 0.01,0 0.01,0.01 0.01,0.01 0.02,0.02 0.02,0.05 0.02,0.1 0.04,0.15 0,0.01 0,0.02 0,0.03 -0.07,-0.08 -0.16,-0.15 -0.24,-0.21 -0.12,-0.08 -0.26,0.08 -0.17,0.2 0.17,0.21 0.26,0.47 0.41,0.69 0.08,0.12 0.25,0.05 0.29,-0.06 0.13,0.03 0.27,-0.02 0.32,-0.18 0.01,-0.02 0.01,-0.05 0.02,-0.08 0.04,0.03 0.07,0.06 0.1,0.08 0.14,0.09 0.29,0.04 0.37,-0.05 0.12,0.09 0.28,0.02 0.36,-0.08 0.15,-0.18 0.01,-0.46 -0.08,-0.63 z"
   id="path984"
   inkscape:connector-curvature="0"
   style="fill:#f9ae9c" />
	<path
   class="st112"
   d="m 474.22,109.21 c -0.08,-0.16 -0.32,-0.1 -0.33,0.07 0,0.02 0,0.02 0,0.03 -0.02,-0.02 -0.04,-0.04 -0.05,-0.06 -0.07,-0.13 -0.31,-0.07 -0.26,0.09 0.05,0.16 0.18,0.27 0.24,0.42 0.05,0.13 0.19,0.13 0.27,0.05 0.03,0.04 0.07,0.07 0.12,0.09 0.05,0.02 0.14,-0.01 0.17,-0.06 0.06,-0.11 0.04,-0.19 -0.01,-0.3 -0.05,-0.11 -0.1,-0.22 -0.15,-0.33 z"
   id="path986"
   inkscape:connector-curvature="0"
   style="fill:#f9ae9c" />
	<path
   class="st112"
   d="m 474.65,108.95 c -0.1,-0.09 -0.29,0 -0.21,0.14 0.05,0.09 0.09,0.19 0.11,0.28 0.04,0.12 0.03,0.22 0.13,0.3 0.07,0.05 0.16,0.01 0.2,-0.04 0.09,-0.1 0.03,-0.25 -0.01,-0.36 -0.04,-0.13 -0.12,-0.24 -0.22,-0.32 z"
   id="path988"
   inkscape:connector-curvature="0"
   style="fill:#f9ae9c" />
	<path
   class="st112"
   d="m 475.19,108.93 c -0.13,-0.04 -0.2,0.13 -0.1,0.19 0.04,0.02 0.05,0.07 0.06,0.1 0.07,0.11 0.27,0.06 0.23,-0.08 -0.03,-0.11 -0.08,-0.18 -0.19,-0.21 z"
   id="path990"
   inkscape:connector-curvature="0"
   style="fill:#f9ae9c" />
	<path
   class="st112"
   d="m 471.35,103.32 c -1.78,-0.31 -3.52,0.97 -4.78,2.08 -0.04,0.04 0.01,0.11 0.06,0.08 1.54,-0.85 3.01,-1.58 4.72,-2.05 0.08,-0.02 0.06,-0.11 0,-0.11 z"
   id="path992"
   inkscape:connector-curvature="0"
   style="fill:#f9ae9c" />
	<path
   class="st112"
   d="m 468.25,109.88 c -0.25,-0.34 -0.47,-0.7 -0.69,-1.06 -0.02,-0.04 -0.04,-0.07 -0.05,-0.11 -0.01,-0.02 -0.02,-0.03 -0.03,-0.04 -0.22,-0.37 -0.43,-0.75 -0.65,-1.12 -0.02,-0.03 -0.07,-0.01 -0.05,0.03 0.18,0.36 0.35,0.74 0.53,1.1 -0.03,0.02 -0.04,0.06 -0.04,0.1 -0.18,-0.21 -0.33,-0.44 -0.44,-0.69 -0.02,-0.05 -0.1,-0.02 -0.09,0.03 0.08,0.55 0.39,0.98 0.81,1.34 0.06,0.06 0.13,0.04 0.17,-0.01 0.11,0.2 0.24,0.39 0.37,0.58 0.08,0.12 0.25,-0.03 0.16,-0.15 z"
   id="path994"
   inkscape:connector-curvature="0"
   style="fill:#f9ae9c" />
	<path
   class="st112"
   d="m 467.08,109.98 c -0.41,-0.58 -0.73,-1.17 -1.05,-1.8 -0.03,-0.05 -0.13,-0.02 -0.11,0.04 0.2,0.69 0.44,1.43 0.93,1.97 0.13,0.14 0.34,-0.06 0.23,-0.21 z"
   id="path996"
   inkscape:connector-curvature="0"
   style="fill:#f9ae9c" />
	<path
   class="st112"
   d="m 466.72,110.03 c -0.16,-0.19 -0.32,-0.34 -0.45,-0.55 -0.1,-0.18 -0.21,-0.34 -0.33,-0.51 -0.05,-0.06 -0.16,0.01 -0.11,0.08 0.22,0.37 0.37,0.94 0.82,1.11 0.06,0.01 0.11,-0.08 0.07,-0.13 z"
   id="path998"
   inkscape:connector-curvature="0"
   style="fill:#f9ae9c" />
	<path
   class="st112"
   d="m 470.89,106.53 c -0.03,-0.06 -0.15,-0.05 -0.14,0.03 0.02,0.08 0.01,0.16 -0.01,0.25 -0.22,-0.12 -0.35,-0.28 -0.48,-0.51 -0.07,-0.11 -0.23,-0.13 -0.3,-0.02 -0.26,0.38 -0.23,0.81 -0.27,1.24 -0.24,-0.26 -0.39,-0.6 -0.65,-0.85 -0.08,-0.08 -0.28,-0.08 -0.3,0.07 -0.1,0.49 0,0.94 0.11,1.41 -0.23,-0.34 -0.45,-0.71 -0.69,-1.06 -0.07,-0.1 -0.23,-0.02 -0.17,0.08 0.32,0.56 0.61,1.12 1.02,1.6 0.09,0.1 0.25,0.01 0.23,-0.11 -0.08,-0.43 -0.25,-0.91 -0.25,-1.36 0.19,0.31 0.4,0.6 0.72,0.8 0.11,0.07 0.28,0.02 0.32,-0.12 0.1,-0.41 0.02,-0.87 0.13,-1.27 0.17,0.18 0.37,0.3 0.62,0.39 0.07,0.02 0.15,-0.02 0.17,-0.08 0.04,-0.19 0.04,-0.3 -0.06,-0.49 z"
   id="path1000"
   inkscape:connector-curvature="0"
   style="fill:#f9ae9c" />
	<path
   class="st112"
   d="m 468.08,107.76 c -0.08,-0.15 -0.18,-0.3 -0.27,-0.44 -0.05,-0.07 -0.17,0.01 -0.13,0.09 0.14,0.28 0.23,0.67 0.48,0.87 0.05,0.05 0.14,-0.02 0.13,-0.09 -0.05,-0.15 -0.14,-0.28 -0.21,-0.43 z"
   id="path1002"
   inkscape:connector-curvature="0"
   style="fill:#f9ae9c" />
	<path
   class="st112"
   d="m 473.05,105.73 c -0.13,-0.31 -0.31,-0.62 -0.59,-0.81 -0.13,-0.1 -0.28,0.07 -0.23,0.21 0.05,0.11 0.11,0.23 0.16,0.34 -0.08,0.02 -0.15,0.1 -0.14,0.2 0.01,0.08 0.01,0.15 0.01,0.23 -0.04,-0.08 -0.08,-0.15 -0.12,-0.23 -0.04,-0.09 -0.15,-0.08 -0.2,-0.02 0,0.01 -0.01,0.01 -0.01,0.02 -0.04,0.03 -0.04,0.07 -0.02,0.11 0.03,0.08 0.02,0.18 0.02,0.27 -0.07,-0.05 -0.13,-0.1 -0.2,-0.16 -0.1,-0.08 -0.25,0.09 -0.15,0.17 h 0.01 c -0.01,0.01 -0.01,0.01 -0.01,0.03 -0.02,0.04 -0.02,0.08 -0.01,0.12 -0.12,0 -0.17,0.19 -0.03,0.23 0.04,0.01 0.08,0.02 0.13,0.01 0,0.01 0.01,0.01 0.01,0.01 0.05,0.12 0.12,0.22 0.2,0.33 0.08,0.11 0.23,0.01 0.22,-0.1 -0.01,-0.11 -0.04,-0.2 -0.06,-0.3 0.05,0 0.11,-0.07 0.11,-0.13 0.05,0.11 0.12,0.21 0.2,0.3 0.09,0.11 0.28,0.04 0.29,-0.1 0.01,-0.14 0.02,-0.29 0.02,-0.45 0.08,0.26 0.1,0.54 0.28,0.74 0.1,0.12 0.29,0.08 0.33,-0.07 0.09,-0.3 -0.1,-0.66 -0.22,-0.95 z"
   id="path1004"
   inkscape:connector-curvature="0"
   style="fill:#f9ae9c" />
	<path
   class="st112"
   d="m 473.3,104.56 c -0.06,-0.1 -0.21,-0.05 -0.19,0.06 0.17,0.72 0.39,1.42 0.57,2.13 0.08,0.3 0.55,0.21 0.48,-0.1 -0.16,-0.74 -0.47,-1.43 -0.86,-2.09 z"
   id="path1006"
   inkscape:connector-curvature="0"
   style="fill:#f9ae9c" />
	<path
   class="st112"
   d="m 471.06,113.87 c -0.07,-0.13 -0.28,-0.06 -0.25,0.08 0.48,1.88 1.27,3.7 1.96,5.51 0.75,2 1.56,3.98 2.31,5.98 1.49,3.94 2.94,7.93 4.22,11.93 0.02,0.07 0.13,0.08 0.13,-0.01 -0.02,-1.83 -0.97,-3.72 -1.51,-5.45 -0.62,-1.96 -1.25,-3.91 -1.94,-5.85 -0.71,-2.01 -1.5,-4 -2.29,-5.99 -0.82,-2.06 -1.54,-4.24 -2.63,-6.2 z"
   id="path1008"
   inkscape:connector-curvature="0"
   style="fill:#f9ae9c" />
</g>




















</svg>