<?xml version="1.0" encoding="UTF-8" standalone="no"?>
<!-- Generator: Adobe Illustrator 23.1.0, SVG Export Plug-In . SVG Version: 6.00 Build 0)  -->

<svg
   xmlns:dc="http://purl.org/dc/elements/1.1/"
   xmlns:cc="http://creativecommons.org/ns#"
   xmlns:rdf="http://www.w3.org/1999/02/22-rdf-syntax-ns#"
   xmlns:svg="http://www.w3.org/2000/svg"
   xmlns="http://www.w3.org/2000/svg"
   xmlns:sodipodi="http://sodipodi.sourceforge.net/DTD/sodipodi-0.dtd"
   xmlns:inkscape="http://www.inkscape.org/namespaces/inkscape"
   version="1.1"
   id="Layer_1"
   x="0px"
   y="0px"
   viewBox="0 0 151.1811 151.18109"
   xml:space="preserve"
   sodipodi:docname="2.2.1.svg"
   width="40mm"
   height="40mm"
   inkscape:version="0.92.4 (5da689c313, 2019-01-14)"><metadata
   id="metadata4529"><rdf:RDF><cc:Work
       rdf:about=""><dc:format>image/svg+xml</dc:format><dc:type
         rdf:resource="http://purl.org/dc/dcmitype/StillImage" /><dc:title></dc:title></cc:Work></rdf:RDF></metadata><defs
   id="defs4527" /><sodipodi:namedview
   pagecolor="#ffffff"
   bordercolor="#666666"
   borderopacity="1"
   objecttolerance="10"
   gridtolerance="10"
   guidetolerance="10"
   inkscape:pageopacity="0"
   inkscape:pageshadow="2"
   inkscape:window-width="1024"
   inkscape:window-height="709"
   id="namedview4525"
   showgrid="false"
   units="mm"
   inkscape:zoom="1.1213358"
   inkscape:cx="185.22355"
   inkscape:cy="125.24037"
   inkscape:window-x="0"
   inkscape:window-y="30"
   inkscape:window-maximized="1"
   inkscape:current-layer="Layer_1" />
<style
   type="text/css"
   id="style2">
	.st0{fill:#67A8DB;}
	.st1{opacity:0.4;fill:#327CC0;}
	.st2{fill:#5299D3;}
	.st3{opacity:0.4;fill:#67A8DB;}
	.st4{opacity:0.5;}
	.st5{fill:#5CA1D7;}
	.st6{opacity:0.6;fill:#93C2E8;}
	.st7{opacity:0.6;fill:#67A8DB;}
	.st8{fill:#E76362;}
	.st9{opacity:0.4;fill:#D02527;}
	.st10{fill:#E14949;}
	.st11{opacity:0.4;fill:#E76362;}
	.st12{fill:#E45556;}
	.st13{opacity:0.6;fill:#EF9292;}
	.st14{opacity:0.6;fill:#E76362;}
	.st15{opacity:0.5;fill:#D2EEF9;}
	.st16{opacity:0.4;fill:#0099B0;}
	.st17{fill:#D0D1D1;}
	.st18{opacity:0.4;fill:#036BB1;}
	.st19{opacity:0.5;fill:#B5CCD7;}
	.st20{fill:#ACC1CB;}
	.st21{fill:#FFFFFF;}
	.st22{fill:#DFEFE7;}
	.st23{opacity:0.9;fill:#7ED0E0;}
	.st24{opacity:0.9;fill:#62C2CB;}
	.st25{opacity:0.9;fill:#41B3BF;}
	.st26{fill:#B1C8BC;}
	.st27{fill:#E21E26;}
	.st28{fill:#C1C0C0;}
	.st29{fill:#FCCE08;}
	.st30{opacity:0.7;}
	.st31{fill:#C8C7C6;}
	.st32{opacity:0.9;}
	.st33{fill:#41B3BF;}
	.st34{fill:#E75524;}
	.st35{fill:#62BE6B;}
	.st36{opacity:0.7;fill:#A6A6A6;}
	.st37{opacity:0.3;fill:#5BB353;}
	.st38{fill:#D1D1D1;}
	.st39{fill:#5BB353;}
	.st40{fill:#EDEDED;}
	.st41{fill:#DBDBDB;}
	.st42{fill:#F7F7F7;}
	.st43{fill:#E0E0E0;}
	.st44{fill:#EBEBEB;}
	.st45{fill:#811E18;}
	.st46{fill:#BC2025;}
	.st47{fill:#EB2024;}
	.st48{opacity:0.7;fill:#93CACB;}
	.st49{opacity:0.4;}
	.st50{fill:#919898;}
	.st51{fill:#C2CACB;}
	.st52{opacity:0.4;fill:#82C7DE;}
	.st53{opacity:0.8;fill:#FFFFFF;}
	.st54{opacity:0.5;fill:#FFFFFF;}
	.st55{fill:#FABE79;}
	.st56{fill:#F6AB62;}
	.st57{opacity:0.6;fill:#AE7B47;}
	.st58{fill:#B48049;}
	.st59{fill:#9B703F;}
	.st60{opacity:0.3;fill:#AE7B47;}
	.st61{opacity:0.3;}
	.st62{fill:#9C703E;}
	.st63{opacity:0.3;fill:#9B703F;}
	.st64{opacity:0.5;fill:#F6AB62;}
	.st65{opacity:0.4;fill:#FABE79;}
	.st66{fill:#DBDADA;}
	.st67{opacity:0.4;fill:#B2B4B7;}
	.st68{opacity:0.2;fill:#C1C1B7;}
	.st69{fill:#C2C2C2;}
	.st70{opacity:0.5;fill:#C2C2C2;}
	.st71{fill:#E5E1C6;}
	.st72{opacity:0.5;fill:#D4D1B8;}
	.st73{fill:#E3E3E3;}
	.st74{opacity:0.8;fill:#D4D1B8;}
	.st75{fill:#D4D1B8;}
	.st76{opacity:0.5;fill:#D0B9AD;}
	.st77{opacity:0.4;fill:#D4D1B8;}
	.st78{fill:#D2D1CE;}
	.st79{opacity:0.4;fill:#D2D1CE;}
	.st80{opacity:0.4;fill:#C2C2C2;}
	.st81{fill:#BFC1B8;}
	.st82{fill:#CB484F;}
	.st83{fill:#A7A9A0;}
	.st84{fill:#C3979C;}
	.st85{fill:#C7B88F;}
	.st86{fill:#9ACACB;}
	.st87{fill:#A8A8AB;}
	.st88{opacity:0.6;fill:#BE9C7A;}
	.st89{fill:#A4A391;}
	.st90{opacity:0.6;fill:#C2C2C2;}
	.st91{fill:#789D99;}
	.st92{opacity:0.4;fill:#789D99;}
	.st93{fill:#D1CEB6;}
	.st94{fill:#B8B6A1;}
	.st95{fill:#BAB8A3;}
	.st96{fill:#ABAA97;}
	.st97{fill:#E4E4E2;}
	.st98{opacity:0.6;}
	.st99{fill:#BEA18D;}
	.st100{opacity:0.3;fill:#BEA18D;}
	.st101{opacity:0.2;fill:#BEA18D;}
	.st102{fill:#D9BDA6;}
	.st103{fill:#CCAD93;}
	.st104{fill:#603412;}
	.st105{opacity:0.5;fill:#93816B;}
	.st106{opacity:0.4;fill:#331C0F;}
	.st107{fill:#93816B;}
	.st108{fill:#331C0F;}
	.st109{opacity:0.5;fill:#FFF7EA;}
	.st110{fill:#3F2612;}
	.st111{fill:#D62839;}
	.st112{fill:#F9AE9C;}
	.st113{fill:#4B632D;}
	.st114{opacity:0.5;fill:#86926B;}
	.st115{opacity:0.4;fill:#2E3618;}
	.st116{fill:#86926B;}
	.st117{fill:#2E3618;}
	.st118{opacity:0.5;fill:#F7F9E8;}
	.st119{fill:#34411B;}
	.st120{fill:#D59829;}
	.st121{fill:#FAF39E;}
	.st122{fill:#242424;}
	.st123{fill:#333232;}
	.st124{fill:#5D5D5D;}
	.st125{fill:#161616;}
	.st126{fill:#B3B3B3;}
	.st127{fill:#1A1A1A;}
	.st128{fill:#48893F;}
	.st129{fill:#FBAE1C;}
	.st130{fill:#759C3F;}
	.st131{fill:#56692F;}
	.st132{fill:#CAD631;}
	.st133{opacity:0.7;fill:#A66227;}
	.st134{fill:#BBBBBB;}
	.st135{fill:#A03B22;}
	.st136{fill:#C17529;}
	.st137{fill:#F47B2A;}
	.st138{fill:#792816;}
	.st139{fill:#FFF4EC;}
	.st140{fill:#89361C;}
	.st141{fill:#C3AC9E;}
	.st142{fill:#D3C1B9;}
	.st143{fill:#E2E1D5;}
	.st144{fill:#343225;}
	.st145{fill:#040406;}
	.st146{opacity:0.5;fill:#343225;}
	.st147{fill:#4C4333;}
	.st148{fill:#89877B;}
	.st149{fill:url(#SVGID_3_);}
	.st150{fill:url(#SVGID_4_);}
	.st151{opacity:0.5;fill:url(#SVGID_5_);}
	.st152{fill:url(#SVGID_6_);}
	.st153{fill:url(#SVGID_7_);}
	.st154{fill:url(#SVGID_8_);}
	.st155{fill:url(#SVGID_9_);}
	.st156{fill:url(#SVGID_10_);}
	.st157{opacity:0.3;fill:url(#SVGID_11_);}
	.st158{opacity:0.3;fill:url(#SVGID_12_);}
	.st159{fill:url(#SVGID_13_);}
	.st160{fill:url(#SVGID_14_);}
	.st161{fill:url(#SVGID_15_);}
	.st162{fill:url(#SVGID_16_);}
	.st163{fill:url(#SVGID_17_);}
	.st164{fill:url(#SVGID_18_);}
	.st165{opacity:0.7;fill:url(#SVGID_19_);}
	.st166{fill:url(#SVGID_20_);}
	.st167{filter:url(#Adobe_OpacityMaskFilter);}
	.st168{fill:url(#SVGID_22_);}
	.st169{opacity:0.7;mask:url(#SVGID_21_);fill:url(#SVGID_23_);}
	.st170{fill:url(#SVGID_24_);}
	.st171{opacity:0.5;fill:url(#SVGID_25_);}
	.st172{opacity:0.5;fill:url(#SVGID_26_);}
	.st173{opacity:0.3;fill:url(#SVGID_27_);}
	.st174{filter:url(#Adobe_OpacityMaskFilter_1_);}
	.st175{filter:url(#Adobe_OpacityMaskFilter_2_);}
	.st176{mask:url(#SVGID_28_);fill:url(#SVGID_29_);}
	.st177{fill:url(#SVGID_30_);}
	.st178{filter:url(#Adobe_OpacityMaskFilter_3_);}
	.st179{opacity:0.8;fill:url(#SVGID_32_);}
	.st180{mask:url(#SVGID_31_);}
	.st181{filter:url(#Adobe_OpacityMaskFilter_4_);}
	.st182{filter:url(#Adobe_OpacityMaskFilter_5_);}
	.st183{fill:url(#SVGID_33_);}
	.st184{fill:url(#SVGID_34_);}
	.st185{filter:url(#Adobe_OpacityMaskFilter_6_);}
	.st186{filter:url(#Adobe_OpacityMaskFilter_7_);}
	.st187{mask:url(#SVGID_35_);fill:url(#SVGID_36_);}
	.st188{opacity:0.6;fill:url(#SVGID_37_);}
	.st189{opacity:0.9;fill:url(#SVGID_38_);}
	.st190{fill:url(#SVGID_39_);}
	.st191{opacity:0.3;fill:url(#SVGID_40_);}
	.st192{opacity:0.3;fill:url(#SVGID_41_);}
	.st193{opacity:0.8;fill:url(#SVGID_42_);}
	.st194{fill:#F7DDBC;}
	.st195{fill:#D9B48A;}
	.st196{opacity:0.5;fill:#F7DDBC;}
	.st197{opacity:0.3;fill:#DEAA79;}
	.st198{opacity:0.3;fill:#A47348;}
	.st199{opacity:0.5;fill:#DEAA79;}
	.st200{opacity:0.5;fill:#A47348;}
	.st201{opacity:0.3;fill:#BE905C;}
	.st202{fill:#FFEBD7;}
	.st203{opacity:0.3;fill:#DEB485;}
	.st204{opacity:0.3;fill:#8F622F;}
	.st205{opacity:0.2;fill:#BA915C;}
	.st206{opacity:0.2;fill:#BE905C;}
	.st207{opacity:0.3;fill:#D5AD7A;}
	.st208{opacity:0.5;fill:#D5AD7A;}
	.st209{fill:#17ADE4;}
	.st210{fill:#F99B1C;}
	.st211{opacity:0.2;fill:#D59B29;}
	.st212{opacity:0.5;fill:#D59B29;}
	.st213{opacity:0.5;fill:#B8802B;}
	.st214{fill:#FAD00A;}
	.st215{fill:#EEA320;}
	.st216{opacity:0.4;fill:#FAD00A;}
	.st217{opacity:0.7;fill:#FAD00A;}
	.st218{opacity:0.7;fill:#E7C249;}
	.st219{opacity:0.7;fill:#E9B44A;}
	.st220{fill:#3A5728;}
	.st221{opacity:0.3;fill:#3A5728;}
	.st222{opacity:0.5;fill:#3A5728;}
	.st223{opacity:0.3;fill:#6D9D40;}
	.st224{opacity:0.3;fill:#547B38;}
	.st225{fill:#1C2C17;}
	.st226{opacity:0.3;fill:#1A381C;}
	.st227{fill:#152A17;}
	.st228{fill:#F8BC16;}
	.st229{opacity:0.2;fill:#F8BC16;}
	.st230{opacity:0.1;fill:#F8BC16;}
	.st231{opacity:0.3;fill:#E09426;}
	.st232{opacity:0.3;fill:#D98B28;}
	.st233{fill:#CE6F28;}
	.st234{fill:#A65225;}
	.st235{fill:#D88E28;}
	.st236{fill:#BD6728;}
	.st237{fill:#F09F20;}
	.st238{fill:#D37A28;}
	.st239{fill:#A2C83A;}
	.st240{opacity:0.2;fill:#A2C83A;}
	.st241{fill:#ECACCE;}
	.st242{fill:#CB6BAA;}
	.st243{fill:#FACB84;}
	.st244{fill:#F8BA58;}
	.st245{fill:#F3A846;}
	.st246{opacity:0.5;fill:#FACB84;}
	.st247{opacity:0.5;fill:#F8BA58;}
	.st248{fill:#80461D;}
	.st249{opacity:0.7;fill:#ECACCE;}
	.st250{opacity:0.7;fill:#FACB84;}
	.st251{fill:#356531;}
	.st252{opacity:0.2;fill:#356531;}
	.st253{opacity:0.5;fill:#356531;}
	.st254{fill:#508B3F;}
	.st255{fill:#117A3D;}
	.st256{opacity:0.4;fill:#508B3F;}
	.st257{opacity:0.7;fill:#508B3F;}
	.st258{fill:#467135;}
	.st259{opacity:0.2;fill:#467135;}
	.st260{opacity:0.3;fill:#467135;}
	.st261{fill:#203C1C;}
	.st262{fill:#142716;}
	.st263{fill:#325628;}
	.st264{fill:#193019;}
	.st265{fill:#20552A;}
	.st266{opacity:0.5;fill:#508B3F;}
	.st267{opacity:0.5;fill:#A2C83A;}
	.st268{fill:#88171A;}
	.st269{fill:#C02326;}
	.st270{fill:#A61E22;}
	.st271{opacity:0.4;fill:#C02326;}
	.st272{opacity:0.7;fill:#C02326;}
	.st273{opacity:0.2;fill:#A61E22;}
	.st274{opacity:0.3;fill:#A61E22;}
	.st275{fill:#62130C;}
	.st276{fill:#451310;}
	.st277{fill:#791514;}
	.st278{fill:#861719;}
	.st279{fill:#FECF0A;}
	.st280{opacity:0.4;fill:#C6A239;}
	.st281{opacity:0.2;fill:#E4A33A;}
	.st282{opacity:0.3;fill:#B8A137;}
	.st283{opacity:0.3;fill:#FECF0A;}
	.st284{fill:#F5B41A;}
	.st285{opacity:0.6;fill:#CFAE2B;}
	.st286{opacity:0.4;fill:#CFAE2B;}
	.st287{fill:#98772C;}
	.st288{fill:#FFD86D;}
	.st289{fill:#E59F24;}
	.st290{fill:#ECB31F;}
	.st291{fill:#E8B321;}
	.st292{opacity:0.3;fill:#E4A33A;}
	.st293{opacity:0.3;fill:#D48E64;}
	.st294{opacity:0.2;fill:#C6A239;}
	.st295{fill:#FDEB07;stroke:#E0E1E0;stroke-width:0;stroke-linecap:round;stroke-linejoin:round;}
	.st296{fill:#BCBAA3;}
	.st297{fill:#55813B;}
	.st298{fill:#32421B;}
	.st299{opacity:0.3;fill:#517636;}
	.st300{fill:#6E953E;}
	.st301{opacity:0.2;fill:#3A5728;}
	.st302{fill:#42793A;}
	.st303{fill:#F6871F;}
	.st304{opacity:0.2;fill:#E66725;}
	.st305{fill:#D65027;}
	.st306{fill:#CB5727;}
	.st307{opacity:0.2;}
	.st308{fill:#AD6427;}
	.st309{opacity:0.3;fill:#E66725;}
	.st310{opacity:0.5;fill:#DC8127;}
	.st311{fill:#D5D1C5;}
	.st312{fill:#DCB399;}
	.st313{fill:#EAC6AF;}
	.st314{opacity:0.5;fill:#EAC6AF;}
	.st315{opacity:0.5;fill:#E9DEDE;}
	.st316{opacity:0.6;fill:#E9DEDE;}
	.st317{fill:#F7D8C1;}
	.st318{fill:none;}
	.st319{opacity:0.3;fill:#C49374;}
	.st320{fill:#6F903C;}
	.st321{opacity:0.4;fill:#3A5728;}
	.st322{opacity:0.5;fill:#6F903C;}
	.st323{opacity:0.5;fill:#7C963B;}
	.st324{fill:#516A30;}
	.st325{opacity:0.2;fill:#E0E1E0;}
	.st326{opacity:0.2;fill:#C2CACB;}
	.st327{opacity:0.5;fill:#C2CACB;}
	.st328{opacity:0.2;fill:#645C51;}
	.st329{fill:#FAFAFA;}
	.st330{fill:#D6D6D6;}
	.st331{opacity:0.3;fill:#B4C0B2;}
	.st332{fill:#BDBDBD;}
	.st333{fill:#961B1E;}
	.st334{fill:#AF2F24;}
	.st335{fill:#C53127;}
	.st336{fill:#76533F;}
	.st337{fill:#533A2A;}
	.st338{opacity:0.7;fill:#E94466;}
	.st339{fill:#D91F26;}
	.st340{fill:#F6DAB4;}
	.st341{fill:#D2A47F;}
	.st342{fill:#B4B4B4;}
	.st343{fill:#E88B38;}
	.st344{fill:#FBAD47;}
	.st345{fill:#CFB581;}
	.st346{fill:#594D41;}
	.st347{fill:#FDF8F2;}
	.st348{opacity:0.5;fill:#E88B38;}
	.st349{fill:#DDDCD8;}
	.st350{opacity:0.8;fill:#E88B38;}
	.st351{opacity:0.5;fill:#594D41;}
	.st352{fill:#F89A1C;}
	.st353{opacity:0.4;fill:#FDC110;}
	.st354{fill:#FEE600;}
	.st355{fill:#FDC110;}
	.st356{fill:#7CBDE8;}
	.st357{opacity:0.6;fill:#5BB353;}
	.st358{fill:#046CA6;}
	.st359{opacity:0.3;fill:#046CA6;}
	.st360{opacity:0.3;fill:#20ABE3;}
	.st361{fill:#754138;}
	.st362{fill:#6A2116;}
	.st363{fill:#381512;}
</style>














<g
   id="g1070"
   transform="translate(-406.69684,-205.64505)">
	<path
   class="st113"
   d="m 480.32,295.32 c 11.1,9.9 18.61,25.9 18.61,25.9 0,0 0.06,0.47 -0.11,1.12 -0.17,0.65 0.29,1.61 1.22,2.12 0.35,0.2 0.41,0.67 0.69,1.46 0.29,0.79 0.4,2.1 0.9,2.47 0.5,0.37 2.35,1.41 6.58,-0.58 0.03,-0.01 0.05,-0.02 0.08,-0.04 0.03,-0.02 0.05,-0.03 0.08,-0.04 4.07,-2.29 4.3,-4.4 4.29,-5.03 -0.01,-0.62 -1.01,-1.48 -1.49,-2.16 -0.48,-0.69 -0.84,-1.01 -0.79,-1.41 0.12,-1.06 -0.39,-1.98 -1.02,-2.22 -0.63,-0.24 -0.98,-0.56 -0.98,-0.56 0,0 -8.69,-15.39 -10.31,-30.17 -1.63,-14.79 -1.15,-12.16 -5.73,-21.05 -4.59,-8.88 -13.29,-25.76 -15.79,-30.6 -2.49,-4.83 -3.66,-6.36 -5.5,-6.04 -1.43,0.25 -4.91,0.1 -12.05,3.74 -7.09,3.71 -8.99,6.63 -10.03,7.65 -1.32,1.31 -0.75,3.14 1.74,7.98 2.5,4.84 11.2,21.72 15.79,30.61 4.58,8.87 2.71,6.95 13.82,16.85 z"
   id="path1012"
   inkscape:connector-curvature="0"
   style="fill:#4b632d" />
	<path
   class="st114"
   d="m 480.32,295.32 c 11.1,9.9 18.61,25.9 18.61,25.9 0,0 0.06,0.47 -0.11,1.12 -0.17,0.65 0.29,1.61 1.22,2.12 0.35,0.2 0.41,0.67 0.69,1.46 0.29,0.79 0.4,2.1 0.9,2.47 0.5,0.36 2.31,1.39 6.45,-0.52 -0.91,-0.85 -1.99,-1.53 -2.86,-2.42 -1.38,-1.41 -2.52,-3.06 -3.51,-4.77 -2.12,-3.67 -3.92,-7.54 -5.91,-11.27 -0.6,-1.13 -1.18,-2.28 -1.76,-3.42 -4.01,-6.38 -7.83,-12.88 -12.13,-19.08 -2.49,-3.59 -4.98,-7.12 -7.11,-10.95 -2.07,-3.72 -3.95,-7.55 -5.84,-11.36 -1.88,-3.79 -3.7,-7.66 -5.97,-11.23 -1.6,-2.55 -3.29,-5.04 -4.77,-7.66 -1.69,-3 -3.8,-7.06 -3.75,-10.8 -3.49,2.39 -4.74,4.2 -5.51,4.96 -1.32,1.31 -0.75,3.14 1.74,7.98 l 15.79,30.61 c 4.59,8.88 2.72,6.96 13.83,16.86 z"
   id="path1014"
   inkscape:connector-curvature="0"
   style="opacity:0.5;fill:#86926b" />
	<path
   class="st115"
   d="m 451.84,242.65 c 1.04,-0.66 2.28,-0.99 3.46,-1.33 1.78,-0.53 3.47,-1.24 5.12,-2.11 1.96,-1.03 3.92,-2.11 5.8,-3.26 0.94,-0.57 1.85,-1.17 2.75,-1.78 0.42,-0.29 0.85,-0.58 1.27,-0.88 0.08,-0.05 0.13,-0.09 0.18,-0.11 -0.01,-0.01 0.02,-0.05 0.13,-0.15 0.08,-0.09 0.17,-0.17 0.25,-0.26 0.96,-1.06 2.3,-2.14 3.84,-1.43 0.07,0.03 0.14,0.07 0.21,0.1 -1.44,-2.4 -2.43,-3.18 -3.8,-2.94 -1.43,0.25 -4.91,0.1 -12.05,3.74 -7.09,3.71 -8.99,6.63 -10.03,7.65 -1.1,1.09 -0.89,2.53 0.63,5.75 0.33,-1.29 1.08,-2.26 2.24,-2.99 z"
   id="path1016"
   inkscape:connector-curvature="0"
   style="opacity:0.4;fill:#2e3618" />
	<path
   class="st115"
   d="m 448.71,241.15 c 1.1,0.52 2.46,0.34 3.61,0.07 3.59,-0.84 7.02,-2.36 10.24,-4.14 2.8,-1.55 5.64,-3.27 8.2,-5.22 0.77,-0.59 2.3,-1.67 2,-2.83 -0.02,-0.08 -0.05,-0.17 -0.09,-0.25 -0.51,-0.32 -1.03,-0.41 -1.62,-0.3 -1.43,0.25 -4.91,0.1 -12.05,3.74 -7.09,3.71 -8.99,6.63 -10.03,7.65 -0.32,0.32 -0.52,0.66 -0.63,1.07 0.11,0.07 0.23,0.15 0.37,0.21 z m 4.21,-2.32 c 1.1,-1.53 2.84,-2.9 4.39,-3.81 3.56,-2.11 6.91,-4.09 11.01,-4.32 0.39,-0.02 1.53,0.42 -0.3,2.13 -2.28,2.12 -10.98,7.26 -14.63,7.27 -0.31,-0.01 -1.24,-0.22 -0.47,-1.27 z"
   id="path1018"
   inkscape:connector-curvature="0"
   style="opacity:0.4;fill:#2e3618" />
	<path
   class="st116"
   d="m 452.44,236.42 c -0.91,0.75 -1.59,1.42 -2.12,1.97 0.28,2.82 1.88,5.47 3.33,7.86 2.26,3.74 4.38,7.57 6.59,11.34 2.36,4.02 4.57,8.09 6.69,12.25 2.13,4.17 4.86,10.47 7.57,14.3 1.56,2.2 3.2,3.87 5.07,5.82 2.04,2.13 2.7,2.51 4.27,4.62 2.98,3.98 5.76,8.11 8.21,12.44 2.68,4.74 5.18,10.17 8.94,14.26 -1.51,-1.88 -2.85,-3.91 -4.07,-6 -2.27,-3.89 -4.19,-7.96 -6.28,-11.94 -2.42,-4.57 -3.55,-5.71 -6.63,-9.86 -2.82,-3.82 -6.62,-7.06 -10.23,-13.66 -2.6,-4.75 -5.81,-11.27 -8.34,-16.06 -2.17,-4.13 -4.19,-8.37 -6.52,-12.42 -1.52,-2.65 -3.16,-5.26 -4.45,-8.04 -0.98,-2.15 -1.86,-4.49 -2.03,-6.88 z"
   id="path1020"
   inkscape:connector-curvature="0"
   style="fill:#86926b" />
	<path
   class="st117"
   d="m 469.21,230.61 c 1.01,1.35 2.58,4.69 3.37,6.16 1.24,2.3 2.68,4.51 4.03,6.75 2.81,4.66 5.36,10.39 7.86,15.23 2.25,4.35 5.82,10.05 7.71,14.58 1.06,2.54 1.7,4.34 2.17,6.75 0.5,2.54 0.76,4.14 1.21,6.69 0.81,4.64 2.22,8.97 3.95,13.33 3.47,8.69 6.82,17.48 11.81,25.41 1.24,-1.34 1.34,-2.4 1.33,-2.82 -0.01,-0.62 -1.01,-1.48 -1.49,-2.16 -0.48,-0.69 -0.84,-1.01 -0.79,-1.41 0.12,-1.06 -0.39,-1.98 -1.02,-2.22 -0.63,-0.24 -0.98,-0.56 -0.98,-0.56 0,0 -8.69,-15.39 -10.31,-30.17 -1.63,-14.79 -1.15,-12.16 -5.73,-21.05 l -15.79,-30.6 c -2.49,-4.83 -3.66,-6.36 -5.5,-6.04 -1.05,0.18 -3.24,0.15 -7.19,1.6 2.39,-0.17 3.86,-1.47 5.36,0.53 z"
   id="path1022"
   inkscape:connector-curvature="0"
   style="fill:#2e3618" />
	<path
   class="st118"
   d="m 509.64,326.93 c 0.69,-0.48 1.23,-0.95 1.64,-1.39 -0.31,-0.38 -0.61,-0.76 -0.89,-1.16 -2.77,-3.95 -4.49,-8.46 -6.4,-12.86 -1.08,-2.48 -2.39,-4.85 -3.56,-7.28 -1.15,-2.36 -2.15,-4.77 -2.97,-7.26 -1.6,-4.87 -1.6,-7.94 -2.58,-12.97 -0.53,-2.71 -0.85,-6.46 -1.49,-8.7 -0.68,-2.4 -2.22,-6.11 -3.89,-9.37 -2.27,-4.4 -5.78,-10.57 -8.09,-14.95 -2.09,-3.96 -4.32,-8.74 -6.42,-12.69 -1.9,-3.58 -3.82,-7.41 -5.78,-8.77 -0.74,-0.51 -2.04,-0.32 -3.39,-0.12 -1.21,0.35 -2.63,0.85 -4.3,1.59 0.86,0.27 1.87,-1.32 3.45,0.72 2.55,3.29 5.97,11.12 7.98,14.75 2.09,3.78 11.89,21.54 14.14,25.7 2.49,4.62 3.94,10.41 5.67,15.36 0.9,2.57 0.51,4.53 1.52,7.06 0.94,2.39 0.88,3.25 1.9,5.62 3.91,9.16 7.59,18.62 13.46,26.72 z"
   id="path1024"
   inkscape:connector-curvature="0"
   style="opacity:0.5;fill:#f7f9e8" />
	<path
   class="st119"
   d="m 480.32,295.32 c 11.1,9.9 18.61,25.9 18.61,25.9 0,0 0.06,0.47 -0.11,1.12 -0.17,0.65 0.29,1.61 1.22,2.12 0.35,0.2 0.41,0.67 0.69,1.46 0.29,0.79 0.4,2.1 0.9,2.47 0.21,0.16 0.66,0.43 1.42,0.54 -2.98,-5.99 -5.64,-12.13 -8.51,-18.18 -2.36,-4.96 -5.42,-8.48 -9.58,-13.64 -3.67,-4.54 -7.86,-7.41 -11.41,-12.3 -3.14,-4.33 -4.57,-7.86 -7.85,-14.13 -2.4,-4.59 -4.87,-10.14 -7.5,-14.59 -2.62,-4.42 -5.69,-10.88 -7.85,-15.55 -0.68,-1.44 3.16,-4.48 4.04,-5.56 -3.42,2.36 -4.65,4.14 -5.41,4.89 -1.32,1.31 -0.75,3.14 1.74,7.98 l 15.79,30.61 c 4.57,8.88 2.7,6.96 13.81,16.86 z"
   id="path1026"
   inkscape:connector-curvature="0"
   style="fill:#34411b" />
	<path
   class="st120"
   d="m 496.39,292.16 c 0.02,0.05 0.04,0.1 0.07,0.13 0.47,1.02 0.82,2.09 1.26,3.13 1.14,2.67 2.24,5.36 3.39,8.03 1.19,2.74 2.59,5.4 3.86,8.11 0.62,1.31 1.26,2.62 1.97,3.88 0.3,0.54 0.66,1.01 0.44,1.59 0.04,0.05 0.04,0.13 -0.01,0.19 -0.81,1.03 -1.86,1.81 -2.98,2.48 -1.12,0.66 -2.31,1.38 -3.64,1.57 -0.76,0.11 -1.43,-0.11 -2.03,-0.5 0.14,0.29 0.21,0.44 0.21,0.44 0,0 0.06,0.47 -0.11,1.12 -0.04,0.16 -0.04,0.32 -0.02,0.5 0.01,0 0.01,0 0.01,-0.01 0.24,-0.68 0.77,-0.82 1.44,-0.93 0.07,-0.01 0.13,-0.02 0.2,-0.04 2.58,-0.9 4.81,-2.22 6.95,-3.87 0.57,-0.65 1.33,-1.32 1.9,-0.8 0.39,0.36 0.69,0.95 0.72,1.48 0.03,0.71 -0.6,1.09 -1.08,1.52 -0.05,0.05 -0.12,0.05 -0.17,0.04 -1.38,1.15 -2.86,2.2 -4.53,2.85 -1.39,0.54 -2.83,1.14 -4.31,1.31 0.03,0.02 0.07,0.05 0.1,0.07 0.35,0.2 0.41,0.67 0.69,1.46 0.29,0.79 0.4,2.1 0.9,2.47 0.1,0.07 0.26,0.18 0.47,0.27 -0.07,-0.06 -0.13,-0.13 -0.19,-0.21 -0.34,-0.43 -0.45,-0.98 -0.59,-1.49 -0.14,-0.49 -0.35,-0.96 -0.48,-1.45 -0.22,-0.81 0.13,-1.06 0.91,-1.24 1,-0.23 2,-0.68 2.94,-1.17 0.05,-0.06 0.12,-0.12 0.2,-0.18 0.19,-0.13 0.41,-0.27 0.63,-0.27 0.14,-0.08 0.28,-0.16 0.42,-0.23 1.04,-0.58 2.01,-1.23 2.98,-1.9 0.01,-0.02 0.02,-0.02 0.04,-0.03 0.24,-0.17 0.49,-0.34 0.74,-0.52 0.55,-0.39 1.06,0.29 1.34,0.68 0.56,0.8 1.25,1.64 1.33,2.65 0.04,0.36 -0.05,0.71 -0.2,1.04 0.42,-0.77 0.47,-1.36 0.47,-1.64 -0.01,-0.62 -1.01,-1.48 -1.49,-2.16 -0.48,-0.69 -0.84,-1.01 -0.79,-1.41 0.12,-1.06 -0.39,-1.98 -1.02,-2.22 -0.63,-0.24 -0.98,-0.56 -0.98,-0.56 0,0 -6.65,-11.79 -9.41,-24.65 -0.89,0.1 -1.78,0.28 -2.55,0.47 z"
   id="path1028"
   inkscape:connector-curvature="0"
   style="fill:#d59829" />
	<path
   class="st21"
   d="m 492.91,282.13 c 0.4,1.74 0.72,3.2 0.72,3.2 l 1.34,-0.32 c -0.04,-0.48 -0.11,-1.64 -0.3,-3.18 -0.58,0.1 -1.17,0.2 -1.76,0.3 z"
   id="path1030"
   inkscape:connector-curvature="0"
   style="fill:#ffffff" />
	<path
   class="st21"
   d="m 492.55,280.56 c 0.64,-0.1 1.27,-0.21 1.91,-0.32 -0.34,-2.24 -0.9,-4.94 -1.84,-7.52 -1.49,-4.1 -8.25,-15.75 -8.25,-15.75 L 482,257.7 c 0,0 2.79,4.93 4.73,8.69 1.94,3.75 4.38,8.74 5.01,10.91 0.22,0.77 0.51,2 0.81,3.26 z"
   id="path1032"
   inkscape:connector-curvature="0"
   style="fill:#ffffff" />
	<path
   class="st21"
   d="m 473.52,235.7 -2.43,0.38 c 0,0 -2.03,-3.2 -2.69,-4.48 -0.66,-1.29 -2.26,-1.96 -6.27,-0.77 0,0 6.03,-2.61 7.84,-1.29 1.8,1.32 3.55,6.16 3.55,6.16 z"
   id="path1034"
   inkscape:connector-curvature="0"
   style="fill:#ffffff" />
	<path
   class="st121"
   d="m 508.38,319.22 c 0.06,0.08 0.2,0.02 0.16,-0.07 -0.02,-0.07 -0.05,-0.15 -0.08,-0.22 -0.03,-0.07 -0.06,-0.16 -0.14,-0.2 -0.06,-0.03 -0.14,0 -0.16,0.07 0,0.15 0.15,0.31 0.22,0.42 z"
   id="path1036"
   inkscape:connector-curvature="0"
   style="fill:#faf39e" />
	<path
   class="st121"
   d="m 507.8,319.28 c 0.08,0.04 0.16,0.09 0.23,0.13 0.09,0.04 0.23,-0.07 0.15,-0.16 -0.06,-0.08 -0.11,-0.17 -0.18,-0.25 -0.04,-0.05 -0.12,-0.05 -0.17,-0.04 -0.01,0 -0.01,0 -0.02,0.01 -0.07,0.01 -0.11,0.08 -0.11,0.15 0,0.01 0,0.01 0,0.02 0.01,0.06 0.05,0.11 0.1,0.14 z"
   id="path1038"
   inkscape:connector-curvature="0"
   style="fill:#faf39e" />
	<path
   class="st121"
   d="m 506.79,320.54 c 0.08,0.05 0.17,0.03 0.23,-0.04 0.01,0.01 0.01,0.01 0.01,0.01 0.19,0.18 0.5,0.03 0.5,-0.23 -0.01,-0.07 -0.02,-0.15 -0.03,-0.22 0.04,0.02 0.07,0.04 0.11,0.04 0.05,0.03 0.1,-0.01 0.11,-0.06 0.07,-0.12 -0.02,-0.28 -0.08,-0.39 -0.09,-0.17 -0.19,-0.36 -0.33,-0.5 -0.14,-0.14 -0.44,-0.06 -0.47,0.15 -0.01,0.08 -0.01,0.17 -0.01,0.24 -0.12,-0.01 -0.25,0.04 -0.29,0.15 -0.14,0.32 -0.03,0.67 0.25,0.85 z"
   id="path1040"
   inkscape:connector-curvature="0"
   style="fill:#faf39e" />
	<path
   class="st121"
   d="m 504.69,321.37 c 0.1,0.16 0.22,0.3 0.35,0.44 0.07,0.07 0.17,0.04 0.21,-0.03 0.11,0.02 0.24,-0.06 0.19,-0.2 -0.03,-0.12 -0.08,-0.24 -0.13,-0.36 0.13,0.04 0.25,0.09 0.38,0.13 0.11,0.04 0.2,0 0.26,-0.07 0.17,0.04 0.39,-0.08 0.36,-0.29 -0.01,-0.02 -0.01,-0.04 -0.01,-0.06 0.03,0.02 0.06,0.05 0.1,0.07 0.18,0.11 0.33,-0.12 0.25,-0.28 -0.12,-0.24 -0.34,-0.45 -0.54,-0.62 -0.14,-0.11 -0.38,-0.06 -0.45,0.08 -0.02,-0.01 -0.03,-0.02 -0.05,-0.03 -0.28,-0.14 -0.52,0.16 -0.39,0.42 0.01,0.02 0.02,0.05 0.04,0.08 -0.08,-0.01 -0.16,0.01 -0.22,0.06 -0.07,-0.03 -0.14,-0.04 -0.2,-0.02 -0.08,0.02 -0.13,0.08 -0.16,0.14 -0.07,0.01 -0.13,0.05 -0.14,0.13 -0.02,0.16 0.07,0.27 0.15,0.41 z"
   id="path1042"
   inkscape:connector-curvature="0"
   style="fill:#faf39e" />
	<path
   class="st121"
   d="m 502.89,322.26 c 0.11,0.18 0.28,0.31 0.48,0.36 0.15,0.03 0.25,-0.16 0.14,-0.27 -0.07,-0.07 -0.11,-0.17 -0.15,-0.27 h 0.01 c 0.1,0.09 0.18,0.18 0.24,0.3 0.14,0.27 0.52,0.1 0.53,-0.16 v -0.01 c 0.03,0 0.06,0 0.09,-0.01 0.04,-0.01 0.07,-0.04 0.08,-0.07 -0.02,0.04 0.05,-0.04 0.05,-0.04 0.04,-0.04 0.01,-0.1 -0.04,-0.1 -0.01,0 -0.02,0 -0.02,0.01 -0.01,-0.01 -0.01,-0.01 -0.01,-0.02 -0.03,-0.04 -0.04,-0.1 -0.06,-0.14 -0.01,-0.01 -0.01,-0.02 -0.01,-0.03 0.08,0.07 0.17,0.13 0.26,0.19 0.13,0.07 0.25,-0.1 0.15,-0.21 -0.19,-0.2 -0.3,-0.44 -0.48,-0.65 -0.1,-0.11 -0.25,-0.03 -0.28,0.09 -0.13,-0.02 -0.27,0.05 -0.3,0.2 0,0.02 -0.01,0.05 -0.01,0.08 -0.04,-0.03 -0.07,-0.05 -0.11,-0.07 -0.15,-0.08 -0.29,-0.02 -0.36,0.09 -0.13,-0.08 -0.28,0.01 -0.35,0.11 -0.12,0.2 0.05,0.46 0.15,0.62 z"
   id="path1044"
   inkscape:connector-curvature="0"
   style="fill:#faf39e" />
	<path
   class="st121"
   d="m 502.24,322.77 c 0.1,0.15 0.33,0.07 0.32,-0.1 0,-0.01 0.01,-0.02 0.01,-0.03 0.02,0.01 0.04,0.03 0.05,0.06 0.08,0.12 0.31,0.04 0.25,-0.12 -0.07,-0.16 -0.21,-0.25 -0.28,-0.4 -0.06,-0.13 -0.2,-0.1 -0.28,-0.02 -0.04,-0.04 -0.07,-0.07 -0.13,-0.07 -0.06,-0.01 -0.14,0.02 -0.17,0.08 -0.04,0.12 -0.02,0.19 0.04,0.29 0.07,0.1 0.13,0.21 0.19,0.31 z"
   id="path1046"
   inkscape:connector-curvature="0"
   style="fill:#faf39e" />
	<path
   class="st121"
   d="m 501.84,323.07 c 0.11,0.08 0.29,-0.03 0.2,-0.16 -0.06,-0.09 -0.11,-0.18 -0.14,-0.28 -0.04,-0.11 -0.04,-0.21 -0.15,-0.28 -0.07,-0.05 -0.16,0.01 -0.2,0.06 -0.08,0.12 0,0.25 0.05,0.36 0.04,0.13 0.13,0.22 0.24,0.3 z"
   id="path1048"
   inkscape:connector-curvature="0"
   style="fill:#faf39e" />
	<path
   class="st121"
   d="m 501.3,323.15 c 0.13,0.03 0.19,-0.15 0.08,-0.21 -0.04,-0.02 -0.05,-0.06 -0.07,-0.09 -0.08,-0.11 -0.27,-0.04 -0.22,0.1 0.04,0.11 0.1,0.17 0.21,0.2 z"
   id="path1050"
   inkscape:connector-curvature="0"
   style="fill:#faf39e" />
	<path
   class="st121"
   d="m 505.67,328.36 c 1.81,0.14 3.41,-1.31 4.55,-2.54 0.04,-0.04 -0.01,-0.11 -0.07,-0.08 -1.45,1 -2.85,1.87 -4.5,2.51 -0.06,0.02 -0.04,0.1 0.02,0.11 z"
   id="path1052"
   inkscape:connector-curvature="0"
   style="fill:#faf39e" />
	<path
   class="st121"
   d="m 508.11,321.52 c 0.29,0.31 0.54,0.65 0.79,0.99 0.02,0.04 0.04,0.07 0.07,0.1 0.01,0.01 0.02,0.03 0.04,0.04 0.25,0.35 0.5,0.7 0.75,1.05 0.02,0.02 0.07,0 0.05,-0.03 -0.21,-0.35 -0.42,-0.7 -0.63,-1.04 0.02,-0.03 0.04,-0.07 0.02,-0.11 0.2,0.19 0.38,0.41 0.51,0.64 0.03,0.05 0.1,0.01 0.08,-0.04 -0.14,-0.54 -0.48,-0.93 -0.93,-1.25 -0.07,-0.05 -0.13,-0.02 -0.17,0.03 -0.13,-0.19 -0.27,-0.36 -0.42,-0.54 -0.1,-0.11 -0.25,0.06 -0.16,0.16 z"
   id="path1054"
   inkscape:connector-curvature="0"
   style="fill:#faf39e" />
	<path
   class="st121"
   d="m 509.27,321.31 c 0.47,0.54 0.84,1.1 1.23,1.69 0.03,0.05 0.12,0.01 0.1,-0.05 -0.27,-0.67 -0.57,-1.38 -1.12,-1.87 -0.15,-0.13 -0.33,0.09 -0.21,0.23 z"
   id="path1056"
   inkscape:connector-curvature="0"
   style="fill:#faf39e" />
	<path
   class="st121"
   d="m 509.63,321.23 c 0.18,0.17 0.35,0.31 0.5,0.51 0.13,0.16 0.25,0.32 0.38,0.47 0.05,0.06 0.16,-0.03 0.11,-0.09 -0.26,-0.34 -0.47,-0.9 -0.93,-1.02 -0.07,-0.02 -0.11,0.08 -0.06,0.13 z"
   id="path1058"
   inkscape:connector-curvature="0"
   style="fill:#faf39e" />
	<path
   class="st121"
   d="m 505.81,325.11 c 0.04,0.06 0.16,0.03 0.14,-0.05 -0.03,-0.08 -0.03,-0.16 -0.02,-0.25 0.23,0.1 0.38,0.24 0.54,0.46 0.07,0.11 0.24,0.11 0.3,-0.01 0.22,-0.4 0.14,-0.83 0.15,-1.26 0.26,0.24 0.44,0.55 0.73,0.78 0.1,0.07 0.29,0.05 0.3,-0.1 0.04,-0.5 -0.1,-0.94 -0.26,-1.39 0.27,0.32 0.53,0.66 0.8,0.99 0.07,0.09 0.23,0 0.16,-0.1 -0.37,-0.52 -0.72,-1.06 -1.18,-1.49 -0.1,-0.09 -0.24,0.01 -0.21,0.13 0.12,0.41 0.33,0.88 0.38,1.33 -0.22,-0.29 -0.45,-0.56 -0.79,-0.73 -0.11,-0.06 -0.29,0.01 -0.31,0.15 -0.07,0.42 0.06,0.86 -0.01,1.28 -0.19,-0.16 -0.4,-0.27 -0.66,-0.33 -0.07,-0.02 -0.14,0.03 -0.16,0.1 -0.02,0.2 -0.01,0.32 0.1,0.49 z"
   id="path1060"
   inkscape:connector-curvature="0"
   style="fill:#faf39e" />
	<path
   class="st121"
   d="m 508.5,323.61 c 0.09,0.14 0.2,0.28 0.3,0.42 0.07,0.07 0.18,-0.03 0.13,-0.1 -0.16,-0.26 -0.29,-0.65 -0.56,-0.82 -0.07,-0.04 -0.15,0.03 -0.13,0.1 0.07,0.14 0.17,0.26 0.26,0.4 z"
   id="path1062"
   inkscape:connector-curvature="0"
   style="fill:#faf39e" />
	<path
   class="st121"
   d="m 503.74,326.12 c 0.16,0.29 0.37,0.58 0.66,0.75 0.14,0.08 0.28,-0.1 0.21,-0.23 -0.06,-0.11 -0.13,-0.22 -0.19,-0.33 0.08,-0.03 0.14,-0.1 0.12,-0.21 -0.02,-0.08 -0.03,-0.16 -0.04,-0.23 0.05,0.07 0.1,0.14 0.14,0.21 0.05,0.08 0.16,0.07 0.2,-0.01 0.01,-0.01 0.01,-0.01 0.01,-0.02 0.03,-0.03 0.02,-0.07 0.01,-0.11 -0.04,-0.08 -0.05,-0.17 -0.05,-0.26 0.07,0.04 0.14,0.09 0.21,0.13 0.11,0.07 0.24,-0.11 0.13,-0.19 h -0.01 c 0.01,-0.01 0.01,-0.02 0.01,-0.03 0.01,-0.04 0.01,-0.08 0,-0.11 0.12,-0.01 0.15,-0.2 0.01,-0.24 -0.04,-0.01 -0.09,-0.01 -0.13,0 0,0 -0.01,-0.01 -0.01,-0.01 -0.07,-0.11 -0.14,-0.21 -0.23,-0.3 -0.1,-0.1 -0.23,0.02 -0.21,0.13 0.02,0.1 0.05,0.2 0.1,0.3 -0.05,0 -0.1,0.07 -0.1,0.13 -0.07,-0.1 -0.14,-0.19 -0.23,-0.28 -0.1,-0.1 -0.29,-0.02 -0.27,0.13 0.01,0.14 0.01,0.3 0.02,0.45 -0.11,-0.25 -0.15,-0.53 -0.35,-0.71 -0.11,-0.1 -0.3,-0.04 -0.33,0.1 -0.05,0.32 0.17,0.66 0.32,0.94 z"
   id="path1064"
   inkscape:connector-curvature="0"
   style="fill:#faf39e" />
	<path
   class="st121"
   d="m 503.61,327.31 c 0.07,0.09 0.22,0.02 0.18,-0.08 -0.24,-0.7 -0.53,-1.38 -0.78,-2.07 -0.11,-0.3 -0.57,-0.16 -0.47,0.14 0.24,0.74 0.62,1.38 1.07,2.01 z"
   id="path1066"
   inkscape:connector-curvature="0"
   style="fill:#faf39e" />
	<path
   class="st121"
   d="m 504.93,317.82 c 0.08,0.12 0.29,0.03 0.23,-0.11 -0.65,-1.83 -1.62,-3.56 -2.48,-5.3 -0.95,-1.91 -1.94,-3.81 -2.89,-5.72 -1.87,-3.77 -3.7,-7.6 -5.36,-11.46 -0.02,-0.07 -0.14,-0.06 -0.13,0.02 0.2,1.82 1.33,3.61 2.04,5.27 0.81,1.89 1.63,3.77 2.5,5.63 0.91,1.94 1.89,3.84 2.87,5.73 1.02,2 1.94,4.1 3.22,5.94 z"
   id="path1068"
   inkscape:connector-curvature="0"
   style="fill:#faf39e" />
</g>



















</svg>