<?xml version="1.0" encoding="UTF-8" standalone="no"?>
<!-- Generator: Adobe Illustrator 23.1.0, SVG Export Plug-In . SVG Version: 6.00 Build 0)  -->

<svg
   xmlns:dc="http://purl.org/dc/elements/1.1/"
   xmlns:cc="http://creativecommons.org/ns#"
   xmlns:rdf="http://www.w3.org/1999/02/22-rdf-syntax-ns#"
   xmlns:svg="http://www.w3.org/2000/svg"
   xmlns="http://www.w3.org/2000/svg"
   xmlns:sodipodi="http://sodipodi.sourceforge.net/DTD/sodipodi-0.dtd"
   xmlns:inkscape="http://www.inkscape.org/namespaces/inkscape"
   version="1.1"
   id="Layer_1"
   x="0px"
   y="0px"
   viewBox="0 0 151.1811 151.18109"
   xml:space="preserve"
   sodipodi:docname="2.2.3.svg"
   width="40mm"
   height="40mm"
   inkscape:version="0.92.4 (5da689c313, 2019-01-14)"><metadata
   id="metadata4529"><rdf:RDF><cc:Work
       rdf:about=""><dc:format>image/svg+xml</dc:format><dc:type
         rdf:resource="http://purl.org/dc/dcmitype/StillImage" /><dc:title></dc:title></cc:Work></rdf:RDF></metadata><defs
   id="defs4527" /><sodipodi:namedview
   pagecolor="#ffffff"
   bordercolor="#666666"
   borderopacity="1"
   objecttolerance="10"
   gridtolerance="10"
   guidetolerance="10"
   inkscape:pageopacity="0"
   inkscape:pageshadow="2"
   inkscape:window-width="1024"
   inkscape:window-height="709"
   id="namedview4525"
   showgrid="false"
   units="mm"
   inkscape:zoom="1.1213358"
   inkscape:cx="185.22355"
   inkscape:cy="125.24037"
   inkscape:window-x="0"
   inkscape:window-y="30"
   inkscape:window-maximized="1"
   inkscape:current-layer="Layer_1" />
<style
   type="text/css"
   id="style2">
	.st0{fill:#67A8DB;}
	.st1{opacity:0.4;fill:#327CC0;}
	.st2{fill:#5299D3;}
	.st3{opacity:0.4;fill:#67A8DB;}
	.st4{opacity:0.5;}
	.st5{fill:#5CA1D7;}
	.st6{opacity:0.6;fill:#93C2E8;}
	.st7{opacity:0.6;fill:#67A8DB;}
	.st8{fill:#E76362;}
	.st9{opacity:0.4;fill:#D02527;}
	.st10{fill:#E14949;}
	.st11{opacity:0.4;fill:#E76362;}
	.st12{fill:#E45556;}
	.st13{opacity:0.6;fill:#EF9292;}
	.st14{opacity:0.6;fill:#E76362;}
	.st15{opacity:0.5;fill:#D2EEF9;}
	.st16{opacity:0.4;fill:#0099B0;}
	.st17{fill:#D0D1D1;}
	.st18{opacity:0.4;fill:#036BB1;}
	.st19{opacity:0.5;fill:#B5CCD7;}
	.st20{fill:#ACC1CB;}
	.st21{fill:#FFFFFF;}
	.st22{fill:#DFEFE7;}
	.st23{opacity:0.9;fill:#7ED0E0;}
	.st24{opacity:0.9;fill:#62C2CB;}
	.st25{opacity:0.9;fill:#41B3BF;}
	.st26{fill:#B1C8BC;}
	.st27{fill:#E21E26;}
	.st28{fill:#C1C0C0;}
	.st29{fill:#FCCE08;}
	.st30{opacity:0.7;}
	.st31{fill:#C8C7C6;}
	.st32{opacity:0.9;}
	.st33{fill:#41B3BF;}
	.st34{fill:#E75524;}
	.st35{fill:#62BE6B;}
	.st36{opacity:0.7;fill:#A6A6A6;}
	.st37{opacity:0.3;fill:#5BB353;}
	.st38{fill:#D1D1D1;}
	.st39{fill:#5BB353;}
	.st40{fill:#EDEDED;}
	.st41{fill:#DBDBDB;}
	.st42{fill:#F7F7F7;}
	.st43{fill:#E0E0E0;}
	.st44{fill:#EBEBEB;}
	.st45{fill:#811E18;}
	.st46{fill:#BC2025;}
	.st47{fill:#EB2024;}
	.st48{opacity:0.7;fill:#93CACB;}
	.st49{opacity:0.4;}
	.st50{fill:#919898;}
	.st51{fill:#C2CACB;}
	.st52{opacity:0.4;fill:#82C7DE;}
	.st53{opacity:0.8;fill:#FFFFFF;}
	.st54{opacity:0.5;fill:#FFFFFF;}
	.st55{fill:#FABE79;}
	.st56{fill:#F6AB62;}
	.st57{opacity:0.6;fill:#AE7B47;}
	.st58{fill:#B48049;}
	.st59{fill:#9B703F;}
	.st60{opacity:0.3;fill:#AE7B47;}
	.st61{opacity:0.3;}
	.st62{fill:#9C703E;}
	.st63{opacity:0.3;fill:#9B703F;}
	.st64{opacity:0.5;fill:#F6AB62;}
	.st65{opacity:0.4;fill:#FABE79;}
	.st66{fill:#DBDADA;}
	.st67{opacity:0.4;fill:#B2B4B7;}
	.st68{opacity:0.2;fill:#C1C1B7;}
	.st69{fill:#C2C2C2;}
	.st70{opacity:0.5;fill:#C2C2C2;}
	.st71{fill:#E5E1C6;}
	.st72{opacity:0.5;fill:#D4D1B8;}
	.st73{fill:#E3E3E3;}
	.st74{opacity:0.8;fill:#D4D1B8;}
	.st75{fill:#D4D1B8;}
	.st76{opacity:0.5;fill:#D0B9AD;}
	.st77{opacity:0.4;fill:#D4D1B8;}
	.st78{fill:#D2D1CE;}
	.st79{opacity:0.4;fill:#D2D1CE;}
	.st80{opacity:0.4;fill:#C2C2C2;}
	.st81{fill:#BFC1B8;}
	.st82{fill:#CB484F;}
	.st83{fill:#A7A9A0;}
	.st84{fill:#C3979C;}
	.st85{fill:#C7B88F;}
	.st86{fill:#9ACACB;}
	.st87{fill:#A8A8AB;}
	.st88{opacity:0.6;fill:#BE9C7A;}
	.st89{fill:#A4A391;}
	.st90{opacity:0.6;fill:#C2C2C2;}
	.st91{fill:#789D99;}
	.st92{opacity:0.4;fill:#789D99;}
	.st93{fill:#D1CEB6;}
	.st94{fill:#B8B6A1;}
	.st95{fill:#BAB8A3;}
	.st96{fill:#ABAA97;}
	.st97{fill:#E4E4E2;}
	.st98{opacity:0.6;}
	.st99{fill:#BEA18D;}
	.st100{opacity:0.3;fill:#BEA18D;}
	.st101{opacity:0.2;fill:#BEA18D;}
	.st102{fill:#D9BDA6;}
	.st103{fill:#CCAD93;}
	.st104{fill:#603412;}
	.st105{opacity:0.5;fill:#93816B;}
	.st106{opacity:0.4;fill:#331C0F;}
	.st107{fill:#93816B;}
	.st108{fill:#331C0F;}
	.st109{opacity:0.5;fill:#FFF7EA;}
	.st110{fill:#3F2612;}
	.st111{fill:#D62839;}
	.st112{fill:#F9AE9C;}
	.st113{fill:#4B632D;}
	.st114{opacity:0.5;fill:#86926B;}
	.st115{opacity:0.4;fill:#2E3618;}
	.st116{fill:#86926B;}
	.st117{fill:#2E3618;}
	.st118{opacity:0.5;fill:#F7F9E8;}
	.st119{fill:#34411B;}
	.st120{fill:#D59829;}
	.st121{fill:#FAF39E;}
	.st122{fill:#242424;}
	.st123{fill:#333232;}
	.st124{fill:#5D5D5D;}
	.st125{fill:#161616;}
	.st126{fill:#B3B3B3;}
	.st127{fill:#1A1A1A;}
	.st128{fill:#48893F;}
	.st129{fill:#FBAE1C;}
	.st130{fill:#759C3F;}
	.st131{fill:#56692F;}
	.st132{fill:#CAD631;}
	.st133{opacity:0.7;fill:#A66227;}
	.st134{fill:#BBBBBB;}
	.st135{fill:#A03B22;}
	.st136{fill:#C17529;}
	.st137{fill:#F47B2A;}
	.st138{fill:#792816;}
	.st139{fill:#FFF4EC;}
	.st140{fill:#89361C;}
	.st141{fill:#C3AC9E;}
	.st142{fill:#D3C1B9;}
	.st143{fill:#E2E1D5;}
	.st144{fill:#343225;}
	.st145{fill:#040406;}
	.st146{opacity:0.5;fill:#343225;}
	.st147{fill:#4C4333;}
	.st148{fill:#89877B;}
	.st149{fill:url(#SVGID_3_);}
	.st150{fill:url(#SVGID_4_);}
	.st151{opacity:0.5;fill:url(#SVGID_5_);}
	.st152{fill:url(#SVGID_6_);}
	.st153{fill:url(#SVGID_7_);}
	.st154{fill:url(#SVGID_8_);}
	.st155{fill:url(#SVGID_9_);}
	.st156{fill:url(#SVGID_10_);}
	.st157{opacity:0.3;fill:url(#SVGID_11_);}
	.st158{opacity:0.3;fill:url(#SVGID_12_);}
	.st159{fill:url(#SVGID_13_);}
	.st160{fill:url(#SVGID_14_);}
	.st161{fill:url(#SVGID_15_);}
	.st162{fill:url(#SVGID_16_);}
	.st163{fill:url(#SVGID_17_);}
	.st164{fill:url(#SVGID_18_);}
	.st165{opacity:0.7;fill:url(#SVGID_19_);}
	.st166{fill:url(#SVGID_20_);}
	.st167{filter:url(#Adobe_OpacityMaskFilter);}
	.st168{fill:url(#SVGID_22_);}
	.st169{opacity:0.7;mask:url(#SVGID_21_);fill:url(#SVGID_23_);}
	.st170{fill:url(#SVGID_24_);}
	.st171{opacity:0.5;fill:url(#SVGID_25_);}
	.st172{opacity:0.5;fill:url(#SVGID_26_);}
	.st173{opacity:0.3;fill:url(#SVGID_27_);}
	.st174{filter:url(#Adobe_OpacityMaskFilter_1_);}
	.st175{filter:url(#Adobe_OpacityMaskFilter_2_);}
	.st176{mask:url(#SVGID_28_);fill:url(#SVGID_29_);}
	.st177{fill:url(#SVGID_30_);}
	.st178{filter:url(#Adobe_OpacityMaskFilter_3_);}
	.st179{opacity:0.8;fill:url(#SVGID_32_);}
	.st180{mask:url(#SVGID_31_);}
	.st181{filter:url(#Adobe_OpacityMaskFilter_4_);}
	.st182{filter:url(#Adobe_OpacityMaskFilter_5_);}
	.st183{fill:url(#SVGID_33_);}
	.st184{fill:url(#SVGID_34_);}
	.st185{filter:url(#Adobe_OpacityMaskFilter_6_);}
	.st186{filter:url(#Adobe_OpacityMaskFilter_7_);}
	.st187{mask:url(#SVGID_35_);fill:url(#SVGID_36_);}
	.st188{opacity:0.6;fill:url(#SVGID_37_);}
	.st189{opacity:0.9;fill:url(#SVGID_38_);}
	.st190{fill:url(#SVGID_39_);}
	.st191{opacity:0.3;fill:url(#SVGID_40_);}
	.st192{opacity:0.3;fill:url(#SVGID_41_);}
	.st193{opacity:0.8;fill:url(#SVGID_42_);}
	.st194{fill:#F7DDBC;}
	.st195{fill:#D9B48A;}
	.st196{opacity:0.5;fill:#F7DDBC;}
	.st197{opacity:0.3;fill:#DEAA79;}
	.st198{opacity:0.3;fill:#A47348;}
	.st199{opacity:0.5;fill:#DEAA79;}
	.st200{opacity:0.5;fill:#A47348;}
	.st201{opacity:0.3;fill:#BE905C;}
	.st202{fill:#FFEBD7;}
	.st203{opacity:0.3;fill:#DEB485;}
	.st204{opacity:0.3;fill:#8F622F;}
	.st205{opacity:0.2;fill:#BA915C;}
	.st206{opacity:0.2;fill:#BE905C;}
	.st207{opacity:0.3;fill:#D5AD7A;}
	.st208{opacity:0.5;fill:#D5AD7A;}
	.st209{fill:#17ADE4;}
	.st210{fill:#F99B1C;}
	.st211{opacity:0.2;fill:#D59B29;}
	.st212{opacity:0.5;fill:#D59B29;}
	.st213{opacity:0.5;fill:#B8802B;}
	.st214{fill:#FAD00A;}
	.st215{fill:#EEA320;}
	.st216{opacity:0.4;fill:#FAD00A;}
	.st217{opacity:0.7;fill:#FAD00A;}
	.st218{opacity:0.7;fill:#E7C249;}
	.st219{opacity:0.7;fill:#E9B44A;}
	.st220{fill:#3A5728;}
	.st221{opacity:0.3;fill:#3A5728;}
	.st222{opacity:0.5;fill:#3A5728;}
	.st223{opacity:0.3;fill:#6D9D40;}
	.st224{opacity:0.3;fill:#547B38;}
	.st225{fill:#1C2C17;}
	.st226{opacity:0.3;fill:#1A381C;}
	.st227{fill:#152A17;}
	.st228{fill:#F8BC16;}
	.st229{opacity:0.2;fill:#F8BC16;}
	.st230{opacity:0.1;fill:#F8BC16;}
	.st231{opacity:0.3;fill:#E09426;}
	.st232{opacity:0.3;fill:#D98B28;}
	.st233{fill:#CE6F28;}
	.st234{fill:#A65225;}
	.st235{fill:#D88E28;}
	.st236{fill:#BD6728;}
	.st237{fill:#F09F20;}
	.st238{fill:#D37A28;}
	.st239{fill:#A2C83A;}
	.st240{opacity:0.2;fill:#A2C83A;}
	.st241{fill:#ECACCE;}
	.st242{fill:#CB6BAA;}
	.st243{fill:#FACB84;}
	.st244{fill:#F8BA58;}
	.st245{fill:#F3A846;}
	.st246{opacity:0.5;fill:#FACB84;}
	.st247{opacity:0.5;fill:#F8BA58;}
	.st248{fill:#80461D;}
	.st249{opacity:0.7;fill:#ECACCE;}
	.st250{opacity:0.7;fill:#FACB84;}
	.st251{fill:#356531;}
	.st252{opacity:0.2;fill:#356531;}
	.st253{opacity:0.5;fill:#356531;}
	.st254{fill:#508B3F;}
	.st255{fill:#117A3D;}
	.st256{opacity:0.4;fill:#508B3F;}
	.st257{opacity:0.7;fill:#508B3F;}
	.st258{fill:#467135;}
	.st259{opacity:0.2;fill:#467135;}
	.st260{opacity:0.3;fill:#467135;}
	.st261{fill:#203C1C;}
	.st262{fill:#142716;}
	.st263{fill:#325628;}
	.st264{fill:#193019;}
	.st265{fill:#20552A;}
	.st266{opacity:0.5;fill:#508B3F;}
	.st267{opacity:0.5;fill:#A2C83A;}
	.st268{fill:#88171A;}
	.st269{fill:#C02326;}
	.st270{fill:#A61E22;}
	.st271{opacity:0.4;fill:#C02326;}
	.st272{opacity:0.7;fill:#C02326;}
	.st273{opacity:0.2;fill:#A61E22;}
	.st274{opacity:0.3;fill:#A61E22;}
	.st275{fill:#62130C;}
	.st276{fill:#451310;}
	.st277{fill:#791514;}
	.st278{fill:#861719;}
	.st279{fill:#FECF0A;}
	.st280{opacity:0.4;fill:#C6A239;}
	.st281{opacity:0.2;fill:#E4A33A;}
	.st282{opacity:0.3;fill:#B8A137;}
	.st283{opacity:0.3;fill:#FECF0A;}
	.st284{fill:#F5B41A;}
	.st285{opacity:0.6;fill:#CFAE2B;}
	.st286{opacity:0.4;fill:#CFAE2B;}
	.st287{fill:#98772C;}
	.st288{fill:#FFD86D;}
	.st289{fill:#E59F24;}
	.st290{fill:#ECB31F;}
	.st291{fill:#E8B321;}
	.st292{opacity:0.3;fill:#E4A33A;}
	.st293{opacity:0.3;fill:#D48E64;}
	.st294{opacity:0.2;fill:#C6A239;}
	.st295{fill:#FDEB07;stroke:#E0E1E0;stroke-width:0;stroke-linecap:round;stroke-linejoin:round;}
	.st296{fill:#BCBAA3;}
	.st297{fill:#55813B;}
	.st298{fill:#32421B;}
	.st299{opacity:0.3;fill:#517636;}
	.st300{fill:#6E953E;}
	.st301{opacity:0.2;fill:#3A5728;}
	.st302{fill:#42793A;}
	.st303{fill:#F6871F;}
	.st304{opacity:0.2;fill:#E66725;}
	.st305{fill:#D65027;}
	.st306{fill:#CB5727;}
	.st307{opacity:0.2;}
	.st308{fill:#AD6427;}
	.st309{opacity:0.3;fill:#E66725;}
	.st310{opacity:0.5;fill:#DC8127;}
	.st311{fill:#D5D1C5;}
	.st312{fill:#DCB399;}
	.st313{fill:#EAC6AF;}
	.st314{opacity:0.5;fill:#EAC6AF;}
	.st315{opacity:0.5;fill:#E9DEDE;}
	.st316{opacity:0.6;fill:#E9DEDE;}
	.st317{fill:#F7D8C1;}
	.st318{fill:none;}
	.st319{opacity:0.3;fill:#C49374;}
	.st320{fill:#6F903C;}
	.st321{opacity:0.4;fill:#3A5728;}
	.st322{opacity:0.5;fill:#6F903C;}
	.st323{opacity:0.5;fill:#7C963B;}
	.st324{fill:#516A30;}
	.st325{opacity:0.2;fill:#E0E1E0;}
	.st326{opacity:0.2;fill:#C2CACB;}
	.st327{opacity:0.5;fill:#C2CACB;}
	.st328{opacity:0.2;fill:#645C51;}
	.st329{fill:#FAFAFA;}
	.st330{fill:#D6D6D6;}
	.st331{opacity:0.3;fill:#B4C0B2;}
	.st332{fill:#BDBDBD;}
	.st333{fill:#961B1E;}
	.st334{fill:#AF2F24;}
	.st335{fill:#C53127;}
	.st336{fill:#76533F;}
	.st337{fill:#533A2A;}
	.st338{opacity:0.7;fill:#E94466;}
	.st339{fill:#D91F26;}
	.st340{fill:#F6DAB4;}
	.st341{fill:#D2A47F;}
	.st342{fill:#B4B4B4;}
	.st343{fill:#E88B38;}
	.st344{fill:#FBAD47;}
	.st345{fill:#CFB581;}
	.st346{fill:#594D41;}
	.st347{fill:#FDF8F2;}
	.st348{opacity:0.5;fill:#E88B38;}
	.st349{fill:#DDDCD8;}
	.st350{opacity:0.8;fill:#E88B38;}
	.st351{opacity:0.5;fill:#594D41;}
	.st352{fill:#F89A1C;}
	.st353{opacity:0.4;fill:#FDC110;}
	.st354{fill:#FEE600;}
	.st355{fill:#FDC110;}
	.st356{fill:#7CBDE8;}
	.st357{opacity:0.6;fill:#5BB353;}
	.st358{fill:#046CA6;}
	.st359{opacity:0.3;fill:#046CA6;}
	.st360{opacity:0.3;fill:#20ABE3;}
	.st361{fill:#754138;}
	.st362{fill:#6A2116;}
	.st363{fill:#381512;}
</style>
















<g
   id="g1330"
   transform="translate(-488.74185,-92.387277)">
	<path
   class="st135"
   d="m 575.58,156.03 c -4.27,-14.25 -2.27,-31.82 -2.27,-31.82 0,0 0.2,-0.43 0.68,-0.89 0.48,-0.47 0.6,-1.52 0.08,-2.45 -0.2,-0.35 0,-0.78 0.17,-1.6 0.18,-0.83 0.77,-2.01 0.53,-2.58 -0.23,-0.58 -1.26,-2.44 -5.9,-2.95 -0.03,0 -0.06,-0.01 -0.1,-0.01 -0.03,0 -0.06,0 -0.09,0 -4.66,-0.19 -5.96,1.5 -6.28,2.03 -0.32,0.53 0.09,1.79 0.14,2.63 0.04,0.84 0.18,1.29 -0.07,1.61 -0.65,0.84 -0.7,1.9 -0.29,2.43 0.41,0.53 0.53,0.99 0.53,0.99 0,0 -0.66,17.66 -7.03,31.1 -6.37,13.44 -5.4,10.96 -6.16,20.92 -0.75,9.97 -2.19,28.92 -2.6,34.34 -0.41,5.43 -0.22,7.34 1.51,8.03 1.35,0.54 4.23,2.49 12.22,3.13 7.99,0.57 11.13,-0.93 12.55,-1.26 1.82,-0.42 2.3,-2.28 2.7,-7.7 0.41,-5.43 1.85,-24.37 2.61,-34.34 0.76,-9.97 1.34,-7.37 -2.93,-21.61 z"
   id="path1212"
   inkscape:connector-curvature="0"
   style="fill:#a03b22" />
	<path
   class="st136"
   d="m 558.51,152.99 c -1.49,3.9 -2.84,7.87 -3.74,11.95 -1.24,5.65 -2.15,12.93 1.6,17.88 1.77,2.33 4.62,4.09 7.55,4.39 2.4,0.25 4.55,-0.71 6.07,-2.57 1.59,-1.96 2.51,-4.41 3.13,-6.83 0.67,-2.61 1.02,-5.29 1.15,-7.98 0.13,-2.62 0.05,-5.3 -0.32,-7.9 -0.36,-2.56 -0.93,-5.44 -2.24,-7.82 -0.89,0.04 -1.79,0.04 -2.69,0.03 -3.53,-0.07 -7.05,-0.45 -10.51,-1.15 z"
   id="path1214"
   inkscape:connector-curvature="0"
   style="fill:#c17529" />
	<g
   class="st4"
   id="g1218"
   style="opacity:0.5">
		<path
   class="st137"
   d="m 575.58,156.03 c -4.27,-14.25 -2.27,-31.82 -2.27,-31.82 0,0 0.2,-0.43 0.68,-0.89 0.48,-0.47 0.6,-1.52 0.08,-2.45 -0.2,-0.35 0,-0.78 0.17,-1.6 0.18,-0.83 0.77,-2.01 0.53,-2.58 -0.23,-0.57 -1.25,-2.4 -5.76,-2.94 0.33,1.19 0.89,2.35 1.17,3.55 0.44,1.93 0.54,3.93 0.5,5.9 -0.13,4.23 -0.62,8.47 -0.89,12.7 -0.07,1.28 -0.18,2.56 -0.29,3.83 0.07,7.53 -0.08,15.07 0.32,22.6 0.24,4.37 0.51,8.68 0.32,13.05 -0.19,4.26 -0.59,8.5 -0.98,12.74 -0.39,4.21 -0.87,8.46 -0.82,12.69 0.04,3.01 0.17,6.02 0.05,9.03 -0.13,3.44 -0.47,8.01 -2.47,11.16 4.23,-0.21 6.24,-1.09 7.28,-1.34 1.82,-0.42 2.3,-2.28 2.7,-7.7 l 2.61,-34.34 c 0.76,-9.95 1.34,-7.35 -2.93,-21.59 z"
   id="path1216"
   inkscape:connector-curvature="0"
   style="fill:#f47b2a" />
	</g>
	<g
   class="st49"
   id="g1222"
   style="opacity:0.4">
		<path
   class="st138"
   d="m 572.21,215.81 c -1.23,0.01 -2.46,-0.36 -3.64,-0.68 -1.8,-0.48 -3.61,-0.77 -5.47,-0.9 -2.21,-0.15 -4.44,-0.25 -6.65,-0.26 -1.09,-0.01 -2.18,0.02 -3.28,0.07 -0.51,0.02 -1.03,0.05 -1.54,0.08 -0.09,0 -0.16,0.01 -0.21,0.01 0,0.01 -0.05,0.03 -0.19,0.06 -0.12,0.03 -0.23,0.06 -0.35,0.09 -1.37,0.4 -3.09,0.62 -4.02,-0.79 -0.05,-0.07 -0.08,-0.13 -0.13,-0.19 -0.04,2.8 0.41,3.99 1.69,4.5 1.35,0.54 4.23,2.49 12.22,3.13 7.99,0.57 11.13,-0.93 12.55,-1.26 1.51,-0.35 2.09,-1.69 2.48,-5.23 -0.93,0.92 -2.08,1.35 -3.46,1.37 z"
   id="path1220"
   inkscape:connector-curvature="0"
   style="fill:#792816" />
	</g>
	<g
   class="st49"
   id="g1226"
   style="opacity:0.4">
		<path
   class="st138"
   d="m 574.1,218.73 c -0.66,-1.02 -1.92,-1.58 -3.03,-1.95 -3.49,-1.17 -7.22,-1.67 -10.89,-1.84 -3.2,-0.15 -6.52,-0.18 -9.72,0.14 -0.96,0.1 -2.84,0.22 -3.18,1.37 -0.02,0.08 -0.04,0.17 -0.06,0.26 0.27,0.54 0.67,0.88 1.23,1.11 1.35,0.54 4.23,2.49 12.22,3.13 7.99,0.57 11.13,-0.93 12.55,-1.26 0.44,-0.1 0.8,-0.28 1.09,-0.58 -0.07,-0.13 -0.13,-0.26 -0.21,-0.38 z m -4.8,-0.23 c -1.75,0.72 -3.94,0.97 -5.74,0.94 -4.14,-0.07 -8.02,-0.14 -11.64,-2.09 -0.34,-0.19 -1.08,-1.17 1.38,-1.65 3.05,-0.61 13.15,-0.42 16.26,1.49 0.26,0.15 0.94,0.81 -0.26,1.31 z"
   id="path1224"
   inkscape:connector-curvature="0"
   style="fill:#792816" />
	</g>
	<g
   id="g1230">
		<path
   class="st137"
   d="m 568.44,220.79 c 1.17,-0.16 2.1,-0.36 2.84,-0.56 1.24,-2.55 1.26,-5.64 1.29,-8.44 0.03,-4.37 0.24,-8.74 0.33,-13.1 0.1,-4.66 0.35,-9.29 0.72,-13.94 0.38,-4.67 1.36,-11.46 1.06,-16.14 -0.17,-2.7 -0.69,-4.98 -1.26,-7.62 -0.62,-2.89 -0.98,-3.55 -1.22,-6.18 -0.45,-4.95 -0.65,-9.93 -0.47,-14.89 0.2,-5.44 0.92,-11.38 -0.13,-16.83 0.3,2.4 0.37,4.83 0.32,7.24 -0.1,4.5 -0.61,8.97 -0.9,13.47 -0.33,5.15 0.03,6.72 0.47,11.87 0.41,4.73 1.94,9.49 1.55,17 -0.27,5.41 -0.96,12.65 -1.33,18.05 -0.31,4.66 -0.82,9.32 -0.96,13.99 -0.09,3.06 -0.07,6.13 -0.42,9.18 -0.31,2.33 -0.79,4.78 -1.89,6.9 z"
   id="path1228"
   inkscape:connector-curvature="0"
   style="fill:#f47b2a" />
	</g>
	<path
   class="st138"
   d="m 551.12,216.95 c -0.16,-1.68 0.27,-5.34 0.36,-7.01 0.15,-2.61 0.08,-5.25 0.1,-7.86 0.05,-5.44 0.89,-11.66 1.29,-17.08 0.37,-4.89 0.32,-11.61 1.08,-16.47 0.43,-2.71 0.82,-4.59 1.69,-6.89 0.91,-2.42 1.52,-3.92 2.48,-6.32 1.75,-4.37 2.83,-8.81 3.63,-13.43 1.61,-9.21 3.36,-18.45 3.28,-27.83 -1.76,0.48 -2.41,1.35 -2.62,1.7 -0.32,0.53 0.09,1.79 0.14,2.63 0.04,0.84 0.18,1.29 -0.07,1.61 -0.65,0.84 -0.7,1.9 -0.29,2.43 0.41,0.53 0.53,0.99 0.53,0.99 0,0 -0.66,17.66 -7.03,31.1 -6.37,13.44 -5.4,10.96 -6.16,20.92 l -2.6,34.34 c -0.41,5.43 -0.22,7.34 1.51,8.03 1,0.4 2.85,1.57 6.96,2.41 -2.13,-1.11 -4.06,-0.77 -4.28,-3.27 z"
   id="path1232"
   inkscape:connector-curvature="0"
   style="fill:#792816" />
	<g
   class="st4"
   id="g1236"
   style="opacity:0.5">
		<path
   class="st139"
   d="m 567.2,113.74 c -0.85,0.04 -1.54,0.16 -2.13,0.32 0.07,0.48 0.11,0.97 0.14,1.45 0.29,4.82 -0.62,9.56 -1.29,14.3 -0.39,2.68 -0.51,5.38 -0.78,8.07 -0.26,2.61 -0.68,5.19 -1.29,7.74 -1.18,4.99 -2.79,7.6 -4.6,12.4 -0.97,2.58 -2.66,5.94 -3.29,8.19 -0.68,2.4 -1.32,6.36 -1.59,10.02 -0.38,4.94 -0.62,12.03 -0.96,16.97 -0.3,4.47 -0.91,9.7 -1.19,14.17 -0.25,4.05 -0.63,8.31 0.32,10.5 0.36,0.82 1.57,1.35 2.83,1.88 1.21,0.33 2.68,0.65 4.49,0.9 -0.59,-0.68 -2.28,0.14 -2.56,-2.42 -0.44,-4.14 0.75,-12.6 0.94,-16.75 0.2,-4.31 1.17,-24.58 1.45,-29.3 0.29,-5.24 2.09,-10.94 3.22,-16.05 0.59,-2.66 1.94,-4.13 2.41,-6.81 0.45,-2.54 0.96,-3.23 1.33,-5.78 1.47,-9.85 3.3,-19.83 2.55,-29.8 z"
   id="path1234"
   inkscape:connector-curvature="0"
   style="fill:#fff4ec" />
	</g>
	<path
   class="st140"
   d="m 575.58,156.03 c -4.27,-14.25 -2.27,-31.82 -2.27,-31.82 0,0 0.2,-0.43 0.68,-0.89 0.48,-0.47 0.6,-1.52 0.08,-2.45 -0.2,-0.35 0,-0.78 0.17,-1.6 0.18,-0.83 0.77,-2.01 0.53,-2.58 -0.1,-0.24 -0.33,-0.71 -0.93,-1.21 -0.6,6.67 -1.55,13.29 -2.27,19.95 -0.59,5.46 0.16,10.06 1,16.64 0.74,5.79 2.81,10.42 3.27,16.46 0.4,5.34 -0.23,9.09 -0.72,16.15 -0.36,5.17 -1.17,11.19 -1.26,16.37 -0.08,5.14 -0.86,12.24 -1.46,17.35 -0.19,1.58 -5.04,2.16 -6.36,2.62 4.15,-0.22 6.13,-1.09 7.17,-1.33 1.82,-0.42 2.3,-2.28 2.7,-7.7 l 2.61,-34.34 c 0.75,-9.98 1.33,-7.38 -2.94,-21.62 z"
   id="path1238"
   inkscape:connector-curvature="0"
   style="fill:#89361c" />
	<path
   class="st141"
   d="m 575.76,156.63 c -0.06,-0.2 -0.12,-0.4 -0.18,-0.6 -0.29,-0.97 -0.55,-1.94 -0.78,-2.93 -5.91,0.33 -9.03,3.63 -9.03,3.63 -1.97,-2.73 -6.98,-4.33 -8.92,-4.87 -0.36,0.9 -0.75,1.79 -1.17,2.66 -0.08,0.17 -0.16,0.35 -0.25,0.51 2.1,0.84 5.27,1.64 10.03,2 4.54,0.34 7.89,0.07 10.3,-0.4 z"
   id="path1240"
   inkscape:connector-curvature="0"
   style="fill:#c3ac9e" />
	<path
   class="st142"
   d="m 573.27,155.8 c -0.19,-0.81 -0.41,-1.62 -0.61,-2.43 -4.52,0.86 -6.89,3.37 -6.89,3.37 -1.17,-1.63 -3.43,-2.85 -5.47,-3.69 -0.33,1.05 -0.69,2.09 -1.09,3.12 1.69,0.37 3.75,0.68 6.26,0.88 3.28,0.25 5.93,0.17 8.07,-0.06 -0.1,-0.41 -0.19,-0.8 -0.27,-1.19 z"
   id="path1242"
   inkscape:connector-curvature="0"
   style="fill:#d3c1b9" />
	<path
   class="st143"
   d="m 569.02,154.54 c -2.15,1.02 -3.26,2.19 -3.26,2.19 -0.64,-0.89 -1.61,-1.66 -2.69,-2.31 -0.14,0.78 -0.29,1.55 -0.44,2.33 0.88,0.11 1.81,0.21 2.83,0.29 1.36,0.1 2.6,0.15 3.75,0.16 -0.07,-0.9 -0.14,-1.78 -0.19,-2.66 z"
   id="path1244"
   inkscape:connector-curvature="0"
   style="fill:#e2e1d5" />
	<path
   class="st129"
   d="m 576,157.42 c -0.08,-0.26 -0.16,-0.52 -0.24,-0.79 -2.41,0.47 -5.76,0.74 -10.3,0.4 -4.76,-0.36 -7.93,-1.16 -10.03,-2 -0.12,0.25 -0.23,0.5 -0.35,0.74 2.09,0.88 5.33,1.74 10.31,2.12 4.74,0.35 8.17,0.04 10.61,-0.47 z"
   id="path1246"
   inkscape:connector-curvature="0"
   style="fill:#fbae1c" />
	<path
   class="st144"
   d="m 565.77,156.73 c 0,0 3.12,-3.29 9.03,-3.63 -0.16,-0.68 -0.31,-1.36 -0.45,-2.05 -1.69,0.69 -4.45,1.15 -4.45,1.15 0,0 -1.36,-1.36 -3.59,-1.65 -2.23,-0.29 -3.6,1.23 -3.6,1.23 -2.03,-0.41 -4.1,-1.12 -5.22,-1.54 -0.2,0.54 -0.41,1.08 -0.63,1.62 1.93,0.54 6.93,2.14 8.91,4.87 z"
   id="path1248"
   inkscape:connector-curvature="0"
   style="fill:#343225" />
	<path
   class="st145"
   d="m 561.04,151.39 c -1.44,-0.39 -2.74,-0.85 -3.56,-1.15 -0.2,0.54 -0.41,1.08 -0.63,1.62 0.84,0.23 2.26,0.67 3.76,1.31 0.14,-0.59 0.29,-1.19 0.43,-1.78 z"
   id="path1250"
   inkscape:connector-curvature="0"
   style="fill:#040406" />
	<path
   class="st145"
   d="m 573.06,153.29 c 0.55,-0.09 1.13,-0.16 1.74,-0.19 -0.16,-0.68 -0.31,-1.36 -0.45,-2.05 -0.44,0.18 -0.95,0.35 -1.47,0.49 0.07,0.59 0.13,1.17 0.18,1.75 z"
   id="path1252"
   inkscape:connector-curvature="0"
   style="fill:#040406" />
	<path
   class="st146"
   d="m 568.61,151.3 c -0.59,-0.32 -1.37,-0.62 -2.3,-0.75 -0.86,-0.11 -1.57,0.04 -2.15,0.27 -0.21,0.67 -0.43,1.33 -0.58,2.01 -0.12,0.56 -0.23,1.12 -0.35,1.68 1.02,0.63 1.93,1.37 2.54,2.22 0,0 1.09,-1.15 3.21,-2.16 -0.14,-1.09 -0.28,-2.18 -0.37,-3.27 z"
   id="path1254"
   inkscape:connector-curvature="0"
   style="opacity:0.5;fill:#343225" />
	<path
   class="st129"
   d="m 566.3,150.55 c 2.24,0.29 3.59,1.65 3.59,1.65 0,0 2.77,-0.46 4.45,-1.15 -0.05,-0.29 -0.11,-0.58 -0.17,-0.87 -1.64,0.52 -4.14,0.92 -4.14,0.92 0,0 -1.33,-1.61 -3.72,-1.73 -2.38,-0.13 -4.01,1.48 -4.01,1.48 -0.76,-0.19 -2.69,-0.63 -4.5,-1.5 -0.11,0.3 -0.21,0.6 -0.32,0.9 1.12,0.42 3.19,1.13 5.22,1.54 0,-0.01 1.37,-1.53 3.6,-1.24 z"
   id="path1256"
   inkscape:connector-curvature="0"
   style="fill:#fbae1c" />
	<path
   class="st147"
   d="m 566.32,149.37 c 2.39,0.12 3.72,1.73 3.72,1.73 0,0 2.5,-0.4 4.14,-0.92 -2.37,-12.78 -0.87,-25.96 -0.87,-25.96 0,0 0.2,-0.43 0.68,-0.89 0.48,-0.47 0.6,-1.52 0.08,-2.45 -0.2,-0.35 0,-0.78 0.17,-1.6 0.18,-0.83 0.77,-2.01 0.53,-2.58 -0.23,-0.58 -1.26,-2.44 -5.9,-2.95 -0.03,0 -0.06,-0.01 -0.1,-0.01 -0.03,0 -0.06,0 -0.09,0 -4.66,-0.19 -5.96,1.5 -6.28,2.03 -0.32,0.53 0.09,1.79 0.14,2.63 0.04,0.84 0.18,1.29 -0.07,1.61 -0.65,0.84 -0.7,1.9 -0.29,2.43 0.41,0.53 0.53,0.99 0.53,0.99 0,0 -0.51,13.54 -4.91,25.93 1.81,0.88 3.74,1.32 4.5,1.5 0.01,-0.02 1.64,-1.62 4.02,-1.49 z"
   id="path1258"
   inkscape:connector-curvature="0"
   style="fill:#4c4333" />
	<g
   class="st4"
   id="g1262"
   style="opacity:0.5">
		<path
   class="st147"
   d="m 574.18,150.18 c -2.37,-12.78 -0.87,-25.96 -0.87,-25.96 0,0 0.2,-0.43 0.68,-0.89 0.48,-0.47 0.6,-1.52 0.08,-2.45 -0.2,-0.35 0,-0.78 0.17,-1.6 0.18,-0.83 0.77,-2.01 0.53,-2.58 -0.14,-0.36 -0.59,-1.2 -2,-1.91 0.24,0.25 0.41,0.56 0.35,0.94 -0.01,0.04 -0.05,0.1 -0.1,0.07 -0.63,-0.46 -1.41,-0.77 -2.19,-0.83 1.01,0.49 1.91,0.7 1.96,1.74 0.03,0.48 -0.27,1.3 -0.37,1.78 -0.08,0.33 -0.16,0.75 -0.45,0.97 -0.05,0.04 -0.12,0.01 -0.14,-0.04 -0.07,-0.37 0.02,-0.77 -0.12,-1.11 -0.11,0.47 -0.2,1.19 -0.75,1.18 -0.68,-0.01 -0.71,-0.68 -0.83,-1.2 -0.19,0.61 -0.2,1.31 -1.01,1.36 -0.3,0.02 -0.65,0.03 -0.84,-0.25 -0.14,-0.2 -0.17,-0.49 -0.23,-0.74 -0.08,0.23 -0.15,0.51 -0.32,0.65 -0.23,0.19 -0.64,0.14 -0.92,0.08 -0.29,-0.06 -0.6,-0.16 -0.72,-0.46 -0.12,-0.27 -0.16,-0.58 -0.22,-0.87 -0.07,0.42 -0.1,0.84 -0.1,1.26 0,0.04 -0.03,0.07 -0.07,0.07 -0.68,0.12 -0.93,-0.35 -1.05,-0.89 0.01,0.38 0.01,0.75 -0.2,1.05 -0.04,0.06 -0.11,0.04 -0.15,-0.01 -0.36,-0.58 -0.44,-1.36 -0.41,-2.04 0.03,-0.56 0.1,-1.38 0.59,-1.77 0.62,-0.5 1.87,-0.79 2.63,-0.87 0.93,-0.09 1.66,-0.05 2.6,-0.14 -1.91,-0.19 -3.92,0 -5.52,0.29 -0.05,0.01 -0.07,-0.08 -0.04,-0.13 0.6,-0.78 1.72,-0.94 2.63,-1.03 0.8,-0.07 1.6,-0.05 2.4,-0.07 -0.11,-0.01 -0.22,-0.03 -0.33,-0.04 -0.03,0 -0.06,-0.01 -0.1,-0.01 -0.03,0 -0.06,0 -0.09,0 -4.66,-0.19 -5.96,1.5 -6.28,2.03 -0.32,0.53 0.09,1.79 0.14,2.63 0.04,0.84 0.18,1.29 -0.07,1.61 -0.65,0.84 -0.7,1.9 -0.29,2.43 0.41,0.53 0.53,0.99 0.53,0.99 0,0 -0.51,13.54 -4.91,25.93 1.81,0.88 3.74,1.32 4.5,1.5 0,0 0.16,-0.15 0.44,-0.36 0.11,-0.58 0.19,-1.17 0.3,-1.75 0.21,-1.17 0.48,-2.34 0.69,-3.52 0.44,-2.43 0.77,-4.89 1.05,-7.34 0.28,-2.46 0.47,-4.93 0.69,-7.39 0.1,-1.24 0.26,-2.48 0.39,-3.72 0.1,-0.99 0.03,-2.07 0.48,-2.98 0.01,-0.02 0.04,-0.04 0.05,-0.04 0.06,-0.14 0.14,-0.26 0.23,-0.36 0.24,-0.25 0.39,0.03 0.48,0.3 0.02,-0.11 0.04,-0.23 0.07,-0.34 0.02,-0.07 0.11,-0.06 0.14,-0.02 0.1,0.08 0.2,0.16 0.3,0.24 0.29,-0.55 1.31,-0.41 1.58,0.12 0.17,-0.26 0.44,-0.4 0.78,-0.33 0.26,0.05 0.79,0.16 0.84,0.49 0.08,0.53 -0.03,1.12 -0.04,1.65 -0.02,0.67 0,1.34 0.16,1.99 0.26,-0.99 0.2,-2.04 0.51,-3.02 0.04,-0.1 0.16,-0.05 0.16,0.04 0.1,5.49 -0.39,11 -0.01,16.49 0.1,1.36 0.22,2.73 0.33,4.09 0.08,0.97 0.11,1.95 0.29,2.9 0.13,0.72 0.29,1.46 0.27,2.19 -0.01,0.15 -0.02,0.3 -0.04,0.45 0.63,-0.13 1.25,-0.29 1.76,-0.45 z m -2.24,-27.75 c -0.45,0.32 -0.92,-0.03 -1.4,-0.11 -0.97,-0.17 -1.94,-0.22 -2.91,-0.29 -0.5,-0.04 -1.04,-0.13 -1.54,-0.06 -0.3,0.04 -0.63,0.13 -0.93,0.07 -0.29,-0.06 -0.52,-0.45 -0.79,-0.12 -0.1,0.12 -0.19,0.19 -0.35,0.19 -0.4,-0.01 -0.39,-0.75 -0.36,-1 0.05,-0.46 0.2,-0.96 0.65,-1.16 0.05,-0.02 0.11,0.01 0.12,0.06 0.06,0.29 0.16,0.57 0.27,0.85 0.08,-0.3 0.14,-0.59 0.28,-0.87 0.03,-0.06 0.09,-0.05 0.12,-0.01 0.06,-0.05 0.13,-0.09 0.22,-0.12 0.35,-0.13 0.75,-0.01 1.12,-0.01 0.42,0 0.86,-0.05 1.3,-0.01 0.18,0.02 0.42,0.04 0.55,0.19 0.44,-0.31 1.37,-0.12 1.82,-0.03 0.41,0.08 1.25,0.2 1.49,0.65 0.32,-0.21 0.72,-0.06 0.8,0.37 0.09,0.46 -0.06,1.12 -0.46,1.41 z"
   id="path1260"
   inkscape:connector-curvature="0"
   style="fill:#4c4333" />
	</g>
	<g
   id="g1266">
		<path
   class="st147"
   d="m 560.25,150.29 c 0,-0.05 0.01,-0.1 0.01,-0.15 0.13,-1.12 0.4,-2.21 0.57,-3.32 0.43,-2.87 0.9,-5.74 1.32,-8.61 0.42,-2.97 0.63,-5.96 0.97,-8.94 0.16,-1.43 0.29,-2.88 0.35,-4.33 0.03,-0.62 -0.03,-1.21 0.47,-1.59 -0.01,-0.06 0.02,-0.13 0.11,-0.16 1.23,-0.45 2.54,-0.57 3.84,-0.55 1.31,0.03 2.7,0.04 3.92,0.57 0.71,0.31 1.17,0.85 1.47,1.49 0.04,-0.32 0.05,-0.49 0.05,-0.49 0,0 0.2,-0.43 0.68,-0.89 0.12,-0.11 0.21,-0.25 0.27,-0.42 v 0.01 c -0.57,0.46 -1.08,0.29 -1.72,0.03 -0.07,-0.03 -0.13,-0.05 -0.19,-0.08 -2.67,-0.59 -5.26,-0.63 -7.95,-0.35 -0.84,0.26 -1.82,0.43 -2.04,-0.31 -0.16,-0.51 -0.1,-1.17 0.17,-1.64 0.34,-0.62 1.09,-0.62 1.72,-0.73 0.07,-0.01 0.13,0.02 0.17,0.06 1.76,-0.26 3.59,-0.37 5.35,-0.05 1.46,0.26 3,0.51 4.36,1.14 -0.02,-0.04 -0.04,-0.07 -0.05,-0.11 -0.2,-0.35 0,-0.78 0.17,-1.6 0.18,-0.83 0.77,-2.01 0.53,-2.58 -0.04,-0.12 -0.13,-0.28 -0.26,-0.48 0.02,0.09 0.04,0.18 0.05,0.27 0.06,0.54 -0.13,1.07 -0.28,1.58 -0.14,0.49 -0.22,1 -0.36,1.48 -0.25,0.81 -0.67,0.84 -1.42,0.59 -0.98,-0.33 -2.06,-0.47 -3.12,-0.55 -0.08,0.03 -0.16,0.04 -0.26,0.05 -0.23,0.01 -0.5,0.02 -0.68,-0.1 -0.17,-0.01 -0.32,-0.01 -0.49,-0.02 -1.19,-0.05 -2.35,-0.01 -3.53,0.05 -0.01,0.01 -0.03,0.01 -0.05,0.01 -0.3,0.01 -0.6,0.03 -0.9,0.05 -0.67,0.04 -0.75,-0.8 -0.78,-1.28 -0.06,-0.98 -0.2,-2.05 0.25,-2.96 0.17,-0.33 0.41,-0.58 0.71,-0.78 -0.77,0.43 -1.11,0.91 -1.26,1.15 -0.32,0.53 0.09,1.79 0.14,2.63 0.04,0.84 0.18,1.29 -0.07,1.61 -0.65,0.84 -0.7,1.9 -0.29,2.43 0.41,0.53 0.53,0.99 0.53,0.99 0,0 -0.51,13.54 -4.91,25.93 0.81,0.4 1.67,0.71 2.43,0.95 z"
   id="path1264"
   inkscape:connector-curvature="0"
   style="fill:#4c4333" />
	</g>
	<path
   class="st129"
   d="m 577.69,188.46 c 0.02,-0.28 0.04,-0.56 0.06,-0.83 -2.45,0.86 -6.99,1.76 -14.76,1.17 -8.79,-0.67 -12.61,-2.51 -14.2,-3.69 -0.02,0.27 -0.04,0.55 -0.07,0.83 1.59,1.17 5.42,3.02 14.21,3.69 7.77,0.59 12.32,-0.32 14.76,-1.17 z"
   id="path1268"
   inkscape:connector-curvature="0"
   style="fill:#fbae1c" />
	<path
   class="st133"
   d="m 559.33,156.19 c -1.58,-0.35 -2.87,-0.75 -3.89,-1.16 -0.12,0.25 -0.23,0.5 -0.35,0.74 1.04,0.44 2.36,0.87 4.03,1.24 0.07,-0.28 0.15,-0.55 0.21,-0.82 z"
   id="path1270"
   inkscape:connector-curvature="0"
   style="opacity:0.7;fill:#a66227" />
	<path
   class="st133"
   d="m 573.66,157.25 c 0.04,0.18 0.07,0.36 0.1,0.54 0.83,-0.1 1.57,-0.23 2.24,-0.36 -0.08,-0.26 -0.16,-0.52 -0.24,-0.79 -0.65,0.12 -1.38,0.24 -2.16,0.33 0.02,0.09 0.04,0.19 0.06,0.28 z"
   id="path1272"
   inkscape:connector-curvature="0"
   style="opacity:0.7;fill:#a66227" />
	<path
   class="st121"
   d="m 568.55,157.18 c -0.96,-0.01 -1.98,-0.06 -3.09,-0.15 -0.78,-0.06 -1.52,-0.13 -2.22,-0.22 -0.07,0.28 -0.14,0.56 -0.22,0.84 0.75,0.09 1.54,0.16 2.38,0.23 1.14,0.09 2.21,0.13 3.21,0.15 -0.02,-0.28 -0.04,-0.57 -0.06,-0.85 z"
   id="path1274"
   inkscape:connector-curvature="0"
   style="fill:#faf39e" />
	<path
   class="st133"
   d="m 560.73,150.44 c -0.86,-0.25 -1.91,-0.6 -2.92,-1.09 -0.11,0.3 -0.21,0.6 -0.32,0.9 0.72,0.27 1.82,0.65 3.06,1.01 0.06,-0.29 0.11,-0.56 0.18,-0.82 z"
   id="path1276"
   inkscape:connector-curvature="0"
   style="opacity:0.7;fill:#a66227" />
	<path
   class="st133"
   d="m 572.87,151.54 c 0.52,-0.15 1.04,-0.31 1.48,-0.49 -0.05,-0.29 -0.11,-0.58 -0.17,-0.87 -0.42,0.13 -0.9,0.26 -1.39,0.38 0.03,0.32 0.06,0.65 0.08,0.98 z"
   id="path1278"
   inkscape:connector-curvature="0"
   style="opacity:0.7;fill:#a66227" />
	<path
   class="st121"
   d="m 568.24,149.82 c -0.53,-0.23 -1.17,-0.42 -1.92,-0.45 -0.48,-0.03 -0.93,0.02 -1.34,0.11 -0.08,0.39 -0.18,0.77 -0.26,1.16 0.46,-0.11 0.99,-0.17 1.58,-0.09 0.78,0.1 1.45,0.33 1.99,0.59 -0.01,-0.44 -0.03,-0.88 -0.05,-1.32 z"
   id="path1280"
   inkscape:connector-curvature="0"
   style="fill:#faf39e" />
	<path
   class="st133"
   d="m 574.18,188.51 -0.06,0.83 c 1.51,-0.25 2.68,-0.57 3.58,-0.88 l 0.06,-0.83 c -0.9,0.31 -2.07,0.63 -3.58,0.88 z"
   id="path1282"
   inkscape:connector-curvature="0"
   style="opacity:0.7;fill:#a66227" />
	<path
   class="st133"
   d="m 553.85,187.34 c -2.65,-0.74 -4.19,-1.59 -5.05,-2.22 l -0.07,0.83 c 0.87,0.64 2.4,1.48 5.05,2.22 z"
   id="path1284"
   inkscape:connector-curvature="0"
   style="opacity:0.7;fill:#a66227" />
	<path
   class="st121"
   d="m 563,188.8 c -1.02,-0.07 -1.96,-0.17 -2.85,-0.28 l -0.06,0.83 c 0.88,0.1 1.83,0.2 2.85,0.28 1.75,0.13 3.32,0.19 4.76,0.19 l 0.06,-0.83 c -1.44,0 -3.02,-0.05 -4.76,-0.19 z"
   id="path1286"
   inkscape:connector-curvature="0"
   style="fill:#faf39e" />
	<path
   class="st21"
   d="m 557.94,160.66 c 0.57,-1.68 1.08,-3.1 1.08,-3.1 l -1.3,-0.43 c -0.23,0.43 -0.78,1.46 -1.43,2.87 0.55,0.21 1.11,0.43 1.65,0.66 z"
   id="path1288"
   inkscape:connector-curvature="0"
   style="fill:#ffffff" />
	<path
   class="st21"
   d="m 557.44,162.18 c -0.6,-0.25 -1.19,-0.49 -1.79,-0.73 -0.89,2.08 -1.83,4.68 -2.38,7.37 -0.88,4.28 -1.23,17.73 -1.23,17.73 l 2.4,0.63 c 0,0 0.22,-5.67 0.53,-9.88 0.32,-4.21 0.85,-9.73 1.46,-11.92 0.21,-0.77 0.59,-1.97 1.01,-3.2 z"
   id="path1290"
   inkscape:connector-curvature="0"
   style="fill:#ffffff" />
	<path
   class="st21"
   d="m 550.12,210.36 2.27,0.95 c 0,0 0.04,3.79 -0.07,5.23 -0.11,1.44 0.9,2.85 4.94,3.94 0,0 -6.51,-0.94 -7.35,-3.01 -0.84,-2.07 0.21,-7.11 0.21,-7.11 z"
   id="path1292"
   inkscape:connector-curvature="0"
   style="fill:#ffffff" />
	<path
   class="st148"
   d="m 564.22,120.96 c 0,-0.1 -0.16,-0.13 -0.18,-0.02 -0.01,0.07 -0.03,0.15 -0.04,0.23 -0.02,0.08 -0.04,0.17 0.01,0.23 0.04,0.06 0.11,0.08 0.17,0.02 0.1,-0.11 0.05,-0.32 0.04,-0.46 z"
   id="path1294"
   inkscape:connector-curvature="0"
   style="fill:#89877b" />
	<path
   class="st148"
   d="m 564.75,121.21 c -0.04,-0.07 -0.08,-0.16 -0.13,-0.22 -0.07,-0.08 -0.23,-0.07 -0.22,0.06 0.01,0.1 0.01,0.2 0.03,0.3 0.01,0.07 0.07,0.11 0.13,0.13 0,0.01 0.01,0.01 0.02,0.01 0.07,0.02 0.14,-0.02 0.17,-0.07 0,-0.01 0.01,-0.01 0.01,-0.02 0.02,-0.07 0.02,-0.13 -0.01,-0.19 z"
   id="path1296"
   inkscape:connector-curvature="0"
   style="fill:#89877b" />
	<path
   class="st148"
   d="m 566.27,120.67 c -0.04,-0.09 -0.13,-0.11 -0.22,-0.09 0,-0.01 0,-0.01 0,-0.02 -0.07,-0.25 -0.42,-0.29 -0.54,-0.07 -0.04,0.07 -0.07,0.13 -0.1,0.2 -0.02,-0.04 -0.04,-0.07 -0.08,-0.09 -0.02,-0.05 -0.08,-0.05 -0.13,-0.01 -0.12,0.07 -0.13,0.24 -0.14,0.38 -0.01,0.2 -0.02,0.4 0.02,0.6 0.04,0.2 0.35,0.29 0.47,0.12 0.05,-0.07 0.1,-0.13 0.13,-0.21 0.1,0.07 0.23,0.1 0.33,0.03 0.32,-0.18 0.4,-0.54 0.26,-0.84 z"
   id="path1298"
   inkscape:connector-curvature="0"
   style="fill:#89877b" />
	<path
   class="st148"
   d="m 568.49,121.06 c 0,-0.19 -0.02,-0.37 -0.07,-0.55 -0.03,-0.1 -0.13,-0.12 -0.2,-0.09 -0.08,-0.08 -0.23,-0.07 -0.27,0.07 -0.03,0.12 -0.06,0.25 -0.08,0.38 -0.08,-0.11 -0.16,-0.21 -0.25,-0.31 -0.08,-0.09 -0.17,-0.1 -0.26,-0.07 -0.13,-0.13 -0.38,-0.14 -0.47,0.05 -0.01,0.02 -0.02,0.04 -0.03,0.06 -0.01,-0.04 -0.02,-0.07 -0.04,-0.1 -0.1,-0.19 -0.35,-0.07 -0.36,0.1 -0.02,0.26 0.05,0.56 0.13,0.81 0.07,0.17 0.29,0.25 0.44,0.17 0.01,0.02 0.02,0.03 0.03,0.05 0.16,0.27 0.52,0.13 0.54,-0.15 0,-0.03 0.01,-0.06 0.01,-0.09 0.07,0.05 0.14,0.07 0.22,0.07 0.04,0.06 0.1,0.1 0.16,0.12 0.08,0.02 0.15,0 0.2,-0.04 0.06,0.03 0.14,0.02 0.19,-0.03 0.12,-0.15 0.11,-0.28 0.11,-0.45 z"
   id="path1300"
   inkscape:connector-curvature="0"
   style="fill:#89877b" />
	<path
   class="st148"
   d="m 570.49,121.25 c 0,-0.21 -0.07,-0.41 -0.23,-0.56 -0.11,-0.11 -0.29,0 -0.26,0.15 0.02,0.1 0.01,0.21 -0.01,0.3 0,0 -0.01,0 -0.01,-0.01 -0.04,-0.12 -0.06,-0.25 -0.05,-0.38 0.02,-0.3 -0.39,-0.36 -0.53,-0.13 -0.01,0.01 -0.01,0.01 -0.01,0.02 -0.02,-0.02 -0.05,-0.04 -0.08,-0.04 -0.03,-0.01 -0.07,0 -0.11,0.02 0.04,-0.02 -0.06,0 -0.06,0 -0.05,0.01 -0.05,0.08 -0.01,0.11 0.01,0 0.01,0 0.02,0 0,0.01 0,0.01 -0.01,0.02 0.01,0.05 -0.02,0.11 -0.02,0.16 0,0.01 -0.01,0.02 -0.01,0.03 -0.04,-0.1 -0.08,-0.2 -0.13,-0.29 -0.07,-0.13 -0.27,-0.04 -0.24,0.1 0.07,0.27 0.03,0.53 0.07,0.8 0.02,0.15 0.2,0.15 0.29,0.07 0.1,0.08 0.25,0.1 0.36,-0.01 0.02,-0.02 0.04,-0.04 0.05,-0.07 0.02,0.04 0.04,0.08 0.06,0.12 0.08,0.14 0.23,0.16 0.35,0.11 0.07,0.13 0.25,0.15 0.36,0.09 0.23,-0.11 0.21,-0.42 0.21,-0.61 z"
   id="path1302"
   inkscape:connector-curvature="0"
   style="fill:#89877b" />
	<path
   class="st148"
   d="m 571.31,121.15 c 0,-0.17 -0.25,-0.23 -0.33,-0.08 0,0.01 -0.01,0.02 -0.02,0.02 -0.01,-0.02 -0.02,-0.05 -0.02,-0.08 -0.01,-0.14 -0.25,-0.2 -0.27,-0.03 -0.03,0.17 0.04,0.32 0.03,0.48 -0.02,0.14 0.11,0.19 0.22,0.17 0.01,0.05 0.03,0.09 0.07,0.13 0.04,0.05 0.14,0.06 0.19,0.02 0.1,-0.08 0.11,-0.15 0.13,-0.27 0,-0.11 0,-0.23 0,-0.36 z"
   id="path1304"
   inkscape:connector-curvature="0"
   style="fill:#89877b" />
	<path
   class="st148"
   d="m 571.82,121.11 c -0.05,-0.13 -0.26,-0.12 -0.25,0.04 0.01,0.1 0,0.21 -0.02,0.31 -0.02,0.12 -0.07,0.2 -0.02,0.32 0.04,0.08 0.14,0.08 0.2,0.05 0.12,-0.05 0.14,-0.21 0.15,-0.33 0.01,-0.14 -0.02,-0.27 -0.06,-0.39 z"
   id="path1306"
   inkscape:connector-curvature="0"
   style="fill:#89877b" />
	<path
   class="st148"
   d="m 572.31,121.33 c -0.1,-0.09 -0.22,0.03 -0.17,0.13 0.02,0.03 0.02,0.07 0.02,0.12 0.02,0.13 0.22,0.17 0.24,0.03 0.01,-0.11 -0.01,-0.2 -0.09,-0.28 z"
   id="path1308"
   inkscape:connector-curvature="0"
   style="fill:#89877b" />
	<path
   class="st148"
   d="m 571.33,114.6 c -1.47,-1.06 -3.59,-0.67 -5.21,-0.22 -0.05,0.01 -0.05,0.1 0.01,0.1 1.77,-0.08 3.4,-0.1 5.15,0.23 0.06,0.01 0.1,-0.07 0.05,-0.11 z"
   id="path1310"
   inkscape:connector-curvature="0"
   style="fill:#89877b" />
	<path
   class="st148"
   d="m 565.66,119.15 c -0.08,-0.42 -0.13,-0.84 -0.16,-1.26 0,-0.04 0,-0.08 0,-0.12 0,-0.02 -0.01,-0.04 -0.01,-0.05 -0.03,-0.43 -0.05,-0.86 -0.1,-1.29 0,-0.04 -0.05,-0.04 -0.05,0 0,0.41 -0.01,0.81 -0.01,1.22 -0.04,0.01 -0.07,0.04 -0.07,0.08 -0.08,-0.27 -0.11,-0.55 -0.11,-0.82 0,-0.05 -0.08,-0.06 -0.09,-0.01 -0.17,0.53 -0.08,1.05 0.13,1.55 0.03,0.08 0.11,0.09 0.17,0.07 0.02,0.23 0.04,0.45 0.08,0.68 0.03,0.15 0.24,0.09 0.22,-0.05 z"
   id="path1312"
   inkscape:connector-curvature="0"
   style="fill:#89877b" />
	<path
   class="st148"
   d="m 564.56,118.72 c -0.13,-0.7 -0.14,-1.38 -0.16,-2.08 -0.01,-0.07 -0.1,-0.08 -0.11,-0.01 -0.13,0.71 -0.23,1.47 -0.04,2.17 0.07,0.19 0.34,0.11 0.31,-0.08 z"
   id="path1314"
   inkscape:connector-curvature="0"
   style="fill:#89877b" />
	<path
   class="st148"
   d="m 564.21,118.6 c -0.06,-0.24 -0.13,-0.45 -0.16,-0.7 -0.02,-0.2 -0.04,-0.4 -0.08,-0.6 -0.02,-0.08 -0.15,-0.06 -0.14,0.02 0.04,0.43 -0.08,1.01 0.25,1.36 0.07,0.05 0.15,-0.01 0.13,-0.08 z"
   id="path1316"
   inkscape:connector-curvature="0"
   style="fill:#89877b" />
	<path
   class="st148"
   d="m 569.5,117.3 c 0,-0.08 -0.12,-0.11 -0.15,-0.04 -0.02,0.08 -0.05,0.16 -0.11,0.22 -0.14,-0.2 -0.2,-0.4 -0.22,-0.67 -0.01,-0.13 -0.14,-0.22 -0.26,-0.15 -0.41,0.23 -0.56,0.63 -0.8,1 -0.1,-0.34 -0.09,-0.71 -0.22,-1.05 -0.04,-0.11 -0.22,-0.2 -0.3,-0.07 -0.3,0.4 -0.41,0.85 -0.5,1.32 -0.07,-0.42 -0.1,-0.84 -0.16,-1.26 -0.02,-0.12 -0.2,-0.12 -0.19,0 0.04,0.63 0.05,1.27 0.22,1.89 0.04,0.13 0.21,0.12 0.25,0 0.11,-0.42 0.17,-0.93 0.38,-1.33 0.04,0.36 0.09,0.71 0.29,1.03 0.07,0.12 0.25,0.15 0.34,0.04 0.27,-0.32 0.41,-0.77 0.68,-1.08 0.08,0.23 0.2,0.44 0.39,0.63 0.05,0.05 0.14,0.05 0.19,0 0.12,-0.18 0.17,-0.28 0.17,-0.48 z"
   id="path1318"
   inkscape:connector-curvature="0"
   style="fill:#89877b" />
	<path
   class="st148"
   d="m 566.42,117.16 c -0.01,-0.17 -0.02,-0.34 -0.05,-0.51 -0.01,-0.09 -0.16,-0.07 -0.16,0.02 0.01,0.31 -0.09,0.71 0.05,0.99 0.03,0.07 0.14,0.04 0.16,-0.02 0.04,-0.16 0.01,-0.32 0,-0.48 z"
   id="path1320"
   inkscape:connector-curvature="0"
   style="fill:#89877b" />
	<path
   class="st148"
   d="m 571.79,117.52 c 0.02,-0.34 -0.01,-0.69 -0.17,-0.99 -0.08,-0.15 -0.29,-0.07 -0.29,0.08 -0.01,0.13 -0.01,0.25 -0.01,0.38 -0.08,-0.02 -0.17,0.02 -0.21,0.12 -0.03,0.07 -0.06,0.15 -0.09,0.22 0,-0.09 -0.01,-0.17 -0.01,-0.26 0,-0.1 -0.1,-0.14 -0.17,-0.1 -0.01,0.01 -0.01,0.01 -0.02,0.01 -0.04,0.01 -0.06,0.05 -0.06,0.09 -0.01,0.08 -0.05,0.16 -0.1,0.25 -0.04,-0.07 -0.08,-0.15 -0.11,-0.22 -0.05,-0.12 -0.26,-0.03 -0.21,0.09 v 0 c -0.01,0.01 -0.01,0.01 -0.02,0.02 -0.03,0.03 -0.05,0.07 -0.07,0.1 -0.1,-0.05 -0.23,0.1 -0.13,0.2 0.03,0.03 0.07,0.05 0.11,0.07 0,0.01 0,0.01 0,0.02 0,0.13 0.01,0.25 0.04,0.38 0.02,0.14 0.2,0.1 0.23,0 0.04,-0.1 0.07,-0.2 0.08,-0.3 0.05,0.02 0.13,-0.01 0.16,-0.07 0,0.12 0.01,0.24 0.05,0.36 0.04,0.14 0.23,0.16 0.3,0.03 0.07,-0.13 0.14,-0.25 0.22,-0.39 -0.04,0.27 -0.16,0.53 -0.08,0.79 0.04,0.15 0.23,0.19 0.34,0.08 0.21,-0.24 0.2,-0.65 0.22,-0.96 z"
   id="path1322"
   inkscape:connector-curvature="0"
   style="fill:#89877b" />
	<path
   class="st148"
   d="m 572.53,116.57 c -0.01,-0.11 -0.17,-0.14 -0.2,-0.02 -0.16,0.72 -0.27,1.45 -0.41,2.17 -0.07,0.31 0.4,0.43 0.48,0.12 0.17,-0.75 0.18,-1.5 0.13,-2.27 z"
   id="path1324"
   inkscape:connector-curvature="0"
   style="fill:#89877b" />
	<path
   class="st148"
   d="m 571.65,150.42 c -0.03,-0.21 -0.06,-0.42 -0.1,-0.64 0.05,-1.06 -0.13,-2.11 -0.27,-3.16 -0.18,-1.33 -0.19,-2.69 -0.27,-4.02 -0.15,-2.87 -0.24,-5.74 -0.31,-8.61 -0.07,-2.74 0.07,-5.49 -0.09,-8.22 -0.04,-0.67 0.11,-2.44 -1.06,-2.08 -0.1,0.03 -0.12,0.14 -0.08,0.21 -0.02,0.01 -0.04,0.03 -0.05,0.07 -0.01,0.02 -0.01,0.05 -0.01,0.08 -0.27,0.45 -0.25,1.17 -0.22,1.81 -0.02,0.35 -0.04,0.69 -0.06,1.03 -0.09,1.07 -0.16,2.15 -0.22,3.23 -0.11,2.16 -0.16,4.33 -0.23,6.5 -0.08,2.16 -0.14,4.33 -0.15,6.49 -0.02,2.12 0.15,4.24 0.02,6.35 0,0.04 0,0.07 0.01,0.09 -0.09,0.06 -0.09,0.22 0.03,0.25 0.33,0.08 0.61,0.26 0.84,0.48 0.02,0.09 0.09,0.14 0.17,0.17 0.1,0.1 0.19,0.2 0.27,0.3 0.02,0.04 0.07,0.05 0.12,0.05 0.03,0.04 0.09,0.07 0.14,0.06 0.45,-0.07 0.87,-0.22 1.33,-0.25 0.11,-0.01 0.21,-0.09 0.19,-0.19 z"
   id="path1326"
   inkscape:connector-curvature="0"
   style="fill:#89877b" />
	<path
   class="st148"
   d="m 566.43,123.97 c -0.01,-0.14 -0.23,-0.19 -0.26,-0.03 -0.39,1.9 -0.48,3.87 -0.66,5.81 -0.2,2.13 -0.34,4.26 -0.54,6.39 -0.39,4.19 -0.84,8.41 -1.45,12.57 -0.01,0.07 0.08,0.12 0.13,0.04 0.78,-1.65 0.77,-3.77 1.03,-5.55 0.3,-2.03 0.59,-4.07 0.83,-6.1 0.25,-2.12 0.4,-4.26 0.56,-6.39 0.16,-2.24 0.48,-4.51 0.36,-6.74 z"
   id="path1328"
   inkscape:connector-curvature="0"
   style="fill:#89877b" />
</g>

















</svg>