<?xml version="1.0" encoding="UTF-8" standalone="no"?>
<!-- Generator: Adobe Illustrator 23.1.0, SVG Export Plug-In . SVG Version: 6.00 Build 0)  -->

<svg
   xmlns:dc="http://purl.org/dc/elements/1.1/"
   xmlns:cc="http://creativecommons.org/ns#"
   xmlns:rdf="http://www.w3.org/1999/02/22-rdf-syntax-ns#"
   xmlns:svg="http://www.w3.org/2000/svg"
   xmlns="http://www.w3.org/2000/svg"
   xmlns:sodipodi="http://sodipodi.sourceforge.net/DTD/sodipodi-0.dtd"
   xmlns:inkscape="http://www.inkscape.org/namespaces/inkscape"
   version="1.1"
   id="Layer_1"
   x="0px"
   y="0px"
   viewBox="0 0 151.1811 151.18109"
   xml:space="preserve"
   sodipodi:docname="2.3.4.svg"
   width="40mm"
   height="40mm"
   inkscape:version="0.92.4 (5da689c313, 2019-01-14)"><metadata
   id="metadata4529"><rdf:RDF><cc:Work
       rdf:about=""><dc:format>image/svg+xml</dc:format><dc:type
         rdf:resource="http://purl.org/dc/dcmitype/StillImage" /><dc:title></dc:title></cc:Work></rdf:RDF></metadata><defs
   id="defs4527" /><sodipodi:namedview
   pagecolor="#ffffff"
   bordercolor="#666666"
   borderopacity="1"
   objecttolerance="10"
   gridtolerance="10"
   guidetolerance="10"
   inkscape:pageopacity="0"
   inkscape:pageshadow="2"
   inkscape:window-width="1024"
   inkscape:window-height="709"
   id="namedview4525"
   showgrid="false"
   units="mm"
   inkscape:zoom="1.1213358"
   inkscape:cx="191.24071"
   inkscape:cy="52.633534"
   inkscape:window-x="0"
   inkscape:window-y="30"
   inkscape:window-maximized="1"
   inkscape:current-layer="Layer_1" />
<style
   type="text/css"
   id="style2">
	.st0{fill:#67A8DB;}
	.st1{opacity:0.4;fill:#327CC0;}
	.st2{fill:#5299D3;}
	.st3{opacity:0.4;fill:#67A8DB;}
	.st4{opacity:0.5;}
	.st5{fill:#5CA1D7;}
	.st6{opacity:0.6;fill:#93C2E8;}
	.st7{opacity:0.6;fill:#67A8DB;}
	.st8{fill:#E76362;}
	.st9{opacity:0.4;fill:#D02527;}
	.st10{fill:#E14949;}
	.st11{opacity:0.4;fill:#E76362;}
	.st12{fill:#E45556;}
	.st13{opacity:0.6;fill:#EF9292;}
	.st14{opacity:0.6;fill:#E76362;}
	.st15{opacity:0.5;fill:#D2EEF9;}
	.st16{opacity:0.4;fill:#0099B0;}
	.st17{fill:#D0D1D1;}
	.st18{opacity:0.4;fill:#036BB1;}
	.st19{opacity:0.5;fill:#B5CCD7;}
	.st20{fill:#ACC1CB;}
	.st21{fill:#FFFFFF;}
	.st22{fill:#DFEFE7;}
	.st23{opacity:0.9;fill:#7ED0E0;}
	.st24{opacity:0.9;fill:#62C2CB;}
	.st25{opacity:0.9;fill:#41B3BF;}
	.st26{fill:#B1C8BC;}
	.st27{fill:#E21E26;}
	.st28{fill:#C1C0C0;}
	.st29{fill:#FCCE08;}
	.st30{opacity:0.7;}
	.st31{fill:#C8C7C6;}
	.st32{opacity:0.9;}
	.st33{fill:#41B3BF;}
	.st34{fill:#E75524;}
	.st35{fill:#62BE6B;}
	.st36{opacity:0.7;fill:#A6A6A6;}
	.st37{opacity:0.3;fill:#5BB353;}
	.st38{fill:#D1D1D1;}
	.st39{fill:#5BB353;}
	.st40{fill:#EDEDED;}
	.st41{fill:#DBDBDB;}
	.st42{fill:#F7F7F7;}
	.st43{fill:#E0E0E0;}
	.st44{fill:#EBEBEB;}
	.st45{fill:#811E18;}
	.st46{fill:#BC2025;}
	.st47{fill:#EB2024;}
	.st48{opacity:0.7;fill:#93CACB;}
	.st49{opacity:0.4;}
	.st50{fill:#919898;}
	.st51{fill:#C2CACB;}
	.st52{opacity:0.4;fill:#82C7DE;}
	.st53{opacity:0.8;fill:#FFFFFF;}
	.st54{opacity:0.5;fill:#FFFFFF;}
	.st55{fill:#FABE79;}
	.st56{fill:#F6AB62;}
	.st57{opacity:0.6;fill:#AE7B47;}
	.st58{fill:#B48049;}
	.st59{fill:#9B703F;}
	.st60{opacity:0.3;fill:#AE7B47;}
	.st61{opacity:0.3;}
	.st62{fill:#9C703E;}
	.st63{opacity:0.3;fill:#9B703F;}
	.st64{opacity:0.5;fill:#F6AB62;}
	.st65{opacity:0.4;fill:#FABE79;}
	.st66{fill:#DBDADA;}
	.st67{opacity:0.4;fill:#B2B4B7;}
	.st68{opacity:0.2;fill:#C1C1B7;}
	.st69{fill:#C2C2C2;}
	.st70{opacity:0.5;fill:#C2C2C2;}
	.st71{fill:#E5E1C6;}
	.st72{opacity:0.5;fill:#D4D1B8;}
	.st73{fill:#E3E3E3;}
	.st74{opacity:0.8;fill:#D4D1B8;}
	.st75{fill:#D4D1B8;}
	.st76{opacity:0.5;fill:#D0B9AD;}
	.st77{opacity:0.4;fill:#D4D1B8;}
	.st78{fill:#D2D1CE;}
	.st79{opacity:0.4;fill:#D2D1CE;}
	.st80{opacity:0.4;fill:#C2C2C2;}
	.st81{fill:#BFC1B8;}
	.st82{fill:#CB484F;}
	.st83{fill:#A7A9A0;}
	.st84{fill:#C3979C;}
	.st85{fill:#C7B88F;}
	.st86{fill:#9ACACB;}
	.st87{fill:#A8A8AB;}
	.st88{opacity:0.6;fill:#BE9C7A;}
	.st89{fill:#A4A391;}
	.st90{opacity:0.6;fill:#C2C2C2;}
	.st91{fill:#789D99;}
	.st92{opacity:0.4;fill:#789D99;}
	.st93{fill:#D1CEB6;}
	.st94{fill:#B8B6A1;}
	.st95{fill:#BAB8A3;}
	.st96{fill:#ABAA97;}
	.st97{fill:#E4E4E2;}
	.st98{opacity:0.6;}
	.st99{fill:#BEA18D;}
	.st100{opacity:0.3;fill:#BEA18D;}
	.st101{opacity:0.2;fill:#BEA18D;}
	.st102{fill:#D9BDA6;}
	.st103{fill:#CCAD93;}
	.st104{fill:#603412;}
	.st105{opacity:0.5;fill:#93816B;}
	.st106{opacity:0.4;fill:#331C0F;}
	.st107{fill:#93816B;}
	.st108{fill:#331C0F;}
	.st109{opacity:0.5;fill:#FFF7EA;}
	.st110{fill:#3F2612;}
	.st111{fill:#D62839;}
	.st112{fill:#F9AE9C;}
	.st113{fill:#4B632D;}
	.st114{opacity:0.5;fill:#86926B;}
	.st115{opacity:0.4;fill:#2E3618;}
	.st116{fill:#86926B;}
	.st117{fill:#2E3618;}
	.st118{opacity:0.5;fill:#F7F9E8;}
	.st119{fill:#34411B;}
	.st120{fill:#D59829;}
	.st121{fill:#FAF39E;}
	.st122{fill:#242424;}
	.st123{fill:#333232;}
	.st124{fill:#5D5D5D;}
	.st125{fill:#161616;}
	.st126{fill:#B3B3B3;}
	.st127{fill:#1A1A1A;}
	.st128{fill:#48893F;}
	.st129{fill:#FBAE1C;}
	.st130{fill:#759C3F;}
	.st131{fill:#56692F;}
	.st132{fill:#CAD631;}
	.st133{opacity:0.7;fill:#A66227;}
	.st134{fill:#BBBBBB;}
	.st135{fill:#A03B22;}
	.st136{fill:#C17529;}
	.st137{fill:#F47B2A;}
	.st138{fill:#792816;}
	.st139{fill:#FFF4EC;}
	.st140{fill:#89361C;}
	.st141{fill:#C3AC9E;}
	.st142{fill:#D3C1B9;}
	.st143{fill:#E2E1D5;}
	.st144{fill:#343225;}
	.st145{fill:#040406;}
	.st146{opacity:0.5;fill:#343225;}
	.st147{fill:#4C4333;}
	.st148{fill:#89877B;}
	.st149{fill:url(#SVGID_3_);}
	.st150{fill:url(#SVGID_4_);}
	.st151{opacity:0.5;fill:url(#SVGID_5_);}
	.st152{fill:url(#SVGID_6_);}
	.st153{fill:url(#SVGID_7_);}
	.st154{fill:url(#SVGID_8_);}
	.st155{fill:url(#SVGID_9_);}
	.st156{fill:url(#SVGID_10_);}
	.st157{opacity:0.3;fill:url(#SVGID_11_);}
	.st158{opacity:0.3;fill:url(#SVGID_12_);}
	.st159{fill:url(#SVGID_13_);}
	.st160{fill:url(#SVGID_14_);}
	.st161{fill:url(#SVGID_15_);}
	.st162{fill:url(#SVGID_16_);}
	.st163{fill:url(#SVGID_17_);}
	.st164{fill:url(#SVGID_18_);}
	.st165{opacity:0.7;fill:url(#SVGID_19_);}
	.st166{fill:url(#SVGID_20_);}
	.st167{filter:url(#Adobe_OpacityMaskFilter);}
	.st168{fill:url(#SVGID_22_);}
	.st169{opacity:0.7;mask:url(#SVGID_21_);fill:url(#SVGID_23_);}
	.st170{fill:url(#SVGID_24_);}
	.st171{opacity:0.5;fill:url(#SVGID_25_);}
	.st172{opacity:0.5;fill:url(#SVGID_26_);}
	.st173{opacity:0.3;fill:url(#SVGID_27_);}
	.st174{filter:url(#Adobe_OpacityMaskFilter_1_);}
	.st175{filter:url(#Adobe_OpacityMaskFilter_2_);}
	.st176{mask:url(#SVGID_28_);fill:url(#SVGID_29_);}
	.st177{fill:url(#SVGID_30_);}
	.st178{filter:url(#Adobe_OpacityMaskFilter_3_);}
	.st179{opacity:0.8;fill:url(#SVGID_32_);}
	.st180{mask:url(#SVGID_31_);}
	.st181{filter:url(#Adobe_OpacityMaskFilter_4_);}
	.st182{filter:url(#Adobe_OpacityMaskFilter_5_);}
	.st183{fill:url(#SVGID_33_);}
	.st184{fill:url(#SVGID_34_);}
	.st185{filter:url(#Adobe_OpacityMaskFilter_6_);}
	.st186{filter:url(#Adobe_OpacityMaskFilter_7_);}
	.st187{mask:url(#SVGID_35_);fill:url(#SVGID_36_);}
	.st188{opacity:0.6;fill:url(#SVGID_37_);}
	.st189{opacity:0.9;fill:url(#SVGID_38_);}
	.st190{fill:url(#SVGID_39_);}
	.st191{opacity:0.3;fill:url(#SVGID_40_);}
	.st192{opacity:0.3;fill:url(#SVGID_41_);}
	.st193{opacity:0.8;fill:url(#SVGID_42_);}
	.st194{fill:#F7DDBC;}
	.st195{fill:#D9B48A;}
	.st196{opacity:0.5;fill:#F7DDBC;}
	.st197{opacity:0.3;fill:#DEAA79;}
	.st198{opacity:0.3;fill:#A47348;}
	.st199{opacity:0.5;fill:#DEAA79;}
	.st200{opacity:0.5;fill:#A47348;}
	.st201{opacity:0.3;fill:#BE905C;}
	.st202{fill:#FFEBD7;}
	.st203{opacity:0.3;fill:#DEB485;}
	.st204{opacity:0.3;fill:#8F622F;}
	.st205{opacity:0.2;fill:#BA915C;}
	.st206{opacity:0.2;fill:#BE905C;}
	.st207{opacity:0.3;fill:#D5AD7A;}
	.st208{opacity:0.5;fill:#D5AD7A;}
	.st209{fill:#17ADE4;}
	.st210{fill:#F99B1C;}
	.st211{opacity:0.2;fill:#D59B29;}
	.st212{opacity:0.5;fill:#D59B29;}
	.st213{opacity:0.5;fill:#B8802B;}
	.st214{fill:#FAD00A;}
	.st215{fill:#EEA320;}
	.st216{opacity:0.4;fill:#FAD00A;}
	.st217{opacity:0.7;fill:#FAD00A;}
	.st218{opacity:0.7;fill:#E7C249;}
	.st219{opacity:0.7;fill:#E9B44A;}
	.st220{fill:#3A5728;}
	.st221{opacity:0.3;fill:#3A5728;}
	.st222{opacity:0.5;fill:#3A5728;}
	.st223{opacity:0.3;fill:#6D9D40;}
	.st224{opacity:0.3;fill:#547B38;}
	.st225{fill:#1C2C17;}
	.st226{opacity:0.3;fill:#1A381C;}
	.st227{fill:#152A17;}
	.st228{fill:#F8BC16;}
	.st229{opacity:0.2;fill:#F8BC16;}
	.st230{opacity:0.1;fill:#F8BC16;}
	.st231{opacity:0.3;fill:#E09426;}
	.st232{opacity:0.3;fill:#D98B28;}
	.st233{fill:#CE6F28;}
	.st234{fill:#A65225;}
	.st235{fill:#D88E28;}
	.st236{fill:#BD6728;}
	.st237{fill:#F09F20;}
	.st238{fill:#D37A28;}
	.st239{fill:#A2C83A;}
	.st240{opacity:0.2;fill:#A2C83A;}
	.st241{fill:#ECACCE;}
	.st242{fill:#CB6BAA;}
	.st243{fill:#FACB84;}
	.st244{fill:#F8BA58;}
	.st245{fill:#F3A846;}
	.st246{opacity:0.5;fill:#FACB84;}
	.st247{opacity:0.5;fill:#F8BA58;}
	.st248{fill:#80461D;}
	.st249{opacity:0.7;fill:#ECACCE;}
	.st250{opacity:0.7;fill:#FACB84;}
	.st251{fill:#356531;}
	.st252{opacity:0.2;fill:#356531;}
	.st253{opacity:0.5;fill:#356531;}
	.st254{fill:#508B3F;}
	.st255{fill:#117A3D;}
	.st256{opacity:0.4;fill:#508B3F;}
	.st257{opacity:0.7;fill:#508B3F;}
	.st258{fill:#467135;}
	.st259{opacity:0.2;fill:#467135;}
	.st260{opacity:0.3;fill:#467135;}
	.st261{fill:#203C1C;}
	.st262{fill:#142716;}
	.st263{fill:#325628;}
	.st264{fill:#193019;}
	.st265{fill:#20552A;}
	.st266{opacity:0.5;fill:#508B3F;}
	.st267{opacity:0.5;fill:#A2C83A;}
	.st268{fill:#88171A;}
	.st269{fill:#C02326;}
	.st270{fill:#A61E22;}
	.st271{opacity:0.4;fill:#C02326;}
	.st272{opacity:0.7;fill:#C02326;}
	.st273{opacity:0.2;fill:#A61E22;}
	.st274{opacity:0.3;fill:#A61E22;}
	.st275{fill:#62130C;}
	.st276{fill:#451310;}
	.st277{fill:#791514;}
	.st278{fill:#861719;}
	.st279{fill:#FECF0A;}
	.st280{opacity:0.4;fill:#C6A239;}
	.st281{opacity:0.2;fill:#E4A33A;}
	.st282{opacity:0.3;fill:#B8A137;}
	.st283{opacity:0.3;fill:#FECF0A;}
	.st284{fill:#F5B41A;}
	.st285{opacity:0.6;fill:#CFAE2B;}
	.st286{opacity:0.4;fill:#CFAE2B;}
	.st287{fill:#98772C;}
	.st288{fill:#FFD86D;}
	.st289{fill:#E59F24;}
	.st290{fill:#ECB31F;}
	.st291{fill:#E8B321;}
	.st292{opacity:0.3;fill:#E4A33A;}
	.st293{opacity:0.3;fill:#D48E64;}
	.st294{opacity:0.2;fill:#C6A239;}
	.st295{fill:#FDEB07;stroke:#E0E1E0;stroke-width:0;stroke-linecap:round;stroke-linejoin:round;}
	.st296{fill:#BCBAA3;}
	.st297{fill:#55813B;}
	.st298{fill:#32421B;}
	.st299{opacity:0.3;fill:#517636;}
	.st300{fill:#6E953E;}
	.st301{opacity:0.2;fill:#3A5728;}
	.st302{fill:#42793A;}
	.st303{fill:#F6871F;}
	.st304{opacity:0.2;fill:#E66725;}
	.st305{fill:#D65027;}
	.st306{fill:#CB5727;}
	.st307{opacity:0.2;}
	.st308{fill:#AD6427;}
	.st309{opacity:0.3;fill:#E66725;}
	.st310{opacity:0.5;fill:#DC8127;}
	.st311{fill:#D5D1C5;}
	.st312{fill:#DCB399;}
	.st313{fill:#EAC6AF;}
	.st314{opacity:0.5;fill:#EAC6AF;}
	.st315{opacity:0.5;fill:#E9DEDE;}
	.st316{opacity:0.6;fill:#E9DEDE;}
	.st317{fill:#F7D8C1;}
	.st318{fill:none;}
	.st319{opacity:0.3;fill:#C49374;}
	.st320{fill:#6F903C;}
	.st321{opacity:0.4;fill:#3A5728;}
	.st322{opacity:0.5;fill:#6F903C;}
	.st323{opacity:0.5;fill:#7C963B;}
	.st324{fill:#516A30;}
	.st325{opacity:0.2;fill:#E0E1E0;}
	.st326{opacity:0.2;fill:#C2CACB;}
	.st327{opacity:0.5;fill:#C2CACB;}
	.st328{opacity:0.2;fill:#645C51;}
	.st329{fill:#FAFAFA;}
	.st330{fill:#D6D6D6;}
	.st331{opacity:0.3;fill:#B4C0B2;}
	.st332{fill:#BDBDBD;}
	.st333{fill:#961B1E;}
	.st334{fill:#AF2F24;}
	.st335{fill:#C53127;}
	.st336{fill:#76533F;}
	.st337{fill:#533A2A;}
	.st338{opacity:0.7;fill:#E94466;}
	.st339{fill:#D91F26;}
	.st340{fill:#F6DAB4;}
	.st341{fill:#D2A47F;}
	.st342{fill:#B4B4B4;}
	.st343{fill:#E88B38;}
	.st344{fill:#FBAD47;}
	.st345{fill:#CFB581;}
	.st346{fill:#594D41;}
	.st347{fill:#FDF8F2;}
	.st348{opacity:0.5;fill:#E88B38;}
	.st349{fill:#DDDCD8;}
	.st350{opacity:0.8;fill:#E88B38;}
	.st351{opacity:0.5;fill:#594D41;}
	.st352{fill:#F89A1C;}
	.st353{opacity:0.4;fill:#FDC110;}
	.st354{fill:#FEE600;}
	.st355{fill:#FDC110;}
	.st356{fill:#7CBDE8;}
	.st357{opacity:0.6;fill:#5BB353;}
	.st358{fill:#046CA6;}
	.st359{opacity:0.3;fill:#046CA6;}
	.st360{opacity:0.3;fill:#20ABE3;}
	.st361{fill:#754138;}
	.st362{fill:#6A2116;}
	.st363{fill:#381512;}
</style>

































<g
   id="g4522"
   transform="translate(-697.30751,-419.95526)">
	<path
   class="st361"
   d="m 762.31,502.23 c 0,0 -7.19,-0.14 -7.66,5.22 -0.07,2.85 0.61,3.53 -2.78,4 -3.39,0.47 -9.15,1.63 -7.66,5.22 -4.2,1.15 -7.26,3.32 -2.24,5.22 5.02,1.9 13.63,0.68 17.09,0.34 3.46,-0.34 4,0.27 4.88,1.42 0.88,1.15 4.88,1.76 16.34,2.31 11.46,0.54 21.29,-1.49 17.5,-4.75 -2.58,-1.63 -1.83,-1.56 1.08,-2.03 2.92,-0.47 5.56,-3.53 -10.92,-5.76 0.95,-1.97 -0.68,-2.78 -3.32,-2.44 -2.65,0.33 -10.92,0.74 -22.31,-8.75 z"
   id="path4432"
   inkscape:connector-curvature="0"
   style="fill:#754138" />
	<g
   class="st4"
   id="g4436"
   style="opacity:0.5">
		<path
   class="st361"
   d="m 787.94,513.42 c 0.95,-1.97 -0.68,-2.78 -3.32,-2.44 -2.64,0.34 -10.92,0.75 -22.31,-8.75 0,0 -0.52,-0.01 -1.28,0.08 0.9,2.8 5.31,12.77 22.39,12.31 2.42,-0.15 -9.85,7.2 -26.22,-4.7 -0.99,-0.76 2.96,10.61 26.9,9.32 1.89,-0.3 -1.36,1.44 3.11,2.43 4.47,0.99 2.2,0.91 -2.27,1.29 -4.47,0.38 -6.06,2.05 -11.29,1.59 -5.23,-0.45 -8.03,-0.53 -9.32,-2.2 -1.29,-1.67 -1.44,-1.44 -3.49,-0.76 -0.42,0.14 -0.89,0.36 -1.45,0.61 3.16,-0.27 3.7,0.34 4.55,1.45 0.88,1.15 4.88,1.76 16.34,2.31 11.46,0.54 21.29,-1.49 17.5,-4.75 -2.58,-1.63 -1.83,-1.56 1.08,-2.03 2.91,-0.47 5.56,-3.53 -10.92,-5.76 z"
   id="path4434"
   inkscape:connector-curvature="0"
   style="fill:#754138" />
	</g>
	<g
   id="g4450">
		<path
   class="st361"
   d="m 752.09,519.55 c 0,0.26 -0.29,0.47 -0.66,0.47 -0.36,0 -0.66,-0.21 -0.66,-0.47 0,-0.26 0.3,-0.47 0.66,-0.47 0.37,0 0.66,0.21 0.66,0.47 z"
   id="path4438"
   inkscape:connector-curvature="0"
   style="fill:#754138" />
		<path
   class="st361"
   d="m 757.03,519.18 c 0,0.36 -0.35,0.66 -0.77,0.66 -0.43,0 -0.77,-0.29 -0.77,-0.66 0,-0.36 0.35,-0.66 0.77,-0.66 0.42,0 0.77,0.29 0.77,0.66 z"
   id="path4440"
   inkscape:connector-curvature="0"
   style="fill:#754138" />
		<ellipse
   class="st361"
   cx="776.39001"
   cy="522.21997"
   rx="0.62"
   ry="0.52999997"
   id="ellipse4442"
   style="fill:#754138" />
		<ellipse
   class="st361"
   cx="787.06"
   cy="520.44"
   rx="0.58999997"
   ry="0.52999997"
   id="ellipse4444"
   style="fill:#754138" />
		<path
   class="st361"
   d="m 791.71,520.48 c 0,0.23 -0.21,0.42 -0.46,0.42 -0.26,0 -0.47,-0.19 -0.47,-0.42 0,-0.23 0.21,-0.42 0.47,-0.42 0.25,0 0.46,0.19 0.46,0.42 z"
   id="path4446"
   inkscape:connector-curvature="0"
   style="fill:#754138" />
		<path
   class="st361"
   d="m 795.05,518.33 c 0,0.12 -0.11,0.21 -0.24,0.21 -0.13,0 -0.24,-0.1 -0.24,-0.21 0,-0.12 0.11,-0.21 0.24,-0.21 0.13,-0.01 0.24,0.09 0.24,0.21 z"
   id="path4448"
   inkscape:connector-curvature="0"
   style="fill:#754138" />
	</g>
	<g
   id="g4462">
		<path
   class="st362"
   d="m 752.69,511.4 c 0,0 -0.13,0.14 -0.32,0.42 -0.09,0.14 -0.2,0.31 -0.29,0.53 -0.09,0.21 -0.17,0.47 -0.17,0.74 -0.01,0.28 0.09,0.57 0.3,0.81 0.2,0.24 0.5,0.42 0.82,0.56 0.32,0.14 0.68,0.24 1.05,0.31 0.37,0.08 0.75,0.15 1.13,0.23 0.75,0.16 1.51,0.33 2.22,0.48 0.71,0.15 1.36,0.31 1.93,0.44 0.56,0.15 1.03,0.29 1.35,0.38 0.32,0.09 0.51,0.15 0.51,0.15 0,0 -0.19,-0.04 -0.52,-0.11 -0.33,-0.07 -0.8,-0.17 -1.37,-0.29 -0.57,-0.11 -1.23,-0.23 -1.94,-0.37 -0.71,-0.14 -1.47,-0.3 -2.22,-0.45 -0.38,-0.08 -0.75,-0.16 -1.13,-0.24 -0.38,-0.08 -0.74,-0.19 -1.08,-0.34 -0.34,-0.15 -0.65,-0.36 -0.87,-0.63 -0.23,-0.27 -0.32,-0.62 -0.3,-0.92 0.01,-0.3 0.12,-0.56 0.22,-0.77 0.11,-0.21 0.23,-0.38 0.33,-0.52 0.2,-0.28 0.35,-0.41 0.35,-0.41 z"
   id="path4452"
   inkscape:connector-curvature="0"
   style="fill:#6a2116" />
		<path
   class="st362"
   d="m 757.01,510.42 c 0,0 0.04,0.05 0.14,0.14 0.09,0.09 0.24,0.2 0.42,0.35 0.19,0.14 0.42,0.31 0.7,0.48 0.14,0.09 0.29,0.18 0.44,0.28 0.16,0.09 0.33,0.19 0.5,0.29 0.17,0.1 0.36,0.21 0.55,0.32 0.19,0.1 0.39,0.21 0.6,0.32 0.2,0.11 0.42,0.22 0.63,0.33 0.22,0.11 0.44,0.22 0.67,0.33 0.23,0.11 0.46,0.23 0.69,0.34 0.12,0.06 0.24,0.12 0.35,0.17 0.12,0.05 0.24,0.11 0.36,0.16 0.49,0.21 0.98,0.44 1.48,0.64 0.5,0.18 1.01,0.36 1.51,0.54 0.51,0.14 1.01,0.28 1.5,0.41 0.5,0.09 0.97,0.19 1.43,0.26 0.23,0.02 0.45,0.05 0.67,0.07 0.22,0.02 0.43,0.06 0.63,0.05 0.2,0 0.4,0.01 0.58,0.01 0.18,0 0.36,0.01 0.52,-0.01 0.33,-0.03 0.61,-0.04 0.85,-0.07 0.47,-0.08 0.73,-0.12 0.73,-0.12 0,0 -0.26,0.06 -0.73,0.17 -0.23,0.05 -0.52,0.07 -0.85,0.11 -0.16,0.03 -0.34,0.03 -0.53,0.03 -0.19,0 -0.38,0.01 -0.58,0.01 -0.2,0.01 -0.42,-0.02 -0.63,-0.03 -0.22,-0.02 -0.45,-0.03 -0.68,-0.05 -0.46,-0.06 -0.95,-0.15 -1.45,-0.24 -0.49,-0.13 -1,-0.26 -1.52,-0.4 -0.51,-0.18 -1.02,-0.36 -1.53,-0.54 -0.5,-0.2 -0.99,-0.44 -1.48,-0.65 -0.12,-0.05 -0.24,-0.11 -0.36,-0.16 -0.13,-0.06 -0.24,-0.12 -0.36,-0.18 -0.23,-0.12 -0.46,-0.24 -0.69,-0.35 -0.23,-0.12 -0.45,-0.23 -0.66,-0.34 -0.21,-0.12 -0.42,-0.24 -0.62,-0.35 -0.2,-0.11 -0.4,-0.23 -0.59,-0.34 -0.19,-0.11 -0.37,-0.23 -0.54,-0.33 -0.17,-0.11 -0.34,-0.21 -0.49,-0.31 -0.15,-0.11 -0.3,-0.21 -0.43,-0.3 -0.27,-0.18 -0.49,-0.37 -0.68,-0.52 -0.18,-0.15 -0.32,-0.28 -0.4,-0.37 -0.11,-0.09 -0.15,-0.15 -0.15,-0.15 z"
   id="path4454"
   inkscape:connector-curvature="0"
   style="fill:#6a2116" />
		<path
   class="st362"
   d="m 757.91,506.43 c 0,0 0,0.07 0,0.2 0,0.13 0.01,0.31 0.03,0.53 0.01,0.11 0.02,0.23 0.04,0.35 0.01,0.12 0.04,0.25 0.05,0.39 0.05,0.27 0.1,0.55 0.19,0.82 l 0.06,0.21 c 0.02,0.07 0.05,0.13 0.07,0.2 0.04,0.13 0.1,0.26 0.15,0.39 0.05,0.13 0.11,0.24 0.16,0.35 0.05,0.11 0.11,0.22 0.16,0.31 0.06,0.09 0.1,0.18 0.15,0.26 0.05,0.07 0.09,0.14 0.13,0.19 0.07,0.11 0.11,0.17 0.11,0.17 0,0 -0.05,-0.05 -0.14,-0.14 -0.05,-0.05 -0.1,-0.1 -0.16,-0.17 -0.06,-0.07 -0.12,-0.15 -0.19,-0.24 -0.03,-0.04 -0.07,-0.09 -0.11,-0.14 -0.03,-0.05 -0.06,-0.1 -0.1,-0.16 -0.07,-0.11 -0.14,-0.22 -0.2,-0.35 -0.06,-0.13 -0.13,-0.25 -0.17,-0.39 -0.03,-0.07 -0.05,-0.14 -0.08,-0.21 L 758,508.79 c -0.04,-0.14 -0.07,-0.29 -0.1,-0.43 -0.03,-0.14 -0.04,-0.29 -0.06,-0.43 -0.01,-0.14 -0.02,-0.27 -0.02,-0.4 0,-0.13 0,-0.25 0,-0.36 0.01,-0.22 0.04,-0.4 0.06,-0.53 0.01,-0.13 0.03,-0.21 0.03,-0.21 z"
   id="path4456"
   inkscape:connector-curvature="0"
   style="fill:#6a2116" />
		<path
   class="st362"
   d="m 766.1,517.44 c 0,0 0.42,0.09 1.17,0.26 0.74,0.16 1.81,0.37 3.09,0.61 0.64,0.12 1.33,0.24 2.07,0.36 0.37,0.06 0.75,0.12 1.13,0.17 0.39,0.05 0.78,0.12 1.19,0.16 0.81,0.11 1.64,0.2 2.49,0.26 0.43,0.03 0.85,0.07 1.28,0.07 l 0.65,0.02 c 0.22,0.01 0.43,0 0.65,-0.01 0.22,0 0.43,0 0.65,-0.01 l 0.64,-0.05 c 0.43,-0.02 0.85,-0.1 1.27,-0.16 0.84,-0.14 1.65,-0.33 2.43,-0.56 0.78,-0.23 1.51,-0.5 2.19,-0.81 0.67,-0.31 1.29,-0.66 1.78,-1.07 0.25,-0.2 0.46,-0.43 0.62,-0.67 0.16,-0.24 0.26,-0.5 0.26,-0.76 0,-0.26 -0.09,-0.49 -0.2,-0.68 -0.07,-0.09 -0.13,-0.18 -0.2,-0.26 -0.07,-0.07 -0.14,-0.15 -0.21,-0.21 -0.15,-0.12 -0.28,-0.23 -0.4,-0.3 -0.12,-0.08 -0.23,-0.15 -0.32,-0.2 -0.18,-0.1 -0.27,-0.15 -0.27,-0.15 0,0 0.1,0.05 0.28,0.14 0.09,0.04 0.2,0.11 0.33,0.18 0.13,0.07 0.26,0.18 0.42,0.29 0.07,0.06 0.14,0.13 0.22,0.21 0.07,0.08 0.14,0.17 0.21,0.26 0.12,0.2 0.23,0.44 0.24,0.71 0.01,0.28 -0.1,0.56 -0.26,0.82 -0.16,0.26 -0.38,0.5 -0.63,0.71 -0.5,0.43 -1.12,0.8 -1.79,1.13 -0.68,0.32 -1.42,0.61 -2.2,0.85 -0.78,0.24 -1.61,0.44 -2.45,0.58 -0.43,0.07 -0.85,0.14 -1.29,0.17 l -0.65,0.05 c -0.22,0.01 -0.44,0.01 -0.65,0.01 -0.22,0 -0.44,0.01 -0.65,0 l -0.65,-0.02 c -0.43,-0.01 -0.86,-0.05 -1.29,-0.08 -0.85,-0.07 -1.69,-0.17 -2.5,-0.28 -0.4,-0.05 -0.8,-0.11 -1.19,-0.18 -0.39,-0.06 -0.77,-0.13 -1.13,-0.19 -0.74,-0.13 -1.43,-0.27 -2.07,-0.39 -0.64,-0.13 -1.22,-0.26 -1.74,-0.38 -0.52,-0.12 -0.96,-0.23 -1.33,-0.32 -0.78,-0.16 -1.19,-0.28 -1.19,-0.28 z"
   id="path4458"
   inkscape:connector-curvature="0"
   style="fill:#6a2116" />
		<path
   class="st362"
   d="m 787.75,513.52 c 0,0 0,0.02 -0.01,0.05 -0.01,0.03 -0.03,0.08 -0.06,0.15 -0.03,0.06 -0.08,0.13 -0.12,0.21 -0.04,0.09 -0.12,0.17 -0.19,0.26 -0.08,0.09 -0.15,0.19 -0.26,0.28 -0.1,0.09 -0.21,0.18 -0.32,0.28 -0.11,0.1 -0.24,0.18 -0.36,0.27 -0.13,0.09 -0.26,0.17 -0.39,0.26 -0.13,0.08 -0.27,0.15 -0.41,0.22 -0.13,0.07 -0.27,0.14 -0.4,0.2 -0.07,0.03 -0.13,0.06 -0.19,0.1 -0.06,0.03 -0.13,0.05 -0.19,0.07 -0.12,0.05 -0.24,0.09 -0.35,0.13 -0.22,0.08 -0.4,0.14 -0.53,0.19 -0.13,0.04 -0.2,0.06 -0.2,0.06 0,0 0.07,-0.04 0.19,-0.11 0.12,-0.06 0.29,-0.16 0.49,-0.26 0.1,-0.05 0.21,-0.11 0.33,-0.17 0.06,-0.03 0.12,-0.06 0.18,-0.09 0.06,-0.03 0.12,-0.07 0.18,-0.11 0.12,-0.07 0.25,-0.15 0.38,-0.22 0.13,-0.07 0.27,-0.14 0.4,-0.22 0.13,-0.08 0.25,-0.16 0.38,-0.25 0.12,-0.09 0.26,-0.15 0.37,-0.24 0.11,-0.09 0.22,-0.17 0.33,-0.25 0.11,-0.07 0.19,-0.16 0.28,-0.24 0.08,-0.08 0.17,-0.14 0.22,-0.22 0.06,-0.07 0.12,-0.13 0.15,-0.19 0.04,-0.06 0.06,-0.1 0.08,-0.13 0.01,-0.01 0.02,-0.03 0.02,-0.03 z"
   id="path4460"
   inkscape:connector-curvature="0"
   style="fill:#6a2116" />
	</g>
	<g
   id="g4466">
		<path
   class="st361"
   d="m 787.94,513.42 c 0.95,-1.97 -0.68,-2.78 -3.32,-2.44 -2.64,0.34 -10.92,0.75 -22.31,-8.75 0,0 -0.39,-0.01 -0.98,0.05 2.11,3.17 8.87,11.1 23.02,10.05 2.33,-0.23 4.06,1.49 -0.38,3.82 3.51,-1.2 5.84,0.33 0.67,2.55 0,0 2.69,0.56 4.83,-1.19 1.88,-1.53 3.3,-2.1 6.25,-1.48 2.96,0.63 3.3,1.71 0.46,2.27 -2.84,0.57 -3.64,1.25 -1.14,2.39 2.5,1.14 0.34,3.64 -6.25,3.75 -6.06,0.1 -6.12,1.26 -13.84,1.23 1.57,0.1 3.34,0.2 5.35,0.29 11.46,0.54 21.29,-1.49 17.5,-4.75 -2.58,-1.63 -1.83,-1.56 1.08,-2.03 2.89,-0.47 5.54,-3.53 -10.94,-5.76 z"
   id="path4464"
   inkscape:connector-curvature="0"
   style="fill:#754138" />
	</g>
	<g
   id="g4470">
		<path
   class="st243"
   d="m 762.68,500.03 c 0,0 -1.32,-0.94 -1.55,0.42 -0.23,1.36 1.44,3.49 6.97,7.05 7.97,5.25 17.36,4.77 17.43,3.71 0.06,-0.83 -0.77,-0.87 -1.13,-0.85 -0.05,0 -0.11,0.01 -0.16,0.02 -14.24,0.38 -21.56,-10.35 -21.56,-10.35 z"
   id="path4468"
   inkscape:connector-curvature="0"
   style="fill:#facb84" />
	</g>
	<g
   class="st4"
   id="g4474"
   style="opacity:0.5">
		<path
   class="st244"
   d="m 784.41,510.36 c -0.05,0 -0.11,0.01 -0.16,0.02 -3.25,0.09 -6.13,-0.41 -8.66,-1.21 0.36,0.62 0.68,1.28 0.91,1.96 4.98,1.23 8.99,0.78 9.03,0.09 0.07,-0.84 -0.76,-0.88 -1.12,-0.86 z"
   id="path4472"
   inkscape:connector-curvature="0"
   style="fill:#f8ba58" />
	</g>
	<g
   id="g4482">
		<path
   class="st244"
   d="m 768.91,492.41 c -3.66,4.43 -6.23,7.62 -6.23,7.62 0,0 7.32,10.73 21.57,10.35 0,0 0.95,-3.26 2.31,-7.94 -10.69,-0.15 -16.37,-8.02 -17.65,-10.03 z"
   id="path4476"
   inkscape:connector-curvature="0"
   style="fill:#f8ba58" />
		<path
   class="st243"
   d="m 797.93,460.02 c -0.67,-0.27 -3.35,3.08 -9.78,10.19 -5.08,5.28 -12.86,14.49 -18.48,21.28 1.64,2.24 7.71,9.54 17.27,9.65 3,-10.31 7.61,-26.11 8.9,-30.55 1.97,-6.75 2.76,-10.3 2.09,-10.57 z"
   id="path4478"
   inkscape:connector-curvature="0"
   style="fill:#facb84" />
		<path
   class="st245"
   d="m 769.67,491.49 c -0.26,0.31 -0.51,0.62 -0.76,0.92 1.28,2.01 6.95,9.88 17.65,10.03 0.12,-0.42 0.25,-0.85 0.38,-1.3 -9.55,-0.12 -15.63,-7.42 -17.27,-9.65 z"
   id="path4480"
   inkscape:connector-curvature="0"
   style="fill:#f3a846" />
	</g>
	<path
   class="st246"
   d="m 795.4,465.82 c -0.54,0.52 -1.1,1.03 -1.67,1.52 -0.13,-0.52 -0.26,-1.04 -0.38,-1.56 -0.02,-0.1 -0.18,-0.02 -0.16,0.07 0.11,0.55 0.24,1.1 0.37,1.65 -1.1,0.94 -2.23,1.84 -3.35,2.76 -0.11,-0.41 -0.23,-0.82 -0.36,-1.23 -0.03,-0.08 -0.16,0.02 -0.14,0.09 0.11,0.43 0.22,0.86 0.32,1.29 -0.04,0.03 -0.08,0.07 -0.12,0.1 -1.33,1.11 -2.69,2.2 -4.07,3.26 -0.01,-0.16 -0.01,-0.32 -0.02,-0.48 0,-0.07 -0.1,-0.01 -0.1,0.04 -0.01,0.18 -0.02,0.36 -0.02,0.54 -0.69,0.52 -1.38,1.04 -2.09,1.54 -0.12,0.09 -0.07,0.28 0.08,0.18 0.68,-0.47 1.35,-0.96 2.02,-1.45 0.02,1 0.17,2.01 0.37,3.03 -1.41,1.04 -2.83,2.08 -4.25,3.12 -0.09,-0.57 -0.16,-1.14 -0.2,-1.71 -0.01,-0.11 -0.18,-0.02 -0.17,0.07 0.04,0.59 0.11,1.18 0.2,1.77 -1.27,0.92 -2.53,1.84 -3.79,2.77 -0.05,-0.28 -0.09,-0.55 -0.15,-0.83 -0.02,-0.1 -0.17,-0.02 -0.16,0.06 0.05,0.3 0.1,0.59 0.14,0.89 -0.07,0.05 -0.13,0.1 -0.2,0.14 -0.11,0.08 -0.07,0.27 0.07,0.17 0.05,-0.04 0.1,-0.07 0.15,-0.11 0.13,1.02 0.22,2.05 0.43,3.06 0.08,0.37 0.17,0.74 0.26,1.11 -1.26,0.85 -2.52,1.69 -3.79,2.52 -0.25,-1.25 -0.37,-2.5 -0.57,-3.77 -0.02,-0.13 -0.22,-0.02 -0.21,0.08 0.18,1.29 0.3,2.57 0.54,3.84 -0.25,0.16 -0.51,0.33 -0.76,0.5 -0.14,0.09 -0.08,0.3 0.08,0.2 0.24,-0.15 0.48,-0.31 0.72,-0.46 0.05,0.23 0.09,0.46 0.15,0.69 0.19,0.81 0.44,1.6 0.73,2.38 -0.82,0.45 -1.64,0.89 -2.47,1.31 0.04,0.05 0.09,0.1 0.13,0.15 0.81,-0.4 1.61,-0.82 2.42,-1.25 0.29,0.78 0.62,1.55 0.98,2.31 0.06,0.13 0.27,-0.03 0.23,-0.15 -0.33,-0.77 -0.63,-1.54 -0.92,-2.32 1.27,-0.69 2.54,-1.42 3.78,-2.18 0.36,1.36 0.71,2.75 1.12,4.11 -0.74,0.44 -1.48,0.87 -2.24,1.28 -0.1,0.06 -0.09,0.26 0.04,0.19 0.77,-0.39 1.52,-0.82 2.26,-1.26 0.41,1.34 0.89,2.64 1.52,3.87 0.07,0.14 0.3,-0.04 0.25,-0.16 -0.07,-0.16 -0.14,-0.32 -0.21,-0.48 1.34,-0.7 2.67,-1.5 3.91,-2.41 0.23,0.65 0.46,1.29 0.71,1.92 0.05,0.13 0.28,-0.03 0.24,-0.15 -0.23,-0.66 -0.45,-1.32 -0.67,-1.98 0.59,-0.45 1.16,-0.93 1.68,-1.44 0.12,-0.12 -0.01,-0.25 -0.13,-0.13 -0.51,0.48 -1.06,0.93 -1.62,1.35 -0.37,-1.15 -0.73,-2.3 -1.07,-3.45 1.59,-1.12 3.26,-2.26 4.56,-3.69 0.09,-0.1 -0.01,-0.21 -0.1,-0.11 -1.3,1.39 -2.94,2.49 -4.51,3.59 -0.38,-1.28 -0.76,-2.56 -1.15,-3.84 -0.02,-0.05 -0.03,-0.11 -0.05,-0.16 1.44,-1.01 2.84,-2.05 4.2,-3.14 0.26,0.81 0.55,1.61 0.85,2.39 0.05,0.13 0.25,-0.03 0.22,-0.14 -0.27,-0.82 -0.55,-1.63 -0.81,-2.45 0.67,-0.54 1.33,-1.09 1.98,-1.65 0.13,-0.11 -0.01,-0.25 -0.13,-0.14 -0.63,0.53 -1.27,1.06 -1.92,1.58 -0.37,-1.16 -0.72,-2.34 -1.01,-3.52 1.52,-1.18 3.01,-2.38 4.48,-3.62 0,0 0,0.01 0,0.02 0.04,0.12 0.23,-0.03 0.2,-0.13 0,-0.02 -0.01,-0.03 -0.01,-0.05 0.32,-0.27 0.64,-0.54 0.95,-0.81 0.11,-0.09 0,-0.21 -0.11,-0.12 -0.29,0.25 -0.59,0.49 -0.89,0.73 -0.31,-1.26 -0.59,-2.53 -0.88,-3.81 0.42,-0.3 0.84,-0.6 1.26,-0.88 0.65,-0.44 1.54,-0.97 2.21,-1.59 0.04,0.09 0.21,-0.04 0.19,-0.14 0,-0.01 -0.01,-0.02 -0.01,-0.03 0.2,-0.2 0.38,-0.41 0.51,-0.63 0.07,-0.12 -0.07,-0.16 -0.14,-0.06 -0.11,0.15 -0.26,0.3 -0.43,0.45 -0.28,-1.1 -0.59,-2.19 -0.87,-3.29 0.6,-0.52 1.18,-1.06 1.74,-1.61 0.07,-0.1 -0.05,-0.23 -0.17,-0.12 z m -9.55,8.21 c 1.32,-0.99 2.61,-2.03 3.88,-3.08 0.12,-0.1 0.23,-0.19 0.35,-0.29 0.23,1.01 0.45,2.03 0.67,3.05 -1.35,1 -2.7,2 -4.05,3 -0.14,0.1 -0.27,0.2 -0.41,0.3 -0.21,-0.99 -0.37,-1.99 -0.44,-2.98 z m 0.27,3.4 c 0.24,1.17 0.55,2.33 0.78,3.43 0.04,0.2 0.09,0.4 0.14,0.61 -1.4,1.07 -2.83,2.13 -4.26,3.16 -0.37,-1.35 -0.69,-2.72 -0.92,-4.08 1.42,-1.03 2.84,-2.07 4.26,-3.12 z m -8.25,5.97 c 1.27,-0.9 2.54,-1.8 3.8,-2.72 0.22,1.37 0.54,2.74 0.9,4.09 -1.3,0.93 -2.61,1.85 -3.94,2.76 -0.06,-0.22 -0.12,-0.43 -0.17,-0.65 -0.3,-1.14 -0.41,-2.32 -0.59,-3.48 z m -2.31,10.12 c -0.24,-0.66 -0.46,-1.32 -0.66,-2 -0.1,-0.35 -0.19,-0.71 -0.26,-1.06 1.27,-0.82 2.54,-1.66 3.8,-2.51 0.25,0.98 0.53,1.95 0.79,2.92 0.04,0.15 0.08,0.29 0.12,0.44 -1.24,0.77 -2.51,1.5 -3.79,2.21 z m 3.14,-5.74 c 1.32,-0.9 2.64,-1.81 3.94,-2.75 0.28,1.04 0.57,2.08 0.85,3.09 0.04,0.14 0.08,0.29 0.12,0.43 -1.31,0.9 -2.64,1.77 -3.99,2.6 -0.32,-1.12 -0.62,-2.24 -0.92,-3.37 z m 7.29,8.7 c -1.25,0.9 -2.59,1.68 -3.92,2.42 -0.45,-1.05 -0.82,-2.12 -1.15,-3.2 1.22,-0.74 2.4,-1.54 3.56,-2.36 0.14,-0.1 0.27,-0.19 0.41,-0.29 0.34,1.15 0.71,2.3 1.1,3.43 z m -1.17,-3.64 c -0.14,0.1 -0.29,0.2 -0.43,0.3 -1.15,0.82 -2.33,1.61 -3.54,2.35 -0.4,-1.3 -0.75,-2.61 -1.12,-3.92 -0.02,-0.06 -0.03,-0.11 -0.05,-0.17 1.35,-0.83 2.68,-1.7 3.99,-2.61 0.38,1.35 0.75,2.7 1.15,4.05 z m 3.26,-7.58 c -1.36,1.08 -2.77,2.12 -4.21,3.12 -0.35,-1.14 -0.7,-2.31 -1.03,-3.49 1.43,-1.03 2.85,-2.09 4.25,-3.17 0.28,1.18 0.61,2.37 0.99,3.54 z m 3.66,-7.53 c -1.47,1.22 -2.96,2.41 -4.48,3.57 -0.04,-0.17 -0.08,-0.35 -0.12,-0.53 -0.26,-1.15 -0.55,-2.32 -0.8,-3.5 0.38,-0.28 0.77,-0.57 1.15,-0.85 1.1,-0.82 2.2,-1.66 3.31,-2.47 0.28,1.26 0.57,2.53 0.94,3.78 z m 2.73,-6.71 c -0.35,0.29 -0.74,0.56 -1,0.76 -0.7,0.55 -1.48,1 -2.19,1.53 l -0.26,0.2 c -0.23,-1.01 -0.47,-2.02 -0.74,-3.02 1.11,-0.92 2.24,-1.83 3.34,-2.78 0.27,1.11 0.56,2.21 0.85,3.31 z"
   id="path4484"
   inkscape:connector-curvature="0"
   style="opacity:0.5;fill:#facb84" />
	<g
   id="g4488">
		<path
   class="st247"
   d="m 797.93,460.02 c -0.36,-0.15 -1.33,0.78 -3.16,2.8 l 0.16,-0.04 c 4.24,-3.79 -12.58,36.38 -13.79,39.87 -1.21,3.49 -1.21,6.67 -4.85,5.61 -7.5,-2.54 -11.55,-6.67 -13.2,-8.74 -0.27,0.33 -0.42,0.52 -0.42,0.52 0,0 7.32,10.73 21.57,10.35 0,0 0.95,-3.26 2.31,-7.94 0.12,-0.42 0.25,-0.85 0.38,-1.3 3,-10.31 7.61,-26.11 8.9,-30.55 1.98,-6.76 2.77,-10.31 2.1,-10.58 z"
   id="path4486"
   inkscape:connector-curvature="0"
   style="opacity:0.5;fill:#f8ba58" />
	</g>
	<g
   id="g4496">
		<path
   class="st363"
   d="m 761.67,507.13 c 0,0 1.52,1.77 -0.19,1.9 -1.71,0.13 -1.71,-0.19 -1.14,-1.39 0.57,-1.21 0.95,-0.89 1.33,-0.51 z"
   id="path4490"
   inkscape:connector-curvature="0"
   style="fill:#381512" />
		<path
   class="st363"
   d="m 769.47,511.94 c 0,0.32 -0.33,0.57 -0.73,0.57 -0.4,0 -0.73,-0.26 -0.73,-0.57 0,-0.32 0.33,-0.57 0.73,-0.57 0.4,0 0.73,0.26 0.73,0.57 z"
   id="path4492"
   inkscape:connector-curvature="0"
   style="fill:#381512" />
		<path
   class="st363"
   d="m 777.89,514.54 c 0,0 0.89,-0.89 1.33,-0.63 0.44,0.25 -0.19,1.46 -0.63,1.2 -0.44,-0.25 -0.95,-0.32 -0.7,-0.57 z"
   id="path4494"
   inkscape:connector-curvature="0"
   style="fill:#381512" />
	</g>
	<path
   class="st361"
   d="m 760.12,524.74 c 0,0.61 -1.84,1.1 -4.12,1.1 -2.27,0 -4.12,-0.49 -4.12,-1.1 0,-0.61 1.84,-1.1 4.12,-1.1 2.27,0 4.12,0.5 4.12,1.1 z"
   id="path4498"
   inkscape:connector-curvature="0"
   style="fill:#754138" />
	<g
   class="st30"
   id="g4502"
   style="opacity:0.7">
		<path
   class="st361"
   d="m 758.66,524.63 c 0,0.47 -1.43,0.86 -3.19,0.86 -1.76,0 -3.19,-0.38 -3.19,-0.86 0,-0.47 1.43,-0.86 3.19,-0.86 1.76,0.01 3.19,0.39 3.19,0.86 z"
   id="path4500"
   inkscape:connector-curvature="0"
   style="fill:#754138" />
	</g>
	<path
   class="st361"
   d="m 803.23,522.19 c 0,0.57 -0.93,1.03 -2.08,1.03 -1.15,0 -2.08,-0.46 -2.08,-1.03 0,-0.57 0.93,-1.03 2.08,-1.03 1.15,0 2.08,0.46 2.08,1.03 z"
   id="path4504"
   inkscape:connector-curvature="0"
   style="fill:#754138" />
	<g
   id="g4508">
		<path
   class="st361"
   d="m 803.23,522.19 c 0,0.57 -0.93,1.03 -2.08,1.03 -1.15,0 -2.08,-0.46 -2.08,-1.03 0,-0.57 0.93,-1.03 2.08,-1.03 1.15,0 2.08,0.46 2.08,1.03 z"
   id="path4506"
   inkscape:connector-curvature="0"
   style="fill:#754138" />
	</g>
	<path
   class="st250"
   d="m 775.58,489.49 c 0.36,0.27 0.74,0.53 1.12,0.77 1.16,-1.71 2.5,-3.62 4.06,-5.73 10.46,-14.1 15.57,-22.05 13.07,-19.55 0,0 -11.36,12.68 -20.19,22.81 0.62,0.61 1.25,1.19 1.94,1.7 z"
   id="path4510"
   inkscape:connector-curvature="0"
   style="opacity:0.7;fill:#facb84" />
	<path
   class="st250"
   d="m 774.02,491.1 c -0.63,-0.53 -1.22,-1.1 -1.8,-1.68 -0.03,0.04 -0.06,0.07 -0.1,0.11 -6.82,7.96 -7.73,10.35 -7.73,10.35 l 5.23,3.75 c 0,0 0.43,-3.15 5.83,-11.49 -0.5,-0.32 -0.98,-0.66 -1.43,-1.04 z"
   id="path4512"
   inkscape:connector-curvature="0"
   style="opacity:0.7;fill:#facb84" />
	<g
   class="st30"
   id="g4516"
   style="opacity:0.7">
		<path
   class="st361"
   d="m 759.51,503.21 c 0,0 -4.27,1.45 -0.69,6.96 0.88,1.45 -1.44,-0.1 -2.6,-1.55 -1.16,-1.45 -1.35,5.14 5.76,7.07 1.62,1.22 -2.58,-0.1 -5,-0.73 -2.41,-0.63 -5.35,-1.78 -3.6,-2.98 1.74,-1.21 1.82,-2.02 1.55,-3.54 -0.26,-1.52 0.17,-4.92 4.58,-5.23 z"
   id="path4514"
   inkscape:connector-curvature="0"
   style="fill:#754138" />
	</g>
	<g
   class="st30"
   id="g4520"
   style="opacity:0.7">
		<path
   class="st361"
   d="m 750.68,512.36 c 0,0 -7.85,0.74 -4.83,4.36 2.01,1.81 -2.82,0 -4.63,2.75 -1.81,2.75 10.29,3.11 18.11,1.54 7.26,-1.45 4.9,-3.09 -2.08,-2.88 -6.98,0.2 -11.74,-2.61 -6.57,-5.77 z"
   id="path4518"
   inkscape:connector-curvature="0"
   style="fill:#754138" />
	</g>
</g>
</svg>