<?xml version="1.0" encoding="UTF-8" standalone="no"?>
<!-- Generator: Adobe Illustrator 23.1.0, SVG Export Plug-In . SVG Version: 6.00 Build 0)  -->

<svg
   xmlns:dc="http://purl.org/dc/elements/1.1/"
   xmlns:cc="http://creativecommons.org/ns#"
   xmlns:rdf="http://www.w3.org/1999/02/22-rdf-syntax-ns#"
   xmlns:svg="http://www.w3.org/2000/svg"
   xmlns="http://www.w3.org/2000/svg"
   xmlns:sodipodi="http://sodipodi.sourceforge.net/DTD/sodipodi-0.dtd"
   xmlns:inkscape="http://www.inkscape.org/namespaces/inkscape"
   version="1.1"
   id="Layer_1"
   x="0px"
   y="0px"
   viewBox="0 0 151.1811 151.18109"
   xml:space="preserve"
   sodipodi:docname="2.3.2.svg"
   width="40mm"
   height="40mm"
   inkscape:version="0.92.4 (5da689c313, 2019-01-14)"><metadata
   id="metadata4529"><rdf:RDF><cc:Work
       rdf:about=""><dc:format>image/svg+xml</dc:format><dc:type
         rdf:resource="http://purl.org/dc/dcmitype/StillImage" /><dc:title></dc:title></cc:Work></rdf:RDF></metadata><defs
   id="defs4527" /><sodipodi:namedview
   pagecolor="#ffffff"
   bordercolor="#666666"
   borderopacity="1"
   objecttolerance="10"
   gridtolerance="10"
   guidetolerance="10"
   inkscape:pageopacity="0"
   inkscape:pageshadow="2"
   inkscape:window-width="1024"
   inkscape:window-height="709"
   id="namedview4525"
   showgrid="false"
   units="mm"
   inkscape:zoom="1.1213358"
   inkscape:cx="191.24071"
   inkscape:cy="52.633534"
   inkscape:window-x="0"
   inkscape:window-y="30"
   inkscape:window-maximized="1"
   inkscape:current-layer="Layer_1" />
<style
   type="text/css"
   id="style2">
	.st0{fill:#67A8DB;}
	.st1{opacity:0.4;fill:#327CC0;}
	.st2{fill:#5299D3;}
	.st3{opacity:0.4;fill:#67A8DB;}
	.st4{opacity:0.5;}
	.st5{fill:#5CA1D7;}
	.st6{opacity:0.6;fill:#93C2E8;}
	.st7{opacity:0.6;fill:#67A8DB;}
	.st8{fill:#E76362;}
	.st9{opacity:0.4;fill:#D02527;}
	.st10{fill:#E14949;}
	.st11{opacity:0.4;fill:#E76362;}
	.st12{fill:#E45556;}
	.st13{opacity:0.6;fill:#EF9292;}
	.st14{opacity:0.6;fill:#E76362;}
	.st15{opacity:0.5;fill:#D2EEF9;}
	.st16{opacity:0.4;fill:#0099B0;}
	.st17{fill:#D0D1D1;}
	.st18{opacity:0.4;fill:#036BB1;}
	.st19{opacity:0.5;fill:#B5CCD7;}
	.st20{fill:#ACC1CB;}
	.st21{fill:#FFFFFF;}
	.st22{fill:#DFEFE7;}
	.st23{opacity:0.9;fill:#7ED0E0;}
	.st24{opacity:0.9;fill:#62C2CB;}
	.st25{opacity:0.9;fill:#41B3BF;}
	.st26{fill:#B1C8BC;}
	.st27{fill:#E21E26;}
	.st28{fill:#C1C0C0;}
	.st29{fill:#FCCE08;}
	.st30{opacity:0.7;}
	.st31{fill:#C8C7C6;}
	.st32{opacity:0.9;}
	.st33{fill:#41B3BF;}
	.st34{fill:#E75524;}
	.st35{fill:#62BE6B;}
	.st36{opacity:0.7;fill:#A6A6A6;}
	.st37{opacity:0.3;fill:#5BB353;}
	.st38{fill:#D1D1D1;}
	.st39{fill:#5BB353;}
	.st40{fill:#EDEDED;}
	.st41{fill:#DBDBDB;}
	.st42{fill:#F7F7F7;}
	.st43{fill:#E0E0E0;}
	.st44{fill:#EBEBEB;}
	.st45{fill:#811E18;}
	.st46{fill:#BC2025;}
	.st47{fill:#EB2024;}
	.st48{opacity:0.7;fill:#93CACB;}
	.st49{opacity:0.4;}
	.st50{fill:#919898;}
	.st51{fill:#C2CACB;}
	.st52{opacity:0.4;fill:#82C7DE;}
	.st53{opacity:0.8;fill:#FFFFFF;}
	.st54{opacity:0.5;fill:#FFFFFF;}
	.st55{fill:#FABE79;}
	.st56{fill:#F6AB62;}
	.st57{opacity:0.6;fill:#AE7B47;}
	.st58{fill:#B48049;}
	.st59{fill:#9B703F;}
	.st60{opacity:0.3;fill:#AE7B47;}
	.st61{opacity:0.3;}
	.st62{fill:#9C703E;}
	.st63{opacity:0.3;fill:#9B703F;}
	.st64{opacity:0.5;fill:#F6AB62;}
	.st65{opacity:0.4;fill:#FABE79;}
	.st66{fill:#DBDADA;}
	.st67{opacity:0.4;fill:#B2B4B7;}
	.st68{opacity:0.2;fill:#C1C1B7;}
	.st69{fill:#C2C2C2;}
	.st70{opacity:0.5;fill:#C2C2C2;}
	.st71{fill:#E5E1C6;}
	.st72{opacity:0.5;fill:#D4D1B8;}
	.st73{fill:#E3E3E3;}
	.st74{opacity:0.8;fill:#D4D1B8;}
	.st75{fill:#D4D1B8;}
	.st76{opacity:0.5;fill:#D0B9AD;}
	.st77{opacity:0.4;fill:#D4D1B8;}
	.st78{fill:#D2D1CE;}
	.st79{opacity:0.4;fill:#D2D1CE;}
	.st80{opacity:0.4;fill:#C2C2C2;}
	.st81{fill:#BFC1B8;}
	.st82{fill:#CB484F;}
	.st83{fill:#A7A9A0;}
	.st84{fill:#C3979C;}
	.st85{fill:#C7B88F;}
	.st86{fill:#9ACACB;}
	.st87{fill:#A8A8AB;}
	.st88{opacity:0.6;fill:#BE9C7A;}
	.st89{fill:#A4A391;}
	.st90{opacity:0.6;fill:#C2C2C2;}
	.st91{fill:#789D99;}
	.st92{opacity:0.4;fill:#789D99;}
	.st93{fill:#D1CEB6;}
	.st94{fill:#B8B6A1;}
	.st95{fill:#BAB8A3;}
	.st96{fill:#ABAA97;}
	.st97{fill:#E4E4E2;}
	.st98{opacity:0.6;}
	.st99{fill:#BEA18D;}
	.st100{opacity:0.3;fill:#BEA18D;}
	.st101{opacity:0.2;fill:#BEA18D;}
	.st102{fill:#D9BDA6;}
	.st103{fill:#CCAD93;}
	.st104{fill:#603412;}
	.st105{opacity:0.5;fill:#93816B;}
	.st106{opacity:0.4;fill:#331C0F;}
	.st107{fill:#93816B;}
	.st108{fill:#331C0F;}
	.st109{opacity:0.5;fill:#FFF7EA;}
	.st110{fill:#3F2612;}
	.st111{fill:#D62839;}
	.st112{fill:#F9AE9C;}
	.st113{fill:#4B632D;}
	.st114{opacity:0.5;fill:#86926B;}
	.st115{opacity:0.4;fill:#2E3618;}
	.st116{fill:#86926B;}
	.st117{fill:#2E3618;}
	.st118{opacity:0.5;fill:#F7F9E8;}
	.st119{fill:#34411B;}
	.st120{fill:#D59829;}
	.st121{fill:#FAF39E;}
	.st122{fill:#242424;}
	.st123{fill:#333232;}
	.st124{fill:#5D5D5D;}
	.st125{fill:#161616;}
	.st126{fill:#B3B3B3;}
	.st127{fill:#1A1A1A;}
	.st128{fill:#48893F;}
	.st129{fill:#FBAE1C;}
	.st130{fill:#759C3F;}
	.st131{fill:#56692F;}
	.st132{fill:#CAD631;}
	.st133{opacity:0.7;fill:#A66227;}
	.st134{fill:#BBBBBB;}
	.st135{fill:#A03B22;}
	.st136{fill:#C17529;}
	.st137{fill:#F47B2A;}
	.st138{fill:#792816;}
	.st139{fill:#FFF4EC;}
	.st140{fill:#89361C;}
	.st141{fill:#C3AC9E;}
	.st142{fill:#D3C1B9;}
	.st143{fill:#E2E1D5;}
	.st144{fill:#343225;}
	.st145{fill:#040406;}
	.st146{opacity:0.5;fill:#343225;}
	.st147{fill:#4C4333;}
	.st148{fill:#89877B;}
	.st149{fill:url(#SVGID_3_);}
	.st150{fill:url(#SVGID_4_);}
	.st151{opacity:0.5;fill:url(#SVGID_5_);}
	.st152{fill:url(#SVGID_6_);}
	.st153{fill:url(#SVGID_7_);}
	.st154{fill:url(#SVGID_8_);}
	.st155{fill:url(#SVGID_9_);}
	.st156{fill:url(#SVGID_10_);}
	.st157{opacity:0.3;fill:url(#SVGID_11_);}
	.st158{opacity:0.3;fill:url(#SVGID_12_);}
	.st159{fill:url(#SVGID_13_);}
	.st160{fill:url(#SVGID_14_);}
	.st161{fill:url(#SVGID_15_);}
	.st162{fill:url(#SVGID_16_);}
	.st163{fill:url(#SVGID_17_);}
	.st164{fill:url(#SVGID_18_);}
	.st165{opacity:0.7;fill:url(#SVGID_19_);}
	.st166{fill:url(#SVGID_20_);}
	.st167{filter:url(#Adobe_OpacityMaskFilter);}
	.st168{fill:url(#SVGID_22_);}
	.st169{opacity:0.7;mask:url(#SVGID_21_);fill:url(#SVGID_23_);}
	.st170{fill:url(#SVGID_24_);}
	.st171{opacity:0.5;fill:url(#SVGID_25_);}
	.st172{opacity:0.5;fill:url(#SVGID_26_);}
	.st173{opacity:0.3;fill:url(#SVGID_27_);}
	.st174{filter:url(#Adobe_OpacityMaskFilter_1_);}
	.st175{filter:url(#Adobe_OpacityMaskFilter_2_);}
	.st176{mask:url(#SVGID_28_);fill:url(#SVGID_29_);}
	.st177{fill:url(#SVGID_30_);}
	.st178{filter:url(#Adobe_OpacityMaskFilter_3_);}
	.st179{opacity:0.8;fill:url(#SVGID_32_);}
	.st180{mask:url(#SVGID_31_);}
	.st181{filter:url(#Adobe_OpacityMaskFilter_4_);}
	.st182{filter:url(#Adobe_OpacityMaskFilter_5_);}
	.st183{fill:url(#SVGID_33_);}
	.st184{fill:url(#SVGID_34_);}
	.st185{filter:url(#Adobe_OpacityMaskFilter_6_);}
	.st186{filter:url(#Adobe_OpacityMaskFilter_7_);}
	.st187{mask:url(#SVGID_35_);fill:url(#SVGID_36_);}
	.st188{opacity:0.6;fill:url(#SVGID_37_);}
	.st189{opacity:0.9;fill:url(#SVGID_38_);}
	.st190{fill:url(#SVGID_39_);}
	.st191{opacity:0.3;fill:url(#SVGID_40_);}
	.st192{opacity:0.3;fill:url(#SVGID_41_);}
	.st193{opacity:0.8;fill:url(#SVGID_42_);}
	.st194{fill:#F7DDBC;}
	.st195{fill:#D9B48A;}
	.st196{opacity:0.5;fill:#F7DDBC;}
	.st197{opacity:0.3;fill:#DEAA79;}
	.st198{opacity:0.3;fill:#A47348;}
	.st199{opacity:0.5;fill:#DEAA79;}
	.st200{opacity:0.5;fill:#A47348;}
	.st201{opacity:0.3;fill:#BE905C;}
	.st202{fill:#FFEBD7;}
	.st203{opacity:0.3;fill:#DEB485;}
	.st204{opacity:0.3;fill:#8F622F;}
	.st205{opacity:0.2;fill:#BA915C;}
	.st206{opacity:0.2;fill:#BE905C;}
	.st207{opacity:0.3;fill:#D5AD7A;}
	.st208{opacity:0.5;fill:#D5AD7A;}
	.st209{fill:#17ADE4;}
	.st210{fill:#F99B1C;}
	.st211{opacity:0.2;fill:#D59B29;}
	.st212{opacity:0.5;fill:#D59B29;}
	.st213{opacity:0.5;fill:#B8802B;}
	.st214{fill:#FAD00A;}
	.st215{fill:#EEA320;}
	.st216{opacity:0.4;fill:#FAD00A;}
	.st217{opacity:0.7;fill:#FAD00A;}
	.st218{opacity:0.7;fill:#E7C249;}
	.st219{opacity:0.7;fill:#E9B44A;}
	.st220{fill:#3A5728;}
	.st221{opacity:0.3;fill:#3A5728;}
	.st222{opacity:0.5;fill:#3A5728;}
	.st223{opacity:0.3;fill:#6D9D40;}
	.st224{opacity:0.3;fill:#547B38;}
	.st225{fill:#1C2C17;}
	.st226{opacity:0.3;fill:#1A381C;}
	.st227{fill:#152A17;}
	.st228{fill:#F8BC16;}
	.st229{opacity:0.2;fill:#F8BC16;}
	.st230{opacity:0.1;fill:#F8BC16;}
	.st231{opacity:0.3;fill:#E09426;}
	.st232{opacity:0.3;fill:#D98B28;}
	.st233{fill:#CE6F28;}
	.st234{fill:#A65225;}
	.st235{fill:#D88E28;}
	.st236{fill:#BD6728;}
	.st237{fill:#F09F20;}
	.st238{fill:#D37A28;}
	.st239{fill:#A2C83A;}
	.st240{opacity:0.2;fill:#A2C83A;}
	.st241{fill:#ECACCE;}
	.st242{fill:#CB6BAA;}
	.st243{fill:#FACB84;}
	.st244{fill:#F8BA58;}
	.st245{fill:#F3A846;}
	.st246{opacity:0.5;fill:#FACB84;}
	.st247{opacity:0.5;fill:#F8BA58;}
	.st248{fill:#80461D;}
	.st249{opacity:0.7;fill:#ECACCE;}
	.st250{opacity:0.7;fill:#FACB84;}
	.st251{fill:#356531;}
	.st252{opacity:0.2;fill:#356531;}
	.st253{opacity:0.5;fill:#356531;}
	.st254{fill:#508B3F;}
	.st255{fill:#117A3D;}
	.st256{opacity:0.4;fill:#508B3F;}
	.st257{opacity:0.7;fill:#508B3F;}
	.st258{fill:#467135;}
	.st259{opacity:0.2;fill:#467135;}
	.st260{opacity:0.3;fill:#467135;}
	.st261{fill:#203C1C;}
	.st262{fill:#142716;}
	.st263{fill:#325628;}
	.st264{fill:#193019;}
	.st265{fill:#20552A;}
	.st266{opacity:0.5;fill:#508B3F;}
	.st267{opacity:0.5;fill:#A2C83A;}
	.st268{fill:#88171A;}
	.st269{fill:#C02326;}
	.st270{fill:#A61E22;}
	.st271{opacity:0.4;fill:#C02326;}
	.st272{opacity:0.7;fill:#C02326;}
	.st273{opacity:0.2;fill:#A61E22;}
	.st274{opacity:0.3;fill:#A61E22;}
	.st275{fill:#62130C;}
	.st276{fill:#451310;}
	.st277{fill:#791514;}
	.st278{fill:#861719;}
	.st279{fill:#FECF0A;}
	.st280{opacity:0.4;fill:#C6A239;}
	.st281{opacity:0.2;fill:#E4A33A;}
	.st282{opacity:0.3;fill:#B8A137;}
	.st283{opacity:0.3;fill:#FECF0A;}
	.st284{fill:#F5B41A;}
	.st285{opacity:0.6;fill:#CFAE2B;}
	.st286{opacity:0.4;fill:#CFAE2B;}
	.st287{fill:#98772C;}
	.st288{fill:#FFD86D;}
	.st289{fill:#E59F24;}
	.st290{fill:#ECB31F;}
	.st291{fill:#E8B321;}
	.st292{opacity:0.3;fill:#E4A33A;}
	.st293{opacity:0.3;fill:#D48E64;}
	.st294{opacity:0.2;fill:#C6A239;}
	.st295{fill:#FDEB07;stroke:#E0E1E0;stroke-width:0;stroke-linecap:round;stroke-linejoin:round;}
	.st296{fill:#BCBAA3;}
	.st297{fill:#55813B;}
	.st298{fill:#32421B;}
	.st299{opacity:0.3;fill:#517636;}
	.st300{fill:#6E953E;}
	.st301{opacity:0.2;fill:#3A5728;}
	.st302{fill:#42793A;}
	.st303{fill:#F6871F;}
	.st304{opacity:0.2;fill:#E66725;}
	.st305{fill:#D65027;}
	.st306{fill:#CB5727;}
	.st307{opacity:0.2;}
	.st308{fill:#AD6427;}
	.st309{opacity:0.3;fill:#E66725;}
	.st310{opacity:0.5;fill:#DC8127;}
	.st311{fill:#D5D1C5;}
	.st312{fill:#DCB399;}
	.st313{fill:#EAC6AF;}
	.st314{opacity:0.5;fill:#EAC6AF;}
	.st315{opacity:0.5;fill:#E9DEDE;}
	.st316{opacity:0.6;fill:#E9DEDE;}
	.st317{fill:#F7D8C1;}
	.st318{fill:none;}
	.st319{opacity:0.3;fill:#C49374;}
	.st320{fill:#6F903C;}
	.st321{opacity:0.4;fill:#3A5728;}
	.st322{opacity:0.5;fill:#6F903C;}
	.st323{opacity:0.5;fill:#7C963B;}
	.st324{fill:#516A30;}
	.st325{opacity:0.2;fill:#E0E1E0;}
	.st326{opacity:0.2;fill:#C2CACB;}
	.st327{opacity:0.5;fill:#C2CACB;}
	.st328{opacity:0.2;fill:#645C51;}
	.st329{fill:#FAFAFA;}
	.st330{fill:#D6D6D6;}
	.st331{opacity:0.3;fill:#B4C0B2;}
	.st332{fill:#BDBDBD;}
	.st333{fill:#961B1E;}
	.st334{fill:#AF2F24;}
	.st335{fill:#C53127;}
	.st336{fill:#76533F;}
	.st337{fill:#533A2A;}
	.st338{opacity:0.7;fill:#E94466;}
	.st339{fill:#D91F26;}
	.st340{fill:#F6DAB4;}
	.st341{fill:#D2A47F;}
	.st342{fill:#B4B4B4;}
	.st343{fill:#E88B38;}
	.st344{fill:#FBAD47;}
	.st345{fill:#CFB581;}
	.st346{fill:#594D41;}
	.st347{fill:#FDF8F2;}
	.st348{opacity:0.5;fill:#E88B38;}
	.st349{fill:#DDDCD8;}
	.st350{opacity:0.8;fill:#E88B38;}
	.st351{opacity:0.5;fill:#594D41;}
	.st352{fill:#F89A1C;}
	.st353{opacity:0.4;fill:#FDC110;}
	.st354{fill:#FEE600;}
	.st355{fill:#FDC110;}
	.st356{fill:#7CBDE8;}
	.st357{opacity:0.6;fill:#5BB353;}
	.st358{fill:#046CA6;}
	.st359{opacity:0.3;fill:#046CA6;}
	.st360{opacity:0.3;fill:#20ABE3;}
	.st361{fill:#754138;}
	.st362{fill:#6A2116;}
	.st363{fill:#381512;}
</style>























<g
   id="g2946"
   transform="translate(-621.50506,-291.537)">
	<g
   id="g2924">
		<g
   id="g2922">
			<g
   id="g2830">
				<path
   class="st279"
   d="m 738.6,378.36 c -0.59,-0.1 -2.53,-0.03 -3.47,0.1 -1.92,0.14 -4.32,-0.58 -7.07,-0.89 -1,-0.11 -2.01,-0.16 -3.02,-0.04 -0.99,0.12 -1.92,0.35 -2.93,0.25 -2,-0.2 -4.01,-0.68 -6,-1.03 -2.22,-0.4 -4.18,-1.27 -6.02,-2.6 -0.94,-0.69 -1.69,-1.33 -2.29,-2.32 -0.15,-0.24 -0.3,-0.47 -0.47,-0.7 0.08,-0.41 0.32,-0.82 0.55,-1.14 0.45,-0.66 1.2,-1.14 1.89,-1.49 1.65,-0.85 3.39,-0.43 4.99,0.29 0.87,0.4 1.88,0.56 2.8,0.81 0.97,0.26 2,0.17 2.98,0.32 4.5,0.73 8.57,3.03 12.73,4.76 2.11,0.88 4.56,1.3 6.53,2.48 0.34,0.21 0.89,0.65 1.16,1.11 0.27,0.25 -0.58,0.5 -2.36,0.09 z"
   id="path2814"
   inkscape:connector-curvature="0"
   style="fill:#fecf0a" />
				<path
   class="st280"
   d="m 733.34,376.5 c -1.2,-0.45 -4.81,-1.4 -6.62,-2.74 -0.93,-0.69 -1.91,-1.41 -2.95,-1.92 -1.02,-0.5 -2.14,-0.68 -3.25,-0.89 -2.54,-0.51 -4.81,-1.73 -7.29,-2.46 -0.64,-0.19 -1.34,-0.35 -2.05,-0.44 1.21,-0.16 2.44,0.2 3.59,0.72 0.87,0.4 1.88,0.56 2.8,0.81 0.97,0.26 2,0.17 2.98,0.32 4.5,0.73 8.57,3.03 12.73,4.76 2.11,0.88 4.56,1.3 6.53,2.48 0.42,0.26 0.91,0.64 1.16,1.1 0.09,0.3 -0.31,-0.29 -1.89,-0.7 -0.75,-0.19 -1.73,-0.08 -2.86,-0.46 -1.44,-0.5 -2.54,-0.46 -2.88,-0.58 z"
   id="path2816"
   inkscape:connector-curvature="0"
   style="opacity:0.4;fill:#c6a239" />
				<path
   class="st281"
   d="m 725.37,372.56 c 0.86,0.52 1.66,1.12 2.58,1.54 0.77,0.34 1.63,0.32 2.41,0.62 0.99,0.38 1.78,1.06 2.73,1.49 0.81,0.37 1.84,0.49 2.71,0.66 0.93,0.19 1.89,0.2 2.8,0.43 0.53,0.13 0.99,0.32 1.44,0.56 -0.26,-0.1 -0.57,-0.21 -0.97,-0.31 -0.75,-0.19 -1.73,-0.08 -2.86,-0.46 -1.44,-0.49 -2.54,-0.46 -2.88,-0.58 -1.2,-0.45 -4.81,-1.4 -6.62,-2.74 -0.82,-0.61 -1.67,-1.24 -2.58,-1.73 0.45,0.12 0.86,0.28 1.24,0.52 z"
   id="path2818"
   inkscape:connector-curvature="0"
   style="opacity:0.2;fill:#e4a33a" />
				<path
   class="st282"
   d="m 737,376.55 c -1.04,-0.15 -1.98,-0.33 -2.96,-0.74 -1.53,-0.64 -2.96,-1.5 -4.48,-2.21 -0.64,-0.29 -1.29,-0.54 -1.95,-0.8 -0.84,-0.32 -1.55,-0.8 -2.36,-1.16 -1.35,-0.6 -2.89,-1.14 -4.35,-1.5 -0.71,-0.17 -1.42,-0.23 -2.15,-0.31 -0.81,-0.09 -1.52,-0.27 -2.28,-0.52 0.38,0.09 0.74,0.17 1.08,0.26 0.97,0.26 2,0.17 2.98,0.32 4.5,0.73 8.57,3.03 12.73,4.76 2.11,0.88 4.56,1.3 6.53,2.48 0.15,0.09 0.29,0.19 0.44,0.3 -0.9,-0.58 -2.28,-0.74 -3.23,-0.88 z"
   id="path2820"
   inkscape:connector-curvature="0"
   style="opacity:0.3;fill:#b8a137" />
				<path
   class="st280"
   d="m 722.6,374.57 c -0.51,0.1 -1.24,0.04 -1.69,-0.23 -0.27,-0.17 -0.57,-0.07 -0.87,-0.13 -0.28,-0.06 -0.59,-0.17 -0.88,-0.22 -0.06,-0.01 -0.05,-0.09 0,-0.1 0.2,-0.04 0.39,0 0.59,0 0.32,0.01 0.7,-0.06 1.02,-0.01 0.15,0.02 0.3,0.18 0.44,0.21 0.21,0.06 0.42,0.11 0.63,0.16 0.31,0.07 0.54,0.02 0.8,0.19 0.06,0.03 0.02,0.12 -0.04,0.13 z"
   id="path2822"
   inkscape:connector-curvature="0"
   style="opacity:0.4;fill:#c6a239" />
				<path
   class="st280"
   d="m 715.79,373.04 c -0.32,0.27 -1.02,0.02 -1.37,-0.09 -0.35,-0.1 -0.65,-0.28 -0.99,-0.38 -0.28,-0.08 -0.44,-0.48 -0.7,-0.5 -0.04,0 -0.05,-0.06 -0.01,-0.07 0.15,-0.06 0.22,-0.02 0.36,0.05 0.28,0.14 0.57,0.22 0.81,0.37 0.58,0.33 1.29,0.29 1.89,0.55 0.03,0.01 0.02,0.05 0.01,0.07 z"
   id="path2824"
   inkscape:connector-curvature="0"
   style="opacity:0.4;fill:#c6a239" />
				<path
   class="st283"
   d="m 722.17,377.75 c 1.2,-0.21 2.25,-0.86 3.43,-1.09 1.4,-0.28 2.47,0.39 3.59,1.05 -0.36,-0.05 -0.73,-0.1 -1.12,-0.15 -1,-0.11 -2.01,-0.16 -3.02,-0.04 -0.99,0.12 -1.92,0.35 -2.93,0.25 -0.01,0 -0.03,0 -0.04,0 0.03,-0.01 0.06,-0.01 0.09,-0.02 z"
   id="path2826"
   inkscape:connector-curvature="0"
   style="opacity:0.3;fill:#fecf0a" />
				<path
   class="st281"
   d="m 740.83,378.5 c -0.43,-0.4 -1.2,-0.52 -1.74,-0.62 -0.34,-0.07 -0.71,0 -1.06,0 -0.67,0 -1.13,-0.25 -1.69,-0.57 -0.51,-0.29 -1.02,-0.47 -1.58,-0.52 -1.4,-0.45 -2.8,-0.68 -4.28,-0.81 -1.04,-0.09 -2.13,-0.2 -3.09,-0.68 -0.78,-0.4 -1.4,-0.93 -2.05,-1.5 -1.06,-0.97 -2.04,-1.46 -3.49,-1.34 -1.06,0.08 -1.83,-0.17 -2.69,-0.78 -0.4,-0.3 -0.82,-0.58 -1.28,-0.78 -0.75,-0.32 -1.73,-0.63 -2.55,-0.46 -0.59,0.11 -1.23,0.61 -1.04,1.31 0.21,0.72 0.92,1.02 1.5,1.4 -0.1,0.06 -0.23,0.09 -0.35,0.11 -0.66,-0.1 -1.28,-0.34 -1.93,-0.52 -0.57,-0.16 -1.22,-0.34 -1.82,-0.23 -0.77,0.13 -1.27,0.84 -2.02,0.95 -0.13,0.03 -0.28,0.03 -0.41,0.02 -0.55,-0.48 -1.04,-0.98 -1.44,-1.66 -0.15,-0.24 -0.3,-0.47 -0.47,-0.7 0.08,-0.41 0.32,-0.82 0.55,-1.14 0.45,-0.66 1.2,-1.14 1.89,-1.49 1.65,-0.85 3.39,-0.43 4.99,0.29 0.87,0.4 1.88,0.56 2.8,0.81 0.97,0.26 2,0.17 2.98,0.32 4.5,0.73 8.57,3.03 12.73,4.76 2.11,0.88 4.56,1.3 6.53,2.48 0.34,0.21 0.89,0.65 1.16,1.11 0.07,0.09 0.03,0.18 -0.15,0.24 z"
   id="path2828"
   inkscape:connector-curvature="0"
   style="opacity:0.2;fill:#e4a33a" />
			</g>
			<path
   class="st284"
   d="m 708.05,360.29 c 0.66,0.55 1.53,0.81 2.31,1.18 0.72,0.33 1.46,0.74 2.02,1.32 0.46,0.49 0.71,1.07 1.11,1.61 0.36,0.48 0.91,0.99 1.08,1.58 0.21,0.72 0.44,1.76 0.46,2.51 0.01,0.48 -0.5,0.89 -0.75,1.3 -0.31,0.51 -0.76,0.71 -1.21,1.1 -0.56,0.47 -1.2,0.74 -1.7,1.3 -0.39,0.42 -0.7,0.89 -1.19,1.22 -0.57,0.4 -1.15,0.87 -1.67,1.34 -0.3,0.27 -0.59,0.58 -0.89,0.85 -0.13,0.17 -0.26,0.31 -0.37,0.43 -0.52,0.51 -1.06,0.94 -1.51,1.55 -0.45,0.59 -0.77,1.2 -1.47,1.5 -1.1,0.48 -2.62,-0.04 -3.66,-0.49 -0.7,-0.31 -1.37,-0.66 -2.02,-1.04 -0.72,-0.43 -1.53,-0.76 -2.22,-1.22 -0.64,-0.42 -1.33,-0.77 -1.98,-1.17 -0.59,-0.37 -1.11,-0.88 -1.65,-1.32 -0.67,-0.54 -1.41,-0.88 -2.16,-1.28 -0.11,-0.06 -0.23,-0.13 -0.35,-0.2 -0.64,-0.54 -1.24,-1.08 -1.93,-1.55 -0.35,-0.23 -0.66,-0.49 -0.98,-0.77 -0.26,-0.21 -0.66,-0.41 -0.86,-0.66 -0.26,-0.32 -0.53,-0.64 -0.88,-0.86 -0.08,-0.04 -0.19,-0.02 -0.23,0.06 -0.13,0.31 -0.18,0.63 -0.21,0.95 -0.28,0.91 -0.55,1.81 -0.89,2.69 -0.12,0.31 -0.23,0.62 -0.35,0.93 -0.09,0.15 -0.17,0.31 -0.26,0.46 -0.06,0.1 -0.11,0.18 -0.17,0.28 -0.21,0.24 -0.41,0.48 -0.65,0.7 -0.71,0.68 -1.42,1.35 -2.18,1.99 -0.84,0.69 -1.75,1.42 -2.74,1.91 -0.58,0.28 -1.2,0.36 -1.81,0.47 -0.77,-0.2 -1.24,-0.45 -1.64,-1.22 -0.19,-0.36 -0.36,-0.72 -0.51,-1.08 -0.18,-0.57 -0.36,-1.12 -0.44,-1.72 -0.1,-0.78 -0.41,-1.58 -0.61,-2.36 -0.19,-0.76 -0.31,-1.55 -0.35,-2.33 -0.06,-0.77 -0.1,-1.53 -0.15,-2.29 -0.01,-0.29 -0.04,-0.57 -0.03,-0.85 0.01,-0.22 -0.01,-0.41 -0.02,-0.62 -0.13,-0.56 -0.32,-1.09 -0.51,-1.66 -0.32,-0.95 -0.52,-1.87 -1.44,-2.42 -0.62,-0.38 -1.29,-0.64 -1.93,-1 -0.84,-0.47 -1.58,-1.11 -2.33,-1.73 -0.71,-0.6 -1.58,-0.7 -2.36,-1.2 -0.8,-0.51 -1.16,-1.1 -1.58,-1.92 -0.34,-0.67 -0.46,-1.54 -0.55,-2.28 -0.09,-0.76 -0.52,-1.52 -0.44,-2.29 0.05,-0.5 0.66,-0.34 0.95,-0.25 0.97,0.31 1.51,0.75 2.22,1.45 0.26,0.26 0.92,0.65 1.27,0.74 0.39,0.1 0.84,-0.04 1.24,-0.13 0.82,-0.19 1.63,0.19 2.35,0.52 0.87,0.39 1.68,0.89 2.5,1.36 0.62,0.35 1.5,0.79 1.93,1.37 0.26,0.34 0.43,0.72 0.68,1.06 0.32,0.44 0.79,0.68 1.3,0.84 0.43,0.16 0.79,0.38 1.26,0.47 0.1,0.02 0.19,0.04 0.28,0.08 -0.1,-0.17 -0.19,-0.33 -0.26,-0.5 -0.38,-0.74 -0.72,-1.45 -1.26,-2.09 -0.39,-0.46 -0.79,-0.77 -1.01,-1.34 -0.2,-0.54 -0.12,-1.16 -0.07,-1.73 0.07,-0.68 0.22,-1.32 0.4,-1.99 0.29,-1.01 -0.01,-1.7 -0.67,-2.46 -0.3,-0.35 -0.81,-0.91 -0.68,-1.41 0.06,-0.18 0.26,-0.27 0.4,-0.37 0.32,-0.2 0.58,-0.47 0.89,-0.68 1.02,-0.7 1.8,0.27 2.66,0.83 0.52,0.34 0.83,0.93 1.3,1.32 0.64,0.52 1.62,0.69 2.4,0.85 1.42,0.27 2.89,0.15 4.3,0.49 0.01,0.01 0.01,0.01 0.01,0.01 0.31,0.03 0.63,0.07 0.95,0.17 0.59,0.18 1.14,0.49 1.66,0.8 1.91,1.16 3.83,2.43 5.51,3.93 0.88,0.79 1.82,1.6 2.8,2.25 1.01,0.66 2.04,1.15 3,1.88 0.94,0.72 1.98,1.29 2.88,2.05 0.17,0.15 0.35,0.3 0.51,0.45 0.06,-0.41 0.15,-0.85 0.26,-1.31 0.31,-1.24 0.48,-2.46 0.95,-3.65 0.19,-0.5 0.44,-0.92 0.9,-1.22 0.28,-0.18 0.61,-0.24 0.88,-0.42 0.17,-0.1 0.32,-0.23 0.5,-0.29 0.1,-0.03 0.21,-0.01 0.27,0.08 0.21,0.3 0.17,0.73 0.19,1.08 0.03,0.65 0.04,1.43 0.2,2.06 0.18,0.72 0.41,1.5 1,2 z"
   id="path2832"
   inkscape:connector-curvature="0"
   style="fill:#f5b41a" />
			<path
   class="st279"
   d="m 714.27,369.8 c -0.31,0.51 -0.76,0.71 -1.21,1.1 -0.56,0.47 -1.2,0.74 -1.7,1.3 -0.39,0.42 -0.7,0.89 -1.19,1.22 -0.57,0.4 -1.15,0.87 -1.67,1.34 -0.3,0.27 -0.59,0.58 -0.89,0.85 -0.13,0.17 -0.26,0.31 -0.37,0.43 -0.52,0.51 -1.06,0.94 -1.51,1.55 -0.45,0.59 -0.77,1.2 -1.47,1.5 -1.1,0.48 -2.62,-0.04 -3.66,-0.49 -0.7,-0.31 -1.37,-0.66 -2.02,-1.04 -0.72,-0.43 -1.53,-0.76 -2.22,-1.22 -0.64,-0.42 -1.33,-0.77 -1.98,-1.17 -0.59,-0.37 -1.11,-0.88 -1.65,-1.32 -0.67,-0.54 -1.41,-0.88 -2.16,-1.28 -0.11,-0.06 -0.23,-0.13 -0.35,-0.2 -0.64,-0.54 -1.24,-1.08 -1.93,-1.55 -0.35,-0.23 -0.66,-0.49 -0.98,-0.77 -0.26,-0.21 -0.66,-0.41 -0.86,-0.66 -0.26,-0.32 -0.53,-0.64 -0.88,-0.86 -0.08,-0.04 -0.19,-0.02 -0.23,0.06 -0.13,0.31 -0.18,0.63 -0.21,0.95 -0.28,0.91 -0.55,1.81 -0.89,2.69 -0.12,0.31 -0.23,0.62 -0.35,0.93 -0.09,0.15 -0.17,0.31 -0.26,0.46 -0.06,0.1 -0.11,0.18 -0.17,0.28 -0.21,0.24 -0.41,0.48 -0.65,0.7 -0.71,0.68 -1.42,1.35 -2.18,1.99 -0.84,0.69 -1.75,1.42 -2.74,1.91 -0.58,0.28 -1.2,0.36 -1.81,0.47 -0.42,-0.1 -0.75,-0.23 -1.02,-0.45 3.4,-1.17 3.74,-5.96 4.73,-8.99 0.35,-1.04 0.68,-2.11 0.56,-3.23 -0.11,-1.09 -0.82,-2.09 -1.18,-3.1 -0.51,-1.46 -2.09,-3.74 -2.02,-3.71 -0.1,-0.17 -0.19,-0.33 -0.26,-0.5 -0.38,-0.74 -0.72,-1.45 -1.26,-2.09 -0.39,-0.46 -0.79,-0.77 -1.01,-1.34 -0.2,-0.54 -0.12,-1.16 -0.07,-1.73 0.07,-0.68 0.22,-1.32 0.4,-1.99 0.29,-1.01 -0.01,-1.7 -0.67,-2.46 -0.3,-0.35 -0.81,-0.91 -0.68,-1.41 0.06,-0.18 0.26,-0.27 0.4,-0.37 0.32,-0.2 0.58,-0.47 0.89,-0.68 1.02,-0.7 1.8,0.27 2.66,0.83 0.52,0.34 0.83,0.93 1.3,1.32 0.64,0.52 1.62,0.69 2.4,0.85 1.42,0.27 2.89,0.15 4.3,0.49 0.01,0.01 0.01,0.01 0.01,0.01 0.31,0.03 0.63,0.07 0.95,0.17 0.59,0.18 1.14,0.49 1.66,0.8 1.91,1.16 3.83,2.43 5.51,3.93 0.88,0.79 1.82,1.6 2.8,2.25 1.01,0.66 2.04,1.15 3,1.88 0.94,0.72 1.98,1.29 2.88,2.05 0.17,0.15 0.35,0.3 0.51,0.45 0.06,-0.41 0.15,-0.85 0.26,-1.31 0.31,-1.24 0.48,-2.46 0.95,-3.65 0.19,-0.5 0.44,-0.92 0.9,-1.22 0.28,-0.18 0.61,-0.24 0.88,-0.42 0.17,-0.1 0.32,-0.23 0.5,-0.29 0.1,-0.03 0.21,-0.01 0.27,0.08 0.21,0.3 0.17,0.73 0.19,1.08 0.03,0.65 0.04,1.43 0.2,2.06 0.19,0.73 0.41,1.5 1.01,2 0.66,0.55 1.53,0.81 2.31,1.18 0.72,0.33 1.46,0.74 2.02,1.32 0.46,0.49 0.71,1.07 1.11,1.61 0.36,0.48 0.91,0.99 1.08,1.58 0.21,0.72 0.44,1.76 0.46,2.51 0.03,0.5 -0.48,0.91 -0.74,1.32 z"
   id="path2834"
   inkscape:connector-curvature="0"
   style="fill:#fecf0a" />
			<path
   class="st285"
   d="m 704.54,378.24 c -0.3,0.44 -0.61,0.72 -1.01,1.03 -0.62,0.49 -3.43,-0.86 -3.65,-1.02 0.58,-0.06 1.45,-0.31 1.98,-0.69 0.39,-0.28 0.68,-0.64 0.97,-1.04 0.39,-0.54 0.92,-0.39 1.4,-0.7 0.23,-0.15 0.3,-0.55 0.27,-0.8 -0.01,-0.12 -0.04,-0.24 -0.06,-0.36 0.06,-0.06 0.1,-0.12 0.13,-0.2 0.26,-0.53 0.17,-1.07 0.1,-1.64 -0.11,-0.98 -0.01,-1.71 0.64,-2.38 -0.03,0.88 0.16,1.67 0.46,2.44 0.09,0.69 0.15,1.38 0.08,2.07 -0.12,1.13 -0.69,2.37 -1.31,3.29 z"
   id="path2836"
   inkscape:connector-curvature="0"
   style="opacity:0.6;fill:#cfae2b" />
			<path
   class="st286"
   d="m 692.4,354.54 c -0.91,-0.72 -1.95,-1.24 -2.91,-1.93 -0.49,-0.36 -1.14,-1.02 -1.84,-0.84 -0.66,0.18 -1.08,-0.04 -1.69,-0.15 -0.26,-0.05 -0.63,0.03 -0.85,0.18 -0.35,0.21 -0.57,0.55 -0.43,0.98 0.22,0.64 0.67,1.16 0.93,1.79 0.25,0.57 0.47,1.15 0.73,1.71 -0.35,-0.46 -0.67,-0.95 -1.09,-1.35 -0.77,-0.73 -1.5,-1.49 -2.27,-2.22 -1.36,-1.29 -3.09,-1.66 -4.92,-1.71 -0.73,-0.03 -1.29,-0.1 -1.65,-0.83 -0.12,-0.26 -0.23,-0.58 -0.44,-0.79 -0.23,-0.23 -0.67,-0.52 -1.02,-0.35 -0.24,0.13 -0.37,0.36 -0.44,0.63 -0.07,-0.1 -0.15,-0.19 -0.23,-0.29 -0.3,-0.35 -0.81,-0.91 -0.68,-1.41 0.06,-0.18 0.26,-0.27 0.4,-0.37 0.32,-0.2 0.58,-0.47 0.89,-0.68 1.02,-0.7 1.8,0.27 2.66,0.83 0.52,0.34 0.83,0.93 1.3,1.32 0.64,0.52 1.62,0.69 2.4,0.85 1.42,0.27 2.89,0.15 4.3,0.49 0.01,0.01 0.01,0.01 0.01,0.01 0.31,0.03 0.63,0.07 0.95,0.17 0.59,0.18 1.14,0.49 1.66,0.8 1.89,1.14 3.78,2.39 5.44,3.86 -0.41,-0.17 -0.83,-0.4 -1.21,-0.7 z"
   id="path2838"
   inkscape:connector-curvature="0"
   style="opacity:0.4;fill:#cfae2b" />
			<path
   class="st286"
   d="m 678.53,356.82 c -0.18,-0.66 -0.34,-1.5 -0.75,-2.06 -0.54,-0.76 -1.82,-1.52 -2.06,-2.51 0.14,0.23 0.3,0.43 0.49,0.58 0.83,0.64 1.98,0.24 2.82,0.8 1.43,0.96 0.28,3.22 -0.18,4.75 -0.07,-0.53 -0.18,-1.05 -0.32,-1.56 z"
   id="path2840"
   inkscape:connector-curvature="0"
   style="opacity:0.4;fill:#cfae2b" />
			<path
   class="st281"
   d="m 714.27,369.8 c -0.31,0.51 -0.76,0.71 -1.21,1.1 -0.56,0.47 -1.2,0.74 -1.7,1.3 -0.39,0.42 -0.7,0.89 -1.19,1.22 -0.57,0.4 -1.15,0.87 -1.67,1.34 -0.3,0.27 -0.59,0.58 -0.89,0.85 -0.13,0.17 -0.26,0.31 -0.37,0.43 -0.52,0.51 -1.06,0.94 -1.51,1.55 -0.45,0.59 -0.77,1.2 -1.47,1.5 -1.1,0.48 -2.62,-0.04 -3.66,-0.49 -0.02,-0.02 -0.06,-0.03 -0.08,-0.04 0,0 0,0 0,0 1.57,-0.57 3.59,-1.62 3.95,-3.27 0.41,-1.8 -1.15,-2.55 -2.11,-3.74 -0.75,-0.94 -0.54,-1.96 -0.75,-3.04 -0.15,-0.82 -0.64,-1.44 -1.24,-1.99 -1.58,-1.42 -3.51,-2.32 -5.34,-3.35 -1.95,-1.1 -3.94,-2.16 -5.84,-3.31 -2.02,-1.22 -3.52,-2.66 -4.8,-4.61 -0.96,-1.46 -1.96,-3.05 -3.55,-3.9 -0.99,-0.53 -2.13,-0.72 -3.16,-1.23 -0.44,-0.23 -0.82,-0.52 -1.16,-0.83 -0.17,-0.2 -0.32,-0.4 -0.52,-0.59 -0.2,-0.17 -0.46,-0.39 -0.74,-0.58 -0.03,-0.02 -0.05,-0.05 -0.09,-0.08 -0.3,-0.26 -0.62,-0.47 -0.93,-0.62 0.21,-0.16 0.42,-0.34 0.64,-0.5 1.02,-0.7 1.8,0.27 2.66,0.83 0.52,0.34 0.83,0.93 1.3,1.32 0.64,0.52 1.62,0.69 2.4,0.85 1.42,0.27 2.89,0.15 4.3,0.49 0.01,0.01 0.01,0.01 0.01,0.01 0.31,0.03 0.63,0.07 0.95,0.17 0.59,0.18 1.14,0.49 1.66,0.8 1.91,1.16 3.83,2.43 5.51,3.93 0.88,0.79 1.82,1.6 2.8,2.25 1.01,0.66 2.04,1.15 3,1.88 0.94,0.72 1.98,1.29 2.88,2.05 0.17,0.15 0.35,0.3 0.51,0.45 0.06,-0.41 0.15,-0.85 0.26,-1.31 0.31,-1.24 0.48,-2.46 0.95,-3.65 0.19,-0.5 0.44,-0.92 0.9,-1.22 0.28,-0.18 0.61,-0.24 0.88,-0.42 0.17,-0.1 0.32,-0.23 0.5,-0.29 0.1,-0.03 0.21,-0.01 0.27,0.08 0.21,0.3 0.17,0.73 0.19,1.08 0.03,0.65 0.04,1.43 0.2,2.06 0.19,0.73 0.41,1.5 1.01,2 0.66,0.55 1.53,0.81 2.31,1.18 0.72,0.33 1.46,0.74 2.02,1.32 0.46,0.49 0.71,1.07 1.11,1.61 0.36,0.48 0.91,0.99 1.08,1.58 0.21,0.72 0.44,1.76 0.46,2.51 0.04,0.5 -0.47,0.91 -0.73,1.32 z"
   id="path2842"
   inkscape:connector-curvature="0"
   style="opacity:0.2;fill:#e4a33a" />
			<path
   class="st287"
   d="m 675.77,347.4 c -0.29,0.25 -0.59,0.63 -0.95,0.78 -0.28,0.12 -0.5,0.16 -0.7,0.4 -0.12,0.14 -0.09,0.35 -0.03,0.57 -0.29,-0.34 -0.59,-0.78 -0.49,-1.18 0.06,-0.18 0.26,-0.27 0.4,-0.37 0.32,-0.2 0.58,-0.47 0.89,-0.68 0.72,-0.49 1.32,-0.16 1.92,0.28 -0.38,-0.08 -0.71,-0.08 -1.04,0.2 z"
   id="path2844"
   inkscape:connector-curvature="0"
   style="fill:#98772c" />
			<path
   class="st288"
   d="m 675.23,352.58 c 0.05,-0.18 0.36,-1.65 0.42,-1.83 0.03,0.12 0.05,1.77 0.1,1.89 0.29,0.77 1.17,0.88 1.66,1.55 0.54,0.74 0.73,1.63 1.11,2.48 0.38,0.87 0.34,2 0.74,2.87 0.9,1.91 1.95,3.89 3.23,5.58 0.59,0.8 1.25,1.54 1.93,2.27 0.34,0.38 0.66,0.78 0.97,1.17 -0.02,0.02 -0.03,0.03 -0.03,0.05 -0.13,0.31 -0.18,0.63 -0.21,0.95 -0.28,0.91 -0.55,1.81 -0.89,2.69 -0.12,0.31 -0.23,0.62 -0.35,0.93 -0.09,0.15 -0.17,0.31 -0.26,0.46 -0.06,0.1 -0.11,0.18 -0.17,0.28 -0.21,0.24 -0.41,0.48 -0.65,0.7 -0.71,0.68 -1.42,1.35 -2.18,1.99 -0.84,0.69 -1.75,1.42 -2.74,1.91 -0.58,0.28 -1.2,0.36 -1.81,0.47 -0.42,-0.1 -0.75,-0.23 -1.02,-0.45 3.4,-1.17 3.74,-5.96 4.73,-8.99 0.35,-1.04 0.68,-2.11 0.56,-3.23 -0.11,-1.09 -0.82,-2.09 -1.18,-3.1 -0.51,-1.46 -0.85,-2.63 -1.28,-3.57 -0.59,-1.63 -1.97,-2.57 -2.33,-3.55 -0.44,-1.19 -0.75,-2.3 -0.35,-3.52 z"
   id="path2846"
   inkscape:connector-curvature="0"
   style="fill:#ffd86d" />
			<path
   class="st286"
   d="m 680.3,362.43 c -0.55,-0.78 -1.07,-1.59 -1.34,-2.51 -0.24,-0.79 -0.39,-1.61 -0.65,-2.39 -0.26,-0.73 -0.58,-1.37 -1.08,-1.96 -0.62,-0.75 -1.23,-1.45 -1.4,-2.45 -0.02,-0.14 -0.04,-0.28 -0.05,-0.42 0.31,0.7 1.15,0.84 1.62,1.47 0.54,0.74 0.73,1.63 1.11,2.48 0.38,0.87 0.34,2 0.74,2.87 0.77,1.65 1.67,3.35 2.72,4.87 -0.6,-0.61 -1.18,-1.25 -1.67,-1.96 z"
   id="path2848"
   inkscape:connector-curvature="0"
   style="opacity:0.4;fill:#cfae2b" />
			<path
   class="st286"
   d="m 685.14,369.55 c -0.28,0.91 -0.55,1.81 -0.89,2.69 -0.12,0.31 -0.23,0.62 -0.35,0.93 -0.09,0.15 -0.17,0.31 -0.26,0.46 -0.06,0.1 -0.11,0.18 -0.17,0.28 -0.21,0.24 -0.41,0.48 -0.65,0.7 -0.71,0.68 -1.42,1.35 -2.18,1.99 -0.01,0.01 -0.03,0.01 -0.03,0.02 -0.35,-0.16 -0.2,-0.8 0.01,-1.17 0.3,-0.51 0.75,-1.01 0.91,-1.59 0.17,-0.61 0.19,-1.21 0.21,-1.84 0.03,-0.8 0.25,-1.49 0.38,-2.27 0.12,-0.71 0.06,-1.36 -0.07,-2.01 -0.01,-0.12 -0.01,-0.22 -0.04,-0.34 -0.03,-0.18 -0.08,-0.36 -0.12,-0.54 -0.06,-0.27 -0.11,-0.55 -0.16,-0.84 -0.06,-0.43 -0.13,-0.9 -0.29,-1.32 -0.06,-0.51 -0.14,-1.03 -0.25,-1.52 0.4,0.67 0.83,1.32 1.3,1.94 0.59,0.8 1.25,1.54 1.93,2.27 0.34,0.38 0.66,0.78 0.97,1.17 -0.02,0.02 -0.03,0.03 -0.03,0.05 -0.15,0.29 -0.19,0.61 -0.22,0.94 z"
   id="path2850"
   inkscape:connector-curvature="0"
   style="opacity:0.4;fill:#cfae2b" />
			<path
   class="st286"
   d="m 685.14,369.55 c -0.28,0.91 -0.55,1.81 -0.89,2.69 -0.12,0.31 -0.23,0.62 -0.35,0.93 -0.09,0.15 -0.17,0.31 -0.26,0.46 -0.06,0.1 -0.11,0.18 -0.17,0.28 -0.21,0.24 -0.41,0.48 -0.65,0.7 -0.56,0.54 -1.13,1.07 -1.72,1.59 0.65,-1 1.89,-1.62 2.18,-2.83 0.1,-0.37 -0.02,-0.75 -0.03,-1.11 -0.02,-0.47 0.06,-0.89 0.2,-1.32 0.19,-0.51 0.46,-1.11 0.36,-1.67 -0.13,-0.75 -0.55,-1.38 -0.85,-2.08 -0.34,-0.77 -0.64,-1.6 -0.88,-2.4 -0.03,-0.12 -0.06,-0.25 -0.1,-0.37 0.17,0.25 0.33,0.48 0.51,0.71 0.59,0.8 1.25,1.54 1.93,2.27 0.34,0.38 0.66,0.78 0.97,1.17 -0.02,0.02 -0.03,0.03 -0.03,0.05 -0.15,0.28 -0.19,0.6 -0.22,0.93 z"
   id="path2852"
   inkscape:connector-curvature="0"
   style="opacity:0.4;fill:#cfae2b" />
			<path
   class="st288"
   d="m 714.27,369.8 c -0.31,0.52 -0.77,0.72 -1.21,1.09 -0.56,0.48 -1.2,0.75 -1.71,1.31 -0.39,0.42 -0.7,0.88 -1.18,1.21 -0.59,0.41 -1.15,0.87 -1.67,1.35 -0.3,0.26 -0.59,0.58 -0.9,0.84 -0.12,0.17 -0.26,0.31 -0.36,0.43 -0.52,0.52 -1.07,0.95 -1.51,1.55 -0.73,0.99 -0.73,1.18 -1.48,1.51 -0.41,0.18 -0.88,0.22 -1.37,0.17 0.25,-0.07 0.48,-0.15 0.7,-0.22 0.07,-0.03 0.15,-0.11 0.23,-0.25 0.88,-0.72 1.56,-1.92 1.85,-2.96 0.37,-1.31 -0.06,-2.86 -0.48,-4.15 0.02,-0.39 0.03,-0.8 0,-1.18 0.01,-0.25 0,-0.5 -0.03,-0.75 -0.07,-0.42 -0.23,-0.71 -0.48,-1.05 -0.34,-0.47 -0.25,-0.95 -0.44,-1.46 -0.25,-0.7 -0.74,-1.23 -1.13,-1.83 -0.01,-0.04 -0.32,-0.7 -0.33,-0.75 -0.41,-1.15 0.03,-2.76 0.1,-2.7 0.06,-0.42 0.15,-0.85 0.26,-1.31 0.32,-1.23 0.48,-2.46 0.95,-3.65 0.2,-0.5 0.45,-0.92 0.91,-1.22 0.28,-0.18 0.61,-0.24 0.88,-0.42 0.16,-0.1 0.32,-0.23 0.5,-0.29 0.1,-0.04 0.21,-0.02 0.27,0.07 0.2,0.3 0.17,0.74 0.19,1.08 0.03,0.65 0.04,1.43 0.21,2.05 0.19,0.73 0.4,1.51 1,2 0.67,0.56 1.53,0.83 2.29,1.18 0.74,0.34 1.46,0.75 2.03,1.32 0.47,0.5 0.72,1.08 1.12,1.62 0.36,0.48 0.91,0.99 1.08,1.58 0.21,0.72 0.44,1.76 0.46,2.51 0.02,0.5 -0.49,0.91 -0.75,1.32 z"
   id="path2854"
   inkscape:connector-curvature="0"
   style="fill:#ffd86d" />
			<path
   class="st289"
   d="m 668.01,357.57 c -1.27,-0.77 -2.56,-1.49 -3.89,-2.14 -0.48,-0.22 -1.01,-0.65 -1.37,-1.02 -0.25,-0.26 -0.47,-0.51 -0.65,-0.81 -0.18,-0.28 -0.23,-0.63 -0.41,-0.92 -0.01,-0.02 0.02,-0.06 0.04,-0.03 0.42,0.42 0.64,0.99 1.07,1.42 0.51,0.5 1.16,0.9 1.79,1.23 1.22,0.65 2.4,1.34 3.48,2.18 0.05,0.05 -0.01,0.12 -0.06,0.09 z"
   id="path2856"
   inkscape:connector-curvature="0"
   style="fill:#e59f24" />
			<path
   class="st289"
   d="m 677.63,368.41 c -0.13,-2.19 -1.38,-3.97 -2.81,-5.55 -0.64,-0.71 -1.33,-1.34 -2.04,-1.99 -0.39,-0.35 -0.91,-0.6 -1.35,-0.87 -0.2,-0.12 -0.45,-0.18 -0.64,-0.28 -0.24,-0.12 -0.39,-0.32 -0.62,-0.44 -0.05,-0.02 -0.02,-0.07 0.01,-0.06 0.46,0.13 0.88,0.37 1.34,0.52 0.43,0.13 0.93,0.45 1.3,0.71 0.87,0.6 1.59,1.42 2.31,2.18 1.37,1.43 3.09,3.68 2.61,5.8 -0.01,0.05 -0.1,0.06 -0.11,-0.02 z"
   id="path2858"
   inkscape:connector-curvature="0"
   style="fill:#e59f24" />
			<g
   id="g2882">
				<path
   class="st280"
   d="m 689.87,365.08 c -0.08,-0.05 -0.11,-0.09 -0.12,-0.17 -0.48,-0.76 -0.64,-1.69 -0.88,-2.52 -0.02,-0.06 0.07,-0.1 0.1,-0.04 0.17,0.43 0.33,0.87 0.5,1.31 0.14,0.39 0.36,0.9 0.63,1.21 0.11,0.14 -0.1,0.32 -0.23,0.21 z"
   id="path2860"
   inkscape:connector-curvature="0"
   style="opacity:0.4;fill:#c6a239" />
				<path
   class="st280"
   d="m 690.62,365.35 c -0.65,-1.19 -1.25,-2.51 -1.53,-3.83 -0.02,-0.12 0.15,-0.13 0.17,-0.03 0.33,1.33 1.02,2.53 1.61,3.75 v 0 c 0.06,0.16 -0.17,0.28 -0.25,0.11 z"
   id="path2862"
   inkscape:connector-curvature="0"
   style="opacity:0.4;fill:#c6a239" />
				<path
   class="st280"
   d="m 690.98,363.5 c -0.07,-0.2 -0.15,-0.41 -0.2,-0.63 0.06,0.26 0.14,0.53 0.23,0.79 0.13,0.37 0.46,0.93 0.37,1.33 -0.01,0.11 -0.17,0.17 -0.24,0.06 -0.68,-1.07 -0.98,-2.36 -1.47,-3.52 -0.06,-0.13 0.14,-0.21 0.19,-0.08 0.3,0.69 0.54,1.42 0.84,2.13 -0.03,-0.09 -0.06,-0.16 -0.08,-0.25 -0.17,-0.62 -0.32,-1.23 -0.39,-1.86 -0.01,-0.17 0.2,-0.21 0.27,-0.07 0.29,0.63 0.49,1.34 0.69,2.01 0.03,0.15 -0.17,0.23 -0.21,0.09 z"
   id="path2864"
   inkscape:connector-curvature="0"
   style="opacity:0.4;fill:#c6a239" />
				<path
   class="st280"
   d="m 691.97,363.64 c -0.19,-0.36 -0.33,-0.73 -0.48,-1.1 -0.12,-0.29 -0.21,-0.63 -0.37,-0.91 -0.06,0 -0.12,-0.04 -0.1,-0.1 0.01,-0.03 0.01,-0.06 0.02,-0.08 0.02,-0.09 0.12,-0.11 0.18,-0.04 0.19,0.21 0.28,0.55 0.4,0.81 0.19,0.44 0.38,0.89 0.54,1.36 0.02,0.1 -0.14,0.16 -0.19,0.06 z"
   id="path2866"
   inkscape:connector-curvature="0"
   style="opacity:0.4;fill:#c6a239" />
				<path
   class="st280"
   d="m 699.91,372.63 c -0.32,-0.54 -0.59,-1.11 -0.88,-1.66 -0.04,-0.08 0.08,-0.15 0.11,-0.08 0.32,0.55 0.64,1.09 0.93,1.64 0.06,0.1 -0.1,0.19 -0.16,0.1 z"
   id="path2868"
   inkscape:connector-curvature="0"
   style="opacity:0.4;fill:#c6a239" />
				<path
   class="st280"
   d="m 700.79,373.88 c -0.33,-0.43 -0.47,-0.97 -0.62,-1.49 -0.2,-0.68 -0.38,-1.37 -0.52,-2.07 -0.02,-0.1 0.13,-0.12 0.17,-0.02 0.28,1.17 0.56,2.41 1.15,3.48 0.05,0.1 -0.12,0.18 -0.18,0.1 z"
   id="path2870"
   inkscape:connector-curvature="0"
   style="opacity:0.4;fill:#c6a239" />
				<path
   class="st280"
   d="m 700.98,372.81 c -0.37,-0.69 -0.43,-1.49 -0.79,-2.19 -0.03,-0.09 0.1,-0.17 0.15,-0.08 0.39,0.68 0.5,1.48 0.81,2.2 0.04,0.11 -0.11,0.17 -0.17,0.07 z"
   id="path2872"
   inkscape:connector-curvature="0"
   style="opacity:0.4;fill:#c6a239" />
				<path
   class="st280"
   d="m 701.38,372.77 c -0.5,-0.87 -0.73,-1.91 -0.98,-2.87 -0.04,-0.13 0.15,-0.26 0.22,-0.12 0.01,0.02 0.01,0.03 0.03,0.05 0.01,0.03 0.01,0.05 0.01,0.08 0.26,0.94 0.58,1.86 0.88,2.78 0.04,0.09 -0.09,0.18 -0.16,0.08 z"
   id="path2874"
   inkscape:connector-curvature="0"
   style="opacity:0.4;fill:#c6a239" />
				<path
   class="st280"
   d="m 701.67,372.42 c -0.39,-0.75 -0.55,-1.62 -0.75,-2.45 -0.03,-0.15 0.2,-0.18 0.24,-0.03 0.21,0.82 0.48,1.6 0.7,2.41 0.04,0.12 -0.13,0.18 -0.19,0.07 z"
   id="path2876"
   inkscape:connector-curvature="0"
   style="opacity:0.4;fill:#c6a239" />
				<path
   class="st280"
   d="m 701.77,371.47 c -0.14,-0.32 -0.26,-0.65 -0.33,-0.99 0,-0.01 -0.01,-0.01 -0.01,-0.01 -0.06,-0.14 -0.06,-0.29 -0.1,-0.43 -0.01,0 -0.01,0 -0.01,0 -0.05,-0.06 -0.05,-0.1 -0.03,-0.18 0.02,-0.1 0.17,-0.12 0.21,-0.02 0.07,0.18 0.06,0.37 0.14,0.54 0,0.01 0.01,0.02 0.01,0.03 0.08,0.33 0.18,0.66 0.28,0.99 0.03,0.11 -0.1,0.17 -0.16,0.07 z"
   id="path2878"
   inkscape:connector-curvature="0"
   style="opacity:0.4;fill:#c6a239" />
				<path
   class="st280"
   d="m 702.28,372.08 c -0.14,-0.34 -0.26,-0.68 -0.36,-1.03 -0.12,-0.35 -0.15,-0.72 -0.29,-1.06 -0.06,-0.16 0.19,-0.26 0.24,-0.1 0.13,0.35 0.17,0.71 0.28,1.07 0.1,0.35 0.2,0.71 0.29,1.06 0.04,0.11 -0.12,0.15 -0.16,0.06 z"
   id="path2880"
   inkscape:connector-curvature="0"
   style="opacity:0.4;fill:#c6a239" />
			</g>
			<path
   class="st280"
   d="m 707.8,373.04 c -0.04,0.05 -0.12,-0.02 -0.08,-0.06 0.5,-0.56 0.69,-1.17 1,-1.83 0.03,-0.07 0.13,-0.02 0.1,0.05 -0.2,0.71 -0.5,1.32 -1.02,1.84 z"
   id="path2884"
   inkscape:connector-curvature="0"
   style="opacity:0.4;fill:#c6a239" />
			<path
   class="st280"
   d="m 708.22,370.46 c -0.04,0.06 -0.16,0 -0.11,-0.08 0.14,-0.23 0.23,-0.48 0.35,-0.72 0.03,-0.08 0.18,-0.05 0.15,0.04 -0.08,0.29 -0.21,0.54 -0.39,0.76 z"
   id="path2886"
   inkscape:connector-curvature="0"
   style="opacity:0.4;fill:#c6a239" />
			<path
   class="st280"
   d="m 708.07,367.91 c -0.03,0.07 -0.15,0.03 -0.12,-0.05 0.06,-0.16 0.1,-0.32 0.14,-0.49 0.01,-0.07 0.12,-0.05 0.11,0.02 -0.02,0.18 -0.06,0.35 -0.13,0.52 z"
   id="path2888"
   inkscape:connector-curvature="0"
   style="opacity:0.4;fill:#c6a239" />
			<path
   class="st280"
   d="m 707.88,374.16 c -0.06,0.11 -0.14,0.2 -0.24,0.29 -0.03,0.03 -0.1,-0.02 -0.08,-0.07 0.06,-0.11 0.12,-0.19 0.18,-0.29 0.05,-0.08 0.2,-0.02 0.14,0.07 z"
   id="path2890"
   inkscape:connector-curvature="0"
   style="opacity:0.4;fill:#c6a239" />
			<path
   class="st280"
   d="m 708.24,371.96 c -0.1,0.18 -0.19,0.41 -0.38,0.51 -0.02,0.02 -0.05,-0.01 -0.02,-0.03 0.15,-0.15 0.24,-0.43 0.34,-0.62 0.12,-0.25 0.22,-0.52 0.32,-0.77 0.03,-0.06 0.1,-0.02 0.09,0.04 -0.08,0.3 -0.21,0.58 -0.35,0.87 z"
   id="path2892"
   inkscape:connector-curvature="0"
   style="opacity:0.4;fill:#c6a239" />
			<path
   class="st280"
   d="m 708.24,369.93 c -0.03,0.03 -0.1,0 -0.07,-0.05 0.1,-0.17 0.17,-0.35 0.26,-0.53 0.03,-0.04 0.09,-0.02 0.08,0.03 -0.07,0.2 -0.14,0.4 -0.27,0.55 z"
   id="path2894"
   inkscape:connector-curvature="0"
   style="opacity:0.4;fill:#c6a239" />
			<path
   class="st280"
   d="m 714.26,367.09 c -0.12,-0.68 -0.5,-1.3 -0.91,-1.82 -0.24,-0.3 -0.38,-0.65 -0.47,-1.01 -0.31,-1.34 -1.25,-2 -2.42,-2.6 -0.05,-0.02 -0.02,-0.08 0.03,-0.07 1.04,0.33 2.07,0.96 2.47,2.03 0.1,0.3 0.1,0.63 0.18,0.94 0.1,0.37 0.41,0.65 0.62,0.95 0.32,0.44 0.48,1.04 0.57,1.56 0,0.05 -0.06,0.06 -0.07,0.02 z"
   id="path2896"
   inkscape:connector-curvature="0"
   style="opacity:0.4;fill:#c6a239" />
			<g
   id="g2906">
				<path
   class="st280"
   d="m 687.47,357.55 c -0.32,-0.29 -0.77,-0.69 -1.16,-0.9 -0.48,-0.26 -0.68,-0.56 -0.94,-1.03 -0.34,-0.58 -0.89,-1.03 -1.28,-1.57 -0.46,-0.64 -1.01,-1.36 -1.6,-1.88 -1.11,-0.96 -2.89,-0.65 -4.1,-1.48 -0.27,-0.19 -0.51,-0.44 -0.75,-0.68 -0.24,-0.24 -0.62,-0.26 -0.88,-0.46 -0.43,-0.32 -0.56,-0.96 -0.77,-1.41 -0.01,-0.04 0.03,-0.06 0.06,-0.04 0.52,0.55 0.65,1.11 1.42,1.39 0.67,0.24 1.06,0.94 1.74,1.22 1.23,0.49 2.64,0.37 3.69,1.28 0.48,0.41 0.88,1.01 1.22,1.53 0.37,0.57 0.84,1.08 1.28,1.6 0.15,0.18 0.24,0.48 0.36,0.69 0.19,0.4 0.51,0.47 0.81,0.71 0.33,0.27 0.82,0.57 1.02,0.96 0.01,0.06 -0.08,0.12 -0.12,0.07 z"
   id="path2898"
   inkscape:connector-curvature="0"
   style="opacity:0.4;fill:#c6a239" />
				<path
   class="st290"
   d="m 709.61,372.48 c -0.3,0.43 -0.57,0.88 -0.84,1.34 -0.02,0.04 -0.08,0.02 -0.07,-0.02 0.23,-0.76 0.67,-1.42 1.04,-2.11 0.32,-0.59 0.12,-1.31 0.08,-1.95 -0.04,-0.56 -0.1,-1.13 -0.21,-1.69 -0.38,-2.01 -2.12,-3.33 -2.6,-5.3 -0.01,-0.04 0.06,-0.06 0.07,-0.02 0.39,1.02 1.11,2.04 1.85,2.85 0.66,0.7 0.95,1.72 1.13,2.64 0.1,0.58 0.13,1.15 0.17,1.73 0.03,0.48 0.16,0.95 0.01,1.42 -0.13,0.43 -0.37,0.74 -0.63,1.11 z"
   id="path2900"
   inkscape:connector-curvature="0"
   style="fill:#ecb31f" />
				<path
   class="st280"
   d="m 686.04,368.91 c -0.57,-0.43 -1.2,-0.62 -1.69,-1.18 -0.69,-0.79 -1.37,-1.6 -2.04,-2.42 -1.25,-1.56 -2.24,-3.2 -3.03,-5.05 -0.39,-0.92 -0.43,-1.9 -0.75,-2.83 -0.16,-0.49 -0.23,-0.98 -0.44,-1.46 -0.21,-0.45 -0.19,-0.93 -0.51,-1.33 -0.51,-0.61 -1.39,-0.87 -1.77,-1.58 -0.47,-0.83 -0.17,-1.8 -0.19,-2.7 0,-0.07 0.08,-0.11 0.12,-0.03 0.12,0.33 -0.13,1.76 0.24,2.37 0.28,0.45 0.99,0.84 1.35,1.07 0.26,0.18 0.59,0.54 0.75,0.82 0.18,0.33 0.26,0.7 0.36,1.07 0.11,0.41 0.32,0.79 0.42,1.21 0.24,1 0.39,2.06 0.74,3.02 0.7,1.89 1.76,3.64 3.02,5.21 0.62,0.77 1.28,1.51 1.89,2.3 0.46,0.58 1.15,0.89 1.57,1.49 0,0.01 -0.02,0.04 -0.04,0.02 z"
   id="path2902"
   inkscape:connector-curvature="0"
   style="opacity:0.4;fill:#c6a239" />
				<path
   class="st291"
   d="m 705.8,375.99 c -0.13,0.46 -0.3,0.89 -0.53,1.3 -0.32,0.54 -0.77,1.18 -1.22,1.61 -0.23,0.21 -0.46,0.49 -0.8,0.49 -0.52,-0.01 -0.91,-0.11 -1.39,-0.23 -0.03,0 -0.04,-0.06 0,-0.06 0.41,0 0.82,0.02 1.22,0.02 0.46,0 0.88,-0.72 1.11,-1.06 0.17,-0.29 0.41,-0.52 0.59,-0.8 0.3,-0.47 0.49,-0.99 0.64,-1.54 0.17,-0.57 0.36,-1.05 0.19,-1.66 -0.12,-0.37 -0.25,-0.71 -0.32,-1.08 -0.09,-0.47 -0.21,-0.95 -0.23,-1.42 -0.02,-0.49 0.07,-0.97 0.01,-1.45 -0.09,-0.86 -0.88,-1.39 -0.95,-2.25 -0.06,-0.97 -0.56,-1.5 -1.04,-2.29 -0.43,-0.7 -0.59,-1.31 -0.61,-2.13 -0.03,-0.79 0.35,-1.54 0.59,-2.27 0.01,-0.01 0.02,-0.01 0.02,0 -0.21,0.95 -0.32,1.95 -0.2,2.92 0.12,0.92 0.82,1.45 1.22,2.2 0.18,0.34 0.33,0.67 0.43,1.04 0.07,0.3 0.01,0.58 0.1,0.88 0.09,0.28 0.37,0.57 0.53,0.83 0.52,0.87 0.31,1.76 0.35,2.71 0.04,0.97 0.58,1.86 0.64,2.81 0.02,0.47 -0.22,0.98 -0.35,1.43 z"
   id="path2904"
   inkscape:connector-curvature="0"
   style="fill:#e8b321" />
			</g>
			<path
   class="st281"
   d="m 702.81,363.79 c 0.43,0.91 1.03,1.48 1.76,2.14 0.99,0.88 1.28,1.8 0.97,3.09 -0.17,0.68 -0.44,1.52 -0.21,2.22 0.36,1.04 1.75,1.4 1.77,2.55 0.03,1.35 -0.77,2.59 -1.68,3.53 -0.29,0.3 -0.61,0.55 -0.95,0.78 0.55,-0.67 0.97,-1.51 1.19,-2.27 0.37,-1.31 -0.06,-2.86 -0.48,-4.15 0.02,-0.39 0.03,-0.8 0,-1.18 0.01,-0.25 0,-0.5 -0.03,-0.75 -0.07,-0.42 -0.23,-0.71 -0.48,-1.05 -0.34,-0.47 -0.25,-0.95 -0.44,-1.46 -0.25,-0.7 -0.74,-1.23 -1.13,-1.83 -0.01,-0.04 -0.32,-0.7 -0.33,-0.75 -0.16,-0.43 -0.18,-0.91 -0.17,-1.35 0.08,0.15 0.14,0.32 0.21,0.48 z"
   id="path2908"
   inkscape:connector-curvature="0"
   style="opacity:0.2;fill:#e4a33a" />
			<path
   class="st292"
   d="m 714.27,369.8 c -0.31,0.52 -0.77,0.72 -1.21,1.09 -0.56,0.48 -1.2,0.75 -1.71,1.31 -0.39,0.42 -0.7,0.88 -1.18,1.21 -0.59,0.41 -1.15,0.87 -1.67,1.35 -0.19,0.17 -0.38,0.36 -0.58,0.54 0.35,-0.64 0.68,-1.29 1.1,-1.88 0.35,-0.49 0.77,-1.02 0.82,-1.65 0.06,-0.65 0.08,-1.29 0.1,-1.93 0.03,-1.25 -0.06,-2.49 -0.72,-3.61 -0.77,-1.28 -1.78,-2.45 -2.64,-3.67 -1.06,-1.48 -1.85,-2.98 -1.17,-4.84 0.24,-0.7 0.62,-1.35 0.85,-2.05 0.05,-0.17 0.11,-0.4 0.06,-0.59 0.01,-0.01 0.04,-0.02 0.06,-0.02 0.1,-0.04 0.21,-0.02 0.27,0.07 0.2,0.3 0.17,0.74 0.19,1.08 0.03,0.65 0.04,1.43 0.21,2.05 0.19,0.73 0.4,1.51 1,2 0.67,0.56 1.53,0.83 2.29,1.18 0.74,0.34 1.46,0.75 2.03,1.32 0.47,0.5 0.72,1.08 1.12,1.62 0.36,0.48 0.91,0.99 1.08,1.58 0.21,0.72 0.44,1.76 0.46,2.51 0.01,0.51 -0.5,0.92 -0.76,1.33 z"
   id="path2910"
   inkscape:connector-curvature="0"
   style="opacity:0.3;fill:#e4a33a" />
			<path
   class="st293"
   d="m 714.27,369.8 c -0.14,0.22 -0.3,0.39 -0.47,0.53 0.08,-0.18 0.17,-0.35 0.27,-0.52 0.19,-0.31 0.41,-0.65 0.5,-1 0.18,-0.66 -0.12,-0.96 -0.37,-1.53 -0.26,-0.61 -0.01,-1.23 -0.5,-1.76 -0.25,-0.28 -0.57,-0.49 -0.82,-0.76 -0.33,-0.36 -0.39,-0.78 -0.61,-1.19 -0.59,-1.15 -1.66,-1.49 -2.87,-1.65 -0.46,-0.06 -1.01,-0.07 -1.52,-0.16 -0.62,-0.19 -1.14,-0.53 -1.39,-1.28 -0.31,-0.94 -0.17,-1.76 0.04,-2.69 0.12,-0.58 0.46,-1.81 0.19,-2.56 0.15,0.29 0.12,0.67 0.13,0.99 0.03,0.65 0.04,1.43 0.21,2.05 0.19,0.73 0.4,1.51 1,2 0.67,0.56 1.53,0.83 2.29,1.18 0.74,0.34 1.46,0.75 2.03,1.32 0.47,0.5 0.72,1.08 1.12,1.62 0.36,0.48 0.91,0.99 1.08,1.58 0.21,0.72 0.44,1.76 0.46,2.51 0,0.5 -0.51,0.91 -0.77,1.32 z"
   id="path2912"
   inkscape:connector-curvature="0"
   style="opacity:0.3;fill:#d48e64" />
			<path
   class="st280"
   d="m 702.62,363.79 c 0.17,1.35 1.03,2.39 1.53,3.62 -0.14,-0.17 -0.3,-0.33 -0.46,-0.48 -0.7,-0.68 -1.65,-1.45 -1.94,-2.43 -0.21,-0.71 -0.08,-1.44 -0.54,-2.07 -0.53,-0.73 -1.5,-1.31 -2.22,-1.82 -1,-0.7 -2.02,-1.37 -3.03,-2.05 -2.06,-1.37 -4.14,-2.75 -6.05,-4.34 -0.79,-0.67 -1.61,-1.4 -2.57,-1.83 -0.95,-0.44 -1.96,-0.65 -3,-0.76 -1.33,-0.14 -2.65,-0.17 -3.96,-0.42 -1.01,-0.2 -2.16,-0.39 -3.01,-1.02 -0.73,-0.54 -1.04,-1.48 -1.82,-1.94 -0.52,-0.31 -1.29,0.02 -1.75,0.28 -0.03,0.02 -0.06,0.04 -0.1,0.07 -0.1,-0.2 -0.17,-0.42 -0.1,-0.62 0.06,-0.18 0.26,-0.27 0.4,-0.37 0.32,-0.2 0.58,-0.47 0.89,-0.68 1.02,-0.7 1.8,0.27 2.66,0.83 0.52,0.34 0.83,0.93 1.3,1.32 0.64,0.52 1.62,0.69 2.4,0.85 1.42,0.27 2.89,0.15 4.3,0.49 0.01,0.01 0.01,0.01 0.01,0.01 0.31,0.03 0.63,0.07 0.95,0.17 0.59,0.18 1.14,0.49 1.66,0.8 1.91,1.16 3.83,2.43 5.51,3.93 0.88,0.79 1.82,1.6 2.8,2.25 1.01,0.66 2.04,1.15 3,1.88 0.94,0.72 1.98,1.29 2.88,2.05 0.14,0.11 0.26,0.23 0.38,0.33 -0.13,0.65 -0.2,1.3 -0.12,1.95 z"
   id="path2914"
   inkscape:connector-curvature="0"
   style="opacity:0.4;fill:#c6a239" />
			<path
   class="st294"
   d="m 677.82,376.07 c -0.31,0.57 -0.65,1.16 -1.14,1.58 -0.41,0.35 -0.9,0.53 -1.36,0.75 -1.07,-1.49 -1.03,-3.56 -0.71,-5.29 0.19,-1.02 0.4,-2.04 0.75,-3.02 0.3,-0.82 0.62,-1.62 0.75,-2.49 0.22,-1.51 -0.74,-2.98 -1.59,-4.15 -0.47,-0.64 -1.03,-1.24 -1.67,-1.71 -0.7,-0.53 -1.53,-0.84 -2.24,-1.36 -1.37,-1.02 -2.51,-2.38 -4.23,-2.81 -0.82,-0.2 -1.8,-0.28 -2.52,-0.74 -0.96,-0.61 -1.46,-1.64 -1.81,-2.68 -0.21,-0.61 -0.23,-1.81 -0.72,-2.42 0.21,-0.14 0.59,-0.04 0.8,0.02 0.97,0.31 1.51,0.75 2.22,1.45 0.26,0.26 0.92,0.65 1.27,0.74 0.39,0.1 0.84,-0.04 1.24,-0.13 0.82,-0.19 1.63,0.19 2.35,0.52 0.87,0.39 1.68,0.89 2.5,1.36 0.62,0.35 1.5,0.79 1.93,1.37 0.26,0.34 0.43,0.72 0.68,1.06 0.32,0.44 0.79,0.68 1.3,0.84 0.43,0.16 0.79,0.38 1.26,0.47 0.09,0.01 0.17,0.03 0.25,0.07 0.3,0.36 0.56,0.73 0.79,1.12 0.66,1.16 1.16,2.41 1.8,3.58 0.13,0.25 0.28,0.5 0.41,0.76 0.26,0.98 0.46,1.94 0.21,3.02 -0.28,1.25 -0.78,2.42 -1.11,3.66 -0.39,1.46 -0.69,3.06 -1.41,4.43 z"
   id="path2916"
   inkscape:connector-curvature="0"
   style="opacity:0.2;fill:#c6a239" />
			<path
   class="st294"
   d="m 679.22,371.62 c -0.38,1.44 -0.67,3 -1.35,4.34 0.06,-1.48 -0.13,-2.96 -0.11,-4.45 0.01,-1.67 0.18,-3.38 -0.41,-4.99 -0.57,-1.53 -1.54,-3.04 -2.58,-4.29 -0.57,-0.68 -1.2,-1.33 -1.93,-1.81 -0.77,-0.5 -1.61,-0.85 -2.37,-1.36 -1.53,-1.03 -2.94,-2.16 -4.66,-2.88 -0.93,-0.38 -2.04,-0.78 -2.76,-1.52 -0.43,-0.45 -0.76,-0.96 -1.06,-1.51 -0.09,-0.15 -0.18,-0.33 -0.26,-0.51 -0.1,-0.36 -0.21,-0.69 -0.41,-0.94 0.21,-0.14 0.59,-0.04 0.8,0.02 0.97,0.31 1.51,0.75 2.22,1.45 0.26,0.26 0.92,0.65 1.27,0.74 0.39,0.1 0.84,-0.04 1.24,-0.13 0.82,-0.19 1.63,0.19 2.35,0.52 0.87,0.39 1.68,0.89 2.5,1.36 0.62,0.35 1.5,0.79 1.93,1.37 0.26,0.34 0.43,0.72 0.68,1.06 0.32,0.44 0.79,0.68 1.3,0.84 0.43,0.16 0.79,0.38 1.26,0.47 0.09,0.01 0.17,0.03 0.25,0.07 0.3,0.36 0.56,0.73 0.79,1.12 0.66,1.16 1.16,2.41 1.8,3.58 0.13,0.25 0.28,0.5 0.41,0.76 0.26,0.98 0.46,1.94 0.21,3.02 -0.28,1.26 -0.78,2.43 -1.11,3.67 z"
   id="path2918"
   inkscape:connector-curvature="0"
   style="opacity:0.2;fill:#c6a239" />
			<path
   class="st294"
   d="m 679.13,366.42 c 0.08,-0.84 0.1,-1.5 -0.19,-2.31 -0.25,-0.71 -0.53,-1.43 -0.94,-2.07 -0.66,-1.04 -1.66,-2.3 -3,-2.29 -0.55,0 -1.4,0.03 -1.55,-0.67 -0.05,-0.27 -0.05,-0.53 -0.1,-0.79 -0.06,-0.45 -0.23,-0.84 -0.57,-1.15 -0.5,-0.45 -1.08,-0.76 -1.65,-1.09 -0.68,-0.4 -1.31,-0.86 -2.05,-1.18 -0.46,-0.21 -1.02,-0.39 -1.53,-0.29 -0.74,0.14 -1.69,0.78 -2.4,0.29 -0.69,-0.48 -0.96,-1.51 -1.44,-2.26 0.22,0.17 0.42,0.37 0.65,0.59 0.26,0.26 0.92,0.65 1.27,0.74 0.39,0.1 0.84,-0.04 1.24,-0.13 0.82,-0.19 1.63,0.19 2.35,0.52 0.87,0.39 1.68,0.89 2.5,1.36 0.62,0.35 1.5,0.79 1.93,1.37 0.26,0.34 0.43,0.72 0.68,1.06 0.32,0.44 0.79,0.68 1.3,0.84 0.43,0.16 0.79,0.38 1.26,0.47 0.09,0.01 0.17,0.03 0.25,0.07 0.3,0.36 0.56,0.73 0.79,1.12 0.66,1.16 1.16,2.41 1.8,3.58 0.13,0.25 0.28,0.5 0.41,0.76 0.26,0.98 0.46,1.94 0.21,3.02 -0.13,0.57 -0.31,1.13 -0.48,1.68 -0.51,-1.02 -0.86,-2.06 -0.74,-3.24 z"
   id="path2920"
   inkscape:connector-curvature="0"
   style="opacity:0.2;fill:#c6a239" />
		</g>
	</g>
	<g
   id="g2944">
		<path
   class="st295"
   d="m 722.01,377.36 c -0.64,0.02 -1.22,-0.11 -1.82,-0.27 -0.77,-0.2 -1.57,-0.21 -2.34,-0.42 -1.39,-0.39 -2.83,-0.54 -4.22,-0.92 -0.23,-0.07 -0.46,-0.09 -0.68,-0.15 -0.31,-0.09 -0.49,-0.25 -0.79,-0.41 -0.55,-0.31 -0.97,-0.77 -1.44,-1.16 -0.04,-0.04 0,-0.12 0.06,-0.1 0.42,0.21 0.82,0.49 1.21,0.76 0.55,0.39 1.06,0.53 1.69,0.69 1.24,0.32 2.54,0.43 3.78,0.78 0.62,0.17 1.21,0.31 1.85,0.39 0.7,0.09 1.37,0.35 2.06,0.41 0.81,0.07 1.55,-0.05 2.32,-0.32 0.51,-0.19 1.03,-0.43 1.55,-0.55 0.06,-0.01 0.08,0.07 0.03,0.1 -0.9,0.67 -2.12,1.14 -3.26,1.17 z"
   id="path2926"
   inkscape:connector-curvature="0"
   style="fill:#fdeb07;stroke:#e0e1e0;stroke-width:0;stroke-linecap:round;stroke-linejoin:round" />
		<path
   class="st295"
   d="m 739.18,378.08 c -0.35,0.04 -0.69,-0.09 -1.04,-0.05 -0.45,0.05 -0.79,0.06 -1.23,-0.05 -0.39,-0.1 -0.75,-0.32 -1.14,-0.45 -0.49,-0.15 -0.97,-0.31 -1.46,-0.47 -0.5,-0.17 -1.02,-0.32 -1.54,-0.46 -0.55,-0.14 -1.04,0.09 -1.58,0.09 -0.83,-0.01 -1.8,-0.16 -2.58,-0.44 -0.06,-0.02 -0.03,-0.11 0.03,-0.09 0.4,0.07 0.82,0.07 1.22,0.1 0.63,0.04 1.33,0.2 1.93,0.02 0.73,-0.22 1.51,0.13 2.2,0.34 0.85,0.24 1.84,0.53 2.6,0.98 0.48,0.28 1,0.29 1.53,0.23 0.36,-0.03 0.71,0.07 1.07,0.1 0.07,0 0.06,0.14 -0.01,0.15 z"
   id="path2928"
   inkscape:connector-curvature="0"
   style="fill:#fdeb07;stroke:#e0e1e0;stroke-width:0;stroke-linecap:round;stroke-linejoin:round" />
		<path
   class="st295"
   d="m 705.74,366.91 c -0.41,-0.54 -0.86,-1.03 -1.35,-1.51 -0.35,-0.35 -0.75,-0.59 -1.06,-0.98 -0.64,-0.8 -0.33,-2.03 -0.09,-2.91 0.27,-0.97 0.75,-2.02 0.7,-3.04 -0.03,-0.84 0.48,-1.88 1.2,-2.3 0.04,-0.03 0.08,0.02 0.04,0.06 -0.43,0.36 -0.59,0.74 -0.81,1.23 -0.24,0.54 -0.12,1.09 -0.26,1.63 -0.09,0.34 -0.13,0.7 -0.22,1.05 -0.12,0.48 -0.3,0.93 -0.37,1.43 -0.19,1.26 -0.58,2.28 0.58,3.24 0.7,0.56 1.33,1.25 1.71,2.07 0.03,0.03 -0.03,0.07 -0.07,0.03 z"
   id="path2930"
   inkscape:connector-curvature="0"
   style="fill:#fdeb07;stroke:#e0e1e0;stroke-width:0;stroke-linecap:round;stroke-linejoin:round" />
		<path
   class="st295"
   d="m 693.99,373.7 c 0.45,0.36 0.88,0.74 1.34,1.09 0.52,0.38 1.13,0.62 1.64,0.99 0.54,0.4 1.06,0.79 1.62,1.18 0.21,0.16 0.44,0.31 0.66,0.46 0.25,0.18 0.53,0.24 0.79,0.42 0.03,0.02 0,0.07 -0.03,0.05 -0.42,-0.2 -0.84,-0.22 -1.24,-0.47 -0.55,-0.35 -1.17,-0.65 -1.66,-1.08 -0.48,-0.41 -1.1,-0.66 -1.63,-1 -0.55,-0.36 -1.09,-0.76 -1.56,-1.21 -0.46,-0.44 -0.95,-0.86 -1.43,-1.28 -0.54,-0.49 -1.23,-0.65 -1.84,-1.01 -0.52,-0.3 -1.08,-0.59 -1.53,-1.01 -0.48,-0.46 -0.76,-1.08 -1.28,-1.53 -0.53,-0.45 -1.15,-0.74 -1.71,-1.12 -0.57,-0.39 -1.11,-0.83 -1.63,-1.28 -0.94,-0.8 -1.6,-1.89 -2.36,-2.85 -0.47,-0.58 -0.78,-1.24 -1.24,-1.8 -0.37,-0.44 -0.68,-0.92 -0.91,-1.44 -0.47,-1.07 -0.43,-2.33 -0.6,-3.46 0,-0.06 0.08,-0.07 0.1,-0.02 0.17,0.39 0.19,0.81 0.27,1.23 0.12,0.71 0.28,1.46 0.53,2.14 0.19,0.56 0.66,1.08 1.03,1.53 0.47,0.56 0.78,1.22 1.25,1.78 0.79,1 1.46,2.09 2.49,2.86 0.51,0.38 0.97,0.79 1.49,1.14 0.57,0.39 1.17,0.68 1.7,1.13 0.41,0.35 0.71,0.82 1.02,1.24 0.43,0.57 1.31,0.99 1.93,1.28 0.48,0.22 0.95,0.41 1.38,0.72 0.49,0.4 0.91,0.91 1.41,1.32 z"
   id="path2932"
   inkscape:connector-curvature="0"
   style="fill:#fdeb07;stroke:#e0e1e0;stroke-width:0;stroke-linecap:round;stroke-linejoin:round" />
		<path
   class="st295"
   d="m 687.76,359.52 c -1.06,-0.64 -1.98,-1.28 -2.76,-2.24 -0.85,-1.03 -1.56,-2.13 -2.31,-3.24 -0.17,-0.25 -0.32,-0.51 -0.48,-0.76 -0.23,-0.31 -0.58,-0.49 -0.87,-0.71 -0.5,-0.38 -0.99,-0.8 -1.66,-0.85 -0.06,0 -0.06,-0.08 -0.01,-0.08 1.04,-0.04 1.69,0.57 2.48,1.13 0.48,0.35 0.75,1.03 1.1,1.49 0.43,0.59 0.79,1.24 1.21,1.82 0.84,1.15 1.87,2.19 3.05,2.98 1.17,0.81 2.45,1.44 3.68,2.11 0.02,0.02 0.01,0.06 -0.02,0.04 -1.26,-0.37 -2.31,-1.01 -3.41,-1.69 z"
   id="path2934"
   inkscape:connector-curvature="0"
   style="fill:#fdeb07;stroke:#e0e1e0;stroke-width:0;stroke-linecap:round;stroke-linejoin:round" />
		<path
   class="st295"
   d="m 701.4,368.63 c -0.41,-0.49 -0.79,-1.06 -1.13,-1.6 -0.51,-0.8 -1.31,-1.23 -2.11,-1.69 -0.53,-0.3 -1.11,-0.61 -1.59,-0.97 -0.58,-0.42 -1.17,-0.86 -1.81,-1.18 -0.02,0 0,-0.04 0.01,-0.03 1.35,0.58 2.58,1.48 3.86,2.2 1.34,0.74 2.23,1.83 2.92,3.18 0.05,0.1 -0.1,0.16 -0.15,0.09 z"
   id="path2936"
   inkscape:connector-curvature="0"
   style="fill:#fdeb07;stroke:#e0e1e0;stroke-width:0;stroke-linecap:round;stroke-linejoin:round" />
		<path
   class="st295"
   d="m 677.15,377.61 c 0.48,-0.39 0.81,-0.79 1.04,-1.37 0.2,-0.49 0.32,-1.03 0.47,-1.53 0.19,-0.6 0.46,-1.16 0.61,-1.77 0.22,-0.93 0.35,-1.89 0.61,-2.81 0.33,-1.1 0.61,-2.15 0.65,-3.32 -0.01,-0.03 0.06,-0.03 0.06,-0.01 0.25,0.97 0.07,2.07 -0.22,3 -0.37,1.2 -0.53,2.45 -0.87,3.65 -0.18,0.6 -0.46,1.16 -0.62,1.76 -0.16,0.54 -0.32,1.15 -0.6,1.62 -0.48,0.77 -1.52,1.67 -2.46,1.74 -0.04,0 -0.07,-0.07 -0.01,-0.08 0.47,-0.16 0.93,-0.57 1.34,-0.88 z"
   id="path2938"
   inkscape:connector-curvature="0"
   style="fill:#fdeb07;stroke:#e0e1e0;stroke-width:0;stroke-linecap:round;stroke-linejoin:round" />
		<path
   class="st295"
   d="m 672.95,372.11 c -0.68,-0.99 -0.41,-2.27 -0.52,-3.4 -0.04,-0.53 -0.16,-1.03 -0.14,-1.57 0.01,-0.67 -0.23,-1.39 -0.36,-2.05 -0.12,-0.57 -0.14,-1.21 -0.33,-1.75 -0.23,-0.65 -0.95,-1.14 -1.55,-1.4 -0.16,-0.06 -0.35,-0.16 -0.49,-0.25 -0.28,-0.2 -0.59,-0.21 -0.88,-0.39 -0.49,-0.31 -1.01,-0.5 -1.47,-0.86 -0.01,-0.01 0,-0.02 0.01,-0.02 0.55,0.43 1.2,0.69 1.87,0.86 0.47,0.11 0.91,0.43 1.35,0.65 0.8,0.38 1.43,1.16 1.5,2.06 0.06,0.68 0.24,1.45 0.44,2.1 0.19,0.6 0.17,1.09 0.19,1.72 0.04,0.63 0.18,1.24 0.17,1.89 -0.01,0.76 -0.1,1.69 0.23,2.4 0.04,0.01 0,0.03 -0.02,0.01 z"
   id="path2940"
   inkscape:connector-curvature="0"
   style="fill:#fdeb07;stroke:#e0e1e0;stroke-width:0;stroke-linecap:round;stroke-linejoin:round" />
		<path
   class="st295"
   d="m 674.69,355.61 c -0.49,-0.83 -0.26,-1.78 -0.01,-2.65 0.14,-0.52 0.24,-1.11 0.3,-1.66 0.06,-0.57 -0.1,-1.02 -0.23,-1.55 -0.01,-0.03 0.04,-0.05 0.06,-0.02 0.58,0.76 0.53,1.5 0.3,2.41 -0.14,0.57 -0.28,1.14 -0.44,1.7 -0.16,0.57 0.03,1.18 0.09,1.74 0.01,0.04 -0.05,0.07 -0.07,0.03 z"
   id="path2942"
   inkscape:connector-curvature="0"
   style="fill:#fdeb07;stroke:#e0e1e0;stroke-width:0;stroke-linecap:round;stroke-linejoin:round" />
	</g>
</g>










</svg>