<?xml version="1.0" encoding="UTF-8" standalone="no"?>
<!-- Generator: Adobe Illustrator 23.1.0, SVG Export Plug-In . SVG Version: 6.00 Build 0)  -->

<svg
   xmlns:dc="http://purl.org/dc/elements/1.1/"
   xmlns:cc="http://creativecommons.org/ns#"
   xmlns:rdf="http://www.w3.org/1999/02/22-rdf-syntax-ns#"
   xmlns:svg="http://www.w3.org/2000/svg"
   xmlns="http://www.w3.org/2000/svg"
   xmlns:sodipodi="http://sodipodi.sourceforge.net/DTD/sodipodi-0.dtd"
   xmlns:inkscape="http://www.inkscape.org/namespaces/inkscape"
   version="1.1"
   id="Layer_1"
   x="0px"
   y="0px"
   viewBox="0 0 151.1811 151.18109"
   xml:space="preserve"
   sodipodi:docname="2.3.1.svg"
   width="40mm"
   height="40mm"
   inkscape:version="0.92.4 (5da689c313, 2019-01-14)"><metadata
   id="metadata4529"><rdf:RDF><cc:Work
       rdf:about=""><dc:format>image/svg+xml</dc:format><dc:type
         rdf:resource="http://purl.org/dc/dcmitype/StillImage" /><dc:title></dc:title></cc:Work></rdf:RDF></metadata><defs
   id="defs4527" /><sodipodi:namedview
   pagecolor="#ffffff"
   bordercolor="#666666"
   borderopacity="1"
   objecttolerance="10"
   gridtolerance="10"
   guidetolerance="10"
   inkscape:pageopacity="0"
   inkscape:pageshadow="2"
   inkscape:window-width="1024"
   inkscape:window-height="709"
   id="namedview4525"
   showgrid="false"
   units="mm"
   inkscape:zoom="1.1213358"
   inkscape:cx="191.24071"
   inkscape:cy="52.633534"
   inkscape:window-x="0"
   inkscape:window-y="30"
   inkscape:window-maximized="1"
   inkscape:current-layer="Layer_1" />
<style
   type="text/css"
   id="style2">
	.st0{fill:#67A8DB;}
	.st1{opacity:0.4;fill:#327CC0;}
	.st2{fill:#5299D3;}
	.st3{opacity:0.4;fill:#67A8DB;}
	.st4{opacity:0.5;}
	.st5{fill:#5CA1D7;}
	.st6{opacity:0.6;fill:#93C2E8;}
	.st7{opacity:0.6;fill:#67A8DB;}
	.st8{fill:#E76362;}
	.st9{opacity:0.4;fill:#D02527;}
	.st10{fill:#E14949;}
	.st11{opacity:0.4;fill:#E76362;}
	.st12{fill:#E45556;}
	.st13{opacity:0.6;fill:#EF9292;}
	.st14{opacity:0.6;fill:#E76362;}
	.st15{opacity:0.5;fill:#D2EEF9;}
	.st16{opacity:0.4;fill:#0099B0;}
	.st17{fill:#D0D1D1;}
	.st18{opacity:0.4;fill:#036BB1;}
	.st19{opacity:0.5;fill:#B5CCD7;}
	.st20{fill:#ACC1CB;}
	.st21{fill:#FFFFFF;}
	.st22{fill:#DFEFE7;}
	.st23{opacity:0.9;fill:#7ED0E0;}
	.st24{opacity:0.9;fill:#62C2CB;}
	.st25{opacity:0.9;fill:#41B3BF;}
	.st26{fill:#B1C8BC;}
	.st27{fill:#E21E26;}
	.st28{fill:#C1C0C0;}
	.st29{fill:#FCCE08;}
	.st30{opacity:0.7;}
	.st31{fill:#C8C7C6;}
	.st32{opacity:0.9;}
	.st33{fill:#41B3BF;}
	.st34{fill:#E75524;}
	.st35{fill:#62BE6B;}
	.st36{opacity:0.7;fill:#A6A6A6;}
	.st37{opacity:0.3;fill:#5BB353;}
	.st38{fill:#D1D1D1;}
	.st39{fill:#5BB353;}
	.st40{fill:#EDEDED;}
	.st41{fill:#DBDBDB;}
	.st42{fill:#F7F7F7;}
	.st43{fill:#E0E0E0;}
	.st44{fill:#EBEBEB;}
	.st45{fill:#811E18;}
	.st46{fill:#BC2025;}
	.st47{fill:#EB2024;}
	.st48{opacity:0.7;fill:#93CACB;}
	.st49{opacity:0.4;}
	.st50{fill:#919898;}
	.st51{fill:#C2CACB;}
	.st52{opacity:0.4;fill:#82C7DE;}
	.st53{opacity:0.8;fill:#FFFFFF;}
	.st54{opacity:0.5;fill:#FFFFFF;}
	.st55{fill:#FABE79;}
	.st56{fill:#F6AB62;}
	.st57{opacity:0.6;fill:#AE7B47;}
	.st58{fill:#B48049;}
	.st59{fill:#9B703F;}
	.st60{opacity:0.3;fill:#AE7B47;}
	.st61{opacity:0.3;}
	.st62{fill:#9C703E;}
	.st63{opacity:0.3;fill:#9B703F;}
	.st64{opacity:0.5;fill:#F6AB62;}
	.st65{opacity:0.4;fill:#FABE79;}
	.st66{fill:#DBDADA;}
	.st67{opacity:0.4;fill:#B2B4B7;}
	.st68{opacity:0.2;fill:#C1C1B7;}
	.st69{fill:#C2C2C2;}
	.st70{opacity:0.5;fill:#C2C2C2;}
	.st71{fill:#E5E1C6;}
	.st72{opacity:0.5;fill:#D4D1B8;}
	.st73{fill:#E3E3E3;}
	.st74{opacity:0.8;fill:#D4D1B8;}
	.st75{fill:#D4D1B8;}
	.st76{opacity:0.5;fill:#D0B9AD;}
	.st77{opacity:0.4;fill:#D4D1B8;}
	.st78{fill:#D2D1CE;}
	.st79{opacity:0.4;fill:#D2D1CE;}
	.st80{opacity:0.4;fill:#C2C2C2;}
	.st81{fill:#BFC1B8;}
	.st82{fill:#CB484F;}
	.st83{fill:#A7A9A0;}
	.st84{fill:#C3979C;}
	.st85{fill:#C7B88F;}
	.st86{fill:#9ACACB;}
	.st87{fill:#A8A8AB;}
	.st88{opacity:0.6;fill:#BE9C7A;}
	.st89{fill:#A4A391;}
	.st90{opacity:0.6;fill:#C2C2C2;}
	.st91{fill:#789D99;}
	.st92{opacity:0.4;fill:#789D99;}
	.st93{fill:#D1CEB6;}
	.st94{fill:#B8B6A1;}
	.st95{fill:#BAB8A3;}
	.st96{fill:#ABAA97;}
	.st97{fill:#E4E4E2;}
	.st98{opacity:0.6;}
	.st99{fill:#BEA18D;}
	.st100{opacity:0.3;fill:#BEA18D;}
	.st101{opacity:0.2;fill:#BEA18D;}
	.st102{fill:#D9BDA6;}
	.st103{fill:#CCAD93;}
	.st104{fill:#603412;}
	.st105{opacity:0.5;fill:#93816B;}
	.st106{opacity:0.4;fill:#331C0F;}
	.st107{fill:#93816B;}
	.st108{fill:#331C0F;}
	.st109{opacity:0.5;fill:#FFF7EA;}
	.st110{fill:#3F2612;}
	.st111{fill:#D62839;}
	.st112{fill:#F9AE9C;}
	.st113{fill:#4B632D;}
	.st114{opacity:0.5;fill:#86926B;}
	.st115{opacity:0.4;fill:#2E3618;}
	.st116{fill:#86926B;}
	.st117{fill:#2E3618;}
	.st118{opacity:0.5;fill:#F7F9E8;}
	.st119{fill:#34411B;}
	.st120{fill:#D59829;}
	.st121{fill:#FAF39E;}
	.st122{fill:#242424;}
	.st123{fill:#333232;}
	.st124{fill:#5D5D5D;}
	.st125{fill:#161616;}
	.st126{fill:#B3B3B3;}
	.st127{fill:#1A1A1A;}
	.st128{fill:#48893F;}
	.st129{fill:#FBAE1C;}
	.st130{fill:#759C3F;}
	.st131{fill:#56692F;}
	.st132{fill:#CAD631;}
	.st133{opacity:0.7;fill:#A66227;}
	.st134{fill:#BBBBBB;}
	.st135{fill:#A03B22;}
	.st136{fill:#C17529;}
	.st137{fill:#F47B2A;}
	.st138{fill:#792816;}
	.st139{fill:#FFF4EC;}
	.st140{fill:#89361C;}
	.st141{fill:#C3AC9E;}
	.st142{fill:#D3C1B9;}
	.st143{fill:#E2E1D5;}
	.st144{fill:#343225;}
	.st145{fill:#040406;}
	.st146{opacity:0.5;fill:#343225;}
	.st147{fill:#4C4333;}
	.st148{fill:#89877B;}
	.st149{fill:url(#SVGID_3_);}
	.st150{fill:url(#SVGID_4_);}
	.st151{opacity:0.5;fill:url(#SVGID_5_);}
	.st152{fill:url(#SVGID_6_);}
	.st153{fill:url(#SVGID_7_);}
	.st154{fill:url(#SVGID_8_);}
	.st155{fill:url(#SVGID_9_);}
	.st156{fill:url(#SVGID_10_);}
	.st157{opacity:0.3;fill:url(#SVGID_11_);}
	.st158{opacity:0.3;fill:url(#SVGID_12_);}
	.st159{fill:url(#SVGID_13_);}
	.st160{fill:url(#SVGID_14_);}
	.st161{fill:url(#SVGID_15_);}
	.st162{fill:url(#SVGID_16_);}
	.st163{fill:url(#SVGID_17_);}
	.st164{fill:url(#SVGID_18_);}
	.st165{opacity:0.7;fill:url(#SVGID_19_);}
	.st166{fill:url(#SVGID_20_);}
	.st167{filter:url(#Adobe_OpacityMaskFilter);}
	.st168{fill:url(#SVGID_22_);}
	.st169{opacity:0.7;mask:url(#SVGID_21_);fill:url(#SVGID_23_);}
	.st170{fill:url(#SVGID_24_);}
	.st171{opacity:0.5;fill:url(#SVGID_25_);}
	.st172{opacity:0.5;fill:url(#SVGID_26_);}
	.st173{opacity:0.3;fill:url(#SVGID_27_);}
	.st174{filter:url(#Adobe_OpacityMaskFilter_1_);}
	.st175{filter:url(#Adobe_OpacityMaskFilter_2_);}
	.st176{mask:url(#SVGID_28_);fill:url(#SVGID_29_);}
	.st177{fill:url(#SVGID_30_);}
	.st178{filter:url(#Adobe_OpacityMaskFilter_3_);}
	.st179{opacity:0.8;fill:url(#SVGID_32_);}
	.st180{mask:url(#SVGID_31_);}
	.st181{filter:url(#Adobe_OpacityMaskFilter_4_);}
	.st182{filter:url(#Adobe_OpacityMaskFilter_5_);}
	.st183{fill:url(#SVGID_33_);}
	.st184{fill:url(#SVGID_34_);}
	.st185{filter:url(#Adobe_OpacityMaskFilter_6_);}
	.st186{filter:url(#Adobe_OpacityMaskFilter_7_);}
	.st187{mask:url(#SVGID_35_);fill:url(#SVGID_36_);}
	.st188{opacity:0.6;fill:url(#SVGID_37_);}
	.st189{opacity:0.9;fill:url(#SVGID_38_);}
	.st190{fill:url(#SVGID_39_);}
	.st191{opacity:0.3;fill:url(#SVGID_40_);}
	.st192{opacity:0.3;fill:url(#SVGID_41_);}
	.st193{opacity:0.8;fill:url(#SVGID_42_);}
	.st194{fill:#F7DDBC;}
	.st195{fill:#D9B48A;}
	.st196{opacity:0.5;fill:#F7DDBC;}
	.st197{opacity:0.3;fill:#DEAA79;}
	.st198{opacity:0.3;fill:#A47348;}
	.st199{opacity:0.5;fill:#DEAA79;}
	.st200{opacity:0.5;fill:#A47348;}
	.st201{opacity:0.3;fill:#BE905C;}
	.st202{fill:#FFEBD7;}
	.st203{opacity:0.3;fill:#DEB485;}
	.st204{opacity:0.3;fill:#8F622F;}
	.st205{opacity:0.2;fill:#BA915C;}
	.st206{opacity:0.2;fill:#BE905C;}
	.st207{opacity:0.3;fill:#D5AD7A;}
	.st208{opacity:0.5;fill:#D5AD7A;}
	.st209{fill:#17ADE4;}
	.st210{fill:#F99B1C;}
	.st211{opacity:0.2;fill:#D59B29;}
	.st212{opacity:0.5;fill:#D59B29;}
	.st213{opacity:0.5;fill:#B8802B;}
	.st214{fill:#FAD00A;}
	.st215{fill:#EEA320;}
	.st216{opacity:0.4;fill:#FAD00A;}
	.st217{opacity:0.7;fill:#FAD00A;}
	.st218{opacity:0.7;fill:#E7C249;}
	.st219{opacity:0.7;fill:#E9B44A;}
	.st220{fill:#3A5728;}
	.st221{opacity:0.3;fill:#3A5728;}
	.st222{opacity:0.5;fill:#3A5728;}
	.st223{opacity:0.3;fill:#6D9D40;}
	.st224{opacity:0.3;fill:#547B38;}
	.st225{fill:#1C2C17;}
	.st226{opacity:0.3;fill:#1A381C;}
	.st227{fill:#152A17;}
	.st228{fill:#F8BC16;}
	.st229{opacity:0.2;fill:#F8BC16;}
	.st230{opacity:0.1;fill:#F8BC16;}
	.st231{opacity:0.3;fill:#E09426;}
	.st232{opacity:0.3;fill:#D98B28;}
	.st233{fill:#CE6F28;}
	.st234{fill:#A65225;}
	.st235{fill:#D88E28;}
	.st236{fill:#BD6728;}
	.st237{fill:#F09F20;}
	.st238{fill:#D37A28;}
	.st239{fill:#A2C83A;}
	.st240{opacity:0.2;fill:#A2C83A;}
	.st241{fill:#ECACCE;}
	.st242{fill:#CB6BAA;}
	.st243{fill:#FACB84;}
	.st244{fill:#F8BA58;}
	.st245{fill:#F3A846;}
	.st246{opacity:0.5;fill:#FACB84;}
	.st247{opacity:0.5;fill:#F8BA58;}
	.st248{fill:#80461D;}
	.st249{opacity:0.7;fill:#ECACCE;}
	.st250{opacity:0.7;fill:#FACB84;}
	.st251{fill:#356531;}
	.st252{opacity:0.2;fill:#356531;}
	.st253{opacity:0.5;fill:#356531;}
	.st254{fill:#508B3F;}
	.st255{fill:#117A3D;}
	.st256{opacity:0.4;fill:#508B3F;}
	.st257{opacity:0.7;fill:#508B3F;}
	.st258{fill:#467135;}
	.st259{opacity:0.2;fill:#467135;}
	.st260{opacity:0.3;fill:#467135;}
	.st261{fill:#203C1C;}
	.st262{fill:#142716;}
	.st263{fill:#325628;}
	.st264{fill:#193019;}
	.st265{fill:#20552A;}
	.st266{opacity:0.5;fill:#508B3F;}
	.st267{opacity:0.5;fill:#A2C83A;}
	.st268{fill:#88171A;}
	.st269{fill:#C02326;}
	.st270{fill:#A61E22;}
	.st271{opacity:0.4;fill:#C02326;}
	.st272{opacity:0.7;fill:#C02326;}
	.st273{opacity:0.2;fill:#A61E22;}
	.st274{opacity:0.3;fill:#A61E22;}
	.st275{fill:#62130C;}
	.st276{fill:#451310;}
	.st277{fill:#791514;}
	.st278{fill:#861719;}
	.st279{fill:#FECF0A;}
	.st280{opacity:0.4;fill:#C6A239;}
	.st281{opacity:0.2;fill:#E4A33A;}
	.st282{opacity:0.3;fill:#B8A137;}
	.st283{opacity:0.3;fill:#FECF0A;}
	.st284{fill:#F5B41A;}
	.st285{opacity:0.6;fill:#CFAE2B;}
	.st286{opacity:0.4;fill:#CFAE2B;}
	.st287{fill:#98772C;}
	.st288{fill:#FFD86D;}
	.st289{fill:#E59F24;}
	.st290{fill:#ECB31F;}
	.st291{fill:#E8B321;}
	.st292{opacity:0.3;fill:#E4A33A;}
	.st293{opacity:0.3;fill:#D48E64;}
	.st294{opacity:0.2;fill:#C6A239;}
	.st295{fill:#FDEB07;stroke:#E0E1E0;stroke-width:0;stroke-linecap:round;stroke-linejoin:round;}
	.st296{fill:#BCBAA3;}
	.st297{fill:#55813B;}
	.st298{fill:#32421B;}
	.st299{opacity:0.3;fill:#517636;}
	.st300{fill:#6E953E;}
	.st301{opacity:0.2;fill:#3A5728;}
	.st302{fill:#42793A;}
	.st303{fill:#F6871F;}
	.st304{opacity:0.2;fill:#E66725;}
	.st305{fill:#D65027;}
	.st306{fill:#CB5727;}
	.st307{opacity:0.2;}
	.st308{fill:#AD6427;}
	.st309{opacity:0.3;fill:#E66725;}
	.st310{opacity:0.5;fill:#DC8127;}
	.st311{fill:#D5D1C5;}
	.st312{fill:#DCB399;}
	.st313{fill:#EAC6AF;}
	.st314{opacity:0.5;fill:#EAC6AF;}
	.st315{opacity:0.5;fill:#E9DEDE;}
	.st316{opacity:0.6;fill:#E9DEDE;}
	.st317{fill:#F7D8C1;}
	.st318{fill:none;}
	.st319{opacity:0.3;fill:#C49374;}
	.st320{fill:#6F903C;}
	.st321{opacity:0.4;fill:#3A5728;}
	.st322{opacity:0.5;fill:#6F903C;}
	.st323{opacity:0.5;fill:#7C963B;}
	.st324{fill:#516A30;}
	.st325{opacity:0.2;fill:#E0E1E0;}
	.st326{opacity:0.2;fill:#C2CACB;}
	.st327{opacity:0.5;fill:#C2CACB;}
	.st328{opacity:0.2;fill:#645C51;}
	.st329{fill:#FAFAFA;}
	.st330{fill:#D6D6D6;}
	.st331{opacity:0.3;fill:#B4C0B2;}
	.st332{fill:#BDBDBD;}
	.st333{fill:#961B1E;}
	.st334{fill:#AF2F24;}
	.st335{fill:#C53127;}
	.st336{fill:#76533F;}
	.st337{fill:#533A2A;}
	.st338{opacity:0.7;fill:#E94466;}
	.st339{fill:#D91F26;}
	.st340{fill:#F6DAB4;}
	.st341{fill:#D2A47F;}
	.st342{fill:#B4B4B4;}
	.st343{fill:#E88B38;}
	.st344{fill:#FBAD47;}
	.st345{fill:#CFB581;}
	.st346{fill:#594D41;}
	.st347{fill:#FDF8F2;}
	.st348{opacity:0.5;fill:#E88B38;}
	.st349{fill:#DDDCD8;}
	.st350{opacity:0.8;fill:#E88B38;}
	.st351{opacity:0.5;fill:#594D41;}
	.st352{fill:#F89A1C;}
	.st353{opacity:0.4;fill:#FDC110;}
	.st354{fill:#FEE600;}
	.st355{fill:#FDC110;}
	.st356{fill:#7CBDE8;}
	.st357{opacity:0.6;fill:#5BB353;}
	.st358{fill:#046CA6;}
	.st359{opacity:0.3;fill:#046CA6;}
	.st360{opacity:0.3;fill:#20ABE3;}
	.st361{fill:#754138;}
	.st362{fill:#6A2116;}
	.st363{fill:#381512;}
</style>






















<g
   id="g2812"
   transform="translate(-605.45278,-161.33514)">
	<g
   id="g2678">
		<g
   id="g2666">
			<g
   id="g2664">
				<g
   id="g2568">
					<path
   class="st268"
   d="m 683.8,236.47 c -1.41,-4.08 -2.72,-8.21 -4.28,-12.23 -1.17,-3.02 -2.49,-6.01 -4.22,-8.75 -0.57,0.19 -1.13,0.41 -1.68,0.71 -1.28,0.7 -2.26,1.72 -3.31,2.68 -1.11,-0.76 -2.49,-1.07 -3.79,-1.35 -1.42,-0.32 -2.59,-0.15 -3.94,0.33 -2.94,1.03 -4.58,3.4 -5.35,6.3 -0.79,3.01 -1.85,6.78 0.01,9.59 0.67,1.02 2.31,1.73 3.36,2.33 1.63,0.94 3.05,2.3 4.55,3.42 0.7,0.51 1.35,1.01 1.98,1.62 0.86,0.85 0.75,1.92 0.81,3.02 0.03,0.57 0.14,1.41 0.47,1.9 0.38,0.58 1.43,0.91 1.99,1.35 0.76,0.57 1.04,1.1 1.22,2.05 0.2,1.11 -0.28,1.67 -0.81,2.58 -0.61,1.05 -1.17,2.54 -1.03,3.77 0.15,1.22 1.25,2.17 2.22,2.71 0.57,0.33 0.79,0.54 1.49,0.59 1,0.06 1.98,0.35 2.98,0.39 1.17,0.05 2.62,-0.49 3.52,-1.25 0.47,-0.38 1.28,-1.17 1.97,-0.95 0.7,0.23 1.66,0.15 2.38,0.07 0.89,-0.09 1.49,-0.42 1.89,-0.91 0.15,-0.02 0.31,-0.04 0.45,-0.07 0.79,-0.13 1.53,-0.39 2.21,-0.75 -0.99,-6.54 -2.92,-12.93 -5.09,-19.15 z"
   id="path2560"
   inkscape:connector-curvature="0"
   style="fill:#88171a" />
					<path
   class="st211"
   d="m 683.8,236.47 c -1.41,-4.08 -2.72,-8.21 -4.28,-12.23 -1.17,-3.02 -2.49,-6.01 -4.22,-8.75 -0.57,0.19 -1.13,0.41 -1.68,0.71 -1.28,0.7 -2.26,1.72 -3.31,2.68 -1.11,-0.76 -2.49,-1.07 -3.79,-1.35 -1.42,-0.32 -2.59,-0.15 -3.94,0.33 -0.32,0.11 -0.64,0.25 -0.93,0.39 0.22,0.75 -0.02,1.74 -0.01,2.45 0.01,0.67 0.11,1.45 0.86,1.67 0.65,0.19 1.28,0.01 1.93,0.04 1.46,0.07 2,1.37 1.86,2.7 -0.12,1.04 -0.46,2.09 -0.36,3.15 0.09,0.87 0.34,1.71 0.82,2.45 0.93,1.46 2.34,2.51 3.58,3.69 1.18,1.14 2.13,2.49 3.07,3.82 0.95,1.34 1.95,2.79 2.37,4.39 0.3,1.15 0.41,2.83 -0.9,3.38 -1.24,0.53 -2.98,0.01 -3.91,-0.89 -1.31,-1.26 -1.6,-3.07 -2.54,-4.56 -1.17,-1.85 -3.61,-2.18 -5.55,-2.86 0.75,0.6 1.5,1.24 2.27,1.81 0.7,0.51 1.35,1.01 1.98,1.62 0.86,0.85 0.75,1.92 0.81,3.02 0.03,0.57 0.14,1.41 0.47,1.9 0.38,0.58 1.43,0.91 1.99,1.35 0.76,0.57 1.04,1.1 1.22,2.05 0.2,1.11 -0.28,1.67 -0.81,2.58 -0.61,1.05 -1.17,2.54 -1.03,3.77 0.15,1.22 1.25,2.17 2.22,2.71 0.57,0.33 0.79,0.54 1.49,0.59 1,0.06 1.98,0.35 2.98,0.39 1.17,0.05 2.62,-0.49 3.52,-1.25 0.47,-0.38 1.28,-1.17 1.97,-0.95 0.7,0.23 1.66,0.15 2.38,0.07 0.89,-0.09 1.49,-0.42 1.89,-0.91 0.15,-0.02 0.31,-0.04 0.45,-0.07 0.79,-0.13 1.53,-0.39 2.21,-0.75 -0.98,-6.53 -2.91,-12.92 -5.08,-19.14 z"
   id="path2562"
   inkscape:connector-curvature="0"
   style="opacity:0.2;fill:#d59b29" />
					<path
   class="st212"
   d="m 683.8,236.47 c -1.41,-4.08 -2.72,-8.21 -4.28,-12.23 -1.17,-3.02 -2.49,-6.01 -4.22,-8.75 -0.57,0.19 -1.13,0.41 -1.68,0.71 -1.28,0.7 -2.26,1.72 -3.31,2.68 -1.11,-0.76 -2.49,-1.07 -3.79,-1.35 -0.51,-0.11 -0.98,-0.16 -1.44,-0.16 0.62,0.64 1.49,0.98 2.16,1.6 0.91,0.85 0.71,1.82 0.72,2.96 0.01,2.06 0.85,3.75 2.04,5.37 0.93,1.27 1.61,2.54 2.03,4.07 0.35,1.29 1.13,2.26 1.7,3.47 0.48,0.97 1.71,2.62 2.18,3.59 1.06,2.08 0.52,3.91 1.49,6.02 0.75,1.63 1.81,3.56 1.57,5.43 -0.11,0.92 -0.55,1.46 -1.05,2.21 -0.52,0.77 -0.55,1.62 -0.91,2.45 -0.57,1.3 -2.14,2.25 -3.56,2.19 -1.71,-0.07 -2.42,-1.5 -2.26,-3.06 0.08,-0.72 0.14,-1.58 0.05,-2.41 -0.14,0.25 -0.29,0.49 -0.46,0.76 -0.61,1.05 -1.17,2.54 -1.03,3.77 0.15,1.22 1.25,2.17 2.22,2.71 0.57,0.33 0.79,0.54 1.49,0.59 1,0.06 1.98,0.35 2.98,0.39 1.17,0.05 2.62,-0.49 3.52,-1.25 0.47,-0.38 1.28,-1.17 1.97,-0.95 0.7,0.23 1.66,0.15 2.38,0.07 0.89,-0.09 1.49,-0.42 1.89,-0.91 0.15,-0.02 0.31,-0.04 0.45,-0.07 0.79,-0.13 1.53,-0.39 2.21,-0.75 -0.96,-6.54 -2.89,-12.93 -5.06,-19.15 z"
   id="path2564"
   inkscape:connector-curvature="0"
   style="opacity:0.5;fill:#d59b29" />
					<path
   class="st213"
   d="m 686.46,244.77 c -2.39,-0.07 -4.63,0.62 -6.87,1.48 0.09,0.34 0.17,0.68 0.23,1.03 0.21,0.63 0.32,1.29 0.39,1.96 0.06,0.49 0.1,0.97 0.01,1.46 -0.1,0.52 -0.28,1.05 -0.29,1.58 -0.03,1.1 0.69,1.56 0.99,2.5 0.21,0.63 -0.07,1.04 -0.66,1.3 -0.17,0.08 -0.4,0.08 -0.57,0.18 -0.34,0.2 -0.37,0.61 -0.49,0.94 -0.16,0.4 -0.37,0.76 -0.68,1.07 -0.66,0.67 -1.5,0.96 -2.4,1.18 0.11,0.01 0.21,0.02 0.3,0.02 1.17,0.05 2.62,-0.49 3.52,-1.25 0.47,-0.38 1.28,-1.17 1.97,-0.95 0.7,0.23 1.66,0.15 2.38,0.07 0.89,-0.09 1.49,-0.42 1.89,-0.91 0.15,-0.02 0.31,-0.04 0.45,-0.07 0.79,-0.13 1.53,-0.39 2.21,-0.75 -0.52,-3.66 -1.36,-7.27 -2.38,-10.84 z"
   id="path2566"
   inkscape:connector-curvature="0"
   style="opacity:0.5;fill:#b8802b" />
				</g>
				<g
   id="g2584">
					<path
   class="st269"
   d="m 697.18,214.79 c -0.75,-1.93 -1.89,-2.95 -3.5,-4.14 -1.23,-0.91 -2.81,-1.85 -4.42,-1.54 -1.86,0.36 -3.03,1.11 -4.35,2.48 -0.62,0.64 -1.04,1.45 -1.69,2.07 -0.33,0.33 -0.81,0.5 -1.11,0.87 l 0.22,0.27 c -1.35,-0.54 -3.2,-0.12 -4.57,0.13 -0.64,0.11 -1.25,0.25 -1.84,0.42 1.76,2.81 3.12,5.87 4.28,8.96 1.57,4.13 2.95,8.35 4.39,12.53 2.07,6.04 3.92,12.24 4.87,18.56 0.39,-0.23 0.76,-0.49 1.12,-0.79 0.93,-0.78 1.84,-1.48 2.42,-2.55 0.07,0.37 0.13,0.73 0.17,1.07 0.09,0.52 -0.1,1.22 0.25,1.69 0.98,1.29 3.09,1.27 4.55,1.02 1.04,-0.19 2.73,-0.78 3.31,-1.75 0.01,-0.03 0.03,-0.06 0.03,-0.08 1.12,-1.02 0.61,-2.87 -0.03,-3.94 -0.98,-1.65 -0.95,-4 -1.3,-5.89 -0.07,-0.38 -0.14,-0.76 -0.21,-1.13 -0.07,-1.64 -0.07,-3.17 -0.94,-4.72 -0.46,-0.83 -1,-1.52 -1.51,-2.31 -0.64,-0.98 -0.54,-2.1 -0.42,-3.19 0.03,-0.2 0.03,-0.4 0.06,-0.61 0.06,-0.35 0.12,-0.7 0.19,-1.06 0.17,-0.87 0.41,-1.73 0.57,-2.61 0.17,-0.98 0.23,-1.98 0.55,-2.93 0.63,-1.88 0.92,-3.4 0.56,-5.38 -0.34,-1.93 -0.94,-3.64 -1.65,-5.45 z"
   id="path2570"
   inkscape:connector-curvature="0"
   style="fill:#c02326" />
					<path
   class="st270"
   d="m 696.92,230.54 c -0.17,0.98 -0.56,1.91 -0.75,2.91 -0.21,1.18 -0.37,2.39 -0.56,3.58 -0.26,1.74 0.02,3.33 0.72,4.93 0.03,0.06 0.09,-0.06 0.08,-0.09 -0.55,-2.09 -0.55,-4.04 -0.21,-6.17 0.19,-1.09 0.28,-2.17 0.47,-3.25 0.12,-0.63 0.31,-1.28 0.31,-1.93 0,-0.08 -0.04,-0.02 -0.06,0.02 z"
   id="path2572"
   inkscape:connector-curvature="0"
   style="fill:#a61e22" />
					<path
   class="st271"
   d="m 698.5,218.7 c 0.06,0.48 0.13,0.98 0.1,1.46 -0.04,0.76 -0.32,1.33 -0.63,2 -0.44,0.96 -0.37,2.02 -0.5,3.05 -0.13,1.09 -0.4,2.17 -0.85,3.18 -0.71,1.61 -1.04,3.17 -1.07,4.95 -0.01,0.61 0.28,3.2 -0.59,3.45 -0.66,0.19 -0.86,-0.86 -0.96,-1.29 -0.64,-2.95 -2.08,-5.66 -2.75,-8.62 -0.47,-2.1 0.06,-4.21 -0.11,-6.33 -0.1,-1.17 -0.46,-2.34 -1.31,-3.2 -0.82,-0.81 -1.89,-1.34 -2.58,-2.28 -0.55,-0.72 -0.64,-1.53 0.12,-2.17 0.9,-0.75 0.72,-2.15 -0.19,-2.51 -0.15,-0.06 -0.39,-0.12 -0.61,-0.21 -0.57,0.37 -1.09,0.84 -1.65,1.42 -0.62,0.64 -1.04,1.45 -1.69,2.07 -0.35,0.33 -0.82,0.47 -1.11,0.83 -1.36,-0.53 -2.98,0.18 -4.35,0.44 -0.63,0.11 -1.24,0.25 -1.85,0.42 1.76,2.8 3.12,5.87 4.3,8.95 1.56,4.13 2.95,8.35 4.38,12.53 2.07,6.04 3.92,12.24 4.86,18.56 0.39,-0.22 0.77,-0.49 1.13,-0.79 0.93,-0.78 1.84,-1.48 2.42,-2.55 0.07,0.36 0.13,0.72 0.18,1.07 0.08,0.52 -0.11,1.22 0.24,1.68 0.98,1.3 3.09,1.28 4.55,1.02 1.04,-0.19 2.73,-0.78 3.3,-1.75 0.01,-0.02 0.02,-0.05 0.03,-0.07 1.13,-1.03 0.61,-2.87 -0.02,-3.94 -0.99,-1.66 -0.96,-4 -1.31,-5.89 -0.06,-0.37 -0.13,-0.75 -0.21,-1.13 -0.08,-1.64 -0.08,-3.17 -0.93,-4.72 -0.46,-0.84 -1,-1.51 -1.52,-2.31 -0.62,-0.98 -0.52,-2.1 -0.41,-3.19 0.02,-0.2 0.03,-0.4 0.06,-0.61 0.06,-0.35 0.13,-0.7 0.2,-1.06 0.17,-0.87 0.42,-1.73 0.57,-2.61 0.17,-0.97 0.23,-1.97 0.54,-2.92 0.64,-1.9 0.93,-3.4 0.57,-5.38 -0.09,-0.52 -0.22,-1.04 -0.35,-1.55 z"
   id="path2574"
   inkscape:connector-curvature="0"
   style="opacity:0.4;fill:#c02326" />
					<path
   class="st272"
   d="m 701.29,250.05 c -0.9,-1.51 -0.95,-3.58 -1.21,-5.37 -0.11,0.69 -0.17,1.38 0.01,2.1 0.15,0.65 0.43,1.26 0.55,1.92 0.05,0.31 0.06,0.63 0.1,0.95 0.09,0.22 0.19,0.44 0.28,0.65 0.66,1.65 -1.09,1.95 -2.28,1.81 -3.19,-0.36 -3.73,-4.62 -4.43,-7.09 -0.45,-1.57 -0.64,-3.19 -0.84,-4.81 -0.64,-5.4 -3.06,-12.01 -3.87,-13.94 -1.44,-3.45 0.22,-9.03 -3.88,-10.96 -0.47,-0.22 -2.92,-1.12 -3.38,-0.54 -1.35,-0.53 -3.21,-0.12 -4.57,0.13 -0.63,0.12 -1.24,0.26 -1.84,0.42 1.76,2.81 3.12,5.87 4.29,8.95 1.56,4.14 2.95,8.35 4.39,12.54 2.07,6.04 3.92,12.24 4.86,18.56 0.39,-0.23 0.77,-0.49 1.11,-0.79 0.95,-0.78 1.85,-1.49 2.43,-2.55 0.07,0.37 0.13,0.73 0.19,1.07 0.07,0.52 -0.12,1.22 0.23,1.68 0.98,1.3 3.09,1.28 4.55,1.02 1.03,-0.19 2.72,-0.78 3.3,-1.74 0.02,-0.03 0.03,-0.06 0.03,-0.08 1.13,-1.01 0.62,-2.85 -0.02,-3.93 z"
   id="path2576"
   inkscape:connector-curvature="0"
   style="opacity:0.7;fill:#c02326" />
					<path
   class="st272"
   d="m 701.58,252.93 c -0.36,0.57 -0.82,0.7 -1.46,0.76 -0.82,0.07 -1.51,0.41 -2.27,0.69 -0.45,0.15 -0.97,0.33 -1.44,0.18 -0.66,-0.19 -1.05,-0.75 -1.31,-1.36 -0.35,-0.83 0.06,-1.82 -0.03,-2.69 -0.3,-3.1 -1.53,-3.98 -1.51,-6.28 0,-0.79 -0.53,-4.42 -0.85,-5.16 -0.19,-0.47 -0.08,1.72 -0.25,1.22 -0.29,-0.83 -0.47,-1.72 -0.89,-2.5 -1.11,-2.06 -3.57,-1.92 -5.52,-2.62 -0.73,-0.26 -1.53,-0.53 -2.31,-0.85 0.28,0.83 0.57,1.67 0.85,2.5 2.07,6.04 3.92,12.24 4.87,18.57 0.39,-0.23 0.76,-0.49 1.12,-0.8 0.93,-0.78 1.84,-1.48 2.42,-2.54 0.07,0.36 0.13,0.72 0.18,1.07 0.08,0.52 -0.1,1.22 0.24,1.69 0.98,1.29 3.1,1.27 4.55,1.01 1.04,-0.18 2.74,-0.78 3.31,-1.75 0.01,-0.03 0.03,-0.05 0.03,-0.07 0.61,-0.56 0.74,-1.36 0.62,-2.15 -0.04,0.39 -0.15,0.76 -0.35,1.08 z"
   id="path2578"
   inkscape:connector-curvature="0"
   style="opacity:0.7;fill:#c02326" />
					<path
   class="st272"
   d="m 695.3,255.35 c -0.69,-0.69 -1.45,-1.03 -1.32,-2.12 0.06,-0.52 0.1,-1.66 0.14,-3.68 -0.5,0.63 -1.08,1.18 -1.41,1.95 -0.24,0.56 -0.42,1.14 -0.55,1.73 0.32,-0.35 0.62,-0.72 0.86,-1.15 0.07,0.36 0.13,0.72 0.18,1.07 0.08,0.52 -0.11,1.22 0.24,1.68 0.81,1.07 2.4,1.25 3.74,1.13 -0.69,0 -1.38,-0.12 -1.88,-0.61 z"
   id="path2580"
   inkscape:connector-curvature="0"
   style="opacity:0.7;fill:#c02326" />
					<path
   class="st272"
   d="m 696.29,237.55 c 0.04,-0.67 0.69,-0.88 1.23,-0.75 -0.17,-0.25 -0.34,-0.49 -0.5,-0.75 -0.57,-0.89 -0.53,-1.91 -0.44,-2.91 -0.1,0.27 -0.19,0.54 -0.26,0.8 -0.41,1.34 -0.78,2.66 -0.73,4.08 0.08,2.07 0.72,4.14 1.91,5.85 -0.06,-0.19 -0.09,-0.39 -0.12,-0.6 -0.13,-0.76 -0.55,-1.38 -0.78,-2.1 -0.22,-0.7 -0.15,-1.33 -0.14,-2.05 0,-0.53 -0.2,-1.03 -0.17,-1.57 z"
   id="path2582"
   inkscape:connector-curvature="0"
   style="opacity:0.7;fill:#c02326" />
				</g>
				<g
   id="g2612">
					<path
   class="st220"
   d="m 685.85,211.02 c -0.16,0.13 -0.34,0.25 -0.53,0.37 0.01,-0.01 0.03,-0.02 0.03,-0.03 0.29,-0.39 0.85,-1 0.75,-1.54 -0.03,-0.18 -0.24,-0.04 -0.32,0.04 -0.84,0.96 -2.18,1.78 -3.5,1.92 0.45,-0.49 0.75,-1.11 0.79,-1.94 0,-0.07 -0.15,-0.17 -0.2,-0.12 -0.46,0.46 -0.79,0.99 -1.26,1.44 -0.63,0.59 -1.51,0.91 -2.3,1.21 -0.91,0.34 -1.87,0.48 -2.78,0.8 -0.36,-1.01 -0.79,-1.98 -1.28,-2.89 -0.39,-0.74 -1.31,-1.3 -1.95,-1.81 -0.76,-0.62 -1.6,-1.21 -2.47,-1.7 -1.44,-0.8 -3.65,-0.58 -5.23,-0.47 -1.3,0.09 -2.67,0.68 -4.12,1.47 -0.59,0.08 -1.17,0.2 -1.73,0.39 -0.39,0.14 -0.75,0.13 -0.99,0.47 -0.28,0.39 0.3,1.37 0.41,1.72 0.2,0.57 0.56,1.14 0.87,1.65 0.26,0.42 0.44,0.97 0.77,1.33 0.45,0.47 1.36,0.68 1.98,0.76 0.02,0 0.04,0 0.07,0 0.03,0.01 0.06,0 0.07,-0.01 1.01,-0.79 1.56,-2.22 2.14,-3.32 0.19,-0.34 0.36,-0.68 0.55,-1.02 0.06,-0.11 0.19,-0.32 0.32,-0.39 0.12,-0.06 0.34,0.91 0.37,1.24 0.06,0.51 0.35,0.29 0.64,0.15 0.35,-0.16 0.98,-0.71 1.27,-1.03 0.35,0.47 0.82,0.84 1.33,1.06 0.52,0.22 1.17,0.22 1.71,0.43 0.61,0.24 1.22,0.5 1.84,0.68 1.08,0.3 1.02,0.8 0.97,2.29 -0.02,0.41 -1.59,0.6 -1.96,0.67 -1.3,0.26 -3.03,0.37 -4.19,0.2 -0.33,-0.05 -0.65,-0.33 -0.67,-0.07 -0.03,0.54 0.17,1.46 0.4,1.89 -0.91,0.02 -1.53,-0.34 -2.38,-0.73 -0.1,-0.04 -0.48,-0.12 -0.46,0.1 0.2,2.57 4.24,3.73 5.98,2 0.21,-0.16 0.4,-0.34 0.59,-0.52 0.48,-0.6 0.99,-1.17 1.64,-1.62 1.08,-0.76 2.53,-1.31 3.81,-1.64 1.34,-0.35 3.07,-0.41 4.51,0.08 1.04,-0.26 2,-0.72 2.87,-1.4 0.59,-0.47 1.75,-1.29 1.82,-2.12 0.07,-0.14 -0.13,-0.04 -0.18,0.01 z"
   id="path2586"
   inkscape:connector-curvature="0"
   style="fill:#3a5728" />
					<path
   class="st221"
   d="m 685.85,211.02 c -0.16,0.13 -0.34,0.25 -0.53,0.37 0.01,-0.01 0.03,-0.02 0.03,-0.03 0.29,-0.39 0.85,-1 0.75,-1.54 -0.03,-0.18 -0.24,-0.04 -0.32,0.04 -0.84,0.96 -2.18,1.78 -3.5,1.92 0.45,-0.47 0.73,-1.09 0.79,-1.91 -0.32,1.29 -1.78,2.52 -2.82,3.04 -0.94,0.47 -2.22,0.77 -3.25,0.42 -0.15,-0.05 -0.26,-0.12 -0.33,-0.21 -0.06,0.02 -0.09,0.03 -0.14,0.04 -0.17,-0.49 -0.37,-0.97 -0.57,-1.44 -0.63,-0.81 -1.31,-1.54 -2.28,-1.97 -0.84,-0.38 -1.69,-0.67 -2.42,-1.24 -0.75,-0.6 -1.33,-1.5 -2.31,-1.73 -0.91,-0.21 -1.89,-0.17 -2.82,-0.01 -0.86,0.16 -1.66,0.42 -2.51,0.68 -0.52,0.17 -1.23,0.37 -1.43,0.96 -0.08,0.24 -0.15,0.48 -0.28,0.7 -0.25,0.42 -0.9,0.26 -1.23,0.09 -0.36,-0.17 -0.72,-0.42 -1.11,-0.52 -0.27,-0.07 -0.55,-0.07 -0.82,-0.04 -0.27,0.39 0.3,1.37 0.41,1.71 0.2,0.57 0.56,1.14 0.87,1.65 0.26,0.42 0.44,0.97 0.77,1.33 0.45,0.47 1.36,0.68 1.98,0.76 0.02,0 0.04,0 0.07,0 0.03,0.01 0.06,0 0.07,-0.01 1.01,-0.79 1.56,-2.22 2.14,-3.32 0.19,-0.34 0.36,-0.68 0.55,-1.02 0.06,-0.11 0.19,-0.32 0.32,-0.39 0.12,-0.06 0.34,0.91 0.37,1.24 0.06,0.51 0.35,0.29 0.64,0.15 0.35,-0.16 0.98,-0.71 1.27,-1.03 0.35,0.47 0.82,0.84 1.33,1.06 0.52,0.22 1.17,0.22 1.71,0.43 0.61,0.24 1.22,0.5 1.84,0.68 1.08,0.3 1.02,0.8 0.97,2.29 -0.02,0.41 -1.59,0.6 -1.96,0.67 -1.3,0.26 -3.03,0.37 -4.19,0.2 -0.33,-0.05 -0.65,-0.33 -0.67,-0.07 -0.03,0.54 0.17,1.46 0.4,1.89 -0.91,0.02 -1.53,-0.34 -2.38,-0.73 -0.1,-0.04 -0.48,-0.12 -0.46,0.1 0.2,2.57 4.24,3.73 5.98,2 0.21,-0.16 0.4,-0.34 0.59,-0.52 0.48,-0.6 0.99,-1.17 1.64,-1.62 1.08,-0.76 2.53,-1.31 3.81,-1.64 1.34,-0.35 3.07,-0.41 4.51,0.08 1.04,-0.26 2,-0.72 2.87,-1.4 0.59,-0.47 1.75,-1.29 1.82,-2.12 0.08,-0.14 -0.12,-0.04 -0.17,0.01 z"
   id="path2588"
   inkscape:connector-curvature="0"
   style="opacity:0.3;fill:#3a5728" />
					<path
   class="st221"
   d="m 685.85,211.02 c -0.16,0.13 -0.34,0.25 -0.53,0.37 0.01,-0.01 0.03,-0.02 0.03,-0.03 0.2,-0.28 0.55,-0.66 0.69,-1.05 -0.03,0.02 -0.06,0.04 -0.08,0.06 -0.57,0.41 -1.15,0.75 -1.69,1.2 -0.52,0.43 -1.03,0.77 -1.69,0.91 -0.28,0.05 -0.55,-0.05 -0.82,0.02 -0.28,0.1 -0.54,0.25 -0.75,0.44 -0.25,0.18 -0.56,0.31 -0.84,0.39 -1.49,0.41 -3.22,1.22 -4.78,1 -0.29,-0.04 -0.5,-0.3 -0.52,-0.59 -0.02,-0.54 0.18,-1.48 -0.14,-1.94 -0.29,-0.41 -0.89,-0.58 -1.37,-0.59 -0.56,-0.02 -1.08,-0.07 -1.62,-0.28 -1.02,-0.41 -1.96,-1.03 -2.7,-1.84 -1.17,-1.26 -1.35,1.16 -2.16,0.57 -0.6,-0.43 -0.85,-1.11 -1.26,-1.66 -1.11,-0.99 -1.5,1.64 -1.76,2.27 -0.2,0.48 -0.67,0.83 -1.17,0.94 -0.74,0.17 -1.22,-0.13 -1.7,-0.67 -0.06,-0.05 -0.1,-0.11 -0.15,-0.16 -0.28,0.55 -0.49,1.13 -0.72,1.73 0.22,0.41 0.41,0.91 0.72,1.24 0.45,0.47 1.36,0.68 1.98,0.76 0.02,0 0.04,0 0.07,0 0.03,0.01 0.06,0 0.07,-0.01 1.01,-0.79 1.56,-2.22 2.14,-3.32 0.19,-0.34 0.36,-0.68 0.55,-1.02 0.06,-0.11 0.19,-0.32 0.32,-0.39 0.12,-0.06 0.34,0.91 0.37,1.24 0.06,0.51 0.35,0.29 0.64,0.15 0.35,-0.16 0.98,-0.71 1.27,-1.03 0.35,0.47 0.82,0.84 1.33,1.06 0.52,0.22 1.17,0.22 1.71,0.43 0.61,0.24 1.22,0.5 1.84,0.68 1.08,0.3 1.02,0.8 0.97,2.29 0,0.06 -0.03,0.11 -0.09,0.16 -0.28,1.1 -2.38,1.57 -3.3,1.63 -1.28,0.09 -2.6,-0.2 -3.4,-1.07 -0.01,0.02 -0.01,0.04 -0.02,0.08 -0.03,0.54 0.17,1.46 0.4,1.89 -0.91,0.02 -1.53,-0.34 -2.38,-0.73 -0.1,-0.04 -0.48,-0.12 -0.46,0.1 0.2,2.57 4.24,3.73 5.98,2 0.21,-0.16 0.4,-0.34 0.59,-0.52 0.48,-0.6 0.99,-1.17 1.64,-1.62 1.08,-0.76 2.53,-1.31 3.81,-1.64 1.34,-0.35 3.07,-0.41 4.51,0.08 1.04,-0.26 2,-0.72 2.87,-1.4 0.59,-0.47 1.75,-1.29 1.82,-2.12 0.03,-0.16 -0.17,-0.06 -0.22,-0.01 z"
   id="path2590"
   inkscape:connector-curvature="0"
   style="opacity:0.3;fill:#3a5728" />
					<path
   class="st222"
   d="m 674.13,214.05 c 0.26,-0.49 0.39,-1.04 0.28,-1.63 -0.23,-1.07 -1.58,-0.96 -2.4,-1.23 -0.78,-0.25 -1.53,-0.55 -2.31,-0.8 -0.42,-0.15 -0.75,-0.25 -1.04,-0.58 -0.08,-0.09 -0.37,-0.95 -0.66,-0.53 -0.12,0.18 -0.21,0.35 -0.33,0.52 -0.17,0.25 -0.34,0.5 -0.66,0.54 -0.57,0.05 -0.64,-0.96 -0.84,-1.3 -0.55,-0.92 -1.04,1.29 -1.08,1.51 -0.03,0.18 -0.09,0.34 -0.15,0.51 0.06,-0.1 0.1,-0.19 0.15,-0.29 0.19,-0.34 0.36,-0.68 0.55,-1.02 0.06,-0.11 0.19,-0.32 0.32,-0.39 0.12,-0.06 0.34,0.91 0.37,1.24 0.06,0.51 0.35,0.29 0.64,0.15 0.35,-0.16 0.98,-0.71 1.27,-1.03 0.35,0.47 0.82,0.84 1.33,1.06 0.52,0.22 1.17,0.22 1.71,0.43 0.61,0.24 1.22,0.5 1.84,0.68 1.07,0.29 1.06,0.78 1.01,2.16 z"
   id="path2592"
   inkscape:connector-curvature="0"
   style="opacity:0.5;fill:#3a5728" />
					<path
   class="st223"
   d="m 662.36,213.25 c -0.68,0 -1.4,-0.22 -1.97,-0.63 0.12,0.26 0.27,0.51 0.45,0.7 0.45,0.47 1.36,0.68 1.98,0.76 0.02,0 0.04,0 0.07,0 0.03,0.01 0.06,0 0.07,-0.01 0.6,-0.47 1.04,-1.16 1.42,-1.87 -0.48,0.63 -1.16,1.06 -2.02,1.05 z"
   id="path2594"
   inkscape:connector-curvature="0"
   style="opacity:0.3;fill:#6d9d40" />
					<path
   class="st224"
   d="m 686.04,210.3 c -0.14,0.28 -0.36,0.51 -0.6,0.72 -0.65,0.56 -1.35,1.07 -1.97,1.67 -0.71,0.68 -1.42,0.93 -2.38,1.08 -0.52,0.1 -1.02,0.23 -1.48,0.42 0.6,0.03 1.22,0.14 1.78,0.33 0.72,-0.18 1.39,-0.45 2.03,-0.83 0.68,-0.42 1.42,-1.02 1.96,-1.52 0.39,-0.37 1.07,-1.46 0.51,-1.21 -0.02,0.01 -0.04,0.02 -0.05,0.03 -0.16,0.13 -0.34,0.25 -0.53,0.37 0.01,-0.01 0.03,-0.02 0.03,-0.03 0.21,-0.26 0.56,-0.64 0.7,-1.03 z"
   id="path2596"
   inkscape:connector-curvature="0"
   style="opacity:0.3;fill:#547b38" />
					<path
   class="st224"
   d="m 675.09,214.91 c -0.88,0.11 -1.74,0.36 -2.49,0.82 -0.71,0.44 -1.33,1.01 -2.02,1.48 -1.08,0.74 -2.31,1.26 -3.62,0.79 -0.81,-0.3 -1.49,-0.78 -2.02,-1.4 0.53,2.31 4.26,3.29 5.91,1.64 0.21,-0.16 0.4,-0.34 0.59,-0.52 0.48,-0.6 0.99,-1.17 1.64,-1.62 0.72,-0.51 1.6,-0.92 2.48,-1.23 -0.17,0.01 -0.32,0.01 -0.47,0.04 z"
   id="path2598"
   inkscape:connector-curvature="0"
   style="opacity:0.3;fill:#547b38" />
					<path
   class="st225"
   d="m 660.06,208.97 c -0.28,-0.29 -0.83,-0.65 -1.19,-0.44 -0.03,0.02 -0.06,0.06 -0.09,0.1 -0.28,0.39 0.3,1.37 0.41,1.72 0.2,0.57 0.56,1.14 0.87,1.65 0.26,0.42 0.44,0.97 0.77,1.33 0.45,0.47 1.36,0.68 1.98,0.76 0.02,0 0.04,0 0.07,0 0.03,0.01 0.06,0 0.07,-0.01 0.06,-0.04 0.12,-0.09 0.18,-0.15 0.17,-0.17 -0.75,-1.8 -1.22,-2.55 -0.46,-0.74 -1.03,-1.55 -1.85,-2.41 z"
   id="path2600"
   inkscape:connector-curvature="0"
   style="fill:#1c2c17" />
					<path
   class="st226"
   d="m 662.07,211.62 c 0.01,0.48 -0.55,0.46 -0.97,0.23 -0.99,-0.54 -1.66,-1.69 -1.98,-2.74 -0.08,-0.27 -0.08,-0.48 -0.01,-0.65 -0.09,0.01 -0.18,0.02 -0.23,0.06 -0.03,0.02 -0.06,0.06 -0.09,0.1 -0.28,0.39 0.3,1.37 0.41,1.72 0.2,0.57 0.56,1.14 0.87,1.65 0.26,0.42 0.44,0.97 0.77,1.33 0.45,0.47 1.36,0.68 1.98,0.76 0.02,0 0.04,0 0.07,0 0.03,0.01 0.06,0 0.07,-0.01 0.06,-0.04 0.12,-0.09 0.18,-0.15 0.15,-0.15 -0.57,-1.48 -1.07,-2.3 z"
   id="path2602"
   inkscape:connector-curvature="0"
   style="opacity:0.3;fill:#1a381c" />
					<path
   class="st226"
   d="m 661.22,212.93 c -0.88,-0.72 -1.58,-1.72 -2.09,-2.74 v 0 c 0.02,0.06 0.04,0.11 0.06,0.16 0.2,0.57 0.56,1.14 0.87,1.65 0.26,0.42 0.44,0.97 0.77,1.33 0.45,0.47 1.36,0.68 1.98,0.76 0.02,0 0.04,0 0.07,0 0.03,0.01 0.06,0 0.07,-0.01 0.06,-0.04 0.12,-0.09 0.18,-0.15 0.06,-0.06 -0.03,-0.34 -0.2,-0.7 -0.46,0.4 -1.3,0.04 -1.71,-0.3 z"
   id="path2604"
   inkscape:connector-curvature="0"
   style="opacity:0.3;fill:#1a381c" />
					<path
   class="st227"
   d="m 669.22,208.14 c -0.68,-0.84 -1.93,-1.73 -3.09,-1.51 -0.01,0 -0.04,0.07 -0.01,0.07 1.2,-0.07 2.25,0.78 3.07,1.52 0.02,0.03 0.05,-0.05 0.03,-0.08 z"
   id="path2606"
   inkscape:connector-curvature="0"
   style="fill:#152a17" />
					<path
   class="st227"
   d="m 668.88,207.22 c -0.03,-0.02 -0.06,0.09 -0.03,0.11 0.39,0.29 0.73,0.66 0.97,1.08 0.02,0.04 0.05,-0.04 0.05,-0.07 -0.21,-0.49 -0.54,-0.85 -0.99,-1.12 z"
   id="path2608"
   inkscape:connector-curvature="0"
   style="fill:#152a17" />
					<path
   class="st227"
   d="m 660.15,208.59 c -0.03,-0.01 -0.06,0.07 -0.03,0.08 0.93,0.63 1.56,1.57 2.22,2.46 0.02,0.02 0.06,-0.06 0.04,-0.09 -0.6,-0.91 -1.27,-1.88 -2.23,-2.45 z"
   id="path2610"
   inkscape:connector-curvature="0"
   style="fill:#152a17" />
				</g>
				<g
   id="g2622">
					<path
   class="st270"
   d="m 693.7,246.23 c -0.83,-2.44 -0.5,-5.05 -1.02,-7.53 -0.32,-1.53 -0.73,-3.01 -1,-4.54 -0.22,-1.21 -0.5,-2.47 -0.86,-3.64 -0.81,-2.69 -1.98,-5.29 -2.14,-8.14 -0.15,-2.26 -0.8,-4.44 -2.51,-5.96 -0.93,-0.8 -1.79,-1.58 -2.92,-2.11 -1.14,-0.55 -2.18,-0.64 -3.43,-0.61 -1.2,0.02 -2.13,0.03 -3.31,0.34 -1.1,0.3 -2.01,1.04 -3.03,1.49 -0.53,0.23 -0.95,0.63 -1.4,1.02 -0.06,0.04 -0.11,0.08 -0.17,0.13 -0.1,0.1 -0.22,0.19 -0.32,0.29 -0.15,0.1 -0.28,0.19 -0.41,0.27 -0.43,0.25 -0.82,0.61 -1.08,1.04 -0.76,0.87 -0.95,2 -1.07,3.13 -0.17,1.52 0.21,3.27 0.78,4.68 0.28,0.69 0.77,1.3 1.22,1.9 0.64,0.89 1.19,1.86 1.73,2.83 0.85,1.51 1.89,2.91 2.68,4.46 0.86,1.66 1.51,3.61 1.95,5.42 0.37,1.61 1.04,2.92 1.71,4.41 0.78,1.73 1.69,3.1 1.66,5.06 -0.03,1.67 0.39,2.83 1.15,4.27 0.57,1.05 1.46,2.49 2.59,2.98 0.98,0.44 2.52,0.09 3.52,-0.1 0.59,-0.1 1.44,-0.1 2,-0.38 0.56,-0.27 1.06,-0.64 1.58,-0.97 1.59,-1.02 2.07,-3.59 2.52,-5.31 0.35,-1.38 0.02,-3.12 -0.42,-4.43 z"
   id="path2614"
   inkscape:connector-curvature="0"
   style="fill:#a61e22" />
					<path
   class="st273"
   d="m 692.68,238.7 c -0.32,-1.53 -0.72,-3.01 -1,-4.55 -0.21,-1.21 -0.5,-2.47 -0.85,-3.64 -0.82,-2.69 -1.97,-5.29 -2.15,-8.14 -0.1,-1.64 -0.48,-3.25 -1.34,-4.59 0.06,0.37 0.06,0.77 0.04,1.19 -0.04,0.89 -0.24,1.72 -0.47,2.57 -0.29,1.1 -0.52,2.2 -0.82,3.29 -0.31,1.12 -0.71,2.2 -0.98,3.32 -0.29,1.22 -0.19,2.32 0.18,3.51 0.33,1.06 0.78,2.09 1.02,3.17 0.23,1.02 0.22,1.98 0.17,3.02 -0.06,1.14 -0.1,2.3 0.44,3.34 0.48,0.93 1.13,1.76 1.71,2.63 0.98,1.45 2.05,3.16 1.75,4.99 -0.18,1.15 -0.81,2.3 -2.04,2.56 -1.17,0.25 -2.4,-0.2 -3.23,-1.04 -1.37,-1.38 -1.72,-3.1 -1.55,-4.99 0.1,-1.06 -0.01,-1.79 -0.85,-2.5 -0.68,-0.59 -1.43,-1.14 -1.92,-1.9 -0.88,-1.35 -0.88,-2.89 -1.29,-4.4 -0.28,-1.04 -0.68,-1.9 -1.58,-2.54 -0.57,-0.4 -1.21,-0.72 -1.74,-1.18 -0.53,-0.47 -0.99,-1.06 -1.15,-1.76 -0.25,-0.97 -0.03,-2.11 -0.49,-3.01 -0.87,-1.73 -2.87,-2.22 -3.96,-3.72 -0.86,-1.16 -1.12,-2.77 -0.77,-4.17 0.29,-1.19 0.9,-2.2 1.67,-3.12 -0.1,0.07 -0.19,0.14 -0.29,0.19 -0.43,0.26 -0.82,0.62 -1.08,1.05 -0.77,0.87 -0.96,1.99 -1.07,3.13 -0.17,1.52 0.21,3.26 0.79,4.67 0.27,0.69 0.77,1.3 1.2,1.89 0.65,0.9 1.2,1.86 1.73,2.83 0.84,1.51 1.89,2.91 2.69,4.46 0.85,1.66 1.51,3.61 1.93,5.42 0.38,1.61 1.04,2.93 1.71,4.41 0.78,1.73 1.69,3.1 1.65,5.07 -0.02,1.67 0.39,2.83 1.15,4.27 0.56,1.05 1.47,2.49 2.58,2.98 0.98,0.44 2.53,0.08 3.52,-0.1 0.6,-0.11 1.44,-0.1 2,-0.38 0.56,-0.27 1.06,-0.64 1.59,-0.98 1.6,-1.02 2.06,-3.6 2.51,-5.31 0.37,-1.37 0.04,-3.11 -0.41,-4.43 -0.81,-2.42 -0.47,-5.03 -1,-7.51 z"
   id="path2616"
   inkscape:connector-curvature="0"
   style="opacity:0.2;fill:#a61e22" />
					<path
   class="st274"
   d="m 692.66,238.72 c -0.23,-1.13 -0.51,-2.23 -0.76,-3.34 0.19,1.47 0.46,2.93 0.59,4.4 0.18,1.79 0.13,3.55 0.37,5.33 0.2,1.49 0.46,3.11 0.06,4.59 -0.29,1.05 -0.9,2 -1.75,2.62 -0.41,0.4 -0.88,0.74 -1.37,0.99 -2.28,1.16 -6.02,0.92 -6.84,-2 -0.31,-1.08 -0.19,-2.23 -0.49,-3.3 -0.28,-0.99 -0.89,-1.6 -1.62,-2.28 -1.29,-1.18 -2.23,-2.56 -3,-4.13 -0.19,-0.42 -0.41,-0.85 -0.6,-1.28 0.03,0.13 0.07,0.26 0.11,0.39 0.37,1.6 1.04,2.92 1.71,4.4 0.78,1.74 1.69,3.11 1.66,5.06 -0.03,1.67 0.39,2.84 1.15,4.28 0.56,1.05 1.47,2.48 2.59,2.98 0.98,0.44 2.52,0.08 3.52,-0.1 0.59,-0.11 1.44,-0.11 2,-0.38 0.57,-0.27 1.06,-0.64 1.59,-0.98 1.59,-1.02 2.06,-3.6 2.51,-5.31 0.37,-1.38 0.05,-3.12 -0.4,-4.43 -0.84,-2.42 -0.5,-5.03 -1.03,-7.51 z"
   id="path2618"
   inkscape:connector-curvature="0"
   style="opacity:0.3;fill:#a61e22" />
					<path
   class="st274"
   d="m 693.78,250.98 c -0.35,0.55 -0.8,1.03 -1.14,1.58 -0.26,0.43 -0.46,0.92 -0.79,1.3 -0.23,0.26 -0.54,0.44 -0.83,0.6 -0.62,0.35 -1.01,0.95 -1.6,1.35 -0.9,0.6 -1.98,0.92 -3.06,0.82 -0.91,-0.09 -2.18,-0.4 -2.74,-1.22 -0.35,-0.49 -0.53,-1.1 -0.94,-1.55 -0.38,-0.4 -0.84,-0.77 -1.13,-1.25 -0.41,-0.67 -0.63,-1.42 -0.82,-2.17 0.01,1.53 0.42,2.64 1.14,4 0.56,1.05 1.47,2.48 2.58,2.97 0.99,0.44 2.53,0.09 3.52,-0.09 0.61,-0.11 1.45,-0.1 2,-0.37 0.57,-0.27 1.06,-0.65 1.58,-0.98 1.6,-1.02 2.07,-3.59 2.53,-5.31 0.06,-0.17 0.08,-0.35 0.1,-0.54 -0.1,0.3 -0.24,0.59 -0.4,0.86 z"
   id="path2620"
   inkscape:connector-curvature="0"
   style="opacity:0.3;fill:#a61e22" />
				</g>
				<g
   id="g2646">
					<path
   class="st275"
   d="m 663.52,227.88 c -0.05,-0.1 -0.12,-0.18 -0.21,-0.25 -0.16,-0.1 -0.35,-0.05 -0.52,-0.08 -0.2,-0.03 -0.43,0.05 -0.61,0.12 -0.31,0.12 -0.53,0.5 -0.27,0.76 0.3,0.31 0.1,0.81 0.48,1.12 0.3,0.25 0.86,0.06 1.22,0.19 0.35,0.12 0.55,-0.39 0.51,-0.65 -0.06,-0.45 -0.25,-0.91 -0.6,-1.21 z"
   id="path2624"
   inkscape:connector-curvature="0"
   style="fill:#62130c" />
					<path
   class="st276"
   d="m 663.59,228.39 c -0.03,-0.07 -0.08,-0.14 -0.15,-0.18 -0.12,-0.07 -0.25,-0.03 -0.37,-0.06 -0.15,-0.03 -0.31,0.03 -0.44,0.09 -0.23,0.09 -0.39,0.35 -0.19,0.54 0.21,0.22 0.08,0.59 0.35,0.81 0.21,0.18 0.62,0.04 0.88,0.13 0.24,0.09 0.39,-0.28 0.37,-0.46 -0.05,-0.32 -0.2,-0.64 -0.45,-0.87 z"
   id="path2626"
   inkscape:connector-curvature="0"
   style="fill:#451310" />
					<path
   class="st276"
   d="m 674.42,238 c -0.48,-0.85 -1.44,-1.39 -2.17,-2 -0.67,-0.56 -1.09,-0.87 -1.98,-0.92 -0.65,-0.04 -1.18,-0.6 -1.89,-0.36 -0.94,0.34 -1.8,0.8 -1.3,1.93 0.32,0.71 -0.07,1.3 0.07,2.01 0.03,0.1 0.11,0.2 0.22,0.31 0.28,0.68 1.04,1.16 1.17,1.94 0.07,0.38 0.39,0.73 0.59,1.05 0.27,0.42 0.42,0.93 0.58,1.39 0.13,0.36 0.44,0.52 0.74,0.71 0.36,0.24 0.6,0.62 0.96,0.86 0.95,0.64 1.84,1.68 2.79,0.38 0.38,-0.51 0.49,-1.05 0.55,-1.69 0.1,-1.17 0.37,-2.26 0.59,-3.41 0.15,-0.71 -0.58,-1.63 -0.92,-2.2 z"
   id="path2628"
   inkscape:connector-curvature="0"
   style="fill:#451310" />
					<g
   id="g2632">
						<path
   class="st275"
   d="m 674.42,238 c -0.48,-0.85 -1.44,-1.39 -2.17,-2 -0.67,-0.56 -1.09,-0.87 -1.98,-0.92 -0.65,-0.04 -1.18,-0.6 -1.89,-0.36 -0.94,0.34 -1.8,0.8 -1.3,1.93 0.32,0.71 -0.07,1.3 0.07,2.01 0.03,0.1 0.11,0.2 0.22,0.31 0.28,0.68 1.04,1.16 1.17,1.94 0.07,0.38 0.39,0.73 0.59,1.05 0.27,0.42 0.42,0.93 0.58,1.39 0.13,0.36 0.44,0.52 0.74,0.71 0.36,0.24 0.6,0.62 0.96,0.86 0.65,0.44 1.28,1.05 1.9,1 -0.48,-0.05 -0.96,-0.52 -1.45,-0.84 -0.3,-0.2 -0.52,-0.53 -0.82,-0.74 -0.26,-0.16 -0.52,-0.3 -0.63,-0.6 -0.13,-0.39 -0.26,-0.82 -0.49,-1.18 -0.18,-0.27 -0.45,-0.57 -0.51,-0.9 -0.12,-0.66 -0.76,-1.06 -1,-1.64 -0.1,-0.08 -0.15,-0.17 -0.18,-0.26 -0.12,-0.6 0.21,-1.1 -0.06,-1.7 -0.43,-0.97 0.3,-1.36 1.11,-1.64 0.59,-0.21 1.04,0.27 1.6,0.3 0.75,0.03 1.11,0.3 1.67,0.78 0.63,0.51 1.44,0.98 1.85,1.71 0.26,0.43 0.77,1.09 0.81,1.67 0.04,-0.22 0.09,-0.44 0.12,-0.67 0.16,-0.72 -0.57,-1.64 -0.91,-2.21 z"
   id="path2630"
   inkscape:connector-curvature="0"
   style="fill:#62130c" />
					</g>
					<path
   class="st275"
   d="m 675.36,248.7 c -0.62,-0.3 -1.13,-0.67 -1.69,-0.13 -0.18,0.17 -0.28,0.4 -0.34,0.64 -0.07,0.17 -0.12,0.36 -0.15,0.52 -0.04,0.29 0.24,0.55 0.29,0.84 0.09,0.42 0.31,0.82 0.52,1.2 0.37,0.69 0.88,0.73 1.36,0.09 0.26,-0.34 0.71,-0.46 0.94,-0.83 0.17,-0.26 0.26,-0.57 0.36,-0.87 0.33,-1 -0.62,-1.14 -1.29,-1.46 z"
   id="path2634"
   inkscape:connector-curvature="0"
   style="fill:#62130c" />
					<path
   class="st276"
   d="m 675.23,248.68 c -0.52,-0.25 -0.95,-0.57 -1.43,-0.11 -0.14,0.15 -0.24,0.34 -0.29,0.54 -0.06,0.14 -0.1,0.3 -0.12,0.45 -0.05,0.26 0.2,0.47 0.24,0.7 0.07,0.37 0.26,0.71 0.43,1.03 0.32,0.59 0.75,0.63 1.16,0.08 0.22,-0.28 0.6,-0.39 0.81,-0.7 0.14,-0.23 0.23,-0.49 0.3,-0.74 0.28,-0.85 -0.54,-0.98 -1.1,-1.25 z"
   id="path2636"
   inkscape:connector-curvature="0"
   style="fill:#451310" />
					<path
   class="st277"
   d="m 685.37,238.94 c -0.33,-0.18 -0.65,-0.56 -0.97,-0.79 -0.27,-0.2 -0.66,-0.19 -0.99,-0.28 -0.52,-0.15 -1.11,0.11 -1.33,0.61 -0.21,0.49 0.08,0.83 0.41,1.15 0.17,0.38 0.34,0.66 0.39,1.08 0.03,0.34 -0.03,0.63 0.06,0.95 0.16,0.55 0.95,0.33 1.25,0.12 0.48,-0.32 0.9,-1.09 1.14,-1.59 0.2,-0.42 0.64,-0.93 0.04,-1.25 z"
   id="path2638"
   inkscape:connector-curvature="0"
   style="fill:#791514" />
					<path
   class="st276"
   d="m 685.23,239.36 c -0.23,-0.13 -0.45,-0.43 -0.66,-0.6 -0.19,-0.16 -0.48,-0.16 -0.7,-0.24 -0.37,-0.12 -0.79,0.05 -0.97,0.4 -0.17,0.34 0.03,0.59 0.26,0.83 0.1,0.28 0.23,0.49 0.24,0.79 0.01,0.24 -0.05,0.44 0.01,0.68 0.1,0.39 0.66,0.27 0.88,0.12 0.35,-0.2 0.68,-0.74 0.86,-1.1 0.17,-0.29 0.5,-0.63 0.08,-0.88 z"
   id="path2640"
   inkscape:connector-curvature="0"
   style="fill:#451310" />
					<path
   class="st278"
   d="m 696.44,243.24 c -0.07,-0.33 -0.26,-0.64 -0.43,-0.92 -0.14,-0.22 -0.3,-0.59 -0.53,-0.72 -0.2,-0.11 -0.41,0.17 -0.48,0.32 -0.08,0.15 -0.08,0.29 -0.06,0.45 0.03,0.16 0.02,0.33 0.01,0.49 -0.07,0.18 -0.06,0.31 -0.05,0.52 0.03,0.36 -0.01,0.74 0.01,1.09 0.03,0.46 0.93,0.1 1.11,-0.01 0.53,-0.32 0.54,-0.62 0.42,-1.22 z"
   id="path2642"
   inkscape:connector-curvature="0"
   style="fill:#861719" />
					<path
   class="st276"
   d="m 696.07,243.44 c -0.06,-0.22 -0.17,-0.43 -0.3,-0.62 -0.1,-0.15 -0.2,-0.4 -0.36,-0.48 -0.13,-0.08 -0.28,0.11 -0.32,0.21 -0.05,0.1 -0.06,0.2 -0.03,0.31 0.01,0.11 0.01,0.22 0,0.33 -0.05,0.11 -0.03,0.21 -0.02,0.35 0.01,0.25 -0.01,0.5 0,0.74 0.03,0.31 0.64,0.07 0.77,-0.01 0.32,-0.22 0.34,-0.43 0.26,-0.83 z"
   id="path2644"
   inkscape:connector-curvature="0"
   style="fill:#451310" />
				</g>
				<g
   class="st4"
   id="g2662"
   style="opacity:0.5">
					<path
   class="st269"
   d="m 685.09,218.43 c -0.1,-0.51 -0.26,-0.95 -0.58,-1.37 -0.37,-0.47 -0.93,-0.78 -1.37,-1.17 -0.51,-0.42 -0.93,-0.87 -1.55,-1.14 -0.54,-0.23 -1.18,-0.27 -1.76,-0.32 -1.31,-0.12 -2.71,-0.22 -3.99,0.25 -0.61,0.23 -1.2,0.53 -1.73,0.89 -0.45,0.29 -0.77,0.75 -1.2,1.04 -0.03,0.02 0.03,0.02 0.06,0.02 1.06,-0.62 1.89,-1.53 3.14,-1.83 1.53,-0.37 3.08,-0.26 4.61,0 0.68,0.12 1.2,0.51 1.69,0.95 0.42,0.38 0.86,0.72 1.3,1.09 1.08,0.91 1.08,2.39 0.99,3.7 -0.04,0.53 -0.16,1.06 -0.16,1.59 0,0.67 0.19,1.31 0.13,2 -0.08,1.19 -1.11,2.18 -1.11,3.37 -0.01,1.15 0.1,2.51 0.56,3.57 0.48,1.14 0.68,2.4 0.87,3.61 0,0.03 0.1,0.01 0.12,-0.02 0.12,-1.2 -0.28,-2.56 -0.7,-3.66 -0.27,-0.69 -0.37,-1.4 -0.39,-2.14 -0.03,-0.75 -0.19,-1.45 0.1,-2.17 0.26,-0.67 0.59,-1.31 0.83,-1.99 0.21,-0.62 0.21,-1.2 0.12,-1.85 -0.21,-1.47 0.34,-2.95 0.02,-4.42 z"
   id="path2648"
   inkscape:connector-curvature="0"
   style="fill:#c02326" />
					<path
   class="st269"
   d="m 696.21,214.36 c -0.38,-0.56 -0.7,-1.17 -1.14,-1.7 -0.46,-0.54 -1.18,-0.66 -1.74,-1.04 -1,-0.69 -1.39,-2.06 -2.67,-2.26 -1.15,-0.18 -2.54,0.02 -3.47,0.77 -0.04,0.04 0.06,0.05 0.08,0.03 1.09,-0.7 3.18,-1.15 4.17,-0.09 0.34,0.38 0.61,0.83 0.95,1.21 0.37,0.4 0.85,0.69 1.34,0.89 0.61,0.25 1.05,0.56 1.4,1.13 0.27,0.46 0.57,0.89 0.88,1.33 0.36,0.49 0.51,1.15 0.75,1.69 0.26,0.58 0.42,1.2 0.65,1.79 0.02,0.04 0.15,0.02 0.13,-0.03 -0.29,-1.23 -0.6,-2.67 -1.33,-3.72 z"
   id="path2650"
   inkscape:connector-curvature="0"
   style="fill:#c02326" />
					<path
   class="st269"
   d="m 659.77,220.31 c -0.82,0.77 -1.34,1.54 -1.75,2.57 -0.47,1.22 -0.62,2.56 -1.13,3.76 -0.48,1.12 -0.28,2.49 -0.16,3.67 0.07,0.66 -0.08,1.16 0.19,1.8 0.2,0.47 0.46,1.06 0.93,1.32 0.03,0.01 0.11,-0.02 0.08,-0.03 -0.39,-0.33 -0.6,-1.07 -0.77,-1.54 -0.19,-0.52 -0.03,-1.08 -0.04,-1.61 -0.05,-1.21 -0.26,-2.46 0.16,-3.62 0.4,-1.09 0.53,-2.26 0.9,-3.35 0.18,-0.55 0.35,-1.16 0.7,-1.62 0.33,-0.42 0.65,-0.88 0.96,-1.32 0.03,-0.06 -0.05,-0.05 -0.07,-0.03 z"
   id="path2652"
   inkscape:connector-curvature="0"
   style="fill:#c02326" />
					<path
   class="st269"
   d="m 660.76,235.23 c -0.78,-0.37 -1.71,-0.68 -2.34,-1.28 -0.02,-0.02 -0.08,0 -0.06,0.02 0.53,0.69 1.45,1.12 2.29,1.35 0.02,-0.01 0.18,-0.06 0.11,-0.09 z"
   id="path2654"
   inkscape:connector-curvature="0"
   style="fill:#c02326" />
					<path
   class="st269"
   d="m 689.03,246.61 c -0.28,-0.37 -0.14,-0.9 -0.36,-1.29 -0.26,-0.43 -0.64,-0.76 -0.89,-1.2 -0.21,-0.4 -0.49,-0.81 -0.79,-1.15 -0.36,-0.38 -0.57,-0.84 -0.88,-1.25 -0.03,-0.03 -0.13,0.01 -0.1,0.04 0.23,0.33 0.3,0.71 0.58,1 0.24,0.25 0.46,0.64 0.63,0.93 0.2,0.34 0.39,0.69 0.63,1.01 0.26,0.37 0.55,0.62 0.64,1.09 0.08,0.33 0.09,0.63 0.26,0.94 0.13,0.23 0.27,0.33 0.36,0.62 0.06,0.2 0.08,0.42 0.12,0.62 0.15,0.79 -0.16,2.27 -0.93,2.67 -0.03,0.02 0.02,0.04 0.03,0.03 0.7,-0.23 0.91,-0.83 1.1,-1.5 0.25,-0.87 0.16,-1.84 -0.4,-2.56 z"
   id="path2656"
   inkscape:connector-curvature="0"
   style="fill:#c02326" />
					<path
   class="st269"
   d="m 697.89,238.49 c -0.03,-0.03 -0.13,0 -0.1,0.04 0.46,0.68 0.93,1.36 0.82,2.22 -0.09,0.7 0.1,1.45 0.19,2.15 0.06,0.41 -0.09,0.8 0,1.22 0.08,0.38 0.22,0.75 0.29,1.14 0.17,0.83 0.22,1.63 0.5,2.45 0,0.02 0.06,0.01 0.06,-0.01 -0.22,-0.83 -0.27,-1.64 -0.39,-2.48 -0.06,-0.39 -0.18,-0.76 -0.24,-1.15 -0.08,-0.48 0.07,-0.96 0.01,-1.44 -0.03,-0.38 -0.05,-0.76 -0.11,-1.15 -0.06,-0.37 0.03,-0.74 0.01,-1.11 -0.02,-0.76 -0.61,-1.32 -1.04,-1.88 z"
   id="path2658"
   inkscape:connector-curvature="0"
   style="fill:#c02326" />
					<path
   class="st269"
   d="m 671.82,217.25 c -0.08,0.12 -0.24,0.22 -0.35,0.32 -0.1,0.09 -0.17,0.22 -0.25,0.32 -0.09,0.1 -0.19,0.2 -0.27,0.3 -0.09,0.1 -0.1,0.23 -0.13,0.36 -0.01,0.04 0.08,0.01 0.1,0 0.1,-0.12 0.15,-0.26 0.28,-0.38 0.1,-0.1 0.19,-0.2 0.28,-0.31 0.08,-0.1 0.14,-0.21 0.23,-0.31 0.07,-0.08 0.15,-0.17 0.19,-0.29 -0.01,-0.04 -0.07,-0.02 -0.08,-0.01 z"
   id="path2660"
   inkscape:connector-curvature="0"
   style="fill:#c02326" />
				</g>
			</g>
		</g>
		<g
   id="g2676">
			<path
   class="st240"
   d="m 671.25,215.19 c -1.1,0.02 -2.29,0.38 -3.34,-0.11 -0.01,-0.01 -0.1,0.01 -0.06,0.03 0.96,0.6 2.36,0.3 3.4,0.15 0.05,-0.02 0.08,-0.07 0,-0.07 z"
   id="path2668"
   inkscape:connector-curvature="0"
   style="opacity:0.2;fill:#a2c83a" />
			<path
   class="st240"
   d="m 667.07,206.22 c -1.13,0.02 -2.29,0.23 -3.36,0.61 -0.66,0.23 -1.26,0.54 -1.86,0.9 -0.73,0.44 -1.42,0.45 -2.23,0.55 -0.03,0 -0.12,0.07 -0.03,0.07 0.51,0.04 0.91,0.12 1.42,-0.02 0.59,-0.17 1.1,-0.5 1.62,-0.82 0.66,-0.41 1.56,-0.72 2.31,-0.89 0.71,-0.15 1.4,-0.35 2.13,-0.38 0.01,-0.01 0.03,-0.02 0,-0.02 z"
   id="path2670"
   inkscape:connector-curvature="0"
   style="opacity:0.2;fill:#a2c83a" />
			<path
   class="st240"
   d="m 673.98,209.1 c -0.55,-0.46 -1.14,-0.87 -1.73,-1.29 -0.59,-0.42 -1.28,-0.78 -1.92,-1.11 -0.53,-0.28 -1.06,-0.25 -1.61,-0.4 -0.01,0 -0.05,0.02 -0.03,0.03 0.41,0.18 0.86,0.24 1.28,0.42 0.64,0.28 1.22,0.71 1.81,1.07 0.64,0.38 1.27,0.82 1.86,1.26 0.64,0.46 1.06,1 1.49,1.64 0.01,0.01 0.06,0 0.04,-0.02 -0.35,-0.56 -0.66,-1.15 -1.19,-1.6 z"
   id="path2672"
   inkscape:connector-curvature="0"
   style="opacity:0.2;fill:#a2c83a" />
			<path
   class="st240"
   d="m 682.56,210.53 c -1.37,1.49 -3.32,2.44 -5.37,2.5 -0.01,0 -0.03,0.02 -0.01,0.03 0.3,0.09 0.63,0.03 0.93,-0.02 0.62,-0.11 1.22,-0.19 1.79,-0.42 1.06,-0.39 2.1,-1.16 2.74,-2.08 0.02,-0.04 -0.06,-0.03 -0.08,-0.01 z"
   id="path2674"
   inkscape:connector-curvature="0"
   style="opacity:0.2;fill:#a2c83a" />
		</g>
	</g>
	<g
   class="st4"
   id="g2810"
   style="opacity:0.5">
		<path
   class="st276"
   d="m 694.41,237.74 c -0.04,-0.07 -0.19,-0.13 -0.17,-0.04 0.01,0.03 0.01,0.06 0.01,0.09 0.02,0.05 0.1,0.12 0.17,0.09 l 0.06,-0.03 c 0.05,-0.02 -0.02,-0.08 -0.07,-0.11 z"
   id="path2680"
   inkscape:connector-curvature="0"
   style="fill:#451310" />
		<path
   class="st276"
   d="m 697.83,240.91 c -0.1,0.03 -0.09,0.12 -0.06,0.2 0.02,0.04 0.18,0.17 0.18,0.08 0,-0.04 -0.02,-0.11 0.03,-0.14 0.07,-0.01 -0.09,-0.16 -0.15,-0.14 z"
   id="path2682"
   inkscape:connector-curvature="0"
   style="fill:#451310" />
		<path
   class="st276"
   d="m 696.49,245.75 c -0.1,0.02 0.06,0.18 0.12,0.16 0.1,-0.02 -0.05,-0.18 -0.12,-0.16 z"
   id="path2684"
   inkscape:connector-curvature="0"
   style="fill:#451310" />
		<path
   class="st276"
   d="m 698.57,249.66 c -0.02,-0.08 -0.22,-0.18 -0.21,-0.08 0.01,0.08 0.02,0.13 0.08,0.19 0.02,0.03 0.08,0.08 0.12,0.05 0.05,-0.04 0.01,-0.12 0.01,-0.16 z"
   id="path2686"
   inkscape:connector-curvature="0"
   style="fill:#451310" />
		<path
   class="st276"
   d="m 699.91,252.52 c 0.01,0.06 0.02,0.11 0.04,0.17 0.01,0.02 0.12,0.11 0.12,0.05 0.01,-0.05 -0.01,-0.11 -0.01,-0.16 -0.01,-0.06 -0.16,-0.14 -0.15,-0.06 z"
   id="path2688"
   inkscape:connector-curvature="0"
   style="fill:#451310" />
		<path
   class="st276"
   d="m 696.58,254.01 c 0,0.01 0,0.01 -0.01,0.02 -0.03,-0.02 -0.06,-0.02 -0.06,0.01 0,0.03 0,0.05 0.01,0.08 0.02,0.04 0.08,0.08 0.12,0.08 0.04,0 0.06,-0.04 0.09,-0.07 0.05,-0.05 -0.11,-0.18 -0.15,-0.12 z"
   id="path2690"
   inkscape:connector-curvature="0"
   style="fill:#451310" />
		<path
   class="st276"
   d="m 696.89,247.05 c -0.03,-0.03 -0.11,-0.07 -0.12,-0.02 -0.01,0.13 0.1,0.2 0.23,0.19 0.09,-0.02 -0.03,-0.16 -0.11,-0.17 z"
   id="path2692"
   inkscape:connector-curvature="0"
   style="fill:#451310" />
		<path
   class="st276"
   d="m 699.18,245.85 c 0,0.03 0.01,0.06 0.01,0.08 0.01,0.03 0.12,0.11 0.12,0.04 -0.01,-0.03 -0.01,-0.05 -0.01,-0.07 0,-0.06 -0.15,-0.11 -0.12,-0.05 z"
   id="path2694"
   inkscape:connector-curvature="0"
   style="fill:#451310" />
		<path
   class="st276"
   d="m 690.88,253.46 c 0.01,0.04 0.01,0.04 -0.03,0.06 -0.06,0.02 0.07,0.13 0.11,0.13 0.09,-0.01 0.1,-0.03 0.1,-0.12 -0.01,-0.08 -0.2,-0.16 -0.18,-0.07 z"
   id="path2696"
   inkscape:connector-curvature="0"
   style="fill:#451310" />
		<path
   class="st276"
   d="m 686.78,255.7 c -0.06,0.07 -0.12,0.09 -0.19,0.11 -0.08,0.03 0.07,0.15 0.11,0.15 0.12,-0.01 0.19,-0.04 0.26,-0.12 0.04,-0.07 -0.14,-0.21 -0.18,-0.14 z"
   id="path2698"
   inkscape:connector-curvature="0"
   style="fill:#451310" />
		<path
   class="st276"
   d="m 683.6,252.73 c -0.06,-0.06 -0.07,-0.16 -0.1,-0.22 -0.01,-0.04 -0.13,-0.13 -0.12,-0.05 0,0.14 0.06,0.26 0.16,0.36 0.09,0.07 0.16,-0.02 0.06,-0.09 z"
   id="path2700"
   inkscape:connector-curvature="0"
   style="fill:#451310" />
		<path
   class="st276"
   d="m 681.44,248.18 c -0.1,-0.03 -0.1,-0.11 -0.13,-0.2 -0.02,-0.02 -0.12,-0.1 -0.12,-0.04 -0.02,0.19 0.1,0.31 0.28,0.37 0.11,0.04 0.04,-0.11 -0.03,-0.13 z"
   id="path2702"
   inkscape:connector-curvature="0"
   style="fill:#451310" />
		<path
   class="st276"
   d="m 687.24,252.34 c -0.01,-0.04 -0.02,-0.08 -0.03,-0.12 -0.01,-0.03 -0.13,-0.12 -0.12,-0.07 0.01,0.13 0.01,0.25 0.04,0.38 0,0.04 0.12,0.17 0.17,0.1 0.06,-0.07 0.08,-0.11 0.06,-0.19 -0.03,-0.04 -0.07,-0.07 -0.12,-0.1 z"
   id="path2704"
   inkscape:connector-curvature="0"
   style="fill:#451310" />
		<path
   class="st276"
   d="m 692.33,247.34 c -0.03,0.01 -0.04,0.02 -0.06,0.03 -0.06,0.03 0.05,0.12 0.09,0.12 0.03,0.01 0.06,0.01 0.1,0 0.09,0 -0.04,-0.17 -0.13,-0.15 z"
   id="path2706"
   inkscape:connector-curvature="0"
   style="fill:#451310" />
		<path
   class="st276"
   d="m 690.03,242.18 c -0.03,0.01 -0.05,0.02 -0.08,0.03 -0.05,0.02 0.06,0.1 0.09,0.1 0.03,0 0.06,0 0.08,0 0.08,0 -0.02,-0.15 -0.09,-0.13 z"
   id="path2708"
   inkscape:connector-curvature="0"
   style="fill:#451310" />
		<path
   class="st276"
   d="m 687.92,233.64 c 0.01,0.04 0.01,0.07 0.03,0.11 0.01,0.01 0.1,0.09 0.13,0.04 0.01,-0.03 0.01,-0.06 0,-0.09 0,-0.07 -0.18,-0.15 -0.16,-0.06 z"
   id="path2710"
   inkscape:connector-curvature="0"
   style="fill:#451310" />
		<path
   class="st276"
   d="m 679.44,244.04 c -0.02,0 -0.05,0 -0.08,0.01 -0.06,0 0.03,0.12 0.1,0.1 0.02,0 0.04,-0.01 0.07,-0.02 0.03,-0.02 -0.06,-0.09 -0.09,-0.09 z"
   id="path2712"
   inkscape:connector-curvature="0"
   style="fill:#451310" />
		<path
   class="st276"
   d="m 684.19,247.52 c -0.08,0.02 0.03,0.13 0.09,0.12 0.08,-0.01 -0.03,-0.12 -0.09,-0.12 z"
   id="path2714"
   inkscape:connector-curvature="0"
   style="fill:#451310" />
		<path
   class="st276"
   d="m 687.06,250.17 c -0.05,0.01 0.02,0.09 0.06,0.08 0.05,0 -0.03,-0.09 -0.06,-0.08 z"
   id="path2716"
   inkscape:connector-curvature="0"
   style="fill:#451310" />
		<path
   class="st276"
   d="m 670.93,232.95 c -0.06,0.01 0.03,0.1 0.07,0.1 0.06,-0.02 -0.03,-0.11 -0.07,-0.1 z"
   id="path2718"
   inkscape:connector-curvature="0"
   style="fill:#451310" />
		<path
   class="st276"
   d="m 674.64,237.07 c -0.09,0.01 0.04,0.15 0.1,0.14 0.1,-0.01 -0.03,-0.15 -0.1,-0.14 z"
   id="path2720"
   inkscape:connector-curvature="0"
   style="fill:#451310" />
		<path
   class="st276"
   d="m 676.36,239.87 c 0.01,0.06 0.02,0.11 0.04,0.17 0.01,0.02 0.1,0.09 0.1,0.04 0.01,-0.06 0,-0.1 -0.01,-0.16 -0.01,-0.06 -0.15,-0.12 -0.13,-0.05 z"
   id="path2722"
   inkscape:connector-curvature="0"
   style="fill:#451310" />
		<path
   class="st276"
   d="m 676.9,243.96 c 0.01,0.06 -0.03,0.11 -0.08,0.14 -0.08,0.04 0.08,0.16 0.13,0.15 0.11,-0.01 0.17,-0.09 0.17,-0.21 -0.01,-0.08 -0.22,-0.2 -0.22,-0.08 z"
   id="path2724"
   inkscape:connector-curvature="0"
   style="fill:#451310" />
		<path
   class="st276"
   d="m 672.52,245.7 c -0.1,0.02 0.05,0.19 0.12,0.17 0.11,-0.01 -0.05,-0.18 -0.12,-0.17 z"
   id="path2726"
   inkscape:connector-curvature="0"
   style="fill:#451310" />
		<path
   class="st276"
   d="m 678.13,248.11 c 0.01,0.08 0.03,0.16 0.04,0.22 0.03,0.05 0.17,0.16 0.17,0.06 -0.01,-0.07 -0.01,-0.15 -0.03,-0.22 -0.02,-0.06 -0.2,-0.16 -0.18,-0.06 z"
   id="path2728"
   inkscape:connector-curvature="0"
   style="fill:#451310" />
		<path
   class="st276"
   d="m 678.33,254.09 c -0.08,0.02 0.05,0.14 0.09,0.13 0.09,-0.01 -0.03,-0.14 -0.09,-0.13 z"
   id="path2730"
   inkscape:connector-curvature="0"
   style="fill:#451310" />
		<path
   class="st276"
   d="m 671.92,254.69 c -0.11,0.02 0.06,0.19 0.13,0.18 0.11,-0.02 -0.05,-0.2 -0.13,-0.18 z"
   id="path2732"
   inkscape:connector-curvature="0"
   style="fill:#451310" />
		<path
   class="st276"
   d="m 672.86,257.67 c -0.07,-0.07 -0.16,-0.11 -0.26,-0.11 -0.1,0 0.03,0.16 0.11,0.16 0.04,-0.01 0.08,0 0.12,0.02 0.05,0.02 0.06,-0.03 0.03,-0.07 z"
   id="path2734"
   inkscape:connector-curvature="0"
   style="fill:#451310" />
		<path
   class="st276"
   d="m 677.79,258.63 c -0.03,-0.04 -0.07,-0.08 -0.11,-0.11 -0.11,-0.09 -0.18,0.01 -0.07,0.1 0.03,0.03 0.05,0.08 0.05,0.12 0.01,0.04 0.16,0.18 0.19,0.11 0.01,-0.02 0.02,-0.05 0.03,-0.08 0,-0.01 0.01,-0.05 0.01,-0.03 0.04,-0.03 -0.05,-0.11 -0.1,-0.11 z"
   id="path2736"
   inkscape:connector-curvature="0"
   style="fill:#451310" />
		<path
   class="st276"
   d="m 674.88,253.64 c -0.08,0.01 0.05,0.14 0.1,0.13 0.09,-0.01 -0.04,-0.14 -0.1,-0.13 z"
   id="path2738"
   inkscape:connector-curvature="0"
   style="fill:#451310" />
		<path
   class="st276"
   d="m 680.32,256.3 c -0.01,-0.06 -0.13,-0.14 -0.18,-0.12 -0.02,0 -0.03,0.01 -0.03,0.04 l 0.01,0.01 v 0.01 0.01 c 0,0.1 0.23,0.18 0.21,0.09 0,-0.01 0,-0.01 0,-0.02 -0.01,0 -0.01,0 -0.01,0 z"
   id="path2740"
   inkscape:connector-curvature="0"
   style="fill:#451310" />
		<path
   class="st276"
   d="m 674.89,256.35 c -0.03,-0.02 -0.08,-0.04 -0.11,-0.06 -0.05,-0.03 -0.05,0.03 -0.02,0.06 0.02,0.02 0.06,0.05 0.1,0.08 0.1,0.08 0.13,-0.02 0.03,-0.08 z"
   id="path2742"
   inkscape:connector-curvature="0"
   style="fill:#451310" />
		<path
   class="st276"
   d="m 670.11,245.72 c -0.02,-0.02 -0.12,-0.1 -0.12,-0.04 0,0.02 0,0.04 0,0.07 -0.01,0.1 0.18,0.15 0.15,0.06 z"
   id="path2744"
   inkscape:connector-curvature="0"
   style="fill:#451310" />
		<path
   class="st276"
   d="m 665.34,239.03 c 0,0.01 -0.01,0.02 -0.01,0.02 0,0 0,0.01 0,0.01 -0.05,0.06 -0.08,0.12 0,0.18 0.08,0.07 0.12,0 0.17,-0.06 v 0 c 0.01,0 0.01,-0.02 0.01,-0.03 0.04,-0.05 -0.12,-0.17 -0.17,-0.12 z"
   id="path2746"
   inkscape:connector-curvature="0"
   style="fill:#451310" />
		<path
   class="st276"
   d="m 672.6,233.52 c 0,0 -0.01,0.02 -0.03,0.02 -0.05,-0.04 -0.14,-0.1 -0.13,-0.02 -0.01,0.09 0.02,0.16 0.1,0.21 0.09,0.04 0.15,0 0.22,-0.05 0.07,-0.06 -0.1,-0.2 -0.16,-0.16 z"
   id="path2748"
   inkscape:connector-curvature="0"
   style="fill:#451310" />
		<path
   class="st276"
   d="m 669.96,228.25 c -0.03,0.01 -0.03,0 -0.07,-0.02 -0.07,-0.03 -0.12,0.01 -0.06,0.07 0.08,0.08 0.16,0.13 0.27,0.11 0.12,0 -0.05,-0.18 -0.14,-0.16 z"
   id="path2750"
   inkscape:connector-curvature="0"
   style="fill:#451310" />
		<path
   class="st276"
   d="m 667.93,226.13 c -0.06,0.01 0.01,0.08 0.05,0.1 0.03,0.08 0.19,0.12 0.16,0.03 -0.04,-0.09 -0.13,-0.15 -0.21,-0.13 z"
   id="path2752"
   inkscape:connector-curvature="0"
   style="fill:#451310" />
		<path
   class="st276"
   d="m 667.74,222.95 c -0.1,0 -0.14,0.07 -0.23,0.09 -0.06,0.02 0.06,0.17 0.13,0.13 0.08,-0.03 0.11,-0.09 0.19,-0.13 0.05,-0.02 -0.05,-0.09 -0.09,-0.09 z"
   id="path2754"
   inkscape:connector-curvature="0"
   style="fill:#451310" />
		<path
   class="st276"
   d="m 668.1,221.19 c -0.02,0.01 -0.04,0.03 -0.06,0.04 -0.01,0 -0.02,0.01 -0.03,0.01 -0.01,0 -0.01,0 -0.01,0 -0.01,-0.04 -0.17,-0.15 -0.15,-0.06 0.01,0.09 0.06,0.18 0.14,0.2 0.11,0.02 0.18,-0.03 0.24,-0.09 0.04,-0.02 -0.09,-0.13 -0.13,-0.1 z"
   id="path2756"
   inkscape:connector-curvature="0"
   style="fill:#451310" />
		<path
   class="st276"
   d="m 666.4,219.54 c -0.08,-0.05 -0.17,-0.06 -0.26,-0.1 -0.06,-0.03 -0.06,0.02 -0.01,0.05 0.08,0.05 0.17,0.08 0.25,0.13 0.09,0.05 0.09,-0.05 0.02,-0.08 z"
   id="path2758"
   inkscape:connector-curvature="0"
   style="fill:#451310" />
		<path
   class="st276"
   d="m 686.37,215.58 c -0.04,-0.06 -0.06,-0.11 -0.08,-0.17 -0.01,-0.06 -0.15,-0.12 -0.13,-0.06 0.03,0.12 0.08,0.2 0.17,0.27 0.06,0.04 0.09,0 0.04,-0.04 z"
   id="path2760"
   inkscape:connector-curvature="0"
   style="fill:#451310" />
		<path
   class="st276"
   d="m 689.1,219.61 c -0.09,0.01 0.03,0.16 0.1,0.14 0.1,-0.02 -0.04,-0.15 -0.1,-0.14 z"
   id="path2762"
   inkscape:connector-curvature="0"
   style="fill:#451310" />
		<path
   class="st276"
   d="m 687.73,220.46 c -0.01,-0.02 -0.07,-0.06 -0.1,-0.04 -0.04,0.02 -0.03,0.06 -0.03,0.1 0.01,0.08 0.21,0.16 0.19,0.07 0,-0.06 -0.02,-0.1 -0.06,-0.13 z"
   id="path2764"
   inkscape:connector-curvature="0"
   style="fill:#451310" />
		<path
   class="st276"
   d="m 689.94,223.62 c 0.01,0.03 -0.01,0.04 -0.03,0.06 -0.08,0.04 0.07,0.15 0.12,0.13 0.08,-0.02 0.09,-0.06 0.09,-0.12 -0.01,-0.08 -0.2,-0.16 -0.18,-0.07 z"
   id="path2766"
   inkscape:connector-curvature="0"
   style="fill:#451310" />
		<path
   class="st276"
   d="m 689.23,229.28 c 0,0.02 0,0.04 0.01,0.07 0.01,0.04 0.13,0.11 0.12,0.05 0,-0.03 -0.01,-0.05 -0.01,-0.08 -0.01,-0.05 -0.15,-0.11 -0.12,-0.04 z"
   id="path2768"
   inkscape:connector-curvature="0"
   style="fill:#451310" />
		<path
   class="st276"
   d="m 691.7,231.62 c -0.05,0.07 -0.1,0.12 -0.1,0.21 0.01,0.04 0.06,0.1 0.1,0.08 0.08,-0.03 0.12,-0.1 0.16,-0.17 0.04,-0.06 -0.12,-0.18 -0.16,-0.12 z"
   id="path2770"
   inkscape:connector-curvature="0"
   style="fill:#451310" />
		<path
   class="st276"
   d="m 691.09,234.94 c -0.1,0.02 0.06,0.17 0.12,0.15 0.1,-0.01 -0.05,-0.17 -0.12,-0.15 z"
   id="path2772"
   inkscape:connector-curvature="0"
   style="fill:#451310" />
		<path
   class="st276"
   d="m 692.26,238.99 c 0.01,0.03 0.02,0.06 0.03,0.08 0.01,0.02 0.12,0.1 0.12,0.04 0.01,-0.02 0.01,-0.04 0.01,-0.06 0.01,-0.09 -0.2,-0.16 -0.16,-0.06 z"
   id="path2774"
   inkscape:connector-curvature="0"
   style="fill:#451310" />
		<path
   class="st276"
   d="m 692.8,243.67 c -0.03,0.06 -0.06,0.08 -0.03,0.14 0.01,0.04 0.06,0.06 0.1,0.07 0.05,0 0.07,-0.04 0.1,-0.09 0.04,-0.06 -0.13,-0.18 -0.17,-0.12 z"
   id="path2776"
   inkscape:connector-curvature="0"
   style="fill:#451310" />
		<path
   class="st276"
   d="m 696.59,235.9 c 0.01,0.03 0.02,0.05 0.03,0.08 0.01,0.03 0.15,0.13 0.16,0.06 0,-0.03 -0.01,-0.05 -0.01,-0.08 -0.01,-0.07 -0.19,-0.16 -0.18,-0.06 z"
   id="path2778"
   inkscape:connector-curvature="0"
   style="fill:#451310" />
		<path
   class="st276"
   d="m 697.2,237.48 c 0.01,0.03 -0.01,0.05 -0.04,0.07 -0.06,0.02 0.05,0.11 0.1,0.09 0.05,-0.01 0.08,-0.05 0.07,-0.11 0,-0.05 -0.13,-0.11 -0.13,-0.05 z"
   id="path2780"
   inkscape:connector-curvature="0"
   style="fill:#451310" />
		<path
   class="st276"
   d="m 696.36,238.99 c -0.07,0.01 0.03,0.12 0.08,0.11 0.07,-0.01 -0.02,-0.12 -0.08,-0.11 z"
   id="path2782"
   inkscape:connector-curvature="0"
   style="fill:#451310" />
		<path
   class="st276"
   d="m 684.42,213.9 c -0.06,0.01 0,0.1 0.05,0.09 0.06,-0.01 0,-0.1 -0.05,-0.09 z"
   id="path2784"
   inkscape:connector-curvature="0"
   style="fill:#451310" />
		<path
   class="st276"
   d="m 686.05,212.42 c -0.1,0.02 -0.01,0.18 0.08,0.16 0.11,-0.02 0.02,-0.17 -0.08,-0.16 z"
   id="path2786"
   inkscape:connector-curvature="0"
   style="fill:#451310" />
		<path
   class="st276"
   d="m 687.18,210.54 c -0.09,0.02 -0.01,0.15 0.07,0.13 0.08,-0.01 0,-0.14 -0.07,-0.13 z"
   id="path2788"
   inkscape:connector-curvature="0"
   style="fill:#451310" />
		<path
   class="st276"
   d="m 682.04,214.41 c -0.01,-0.03 -0.04,-0.04 -0.08,-0.07 -0.1,-0.08 -0.19,0.07 -0.07,0.13 0.03,0.02 0.06,0.03 0.08,0.06 0.1,0.05 0.14,-0.07 0.07,-0.12 z"
   id="path2790"
   inkscape:connector-curvature="0"
   style="fill:#451310" />
		<path
   class="st276"
   d="m 684.12,215.22 c -0.1,0.02 -0.01,0.16 0.07,0.15 0.1,-0.01 0.01,-0.16 -0.07,-0.15 z"
   id="path2792"
   inkscape:connector-curvature="0"
   style="fill:#451310" />
		<path
   class="st276"
   d="m 677.28,239.69 c -0.06,0.01 0,0.09 0.04,0.08 0.07,-0.01 0.02,-0.09 -0.04,-0.08 z"
   id="path2794"
   inkscape:connector-curvature="0"
   style="fill:#451310" />
		<path
   class="st276"
   d="m 675.48,235.63 c -0.08,0.01 -0.01,0.13 0.06,0.12 0.07,-0.01 0.01,-0.13 -0.06,-0.12 z"
   id="path2796"
   inkscape:connector-curvature="0"
   style="fill:#451310" />
		<path
   class="st276"
   d="m 673.64,233.05 c -0.1,0.02 -0.03,0.15 0.06,0.14 0.1,-0.02 0.02,-0.16 -0.06,-0.14 z"
   id="path2798"
   inkscape:connector-curvature="0"
   style="fill:#451310" />
		<path
   class="st276"
   d="m 672.31,230.83 c -0.1,0.02 -0.01,0.15 0.08,0.14 0.08,-0.02 0,-0.15 -0.08,-0.14 z"
   id="path2800"
   inkscape:connector-curvature="0"
   style="fill:#451310" />
		<path
   class="st276"
   d="m 664.88,217.65 c -0.08,0.01 -0.01,0.12 0.06,0.11 0.08,-0.02 0.01,-0.13 -0.06,-0.11 z"
   id="path2802"
   inkscape:connector-curvature="0"
   style="fill:#451310" />
		<path
   class="st276"
   d="m 668.48,219.8 c -0.12,0.02 -0.02,0.18 0.07,0.16 0.11,-0.02 0.02,-0.18 -0.07,-0.16 z"
   id="path2804"
   inkscape:connector-curvature="0"
   style="fill:#451310" />
		<path
   class="st276"
   d="m 664.95,221.01 c -0.06,0.01 -0.01,0.1 0.05,0.09 0.06,-0.01 0.01,-0.1 -0.05,-0.09 z"
   id="path2806"
   inkscape:connector-curvature="0"
   style="fill:#451310" />
		<path
   class="st276"
   d="m 663.25,219.42 c -0.03,-0.01 -0.07,0 -0.06,0.04 0.02,0.12 0.19,0.14 0.18,0 0,-0.07 -0.09,-0.1 -0.12,-0.04 z"
   id="path2808"
   inkscape:connector-curvature="0"
   style="fill:#451310" />
	</g>
</g>











</svg>