<?xml version="1.0" encoding="utf-8"?>
<!-- Generator: Adobe Illustrator 23.1.0, SVG Export Plug-In . SVG Version: 6.00 Build 0)  -->
<svg version="1.1" xmlns="http://www.w3.org/2000/svg" xmlns:xlink="http://www.w3.org/1999/xlink" x="0px" y="0px"
	 viewBox="0 0 1920 1080" style="enable-background:new 0 0 1920 1080;" xml:space="preserve">
<style type="text/css">
	.st0{opacity:0.8;fill:#ABEDFF;}
	.st1{opacity:0.35;fill:#00C8EB;}
	.st2{fill:#FFFFFF;}
	.st3{fill:#A6E5E1;}
	.st4{fill:#69CAC8;}
	.st5{opacity:0.5;}
	.st6{fill:#3EB2AF;}
</style>
<g id="BACKGROUND">
	<rect x="420" y="-420" transform="matrix(6.123234e-17 -1 1 6.123234e-17 420 1500)" class="st0" width="1080" height="1920"/>
</g>
<g id="OBJECTS">
	<g>
		<path class="st1" d="M1834.53,1063.67c-1.18,0-2.36-0.05-3.55-0.13l-435.46-32.77l-435.46,32.77c-1.18,0.09-2.36,0.13-3.54,0.13
			c-1.18,0-2.37-0.05-3.55-0.13l-435.46-32.77l-435.46,32.77c-1.18,0.09-2.37,0.13-3.55,0.13c-9.29,0-18.3-2.74-25.23-7.74
			c-7.81-5.64-12.27-13.62-12.27-22V122.97c0-15.33,14.71-28.15,33.97-29.6l439-33.04c1.18-0.09,2.36-0.13,3.54-0.13
			s2.36,0.05,3.55,0.13l435.46,32.77l435.46-32.77c1.18-0.09,2.36-0.13,3.55-0.13s2.36,0.05,3.54,0.13l439,33.04
			c19.26,1.45,33.97,14.27,33.97,29.6v910.96c0,8.38-4.46,16.36-12.27,22C1852.83,1060.93,1843.82,1063.67,1834.53,1063.67z"/>
		<g>
			<g>
				<path class="st2" d="M1851.96,1029.8c-1.18,0-2.36-0.04-3.55-0.13l-435.46-32.77l-435.46,32.77c-1.18,0.09-2.36,0.13-3.54,0.13
					c-1.18,0-2.37-0.04-3.55-0.13l-435.46-32.77l-435.46,32.77c-1.18,0.09-2.37,0.13-3.55,0.13c-9.29,0-18.3-2.74-25.24-7.74
					c-7.81-5.64-12.27-13.62-12.27-22V89.1c0-15.33,14.71-28.15,33.97-29.6l439-33.04c1.18-0.09,2.36-0.13,3.55-0.13
					c1.18,0,2.36,0.05,3.55,0.13l435.46,32.77l435.46-32.77c1.18-0.09,2.36-0.13,3.55-0.13c1.18,0,2.36,0.05,3.54,0.13l439,33.04
					c19.26,1.45,33.97,14.27,33.97,29.6v910.96c0,8.37-4.46,16.36-12.27,22C1870.26,1027.06,1861.25,1029.8,1851.96,1029.8z"/>
				<g>
					<polygon class="st3" points="534.95,967.03 973.95,1000.06 973.95,89.1 534.95,56.07 					"/>
					<polygon class="st3" points="1412.96,967.03 1851.96,1000.06 1851.96,89.1 1412.96,56.07 					"/>
					<polygon class="st4" points="534.95,967.03 95.95,1000.06 95.95,89.1 534.95,56.07 					"/>
					<polygon class="st4" points="1412.96,967.03 973.95,1000.06 973.95,89.1 1412.96,56.07 					"/>
				</g>
			</g>
			<polygon class="st4" points="541.46,967.03 102.45,1000.06 102.45,89.1 541.46,56.07 			"/>
			<polygon class="st4" points="1419.46,967.03 980.46,1000.06 980.46,89.1 1419.46,56.07 			"/>
			<g>
				<g class="st5">
					<path class="st6" d="M1033.18,168.62c0.68,0,1.31-0.39,1.52-1.01c0.26-0.75-0.21-1.55-1.05-1.78
						c-0.53-0.15-13.16-3.56-22.53,0.05c-0.81,0.31-1.18,1.15-0.83,1.87c0.35,0.73,1.29,1.05,2.09,0.75
						c8.32-3.2,20.23,0.02,20.35,0.05C1032.87,168.6,1033.02,168.62,1033.18,168.62z"/>
				</g>
				<g class="st5">
					<path class="st6" d="M920.98,189.75c0.68,0,1.31-0.39,1.52-1.01c0.26-0.75-0.21-1.55-1.05-1.78
						c-0.53-0.15-13.16-3.56-22.53,0.05c-0.81,0.31-1.18,1.15-0.83,1.87c0.35,0.72,1.29,1.05,2.09,0.75
						c8.32-3.2,20.23,0.02,20.35,0.05C920.67,189.73,920.83,189.75,920.98,189.75z"/>
				</g>
				<g class="st5">
					<path class="st6" d="M1108.5,318.62c0.68,0,1.31-0.39,1.52-1.01c0.26-0.75-0.21-1.55-1.05-1.78
						c-0.53-0.15-13.16-3.56-22.53,0.05c-0.81,0.31-1.18,1.15-0.83,1.87c0.35,0.72,1.29,1.05,2.09,0.75
						c8.32-3.2,20.23,0.02,20.35,0.05C1108.19,318.6,1108.35,318.62,1108.5,318.62z"/>
				</g>
				<g class="st5">
					<path class="st6" d="M1267.33,423.25c0.68,0,1.31-0.39,1.52-1.01c0.26-0.75-0.21-1.55-1.05-1.78
						c-0.53-0.15-13.16-3.56-22.53,0.05c-0.81,0.31-1.18,1.15-0.83,1.87c0.35,0.72,1.29,1.05,2.09,0.75
						c8.32-3.2,20.23,0.02,20.35,0.05C1267.02,423.23,1267.18,423.25,1267.33,423.25z"/>
				</g>
				<g class="st5">
					<path class="st6" d="M1177.43,542.61c0.68,0,1.31-0.39,1.52-1.01c0.26-0.75-0.21-1.55-1.05-1.78
						c-0.53-0.15-13.16-3.56-22.53,0.05c-0.81,0.31-1.18,1.15-0.83,1.87c0.35,0.73,1.29,1.05,2.09,0.75
						c8.32-3.2,20.23,0.02,20.35,0.05C1177.12,542.59,1177.28,542.61,1177.43,542.61z"/>
				</g>
				<g class="st5">
					<path class="st6" d="M1181.63,709.97c0.68,0,1.31-0.39,1.52-1.01c0.26-0.75-0.21-1.55-1.05-1.78
						c-0.53-0.15-13.16-3.56-22.53,0.05c-0.81,0.31-1.18,1.15-0.83,1.87c0.35,0.72,1.29,1.05,2.09,0.75
						c8.32-3.2,20.23,0.02,20.35,0.05C1181.32,709.95,1181.47,709.97,1181.63,709.97z"/>
				</g>
				<g class="st5">
					<path class="st6" d="M1018.19,788.2c0.68,0,1.31-0.39,1.52-1.01c0.26-0.75-0.21-1.55-1.05-1.78
						c-0.53-0.15-13.16-3.56-22.53,0.05c-0.81,0.31-1.18,1.15-0.83,1.87c0.35,0.72,1.29,1.05,2.09,0.75
						c8.32-3.2,20.23,0.02,20.35,0.05C1017.88,788.18,1018.04,788.2,1018.19,788.2z"/>
				</g>
				<g class="st5">
					<path class="st6" d="M740.95,614.05c0.68,0,1.31-0.39,1.52-1.01c0.26-0.75-0.21-1.55-1.05-1.78
						c-0.53-0.15-13.16-3.56-22.53,0.05c-0.81,0.31-1.18,1.15-0.83,1.87c0.35,0.73,1.29,1.05,2.09,0.75
						c8.32-3.2,20.23,0.02,20.35,0.05C740.64,614.04,740.8,614.05,740.95,614.05z"/>
				</g>
				<g class="st5">
					<path class="st6" d="M606.46,707.77c0.68,0,1.31-0.39,1.52-1.01c0.26-0.75-0.21-1.55-1.05-1.78
						c-0.53-0.15-13.16-3.56-22.53,0.05c-0.81,0.31-1.18,1.15-0.83,1.87c0.35,0.72,1.29,1.05,2.09,0.75
						c8.32-3.2,20.23,0.02,20.35,0.05C606.15,707.75,606.31,707.77,606.46,707.77z"/>
				</g>
				<g class="st5">
					<path class="st6" d="M740.95,832.34c0.68,0,1.31-0.39,1.52-1.01c0.26-0.75-0.21-1.55-1.05-1.78
						c-0.53-0.15-13.16-3.56-22.53,0.05c-0.81,0.31-1.18,1.15-0.83,1.87c0.35,0.72,1.29,1.05,2.09,0.75
						c8.32-3.2,20.23,0.02,20.35,0.05C740.64,832.32,740.8,832.34,740.95,832.34z"/>
				</g>
				<g class="st5">
					<path class="st6" d="M1391.82,821.25c0.68,0,1.31-0.39,1.52-1.01c0.26-0.75-0.21-1.55-1.05-1.78
						c-0.53-0.15-13.16-3.56-22.53,0.05c-0.81,0.31-1.18,1.15-0.83,1.87c0.35,0.72,1.29,1.05,2.09,0.75
						c8.32-3.2,20.23,0.02,20.35,0.05C1391.51,821.23,1391.67,821.25,1391.82,821.25z"/>
				</g>
				<g class="st5">
					<path class="st6" d="M1522,957.95c0.68,0,1.31-0.39,1.52-1.01c0.26-0.75-0.21-1.55-1.05-1.78c-0.53-0.15-13.16-3.56-22.53,0.05
						c-0.81,0.31-1.18,1.15-0.83,1.87c0.35,0.72,1.29,1.05,2.09,0.75c8.32-3.2,20.23,0.02,20.35,0.05
						C1521.69,957.93,1521.85,957.95,1522,957.95z"/>
				</g>
				<g class="st5">
					<path class="st6" d="M1642.34,691.29c0.68,0,1.31-0.39,1.52-1.01c0.26-0.75-0.21-1.55-1.05-1.78
						c-0.53-0.15-13.16-3.56-22.53,0.05c-0.81,0.31-1.18,1.15-0.83,1.87c0.35,0.73,1.29,1.05,2.09,0.75
						c8.32-3.2,20.23,0.02,20.35,0.05C1642.03,691.27,1642.18,691.29,1642.34,691.29z"/>
				</g>
				<g class="st5">
					<path class="st6" d="M1783.08,844.5c0.68,0,1.31-0.39,1.52-1.01c0.26-0.75-0.21-1.55-1.05-1.78
						c-0.53-0.15-13.16-3.56-22.53,0.05c-0.81,0.31-1.18,1.15-0.83,1.87c0.35,0.72,1.29,1.05,2.09,0.75
						c8.32-3.2,20.23,0.02,20.35,0.05C1782.77,844.48,1782.92,844.5,1783.08,844.5z"/>
				</g>
				<g class="st5">
					<path class="st6" d="M1790.16,585.76c0.68,0,1.31-0.39,1.52-1.01c0.26-0.75-0.21-1.55-1.05-1.78
						c-0.53-0.15-13.16-3.56-22.53,0.05c-0.81,0.31-1.18,1.15-0.83,1.87c0.35,0.72,1.29,1.05,2.09,0.75
						c8.32-3.2,20.23,0.02,20.35,0.05C1789.85,585.74,1790,585.76,1790.16,585.76z"/>
				</g>
				<g class="st5">
					<path class="st6" d="M1639.9,356.32c0.68,0,1.31-0.39,1.52-1.01c0.26-0.75-0.21-1.55-1.05-1.78
						c-0.53-0.15-13.16-3.56-22.53,0.05c-0.81,0.31-1.18,1.15-0.83,1.87c0.35,0.73,1.29,1.05,2.09,0.75
						c8.32-3.2,20.23,0.02,20.35,0.05C1639.59,356.3,1639.75,356.32,1639.9,356.32z"/>
				</g>
				<g class="st5">
					<path class="st6" d="M1770.77,152.39c0.68,0,1.31-0.39,1.52-1.01c0.26-0.75-0.21-1.55-1.05-1.78
						c-0.53-0.15-13.16-3.56-22.53,0.05c-0.81,0.31-1.18,1.15-0.83,1.87c0.35,0.72,1.29,1.05,2.09,0.75
						c8.32-3.2,20.23,0.02,20.35,0.05C1770.46,152.37,1770.61,152.39,1770.77,152.39z"/>
				</g>
				<g class="st5">
					<path class="st6" d="M1382.29,103.94c0.68,0,1.31-0.39,1.52-1.01c0.26-0.75-0.21-1.55-1.05-1.78
						c-0.53-0.15-13.16-3.56-22.53,0.05c-0.81,0.31-1.18,1.15-0.83,1.87c0.35,0.72,1.29,1.05,2.09,0.75
						c8.32-3.2,20.23,0.02,20.35,0.05C1381.97,103.92,1382.13,103.94,1382.29,103.94z"/>
				</g>
				<g class="st5">
					<path class="st6" d="M796.98,98.9c0.68,0,1.31-0.39,1.52-1.01c0.26-0.75-0.21-1.55-1.05-1.78c-0.53-0.15-13.16-3.56-22.53,0.05
						c-0.81,0.31-1.18,1.15-0.83,1.87c0.35,0.72,1.29,1.05,2.09,0.75c8.32-3.2,20.23,0.02,20.35,0.05
						C796.67,98.88,796.82,98.9,796.98,98.9z"/>
				</g>
				<g class="st5">
					<path class="st6" d="M538.58,80.46c0.68,0,1.31-0.39,1.52-1.01c0.26-0.75-0.21-1.55-1.05-1.78
						c-0.53-0.15-13.16-3.56-22.53,0.05c-0.81,0.31-1.18,1.15-0.83,1.87c0.35,0.72,1.29,1.05,2.09,0.75
						c8.32-3.2,20.23,0.02,20.35,0.05C538.27,80.44,538.43,80.46,538.58,80.46z"/>
				</g>
				<g class="st5">
					<path class="st6" d="M304.73,103.94c0.68,0,1.31-0.39,1.52-1.01c0.26-0.75-0.21-1.55-1.05-1.78
						c-0.53-0.15-13.16-3.56-22.53,0.05c-0.81,0.31-1.18,1.15-0.83,1.87c0.35,0.72,1.29,1.05,2.09,0.75
						c8.32-3.2,20.23,0.02,20.35,0.05C304.42,103.92,304.57,103.94,304.73,103.94z"/>
				</g>
				<g class="st5">
					<path class="st6" d="M172.67,272.37c0.68,0,1.31-0.39,1.52-1.01c0.26-0.75-0.21-1.55-1.05-1.78
						c-0.53-0.15-13.16-3.56-22.53,0.05c-0.81,0.31-1.18,1.15-0.83,1.87c0.35,0.73,1.29,1.05,2.09,0.75
						c8.32-3.2,20.23,0.02,20.35,0.05C172.36,272.35,172.51,272.37,172.67,272.37z"/>
				</g>
				<g class="st5">
					<path class="st6" d="M302.46,499.39c0.68,0,1.31-0.39,1.52-1.01c0.26-0.75-0.21-1.55-1.05-1.78
						c-0.53-0.15-13.16-3.56-22.53,0.05c-0.81,0.31-1.18,1.15-0.83,1.87c0.35,0.73,1.29,1.05,2.09,0.75
						c8.32-3.2,20.23,0.02,20.35,0.05C302.15,499.37,302.3,499.39,302.46,499.39z"/>
				</g>
				<g class="st5">
					<path class="st6" d="M192.25,681.02c0.68,0,1.31-0.39,1.52-1.01c0.26-0.75-0.21-1.55-1.05-1.78
						c-0.53-0.15-13.16-3.56-22.53,0.05c-0.81,0.31-1.18,1.15-0.83,1.87c0.35,0.72,1.29,1.05,2.09,0.75
						c8.32-3.2,20.23,0.02,20.35,0.05C191.94,681,192.1,681.02,192.25,681.02z"/>
				</g>
				<g class="st5">
					<path class="st6" d="M420.33,868.2c0.68,0,1.31-0.39,1.52-1.01c0.26-0.75-0.21-1.55-1.05-1.78
						c-0.53-0.15-13.16-3.56-22.53,0.05c-0.81,0.31-1.18,1.15-0.83,1.87c0.35,0.72,1.29,1.05,2.09,0.75
						c8.32-3.2,20.23,0.02,20.35,0.05C420.02,868.18,420.17,868.2,420.33,868.2z"/>
				</g>
				<g class="st5">
					<path class="st6" d="M192.25,953.38c0.68,0,1.31-0.39,1.52-1.01c0.26-0.75-0.21-1.55-1.05-1.78
						c-0.53-0.15-13.16-3.56-22.53,0.05c-0.81,0.31-1.18,1.15-0.83,1.87c0.35,0.72,1.29,1.05,2.09,0.75
						c8.32-3.2,20.23,0.02,20.35,0.05C191.94,953.36,192.1,953.38,192.25,953.38z"/>
				</g>
				<g class="st5">
					<path class="st6" d="M1469.81,648.23c0.68,0,1.31-0.39,1.52-1.01c0.26-0.75-0.21-1.55-1.05-1.78
						c-0.53-0.15-13.16-3.56-22.53,0.05c-0.81,0.31-1.18,1.15-0.83,1.87c0.35,0.72,1.29,1.05,2.09,0.75
						c8.32-3.2,20.23,0.02,20.35,0.05C1469.5,648.21,1469.65,648.23,1469.81,648.23z"/>
				</g>
				<g class="st5">
					<path class="st6" d="M1574.92,553.64c0.68,0,1.31-0.39,1.52-1.01c0.26-0.75-0.21-1.55-1.05-1.78
						c-0.53-0.15-13.16-3.56-22.53,0.05c-0.81,0.31-1.18,1.15-0.83,1.87c0.35,0.73,1.29,1.05,2.09,0.75
						c8.32-3.2,20.23,0.02,20.35,0.05C1574.61,553.62,1574.77,553.64,1574.92,553.64z"/>
				</g>
				<g class="st5">
					<path class="st6" d="M489.98,530.04c0.68,0,1.31-0.39,1.52-1.01c0.26-0.75-0.21-1.55-1.05-1.78
						c-0.53-0.15-13.16-3.56-22.53,0.05c-0.81,0.31-1.18,1.15-0.83,1.87c0.35,0.72,1.29,1.05,2.09,0.75
						c8.32-3.2,20.23,0.02,20.35,0.05C489.67,530.02,489.83,530.04,489.98,530.04z"/>
				</g>
				<g class="st5">
					<path class="st6" d="M400.19,379.99c0.68,0,1.31-0.39,1.52-1.01c0.26-0.75-0.21-1.55-1.05-1.78
						c-0.53-0.15-13.16-3.56-22.53,0.05c-0.81,0.31-1.18,1.15-0.83,1.87c0.35,0.73,1.29,1.05,2.09,0.75
						c8.32-3.2,20.23,0.02,20.35,0.05C399.88,379.97,400.03,379.99,400.19,379.99z"/>
				</g>
			</g>
		</g>
	</g>
</g>
<g id="DESIGNED_BY_FREEPIK">
</g>
</svg>
