<?xml version="1.0" encoding="utf-8"?>
<!-- Generator: Adobe Illustrator 23.1.0, SVG Export Plug-In . SVG Version: 6.00 Build 0)  -->
<svg version="1.1" xmlns="http://www.w3.org/2000/svg" xmlns:xlink="http://www.w3.org/1999/xlink" x="0px" y="0px"
	 viewBox="0 0 1920 1080" style="enable-background:new 0 0 1920 1080;" xml:space="preserve">
<style type="text/css">
	.st0{opacity:0.8;fill:#ABEDFF;}
	.st1{opacity:0.35;fill:#00C8EB;stroke:#00C8EB;stroke-width:21;stroke-miterlimit:10;}
	.st2{fill:#FFFFFF;}
	.st3{fill:#A6E5E1;}
	.st4{fill:#69CAC8;}
	.st5{opacity:0.5;}
	.st6{fill:#3EB2AF;}
</style>
<g id="BACKGROUND">
	<rect x="420" y="-420" transform="matrix(6.123234e-17 -1 1 6.123234e-17 420 1500)" class="st0" width="1080" height="1920"/>
</g>
<g id="OBJECTS">
	<g>
		<path class="st1" d="M1834.53,1063.67c-1.18,0-2.36-0.05-3.55-0.13l-435.46-32.77l-435.46,32.77c-1.18,0.09-2.36,0.13-3.54,0.13
			c-1.18,0-2.37-0.05-3.55-0.13l-435.46-32.77l-435.46,32.77c-1.18,0.09-2.37,0.13-3.55,0.13c-9.29,0-18.3-2.74-25.23-7.74
			c-7.81-5.64-12.27-13.62-12.27-22V122.97c0-15.33,14.71-28.15,33.97-29.6l439-33.04c1.18-0.09,2.36-0.13,3.54-0.13
			s2.36,0.05,3.55,0.13l435.46,32.77l435.46-32.77c1.18-0.09,2.36-0.13,3.55-0.13s2.36,0.05,3.54,0.13l439,33.04
			c19.26,1.45,33.97,14.27,33.97,29.6v910.96c0,8.38-4.46,16.36-12.27,22C1852.83,1060.93,1843.82,1063.67,1834.53,1063.67z"/>
		<g>
			<g>
				<g>
					<path class="st2" d="M1851.96,1037.3c-1.35,0-2.72-0.05-4.1-0.15l-434.91-32.73l-434.9,32.73c-1.38,0.1-2.76,0.15-4.11,0.15
						s-2.73-0.05-4.1-0.15l-434.91-32.73l-434.9,32.73c-1.39,0.1-2.77,0.15-4.11,0.15c-10.92,0-21.44-3.25-29.62-9.15
						c-9.78-7.05-15.39-17.29-15.39-28.08V89.1c0-19.38,17.58-35.33,40.9-37.08l439-33.04c1.39-0.1,2.76-0.15,4.11-0.15
						c1.34,0,2.72,0.05,4.1,0.15l434.91,32.73l434.9-32.73c1.39-0.1,2.77-0.15,4.11-0.15s2.72,0.05,4.1,0.15l439.02,33.04
						c23.32,1.75,40.9,17.69,40.9,37.08v910.96c0,10.79-5.61,21.03-15.39,28.08C1873.39,1034.05,1862.87,1037.3,1851.96,1037.3z"/>
					<path class="st2" d="M1412.95,26.33c1.18,0,2.36,0.05,3.54,0.13l439,33.04c19.26,1.45,33.97,14.27,33.97,29.6v910.96
						c0,8.37-4.46,16.36-12.27,22c-6.94,5-15.95,7.74-25.23,7.74c-1.18,0-2.36-0.04-3.55-0.13l-435.46-32.77l-435.46,32.77
						c-1.18,0.09-2.36,0.13-3.54,0.13c-1.18,0-2.37-0.04-3.55-0.13l-435.46-32.77l-435.46,32.77c-1.18,0.09-2.37,0.13-3.55,0.13
						c-9.29,0-18.3-2.74-25.24-7.74c-7.81-5.64-12.27-13.62-12.27-22V89.1c0-15.33,14.71-28.15,33.97-29.6l439-33.04
						c1.18-0.09,2.36-0.13,3.55-0.13c1.18,0,2.36,0.05,3.55,0.13l435.46,32.77l435.46-32.77
						C1410.59,26.38,1411.77,26.33,1412.95,26.33 M1412.95,11.33c-1.53,0-3.09,0.06-4.65,0.17L973.95,44.19L539.62,11.51
						c-1.58-0.12-3.14-0.17-4.67-0.17c-1.53,0-3.09,0.06-4.65,0.17L91.27,44.54C64,46.6,43.43,65.75,43.43,89.1v910.96
						c0,13.23,6.74,25.68,18.5,34.16c9.45,6.82,21.53,10.57,34.01,10.57c1.53,0,3.09-0.06,4.65-0.17l434.36-32.69l434.33,32.69
						c1.58,0.12,3.14,0.17,4.67,0.17c1.53,0,3.1-0.06,4.65-0.17l434.35-32.69l434.33,32.69c1.58,0.12,3.15,0.17,4.68,0.17
						c12.47,0,24.55-3.75,34-10.57c11.76-8.48,18.5-20.93,18.5-34.17V89.1c0-23.35-20.57-42.51-47.84-44.56l-439-33.04
						C1416.05,11.39,1414.48,11.33,1412.95,11.33L1412.95,11.33z"/>
				</g>
				<g>
					<polygon class="st3" points="534.95,967.03 973.95,1000.06 973.95,89.1 534.95,56.07 					"/>
					<polygon class="st3" points="1412.96,967.03 1851.96,1000.06 1851.96,89.1 1412.96,56.07 					"/>
					<polygon class="st4" points="534.95,967.03 95.95,1000.06 95.95,89.1 534.95,56.07 					"/>
					<polygon class="st4" points="1412.96,967.03 973.95,1000.06 973.95,89.1 1412.96,56.07 					"/>
				</g>
			</g>
			<polygon class="st4" points="541.46,967.03 102.45,1000.06 102.45,89.1 541.46,56.07 			"/>
			<polygon class="st4" points="1419.46,967.03 980.46,1000.06 980.46,89.1 1419.46,56.07 			"/>
			<g>
				<g class="st5">
					<path class="st6" d="M1033.18,168.62c0.68,0,1.31-0.39,1.52-1.01c0.26-0.75-0.21-1.55-1.05-1.78
						c-0.53-0.15-13.16-3.56-22.53,0.05c-0.81,0.31-1.18,1.15-0.83,1.87c0.35,0.73,1.29,1.05,2.09,0.75
						c8.32-3.2,20.23,0.02,20.35,0.05C1032.87,168.6,1033.02,168.62,1033.18,168.62z"/>
				</g>
				<g class="st5">
					<path class="st6" d="M920.98,189.75c0.68,0,1.31-0.39,1.52-1.01c0.26-0.75-0.21-1.55-1.05-1.78
						c-0.53-0.15-13.16-3.56-22.53,0.05c-0.81,0.31-1.18,1.15-0.83,1.87c0.35,0.72,1.29,1.05,2.09,0.75
						c8.32-3.2,20.23,0.02,20.35,0.05C920.67,189.73,920.83,189.75,920.98,189.75z"/>
				</g>
				<g class="st5">
					<path class="st6" d="M1108.5,318.62c0.68,0,1.31-0.39,1.52-1.01c0.26-0.75-0.21-1.55-1.05-1.78
						c-0.53-0.15-13.16-3.56-22.53,0.05c-0.81,0.31-1.18,1.15-0.83,1.87c0.35,0.72,1.29,1.05,2.09,0.75
						c8.32-3.2,20.23,0.02,20.35,0.05C1108.19,318.6,1108.35,318.62,1108.5,318.62z"/>
				</g>
				<g class="st5">
					<path class="st6" d="M1267.33,423.25c0.68,0,1.31-0.39,1.52-1.01c0.26-0.75-0.21-1.55-1.05-1.78
						c-0.53-0.15-13.16-3.56-22.53,0.05c-0.81,0.31-1.18,1.15-0.83,1.87c0.35,0.72,1.29,1.05,2.09,0.75
						c8.32-3.2,20.23,0.02,20.35,0.05C1267.02,423.23,1267.18,423.25,1267.33,423.25z"/>
				</g>
				<g class="st5">
					<path class="st6" d="M1177.43,542.61c0.68,0,1.31-0.39,1.52-1.01c0.26-0.75-0.21-1.55-1.05-1.78
						c-0.53-0.15-13.16-3.56-22.53,0.05c-0.81,0.31-1.18,1.15-0.83,1.87c0.35,0.73,1.29,1.05,2.09,0.75
						c8.32-3.2,20.23,0.02,20.35,0.05C1177.12,542.59,1177.28,542.61,1177.43,542.61z"/>
				</g>
				<g class="st5">
					<path class="st6" d="M1181.63,709.97c0.68,0,1.31-0.39,1.52-1.01c0.26-0.75-0.21-1.55-1.05-1.78
						c-0.53-0.15-13.16-3.56-22.53,0.05c-0.81,0.31-1.18,1.15-0.83,1.87c0.35,0.72,1.29,1.05,2.09,0.75
						c8.32-3.2,20.23,0.02,20.35,0.05C1181.32,709.95,1181.47,709.97,1181.63,709.97z"/>
				</g>
				<g class="st5">
					<path class="st6" d="M1018.19,788.2c0.68,0,1.31-0.39,1.52-1.01c0.26-0.75-0.21-1.55-1.05-1.78
						c-0.53-0.15-13.16-3.56-22.53,0.05c-0.81,0.31-1.18,1.15-0.83,1.87c0.35,0.72,1.29,1.05,2.09,0.75
						c8.32-3.2,20.23,0.02,20.35,0.05C1017.88,788.18,1018.04,788.2,1018.19,788.2z"/>
				</g>
				<g class="st5">
					<path class="st6" d="M740.95,614.05c0.68,0,1.31-0.39,1.52-1.01c0.26-0.75-0.21-1.55-1.05-1.78
						c-0.53-0.15-13.16-3.56-22.53,0.05c-0.81,0.31-1.18,1.15-0.83,1.87c0.35,0.73,1.29,1.05,2.09,0.75
						c8.32-3.2,20.23,0.02,20.35,0.05C740.64,614.04,740.8,614.05,740.95,614.05z"/>
				</g>
				<g class="st5">
					<path class="st6" d="M606.46,707.77c0.68,0,1.31-0.39,1.52-1.01c0.26-0.75-0.21-1.55-1.05-1.78
						c-0.53-0.15-13.16-3.56-22.53,0.05c-0.81,0.31-1.18,1.15-0.83,1.87c0.35,0.72,1.29,1.05,2.09,0.75
						c8.32-3.2,20.23,0.02,20.35,0.05C606.15,707.75,606.31,707.77,606.46,707.77z"/>
				</g>
				<g class="st5">
					<path class="st6" d="M740.95,832.34c0.68,0,1.31-0.39,1.52-1.01c0.26-0.75-0.21-1.55-1.05-1.78
						c-0.53-0.15-13.16-3.56-22.53,0.05c-0.81,0.31-1.18,1.15-0.83,1.87c0.35,0.72,1.29,1.05,2.09,0.75
						c8.32-3.2,20.23,0.02,20.35,0.05C740.64,832.32,740.8,832.34,740.95,832.34z"/>
				</g>
				<g class="st5">
					<path class="st6" d="M1391.82,821.25c0.68,0,1.31-0.39,1.52-1.01c0.26-0.75-0.21-1.55-1.05-1.78
						c-0.53-0.15-13.16-3.56-22.53,0.05c-0.81,0.31-1.18,1.15-0.83,1.87c0.35,0.72,1.29,1.05,2.09,0.75
						c8.32-3.2,20.23,0.02,20.35,0.05C1391.51,821.23,1391.67,821.25,1391.82,821.25z"/>
				</g>
				<g class="st5">
					<path class="st6" d="M1522,957.95c0.68,0,1.31-0.39,1.52-1.01c0.26-0.75-0.21-1.55-1.05-1.78c-0.53-0.15-13.16-3.56-22.53,0.05
						c-0.81,0.31-1.18,1.15-0.83,1.87c0.35,0.72,1.29,1.05,2.09,0.75c8.32-3.2,20.23,0.02,20.35,0.05
						C1521.69,957.93,1521.85,957.95,1522,957.95z"/>
				</g>
				<g class="st5">
					<path class="st6" d="M1642.34,691.29c0.68,0,1.31-0.39,1.52-1.01c0.26-0.75-0.21-1.55-1.05-1.78
						c-0.53-0.15-13.16-3.56-22.53,0.05c-0.81,0.31-1.18,1.15-0.83,1.87c0.35,0.73,1.29,1.05,2.09,0.75
						c8.32-3.2,20.23,0.02,20.35,0.05C1642.03,691.27,1642.18,691.29,1642.34,691.29z"/>
				</g>
				<g class="st5">
					<path class="st6" d="M1783.08,844.5c0.68,0,1.31-0.39,1.52-1.01c0.26-0.75-0.21-1.55-1.05-1.78
						c-0.53-0.15-13.16-3.56-22.53,0.05c-0.81,0.31-1.18,1.15-0.83,1.87c0.35,0.72,1.29,1.05,2.09,0.75
						c8.32-3.2,20.23,0.02,20.35,0.05C1782.77,844.48,1782.92,844.5,1783.08,844.5z"/>
				</g>
				<g class="st5">
					<path class="st6" d="M1790.16,585.76c0.68,0,1.31-0.39,1.52-1.01c0.26-0.75-0.21-1.55-1.05-1.78
						c-0.53-0.15-13.16-3.56-22.53,0.05c-0.81,0.31-1.18,1.15-0.83,1.87c0.35,0.72,1.29,1.05,2.09,0.75
						c8.32-3.2,20.23,0.02,20.35,0.05C1789.85,585.74,1790,585.76,1790.16,585.76z"/>
				</g>
				<g class="st5">
					<path class="st6" d="M1639.9,356.32c0.68,0,1.31-0.39,1.52-1.01c0.26-0.75-0.21-1.55-1.05-1.78
						c-0.53-0.15-13.16-3.56-22.53,0.05c-0.81,0.31-1.18,1.15-0.83,1.87c0.35,0.73,1.29,1.05,2.09,0.75
						c8.32-3.2,20.23,0.02,20.35,0.05C1639.59,356.3,1639.75,356.32,1639.9,356.32z"/>
				</g>
				<g class="st5">
					<path class="st6" d="M1770.77,152.39c0.68,0,1.31-0.39,1.52-1.01c0.26-0.75-0.21-1.55-1.05-1.78
						c-0.53-0.15-13.16-3.56-22.53,0.05c-0.81,0.31-1.18,1.15-0.83,1.87c0.35,0.72,1.29,1.05,2.09,0.75
						c8.32-3.2,20.23,0.02,20.35,0.05C1770.46,152.37,1770.61,152.39,1770.77,152.39z"/>
				</g>
				<g class="st5">
					<path class="st6" d="M1382.29,103.94c0.68,0,1.31-0.39,1.52-1.01c0.26-0.75-0.21-1.55-1.05-1.78
						c-0.53-0.15-13.16-3.56-22.53,0.05c-0.81,0.31-1.18,1.15-0.83,1.87c0.35,0.72,1.29,1.05,2.09,0.75
						c8.32-3.2,20.23,0.02,20.35,0.05C1381.97,103.92,1382.13,103.94,1382.29,103.94z"/>
				</g>
				<g class="st5">
					<path class="st6" d="M796.98,98.9c0.68,0,1.31-0.39,1.52-1.01c0.26-0.75-0.21-1.55-1.05-1.78c-0.53-0.15-13.16-3.56-22.53,0.05
						c-0.81,0.31-1.18,1.15-0.83,1.87c0.35,0.72,1.29,1.05,2.09,0.75c8.32-3.2,20.23,0.02,20.35,0.05
						C796.67,98.88,796.82,98.9,796.98,98.9z"/>
				</g>
				<g class="st5">
					<path class="st6" d="M538.58,80.46c0.68,0,1.31-0.39,1.52-1.01c0.26-0.75-0.21-1.55-1.05-1.78
						c-0.53-0.15-13.16-3.56-22.53,0.05c-0.81,0.31-1.18,1.15-0.83,1.87c0.35,0.72,1.29,1.05,2.09,0.75
						c8.32-3.2,20.23,0.02,20.35,0.05C538.27,80.44,538.43,80.46,538.58,80.46z"/>
				</g>
				<g class="st5">
					<path class="st6" d="M304.73,103.94c0.68,0,1.31-0.39,1.52-1.01c0.26-0.75-0.21-1.55-1.05-1.78
						c-0.53-0.15-13.16-3.56-22.53,0.05c-0.81,0.31-1.18,1.15-0.83,1.87c0.35,0.72,1.29,1.05,2.09,0.75
						c8.32-3.2,20.23,0.02,20.35,0.05C304.42,103.92,304.57,103.94,304.73,103.94z"/>
				</g>
				<g class="st5">
					<path class="st6" d="M172.67,272.37c0.68,0,1.31-0.39,1.52-1.01c0.26-0.75-0.21-1.55-1.05-1.78
						c-0.53-0.15-13.16-3.56-22.53,0.05c-0.81,0.31-1.18,1.15-0.83,1.87c0.35,0.73,1.29,1.05,2.09,0.75
						c8.32-3.2,20.23,0.02,20.35,0.05C172.36,272.35,172.51,272.37,172.67,272.37z"/>
				</g>
				<g class="st5">
					<path class="st6" d="M302.46,499.39c0.68,0,1.31-0.39,1.52-1.01c0.26-0.75-0.21-1.55-1.05-1.78
						c-0.53-0.15-13.16-3.56-22.53,0.05c-0.81,0.31-1.18,1.15-0.83,1.87c0.35,0.73,1.29,1.05,2.09,0.75
						c8.32-3.2,20.23,0.02,20.35,0.05C302.15,499.37,302.3,499.39,302.46,499.39z"/>
				</g>
				<g class="st5">
					<path class="st6" d="M192.25,681.02c0.68,0,1.31-0.39,1.52-1.01c0.26-0.75-0.21-1.55-1.05-1.78
						c-0.53-0.15-13.16-3.56-22.53,0.05c-0.81,0.31-1.18,1.15-0.83,1.87c0.35,0.72,1.29,1.05,2.09,0.75
						c8.32-3.2,20.23,0.02,20.35,0.05C191.94,681,192.1,681.02,192.25,681.02z"/>
				</g>
				<g class="st5">
					<path class="st6" d="M420.33,868.2c0.68,0,1.31-0.39,1.52-1.01c0.26-0.75-0.21-1.55-1.05-1.78
						c-0.53-0.15-13.16-3.56-22.53,0.05c-0.81,0.31-1.18,1.15-0.83,1.87c0.35,0.72,1.29,1.05,2.09,0.75
						c8.32-3.2,20.23,0.02,20.35,0.05C420.02,868.18,420.17,868.2,420.33,868.2z"/>
				</g>
				<g class="st5">
					<path class="st6" d="M192.25,953.38c0.68,0,1.31-0.39,1.52-1.01c0.26-0.75-0.21-1.55-1.05-1.78
						c-0.53-0.15-13.16-3.56-22.53,0.05c-0.81,0.31-1.18,1.15-0.83,1.87c0.35,0.72,1.29,1.05,2.09,0.75
						c8.32-3.2,20.23,0.02,20.35,0.05C191.94,953.36,192.1,953.38,192.25,953.38z"/>
				</g>
				<g class="st5">
					<path class="st6" d="M1469.81,648.23c0.68,0,1.31-0.39,1.52-1.01c0.26-0.75-0.21-1.55-1.05-1.78
						c-0.53-0.15-13.16-3.56-22.53,0.05c-0.81,0.31-1.18,1.15-0.83,1.87c0.35,0.72,1.29,1.05,2.09,0.75
						c8.32-3.2,20.23,0.02,20.35,0.05C1469.5,648.21,1469.65,648.23,1469.81,648.23z"/>
				</g>
				<g class="st5">
					<path class="st6" d="M1574.92,553.64c0.68,0,1.31-0.39,1.52-1.01c0.26-0.75-0.21-1.55-1.05-1.78
						c-0.53-0.15-13.16-3.56-22.53,0.05c-0.81,0.31-1.18,1.15-0.83,1.87c0.35,0.73,1.29,1.05,2.09,0.75
						c8.32-3.2,20.23,0.02,20.35,0.05C1574.61,553.62,1574.77,553.64,1574.92,553.64z"/>
				</g>
				<g class="st5">
					<path class="st6" d="M489.98,530.04c0.68,0,1.31-0.39,1.52-1.01c0.26-0.75-0.21-1.55-1.05-1.78
						c-0.53-0.15-13.16-3.56-22.53,0.05c-0.81,0.31-1.18,1.15-0.83,1.87c0.35,0.72,1.29,1.05,2.09,0.75
						c8.32-3.2,20.23,0.02,20.35,0.05C489.67,530.02,489.83,530.04,489.98,530.04z"/>
				</g>
				<g class="st5">
					<path class="st6" d="M400.19,379.99c0.68,0,1.31-0.39,1.52-1.01c0.26-0.75-0.21-1.55-1.05-1.78
						c-0.53-0.15-13.16-3.56-22.53,0.05c-0.81,0.31-1.18,1.15-0.83,1.87c0.35,0.73,1.29,1.05,2.09,0.75
						c8.32-3.2,20.23,0.02,20.35,0.05C399.88,379.97,400.03,379.99,400.19,379.99z"/>
				</g>
			</g>
		</g>
	</g>
	<g>
		<polygon class="st2" points="1419.46,66 973.95,97.71 541.19,62.85 95.37,96.27 80.29,67.81 586.57,32.44 961,67.7 1371.74,32.44 
			1857.86,67.76 1862.57,97.73 1852.05,100.57 		"/>
		<path class="st2" d="M1371.75,33.44L1857,68.7l4.44,28.3l-9.48,2.56L1419.46,65L973.95,96.71L541.19,61.85L95.95,95.22L81.89,68.7
			l504.67-35.26L961,68.7L1371.75,33.44 M586.59,31.44l-0.16,0.01L81.75,66.71l-3.07,0.21l1.44,2.72l14.06,26.52l0.61,1.16l1.3-0.1
			l445.09-33.36L973.79,98.7l0.15,0.01l0.15-0.01l445.36-31.7l432.35,34.54l0.35,0.03l0.33-0.09l9.48-2.56l1.73-0.47l-0.28-1.77
			l-4.44-28.3l-0.25-1.57l-1.58-0.12l-485.25-35.26l-0.16-0.01l-0.16,0.01L961.01,66.7L586.75,31.45L586.59,31.44L586.59,31.44z"/>
	</g>
</g>
<g id="DESIGNED_BY_FREEPIK">
	<g>
		<path d="M613.57,53.24c-0.76-0.06-1.04-0.44-1.1-0.98l-1.94-18.25L610.28,34l-0.13,6.26l-1.42,18.17
			c-0.05,0.62-0.48,0.94-1.19,0.89l-1.77-0.14c-0.71-0.06-1.09-0.44-1.04-1.06l2.35-30.1c0.05-0.62,0.48-0.9,1.19-0.84l3.7,0.29
			c0.71,0.06,1.04,0.35,1.09,1.02l1.59,12.93l0.68,7.66l0.3,0.02l1.86-7.46l3.53-12.53c0.2-0.65,0.58-0.89,1.29-0.83l3.7,0.29
			c0.71,0.06,1.09,0.4,1.04,1.02l-2.35,30.1c-0.05,0.62-0.48,0.94-1.19,0.88l-1.77-0.14c-0.71-0.06-1.09-0.44-1.04-1.06l1.42-18.17
			l0.84-6.21l-0.25-0.02l-4.75,17.73c-0.14,0.52-0.53,0.85-1.24,0.79L613.57,53.24z"/>
		<path d="M640.63,61.01l-0.59-6.14l-7.05-0.55l-1.49,5.98c-0.15,0.57-0.58,0.84-1.18,0.8l-2.13-0.17
			c-0.71-0.06-1.03-0.57-0.88-1.18l7.61-29.51c0.15-0.65,0.58-0.93,1.29-0.88l4.56,0.36c0.71,0.06,1.04,0.39,1.09,1.06l2.94,30.34
			c0.05,0.67-0.34,1.09-1.05,1.03l-2.13-0.17C641.06,61.93,640.63,61.58,640.63,61.01z M633.68,51.26l6.08,0.48l-0.92-10.43
			l-0.5-8.67l-0.25-0.02l-1.84,8.48L633.68,51.26z"/>
		<path d="M652.57,49.84l-0.93,11.94c-0.05,0.62-0.48,0.94-1.19,0.89l-2.03-0.16c-0.71-0.06-1.09-0.44-1.04-1.06l2.35-30.1
			c0.05-0.62,0.48-0.9,1.19-0.84l5.53,0.43c6.64,0.52,8.27,3.18,7.92,7.74l-0.38,4.91c-0.36,4.6-2.38,6.97-9.02,6.45L652.57,49.84z
			 M655.19,46.93c3.45,0.27,4.33-1.17,4.52-3.69l0.38-4.91c0.19-2.48-0.45-4.04-3.9-4.31l-2.38-0.19l-1.01,12.91L655.19,46.93z"/>
		<path d="M675.36,63.72l-0.59-6.14l-7.05-0.55L666.24,63c-0.15,0.57-0.58,0.84-1.18,0.8l-2.13-0.17c-0.71-0.06-1.03-0.57-0.88-1.18
			l7.61-29.51c0.15-0.65,0.58-0.93,1.29-0.88l4.56,0.36c0.71,0.06,1.04,0.39,1.09,1.06l2.94,30.34c0.05,0.67-0.34,1.09-1.05,1.03
			l-2.13-0.17C675.8,64.64,675.37,64.3,675.36,63.72z M668.42,53.97l6.08,0.48l-0.92-10.43l-0.5-8.67l-0.25-0.02L671,43.81
			L668.42,53.97z"/>
		<path d="M697.08,53.32l-0.93,11.94c-0.05,0.62-0.48,0.94-1.19,0.89l-2.03-0.16c-0.71-0.06-1.09-0.44-1.04-1.06l2.35-30.1
			c0.05-0.62,0.48-0.9,1.19-0.84l5.53,0.43c6.64,0.52,8.27,3.18,7.92,7.74l-0.38,4.91c-0.36,4.6-2.38,6.97-9.02,6.45L697.08,53.32z
			 M699.7,50.41c3.45,0.27,4.33-1.17,4.52-3.69l0.38-4.91c0.19-2.48-0.45-4.04-3.9-4.31l-2.38-0.19l-1.01,12.91L699.7,50.41z"/>
		<path d="M727.61,42.8l-1.52,19.45c-0.33,4.2-2.23,6.36-8.32,5.89c-6.08-0.48-7.63-2.91-7.3-7.11L712,41.58
			c0.33-4.2,2.23-6.36,8.32-5.89C726.4,36.17,727.94,38.61,727.61,42.8z M716.25,41.92l-1.52,19.45c-0.17,2.12,0.39,3.46,3.28,3.68
			s3.65-1,3.81-3.13l1.52-19.45c0.17-2.12-0.39-3.46-3.28-3.68S716.42,39.79,716.25,41.92z"/>
		<path d="M735.31,51.28l0.25,0.02l8.4-12.91c0.29-0.42,0.61-0.58,1.16-0.53l2.33,0.18c0.86,0.07,1,0.88,0.71,1.3l-9.26,14.13
			l6.96,15.4c0.22,0.46-0.05,1.24-0.91,1.17l-2.33-0.18c-0.56-0.04-0.85-0.24-1.07-0.71l-6.3-14.06l-0.25-0.02l-1.02,13.13
			c-0.05,0.62-0.48,0.94-1.19,0.89l-2.03-0.16c-0.71-0.06-1.09-0.44-1.04-1.06l2.35-30.1c0.05-0.62,0.48-0.9,1.19-0.84l2.03,0.16
			c0.71,0.06,1.09,0.4,1.04,1.02L735.31,51.28z"/>
		<path d="M760.14,70.34l-0.59-6.14l-7.05-0.55l-1.49,5.98c-0.15,0.57-0.58,0.84-1.18,0.8l-2.13-0.17
			c-0.71-0.06-1.03-0.57-0.88-1.18l7.61-29.51c0.15-0.65,0.58-0.93,1.29-0.88l4.56,0.36c0.71,0.06,1.04,0.39,1.09,1.06l2.94,30.34
			c0.05,0.67-0.34,1.09-1.05,1.03l-2.13-0.17C760.58,71.26,760.15,70.92,760.14,70.34z M753.2,60.59l6.08,0.48l-0.92-10.43
			l-0.5-8.67l-0.25-0.02l-1.84,8.48L753.2,60.59z"/>
		<path d="M778.59,69.56c0.71,0.06,1.04,0.39,0.99,1.01l-0.09,1.19c-0.05,0.62-0.43,0.94-1.14,0.89l-11.41-0.89
			c-0.71-0.06-1.09-0.44-1.04-1.06l0.09-1.1c0.02-0.27,0.1-0.57,0.22-0.83l10.75-25.31l-7.76-0.61c-0.71-0.06-1.09-0.44-1.04-1.06
			l0.09-1.19c0.05-0.62,0.48-0.9,1.19-0.84l11.41,0.89c0.71,0.06,1.04,0.39,0.99,1.01l-0.09,1.15c-0.02,0.27-0.09,0.53-0.21,0.78
			l-10.75,25.35L778.59,69.56z"/>
		<path d="M784.88,41.89c0.05-0.62,0.48-0.9,1.19-0.84l2.03,0.16c0.71,0.06,1.09,0.4,1.04,1.02l-1.93,24.8
			c-0.17,2.12,0.39,3.46,3.28,3.68s3.65-1,3.81-3.13l1.93-24.8c0.05-0.62,0.48-0.9,1.19-0.84l2.03,0.16
			c0.71,0.06,1.09,0.4,1.04,1.02l-1.94,24.8c-0.33,4.2-2.23,6.36-8.32,5.89c-6.08-0.48-7.63-2.91-7.3-7.11L784.88,41.89z"/>
		<path d="M817.23,69.37c-0.33,4.2-2.23,6.36-8.32,5.89c-6.08-0.48-7.63-2.91-7.3-7.11l0.29-3.67c0.05-0.62,0.48-0.9,1.19-0.84
			l2.03,0.16c0.71,0.06,1.09,0.4,1.04,1.02l-0.29,3.67c-0.17,2.12,0.39,3.46,3.28,3.68s3.65-1,3.81-3.13l1.93-24.8
			c0.05-0.62,0.48-0.9,1.19-0.84l2.03,0.16c0.71,0.06,1.09,0.4,1.04,1.02L817.23,69.37z"/>
		<path d="M833.11,76.79c-0.24-0.15-0.43-0.43-0.4-0.79l-0.59-6.14l-7.05-0.55l-1.49,5.98c-0.15,0.57-0.58,0.84-1.18,0.8l-2.13-0.17
			c-0.71-0.06-1.03-0.57-0.88-1.18L827,45.23c0.15-0.65,0.58-0.93,1.29-0.88l4.56,0.36c0.71,0.06,1.04,0.39,1.09,1.06l2.94,30.34
			c0.02,0.45-0.11,0.79-0.43,0.94l-2.53,3.05c-1.34,1.54-0.9,3.09,0.97,3.23l1.42,0.11c0.61,0.05,0.89,0.34,0.85,0.87l-0.08,1.02
			c-0.04,0.53-0.37,0.77-0.97,0.72l-1.62-0.13c-5.17-0.4-5.47-4.39-3.18-7.01L833.11,76.79z M825.77,66.26l6.08,0.48l-0.92-10.43
			l-0.5-8.67l-0.25-0.02l-1.84,8.48L825.77,66.26z"/>
		<path d="M856.63,58.08c-0.05,0.62-0.48,0.94-1.19,0.89l-2.03-0.16c-0.71-0.06-1.09-0.44-1.04-1.06l0.4-5.17
			c0.17-2.12-0.39-3.46-3.28-3.68s-3.65,1-3.81,3.13l-1.52,19.45c-0.17,2.12,0.39,3.46,3.28,3.68s3.65-1,3.81-3.13l0.41-5.22
			c0.05-0.62,0.48-0.9,1.19-0.84l2.03,0.16c0.71,0.06,1.09,0.4,1.04,1.02l-0.41,5.22c-0.33,4.2-2.23,6.36-8.32,5.89
			c-6.08-0.48-7.63-2.91-7.3-7.11l1.52-19.45c0.33-4.2,2.23-6.36,8.32-5.89s7.63,2.91,7.3,7.11L856.63,58.08z"/>
		<path d="M871,79l-0.59-6.14l-7.05-0.55l-1.49,5.98c-0.15,0.57-0.58,0.84-1.18,0.8l-2.13-0.17c-0.71-0.06-1.03-0.57-0.88-1.18
			l7.61-29.51c0.15-0.65,0.58-0.93,1.29-0.88l4.56,0.36c0.71,0.06,1.04,0.39,1.09,1.06l2.94,30.34c0.05,0.67-0.34,1.09-1.05,1.03
			L872,79.97C871.44,79.92,871.01,79.58,871,79z M864.06,69.25l6.08,0.48l-0.92-10.43l-0.5-8.67l-0.25-0.02l-1.84,8.48L864.06,69.25
			z"/>
		<path d="M891.81,80.53c-0.05,0.62-0.48,0.94-1.19,0.89l-2.03-0.16c-0.71-0.06-1.09-0.44-1.04-1.06l2.35-30.1
			c0.05-0.62,0.48-0.9,1.19-0.84l2.03,0.16c0.71,0.06,1.09,0.4,1.04,1.02L891.81,80.53z"/>
		<path d="M900.29,79.06l8.32,0.65c0.71,0.06,1.09,0.4,1.04,1.02l-0.09,1.19c-0.05,0.62-0.48,0.94-1.19,0.89l-11.46-0.9
			c-0.71-0.06-1.09-0.44-1.04-1.06l2.35-30.1c0.05-0.62,0.48-0.9,1.19-0.84l2.03,0.16c0.71,0.06,1.09,0.4,1.04,1.02L900.29,79.06z"
			/>
		<path d="M929.4,58.56l-1.52,19.45c-0.33,4.2-2.23,6.36-8.32,5.89c-6.08-0.48-7.63-2.91-7.3-7.11l1.52-19.45
			c0.33-4.2,2.23-6.36,8.32-5.89S929.73,54.37,929.4,58.56z M918.04,57.68l-1.52,19.45c-0.17,2.12,0.39,3.46,3.28,3.68
			s3.65-1,3.81-3.13l1.52-19.45c0.17-2.12-0.39-3.46-3.28-3.68S918.21,55.55,918.04,57.68z"/>
		<path d="M939.82,65.6l4.9,5.23c2.13,2.17,3.05,4.06,2.69,8.71c-0.33,4.2-2.23,6.36-8.32,5.89s-7.58-2.91-7.25-7.11l0.33-4.2
			c0.05-0.62,0.43-0.94,1.14-0.89l2.08,0.16c0.71,0.06,1.04,0.44,0.99,1.06l-0.33,4.2c-0.17,2.12,0.39,3.46,3.28,3.68
			s3.7-1,3.87-3.12c0.22-2.83-0.09-4.05-2.26-6.4l-4.9-5.23c-2.13-2.12-3.05-4.06-2.69-8.7c0.33-4.2,2.18-6.37,8.27-5.89
			c6.08,0.48,7.63,2.91,7.3,7.11l-0.33,4.2c-0.05,0.62-0.43,0.9-1.14,0.85l-2.08-0.16c-0.71-0.06-1.04-0.39-0.99-1.01l0.33-4.2
			c0.17-2.12-0.44-3.46-3.33-3.69s-3.65,1-3.81,3.13C937.34,62.07,937.65,63.3,939.82,65.6z M939.35,51.33
			c-0.57,0.18-0.97,0.06-1.24-0.41l-0.35-0.69c-0.22-0.46-0.04-0.85,0.49-1.07l7.61-3.41c0.58-0.22,1.02-0.05,1.29,0.46l0.75,1.44
			c0.27,0.51,0.08,0.94-0.5,1.12L939.35,51.33z"/>
		<path d="M968.1,66.79c-0.05,0.62-0.48,0.94-1.19,0.89l-2.03-0.16c-0.71-0.06-1.09-0.44-1.04-1.06l0.4-5.17
			c0.17-2.12-0.39-3.46-3.28-3.68c-2.89-0.23-3.65,1-3.81,3.13l-1.52,19.45c-0.17,2.12,0.39,3.46,3.28,3.68s3.65-1,3.81-3.13
			l0.41-5.22c0.05-0.62,0.48-0.9,1.19-0.84l2.03,0.16c0.71,0.06,1.09,0.4,1.04,1.02l-0.41,5.22c-0.33,4.2-2.23,6.36-8.32,5.89
			c-6.08-0.48-7.63-2.91-7.3-7.11l1.52-19.45c0.33-4.2,2.23-6.36,8.32-5.89c6.08,0.48,7.63,2.91,7.3,7.11L968.1,66.79z
			 M958.52,52.83c-0.58,0.18-0.97,0.06-1.24-0.41l-0.35-0.69c-0.22-0.46-0.04-0.85,0.49-1.07l7.61-3.41
			c0.58-0.22,1.02-0.05,1.29,0.46l0.75,1.44c0.27,0.51,0.08,0.94-0.5,1.12L958.52,52.83z"/>
		<path d="M986.62,73.9l0.98,11.93c0.05,0.62-0.33,1.01-1.04,1.06l-2.03,0.17c-0.71,0.06-1.14-0.26-1.19-0.88l-2.46-30.09
			c-0.05-0.62,0.33-0.96,1.04-1.02l5.53-0.45c6.64-0.54,8.67,1.83,9.04,6.38l0.4,4.9c0.38,4.6-1.24,7.26-7.88,7.81L986.62,73.9z
			 M988.75,70.61c3.45-0.28,4.08-1.85,3.88-4.37l-0.4-4.9c-0.2-2.47-1.09-3.91-4.53-3.63l-2.38,0.19l1.06,12.9L988.75,70.61z"/>
		<path d="M1010.94,70.22l6.92,12.87c0.3,0.51,0.1,1.19-0.76,1.31l-2.28,0.19c-0.61,0.05-0.98-0.14-1.17-0.57l-6.98-13l-1.98,0.16
			l1.08,13.17c0.05,0.62-0.33,1.01-1.04,1.06l-2.03,0.17c-0.71,0.06-1.14-0.26-1.19-0.88l-2.46-30.09
			c-0.05-0.62,0.33-0.96,1.04-1.02l5.68-0.46c6.64-0.54,8.62,1.83,8.99,6.38l0.3,3.71C1015.35,66.74,1014.57,69.12,1010.94,70.22z
			 M1006.97,67.88c3.45-0.28,4.09-1.8,3.88-4.32l-0.3-3.71c-0.2-2.47-1.09-3.92-4.53-3.63l-2.53,0.21l0.95,11.67L1006.97,67.88z"/>
		<path d="M1034.36,57.09l1.59,19.44c0.34,4.2-1.19,6.64-7.28,7.14c-6.08,0.5-7.99-1.66-8.34-5.86l-1.59-19.44
			c-0.34-4.2,1.19-6.64,7.27-7.14S1034.02,52.89,1034.36,57.09z M1023.01,58.02l1.59,19.44c0.17,2.12,0.94,3.35,3.83,3.11
			c2.89-0.24,3.44-1.57,3.27-3.69l-1.59-19.44c-0.17-2.12-0.94-3.35-3.83-3.11C1023.39,54.57,1022.84,55.9,1023.01,58.02z"/>
		<path d="M1041.62,82.39c-0.71,0.06-1.14-0.26-1.19-0.88l-2.46-30.09c-0.05-0.62,0.33-0.96,1.04-1.02l5.68-0.46
			c6.64-0.54,8.62,1.83,8.99,6.38l1.46,17.81c0.38,4.6-1.19,7.26-7.83,7.8L1041.62,82.39z M1047.05,78.83
			c3.45-0.28,4.08-1.85,3.88-4.37l-1.46-17.81c-0.2-2.47-1.09-3.91-4.53-3.63l-2.53,0.21l2.11,25.81L1047.05,78.83z"/>
		<path d="M1057.23,49.84c-0.05-0.62,0.33-0.96,1.04-1.02l2.03-0.17c0.71-0.06,1.14,0.22,1.19,0.84l2.03,24.79
			c0.17,2.12,0.94,3.35,3.83,3.11c2.89-0.24,3.44-1.57,3.27-3.69l-2.03-24.79c-0.05-0.62,0.33-0.96,1.04-1.02l2.03-0.17
			c0.71-0.06,1.14,0.22,1.19,0.84l2.03,24.79c0.34,4.2-1.19,6.64-7.28,7.13c-6.08,0.5-7.99-1.66-8.34-5.86L1057.23,49.84z"/>
		<path d="M1082.24,61.05l0.25-0.02l6.25-14.08c0.22-0.46,0.51-0.66,1.06-0.71l2.33-0.19c0.86-0.07,1.13,0.71,0.91,1.17l-6.9,15.42
			l9.32,14.1c0.29,0.42,0.15,1.23-0.71,1.3l-2.33,0.19c-0.56,0.05-0.88-0.11-1.17-0.53l-8.45-12.88l-0.25,0.02l1.07,13.12
			c0.05,0.62-0.33,1.01-1.04,1.06l-2.03,0.17c-0.71,0.06-1.14-0.26-1.19-0.88l-2.46-30.09c-0.05-0.62,0.33-0.96,1.04-1.02l2.03-0.17
			c0.71-0.06,1.14,0.22,1.19,0.84L1082.24,61.05z"/>
		<path d="M1111.51,50.78l1.59,19.44c0.34,4.2-1.19,6.64-7.28,7.13c-6.08,0.5-7.99-1.66-8.34-5.86l-1.59-19.44
			c-0.34-4.2,1.19-6.64,7.27-7.13S1111.17,46.58,1111.51,50.78z M1100.16,51.71l1.59,19.44c0.17,2.12,0.94,3.35,3.83,3.11
			c2.89-0.24,3.44-1.57,3.27-3.69l-1.59-19.44c-0.17-2.12-0.94-3.35-3.83-3.11C1100.54,48.25,1099.98,49.59,1100.16,51.71z"/>
		<path d="M1117.72,44.85l3.79,19.44l1.27,7.99l0.25-0.02l-0.1-8.09l0.37-19.78c0-0.58,0.38-0.92,1.04-0.98l3.6-0.29
			c0.61-0.05,1.04,0.18,1.19,0.79l3.58,19.46l1.17,8l0.3-0.02l-0.1-8.09l0.63-19.8c0-0.58,0.38-0.92,0.99-0.97l2.03-0.17
			c0.71-0.06,1.05,0.36,1.05,1.03l-1.2,30.21c-0.05,0.67-0.38,1.01-1.09,1.07l-4.21,0.34c-0.71,0.06-1.14-0.22-1.25-0.88
			l-3.24-18.42l-1.14-7.65l-0.25,0.02l0.12,7.73l-0.2,18.7c0,0.67-0.38,1.01-1.09,1.07l-4.21,0.34c-0.71,0.06-1.14-0.22-1.25-0.88
			l-6.1-29.62c-0.1-0.66,0.21-1.13,0.87-1.18l2.03-0.17C1117.14,44.01,1117.62,44.23,1117.72,44.85z"/>
		<path d="M1155.18,72.21l-1.56-5.97l-7.05,0.58l-0.52,6.14c-0.05,0.58-0.43,0.93-1.04,0.98l-2.13,0.17
			c-0.71,0.06-1.1-0.4-1.05-1.03l2.82-30.35c0.05-0.67,0.43-1.01,1.14-1.07l4.56-0.37c0.71-0.06,1.09,0.22,1.25,0.88l7.72,29.48
			c0.16,0.65-0.16,1.13-0.87,1.18l-2.13,0.17C1155.76,73.05,1155.28,72.78,1155.18,72.21z M1146.78,63.69l6.08-0.5l-2.57-10.16
			l-1.87-8.48l-0.25,0.02l-0.46,8.67L1146.78,63.69z"/>
		<path d="M1171.05,40.53c-0.05-0.62,0.33-0.96,1.04-1.02l1.93-0.16c0.71-0.06,1.09,0.22,1.14,0.84l2.46,30.09
			c0.05,0.62-0.28,1-0.99,1.06l-2.69,0.22c-0.71,0.06-0.98-0.19-1.23-0.74l-6.42-16.16l-2.31-6.35l-0.25,0.07l0.95,6.64l1.33,16.22
			c0.05,0.62-0.28,1-0.98,1.06l-1.93,0.16c-0.71,0.06-1.14-0.26-1.19-0.88l-2.46-30.09c-0.05-0.62,0.33-0.96,1.04-1.02l2.64-0.22
			c0.71-0.06,1.04,0.18,1.23,0.74l6.43,16.16l2.31,6.35l0.25-0.06l-0.95-6.64L1171.05,40.53z"/>
		<path d="M1180.76,38.8c0.51-0.04,0.98,0.14,1.17,0.57l3.2,7.34l2.41,6.39l0.25-0.02l1.34-6.69l1.92-7.76
			c0.12-0.45,0.55-0.71,1.06-0.75l2.18-0.18c0.76-0.06,1.16,0.48,1.01,1.12l-5.14,18.88l0.94,11.49c0.05,0.62-0.28,1-0.98,1.06
			l-2.08,0.17c-0.71,0.06-1.09-0.27-1.14-0.88l-0.94-11.49l-8.14-17.79c-0.3-0.6,0.05-1.21,0.81-1.27L1180.76,38.8z"/>
		<path d="M1214.41,47.57c0.05,0.62-0.33,1.01-1.04,1.06l-2.03,0.17c-0.71,0.06-1.14-0.26-1.2-0.88l-0.42-5.17
			c-0.17-2.12-0.94-3.35-3.83-3.11c-2.89,0.24-3.44,1.57-3.27,3.69l1.59,19.44c0.17,2.12,0.94,3.35,3.83,3.11
			c2.89-0.24,3.44-1.57,3.27-3.69l-0.43-5.21c-0.05-0.62,0.33-0.96,1.04-1.02l2.03-0.17c0.71-0.06,1.14,0.22,1.19,0.84l0.43,5.21
			c0.34,4.2-1.19,6.64-7.28,7.13c-6.08,0.5-7.99-1.66-8.34-5.86l-1.59-19.44c-0.34-4.2,1.19-6.64,7.27-7.13s7.99,1.66,8.34,5.86
			L1214.41,47.57z"/>
		<path d="M1222.98,49.89l7.1-0.58l-1.11-13.52c-0.05-0.62,0.33-0.96,1.04-1.02l2.03-0.17c0.71-0.06,1.14,0.22,1.19,0.84l2.46,30.09
			c0.05,0.62-0.33,1.01-1.04,1.06l-2.03,0.17c-0.71,0.06-1.14-0.26-1.19-0.88l-1.1-13.48l-7.1,0.58l1.1,13.48
			c0.05,0.62-0.33,1.01-1.04,1.06l-2.03,0.17c-0.71,0.06-1.14-0.26-1.19-0.88l-2.46-30.09c-0.05-0.62,0.33-0.96,1.04-1.02l2.03-0.17
			c0.71-0.06,1.14,0.22,1.19,0.84L1222.98,49.89z"/>
		<path d="M1263.1,38.38l1.59,19.44c0.34,4.2-1.19,6.64-7.28,7.13c-6.08,0.5-7.99-1.66-8.34-5.86l-1.59-19.44
			c-0.34-4.2,1.19-6.64,7.27-7.13S1262.76,34.18,1263.1,38.38z M1251.75,39.31l1.59,19.44c0.17,2.12,0.94,3.35,3.83,3.11
			c2.89-0.24,3.44-1.57,3.27-3.69l-1.59-19.44c-0.17-2.12-0.94-3.35-3.83-3.11C1252.13,35.85,1251.58,37.19,1251.75,39.31z"/>
		<path d="M1270.4,63.67c-0.71,0.06-1.14-0.26-1.19-0.88l-2.46-30.09c-0.05-0.62,0.33-0.96,1.04-1.02l5.68-0.46
			c6.64-0.54,8.62,1.83,8.99,6.38l1.46,17.81c0.38,4.6-1.19,7.26-7.83,7.8L1270.4,63.67z M1275.83,60.12
			c3.45-0.28,4.08-1.85,3.88-4.37l-1.46-17.81c-0.2-2.47-1.09-3.91-4.53-3.63l-2.53,0.21l2.11,25.81L1275.83,60.12z"/>
		<path d="M1291.74,48.94l0.98,11.93c0.05,0.62-0.33,1.01-1.04,1.06l-2.03,0.17c-0.71,0.06-1.14-0.26-1.19-0.88L1286,31.13
			c-0.05-0.62,0.33-0.96,1.04-1.02l5.53-0.45c6.64-0.54,8.67,1.83,9.04,6.38l0.4,4.91c0.38,4.6-1.24,7.26-7.88,7.81L1291.74,48.94z
			 M1293.87,45.65c3.45-0.28,4.08-1.85,3.88-4.37l-0.4-4.91c-0.2-2.47-1.09-3.92-4.53-3.63l-2.38,0.2l1.06,12.9L1293.87,45.65z"/>
		<path d="M1316.45,59.02l-1.56-5.97l-7.05,0.58l-0.52,6.14c-0.05,0.58-0.43,0.93-1.04,0.98l-2.13,0.17
			c-0.71,0.06-1.1-0.4-1.05-1.03l2.82-30.35c0.05-0.67,0.43-1.01,1.14-1.07l4.56-0.37c0.71-0.06,1.09,0.22,1.25,0.88l7.72,29.48
			c0.16,0.65-0.16,1.13-0.87,1.18l-2.13,0.17C1317.03,59.86,1316.55,59.59,1316.45,59.02z M1308.05,50.5l6.08-0.5l-2.57-10.16
			l-1.87-8.48l-0.25,0.02l-0.46,8.67L1308.05,50.5z"/>
		<path d="M1324.39,59.26c-0.71,0.06-1.14-0.26-1.19-0.88l-2.46-30.09c-0.05-0.62,0.33-0.96,1.04-1.02l5.68-0.46
			c6.64-0.54,8.62,1.83,8.99,6.38l1.46,17.81c0.38,4.6-1.19,7.26-7.83,7.8L1324.39,59.26z M1329.81,55.7
			c3.45-0.28,4.08-1.85,3.88-4.37l-1.46-17.81c-0.2-2.47-1.09-3.91-4.53-3.63l-2.53,0.21l2.11,25.81L1329.81,55.7z"/>
		<path d="M1356.04,30.78l1.59,19.44c0.34,4.2-1.19,6.64-7.28,7.13c-6.08,0.5-7.99-1.66-8.34-5.86l-1.59-19.44
			c-0.34-4.2,1.19-6.64,7.27-7.13S1355.7,26.58,1356.04,30.78z M1344.8,23.69c-0.54,0.27-0.95,0.21-1.29-0.21l-0.46-0.63
			c-0.29-0.42-0.17-0.83,0.31-1.14l6.97-4.58c0.54-0.31,1-0.22,1.35,0.25l0.97,1.3c0.34,0.46,0.23,0.92-0.31,1.18L1344.8,23.69z
			 M1344.69,31.71l1.59,19.44c0.17,2.12,0.94,3.35,3.83,3.11c2.89-0.24,3.44-1.57,3.27-3.69l-1.59-19.44
			c-0.17-2.12-0.94-3.35-3.83-3.11C1345.07,28.25,1344.51,29.59,1344.69,31.71z"/>
		<path d="M1362.27,24.84l3.79,19.44l1.27,7.99l0.25-0.02l-0.1-8.09l0.37-19.78c0-0.58,0.38-0.92,1.04-0.97l3.6-0.29
			c0.61-0.05,1.04,0.18,1.19,0.79l3.58,19.46l1.17,8l0.3-0.03l-0.1-8.09l0.63-19.8c0-0.58,0.38-0.92,0.99-0.97l2.03-0.17
			c0.71-0.06,1.05,0.36,1.05,1.03l-1.2,30.22c-0.05,0.67-0.38,1.01-1.09,1.07l-4.21,0.34c-0.71,0.06-1.14-0.22-1.25-0.88
			l-3.24-18.42l-1.14-7.65l-0.25,0.02l0.12,7.73l-0.2,18.7c0,0.67-0.38,1.01-1.09,1.07l-4.21,0.34c-0.71,0.06-1.14-0.22-1.25-0.88
			l-6.1-29.62c-0.1-0.66,0.21-1.13,0.87-1.18l2.03-0.17C1361.69,24,1362.17,24.23,1362.27,24.84z"/>
	</g>
</g>
</svg>
