<?xml version="1.0" encoding="UTF-8" standalone="no"?>
<!-- Generator: Adobe Illustrator 23.1.0, SVG Export Plug-In . SVG Version: 6.00 Build 0)  -->

<svg
   xmlns:dc="http://purl.org/dc/elements/1.1/"
   xmlns:cc="http://creativecommons.org/ns#"
   xmlns:rdf="http://www.w3.org/1999/02/22-rdf-syntax-ns#"
   xmlns:svg="http://www.w3.org/2000/svg"
   xmlns="http://www.w3.org/2000/svg"
   xmlns:sodipodi="http://sodipodi.sourceforge.net/DTD/sodipodi-0.dtd"
   xmlns:inkscape="http://www.inkscape.org/namespaces/inkscape"
   version="1.1"
   x="0px"
   y="0px"
   viewBox="0 0 1873.96 1062.84"
   xml:space="preserve"
   id="svg504"
   sodipodi:docname="mapa_tlo.svg"
   width="1873.96"
   height="1062.84"
   inkscape:version="0.92.4 (5da689c313, 2019-01-14)"><metadata
   id="metadata510"><rdf:RDF><cc:Work
       rdf:about=""><dc:format>image/svg+xml</dc:format><dc:type
         rdf:resource="http://purl.org/dc/dcmitype/StillImage" /><dc:title></dc:title></cc:Work></rdf:RDF></metadata><defs
   id="defs508" /><sodipodi:namedview
   pagecolor="#ffffff"
   bordercolor="#666666"
   borderopacity="1"
   objecttolerance="10"
   gridtolerance="10"
   guidetolerance="10"
   inkscape:pageopacity="0"
   inkscape:pageshadow="2"
   inkscape:window-width="1920"
   inkscape:window-height="1001"
   id="namedview506"
   showgrid="false"
   fit-margin-top="0"
   fit-margin-left="0"
   fit-margin-right="0"
   fit-margin-bottom="0"
   inkscape:zoom="0.6015625"
   inkscape:cx="929.5"
   inkscape:cy="534.17"
   inkscape:window-x="-9"
   inkscape:window-y="-9"
   inkscape:window-maximized="1"
   inkscape:current-layer="BACKGROUND" />
<style
   type="text/css"
   id="style261">
	.st0{opacity:0.8;fill:#ABEDFF;}
	.st1{opacity:0.35;fill:#00C8EB;stroke:#00C8EB;stroke-width:21;stroke-miterlimit:10;}
	.st2{fill:#FFFFFF;}
	.st3{fill:#A6E5E1;}
	.st4{fill:#69CAC8;}
	.st5{opacity:0.5;}
	.st6{fill:#3EB2AF;}
</style>
<g
   id="BACKGROUND"
   transform="translate(-30.5,-11.33)">
	
</g>
<g
   id="OBJECTS"
   transform="translate(-30.5,-11.33)">
	<g
   id="g414">
		<path
   class="st1"
   d="m 1834.53,1063.67 c -1.18,0 -2.36,-0.05 -3.55,-0.13 l -435.46,-32.77 -435.46,32.77 c -1.18,0.09 -2.36,0.13 -3.54,0.13 -1.18,0 -2.37,-0.05 -3.55,-0.13 l -435.46,-32.77 -435.46,32.77 c -1.18,0.09 -2.37,0.13 -3.55,0.13 -9.29,0 -18.3,-2.74 -25.23,-7.74 -7.81,-5.64 -12.27,-13.62 -12.27,-22 V 122.97 c 0,-15.33 14.71,-28.15 33.97,-29.6 l 439,-33.04 c 1.18,-0.09 2.36,-0.13 3.54,-0.13 1.18,0 2.36,0.05 3.55,0.13 L 956.52,93.1 1391.98,60.33 c 1.18,-0.09 2.36,-0.13 3.55,-0.13 1.19,0 2.36,0.05 3.54,0.13 l 439,33.04 c 19.26,1.45 33.97,14.27 33.97,29.6 v 910.96 c 0,8.38 -4.46,16.36 -12.27,22 -6.94,5 -15.95,7.74 -25.24,7.74 z"
   id="path266"
   inkscape:connector-curvature="0"
   style="opacity:0.35;fill:#00c8eb;stroke:#00c8eb;stroke-width:21;stroke-miterlimit:10" />
		<g
   id="g412">
			<g
   id="g284">
				<g
   id="g272">
					<path
   class="st2"
   d="m 1851.96,1037.3 c -1.35,0 -2.72,-0.05 -4.1,-0.15 l -434.91,-32.73 -434.9,32.73 c -1.38,0.1 -2.76,0.15 -4.11,0.15 -1.35,0 -2.73,-0.05 -4.1,-0.15 l -434.91,-32.73 -434.9,32.73 c -1.39,0.1 -2.77,0.15 -4.11,0.15 -10.92,0 -21.44,-3.25 -29.62,-9.15 -9.78,-7.05 -15.39,-17.29 -15.39,-28.08 V 89.1 c 0,-19.38 17.58,-35.33 40.9,-37.08 l 439,-33.04 c 1.39,-0.1 2.76,-0.15 4.11,-0.15 1.34,0 2.72,0.05 4.1,0.15 l 434.91,32.73 434.9,-32.73 c 1.39,-0.1 2.77,-0.15 4.11,-0.15 1.34,0 2.72,0.05 4.1,0.15 l 439.02,33.04 c 23.32,1.75 40.9,17.69 40.9,37.08 v 910.96 c 0,10.79 -5.61,21.03 -15.39,28.08 -8.18,5.91 -18.7,9.16 -29.61,9.16 z"
   id="path268"
   inkscape:connector-curvature="0"
   style="fill:#ffffff" />
					<path
   class="st2"
   d="m 1412.95,26.33 c 1.18,0 2.36,0.05 3.54,0.13 l 439,33.04 c 19.26,1.45 33.97,14.27 33.97,29.6 v 910.96 c 0,8.37 -4.46,16.36 -12.27,22 -6.94,5 -15.95,7.74 -25.23,7.74 -1.18,0 -2.36,-0.04 -3.55,-0.13 l -435.46,-32.77 -435.46,32.77 c -1.18,0.09 -2.36,0.13 -3.54,0.13 -1.18,0 -2.37,-0.04 -3.55,-0.13 L 534.94,996.9 99.48,1029.67 c -1.18,0.09 -2.37,0.13 -3.55,0.13 -9.29,0 -18.3,-2.74 -25.24,-7.74 -7.81,-5.64 -12.27,-13.62 -12.27,-22 V 89.1 c 0,-15.33 14.71,-28.15 33.97,-29.6 l 439,-33.04 c 1.18,-0.09 2.36,-0.13 3.55,-0.13 1.18,0 2.36,0.05 3.55,0.13 l 435.46,32.77 435.46,-32.77 c 1.18,-0.08 2.36,-0.13 3.54,-0.13 m 0,-15 c -1.53,0 -3.09,0.06 -4.65,0.17 L 973.95,44.19 539.62,11.51 c -1.58,-0.12 -3.14,-0.17 -4.67,-0.17 -1.53,0 -3.09,0.06 -4.65,0.17 L 91.27,44.54 C 64,46.6 43.43,65.75 43.43,89.1 v 910.96 c 0,13.23 6.74,25.68 18.5,34.16 9.45,6.82 21.53,10.57 34.01,10.57 1.53,0 3.09,-0.06 4.65,-0.17 l 434.36,-32.69 434.33,32.69 c 1.58,0.12 3.14,0.17 4.67,0.17 1.53,0 3.1,-0.06 4.65,-0.17 l 434.35,-32.69 434.33,32.69 c 1.58,0.12 3.15,0.17 4.68,0.17 12.47,0 24.55,-3.75 34,-10.57 11.76,-8.48 18.5,-20.93 18.5,-34.17 V 89.1 c 0,-23.35 -20.57,-42.51 -47.84,-44.56 l -439,-33.04 c -1.57,-0.11 -3.14,-0.17 -4.67,-0.17 z"
   id="path270"
   inkscape:connector-curvature="0"
   style="fill:#ffffff" />
				</g>
				<g
   id="g282">
					<polygon
   class="st3"
   points="973.95,89.1 534.95,56.07 534.95,967.03 973.95,1000.06 "
   id="polygon274"
   style="fill:#a6e5e1" />
					<polygon
   class="st3"
   points="1851.96,89.1 1412.96,56.07 1412.96,967.03 1851.96,1000.06 "
   id="polygon276"
   style="fill:#a6e5e1" />
					<polygon
   class="st4"
   points="95.95,89.1 534.95,56.07 534.95,967.03 95.95,1000.06 "
   id="polygon278"
   style="fill:#69cac8" />
					<polygon
   class="st4"
   points="973.95,89.1 1412.96,56.07 1412.96,967.03 973.95,1000.06 "
   id="polygon280"
   style="fill:#69cac8" />
				</g>
			</g>
			<polygon
   class="st4"
   points="102.45,89.1 541.46,56.07 541.46,967.03 102.45,1000.06 "
   id="polygon286"
   style="fill:#69cac8" />
			<polygon
   class="st4"
   points="980.46,89.1 1419.46,56.07 1419.46,967.03 980.46,1000.06 "
   id="polygon288"
   style="fill:#69cac8" />
			<g
   id="g410">
				<g
   class="st5"
   id="g292"
   style="opacity:0.5">
					<path
   class="st6"
   d="m 1033.18,168.62 c 0.68,0 1.31,-0.39 1.52,-1.01 0.26,-0.75 -0.21,-1.55 -1.05,-1.78 -0.53,-0.15 -13.16,-3.56 -22.53,0.05 -0.81,0.31 -1.18,1.15 -0.83,1.87 0.35,0.73 1.29,1.05 2.09,0.75 8.32,-3.2 20.23,0.02 20.35,0.05 0.14,0.05 0.29,0.07 0.45,0.07 z"
   id="path290"
   inkscape:connector-curvature="0"
   style="fill:#3eb2af" />
				</g>
				<g
   class="st5"
   id="g296"
   style="opacity:0.5">
					<path
   class="st6"
   d="m 920.98,189.75 c 0.68,0 1.31,-0.39 1.52,-1.01 0.26,-0.75 -0.21,-1.55 -1.05,-1.78 -0.53,-0.15 -13.16,-3.56 -22.53,0.05 -0.81,0.31 -1.18,1.15 -0.83,1.87 0.35,0.72 1.29,1.05 2.09,0.75 8.32,-3.2 20.23,0.02 20.35,0.05 0.14,0.05 0.3,0.07 0.45,0.07 z"
   id="path294"
   inkscape:connector-curvature="0"
   style="fill:#3eb2af" />
				</g>
				<g
   class="st5"
   id="g300"
   style="opacity:0.5">
					<path
   class="st6"
   d="m 1108.5,318.62 c 0.68,0 1.31,-0.39 1.52,-1.01 0.26,-0.75 -0.21,-1.55 -1.05,-1.78 -0.53,-0.15 -13.16,-3.56 -22.53,0.05 -0.81,0.31 -1.18,1.15 -0.83,1.87 0.35,0.72 1.29,1.05 2.09,0.75 8.32,-3.2 20.23,0.02 20.35,0.05 0.14,0.05 0.3,0.07 0.45,0.07 z"
   id="path298"
   inkscape:connector-curvature="0"
   style="fill:#3eb2af" />
				</g>
				<g
   class="st5"
   id="g304"
   style="opacity:0.5">
					<path
   class="st6"
   d="m 1267.33,423.25 c 0.68,0 1.31,-0.39 1.52,-1.01 0.26,-0.75 -0.21,-1.55 -1.05,-1.78 -0.53,-0.15 -13.16,-3.56 -22.53,0.05 -0.81,0.31 -1.18,1.15 -0.83,1.87 0.35,0.72 1.29,1.05 2.09,0.75 8.32,-3.2 20.23,0.02 20.35,0.05 0.14,0.05 0.3,0.07 0.45,0.07 z"
   id="path302"
   inkscape:connector-curvature="0"
   style="fill:#3eb2af" />
				</g>
				<g
   class="st5"
   id="g308"
   style="opacity:0.5">
					<path
   class="st6"
   d="m 1177.43,542.61 c 0.68,0 1.31,-0.39 1.52,-1.01 0.26,-0.75 -0.21,-1.55 -1.05,-1.78 -0.53,-0.15 -13.16,-3.56 -22.53,0.05 -0.81,0.31 -1.18,1.15 -0.83,1.87 0.35,0.73 1.29,1.05 2.09,0.75 8.32,-3.2 20.23,0.02 20.35,0.05 0.14,0.05 0.3,0.07 0.45,0.07 z"
   id="path306"
   inkscape:connector-curvature="0"
   style="fill:#3eb2af" />
				</g>
				<g
   class="st5"
   id="g312"
   style="opacity:0.5">
					<path
   class="st6"
   d="m 1181.63,709.97 c 0.68,0 1.31,-0.39 1.52,-1.01 0.26,-0.75 -0.21,-1.55 -1.05,-1.78 -0.53,-0.15 -13.16,-3.56 -22.53,0.05 -0.81,0.31 -1.18,1.15 -0.83,1.87 0.35,0.72 1.29,1.05 2.09,0.75 8.32,-3.2 20.23,0.02 20.35,0.05 0.14,0.05 0.29,0.07 0.45,0.07 z"
   id="path310"
   inkscape:connector-curvature="0"
   style="fill:#3eb2af" />
				</g>
				<g
   class="st5"
   id="g316"
   style="opacity:0.5">
					<path
   class="st6"
   d="m 1018.19,788.2 c 0.68,0 1.31,-0.39 1.52,-1.01 0.26,-0.75 -0.21,-1.55 -1.05,-1.78 -0.53,-0.15 -13.16,-3.56 -22.53,0.05 -0.81,0.31 -1.18,1.15 -0.83,1.87 0.35,0.72 1.29,1.05 2.09,0.75 8.32,-3.2 20.23,0.02 20.35,0.05 0.14,0.05 0.3,0.07 0.45,0.07 z"
   id="path314"
   inkscape:connector-curvature="0"
   style="fill:#3eb2af" />
				</g>
				<g
   class="st5"
   id="g320"
   style="opacity:0.5">
					<path
   class="st6"
   d="m 740.95,614.05 c 0.68,0 1.31,-0.39 1.52,-1.01 0.26,-0.75 -0.21,-1.55 -1.05,-1.78 -0.53,-0.15 -13.16,-3.56 -22.53,0.05 -0.81,0.31 -1.18,1.15 -0.83,1.87 0.35,0.73 1.29,1.05 2.09,0.75 8.32,-3.2 20.23,0.02 20.35,0.05 0.14,0.06 0.3,0.07 0.45,0.07 z"
   id="path318"
   inkscape:connector-curvature="0"
   style="fill:#3eb2af" />
				</g>
				<g
   class="st5"
   id="g324"
   style="opacity:0.5">
					<path
   class="st6"
   d="m 606.46,707.77 c 0.68,0 1.31,-0.39 1.52,-1.01 0.26,-0.75 -0.21,-1.55 -1.05,-1.78 -0.53,-0.15 -13.16,-3.56 -22.53,0.05 -0.81,0.31 -1.18,1.15 -0.83,1.87 0.35,0.72 1.29,1.05 2.09,0.75 8.32,-3.2 20.23,0.02 20.35,0.05 0.14,0.05 0.3,0.07 0.45,0.07 z"
   id="path322"
   inkscape:connector-curvature="0"
   style="fill:#3eb2af" />
				</g>
				<g
   class="st5"
   id="g328"
   style="opacity:0.5">
					<path
   class="st6"
   d="m 740.95,832.34 c 0.68,0 1.31,-0.39 1.52,-1.01 0.26,-0.75 -0.21,-1.55 -1.05,-1.78 -0.53,-0.15 -13.16,-3.56 -22.53,0.05 -0.81,0.31 -1.18,1.15 -0.83,1.87 0.35,0.72 1.29,1.05 2.09,0.75 8.32,-3.2 20.23,0.02 20.35,0.05 0.14,0.05 0.3,0.07 0.45,0.07 z"
   id="path326"
   inkscape:connector-curvature="0"
   style="fill:#3eb2af" />
				</g>
				<g
   class="st5"
   id="g332"
   style="opacity:0.5">
					<path
   class="st6"
   d="m 1391.82,821.25 c 0.68,0 1.31,-0.39 1.52,-1.01 0.26,-0.75 -0.21,-1.55 -1.05,-1.78 -0.53,-0.15 -13.16,-3.56 -22.53,0.05 -0.81,0.31 -1.18,1.15 -0.83,1.87 0.35,0.72 1.29,1.05 2.09,0.75 8.32,-3.2 20.23,0.02 20.35,0.05 0.14,0.05 0.3,0.07 0.45,0.07 z"
   id="path330"
   inkscape:connector-curvature="0"
   style="fill:#3eb2af" />
				</g>
				<g
   class="st5"
   id="g336"
   style="opacity:0.5">
					<path
   class="st6"
   d="m 1522,957.95 c 0.68,0 1.31,-0.39 1.52,-1.01 0.26,-0.75 -0.21,-1.55 -1.05,-1.78 -0.53,-0.15 -13.16,-3.56 -22.53,0.05 -0.81,0.31 -1.18,1.15 -0.83,1.87 0.35,0.72 1.29,1.05 2.09,0.75 8.32,-3.2 20.23,0.02 20.35,0.05 0.14,0.05 0.3,0.07 0.45,0.07 z"
   id="path334"
   inkscape:connector-curvature="0"
   style="fill:#3eb2af" />
				</g>
				<g
   class="st5"
   id="g340"
   style="opacity:0.5">
					<path
   class="st6"
   d="m 1642.34,691.29 c 0.68,0 1.31,-0.39 1.52,-1.01 0.26,-0.75 -0.21,-1.55 -1.05,-1.78 -0.53,-0.15 -13.16,-3.56 -22.53,0.05 -0.81,0.31 -1.18,1.15 -0.83,1.87 0.35,0.73 1.29,1.05 2.09,0.75 8.32,-3.2 20.23,0.02 20.35,0.05 0.14,0.05 0.29,0.07 0.45,0.07 z"
   id="path338"
   inkscape:connector-curvature="0"
   style="fill:#3eb2af" />
				</g>
				<g
   class="st5"
   id="g344"
   style="opacity:0.5">
					<path
   class="st6"
   d="m 1783.08,844.5 c 0.68,0 1.31,-0.39 1.52,-1.01 0.26,-0.75 -0.21,-1.55 -1.05,-1.78 -0.53,-0.15 -13.16,-3.56 -22.53,0.05 -0.81,0.31 -1.18,1.15 -0.83,1.87 0.35,0.72 1.29,1.05 2.09,0.75 8.32,-3.2 20.23,0.02 20.35,0.05 0.14,0.05 0.29,0.07 0.45,0.07 z"
   id="path342"
   inkscape:connector-curvature="0"
   style="fill:#3eb2af" />
				</g>
				<g
   class="st5"
   id="g348"
   style="opacity:0.5">
					<path
   class="st6"
   d="m 1790.16,585.76 c 0.68,0 1.31,-0.39 1.52,-1.01 0.26,-0.75 -0.21,-1.55 -1.05,-1.78 -0.53,-0.15 -13.16,-3.56 -22.53,0.05 -0.81,0.31 -1.18,1.15 -0.83,1.87 0.35,0.72 1.29,1.05 2.09,0.75 8.32,-3.2 20.23,0.02 20.35,0.05 0.14,0.05 0.29,0.07 0.45,0.07 z"
   id="path346"
   inkscape:connector-curvature="0"
   style="fill:#3eb2af" />
				</g>
				<g
   class="st5"
   id="g352"
   style="opacity:0.5">
					<path
   class="st6"
   d="m 1639.9,356.32 c 0.68,0 1.31,-0.39 1.52,-1.01 0.26,-0.75 -0.21,-1.55 -1.05,-1.78 -0.53,-0.15 -13.16,-3.56 -22.53,0.05 -0.81,0.31 -1.18,1.15 -0.83,1.87 0.35,0.73 1.29,1.05 2.09,0.75 8.32,-3.2 20.23,0.02 20.35,0.05 0.14,0.05 0.3,0.07 0.45,0.07 z"
   id="path350"
   inkscape:connector-curvature="0"
   style="fill:#3eb2af" />
				</g>
				<g
   class="st5"
   id="g356"
   style="opacity:0.5">
					<path
   class="st6"
   d="m 1770.77,152.39 c 0.68,0 1.31,-0.39 1.52,-1.01 0.26,-0.75 -0.21,-1.55 -1.05,-1.78 -0.53,-0.15 -13.16,-3.56 -22.53,0.05 -0.81,0.31 -1.18,1.15 -0.83,1.87 0.35,0.72 1.29,1.05 2.09,0.75 8.32,-3.2 20.23,0.02 20.35,0.05 0.14,0.05 0.29,0.07 0.45,0.07 z"
   id="path354"
   inkscape:connector-curvature="0"
   style="fill:#3eb2af" />
				</g>
				<g
   class="st5"
   id="g360"
   style="opacity:0.5">
					<path
   class="st6"
   d="m 1382.29,103.94 c 0.68,0 1.31,-0.39 1.52,-1.01 0.26,-0.75 -0.21,-1.55 -1.05,-1.78 -0.53,-0.15 -13.16,-3.56 -22.53,0.05 -0.81,0.31 -1.18,1.15 -0.83,1.87 0.35,0.72 1.29,1.05 2.09,0.75 8.32,-3.2 20.23,0.02 20.35,0.05 0.13,0.05 0.29,0.07 0.45,0.07 z"
   id="path358"
   inkscape:connector-curvature="0"
   style="fill:#3eb2af" />
				</g>
				<g
   class="st5"
   id="g364"
   style="opacity:0.5">
					<path
   class="st6"
   d="m 796.98,98.9 c 0.68,0 1.31,-0.39 1.52,-1.01 0.26,-0.75 -0.21,-1.55 -1.05,-1.78 -0.53,-0.15 -13.16,-3.56 -22.53,0.05 -0.81,0.31 -1.18,1.15 -0.83,1.87 0.35,0.72 1.29,1.05 2.09,0.75 8.32,-3.2 20.23,0.02 20.35,0.05 0.14,0.05 0.29,0.07 0.45,0.07 z"
   id="path362"
   inkscape:connector-curvature="0"
   style="fill:#3eb2af" />
				</g>
				<g
   class="st5"
   id="g368"
   style="opacity:0.5">
					<path
   class="st6"
   d="m 538.58,80.46 c 0.68,0 1.31,-0.39 1.52,-1.01 0.26,-0.75 -0.21,-1.55 -1.05,-1.78 -0.53,-0.15 -13.16,-3.56 -22.53,0.05 -0.81,0.31 -1.18,1.15 -0.83,1.87 0.35,0.72 1.29,1.05 2.09,0.75 8.32,-3.2 20.23,0.02 20.35,0.05 0.14,0.05 0.3,0.07 0.45,0.07 z"
   id="path366"
   inkscape:connector-curvature="0"
   style="fill:#3eb2af" />
				</g>
				<g
   class="st5"
   id="g372"
   style="opacity:0.5">
					<path
   class="st6"
   d="m 304.73,103.94 c 0.68,0 1.31,-0.39 1.52,-1.01 0.26,-0.75 -0.21,-1.55 -1.05,-1.78 -0.53,-0.15 -13.16,-3.56 -22.53,0.05 -0.81,0.31 -1.18,1.15 -0.83,1.87 0.35,0.72 1.29,1.05 2.09,0.75 8.32,-3.2 20.23,0.02 20.35,0.05 0.14,0.05 0.29,0.07 0.45,0.07 z"
   id="path370"
   inkscape:connector-curvature="0"
   style="fill:#3eb2af" />
				</g>
				<g
   class="st5"
   id="g376"
   style="opacity:0.5">
					<path
   class="st6"
   d="m 172.67,272.37 c 0.68,0 1.31,-0.39 1.52,-1.01 0.26,-0.75 -0.21,-1.55 -1.05,-1.78 -0.53,-0.15 -13.16,-3.56 -22.53,0.05 -0.81,0.31 -1.18,1.15 -0.83,1.87 0.35,0.73 1.29,1.05 2.09,0.75 8.32,-3.2 20.23,0.02 20.35,0.05 0.14,0.05 0.29,0.07 0.45,0.07 z"
   id="path374"
   inkscape:connector-curvature="0"
   style="fill:#3eb2af" />
				</g>
				<g
   class="st5"
   id="g380"
   style="opacity:0.5">
					<path
   class="st6"
   d="m 302.46,499.39 c 0.68,0 1.31,-0.39 1.52,-1.01 0.26,-0.75 -0.21,-1.55 -1.05,-1.78 -0.53,-0.15 -13.16,-3.56 -22.53,0.05 -0.81,0.31 -1.18,1.15 -0.83,1.87 0.35,0.73 1.29,1.05 2.09,0.75 8.32,-3.2 20.23,0.02 20.35,0.05 0.14,0.05 0.29,0.07 0.45,0.07 z"
   id="path378"
   inkscape:connector-curvature="0"
   style="fill:#3eb2af" />
				</g>
				<g
   class="st5"
   id="g384"
   style="opacity:0.5">
					<path
   class="st6"
   d="m 192.25,681.02 c 0.68,0 1.31,-0.39 1.52,-1.01 0.26,-0.75 -0.21,-1.55 -1.05,-1.78 -0.53,-0.15 -13.16,-3.56 -22.53,0.05 -0.81,0.31 -1.18,1.15 -0.83,1.87 0.35,0.72 1.29,1.05 2.09,0.75 8.32,-3.2 20.23,0.02 20.35,0.05 0.14,0.05 0.3,0.07 0.45,0.07 z"
   id="path382"
   inkscape:connector-curvature="0"
   style="fill:#3eb2af" />
				</g>
				<g
   class="st5"
   id="g388"
   style="opacity:0.5">
					<path
   class="st6"
   d="m 420.33,868.2 c 0.68,0 1.31,-0.39 1.52,-1.01 0.26,-0.75 -0.21,-1.55 -1.05,-1.78 -0.53,-0.15 -13.16,-3.56 -22.53,0.05 -0.81,0.31 -1.18,1.15 -0.83,1.87 0.35,0.72 1.29,1.05 2.09,0.75 8.32,-3.2 20.23,0.02 20.35,0.05 0.14,0.05 0.29,0.07 0.45,0.07 z"
   id="path386"
   inkscape:connector-curvature="0"
   style="fill:#3eb2af" />
				</g>
				<g
   class="st5"
   id="g392"
   style="opacity:0.5">
					<path
   class="st6"
   d="m 192.25,953.38 c 0.68,0 1.31,-0.39 1.52,-1.01 0.26,-0.75 -0.21,-1.55 -1.05,-1.78 -0.53,-0.15 -13.16,-3.56 -22.53,0.05 -0.81,0.31 -1.18,1.15 -0.83,1.87 0.35,0.72 1.29,1.05 2.09,0.75 8.32,-3.2 20.23,0.02 20.35,0.05 0.14,0.05 0.3,0.07 0.45,0.07 z"
   id="path390"
   inkscape:connector-curvature="0"
   style="fill:#3eb2af" />
				</g>
				<g
   class="st5"
   id="g396"
   style="opacity:0.5">
					<path
   class="st6"
   d="m 1469.81,648.23 c 0.68,0 1.31,-0.39 1.52,-1.01 0.26,-0.75 -0.21,-1.55 -1.05,-1.78 -0.53,-0.15 -13.16,-3.56 -22.53,0.05 -0.81,0.31 -1.18,1.15 -0.83,1.87 0.35,0.72 1.29,1.05 2.09,0.75 8.32,-3.2 20.23,0.02 20.35,0.05 0.14,0.05 0.29,0.07 0.45,0.07 z"
   id="path394"
   inkscape:connector-curvature="0"
   style="fill:#3eb2af" />
				</g>
				<g
   class="st5"
   id="g400"
   style="opacity:0.5">
					<path
   class="st6"
   d="m 1574.92,553.64 c 0.68,0 1.31,-0.39 1.52,-1.01 0.26,-0.75 -0.21,-1.55 -1.05,-1.78 -0.53,-0.15 -13.16,-3.56 -22.53,0.05 -0.81,0.31 -1.18,1.15 -0.83,1.87 0.35,0.73 1.29,1.05 2.09,0.75 8.32,-3.2 20.23,0.02 20.35,0.05 0.14,0.05 0.3,0.07 0.45,0.07 z"
   id="path398"
   inkscape:connector-curvature="0"
   style="fill:#3eb2af" />
				</g>
				<g
   class="st5"
   id="g404"
   style="opacity:0.5">
					<path
   class="st6"
   d="m 489.98,530.04 c 0.68,0 1.31,-0.39 1.52,-1.01 0.26,-0.75 -0.21,-1.55 -1.05,-1.78 -0.53,-0.15 -13.16,-3.56 -22.53,0.05 -0.81,0.31 -1.18,1.15 -0.83,1.87 0.35,0.72 1.29,1.05 2.09,0.75 8.32,-3.2 20.23,0.02 20.35,0.05 0.14,0.05 0.3,0.07 0.45,0.07 z"
   id="path402"
   inkscape:connector-curvature="0"
   style="fill:#3eb2af" />
				</g>
				<g
   class="st5"
   id="g408"
   style="opacity:0.5">
					<path
   class="st6"
   d="m 400.19,379.99 c 0.68,0 1.31,-0.39 1.52,-1.01 0.26,-0.75 -0.21,-1.55 -1.05,-1.78 -0.53,-0.15 -13.16,-3.56 -22.53,0.05 -0.81,0.31 -1.18,1.15 -0.83,1.87 0.35,0.73 1.29,1.05 2.09,0.75 8.32,-3.2 20.23,0.02 20.35,0.05 0.14,0.05 0.29,0.07 0.45,0.07 z"
   id="path406"
   inkscape:connector-curvature="0"
   style="fill:#3eb2af" />
				</g>
			</g>
		</g>
	</g>
	<g
   id="g420">
		<polygon
   class="st2"
   points="541.19,62.85 95.37,96.27 80.29,67.81 586.57,32.44 961,67.7 1371.74,32.44 1857.86,67.76 1862.57,97.73 1852.05,100.57 1419.46,66 973.95,97.71 "
   id="polygon416"
   style="fill:#ffffff" />
		<path
   class="st2"
   d="M 1371.75,33.44 1857,68.7 1861.44,97 1851.96,99.56 1419.46,65 973.95,96.71 541.19,61.85 95.95,95.22 81.89,68.7 586.56,33.44 961,68.7 1371.75,33.44 m -785.16,-2 -0.16,0.01 -504.68,35.26 -3.07,0.21 1.44,2.72 14.06,26.52 0.61,1.16 1.3,-0.1 445.09,-33.36 432.61,34.84 0.15,0.01 0.15,-0.01 445.36,-31.7 432.35,34.54 0.35,0.03 0.33,-0.09 9.48,-2.56 1.73,-0.47 -0.28,-1.77 -4.44,-28.3 -0.25,-1.57 -1.58,-0.12 -485.25,-35.26 -0.16,-0.01 -0.16,0.01 L 961.01,66.7 586.75,31.45 Z"
   id="path418"
   inkscape:connector-curvature="0"
   style="fill:#ffffff" />
	</g>
</g>
<g
   id="DESIGNED_BY_FREEPIK"
   transform="translate(-30.5,-11.33)">
	<g
   id="g501">
		<path
   d="m 613.57,53.24 c -0.76,-0.06 -1.04,-0.44 -1.1,-0.98 l -1.94,-18.25 -0.25,-0.01 -0.13,6.26 -1.42,18.17 c -0.05,0.62 -0.48,0.94 -1.19,0.89 l -1.77,-0.14 c -0.71,-0.06 -1.09,-0.44 -1.04,-1.06 l 2.35,-30.1 c 0.05,-0.62 0.48,-0.9 1.19,-0.84 l 3.7,0.29 c 0.71,0.06 1.04,0.35 1.09,1.02 l 1.59,12.93 0.68,7.66 0.3,0.02 1.86,-7.46 3.53,-12.53 c 0.2,-0.65 0.58,-0.89 1.29,-0.83 l 3.7,0.29 c 0.71,0.06 1.09,0.4 1.04,1.02 l -2.35,30.1 c -0.05,0.62 -0.48,0.94 -1.19,0.88 l -1.77,-0.14 c -0.71,-0.06 -1.09,-0.44 -1.04,-1.06 l 1.42,-18.17 0.84,-6.21 -0.25,-0.02 -4.75,17.73 c -0.14,0.52 -0.53,0.85 -1.24,0.79 z"
   id="path423"
   inkscape:connector-curvature="0" />
		<path
   d="m 640.63,61.01 -0.59,-6.14 -7.05,-0.55 -1.49,5.98 c -0.15,0.57 -0.58,0.84 -1.18,0.8 l -2.13,-0.17 c -0.71,-0.06 -1.03,-0.57 -0.88,-1.18 l 7.61,-29.51 c 0.15,-0.65 0.58,-0.93 1.29,-0.88 l 4.56,0.36 c 0.71,0.06 1.04,0.39 1.09,1.06 l 2.94,30.34 c 0.05,0.67 -0.34,1.09 -1.05,1.03 l -2.13,-0.17 c -0.56,-0.05 -0.99,-0.4 -0.99,-0.97 z m -6.95,-9.75 6.08,0.48 -0.92,-10.43 -0.5,-8.67 -0.25,-0.02 -1.84,8.48 z"
   id="path425"
   inkscape:connector-curvature="0" />
		<path
   d="m 652.57,49.84 -0.93,11.94 c -0.05,0.62 -0.48,0.94 -1.19,0.89 l -2.03,-0.16 c -0.71,-0.06 -1.09,-0.44 -1.04,-1.06 l 2.35,-30.1 c 0.05,-0.62 0.48,-0.9 1.19,-0.84 l 5.53,0.43 c 6.64,0.52 8.27,3.18 7.92,7.74 l -0.38,4.91 c -0.36,4.6 -2.38,6.97 -9.02,6.45 z m 2.62,-2.91 c 3.45,0.27 4.33,-1.17 4.52,-3.69 l 0.38,-4.91 c 0.19,-2.48 -0.45,-4.04 -3.9,-4.31 l -2.38,-0.19 -1.01,12.91 z"
   id="path427"
   inkscape:connector-curvature="0" />
		<path
   d="m 675.36,63.72 -0.59,-6.14 -7.05,-0.55 -1.48,5.97 c -0.15,0.57 -0.58,0.84 -1.18,0.8 l -2.13,-0.17 c -0.71,-0.06 -1.03,-0.57 -0.88,-1.18 l 7.61,-29.51 c 0.15,-0.65 0.58,-0.93 1.29,-0.88 l 4.56,0.36 c 0.71,0.06 1.04,0.39 1.09,1.06 l 2.94,30.34 c 0.05,0.67 -0.34,1.09 -1.05,1.03 l -2.13,-0.17 c -0.56,-0.04 -0.99,-0.38 -1,-0.96 z m -6.94,-9.75 6.08,0.48 -0.92,-10.43 -0.5,-8.67 -0.25,-0.02 -1.83,8.48 z"
   id="path429"
   inkscape:connector-curvature="0" />
		<path
   d="m 697.08,53.32 -0.93,11.94 c -0.05,0.62 -0.48,0.94 -1.19,0.89 l -2.03,-0.16 c -0.71,-0.06 -1.09,-0.44 -1.04,-1.06 l 2.35,-30.1 c 0.05,-0.62 0.48,-0.9 1.19,-0.84 l 5.53,0.43 c 6.64,0.52 8.27,3.18 7.92,7.74 l -0.38,4.91 c -0.36,4.6 -2.38,6.97 -9.02,6.45 z m 2.62,-2.91 c 3.45,0.27 4.33,-1.17 4.52,-3.69 l 0.38,-4.91 c 0.19,-2.48 -0.45,-4.04 -3.9,-4.31 l -2.38,-0.19 -1.01,12.91 z"
   id="path431"
   inkscape:connector-curvature="0" />
		<path
   d="m 727.61,42.8 -1.52,19.45 c -0.33,4.2 -2.23,6.36 -8.32,5.89 -6.08,-0.48 -7.63,-2.91 -7.3,-7.11 L 712,41.58 c 0.33,-4.2 2.23,-6.36 8.32,-5.89 6.08,0.48 7.62,2.92 7.29,7.11 z m -11.36,-0.88 -1.52,19.45 c -0.17,2.12 0.39,3.46 3.28,3.68 2.89,0.22 3.65,-1 3.81,-3.13 l 1.52,-19.45 c 0.17,-2.12 -0.39,-3.46 -3.28,-3.68 -2.89,-0.22 -3.64,1 -3.81,3.13 z"
   id="path433"
   inkscape:connector-curvature="0" />
		<path
   d="m 735.31,51.28 0.25,0.02 8.4,-12.91 c 0.29,-0.42 0.61,-0.58 1.16,-0.53 l 2.33,0.18 c 0.86,0.07 1,0.88 0.71,1.3 l -9.26,14.13 6.96,15.4 c 0.22,0.46 -0.05,1.24 -0.91,1.17 l -2.33,-0.18 c -0.56,-0.04 -0.85,-0.24 -1.07,-0.71 L 735.25,55.09 735,55.07 733.98,68.2 c -0.05,0.62 -0.48,0.94 -1.19,0.89 l -2.03,-0.16 c -0.71,-0.06 -1.09,-0.44 -1.04,-1.06 l 2.35,-30.1 c 0.05,-0.62 0.48,-0.9 1.19,-0.84 l 2.03,0.16 c 0.71,0.06 1.09,0.4 1.04,1.02 z"
   id="path435"
   inkscape:connector-curvature="0" />
		<path
   d="m 760.14,70.34 -0.59,-6.14 -7.05,-0.55 -1.49,5.98 c -0.15,0.57 -0.58,0.84 -1.18,0.8 l -2.13,-0.17 c -0.71,-0.06 -1.03,-0.57 -0.88,-1.18 l 7.61,-29.51 c 0.15,-0.65 0.58,-0.93 1.29,-0.88 l 4.56,0.36 c 0.71,0.06 1.04,0.39 1.09,1.06 l 2.94,30.34 c 0.05,0.67 -0.34,1.09 -1.05,1.03 l -2.13,-0.17 c -0.55,-0.05 -0.98,-0.39 -0.99,-0.97 z m -6.94,-9.75 6.08,0.48 -0.92,-10.43 -0.5,-8.67 -0.25,-0.02 -1.84,8.48 z"
   id="path437"
   inkscape:connector-curvature="0" />
		<path
   d="m 778.59,69.56 c 0.71,0.06 1.04,0.39 0.99,1.01 l -0.09,1.19 c -0.05,0.62 -0.43,0.94 -1.14,0.89 l -11.41,-0.89 c -0.71,-0.06 -1.09,-0.44 -1.04,-1.06 l 0.09,-1.1 c 0.02,-0.27 0.1,-0.57 0.22,-0.83 l 10.75,-25.31 -7.76,-0.61 c -0.71,-0.06 -1.09,-0.44 -1.04,-1.06 l 0.09,-1.19 c 0.05,-0.62 0.48,-0.9 1.19,-0.84 l 11.41,0.89 c 0.71,0.06 1.04,0.39 0.99,1.01 l -0.09,1.15 c -0.02,0.27 -0.09,0.53 -0.21,0.78 l -10.75,25.35 z"
   id="path439"
   inkscape:connector-curvature="0" />
		<path
   d="m 784.88,41.89 c 0.05,-0.62 0.48,-0.9 1.19,-0.84 l 2.03,0.16 c 0.71,0.06 1.09,0.4 1.04,1.02 l -1.93,24.8 c -0.17,2.12 0.39,3.46 3.28,3.68 2.89,0.22 3.65,-1 3.81,-3.13 l 1.93,-24.8 c 0.05,-0.62 0.48,-0.9 1.19,-0.84 l 2.03,0.16 c 0.71,0.06 1.09,0.4 1.04,1.02 l -1.94,24.8 c -0.33,4.2 -2.23,6.36 -8.32,5.89 -6.08,-0.48 -7.63,-2.91 -7.3,-7.11 z"
   id="path441"
   inkscape:connector-curvature="0" />
		<path
   d="m 817.23,69.37 c -0.33,4.2 -2.23,6.36 -8.32,5.89 -6.08,-0.48 -7.63,-2.91 -7.3,-7.11 l 0.29,-3.67 c 0.05,-0.62 0.48,-0.9 1.19,-0.84 l 2.03,0.16 c 0.71,0.06 1.09,0.4 1.04,1.02 l -0.29,3.67 c -0.17,2.12 0.39,3.46 3.28,3.68 2.89,0.22 3.65,-1 3.81,-3.13 l 1.93,-24.8 c 0.05,-0.62 0.48,-0.9 1.19,-0.84 l 2.03,0.16 c 0.71,0.06 1.09,0.4 1.04,1.02 z"
   id="path443"
   inkscape:connector-curvature="0" />
		<path
   d="m 833.11,76.79 c -0.24,-0.15 -0.43,-0.43 -0.4,-0.79 l -0.59,-6.14 -7.05,-0.55 -1.49,5.98 c -0.15,0.57 -0.58,0.84 -1.18,0.8 l -2.13,-0.17 c -0.71,-0.06 -1.03,-0.57 -0.88,-1.18 L 827,45.23 c 0.15,-0.65 0.58,-0.93 1.29,-0.88 l 4.56,0.36 c 0.71,0.06 1.04,0.39 1.09,1.06 l 2.94,30.34 c 0.02,0.45 -0.11,0.79 -0.43,0.94 l -2.53,3.05 c -1.34,1.54 -0.9,3.09 0.97,3.23 l 1.42,0.11 c 0.61,0.05 0.89,0.34 0.85,0.87 l -0.08,1.02 c -0.04,0.53 -0.37,0.77 -0.97,0.72 l -1.62,-0.13 c -5.17,-0.4 -5.47,-4.39 -3.18,-7.01 z m -7.34,-10.53 6.08,0.48 -0.92,-10.43 -0.5,-8.67 -0.25,-0.02 -1.84,8.48 z"
   id="path445"
   inkscape:connector-curvature="0" />
		<path
   d="m 856.63,58.08 c -0.05,0.62 -0.48,0.94 -1.19,0.89 l -2.03,-0.16 c -0.71,-0.06 -1.09,-0.44 -1.04,-1.06 l 0.4,-5.17 c 0.17,-2.12 -0.39,-3.46 -3.28,-3.68 -2.89,-0.22 -3.65,1 -3.81,3.13 l -1.52,19.45 c -0.17,2.12 0.39,3.46 3.28,3.68 2.89,0.22 3.65,-1 3.81,-3.13 l 0.41,-5.22 c 0.05,-0.62 0.48,-0.9 1.19,-0.84 l 2.03,0.16 c 0.71,0.06 1.09,0.4 1.04,1.02 l -0.41,5.22 c -0.33,4.2 -2.23,6.36 -8.32,5.89 -6.08,-0.48 -7.63,-2.91 -7.3,-7.11 l 1.52,-19.45 c 0.33,-4.2 2.23,-6.36 8.32,-5.89 6.09,0.47 7.63,2.91 7.3,7.11 z"
   id="path447"
   inkscape:connector-curvature="0" />
		<path
   d="m 871,79 -0.59,-6.14 -7.05,-0.55 -1.49,5.98 c -0.15,0.57 -0.58,0.84 -1.18,0.8 l -2.13,-0.17 c -0.71,-0.06 -1.03,-0.57 -0.88,-1.18 l 7.61,-29.51 c 0.15,-0.65 0.58,-0.93 1.29,-0.88 l 4.56,0.36 c 0.71,0.06 1.04,0.39 1.09,1.06 l 2.94,30.34 c 0.05,0.67 -0.34,1.09 -1.05,1.03 L 872,79.97 c -0.56,-0.05 -0.99,-0.39 -1,-0.97 z m -6.94,-9.75 6.08,0.48 -0.92,-10.43 -0.5,-8.67 -0.25,-0.02 -1.84,8.48 z"
   id="path449"
   inkscape:connector-curvature="0" />
		<path
   d="m 891.81,80.53 c -0.05,0.62 -0.48,0.94 -1.19,0.89 l -2.03,-0.16 c -0.71,-0.06 -1.09,-0.44 -1.04,-1.06 l 2.35,-30.1 c 0.05,-0.62 0.48,-0.9 1.19,-0.84 l 2.03,0.16 c 0.71,0.06 1.09,0.4 1.04,1.02 z"
   id="path451"
   inkscape:connector-curvature="0" />
		<path
   d="m 900.29,79.06 8.32,0.65 c 0.71,0.06 1.09,0.4 1.04,1.02 l -0.09,1.19 c -0.05,0.62 -0.48,0.94 -1.19,0.89 l -11.46,-0.9 c -0.71,-0.06 -1.09,-0.44 -1.04,-1.06 l 2.35,-30.1 c 0.05,-0.62 0.48,-0.9 1.19,-0.84 l 2.03,0.16 c 0.71,0.06 1.09,0.4 1.04,1.02 z"
   id="path453"
   inkscape:connector-curvature="0" />
		<path
   d="m 929.4,58.56 -1.52,19.45 c -0.33,4.2 -2.23,6.36 -8.32,5.89 -6.08,-0.48 -7.63,-2.91 -7.3,-7.11 l 1.52,-19.45 c 0.33,-4.2 2.23,-6.36 8.32,-5.89 6.09,0.47 7.63,2.92 7.3,7.11 z m -11.36,-0.88 -1.52,19.45 c -0.17,2.12 0.39,3.46 3.28,3.68 2.89,0.22 3.65,-1 3.81,-3.13 l 1.52,-19.45 c 0.17,-2.12 -0.39,-3.46 -3.28,-3.68 -2.89,-0.22 -3.64,1 -3.81,3.13 z"
   id="path455"
   inkscape:connector-curvature="0" />
		<path
   d="m 939.82,65.6 4.9,5.23 c 2.13,2.17 3.05,4.06 2.69,8.71 -0.33,4.2 -2.23,6.36 -8.32,5.89 -6.09,-0.47 -7.58,-2.91 -7.25,-7.11 l 0.33,-4.2 c 0.05,-0.62 0.43,-0.94 1.14,-0.89 l 2.08,0.16 c 0.71,0.06 1.04,0.44 0.99,1.06 l -0.33,4.2 c -0.17,2.12 0.39,3.46 3.28,3.68 2.89,0.22 3.7,-1 3.87,-3.12 0.22,-2.83 -0.09,-4.05 -2.26,-6.4 l -4.9,-5.23 c -2.13,-2.12 -3.05,-4.06 -2.69,-8.7 0.33,-4.2 2.18,-6.37 8.27,-5.89 6.08,0.48 7.63,2.91 7.3,7.11 l -0.33,4.2 c -0.05,0.62 -0.43,0.9 -1.14,0.85 l -2.08,-0.16 c -0.71,-0.06 -1.04,-0.39 -0.99,-1.01 l 0.33,-4.2 c 0.17,-2.12 -0.44,-3.46 -3.33,-3.69 -2.89,-0.23 -3.65,1 -3.81,3.13 -0.23,2.85 0.08,4.08 2.25,6.38 z m -0.47,-14.27 c -0.57,0.18 -0.97,0.06 -1.24,-0.41 l -0.35,-0.69 c -0.22,-0.46 -0.04,-0.85 0.49,-1.07 l 7.61,-3.41 c 0.58,-0.22 1.02,-0.05 1.29,0.46 l 0.75,1.44 c 0.27,0.51 0.08,0.94 -0.5,1.12 z"
   id="path457"
   inkscape:connector-curvature="0" />
		<path
   d="m 968.1,66.79 c -0.05,0.62 -0.48,0.94 -1.19,0.89 l -2.03,-0.16 c -0.71,-0.06 -1.09,-0.44 -1.04,-1.06 l 0.4,-5.17 c 0.17,-2.12 -0.39,-3.46 -3.28,-3.68 -2.89,-0.23 -3.65,1 -3.81,3.13 l -1.52,19.45 c -0.17,2.12 0.39,3.46 3.28,3.68 2.89,0.22 3.65,-1 3.81,-3.13 l 0.41,-5.22 c 0.05,-0.62 0.48,-0.9 1.19,-0.84 l 2.03,0.16 c 0.71,0.06 1.09,0.4 1.04,1.02 l -0.41,5.22 c -0.33,4.2 -2.23,6.36 -8.32,5.89 -6.08,-0.48 -7.63,-2.91 -7.3,-7.11 l 1.52,-19.45 c 0.33,-4.2 2.23,-6.36 8.32,-5.89 6.08,0.48 7.63,2.91 7.3,7.11 z m -9.58,-13.96 c -0.58,0.18 -0.97,0.06 -1.24,-0.41 l -0.35,-0.69 c -0.22,-0.46 -0.04,-0.85 0.49,-1.07 l 7.61,-3.41 c 0.58,-0.22 1.02,-0.05 1.29,0.46 l 0.75,1.44 c 0.27,0.51 0.08,0.94 -0.5,1.12 z"
   id="path459"
   inkscape:connector-curvature="0" />
		<path
   d="m 986.62,73.9 0.98,11.93 c 0.05,0.62 -0.33,1.01 -1.04,1.06 l -2.03,0.17 c -0.71,0.06 -1.14,-0.26 -1.19,-0.88 l -2.46,-30.09 c -0.05,-0.62 0.33,-0.96 1.04,-1.02 l 5.53,-0.45 c 6.64,-0.54 8.67,1.83 9.04,6.38 l 0.4,4.9 c 0.38,4.6 -1.24,7.26 -7.88,7.81 z m 2.13,-3.29 c 3.45,-0.28 4.08,-1.85 3.88,-4.37 l -0.4,-4.9 c -0.2,-2.47 -1.09,-3.91 -4.53,-3.63 l -2.38,0.19 1.06,12.9 z"
   id="path461"
   inkscape:connector-curvature="0" />
		<path
   d="m 1010.94,70.22 6.92,12.87 c 0.3,0.51 0.1,1.19 -0.76,1.31 l -2.28,0.19 c -0.61,0.05 -0.98,-0.14 -1.17,-0.57 l -6.98,-13 -1.98,0.16 1.08,13.17 c 0.05,0.62 -0.33,1.01 -1.04,1.06 l -2.03,0.17 c -0.71,0.06 -1.14,-0.26 -1.19,-0.88 l -2.46,-30.09 c -0.05,-0.62 0.33,-0.96 1.04,-1.02 l 5.68,-0.46 c 6.64,-0.54 8.62,1.83 8.99,6.38 l 0.3,3.71 c 0.29,3.52 -0.49,5.9 -4.12,7 z m -3.97,-2.34 c 3.45,-0.28 4.09,-1.8 3.88,-4.32 l -0.3,-3.71 c -0.2,-2.47 -1.09,-3.92 -4.53,-3.63 l -2.53,0.21 0.95,11.67 z"
   id="path463"
   inkscape:connector-curvature="0" />
		<path
   d="m 1034.36,57.09 1.59,19.44 c 0.34,4.2 -1.19,6.64 -7.28,7.14 -6.08,0.5 -7.99,-1.66 -8.34,-5.86 l -1.59,-19.44 c -0.34,-4.2 1.19,-6.64 7.27,-7.14 6.08,-0.5 8.01,1.66 8.35,5.86 z m -11.35,0.93 1.59,19.44 c 0.17,2.12 0.94,3.35 3.83,3.11 2.89,-0.24 3.44,-1.57 3.27,-3.69 l -1.59,-19.44 c -0.17,-2.12 -0.94,-3.35 -3.83,-3.11 -2.89,0.24 -3.44,1.57 -3.27,3.69 z"
   id="path465"
   inkscape:connector-curvature="0" />
		<path
   d="m 1041.62,82.39 c -0.71,0.06 -1.14,-0.26 -1.19,-0.88 l -2.46,-30.09 c -0.05,-0.62 0.33,-0.96 1.04,-1.02 l 5.68,-0.46 c 6.64,-0.54 8.62,1.83 8.99,6.38 l 1.46,17.81 c 0.38,4.6 -1.19,7.26 -7.83,7.8 z m 5.43,-3.56 c 3.45,-0.28 4.08,-1.85 3.88,-4.37 l -1.46,-17.81 c -0.2,-2.47 -1.09,-3.91 -4.53,-3.63 l -2.53,0.21 2.11,25.81 z"
   id="path467"
   inkscape:connector-curvature="0" />
		<path
   d="m 1057.23,49.84 c -0.05,-0.62 0.33,-0.96 1.04,-1.02 l 2.03,-0.17 c 0.71,-0.06 1.14,0.22 1.19,0.84 l 2.03,24.79 c 0.17,2.12 0.94,3.35 3.83,3.11 2.89,-0.24 3.44,-1.57 3.27,-3.69 l -2.03,-24.79 c -0.05,-0.62 0.33,-0.96 1.04,-1.02 l 2.03,-0.17 c 0.71,-0.06 1.14,0.22 1.19,0.84 l 2.03,24.79 c 0.34,4.2 -1.19,6.64 -7.28,7.13 -6.08,0.5 -7.99,-1.66 -8.34,-5.86 z"
   id="path469"
   inkscape:connector-curvature="0" />
		<path
   d="m 1082.24,61.05 0.25,-0.02 6.25,-14.08 c 0.22,-0.46 0.51,-0.66 1.06,-0.71 l 2.33,-0.19 c 0.86,-0.07 1.13,0.71 0.91,1.17 l -6.9,15.42 9.32,14.1 c 0.29,0.42 0.15,1.23 -0.71,1.3 l -2.33,0.19 c -0.56,0.05 -0.88,-0.11 -1.17,-0.53 l -8.45,-12.88 -0.25,0.02 1.07,13.12 c 0.05,0.62 -0.33,1.01 -1.04,1.06 l -2.03,0.17 c -0.71,0.06 -1.14,-0.26 -1.19,-0.88 l -2.46,-30.09 c -0.05,-0.62 0.33,-0.96 1.04,-1.02 l 2.03,-0.17 c 0.71,-0.06 1.14,0.22 1.19,0.84 z"
   id="path471"
   inkscape:connector-curvature="0" />
		<path
   d="m 1111.51,50.78 1.59,19.44 c 0.34,4.2 -1.19,6.64 -7.28,7.13 -6.08,0.5 -7.99,-1.66 -8.34,-5.86 l -1.59,-19.44 c -0.34,-4.2 1.19,-6.64 7.27,-7.13 6.08,-0.49 8.01,1.66 8.35,5.86 z m -11.35,0.93 1.59,19.44 c 0.17,2.12 0.94,3.35 3.83,3.11 2.89,-0.24 3.44,-1.57 3.27,-3.69 l -1.59,-19.44 c -0.17,-2.12 -0.94,-3.35 -3.83,-3.11 -2.89,0.23 -3.45,1.57 -3.27,3.69 z"
   id="path473"
   inkscape:connector-curvature="0" />
		<path
   d="m 1117.72,44.85 3.79,19.44 1.27,7.99 0.25,-0.02 -0.1,-8.09 0.37,-19.78 c 0,-0.58 0.38,-0.92 1.04,-0.98 l 3.6,-0.29 c 0.61,-0.05 1.04,0.18 1.19,0.79 l 3.58,19.46 1.17,8 0.3,-0.02 -0.1,-8.09 0.63,-19.8 c 0,-0.58 0.38,-0.92 0.99,-0.97 l 2.03,-0.17 c 0.71,-0.06 1.05,0.36 1.05,1.03 l -1.2,30.21 c -0.05,0.67 -0.38,1.01 -1.09,1.07 l -4.21,0.34 c -0.71,0.06 -1.14,-0.22 -1.25,-0.88 l -3.24,-18.42 -1.14,-7.65 -0.25,0.02 0.12,7.73 -0.2,18.7 c 0,0.67 -0.38,1.01 -1.09,1.07 l -4.21,0.34 c -0.71,0.06 -1.14,-0.22 -1.25,-0.88 l -6.1,-29.62 c -0.1,-0.66 0.21,-1.13 0.87,-1.18 l 2.03,-0.17 c 0.57,-0.02 1.05,0.2 1.15,0.82 z"
   id="path475"
   inkscape:connector-curvature="0" />
		<path
   d="m 1155.18,72.21 -1.56,-5.97 -7.05,0.58 -0.52,6.14 c -0.05,0.58 -0.43,0.93 -1.04,0.98 l -2.13,0.17 c -0.71,0.06 -1.1,-0.4 -1.05,-1.03 l 2.82,-30.35 c 0.05,-0.67 0.43,-1.01 1.14,-1.07 l 4.56,-0.37 c 0.71,-0.06 1.09,0.22 1.25,0.88 l 7.72,29.48 c 0.16,0.65 -0.16,1.13 -0.87,1.18 l -2.13,0.17 c -0.56,0.05 -1.04,-0.22 -1.14,-0.79 z m -8.4,-8.52 6.08,-0.5 -2.57,-10.16 -1.87,-8.48 -0.25,0.02 -0.46,8.67 z"
   id="path477"
   inkscape:connector-curvature="0" />
		<path
   d="m 1171.05,40.53 c -0.05,-0.62 0.33,-0.96 1.04,-1.02 l 1.93,-0.16 c 0.71,-0.06 1.09,0.22 1.14,0.84 l 2.46,30.09 c 0.05,0.62 -0.28,1 -0.99,1.06 l -2.69,0.22 c -0.71,0.06 -0.98,-0.19 -1.23,-0.74 l -6.42,-16.16 -2.31,-6.35 -0.25,0.07 0.95,6.64 1.33,16.22 c 0.05,0.62 -0.28,1 -0.98,1.06 l -1.93,0.16 c -0.71,0.06 -1.14,-0.26 -1.19,-0.88 l -2.46,-30.09 c -0.05,-0.62 0.33,-0.96 1.04,-1.02 l 2.64,-0.22 c 0.71,-0.06 1.04,0.18 1.23,0.74 l 6.43,16.16 2.31,6.35 0.25,-0.06 -0.95,-6.64 z"
   id="path479"
   inkscape:connector-curvature="0" />
		<path
   d="m 1180.76,38.8 c 0.51,-0.04 0.98,0.14 1.17,0.57 l 3.2,7.34 2.41,6.39 0.25,-0.02 1.34,-6.69 1.92,-7.76 c 0.12,-0.45 0.55,-0.71 1.06,-0.75 l 2.18,-0.18 c 0.76,-0.06 1.16,0.48 1.01,1.12 l -5.14,18.88 0.94,11.49 c 0.05,0.62 -0.28,1 -0.98,1.06 l -2.08,0.17 c -0.71,0.06 -1.09,-0.27 -1.14,-0.88 l -0.94,-11.49 -8.14,-17.79 c -0.3,-0.6 0.05,-1.21 0.81,-1.27 z"
   id="path481"
   inkscape:connector-curvature="0" />
		<path
   d="m 1214.41,47.57 c 0.05,0.62 -0.33,1.01 -1.04,1.06 l -2.03,0.17 c -0.71,0.06 -1.14,-0.26 -1.2,-0.88 l -0.42,-5.17 c -0.17,-2.12 -0.94,-3.35 -3.83,-3.11 -2.89,0.24 -3.44,1.57 -3.27,3.69 l 1.59,19.44 c 0.17,2.12 0.94,3.35 3.83,3.11 2.89,-0.24 3.44,-1.57 3.27,-3.69 l -0.43,-5.21 c -0.05,-0.62 0.33,-0.96 1.04,-1.02 l 2.03,-0.17 c 0.71,-0.06 1.14,0.22 1.19,0.84 l 0.43,5.21 c 0.34,4.2 -1.19,6.64 -7.28,7.13 -6.08,0.5 -7.99,-1.66 -8.34,-5.86 l -1.59,-19.44 c -0.34,-4.2 1.19,-6.64 7.27,-7.13 6.08,-0.49 7.99,1.66 8.34,5.86 z"
   id="path483"
   inkscape:connector-curvature="0" />
		<path
   d="m 1222.98,49.89 7.1,-0.58 -1.11,-13.52 c -0.05,-0.62 0.33,-0.96 1.04,-1.02 l 2.03,-0.17 c 0.71,-0.06 1.14,0.22 1.19,0.84 l 2.46,30.09 c 0.05,0.62 -0.33,1.01 -1.04,1.06 l -2.03,0.17 c -0.71,0.06 -1.14,-0.26 -1.19,-0.88 l -1.1,-13.48 -7.1,0.58 1.1,13.48 c 0.05,0.62 -0.33,1.01 -1.04,1.06 l -2.03,0.17 c -0.71,0.06 -1.14,-0.26 -1.19,-0.88 l -2.46,-30.09 c -0.05,-0.62 0.33,-0.96 1.04,-1.02 l 2.03,-0.17 c 0.71,-0.06 1.14,0.22 1.19,0.84 z"
   id="path485"
   inkscape:connector-curvature="0" />
		<path
   d="m 1263.1,38.38 1.59,19.44 c 0.34,4.2 -1.19,6.64 -7.28,7.13 -6.08,0.5 -7.99,-1.66 -8.34,-5.86 l -1.59,-19.44 c -0.34,-4.2 1.19,-6.64 7.27,-7.13 6.08,-0.49 8.01,1.66 8.35,5.86 z m -11.35,0.93 1.59,19.44 c 0.17,2.12 0.94,3.35 3.83,3.11 2.89,-0.24 3.44,-1.57 3.27,-3.69 l -1.59,-19.44 c -0.17,-2.12 -0.94,-3.35 -3.83,-3.11 -2.89,0.23 -3.44,1.57 -3.27,3.69 z"
   id="path487"
   inkscape:connector-curvature="0" />
		<path
   d="m 1270.4,63.67 c -0.71,0.06 -1.14,-0.26 -1.19,-0.88 l -2.46,-30.09 c -0.05,-0.62 0.33,-0.96 1.04,-1.02 l 5.68,-0.46 c 6.64,-0.54 8.62,1.83 8.99,6.38 l 1.46,17.81 c 0.38,4.6 -1.19,7.26 -7.83,7.8 z m 5.43,-3.55 c 3.45,-0.28 4.08,-1.85 3.88,-4.37 l -1.46,-17.81 c -0.2,-2.47 -1.09,-3.91 -4.53,-3.63 l -2.53,0.21 2.11,25.81 z"
   id="path489"
   inkscape:connector-curvature="0" />
		<path
   d="m 1291.74,48.94 0.98,11.93 c 0.05,0.62 -0.33,1.01 -1.04,1.06 l -2.03,0.17 c -0.71,0.06 -1.14,-0.26 -1.19,-0.88 L 1286,31.13 c -0.05,-0.62 0.33,-0.96 1.04,-1.02 l 5.53,-0.45 c 6.64,-0.54 8.67,1.83 9.04,6.38 l 0.4,4.91 c 0.38,4.6 -1.24,7.26 -7.88,7.81 z m 2.13,-3.29 c 3.45,-0.28 4.08,-1.85 3.88,-4.37 l -0.4,-4.91 c -0.2,-2.47 -1.09,-3.92 -4.53,-3.63 l -2.38,0.2 1.06,12.9 z"
   id="path491"
   inkscape:connector-curvature="0" />
		<path
   d="m 1316.45,59.02 -1.56,-5.97 -7.05,0.58 -0.52,6.14 c -0.05,0.58 -0.43,0.93 -1.04,0.98 l -2.13,0.17 c -0.71,0.06 -1.1,-0.4 -1.05,-1.03 l 2.82,-30.35 c 0.05,-0.67 0.43,-1.01 1.14,-1.07 l 4.56,-0.37 c 0.71,-0.06 1.09,0.22 1.25,0.88 l 7.72,29.48 c 0.16,0.65 -0.16,1.13 -0.87,1.18 l -2.13,0.17 c -0.56,0.05 -1.04,-0.22 -1.14,-0.79 z m -8.4,-8.52 6.08,-0.5 -2.57,-10.16 -1.87,-8.48 -0.25,0.02 -0.46,8.67 z"
   id="path493"
   inkscape:connector-curvature="0" />
		<path
   d="m 1324.39,59.26 c -0.71,0.06 -1.14,-0.26 -1.19,-0.88 l -2.46,-30.09 c -0.05,-0.62 0.33,-0.96 1.04,-1.02 l 5.68,-0.46 c 6.64,-0.54 8.62,1.83 8.99,6.38 l 1.46,17.81 c 0.38,4.6 -1.19,7.26 -7.83,7.8 z m 5.42,-3.56 c 3.45,-0.28 4.08,-1.85 3.88,-4.37 l -1.46,-17.81 c -0.2,-2.47 -1.09,-3.91 -4.53,-3.63 l -2.53,0.21 2.11,25.81 z"
   id="path495"
   inkscape:connector-curvature="0" />
		<path
   d="m 1356.04,30.78 1.59,19.44 c 0.34,4.2 -1.19,6.64 -7.28,7.13 -6.08,0.5 -7.99,-1.66 -8.34,-5.86 l -1.59,-19.44 c -0.34,-4.2 1.19,-6.64 7.27,-7.13 6.08,-0.49 8.01,1.66 8.35,5.86 z m -11.24,-7.09 c -0.54,0.27 -0.95,0.21 -1.29,-0.21 l -0.46,-0.63 c -0.29,-0.42 -0.17,-0.83 0.31,-1.14 l 6.97,-4.58 c 0.54,-0.31 1,-0.22 1.35,0.25 l 0.97,1.3 c 0.34,0.46 0.23,0.92 -0.31,1.18 z m -0.11,8.02 1.59,19.44 c 0.17,2.12 0.94,3.35 3.83,3.11 2.89,-0.24 3.44,-1.57 3.27,-3.69 l -1.59,-19.44 c -0.17,-2.12 -0.94,-3.35 -3.83,-3.11 -2.89,0.23 -3.45,1.57 -3.27,3.69 z"
   id="path497"
   inkscape:connector-curvature="0" />
		<path
   d="m 1362.27,24.84 3.79,19.44 1.27,7.99 0.25,-0.02 -0.1,-8.09 0.37,-19.78 c 0,-0.58 0.38,-0.92 1.04,-0.97 l 3.6,-0.29 c 0.61,-0.05 1.04,0.18 1.19,0.79 l 3.58,19.46 1.17,8 0.3,-0.03 -0.1,-8.09 0.63,-19.8 c 0,-0.58 0.38,-0.92 0.99,-0.97 l 2.03,-0.17 c 0.71,-0.06 1.05,0.36 1.05,1.03 l -1.2,30.22 c -0.05,0.67 -0.38,1.01 -1.09,1.07 l -4.21,0.34 c -0.71,0.06 -1.14,-0.22 -1.25,-0.88 l -3.24,-18.42 -1.14,-7.65 -0.25,0.02 0.12,7.73 -0.2,18.7 c 0,0.67 -0.38,1.01 -1.09,1.07 l -4.21,0.34 c -0.71,0.06 -1.14,-0.22 -1.25,-0.88 l -6.1,-29.62 c -0.1,-0.66 0.21,-1.13 0.87,-1.18 l 2.03,-0.17 c 0.57,-0.03 1.05,0.2 1.15,0.81 z"
   id="path499"
   inkscape:connector-curvature="0" />
	</g>
</g>
</svg>